<?xml version="1.0" encoding="UTF-8"?>
<svg width="33px" height="20px" viewBox="0 0 33 20" version="1.1" xmlns="http://www.w3.org/2000/svg" xmlns:xlink="http://www.w3.org/1999/xlink">
    <!-- Generator: Sketch 52.6 (67491) - http://www.bohemiancoding.com/sketch -->
    <title>Shape</title>
    <desc>Created with Sketch.</desc>
    <g id="Page-1" stroke="none" stroke-width="1" fill="none" fill-rule="evenodd">
        <g id="SKM-lead4" transform="translate(-683.000000, -11.000000)" fill="#FFFFFF" fill-rule="nonzero">
            <path d="M715.266667,16.7665079 L713.547733,16.7665079 L713.547733,11.7440793 C713.547733,11.3331349 713.21941,11 712.8144,11 L686.1856,11 C685.78059,11 685.452267,11.3331349 685.452267,11.7440793 L685.452267,16.7665079 L683.733333,16.7665079 C683.328324,16.7665079 683,17.0996428 683,17.5105872 L683,28.2764573 C683,28.6874017 683.328324,29.0205366 683.733333,29.0205366 L685.452267,29.0205366 L685.452267,30.2559207 C685.452267,30.6668651 685.78059,31 686.1856,31 C686.59061,31 686.918933,30.6668651 686.918933,30.2559207 L686.918933,29.0205366 L712.081067,29.0205366 L712.081067,30.2559207 C712.081067,30.6668651 712.40939,31 712.8144,31 C713.21941,31 713.547733,30.6668651 713.547733,30.2559207 L713.547733,29.0205366 L715.266667,29.0205366 C715.671676,29.0205366 716,28.6874017 716,28.2764573 L716,17.5105872 C716,17.0996428 715.671676,16.7665079 715.266667,16.7665079 Z M686.918933,12.4881585 L712.081067,12.4881585 L712.081067,16.7665079 L710.362343,16.7665079 C709.957333,16.7665079 709.62901,17.0996428 709.62901,17.5105872 L709.62901,22.5947744 L689.37099,22.5947744 L689.37099,17.5105872 C689.37099,17.0996428 689.042667,16.7665079 688.637657,16.7665079 L686.918933,16.7665079 L686.918933,12.4881585 Z M714.533333,27.5323781 L684.466667,27.5323781 L684.466667,18.2546664 L687.904324,18.2546664 L687.904324,23.3388537 C687.904324,23.749798 688.232648,24.0829329 688.637657,24.0829329 L710.362238,24.0829329 C710.767248,24.0829329 711.095571,23.749798 711.095571,23.3388537 L711.095571,18.2546664 L714.533333,18.2546664 L714.533333,27.5323781 Z" id="Shape"></path>
        </g>
    </g>
</svg>