<?xml version="1.0" encoding="UTF-8"?>
<svg width="25px" height="25px" viewBox="0 0 25 25" version="1.1" xmlns="http://www.w3.org/2000/svg" xmlns:xlink="http://www.w3.org/1999/xlink">
    <!-- Generator: Sketch 52.6 (67491) - http://www.bohemiancoding.com/sketch -->
    <title>sticker</title>
    <desc>Created with Sketch.</desc>
    <g id="Page-1" stroke="none" stroke-width="1" fill="none" fill-rule="evenodd">
        <g id="SKM-lead4" transform="translate(-1318.000000, -9.000000)" fill="#FFFFFF">
            <g id="sticker" transform="translate(1318.000000, 9.000000)">
                <path d="M24.9921799,11.0733032 L24.9921799,11.0731125 C24.9513626,10.6836319 24.7495651,10.3246689 24.4386673,10.0868225 L23.0157852,8.97903442 L23.5506058,7.21435547 C23.6646652,6.83784482 23.617363,6.42642974 23.4207153,6.0853958 C23.223877,5.74455264 22.8912354,5.49793242 22.508049,5.40828706 L20.7180023,4.99038696 L20.489502,3.16658018 C20.4404831,2.77595518 20.2299118,2.41928101 19.9117661,2.1884918 C19.5932388,1.95674897 19.1886902,1.86653135 18.8024521,1.94091797 L16.9971466,2.28710176 L16.0463333,0.713729883 C15.6679153,0.0875473145 14.8733139,-0.148963916 14.1984939,0.16307832 C14.151001,0.185012793 14.1052246,0.211334229 14.065361,0.239562988 L12.4984741,1.33094785 L10.9899521,0.280189502 C10.667038,0.0555038574 10.2613449,-0.0263213867 9.87644194,0.0553130859 C9.49153901,0.136947656 9.15393828,0.377273535 8.95042422,0.714111328 L7.99999238,2.28729248 L6.19449614,1.94091797 C5.80787656,1.86691284 5.40370942,1.95713042 5.08575439,2.18830107 C4.76722715,2.4196625 4.55665586,2.77633667 4.50782773,3.16658018 L4.27932739,4.99057769 L2.38609316,5.43251035 L2.29721069,5.46150205 L2.2644043,5.47580718 C1.57661436,5.77659609 1.23252871,6.50787354 1.4465332,7.21435547 L1.98116304,8.97903442 L0.497245801,10.1333618 L0.411224365,10.2081299 L0.387001025,10.234642 C-0.111007715,10.7786179 -0.130462646,11.601448 0.340652441,12.1515274 L1.50241851,13.5408401 L0.560760498,15.2496338 L0.523185742,15.335083 L0.512313867,15.3669357 C0.277519238,16.0686493 0.597381592,16.8312073 1.25617979,17.1403885 L2.92015078,17.921257 L2.76432036,19.7526932 C2.7309418,20.1450348 2.86293027,20.5377579 3.12614443,20.8299637 C3.3893585,21.1223603 3.76605986,21.2945938 4.15973662,21.3026047 L5.99746704,21.3392258 L6.60018921,23.0754853 C6.72912598,23.4474182 7.00931548,23.752594 7.36865996,23.9124298 C7.72800444,24.0724563 8.14208984,24.0766525 8.50524902,23.9238739 L10.1991653,23.2099533 L11.5287781,24.62883 L11.5983963,24.6908188 L11.6252899,24.7108459 C11.8879318,24.9048233 12.1948242,24.9998093 12.4988556,24.9998093 C12.8835678,24.9998093 13.2635117,24.8476028 13.5414124,24.5510102 L14.7983551,23.2099533 L16.4924622,23.9240646 C16.8548584,24.0766525 17.268753,24.0724563 17.6280976,23.9126206 C17.9878235,23.752594 18.268013,23.4474182 18.3969498,23.075676 L18.9998627,21.3392258 L20.9438324,21.3005066 L21.036148,21.2903977 L21.0693359,21.2837219 C21.7941284,21.1359024 22.294426,20.4776764 22.2328186,19.7528839 L22.077179,17.921257 L23.7413406,17.1403885 C24.0974426,16.9733047 24.3715286,16.6627884 24.4932175,16.2883759 C24.6147156,15.9141541 24.5756149,15.5017853 24.385643,15.1571274 L23.4949112,13.5408401 L24.656868,12.1515274 C24.9107361,11.8549347 25.0329971,11.4624023 24.9921799,11.0733032 Z M22.1092224,12.9125595 C21.8790054,13.1843567 21.8397141,13.5751724 22.0119477,13.8874054 L23.0825424,15.8302307 L21.074295,16.7726517 C20.7487106,16.925621 20.5505371,17.2691345 20.580864,17.6275253 L20.7687378,19.8377609 L18.5508728,19.8820114 C18.1913376,19.8892593 17.8703308,20.1223374 17.7524566,20.4622269 L17.0249939,22.5578308 L14.9810791,21.6962814 C14.6495819,21.5566635 14.2616272,21.6388702 14.0153885,21.9015122 L12.4984741,23.5200882 L10.9815598,21.9013214 C10.8154297,21.723938 10.5844498,21.6289521 10.3498459,21.6289521 C10.2371216,21.6289521 10.1236343,21.6508865 10.0162506,21.6962814 L7.97195435,22.5578308 L7.24468232,20.4627991 C7.12699893,20.1227188 6.80599214,19.8892593 6.44607544,19.8820114 L4.22801973,19.8377609 L4.41589355,17.6275253 C4.44641113,17.2691345 4.24804687,16.925621 3.92246245,16.7726517 L1.91440581,15.8302307 L2.98500059,13.8875961 C3.1574249,13.5749817 3.11794282,13.1843567 2.88753511,12.9123687 L1.47838594,11.2272263 L3.20491792,9.88407134 C3.48758696,9.66606143 3.60774995,9.29145811 3.50399019,8.95004272 L2.86083223,6.82716367 L5.02128604,6.32247925 C5.37128447,6.240654 5.63659668,5.94615938 5.68161011,5.58910371 L5.9574127,3.38802339 L8.13636777,3.80592344 C8.48960879,3.8734436 8.85162354,3.71208193 9.03778076,3.40442656 L10.1848603,1.50585176 L12.005043,2.77347563 C12.3003006,2.97908784 12.6970291,2.97927856 12.9920959,2.77347563 L14.8122788,1.50566104 L15.9595489,3.40385439 C16.1453247,3.71189116 16.5081024,3.8734436 16.8613434,3.80573271 L19.039917,3.38783262 L19.3157196,5.58872222 C19.3603516,5.94558716 19.6256638,6.24046328 19.9762344,6.32247925 L22.1364975,6.82697295 L21.4931488,8.949852 C21.3895798,9.29203032 21.5099335,9.66644287 21.7926025,9.88426211 L23.5183716,11.2279892 L22.1092224,12.9125595 Z" id="Shape" fill-rule="nonzero"></path>
                <path d="M12.5762939,6.28814697 C9.14363862,6.28814697 6.35089873,9.08069609 6.35089873,12.5135422 C6.35089873,15.9461975 9.14363862,18.7389374 12.5762939,18.7389374 C16.00914,18.7389374 18.8018799,15.9461975 18.8018799,12.5135422 C18.8018799,9.08069609 16.0089493,6.28814697 12.5762939,6.28814697 Z M12.5762939,17.2729492 C9.95197295,17.2729492 7.81669619,15.1378632 7.81669619,12.5135422 C7.81669619,9.88903047 9.95197295,7.75394438 12.5762939,7.75394438 C15.2008057,7.75394438 17.3358917,9.88903047 17.3358917,12.5135422 C17.3358917,15.1378632 15.2008057,17.2729492 12.5762939,17.2729492 Z" id="Shape" fill-rule="nonzero"></path>
                <path d="M14.3657685,10.5806351 L11.4740372,13.4721756 L10.689354,12.6873017 C10.4030609,12.4011993 9.93900298,12.4011993 9.65290068,12.6873017 C9.36660767,12.9735947 9.36660767,13.4376526 9.65290068,13.7239456 L10.9558105,15.0268555 C11.0988617,15.1700974 11.2865448,15.2416229 11.4740372,15.2416229 C11.6615295,15.2416229 11.8492126,15.1700974 11.9922638,15.0268555 L15.4022217,11.6170883 C15.688324,11.3307953 15.688324,10.8667374 15.4022217,10.5806351 C15.1159287,10.294342 14.6518707,10.294342 14.3657685,10.5806351 Z" id="Path"></path>
            </g>
        </g>
    </g>
</svg>