<?xml version="1.0" encoding="UTF-8"?>
<svg width="25px" height="25px" viewBox="0 0 25 25" version="1.1" xmlns="http://www.w3.org/2000/svg" xmlns:xlink="http://www.w3.org/1999/xlink">
    <!-- Generator: Sketch 52.6 (67491) - http://www.bohemiancoding.com/sketch -->
    <title>cashier</title>
    <desc>Created with Sketch.</desc>
    <g id="Page-1" stroke="none" stroke-width="1" fill="none" fill-rule="evenodd">
        <g id="SKM-lead4" transform="translate(-1015.000000, -8.000000)" fill="#FFFFFF" fill-rule="nonzero">
            <g id="cashier" transform="translate(1015.000000, 8.000000)">
                <path d="M11.2764592,1.6798048 L21.4244896,1.6798048 C22.6345269,1.6798048 23.6199939,2.66428539 23.6199939,3.87311139 L23.6199939,18.5438368 L24.2542703,18.5438368 C24.6582031,18.5438368 24.9859093,18.8710195 24.9859093,19.2747435 L24.9859093,24.2500313 C24.9859093,24.6538531 24.6582031,24.9811335 24.2542703,24.9811335 L0.738292986,24.9811335 C0.333968712,24.9811335 0.00626252505,24.6538531 0.00626252505,24.2500313 L0.00626252505,19.2747435 C0.00626252505,18.8710195 0.333968712,18.5438368 0.738292986,18.5438368 L1.37237365,18.5438368 L1.37237365,3.87311139 C1.37237365,2.66428539 2.35774284,1.6798048 3.56768224,1.6798048 L4.44600138,1.6798048 L4.44795842,0.753781131 C4.44795842,0.257972823 4.94866686,-0.10489004 5.42667365,0.0684278028 L6.51948427,0.465406807 L7.61258845,0.0684278028 C7.76787951,0.0121214965 7.94274096,0.00772257257 8.10987209,0.0684278028 L9.20297625,0.465406807 L10.2416747,0.0880763514 C10.7873951,-0.134705005 11.2764592,0.262078478 11.2764592,0.753781131 L11.2764592,1.6798048 Z M4.34844299,11.7202163 C3.94441227,11.7202163 3.61660822,11.3927404 3.61660822,10.9891141 C3.61660822,10.5852923 3.94441227,10.2579142 4.34844299,10.2579142 L4.44600138,10.2579142 L4.44600138,3.14191144 L3.56768224,3.14191144 C3.16560857,3.14191144 2.83614103,3.47144019 2.83614103,3.87311139 L2.83614103,18.5438368 L22.1563244,18.5438368 L22.1563244,3.87311139 C22.1563244,3.47144019 21.8265633,3.14191144 21.4244896,3.14191144 L11.2764592,3.14191144 L11.2764592,10.2579142 L11.3740176,10.2579142 C11.778244,10.2579142 12.1058523,10.5852923 12.1058523,10.9891141 C12.1058523,11.3927404 11.778244,11.7201186 11.3740176,11.7201186 L4.34844299,11.7201186 L4.34844299,11.7202163 Z M19.7655076,16.1067317 C19.361379,16.1067317 19.0337707,16.4341099 19.0337707,16.8376384 C19.0337707,17.2417535 19.361379,17.5688384 19.7655076,17.5688384 C20.1696361,17.5688384 20.4973423,17.2417535 20.4973423,16.8376384 C20.4973423,16.4341099 20.1696361,16.1067317 19.7655076,16.1067317 Z M16.8382664,16.1067317 C16.43404,16.1067317 16.1065295,16.4341099 16.1065295,16.8376384 C16.1065295,17.2417535 16.43404,17.5688384 16.8382664,17.5688384 C17.2423949,17.5688384 17.5701012,17.2417535 17.5701012,16.8376384 C17.5701012,16.4341099 17.2423949,16.1067317 16.8382664,16.1067317 Z M13.9110252,16.1067317 C13.5068966,16.1067317 13.1790926,16.4341099 13.1790926,16.8376384 C13.1790926,17.2417535 13.5068966,17.5688384 13.9110252,17.5688384 C14.3153494,17.5688384 14.6430556,17.2417535 14.6430556,16.8376384 C14.6430556,16.4341099 14.3153494,16.1067317 13.9110252,16.1067317 Z M19.7655076,13.1824207 C19.361379,13.1824207 19.0337707,13.5096034 19.0337707,13.9134252 C19.0337707,14.3171492 19.361379,14.6445273 19.7655076,14.6445273 C20.1696361,14.6445273 20.4973423,14.3171492 20.4973423,13.9134252 C20.4973423,13.5096034 20.1696361,13.1824207 19.7655076,13.1824207 Z M16.8382664,13.1824207 C16.43404,13.1824207 16.1065295,13.5096034 16.1065295,13.9134252 C16.1065295,14.3171492 16.43404,14.6445273 16.8382664,14.6445273 C17.2423949,14.6445273 17.5701012,14.3171492 17.5701012,13.9134252 C17.5701012,13.5096034 17.2423949,13.1824207 16.8382664,13.1824207 Z M13.9110252,13.1824207 C13.5068966,13.1824207 13.1790926,13.5096034 13.1790926,13.9134252 C13.1790926,14.3171492 13.5068966,14.6445273 13.9110252,14.6445273 C14.3153494,14.6445273 14.6430556,14.3171492 14.6430556,13.9134252 C14.6430556,13.5096034 14.3153494,13.1824207 13.9110252,13.1824207 Z M19.7655076,10.2579142 C19.361379,10.2579142 19.0337707,10.5852923 19.0337707,10.9891141 C19.0337707,11.3927404 19.361379,11.7202163 19.7655076,11.7202163 C20.1696361,11.7202163 20.4973423,11.3927404 20.4973423,10.9891141 C20.4973423,10.5852923 20.1696361,10.2579142 19.7655076,10.2579142 Z M16.8382664,10.2579142 C16.43404,10.2579142 16.1065295,10.5852923 16.1065295,10.9891141 C16.1065295,11.3927404 16.43404,11.7202163 16.8382664,11.7202163 C17.2423949,11.7202163 17.5701012,11.3927404 17.5701012,10.9891141 C17.5701012,10.5852923 17.2423949,10.2579142 16.8382664,10.2579142 Z M13.9110252,10.2579142 C13.5068966,10.2579142 13.1790926,10.5852923 13.1790926,10.9891141 C13.1790926,11.3927404 13.5068966,11.7202163 13.9110252,11.7202163 C14.3153494,11.7202163 14.6430556,11.3927404 14.6430556,10.9891141 C14.6430556,10.5852923 14.3153494,10.2579142 13.9110252,10.2579142 Z M13.61835,4.60440911 C13.2140257,4.60440911 12.8863195,4.93149399 12.8863195,5.33521802 L12.8863195,8.06470533 C12.8863195,8.46852713 13.2140257,8.79580753 13.61835,8.79580753 L20.2533974,8.79580753 C20.6577217,8.79580753 20.9854279,8.46852713 20.9854279,8.06470533 L20.9854279,5.33521802 C20.9854279,4.93149399 20.6577217,4.60440911 20.2533974,4.60440911 L13.61835,4.60440911 Z M19.5214648,6.06641797 L14.349989,6.06641797 L14.349989,7.33350538 L19.5214648,7.33350538 L19.5214648,6.06641797 Z M5.90957305,10.2579142 L9.8128875,10.2579142 L9.8128875,1.7954478 L9.45161809,1.92653591 C9.28429123,1.98714339 9.10923409,1.98274447 8.9542366,1.92653591 L7.86113241,1.52965465 L6.76822395,1.92653591 C6.60099496,1.98714339 6.42593783,1.98274447 6.27084246,1.92653591 L5.90957305,1.7954478 L5.90957305,10.2579142 Z M11.6600388,22.4934896 L13.332133,22.4934896 C13.7364573,22.4934896 14.0641635,22.1661114 14.0641635,21.7622896 C14.0641635,21.3587611 13.7364573,21.0313829 13.332133,21.0313829 L11.6600388,21.0313829 C11.2557146,21.0313829 10.9283019,21.3587611 10.9283019,21.7622896 C10.9283019,22.1661114 11.2557146,22.4934896 11.6600388,22.4934896 Z M1.46983419,20.0060412 L1.46983419,23.5189291 L23.5223377,23.5189291 L23.5223377,20.0060412 L1.46983419,20.0060412 Z" id="Shape"></path>
            </g>
        </g>
    </g>
</svg>