<?xml version="1.0" encoding="UTF-8"?>
<svg width="33px" height="25px" viewBox="0 0 33 25" version="1.1" xmlns="http://www.w3.org/2000/svg" xmlns:xlink="http://www.w3.org/1999/xlink">
    <!-- Generator: Sketch 52.6 (67491) - http://www.bohemiancoding.com/sketch -->
    <title>truck-facing-right</title>
    <desc>Created with Sketch.</desc>
    <g id="Page-1" stroke="none" stroke-width="1" fill="#fff" fill-rule="evenodd">
        <g id="SKM-lead4" transform="translate(-405.000000, -9.000000)" fill="#FFFFFF" fill-rule="nonzero">
            <g id="truck-facing-right" transform="translate(405.000000, 9.000000)">
                <path d="M32.1897533,11.195227 L29.7488688,5.95686761 C29.6290323,5.69975186 29.3710407,5.53532331 29.0873595,5.53532331 L22.3233105,5.53532331 C21.9203036,5.53532331 21.59349,5.86206393 21.59349,6.26514377 C21.59349,6.66822362 21.9203036,6.99496424 22.3233105,6.99496424 L28.6222449,6.99496424 L30.7984236,11.6651584 L30.7984236,18.9313239 L30.0136476,18.9313239 C29.6605605,16.6002043 27.6434097,14.8078383 25.215297,14.8078383 C22.7871844,14.8078383 20.7700336,16.6002043 20.4169464,18.9313239 L11.8411181,18.9313239 C11.7626624,18.4133703 11.6010801,17.922712 11.3720625,17.471683 L20.1339221,17.471683 C20.5369289,17.471683 20.8637425,17.1449423 20.8637425,16.7418625 L20.8637425,0.737337615 C20.8637425,0.334257773 20.5369289,0.00751715078 20.1339221,0.00751715078 L0.729820464,0.00751715078 C0.326813604,0.00751715078 0,0.334257773 0,0.737337615 L0,16.7419355 C0,17.1450153 0.326813604,17.4717559 0.729820464,17.4717559 L2.71354547,17.4717559 C2.48452781,17.922785 2.32287257,18.4134433 2.24448986,18.9313969 L0.729820464,18.9313969 C0.326813604,18.9313969 0,19.2581375 0,19.6612173 C0,20.0642972 0.326813604,20.3910378 0.729820464,20.3910378 L2.24441687,20.3910378 C2.59750401,22.7221573 4.61465479,24.5145234 7.04276748,24.5145234 C9.47088016,24.5145234 11.4880309,22.7221573 11.8411181,20.3910378 L20.4169464,20.3910378 C20.7700336,22.7221573 22.7871844,24.5145234 25.215297,24.5145234 C27.6434097,24.5145234 29.6605605,22.7221573 30.0136476,20.3910378 L31.5282441,20.3910378 C31.9312509,20.3910378 32.2580645,20.0642972 32.2580645,19.6612173 L32.2580645,11.5035031 C32.2580645,11.3970223 32.2347832,11.2917822 32.1897533,11.195227 Z M1.45964093,1.46715808 L19.4040286,1.46715808 L19.4040286,16.012115 L10.2372646,16.012115 C9.3829368,15.2633192 8.26536272,14.8079113 7.04276748,14.8079113 C5.82017224,14.8079113 4.70259816,15.2633192 3.84827033,16.012115 L1.45964093,16.012115 L1.45964093,1.46715808 Z M7.04276748,23.0548095 C5.17143483,23.0548095 3.64910232,21.532404 3.64910232,19.6611444 C3.64910232,17.7898847 5.17143483,16.2674792 7.04276748,16.2674792 C8.91410013,16.2674792 10.4364326,17.7898847 10.4364326,19.6611444 C10.4364326,21.532404 8.91410013,23.0548095 7.04276748,23.0548095 Z M25.215297,23.0548095 C23.3439644,23.0548095 21.8216319,21.532404 21.8216319,19.6611444 C21.8216319,17.7898847 23.3439644,16.2674792 25.215297,16.2674792 C27.0862648,16.2674792 28.6084513,17.7893738 28.6089622,19.6601956 C28.6089622,19.6604875 28.6088892,19.6608524 28.6088892,19.6611444 C28.6088892,19.6614363 28.6089622,19.6618012 28.6089622,19.6620931 C28.6084513,21.5329879 27.0862648,23.0548095 25.215297,23.0548095 Z" id="Shape"></path>
                <path d="M28.6458911,12.2333236 C28.646329,12.2333236 28.6468399,12.2333236 28.6473508,12.2333236 C29.0504306,12.2333236 29.3771712,11.906583 29.3771712,11.5035031 C29.3771712,11.3768793 29.3449861,11.2577726 29.2882061,11.1539191 L28.0343745,8.46307108 C27.914538,8.20595533 27.6565465,8.04152678 27.3728653,8.04152678 L22.6401255,8.04152678 C22.2371187,8.04152678 21.9103051,8.36826741 21.9103051,8.77134725 L21.9103051,11.5035031 C21.9103051,11.906583 22.2371187,12.2333236 22.6401255,12.2333236 L28.6458911,12.2333236 Z M23.369946,9.50124069 L26.9077507,9.50124069 L27.5007298,10.7737557 L23.369946,10.7737557 L23.369946,9.50124069 Z" id="Shape"></path>
            </g>
        </g>
    </g>
</svg>