<?xml version="1.0" encoding="UTF-8"?>
<svg width="30px" height="28px" viewBox="0 0 30 28" version="1.1" xmlns="http://www.w3.org/2000/svg" xmlns:xlink="http://www.w3.org/1999/xlink">
    <!-- Generator: Sketch 52.6 (67491) - http://www.bohemiancoding.com/sketch -->
    <title>print</title>
    <desc>Created with Sketch.</desc>
    <g id="Page-1" stroke="none" stroke-width="1" fill="none" fill-rule="evenodd">
        <g id="ESS-калькурятор-2" transform="translate(-1088.000000, -717.000000)" fill="#9B9B9B">
            <g id="print" transform="translate(1088.000000, 717.000000)">
                <path d="M27.7781928,6.5128 L24.4306024,6.5128 L24.4306024,0.990104348 C24.4306024,0.48573913 24.0260241,0.0770608696 23.526988,0.0770608696 L6.35963855,0.0770608696 C5.86060241,0.0770608696 5.4560241,0.48573913 5.4560241,0.990104348 L5.4560241,6.5128 L2.10843373,6.5128 C0.945903614,6.5128 0,7.46845217 0,8.64323478 L0,20.3575826 C0,21.5322435 0.945903614,22.4880174 2.10843373,22.4880174 L5.4560241,22.4880174 L5.4560241,27.0170783 C5.4560241,27.5214435 5.86060241,27.9301217 6.35963855,27.9301217 L23.5268675,27.9301217 C24.0259036,27.9301217 24.4304819,27.5214435 24.4304819,27.0170783 L24.4304819,22.4880174 L27.7780723,22.4880174 C28.9406024,22.4880174 29.886506,21.5322435 29.886506,20.3575826 L29.886506,8.64323478 C29.8866265,7.46857391 28.9407229,6.5128 27.7781928,6.5128 Z M7.26325301,1.90314783 L22.623253,1.90314783 L22.623253,6.5128 L7.26325301,6.5128 L7.26325301,1.90314783 Z M22.623253,26.1040348 L7.26325301,26.1040348 L7.26325301,17.0461565 L22.623253,17.0461565 L22.623253,26.1040348 Z M28.0793976,20.3575826 C28.0793976,20.5225391 27.9414458,20.6619304 27.7781928,20.6619304 L24.4306024,20.6619304 L24.4306024,16.133113 C24.4306024,15.6287478 24.0260241,15.2200696 23.526988,15.2200696 L6.35963855,15.2200696 C5.86060241,15.2200696 5.4560241,15.6287478 5.4560241,16.133113 L5.4560241,20.6619304 L2.10843373,20.6619304 C1.94518072,20.6619304 1.80722892,20.5225391 1.80722892,20.3575826 L1.80722892,8.64323478 C1.80722892,8.47815652 1.94518072,8.33888696 2.10843373,8.33888696 L6.35963855,8.33888696 L23.5268675,8.33888696 L27.7780723,8.33888696 C27.9413253,8.33888696 28.0792771,8.47815652 28.0792771,8.64323478 L28.0792771,20.3575826 L28.0793976,20.3575826 Z" id="Shape" fill-rule="nonzero"></path>
                <ellipse id="Oval" cx="23.5268675" cy="11.7794783" rx="1.2853012" ry="1.29871304"></ellipse>
                <path d="M19.0543373,18.8478957 L10.8321687,18.8478957 C10.3331325,18.8478957 9.92855422,19.2565739 9.92855422,19.7609391 C9.92855422,20.2653043 10.3331325,20.6739826 10.8321687,20.6739826 L19.0543373,20.6739826 C19.5533735,20.6739826 19.9579518,20.2653043 19.9579518,19.7609391 C19.9579518,19.2566957 19.553494,18.8478957 19.0543373,18.8478957 Z" id="Path"></path>
                <path d="M19.0543373,22.4758435 L10.8321687,22.4758435 C10.3331325,22.4758435 9.92855422,22.8845217 9.92855422,23.388887 C9.92855422,23.8932522 10.3331325,24.3019304 10.8321687,24.3019304 L19.0543373,24.3019304 C19.5533735,24.3019304 19.9579518,23.8932522 19.9579518,23.388887 C19.9579518,22.8845217 19.553494,22.4758435 19.0543373,22.4758435 Z" id="Path"></path>
            </g>
        </g>
    </g>
</svg>