<svg width="43" height="38" viewBox="0 0 43 38" xmlns="http://www.w3.org/2000/svg"><title>basket</title><path d="M1.574 3.098C.71 3.098 0 2.4 0 1.548 0 .698.709 0 1.574 0H7.27c.708 0 1.338.465 1.522 1.136l6.429 22.872h17.53l5.825-13.166h-19.42c-.866 0-1.574-.697-1.574-1.549 0-.851.708-1.548 1.574-1.548H40.99a1.57 1.57 0 0 1 1.312.697c.289.438.341.98.131 1.471l-7.19 16.264a1.578 1.578 0 0 1-1.443.929H14.04c-.708 0-1.338-.465-1.522-1.136L6.088 3.098H1.574zM12.544 38c-1.969 0-3.57-1.575-3.57-3.51 0-1.937 1.601-3.512 3.57-3.512 1.967 0 3.568 1.575 3.568 3.511 0 1.936-1.6 3.511-3.569 3.511zm22.305 0c-1.864 0-3.412-1.446-3.543-3.279-.131-1.91 1.338-3.614 3.306-3.743 1.969-.129 3.674 1.343 3.805 3.253.053.955-.236 1.859-.866 2.556A3.582 3.582 0 0 1 35.111 38h-.262z" fill="#212529"/></svg>