<svg width="38" height="38" viewBox="0 0 38 38" xmlns="http://www.w3.org/2000/svg"><title>Group 3</title><g fill="none" fill-rule="evenodd"><circle fill="#13D924" fill-rule="nonzero" cx="19" cy="19" r="19"/><path d="M25.984 22.72c-1.19-1.02-2.4-1.636-3.576-.62l-.702.615c-.514.447-1.47 2.531-5.163-1.718-3.693-4.244-1.495-4.905-.98-5.347l.705-.615c1.17-1.02.729-2.303-.115-3.623l-.51-.8c-.847-1.318-1.77-2.184-2.943-1.166l-.634.554c-.518.378-1.968 1.605-2.32 3.938-.422 2.798.912 6.003 3.97 9.519 3.054 3.518 6.044 5.285 8.876 5.254 2.354-.026 3.776-1.289 4.22-1.748l.636-.555c1.17-1.016.444-2.052-.748-3.073l-.716-.616z" fill="#FFF"/></g></svg>