<svg width="37" height="38" viewBox="0 0 37 38" xmlns="http://www.w3.org/2000/svg"><title>viber</title><g fill="#7D3DAF" fill-rule="evenodd"><path d="M35.815 9.215l-.012-.049C34.916 5.596 30.934 1.76 27.28.96l-.037-.012a47.375 47.375 0 0 0-17.834 0L9.36.959C5.706 1.76 1.724 5.597.838 9.166l-.012.049a34.923 34.923 0 0 0 0 15.042l.012.048c.85 3.424 4.54 7.078 8.061 8.086v3.994c0 1.445 1.76 2.15 2.756 1.105l4.043-4.2a47.377 47.377 0 0 0 11.558-.778l.036-.012c3.654-.801 7.649-4.625 8.523-8.207l.012-.048a35.058 35.058 0 0 0-.012-15.03zm-3.193 14.313c-.595 2.331-3.618 5.233-6.022 5.767a44.51 44.51 0 0 1-9.482.765.24.24 0 0 0-.17.073l-2.95 3.023-3.144 3.217c-.231.243-.632.073-.632-.255v-6.604c0-.11-.072-.207-.182-.219-2.404-.534-5.427-3.436-6.021-5.767a31.704 31.704 0 0 1 0-13.597C4.613 7.6 7.636 4.698 10.04 4.164a44.166 44.166 0 0 1 16.56 0c2.404.534 5.427 3.436 6.022 5.767a31.704 31.704 0 0 1 0 13.597z" fill-rule="nonzero"/><path d="M23.54 26.576c-.364-.11-.716-.182-1.044-.328-3.387-1.408-6.507-3.217-8.984-5.998-1.408-1.578-2.5-3.362-3.435-5.256-.437-.899-.814-1.821-1.19-2.756-.34-.838.158-1.712.704-2.356.498-.594 1.153-1.056 1.845-1.384.547-.267 1.08-.109 1.482.352.862.996 1.65 2.052 2.294 3.218.4.716.292 1.59-.425 2.076-.17.121-.328.255-.498.388-.145.122-.279.23-.376.389-.182.291-.182.631-.073.947.887 2.428 2.368 4.31 4.808 5.33.388.157.777.352 1.238.303.753-.085.996-.91 1.53-1.348.51-.425 1.178-.425 1.736-.072.559.352 1.093.728 1.627 1.116.522.377 1.044.741 1.53 1.166.461.413.63.947.364 1.505-.486 1.02-1.178 1.87-2.185 2.416-.28.146-.62.195-.947.292-.365-.11.327-.097 0 0zM18.32 7.345c4.431.121 8.074 3.072 8.85 7.454.134.753.183 1.506.243 2.27.025.316-.157.62-.497.632-.352 0-.51-.291-.535-.607-.048-.631-.072-1.263-.17-1.894-.46-3.302-3.095-6.034-6.373-6.617-.498-.085-.996-.109-1.506-.17-.315-.036-.728-.048-.801-.449-.06-.328.219-.595.534-.607.085-.024.17-.012.255-.012 4.444.121-.085 0 0 0z"/><path d="M25.058 16.074c-.012.06-.012.182-.048.304-.122.449-.79.497-.947.048-.049-.133-.049-.279-.049-.425 0-.935-.206-1.882-.68-2.695a4.975 4.975 0 0 0-2.1-1.967 6.093 6.093 0 0 0-1.676-.51 18.12 18.12 0 0 0-.764-.097c-.304-.048-.474-.243-.462-.546.012-.28.219-.486.534-.474 1.02.061 2.004.28 2.902.753 1.833.971 2.89 2.513 3.193 4.565.012.097.036.182.049.28.024.23.036.46.048.764 0 .06-.012-.303 0 0z"/><path d="M22.302 15.965c-.376.012-.57-.194-.607-.534a4.478 4.478 0 0 0-.11-.704c-.108-.45-.351-.875-.74-1.154a1.936 1.936 0 0 0-.595-.291c-.267-.073-.558-.06-.825-.122-.291-.072-.461-.315-.413-.582a.521.521 0 0 1 .559-.425c1.724.121 2.95 1.007 3.12 3.035.012.146.024.291 0 .425a.42.42 0 0 1-.389.352c-.364.012.17-.012 0 0z"/></g></svg>