<svg width="38" height="38" viewBox="0 0 38 38" xmlns="http://www.w3.org/2000/svg"><title>vkcom</title><g fill="none" fill-rule="evenodd"><path d="M5.855 0h26.29A5.856 5.856 0 0 1 38 5.856v26.289A5.856 5.856 0 0 1 32.145 38H5.855A5.856 5.856 0 0 1 0 32.144V5.856A5.856 5.856 0 0 1 5.855 0" fill="#4C75A3"/><path d="M18.681 26.601h1.555s.469-.052.709-.31c.22-.237.214-.683.214-.683s-.03-2.085.937-2.392c.955-.303 2.18 2.015 3.479 2.907.982.674 1.728.527 1.728.527l3.473-.049s1.817-.112.955-1.54c-.07-.117-.501-1.057-2.582-2.988-2.178-2.021-1.886-1.694.737-5.19 1.598-2.13 2.236-3.43 2.037-3.986-.19-.53-1.365-.39-1.365-.39l-3.91.024s-.29-.04-.506.089c-.21.125-.345.42-.345.42s-.619 1.647-1.444 3.048c-1.741 2.957-2.437 3.113-2.722 2.93-.662-.429-.497-1.72-.497-2.637 0-2.865.435-4.06-.846-4.37-.425-.102-.738-.17-1.825-.18-1.396-.015-2.576.004-3.245.331-.445.218-.788.704-.579.731.259.035.844.158 1.154.58.4.546.387 1.77.387 1.77s.23 3.373-.538 3.792c-.527.287-1.25-.3-2.802-2.982-.796-1.374-1.396-2.893-1.396-2.893s-.116-.284-.323-.435c-.25-.184-.6-.243-.6-.243l-3.716.024s-.558.016-.763.259c-.182.215-.014.662-.014.662s2.909 6.806 6.203 10.236c3.02 3.145 6.45 2.938 6.45 2.938" fill="#FFF"/></g></svg>