<svg width="22" height="25" viewBox="0 0 22 25" xmlns="http://www.w3.org/2000/svg"><title>xls-file-format-symbol</title><path d="M20.58 8.94h-.595V6.043c0-.018-.003-.037-.005-.055a.483.483 0 0 0-.116-.317L15.086.168l-.004-.004a.483.483 0 0 0-.096-.082l-.032-.019a.507.507 0 0 0-.096-.04c-.009-.003-.017-.007-.026-.009A.483.483 0 0 0 14.72 0H2.978a.977.977 0 0 0-.971.98v7.96h-.595c-.767 0-1.39.627-1.39 1.4v7.285c0 .773.623 1.4 1.39 1.4h.595v4.987c0 .54.435.98.971.98h16.035c.535 0 .972-.44.972-.98v-4.986h.595c.766 0 1.388-.628 1.388-1.401V10.34c0-.774-.621-1.4-1.388-1.4zM2.978.98h11.256v5.014c0 .27.218.49.486.49h4.293V8.94H2.978V.98zm10.904 15.097V17.5H9.246v-7.485h1.685v6.063h2.951zM1.946 17.498l2.147-3.786-2.07-3.698H3.95l.65 1.365c.22.456.385.822.561 1.244h.022c.177-.477.32-.81.507-1.244l.627-1.365h1.916l-2.092 3.653L8.344 17.5H6.406l-.672-1.355c-.275-.522-.452-.91-.66-1.344H5.05c-.154.433-.34.822-.572 1.344L3.861 17.5H1.946zm17.067 6.248H2.978v-4.721h16.035v4.72zM16.69 17.61c-.848 0-1.685-.222-2.103-.456l.34-1.399c.452.233 1.146.467 1.862.467.771 0 1.178-.322 1.178-.81 0-.467-.352-.734-1.244-1.056-1.233-.433-2.037-1.122-2.037-2.21 0-1.278 1.057-2.255 2.808-2.255.837 0 1.454.178 1.894.378l-.374 1.366a3.502 3.502 0 0 0-1.553-.355c-.727 0-1.079.332-1.079.722 0 .477.418.688 1.376 1.055 1.31.488 1.928 1.177 1.928 2.232 0 1.255-.959 2.321-2.996 2.321z" fill="#00940D"/></svg>