<svg width="22" height="25" viewBox="0 0 22 25" xmlns="http://www.w3.org/2000/svg"><title>xml-file-format-symbol</title><path d="M20.58 8.94h-.596V6.043a.33.33 0 0 0-.005-.055.483.483 0 0 0-.115-.317L15.086.167l-.004-.003a.479.479 0 0 0-.096-.082l-.032-.019a.507.507 0 0 0-.096-.04l-.026-.01A.488.488 0 0 0 14.72 0H2.978a.977.977 0 0 0-.971.98v7.96h-.595c-.767 0-1.39.627-1.39 1.4v7.285c0 .773.623 1.4 1.39 1.4h.595v4.987c0 .54.435.98.971.98h16.035c.535 0 .972-.44.972-.98v-4.986h.595c.766 0 1.388-.628 1.388-1.401V10.34c0-.774-.622-1.4-1.389-1.4zM2.977.98h11.256v5.014c0 .271.218.49.486.49h4.293V8.94H2.978V.98zM15.23 16.993h-1.442l-.097-2.519a74.796 74.796 0 0 1-.058-2.704h-.029c-.203.84-.474 1.777-.726 2.548l-.794 2.568h-1.152l-.697-2.548a30.616 30.616 0 0 1-.59-2.568h-.02c-.038.888-.068 1.904-.116 2.724l-.116 2.5H8.028l.416-6.581h1.965l.64 2.197c.203.76.406 1.58.551 2.352h.03c.183-.761.406-1.63.62-2.362l.696-2.187h1.927l.357 6.58zm-13.476 0l1.888-3.33-1.82-3.25h1.694l.571 1.2c.194.401.339.723.495 1.094H4.6c.154-.42.28-.713.445-1.094l.552-1.2h1.684l-1.84 3.212 1.937 3.368H5.675l-.59-1.191c-.242-.459-.397-.8-.581-1.182h-.02c-.135.382-.3.723-.503 1.182l-.542 1.191H1.754zm17.259 6.753H2.978v-4.721h16.035v4.72zm1.427-6.753h-4.076v-6.58h1.481v5.33h2.595v1.25z" fill="#F86301"/></svg>