<svg width="28" height="26" viewBox="0 0 28 26" fill="none" xmlns="http://www.w3.org/2000/svg"><path d="M27.986 23.927l-.93-3.474a.409.409 0 0 0-.344-.3.415.415 0 0 0-.411.2l-1.077 1.846-2.693-1.568v-9.1a.425.425 0 0 0-.007-.065.42.42 0 0 0 .007-.05.406.406 0 0 0-.204-.354l-7.915-4.606V3.36h2.147a.414.414 0 0 0 .38-.253.408.408 0 0 0-.09-.446L14.292.12a.414.414 0 0 0-.582 0l-2.56 2.542a.408.408 0 0 0 .291.7h2.147v3.094l-7.915 4.606a.41.41 0 0 0-.204.354.395.395 0 0 0 .007.05.399.399 0 0 0-.007.065v9.1l-2.692 1.567-1.078-1.846a.41.41 0 0 0-.411-.2.413.413 0 0 0-.344.3l-.93 3.475a.407.407 0 0 0 .292.501l3.498.925a.415.415 0 0 0 .433-.148.408.408 0 0 0 .029-.454L3.19 22.906l2.69-1.566 7.91 4.604.015.006a.42.42 0 0 0 .07.03l.026.007a.377.377 0 0 0 .195 0l.024-.008a.417.417 0 0 0 .07-.03l.015-.005 7.913-4.604 2.691 1.568-1.076 1.844a.408.408 0 0 0 .356.615.421.421 0 0 0 .106-.014l3.498-.925a.412.412 0 0 0 .292-.5zM14 7.165l7.303 4.25L14 15.666l-7.303-4.25L14 7.166zM6.294 12.13l7.294 4.245v8.5l-7.294-4.244V12.13zm8.118 12.746v-8.5l7.294-4.246v8.5l-7.294 4.246z" fill="#00A82D"/></svg>