<?xml version="1.0" encoding="UTF-8"?>
<svg width="43px" height="38px" viewBox="0 0 43 38" version="1.1" xmlns="http://www.w3.org/2000/svg" xmlns:xlink="http://www.w3.org/1999/xlink">
    <!-- Generator: Sketch 52.6 (67491) - http://www.bohemiancoding.com/sketch -->
    <title>basket</title>
    <desc>Created with Sketch.</desc>
    <g id="Page-1" stroke="none" stroke-width="1" fill="none" fill-rule="evenodd">
        <g id="Zakaz2_2" transform="translate(-1256.000000, -18.000000)" fill="#212529" fill-rule="nonzero">
            <g id="basket" transform="translate(1256.000000, 18.000000)">
                <path d="M1.574492,3.09782354 C0.7085176,3.09782354 0,2.40081325 0,1.54891177 C0,0.697010288 0.7085176,0 1.574492,0 L7.268944,0 C7.9774616,0 8.6072432,0.464673576 8.7909048,1.13589904 L15.2200032,24.0081329 L32.7492968,24.0081329 L38.5748944,10.8423827 L19.1562104,10.8423827 C18.2902512,10.8423827 17.5817336,10.1453724 17.5817336,9.29347076 C17.5817336,8.44156928 18.2902512,7.74455899 19.1562104,7.74455899 L40.9889584,7.74455899 C41.5138144,7.74455899 42.0123744,8.00268068 42.3010528,8.44156928 C42.5897464,8.88045803 42.6422624,9.42257713 42.4323048,9.91303553 L35.2421728,26.1766095 C34.9797904,26.7445135 34.4287296,27.1059566 33.7989328,27.1059566 L14.0391304,27.1059566 C13.3306128,27.1059566 12.700816,26.641283 12.5171544,25.9700576 L6.08798,3.09782354 L1.574492,3.09782354 Z M12.5433744,38 C10.5752632,38 8.9745664,36.4252122 8.9745664,34.4890725 C8.9745664,32.5529327 10.5752632,30.9783272 12.5433744,30.9783272 C14.5114856,30.9783272 16.1121824,32.5530239 16.1121824,34.4891636 C16.1121824,36.4253034 14.5114856,38 12.5433744,38 Z M34.8486448,38 C32.9854744,38 31.4372024,36.5543186 31.3060568,34.7214092 C31.17482,32.8111454 32.6443712,31.1073425 34.6124824,30.9782361 C36.5805784,30.8491298 38.286216,32.320596 38.4174528,34.2309508 C38.4699688,35.1860828 38.1812752,36.089645 37.5514784,36.7866554 C36.9216968,37.5095416 36.0557224,37.9225545 35.1110272,38 C35.0323064,38 34.9273656,38 34.8486448,38 Z" id="Combined-Shape"></path>
            </g>
        </g>
    </g>
</svg>