<?xml version="1.0" encoding="UTF-8"?>
<svg width="38px" height="38px" viewBox="0 0 38 38" version="1.1" xmlns="http://www.w3.org/2000/svg" xmlns:xlink="http://www.w3.org/1999/xlink">
    <!-- Generator: Sketch 52.6 (67491) - http://www.bohemiancoding.com/sketch -->
    <title>Group 3</title>
    <desc>Created with Sketch.</desc>
    <g id="Page-1" stroke="none" stroke-width="1" fill="none" fill-rule="evenodd">
        <g id="Sviaz" transform="translate(-1211.000000, -1041.000000)">
            <g id="Group-3" transform="translate(1211.000000, 1041.000000)">
                <circle id="Oval" fill="#13D924" fill-rule="nonzero" cx="19" cy="19" r="19"></circle>
                <g id="phone-receiver-silhouette" transform="translate(9.000000, 9.000000)" fill="#FFFFFF">
                    <path d="M16.9838462,13.7192308 C15.7930769,12.7007692 14.5846154,12.0838462 13.4084615,13.1007692 L12.7061538,13.7153846 C12.1923077,14.1615385 11.2369231,16.2461538 7.54307692,11.9969231 C3.85,7.75307692 6.04769231,7.09230769 6.56230769,6.65 L7.26846154,6.03461538 C8.43846154,5.01538462 7.99692308,3.73230769 7.15307692,2.41153846 L6.64384615,1.61153846 C5.79615385,0.293846154 4.87307692,-0.571538462 3.7,0.446153846 L3.06615385,1 C2.54769231,1.37769231 1.09846154,2.60538462 0.746923077,4.93769231 C0.323846154,7.73615385 1.65846154,10.9407692 4.71615385,14.4569231 C7.77,17.9746154 10.76,19.7415385 13.5923077,19.7107692 C15.9461538,19.6853846 17.3676923,18.4223077 17.8123077,17.9630769 L18.4484615,17.4084615 C19.6184615,16.3915385 18.8915385,15.3561538 17.7,14.3353846 L16.9838462,13.7192308 Z" id="Path"></path>
                </g>
            </g>
        </g>
    </g>
</svg>