<?xml version="1.0" encoding="UTF-8"?>
<svg width="25px" height="25px" viewBox="0 0 25 25" version="1.1" xmlns="http://www.w3.org/2000/svg" xmlns:xlink="http://www.w3.org/1999/xlink">
    <!-- Generator: Sketch 52.6 (67491) - http://www.bohemiancoding.com/sketch -->
    <title>more</title>
    <desc>Created with Sketch.</desc>
    <g id="Page-1" stroke="none" stroke-width="1" fill="none" fill-rule="evenodd">
        <g id="arminka_drop5" transform="translate(-1175.000000, -107.000000)" fill="#A2A6AD" fill-rule="nonzero">
            <g id="more" transform="translate(1175.000000, 107.000000)">
                <path d="M12.5,0 C5.60722354,0 0,5.60722354 0,12.5 C0,19.3927765 5.60722354,25 12.5,25 C19.3927765,25 25,19.3927765 25,12.5 C25,5.60722354 19.3927765,0 12.5,0 Z M17.96875,13.5416031 L13.5416031,13.5416031 L13.5416031,17.96875 C13.5416031,18.5438156 13.0750656,19.0103531 12.5,19.0103531 C11.9249344,19.0103531 11.4583969,18.5438156 11.4583969,17.96875 L11.4583969,13.5416031 L7.03125,13.5416031 C6.45618437,13.5416031 5.98964692,13.0750656 5.98964692,12.5 C5.98964692,11.9249344 6.45618437,11.4583969 7.03125,11.4583969 L11.4583969,11.4583969 L11.4583969,7.03125 C11.4583969,6.45618437 11.9249344,5.98964692 12.5,5.98964692 C13.0750656,5.98964692 13.5416031,6.45618437 13.5416031,7.03125 L13.5416031,11.4583969 L17.96875,11.4583969 C18.5438156,11.4583969 19.0103531,11.9249344 19.0103531,12.5 C19.0103531,13.0750656 18.5438156,13.5416031 17.96875,13.5416031 Z" id="Shape"></path>
            </g>
        </g>
    </g>
</svg>