<?xml version="1.0" encoding="UTF-8"?>
<svg width="37px" height="38px" viewBox="0 0 37 38" version="1.1" xmlns="http://www.w3.org/2000/svg" xmlns:xlink="http://www.w3.org/1999/xlink">
    <!-- Generator: Sketch 52.6 (67491) - http://www.bohemiancoding.com/sketch -->
    <title>viber</title>
    <desc>Created with Sketch.</desc>
    <g id="Page-1" stroke="none" stroke-width="1" fill="none" fill-rule="evenodd">
        <g id="Sviaz" transform="translate(-1100.000000, -1041.000000)" fill="#7D3DAF">
            <g id="viber" transform="translate(1100.000000, 1041.000000)">
                <path d="M35.8146965,9.21469649 L35.8025559,9.16613419 C34.9162939,5.59680511 30.9341853,1.76038339 27.2798722,0.959105431 L27.2434505,0.946964856 C21.3188498,-0.182108626 15.3214058,-0.182108626 9.40894569,0.946964856 L9.36038339,0.959105431 C5.70607029,1.76038339 1.72396166,5.59680511 0.837699681,9.16613419 L0.825559105,9.21469649 C-0.267092652,14.2044728 -0.267092652,19.2670927 0.825559105,24.256869 L0.837699681,24.3054313 C1.68753994,27.7290735 5.37827476,31.3833866 8.89904153,32.3910543 L8.89904153,36.3853035 C8.89904153,37.8300319 10.6594249,38.5341853 11.6549521,37.4900958 L15.6977636,33.2894569 C16.571885,33.3380192 17.4460064,33.3623003 18.3322684,33.3623003 C21.3067093,33.3623003 24.2932907,33.0830671 27.2555911,32.5124601 L27.2920128,32.5003195 C30.9463259,31.6990415 34.9405751,27.8747604 35.8146965,24.2932907 L35.8268371,24.2447284 C36.9073482,19.2670927 36.9073482,14.2044728 35.8146965,9.21469649 Z M32.6217252,23.5284345 C32.0268371,25.8594249 29.0038339,28.7610224 26.6,29.2952077 C23.4555911,29.8900958 20.286901,30.1450479 17.1182109,30.0600639 C17.057508,30.0600639 16.9968051,30.084345 16.9482428,30.1329073 C16.4990415,30.5942492 13.9980831,33.1559105 13.9980831,33.1559105 L10.8536741,36.3731629 C10.6230032,36.6159744 10.2223642,36.4460064 10.2223642,36.1182109 L10.2223642,29.513738 C10.2223642,29.4044728 10.1495208,29.3073482 10.0402556,29.2952077 C10.0402556,29.2952077 10.0402556,29.2952077 10.0402556,29.2952077 C7.63642173,28.7610224 4.61341853,25.8594249 4.01853035,23.5284345 C3.03514377,19.0121406 3.03514377,14.4472843 4.01853035,9.93099042 C4.61341853,7.6 7.63642173,4.69840256 10.0402556,4.16421725 C15.5399361,3.1201278 21.1124601,3.1201278 26.6,4.16421725 C29.0038339,4.69840256 32.0268371,7.6 32.6217252,9.93099042 C33.6051118,14.4472843 33.6051118,19.0242812 32.6217252,23.5284345 Z" id="Shape" fill-rule="nonzero"></path>
                <path d="M23.5405751,26.5757188 C23.1763578,26.4664537 22.8242812,26.3936102 22.4964856,26.2479233 C19.1092652,24.8396166 15.9891374,23.0306709 13.5124601,20.2504792 C12.1041534,18.6722045 11.0115016,16.8875399 10.0766773,14.9936102 C9.63961661,14.0952077 9.26325879,13.172524 8.88690096,12.2376997 C8.54696486,11.4 9.04472843,10.5258786 9.59105431,9.88242812 C10.0888179,9.28753994 10.7444089,8.82619808 11.4364217,8.49840256 C11.9827476,8.2313099 12.5169329,8.38913738 12.9175719,8.85047923 C13.7795527,9.84600639 14.5686901,10.9022364 15.2121406,12.0677316 C15.6127796,12.7840256 15.5035144,13.658147 14.7872204,14.14377 C14.6172524,14.2651757 14.4594249,14.398722 14.2894569,14.5322684 C14.14377,14.6536741 14.0102236,14.7629393 13.913099,14.9207668 C13.7309904,15.2121406 13.7309904,15.5520767 13.8402556,15.8677316 C14.7265176,18.2958466 16.2076677,20.1776358 18.6479233,21.1974441 C19.0364217,21.3552716 19.4249201,21.5495208 19.886262,21.5009585 C20.6389776,21.4159744 20.8817891,20.5904153 21.4159744,20.1533546 C21.9258786,19.7284345 22.5936102,19.7284345 23.1520767,20.0805112 C23.7105431,20.4325879 24.2447284,20.8089457 24.7789137,21.1974441 C25.3009585,21.5738019 25.8230032,21.9380192 26.3086262,22.3629393 C26.7699681,22.7757188 26.9399361,23.3099042 26.6728435,23.8683706 C26.1872204,24.8881789 25.4952077,25.7380192 24.4875399,26.284345 C24.2083067,26.4300319 23.8683706,26.4785942 23.5405751,26.5757188 C23.1763578,26.4664537 23.8683706,26.4785942 23.5405751,26.5757188 Z" id="Path"></path>
                <path d="M18.3201278,7.34504792 C22.7514377,7.46645367 26.3936102,10.4166134 27.170607,14.799361 C27.3041534,15.5520767 27.3527157,16.3047923 27.4134185,17.0696486 C27.4376997,17.3853035 27.2555911,17.6888179 26.915655,17.7009585 C26.5635783,17.7009585 26.4057508,17.4095847 26.3814696,17.0939297 C26.3329073,16.4626198 26.3086262,15.8313099 26.2115016,15.2 C25.7501597,11.8977636 23.115655,9.16613419 19.8376997,8.58338658 C19.3399361,8.49840256 18.8421725,8.47412141 18.3322684,8.41341853 C18.0166134,8.37699681 17.6038339,8.36485623 17.5309904,7.96421725 C17.4702875,7.63642173 17.7495208,7.36932907 18.0651757,7.3571885 C18.1501597,7.33290735 18.2351438,7.34504792 18.3201278,7.34504792 C22.7635783,7.46645367 18.2351438,7.34504792 18.3201278,7.34504792 Z" id="Path"></path>
                <path d="M25.058147,16.0741214 C25.0460064,16.1348243 25.0460064,16.25623 25.0095847,16.3776358 C24.8881789,16.8268371 24.2204473,16.8753994 24.0626198,16.4261981 C24.0140575,16.2926518 24.0140575,16.1469649 24.0140575,16.001278 C24.0140575,15.0664537 23.8076677,14.1194888 23.3341853,13.3060703 C22.8485623,12.4683706 22.1079872,11.7642173 21.2338658,11.3392971 C20.7118211,11.084345 20.1412141,10.9265176 19.5584665,10.829393 C19.3035144,10.7929712 19.0485623,10.7565495 18.7936102,10.7322684 C18.4900958,10.6837061 18.3201278,10.4894569 18.3322684,10.1859425 C18.3444089,9.90670927 18.5507987,9.70031949 18.8664537,9.71246006 C19.886262,9.77316294 20.8696486,9.99169329 21.7680511,10.4651757 C23.601278,11.4364217 24.657508,12.9782748 24.9610224,15.0300319 C24.9731629,15.1271565 24.9974441,15.2121406 25.0095847,15.3092652 C25.0338658,15.5399361 25.0460064,15.770607 25.058147,16.0741214 C25.058147,16.1348243 25.0460064,15.770607 25.058147,16.0741214 Z" id="Path"></path>
                <path d="M22.3022364,15.9648562 C21.9258786,15.9769968 21.7316294,15.770607 21.6952077,15.4306709 C21.6709265,15.1878594 21.6466454,14.9571885 21.5859425,14.7265176 C21.4766773,14.2773163 21.2338658,13.8523962 20.8453674,13.5731629 C20.6632588,13.4396166 20.456869,13.342492 20.2504792,13.2817891 C19.9833866,13.2089457 19.6920128,13.2210863 19.4249201,13.1603834 C19.1335463,13.0875399 18.9635783,12.8447284 19.0121406,12.5776358 C19.0485623,12.3226837 19.3035144,12.1284345 19.570607,12.1527157 C21.2945687,12.2741214 22.5207668,13.1603834 22.6907348,15.1878594 C22.7028754,15.3335463 22.715016,15.4792332 22.6907348,15.6127796 C22.6421725,15.8434505 22.4722045,15.9527157 22.3022364,15.9648562 C21.9380192,15.9769968 22.4722045,15.9527157 22.3022364,15.9648562 Z" id="Path"></path>
            </g>
        </g>
    </g>
</svg>