<?xml version="1.0" encoding="UTF-8"?>
<svg width="38px" height="38px" viewBox="0 0 38 38" version="1.1" xmlns="http://www.w3.org/2000/svg" xmlns:xlink="http://www.w3.org/1999/xlink">
    <!-- Generator: Sketch 52.6 (67491) - http://www.bohemiancoding.com/sketch -->
    <title>vkcom</title>
    <desc>Created with Sketch.</desc>
    <g id="Page-1" stroke="none" stroke-width="1" fill="none" fill-rule="evenodd">
        <g id="Sviaz" transform="translate(-1099.000000, -1144.000000)">
            <g id="vkcom" transform="translate(1099.000000, 1144.000000)">
                <path d="M5.85548333,0 L32.1445167,0 C35.3782771,0 38,2.62160417 38,5.85552292 L38,32.1445167 C38,35.3783167 35.3782771,38 32.1445167,38 L5.85548333,38 C2.62160417,38 0,35.3783167 0,32.1444771 L0,5.85552292 C0,2.62160417 2.62160417,0 5.85548333,0" id="Path" fill="#4C75A3"></path>
                <path d="M18.6811958,26.6011479 L20.2355937,26.6011479 C20.2355937,26.6011479 20.7050125,26.5494125 20.9450458,26.2911708 C21.1656437,26.0538292 21.1586375,25.6083979 21.1586375,25.6083979 C21.1586375,25.6083979 21.1281979,23.5226729 22.0960896,23.2155062 C23.0505625,22.9128125 24.2759437,25.2312875 25.5746729,26.1228625 C26.5568146,26.7973229 27.3031583,26.6497167 27.3031583,26.6497167 L30.7761604,26.6011479 C30.7761604,26.6011479 32.5928375,26.4890479 31.7313854,25.0606833 C31.6608479,24.9440312 31.2295083,24.0040854 29.1490479,22.0729333 C26.9711729,20.0517292 27.2631396,20.3787271 29.8863271,16.88245 C31.4838312,14.7532625 32.1223896,13.453425 31.92285,12.8967646 C31.7327312,12.3663875 30.5576604,12.5064729 30.5576604,12.5064729 L26.6473812,12.5306583 C26.6473812,12.5306583 26.3573146,12.4911542 26.1424562,12.6197208 C25.9322687,12.7454771 25.7974083,13.0392646 25.7974083,13.0392646 C25.7974083,13.0392646 25.1782458,14.6868021 24.3531708,16.0881312 C22.6119792,19.0447292 21.9156292,19.2012417 21.6309854,19.0173771 C20.9687958,18.5894417 21.1342542,17.2985896 21.1342542,16.3812854 C21.1342542,13.5158875 21.5688792,12.3212229 20.2879229,12.0119187 C19.8629167,11.9093583 19.5498521,11.8415125 18.4627354,11.8304292 C17.0674229,11.8162583 15.8867312,11.8347042 15.21805,12.1622958 C14.7731729,12.3801625 14.4299458,12.8655333 14.6391042,12.8934792 C14.8975833,12.9278771 15.4827437,13.0514167 15.7930375,13.4735729 C16.1938583,14.0188729 16.1798458,15.2430667 16.1798458,15.2430667 C16.1798458,15.2430667 16.4101417,18.6160812 15.6421062,19.0349521 C15.1150937,19.3223271 14.3919854,18.7356625 12.8396062,16.0532583 C12.0443375,14.6792417 11.4437,13.1603104 11.4437,13.1603104 C11.4437,13.1603104 11.3280375,12.8764979 11.1214521,12.7245771 C10.8708896,12.5405146 10.520775,12.4821687 10.520775,12.4821687 L6.80485,12.5064333 C6.80485,12.5064333 6.24712083,12.5220292 6.04219792,12.7645562 C5.85987708,12.9804833 6.02763125,13.4265875 6.02763125,13.4265875 C6.02763125,13.4265875 8.93661042,20.232625 12.230775,23.6625208 C15.2515771,26.807575 18.6811958,26.6011479 18.6811958,26.6011479" id="Path" fill="#FFFFFF"></path>
            </g>
        </g>
    </g>
</svg>