<?xml version="1.0" encoding="UTF-8"?>
<svg width="22px" height="25px" viewBox="0 0 22 25" version="1.1" xmlns="http://www.w3.org/2000/svg" xmlns:xlink="http://www.w3.org/1999/xlink">
    <!-- Generator: Sketch 52.6 (67491) - http://www.bohemiancoding.com/sketch -->
    <title>xls-file-format-symbol</title>
    <desc>Created with Sketch.</desc>
    <g id="Page-1" stroke="none" stroke-width="1" fill="none" fill-rule="evenodd">
        <g id="Lead" transform="translate(-634.000000, -534.000000)" fill="#00940D" fill-rule="nonzero">
            <g id="xls-file-format-symbol" transform="translate(634.000000, 534.000000)">
                <path d="M20.5797628,8.93915608 L19.984728,8.93915608 L19.984728,6.04369328 C19.984728,6.02563521 19.9818937,6.00744102 19.9797342,5.98901996 C19.9787894,5.8741833 19.9422577,5.7612069 19.8642004,5.67177858 L15.0861963,0.167604356 C15.0847566,0.166197822 15.083362,0.16569873 15.0823722,0.16415608 C15.0538937,0.13207804 15.0206912,0.105399274 14.9855992,0.0823049002 C14.9752065,0.0752722323 14.9647239,0.0693738657 14.9538364,0.0631578947 C14.9234233,0.0465517241 14.8911656,0.0325317604 14.8579632,0.0225045372 C14.8489652,0.0200998185 14.8408671,0.0163793103 14.8318691,0.0139745917 C14.7957873,0.00539927405 14.7583108,0 14.7203395,0 L2.97832311,0 C2.44213497,0 2.00654397,0.439791289 2.00654397,0.98008167 L2.00654397,8.93892922 L1.41164417,8.93892922 C0.644613497,8.93892922 0.0226748466,9.56588022 0.0226748466,10.3397005 L0.0226748466,17.6239564 C0.0226748466,18.3970054 0.644613497,19.0245917 1.41164417,19.0245917 L2.00658896,19.0245917 L2.00658896,24.0108893 C2.00658896,24.5511343 2.44217996,24.990971 2.9783681,24.990971 L19.0127239,24.990971 C19.5484172,24.990971 19.9845031,24.5511797 19.9845031,24.0108893 L19.9845031,19.0245917 L20.5795378,19.0245917 C21.3463436,19.0245917 21.9684172,18.3972323 21.9684172,17.6239564 L21.9684172,10.3399274 C21.9683722,9.56588022 21.3467485,8.93915608 20.5797628,8.93915608 Z M2.97832311,0.98008167 L14.2344499,0.98008167 L14.2344499,5.99414701 C14.2344499,6.26488203 14.4522454,6.48416515 14.7203395,6.48416515 L19.0126789,6.48416515 L19.0126789,8.93915608 L2.97832311,8.93915608 L2.97832311,0.98008167 Z M13.882135,16.077314 L13.882135,17.4985481 L9.24580368,17.4985481 L9.24580368,10.0137931 L10.9311207,10.0137931 L10.9311207,16.077314 L13.882135,16.077314 Z M1.94580777,17.4983212 L4.09316973,13.7116606 L2.02278528,10.0137931 L3.94983231,10.0137931 L4.59943967,11.3794465 C4.81984458,11.8345281 4.98509202,12.2014065 5.16136196,12.6232759 L5.18309202,12.6232759 C5.35972188,12.1455535 5.50256442,11.8123866 5.6896319,11.3794465 L6.31741922,10.0137931 L8.23344376,10.0137931 L6.14101431,13.6673775 L8.34375869,17.4985027 L6.40555419,17.4985027 L5.73390184,16.143784 C5.45878937,15.6216878 5.28238446,15.233167 5.07327198,14.8000907 L5.05122699,14.8000907 C4.89686708,15.2333938 4.71006953,15.6221869 4.47886708,16.143784 L3.86201227,17.4985027 L1.94580777,17.4985027 L1.94580777,17.4983212 Z M19.0127239,23.7455989 L2.97832311,23.7455989 L2.97832311,19.0245917 L19.0127239,19.0245917 L19.0127239,23.7455989 Z M16.6895419,17.6100272 C15.8420695,17.6100272 15.0048548,17.3875227 14.5868098,17.1544918 L14.9277423,15.7552632 C15.3794397,15.988294 16.073182,16.221824 16.7891943,16.221824 C17.560274,16.221824 17.9673865,15.8997278 17.9673865,15.4111615 C17.9673865,14.9446007 17.6150716,14.6780853 16.7230143,14.3559891 C15.4897996,13.922686 14.6857873,13.2343013 14.6857873,12.1455535 C14.6857873,10.8683303 15.7429571,9.89128857 17.494364,9.89128857 C18.3309039,9.89128857 18.9477587,10.0694646 19.3881186,10.2688748 L19.0137137,11.6349819 C18.7164663,11.4904265 18.1876564,11.2795372 17.4611616,11.2795372 C16.7344867,11.2795372 16.3821718,11.6124773 16.3821718,12.0015426 C16.3821718,12.4790835 16.8001718,12.6902904 17.758454,13.0568058 C19.0687812,13.5454174 19.685636,14.2335753 19.685636,15.2887024 C19.6850511,16.5438748 18.7273088,17.6100272 16.6895419,17.6100272 Z" id="Shape"></path>
            </g>
        </g>
    </g>
</svg>