<?xml version="1.0" encoding="UTF-8"?>
<svg width="22px" height="25px" viewBox="0 0 22 25" version="1.1" xmlns="http://www.w3.org/2000/svg" xmlns:xlink="http://www.w3.org/1999/xlink">
    <!-- Generator: Sketch 52.6 (67491) - http://www.bohemiancoding.com/sketch -->
    <title>xml-file-format-symbol</title>
    <desc>Created with Sketch.</desc>
    <g id="Page-1" stroke="none" stroke-width="1" fill="none" fill-rule="evenodd">
        <g id="Lead" transform="translate(-634.000000, -175.000000)" fill="#F86301" fill-rule="nonzero">
            <g id="xml-file-format-symbol" transform="translate(634.000000, 175.000000)">
                <path d="M20.5794928,8.93915608 L19.9844581,8.93915608 L19.9844581,6.04369328 C19.9844581,6.02549909 19.9816237,6.00744102 19.9792393,5.98901996 C19.9782945,5.87404719 19.9420327,5.76111615 19.8639755,5.67177858 L15.0861963,0.16746824 C15.0847566,0.166061706 15.083362,0.165562613 15.0823722,0.16415608 C15.0538937,0.13207804 15.0206912,0.105263158 14.9855992,0.0823049002 C14.9752065,0.0751361162 14.9647239,0.0692831216 14.9538364,0.0631578947 C14.9234233,0.0465517241 14.8911656,0.0325317604 14.8579632,0.0225045372 C14.8489652,0.0200998185 14.8408671,0.0163793103 14.8318691,0.0138838475 C14.7957873,0.00539927405 14.7583108,0 14.7203395,0 L2.97832311,0 C2.44213497,0 2.00654397,0.439791289 2.00654397,0.98008167 L2.00654397,8.93892922 L1.41164417,8.93892922 C0.644613497,8.93892922 0.0226748466,9.56588022 0.0226748466,10.3395644 L0.0226748466,17.6236842 C0.0226748466,18.3970054 0.644613497,19.0245917 1.41164417,19.0245917 L2.00658896,19.0245917 L2.00658896,24.0108893 C2.00658896,24.5511343 2.44217996,24.990971 2.9783681,24.990971 L19.0127239,24.990971 C19.5484172,24.990971 19.9845031,24.5511797 19.9845031,24.0108893 L19.9845031,19.0245917 L20.5795378,19.0245917 C21.3463436,19.0245917 21.9684172,18.3972323 21.9684172,17.6239564 L21.9684172,10.3398367 C21.9683722,9.56615245 21.3462986,8.93915608 20.5794928,8.93915608 Z M2.97832311,0.980263158 L14.2344499,0.980263158 L14.2344499,5.99432849 C14.2344499,6.26506352 14.4522454,6.48434664 14.7203395,6.48434664 L19.0126789,6.48434664 L19.0126789,8.93933757 L2.97832311,8.93933757 L2.97832311,0.980263158 Z M15.2304335,16.9931942 L13.7881513,16.9931942 L13.6911534,14.4741833 C13.66218,13.683167 13.6327566,12.7265426 13.6327566,11.76951 L13.6042781,11.76951 C13.4011943,12.6096189 13.129771,13.5465517 12.8782781,14.3176951 L12.0844335,16.8857985 L10.9318855,16.8857985 L10.2348139,14.3378403 C10.0222372,13.5666969 9.79971779,12.6292196 9.64441309,11.7697822 L9.62506748,11.7697822 C9.58664622,12.6583938 9.5572229,13.6736388 9.50872393,14.4938294 L9.39283027,16.9931942 L8.02770552,16.9931942 L8.44431084,10.4126588 L10.4093292,10.4126588 L11.048499,12.6096189 C11.2517178,13.3706897 11.4552515,14.1906987 11.5999836,14.9618421 L11.629407,14.9618421 C11.8130102,14.2009528 12.0360245,13.3319419 12.2490961,12.5995917 L12.9461227,10.4127042 L14.8725849,10.4127042 L15.2304335,16.9931942 Z M1.75424131,16.9931942 L3.64178732,13.6635662 L1.82222086,10.4126588 L3.51631084,10.4126588 L4.0871411,11.6134301 C4.28131697,12.0139746 4.42604908,12.3361162 4.58157873,12.7065336 L4.60056442,12.7065336 C4.75523926,12.2872051 4.88085072,11.9944646 5.04564826,11.6134301 L5.59785276,10.4126588 L7.282,10.4126588 L5.4423681,13.6248185 L7.37890798,16.9931942 L5.67532515,16.9931942 L5.08442945,15.8018603 C4.84256442,15.3432396 4.6877546,15.0015426 4.50365644,14.6203721 L4.48417587,14.6203721 C4.34880164,15.0015426 4.18391411,15.3432396 3.98074029,15.8018603 L3.43897342,16.9931942 L1.75424131,16.9931942 Z M19.0127239,23.7455989 L2.97832311,23.7455989 L2.97832311,19.0245917 L19.0127239,19.0245917 L19.0127239,23.7455989 Z M20.4399796,16.9931942 L16.363546,16.9931942 L16.363546,10.4126588 L17.8451943,10.4126588 L17.8451943,15.7437387 L20.4402945,15.7437387 L20.4402945,16.9931942 L20.4399796,16.9931942 Z" id="Shape"></path>
            </g>
        </g>
    </g>
</svg>