<?xml version="1.0" encoding="UTF-8"?>
<svg width="1305px" height="650px" viewBox="0 0 1305 650" version="1.1" xmlns="http://www.w3.org/2000/svg" xmlns:xlink="http://www.w3.org/1999/xlink">
    <!-- Generator: Sketch 50.2 (55047) - http://www.bohemiancoding.com/sketch -->
    <title>pattern</title>
    <desc>Created with Sketch.</desc>
    <defs></defs>
    <g id="UI-Design" stroke="none" stroke-width="1" fill="none" fill-rule="evenodd" opacity="0.0406808036">
        <g id="kapital_main_4" transform="translate(-1.000000, -44.000000)" fill-rule="nonzero">
            <g id="block_1" transform="translate(0.000000, 44.000000)">
                <g id="pattern" transform="translate(1.000000, -6.000000)">
                    <path d="M666,474.259615 C661.925362,468.990385 659.969535,462.074519 660.947449,455.652644 C658.176695,453.841346 655.405941,452.194712 652.472201,450.548077 C601.294745,421.731971 538.545316,417.780048 488.83473,386 C484.760091,390.445913 478.729627,392.092548 473.025133,390.116587 C466.016756,404.936298 459.008378,419.920673 452,434.740385 C456.074638,440.174279 458.030465,446.925481 457.052551,453.347356 C509.533892,486.938702 576.68393,489.408654 629.16527,523 C633.239909,518.554087 639.270373,516.907452 644.974867,518.883413 C647.41965,513.614183 650.027418,508.180288 652.472201,502.911058 L652.472201,502.746394 C657.035796,493.195913 661.599391,483.810096 666,474.259615 Z M499.591775,433.917067 C497.146992,438.856971 491.279513,441.16226 486.226961,438.692308 C481.337395,436.222356 479.381569,429.965144 481.663366,424.860577 C484.108149,419.75601 489.812643,417.944712 494.865194,420.414663 C499.75476,423.049279 502.036558,428.8125 499.591775,433.917067 Z M587.929931,463.55649 C580.921554,478.540865 562.178218,486.609375 546.205636,481.834135 C530.233054,477.058894 523.061691,460.592548 530.233054,445.608173 C537.241432,430.623798 555.984768,422.555288 571.95735,427.330529 C587.929931,432.105769 594.938309,448.407452 587.929931,463.55649 Z M636.336634,484.139423 C633.891851,489.24399 628.187357,491.055288 623.134806,488.585337 C618.24524,486.115385 615.963442,480.1875 618.408225,475.247596 C620.853008,470.307692 626.720487,468.002404 631.773039,470.472356 C636.662605,472.777644 638.618431,479.034856 636.336634,484.139423 Z" id="Shape" fill="#FFFFFF"></path>
                    <path d="M183,2.48013245 C182.673214,1.98675497 182.183036,1.49337748 181.85625,1 L149.667857,1 C150.158036,2.31567329 150.811607,3.46688742 151.628571,4.61810155 C92.3169643,36.687638 54.9,98.5242826 0,136.678808 L0,150 C66.1741071,107.569536 105.878571,29.9448124 183,2.48013245 Z" id="Shape" fill="#EC2227"></path>
                    <path d="M4.24285714,1 C2.82857143,2.5 1.41428571,4 0,5.66666667 L0,13 C3.77142857,9 7.38571429,5 11,1 L4.24285714,1 Z" id="Shape" fill="#FFFFFF"></path>
                    <path d="M142,2.14561856 C141.837529,1.81829897 141.837529,1.32731959 141.675057,1 L43.3798627,1 C49.8787185,2.47293814 56.215103,6.4007732 60.7643021,12.6198454 C71.9748284,27.6765464 70.187643,50.7525773 56.8649886,64.6636598 C43.7048055,78.4110825 23.5583524,76.9381443 12.1853547,61.8814433 C0.974828375,46.8247423 2.76201373,23.7487113 16.0846682,9.83762887 C20.6338673,5.09149485 25.8329519,2.30927835 31.3569794,1 L13.4851259,1 C8.93592677,5.58247423 4.54919908,10.1649485 0,14.9110825 L0,128 C51.0160183,90.8492268 87.0846682,33.8956186 142,2.14561856 Z" id="Shape" fill="#FFFFFF"></path>
                    <path d="M151,4.6 C150.185545,3.45454545 149.533981,2.14545455 149.045307,1 L143.507012,1 C143.669903,1.49090909 143.669903,1.81818182 143.832794,2.30909091 C143.832794,2.47272727 143.995685,2.63636364 143.995685,2.8 C88.1240561,34.7090909 51.7993528,92.6363636 0,129.781818 L0,136 C54.5685005,98.0363636 91.8705502,36.6727273 151,4.6 Z" id="Shape" fill="#FFFFFF"></path>
                    <path d="M11.8072289,1 C7.92771084,4.95294118 3.87951807,8.90588235 0,12.8588235 L0,15 C4.72289157,10.3882353 9.27710843,5.77647059 14,1 L11.8072289,1 Z" id="Shape" fill="#EC2227"></path>
                    <path d="M144,2.80304956 C144,2.63913596 143.837104,2.47522236 143.837104,2.31130877 C143.674208,1.98348158 143.674208,1.49174079 143.511312,1 L141.882353,1 C142.045249,1.32782719 142.045249,1.81956798 142.208145,2.14739517 C87.3122172,33.9466328 50.9864253,91.1524778 0,128.19695 L0,130 C51.800905,92.6277001 88.1266968,34.6022872 144,2.80304956 Z" id="Shape" fill="#EC2227"></path>
                    <path d="M12.3294386,60.6694885 C23.4940537,75.8368606 43.5579997,77.3046708 56.826093,63.4420189 C69.9323802,49.742457 71.8740524,26.7467637 60.7094373,11.5793916 C56.0170629,5.38197075 49.8684343,1.46781021 43.3961936,0 L31.5843545,0 C26.08295,1.14163016 20.9051574,4.07725057 16.374589,8.80686123 C2.94468969,22.6695132 1.16482351,45.6652064 12.3294386,60.6694885 Z" id="Shape" fill="#EC2227"></path>
                    <path d="M273.465116,89 C242.697674,114.144633 211.767442,139.452542 181,164.597175 C216.651163,253.909605 318.883721,288.687571 354.534884,378 C385.302326,352.855367 416.232558,327.547458 447,302.402825 C411.186047,213.090395 308.953488,178.312429 273.465116,89 Z M421.930233,308.607345 C404.674419,322.812429 387.418605,336.854237 370,351.059322 C366.255814,343.222034 357.302326,341.589266 350.790698,346.977401 C312.697674,282.319774 239.27907,246.562147 201.186047,181.90452 C207.697674,176.516384 209.488372,166.39322 205.744186,158.555932 C223,144.350847 240.255814,130.30904 257.674419,116.103955 C261.418605,123.941243 270.372093,125.574011 276.883721,120.185876 C314.976744,184.843503 388.395349,220.60113 426.488372,285.258757 C419.976744,290.483616 418.186047,300.770056 421.930233,308.607345 Z" id="Shape" fill="#EC2227"></path>
                    <path d="M276.932081,121.082696 C270.400289,126.471855 261.419075,124.838777 257.663295,117 C240.354046,131.207783 223.044798,145.252259 205.572254,159.460042 C209.328035,167.298819 207.695087,177.587213 201,182.813065 C239.210983,247.482974 312.856936,283.247394 351.067919,347.917304 C357.599711,342.528145 366.580925,344.161223 370.336705,352 C387.645954,337.792217 404.955202,323.747741 422.427746,309.539958 C418.671965,301.701181 420.304913,291.412787 427,286.186935 C388.789017,221.517026 315.143064,185.752606 276.932081,121.082696 Z M420.304913,286.023628 C416.222543,291.90271 414.916185,299.904795 416.549133,307.090341 C416.549133,307.253648 416.712428,307.416956 416.712428,307.743572 C401.689306,319.991661 386.666185,332.23975 371.643064,344.487839 C371.479769,344.324531 371.479769,344.161223 371.316474,344.161223 C366.580925,339.261987 359.722543,338.118833 353.517341,340.731758 C353.354046,340.731758 353.190751,340.895066 353.027457,340.895066 C314.979769,279.981237 245.742775,244.543433 207.695087,183.629604 C207.858382,183.466296 207.858382,183.302988 208.021676,183.13968 C212.104046,177.260598 213.410405,169.258513 211.777457,162.072967 C211.777457,161.909659 211.614162,161.746352 211.614162,161.419736 C226.637283,149.171647 241.660405,136.923558 256.683526,124.675469 C256.846821,124.838777 256.846821,125.002085 257.010116,125.002085 C261.58237,129.90132 268.604046,131.044475 274.809249,128.43155 C274.972543,128.43155 275.135838,128.268242 275.299133,128.268242 C313.346821,189.182071 382.583815,224.619875 420.631503,285.533704 C420.468208,285.697012 420.468208,285.86032 420.304913,286.023628 Z" id="Shape" fill="#FFFFFF"></path>
                    <path d="M275.271807,129.431165 C268.923676,131.881997 261.924455,130.738275 257.041277,126 C242.554517,137.763994 228.23053,149.527988 213.743769,161.455371 C215.371495,168.971256 214.069315,176.977307 210,183.022693 C247.926012,243.149773 315.964953,278.441755 353.728193,338.568835 C360.076324,336.118003 367.075545,337.261725 371.958723,342 C386.445483,330.236006 400.76947,318.472012 415.256231,306.544629 C413.628505,299.028744 414.930685,291.022693 419,284.977307 C381.23676,224.850227 313.197819,189.558245 275.271807,129.431165 Z M263.226636,183.839637 C258.343458,187.760968 251.018692,187.270802 247.11215,182.205749 C243.205607,177.304085 244.182243,169.7882 249.065421,165.866868 C253.948598,161.945537 260.785047,162.762481 264.691589,167.827534 C268.760903,172.729198 268.109813,179.918306 263.226636,183.839637 Z M339.892523,257.364599 C325.405763,269.291982 302.292056,268.311649 288.130841,255.567322 C273.969626,242.822995 274.457944,222.562784 289.107477,210.635401 C303.594237,198.708018 326.707944,199.688351 340.869159,212.432678 C355.193146,225.177005 354.542056,245.437216 339.892523,257.364599 Z M379.934579,301.969743 C375.051402,305.891074 368.214953,305.07413 364.308411,300.009077 C360.401869,295.107413 361.05296,288.081694 365.773364,283.996974 C370.656542,280.075643 377.981308,280.565809 381.88785,285.630862 C385.794393,290.695915 384.817757,298.048411 379.934579,301.969743 Z" id="Shape" fill="#FFFFFF"></path>
                    <path d="M275.624233,127.59584 C275.46089,127.59584 275.297546,127.759287 275.134202,127.759287 C268.927147,130.374443 261.903374,129.066865 257.329755,124.326895 C257.166411,124.163447 257.166411,124 257.003067,124 C241.97546,136.258544 226.947853,148.517088 211.920245,160.775632 C211.920245,160.939079 212.083589,161.102526 212.083589,161.429421 C213.717025,168.784547 212.410276,176.630015 208.326687,182.514116 C208.163344,182.677563 208.163344,182.84101 208,183.004458 C246.059049,243.970282 315.316718,279.438336 353.375767,340.40416 C353.53911,340.40416 353.702454,340.240713 353.865798,340.240713 C360.072853,337.625557 367.096626,338.933135 371.670245,343.673105 C371.833589,343.836553 371.833589,344 371.996933,344 C387.02454,331.741456 402.052147,319.482912 417.079755,307.224368 C417.079755,307.060921 416.916411,306.897474 416.916411,306.570579 C415.282975,299.215453 416.589724,291.369985 420.673313,285.485884 C420.836656,285.322437 420.836656,285.15899 421,284.995542 C382.940951,224.029718 313.683282,188.561664 275.624233,127.59584 Z M415.446319,306.570579 C400.908742,318.338782 386.534509,330.106984 371.996933,342.038633 C367.096626,337.298663 360.072853,336.154532 353.702454,338.606241 C315.806748,278.457652 247.365798,243.153046 209.470092,183.004458 C213.553681,176.956909 214.860429,168.947994 213.226994,161.429421 C227.764571,149.661218 242.138804,137.893016 256.67638,125.961367 C261.576687,130.701337 268.60046,131.845468 274.970859,129.393759 C313.029908,189.542348 381.307515,224.846954 419.203221,284.995542 C415.119632,291.043091 413.976227,299.215453 415.446319,306.570579 Z" id="Shape" fill="#EC2227"></path>
                    <path d="M340.545304,213.057054 C326.289493,200.386223 303.021387,199.57399 288.437856,211.270142 C273.690465,223.128741 273.035025,243.272114 287.454696,255.942946 C301.710507,268.613777 324.978613,269.42601 339.562144,257.729858 C354.309535,245.871259 354.964975,225.727886 340.545304,213.057054 Z" id="Shape" fill="#EC2227"></path>
                    <path d="M365.14238,284.600904 C360.171524,288.523522 359.674438,295.714988 363.651123,300.61826 C367.627809,305.521532 374.587008,306.502187 379.557864,302.579569 C384.528721,298.656951 385.522892,291.1386 381.546207,286.235328 C377.569522,281.168613 370.113237,280.678286 365.14238,284.600904 Z" id="Shape" fill="#EC2227"></path>
                    <path d="M248.436569,166.426009 C243.471942,170.357666 242.479016,177.893342 246.450718,182.807914 C250.42242,187.722485 257.869361,188.377762 262.833988,184.446104 C267.798615,180.514447 268.295078,173.306409 264.488863,168.391837 C260.351674,163.477266 253.235708,162.494351 248.436569,166.426009 Z" id="Shape" fill="#EC2227"></path>
                    <path d="M406,1 L393.479675,1 C381.934959,9.06827309 370.390244,16.9718876 359.00813,25.0401606 C357.056911,19.7710843 351.365854,18.2891566 346.813008,21.4176707 C343.398374,14.1726908 339.333333,7.58634538 334.780488,1.16465863 L326,1.16465863 C335.105691,13.3493976 342.747967,26.686747 347.463415,42 C366.97561,28.1686747 386.487805,14.6666667 406,1 Z" id="Shape" fill="#EC2227"></path>
                    <path d="M358.447514,24 C370.019337,16 381.59116,8.16326531 393,0.163265306 L387.132597,0.163265306 C377.842541,6.53061224 368.71547,12.8979592 359.425414,19.1020408 C359.425414,18.9387755 359.262431,18.9387755 359.262431,18.7755102 C356.491713,15.3469388 352.09116,14.2040816 347.853591,15.5102041 C347.690608,15.5102041 347.690608,15.5102041 347.527624,15.6734694 C344.756906,10.2857143 341.497238,5.06122449 338.074586,0 L334,0 C338.563536,6.36734694 342.638122,13.0612245 346.060773,20.0816327 C350.787293,17.1428571 356.328729,18.7755102 358.447514,24 Z" id="Shape" fill="#FFFFFF"></path>
                    <path d="M360.318021,19 C368.932862,13 377.385159,7 386,1 L340,1 C343.088339,5.66666667 346.176678,10.6666667 348.777385,15.8333333 C353.003534,14.5 357.392226,15.6666667 360.318021,19 Z" id="Shape" fill="#FFFFFF"></path>
                    <path d="M348.636667,16.4273504 C352.72,15.1282051 357.293333,16.2649573 360.07,19.6752137 C360.07,19.8376068 360.233333,19.8376068 360.233333,20 C369.543333,13.6666667 378.69,7.33333333 388,1.16239316 L386.366667,1.16239316 C377.71,7.00854701 369.216667,12.8547009 360.56,18.7008547 C357.62,15.4529915 353.21,14.3162393 348.963333,15.4529915 C346.35,10.4188034 343.41,5.70940171 340.143333,1 L339,1 C342.43,6.03418803 345.696667,11.0683761 348.473333,16.5897436 C348.31,16.5897436 348.473333,16.4273504 348.636667,16.4273504 Z" id="Shape" fill="#EC2227"></path>
                    <path d="M121.921182,324 C125.334975,295.38077 128.586207,266.92415 132,238.30492 C89.8965517,219.442246 44.5418719,228.060537 0.162561576,227.4101 L0.162561576,235.215345 C37.8768473,235.540563 76.2413793,229.52402 112.655172,239.605795 C112.004926,245.622337 116.231527,251.801489 122.083744,253.915409 C120.133005,269.851117 118.344828,285.949433 116.394089,301.885141 C110.541872,299.77122 105.17734,303.348624 104.364532,309.365167 C70.5517241,300.096439 35.1133005,304.649498 0,304.974717 L0,312.779961 C41.2906404,312.617352 83.0689655,306.600809 121.921182,324 Z" id="Shape" fill="#EC2227"></path>
                    <path d="M104.292943,310 C104.942743,303.944901 110.466045,300.180921 116.314248,302.472039 C118.263648,286.43421 120.050599,270.23273 122,254.194901 C116.151798,252.067433 111.928096,245.848683 112.577896,239.793585 C76.0266312,229.810854 37.6884154,235.865953 0.162450067,235.374999 L0.162450067,239.138979 C36.551265,239.466282 73.5898802,233.902137 109.003995,242.739308 C109.003995,242.90296 109.003995,243.066611 109.003995,243.066611 C109.816245,248.303453 113.065246,253.049341 117.613848,255.995065 C117.776298,255.995065 117.776298,256.158716 117.938748,256.158716 C116.314248,270.069078 114.689747,284.143092 113.065246,298.053454 C112.902796,298.053454 112.740346,298.053454 112.740346,298.053454 C107.866844,297.889802 103.643142,300.835526 101.693742,305.254112 C101.693742,305.417763 101.531292,305.417763 101.531292,305.581414 C68.5539281,297.398849 33.9520639,301.653783 0,301.981085 L0,305.581414 C35.0892144,305.09046 70.5033289,300.671875 104.292943,310 Z" id="Shape" fill="#FFFFFF"></path>
                    <path d="M101.052851,304 C103.168289,299.617961 107.399166,296.696601 112.280946,296.696601 C113.908206,283.388186 115.37274,270.07977 117,256.771354 C112.443672,253.687697 109.026426,248.981062 108.212796,243.787534 C73.0639777,235.348051 36.1251739,240.703877 0,240.379282 L0,300.754045 C33.8470097,300.429449 68.0194715,296.04741 101.052851,304 Z M80.0611961,269.917472 C80.5493741,265.373135 84.6175243,262.12718 89.1738526,262.614073 C93.7301808,263.263264 96.821975,267.483006 96.3337969,272.027343 C95.8456189,276.57168 91.7774687,279.49304 87.2211405,278.843849 C82.6648122,278.356955 79.4102921,274.461809 80.0611961,269.917472 Z M25.3852573,294.262135 C11.5535466,294.749028 1.78998609,284.037377 3.41724618,270.566663 C5.04450626,257.09595 17.4116829,246.059703 31.2433936,245.410512 C45.0751043,244.761321 54.8386648,255.63527 53.2114047,269.105984 C51.5841446,282.576697 39.054242,293.612944 25.3852573,294.262135 Z" id="Shape" fill="#FFFFFF"></path>
                    <path d="M101.561379,306 C101.561379,305.836042 101.724138,305.836042 101.724138,305.672083 C103.677241,301.24521 107.908966,298.293962 112.791724,298.45792 C112.954483,298.45792 113.117241,298.45792 113.117241,298.45792 C114.744828,284.521467 116.372414,270.421056 118,256.484604 C117.837241,256.484604 117.837241,256.320646 117.674483,256.320646 C113.117241,253.369397 109.862069,248.614607 109.048276,243.367943 C109.048276,243.203984 109.048276,243.040026 109.048276,243.040026 C73.5668966,234.18628 36.457931,239.760861 1.15646956e-14,239.432944 L1.15646956e-14,240.416694 C36.1324138,240.74461 73.0786207,235.170029 108.234483,243.859817 C109.211034,249.106482 112.466207,253.861272 117.023448,256.976479 C115.395862,270.421056 113.931034,283.865634 112.303448,297.310212 C107.42069,297.310212 103.188966,300.261461 101.073103,304.688334 C68.1958621,296.654379 33.8537931,300.917294 0,301.24521 L0,302.22896 C34.0165517,302.065002 68.5213793,297.802087 101.561379,306 Z" id="Shape" fill="#EC2227"></path>
                    <path d="M31.9193487,245.016003 C18.1279081,245.66674 5.79673765,256.729277 4.17421522,270.23208 C2.5516928,283.734882 12.4490796,294.47205 26.0782679,293.983997 C39.8697085,293.33326 52.200879,282.270723 53.8234014,268.76792 C55.4459238,255.265118 45.7107893,244.52795 31.9193487,245.016003 Z" id="Shape" fill="#EC2227"></path>
                    <path d="M88.0635736,278.915733 C92.5071039,279.549261 96.4745417,276.540006 96.9506342,272.263696 C97.4267267,267.829005 94.411474,263.711077 89.9679437,263.07755 C85.5244134,262.444023 81.5569756,265.770041 81.080883,270.204732 C80.446093,274.481042 83.6200432,278.282206 88.0635736,278.915733 Z" id="Shape" fill="#EC2227"></path>
                    <path d="M120,482.916667 C139.747774,490.277778 159.658754,497.638889 179.406528,505 C210.578635,464.595679 198.827893,408.487654 230,368.083333 C210.252226,360.722222 190.341246,353.361111 170.593472,346 C139.58457,386.404321 151.172107,442.675926 120,482.916667 Z M180.222552,355.814815 C191.320475,359.904321 202.418398,363.993827 213.51632,368.246914 C210.905045,372.009259 212.700297,376.589506 216.780415,378.061728 C197.522255,412.904321 200.949555,456.253086 181.854599,491.095679 C177.611276,489.459877 172.551929,491.58642 169.940653,495.348765 C158.84273,491.259259 147.744807,487.169753 136.646884,482.916667 C139.25816,479.154321 137.462908,474.574074 133.382789,473.101852 C152.64095,438.259259 149.21365,394.910494 168.308605,360.067901 C172.551929,361.540123 177.611276,359.57716 180.222552,355.814815 Z" id="Shape" fill="#EC2227"></path>
                    <path d="M141.259912,481.656716 C150.550661,485.104478 159.678414,488.552239 168.969163,492 C171.903084,489.208955 175.977974,487.731343 179.889868,487.895522 C197.004405,454.238806 194.885463,413.358209 212,379.701493 C209.229075,377.402985 207.762115,373.791045 208.740088,370.343284 C199.449339,366.895522 190.321586,363.447761 181.030837,360 C178.096916,362.791045 174.022026,364.268657 170.110132,364.104478 C152.995595,397.761194 155.114537,438.641791 138,472.298507 C140.770925,474.597015 142.07489,478.208955 141.259912,481.656716 Z M169.45815,470.985075 C168.317181,474.104478 164.568282,475.58209 161.471366,474.432836 C158.374449,473.283582 156.907489,469.835821 158.048458,466.716418 C159.189427,463.597015 162.612335,461.955224 165.709251,463.104478 C168.969163,464.41791 170.599119,467.865672 169.45815,470.985075 Z M180.378855,381.179104 C181.519824,378.059701 185.268722,376.58209 188.365639,377.731343 C191.462555,378.880597 192.929515,382.328358 191.788546,385.447761 C190.647577,388.567164 187.22467,390.208955 184.127753,389.059701 C180.867841,387.746269 179.07489,384.298507 180.378855,381.179104 Z M157.885463,419.761194 C159.84141,409.746269 169.295154,404.656716 178.585903,408.104478 C187.876652,411.552239 193.744493,422.38806 191.788546,432.402985 C189.832599,442.41791 180.378855,447.507463 171.088106,444.059701 C161.797357,440.61194 155.929515,429.776119 157.885463,419.761194 Z" id="Shape" fill="#FFFFFF"></path>
                    <path d="M133,473.678781 C137.223092,475.320047 138.847358,479.751465 136.248532,483.526377 C147.293542,487.629543 158.338552,491.732708 169.383562,496 C171.982387,492.225088 177.017613,490.255569 181.240705,491.732708 C200.407045,456.77374 196.996086,413.280188 216,378.321219 C211.776908,376.84408 210.152642,372.248535 212.751468,368.473623 C201.706458,364.370457 190.661448,360.267292 179.616438,356 C177.017613,359.774912 171.982387,361.744431 167.759295,360.267292 C148.592955,395.22626 152.003914,438.719812 133,473.678781 Z M169.383562,363.385698 C173.119374,363.713951 177.180039,362.072685 179.941292,359.446659 C179.941292,359.446659 180.103718,359.282532 180.103718,359.282532 C189.686888,362.893318 199.270059,366.504103 208.853229,370.114889 C208.853229,370.279015 208.853229,370.279015 208.853229,370.443142 C207.878669,373.889801 209.178082,377.33646 212.101761,379.634232 C212.101761,379.634232 212.264188,379.798359 212.264188,379.798359 C194.722114,413.608441 197.158513,454.968347 179.778865,488.942556 C179.616438,488.942556 179.616438,488.942556 179.454012,488.942556 C175.7182,488.614302 171.657534,490.255569 168.896282,492.881594 C168.896282,492.881594 168.733855,493.045721 168.733855,493.045721 C159.150685,489.434936 149.567515,485.82415 139.984344,482.213365 C139.984344,482.049238 139.984344,482.049238 139.984344,481.885111 C140.958904,478.438453 139.659491,474.827667 136.735812,472.694021 C136.735812,472.694021 136.573386,472.529894 136.573386,472.529894 C154.11546,438.719812 151.679061,397.359906 169.058708,363.385698 C169.221135,363.385698 169.383562,363.385698 169.383562,363.385698 Z" id="Shape" fill="#FFFFFF"></path>
                    <path d="M137.16309,472.61227 C139.935622,474.749693 141.403433,478.366871 140.424893,481.819632 C140.424893,481.984049 140.424893,481.984049 140.424893,482.148466 C150.04721,485.765644 159.669528,489.382822 169.291845,493 C169.291845,493 169.454936,492.835583 169.454936,492.835583 C172.390558,490.040491 176.304721,488.560736 180.055794,488.889571 C180.218884,488.889571 180.218884,488.889571 180.381974,488.889571 C197.995708,455.019632 195.549356,413.586503 213,379.552147 C213,379.552147 212.83691,379.38773 212.83691,379.38773 C210.064378,377.250307 208.596567,373.633129 209.575107,370.180368 C209.575107,370.015951 209.575107,370.015951 209.575107,369.851534 C199.95279,366.234356 190.330472,362.617178 180.708155,359 C180.708155,359 180.545064,359.164417 180.545064,359.164417 C177.609442,361.959509 173.695279,363.439264 169.944206,363.110429 C169.781116,363.110429 169.781116,363.110429 169.618026,363.110429 C152.004292,396.980368 154.450644,438.413497 137,472.447853 C137.16309,472.447853 137.16309,472.447853 137.16309,472.61227 Z M170.107296,363.768098 C174.021459,363.932515 177.935622,362.452761 181.034335,359.657669 C190.330472,363.110429 199.463519,366.56319 208.759657,370.015951 C207.944206,373.468712 209.248927,377.08589 212.021459,379.38773 C194.896996,413.093252 197.017167,454.033129 179.892704,487.73865 C175.978541,487.574233 172.064378,489.053988 168.965665,491.84908 C159.669528,488.396319 150.536481,484.943558 141.240343,481.490798 C142.055794,478.038037 140.751073,474.420859 137.978541,472.119018 C155.266094,438.413497 152.982833,397.47362 170.107296,363.768098 Z" id="Shape" fill="#EC2227"></path>
                    <path d="M170.710869,442.926936 C180.092211,446.364979 189.638137,441.289773 191.613157,431.303078 C193.588176,421.316383 187.827703,410.511106 178.281776,407.073064 C168.900434,403.635021 159.354508,408.710227 157.379488,418.696922 C155.404469,428.683617 161.329527,439.488894 170.710869,442.926936 Z" id="Shape" fill="#EC2227"></path>
                    <path d="M184.040436,388.635243 C187.09627,389.776531 190.47377,388.14612 191.599604,385.048341 C192.725437,381.950561 191.43877,378.526699 188.222103,377.385412 C185.166269,376.244125 181.627936,377.711494 180.341269,380.809274 C179.215435,384.070094 180.984602,387.493956 184.040436,388.635243 Z" id="Shape" fill="#EC2227"></path>
                    <path d="M166.000864,462.364757 C162.929174,461.223469 159.534149,462.85388 158.402474,465.951659 C157.270799,469.049439 158.564142,472.473301 161.797499,473.614588 C164.869189,474.755875 168.425882,473.288506 169.719225,470.190726 C170.689232,467.092947 169.072554,463.669085 166.000864,462.364757 Z" id="Shape" fill="#EC2227"></path>
                    <path d="M0,432 L0,442.923913 C5.26406926,445.695652 10.1991342,448.630435 15.1341991,452.054348 C11.8441558,458.73913 14.4761905,467.543478 20.3982684,472.271739 C13.6536797,486.456522 6.74458874,500.641304 0,514.826087 L0,537 C12.6666667,510.586957 25.3333333,484.336957 38,457.923913 C26.3203463,447.163043 13.4891775,438.847826 0,432 Z" id="Shape" fill="#EC2227"></path>
                    <path d="M8.77108434,455.069182 C5.90361446,453.27044 3.03614458,451.63522 0,450 L0,502 C4.72289157,492.515723 9.27710843,483.031447 14,473.54717 C9.95180723,468.314465 7.92771084,461.446541 8.77108434,455.069182 Z" id="Shape" fill="#FFFFFF"></path>
                    <path d="M15,452.142857 C10.1612903,448.877551 5.16129032,445.77551 0.161290323,443 L0.161290323,448.061224 C3.38709677,449.857143 6.77419355,451.816327 9.83870968,453.938776 C9.83870968,454.102041 9.83870968,454.265306 9.67741935,454.428571 C8.5483871,460.632653 10.483871,467.489796 14.516129,472.55102 C14.6774194,472.714286 14.6774194,472.877551 14.8387097,473.040816 C9.83870968,483.489796 5,493.938776 0,504.55102 L0,515 C6.61290323,500.795918 13.3870968,486.591837 20,472.387755 C14.3548387,467.653061 11.7741935,458.836735 15,452.142857 Z" id="Shape" fill="#FFFFFF"></path>
                    <path d="M14.5108696,472.347826 C10.4347826,467.315942 8.47826087,460.498551 9.61956522,454.330435 C9.61956522,454.168116 9.61956522,454.005797 9.7826087,453.843478 C6.52173913,451.733333 3.26086957,449.785507 0,448 L0,449.46087 C2.93478261,451.084058 5.70652174,452.707246 8.47826087,454.492754 C7.5,460.823188 9.45652174,467.64058 13.5326087,472.834783 C8.9673913,482.249275 4.56521739,491.663768 5.79246795e-15,501.078261 L0,504 C5.05434783,493.611594 9.94565217,483.223188 15,472.672464 C14.8369565,472.672464 14.673913,472.510145 14.5108696,472.347826 Z" id="Shape" fill="#EC2227"></path>
                    <path d="M619.045689,276.918411 C623.49914,277.584936 627.475435,274.08568 627.952591,269.420005 C628.429746,264.75433 625.24871,260.755181 620.954311,260.088656 C616.50086,259.422131 612.524565,262.588124 612.047409,267.087168 C611.570254,271.919474 614.75129,276.418517 619.045689,276.918411 Z" id="Shape" fill="#EC2227"></path>
                    <path d="M545.695178,480.633627 C561.595167,485.38816 580.253318,477.354639 587.229844,462.435243 C594.368614,447.351897 587.229844,431.120906 571.329854,426.366373 C555.429865,421.61184 536.771714,429.645361 529.795188,444.564757 C522.656418,459.484153 529.632943,475.879094 545.695178,480.633627 Z" id="Shape" fill="#EC2227"></path>
                    <path d="M622.682625,486.926164 C627.605117,489.351227 633.512107,487.572848 635.973353,482.561051 C638.434599,477.710925 636.301519,471.405761 631.379027,468.980698 C626.456536,466.555635 620.385463,468.819027 617.924217,473.669153 C615.627054,478.842621 617.760134,484.501101 622.682625,486.926164 Z" id="Shape" fill="#EC2227"></path>
                    <path d="M481.023009,424.399111 C478.570484,429.262506 480.696006,435.584921 485.601057,438.016619 C490.506108,440.448317 496.555671,438.178732 499.008196,433.315336 C501.460721,428.289827 499.171698,422.615866 494.266647,420.184168 C489.361596,417.590357 483.475535,419.373602 481.023009,424.399111 Z" id="Shape" fill="#EC2227"></path>
                    <path d="M309.976261,504 C288.596439,518.723727 267.379822,533.447454 246,548.007584 C259.709199,592.505959 298.878338,619.499458 325.643917,655 L334.456973,655 C311.118694,622.11701 276.192878,597.086674 258.240356,560.277356 C262.810089,557.169014 264.442136,550.625135 262.320475,545.390033 C274.234421,537.210184 286.311573,528.866739 298.225519,520.686891 C300.183976,525.921993 305.896142,527.394366 310.465875,524.286024 C331.682493,568.130011 377.379822,595.287107 398.759644,639.294691 C394.189911,642.403034 392.557864,648.946912 394.679525,654.182015 C394.353116,654.509209 393.863501,654.672806 393.373887,655 L405.940653,655 C407.5727,653.854821 409.367953,652.709642 411,651.564464 C392.721068,591.687974 328.255193,563.712893 309.976261,504 Z" id="Shape" fill="#EC2227"></path>
                    <path d="M394,638.381378 C372.605528,597.246173 330.306533,570.590561 309.075377,529.290816 C304.829146,530.607143 300.256281,529.455357 297.479899,526 C287.517588,532.910714 277.555276,539.821429 267.592965,546.732143 C268.246231,551.668367 266.939698,556.769133 264,560.553571 C282.781407,596.58801 317.567839,621.598214 340.268844,655 L386.487437,655 C387.79397,654.012755 389.263819,653.02551 390.570352,652.202806 C389.753769,647.266582 390.896985,642.165816 394,638.381378 Z M298.133166,564.173469 C294.703518,566.477041 290.130653,565.654337 287.844221,562.36352 C285.557789,558.908163 286.537688,554.13648 289.967337,551.832908 C293.396985,549.529337 297.806533,550.516582 300.092965,553.971939 C302.379397,557.262755 301.562814,561.869898 298.133166,564.173469 Z M344.025126,616.168367 C333.899497,623.079082 319.037688,621.269133 310.545226,612.219388 C302.052764,603.169643 303.522613,590.006378 313.648241,582.931122 C323.773869,576.020408 338.635678,577.830357 347.128141,586.880102 C355.620603,595.929847 354.150754,609.093112 344.025126,616.168367 Z M367.542714,647.431122 C364.113065,649.734694 359.703518,648.747449 357.417085,645.292092 C355.130653,641.836735 355.947236,637.229592 359.213568,634.92602 C362.643216,632.622449 367.21608,633.445153 369.502513,636.735969 C371.952261,640.355867 370.972362,645.127551 367.542714,647.431122 Z" id="Shape" fill="#FFFFFF"></path>
                    <path d="M398,639.214373 C376.861789,595.146163 331.333333,567.850183 310.03252,523.61754 C305.479675,526.741778 299.95122,525.261876 297.837398,520 C285.96748,528.221681 273.934959,536.607795 262.065041,544.829476 C264.01626,550.091352 262.390244,556.668697 258,559.792935 C275.723577,596.790499 310.520325,621.948843 333.934959,655 L338,655 C315.235772,621.784409 280.601626,596.790499 262.065041,560.45067 C262.065041,560.286236 262.227642,560.286236 262.227642,560.121803 C265.154472,556.504263 266.455285,551.406821 265.804878,546.638246 C265.804878,546.473812 265.804878,546.309379 265.804878,546.309379 C276.211382,539.0743 286.455285,532.003654 296.861789,524.768575 C296.861789,524.933009 297.02439,524.933009 297.02439,525.097442 C299.788618,528.550548 304.178862,529.701583 308.406504,528.386114 C308.569106,528.386114 308.569106,528.386114 308.731707,528.221681 C330.03252,569.98782 372.796748,596.790499 394.097561,638.392205 C394.097561,638.556638 393.934959,638.556638 393.934959,638.721072 C391.00813,642.338611 389.707317,647.436054 390.357724,652.204629 C390.357724,652.369062 390.357724,652.533496 390.357724,652.533496 C389.219512,653.355664 388.081301,654.177832 386.943089,654.835566 L392.796748,654.835566 C393.284553,654.506699 393.609756,654.342266 394.097561,654.013398 C391.821138,648.915956 393.447154,642.503045 398,639.214373 Z" id="Shape" fill="#FFFFFF"></path>
                    <path d="M390.261084,652.209596 C389.610837,647.449495 390.91133,642.19697 393.837438,638.75 C393.837438,638.585859 394,638.585859 394,638.421717 C372.704433,596.729798 329.950739,569.974747 308.655172,528.44697 C308.492611,528.44697 308.492611,528.44697 308.330049,528.611111 C304.26601,529.924242 299.714286,528.775253 296.950739,525.328283 C296.950739,525.164141 296.788177,525.164141 296.788177,525 C286.384236,532.222222 276.142857,539.280303 265.738916,546.502525 C265.738916,546.666667 265.738916,546.830808 265.738916,546.830808 C266.389163,551.590909 265.08867,556.843434 262.162562,560.290404 C262.162562,560.454545 262,560.454545 262,560.618687 C280.53202,596.729798 315.157635,621.679293 337.916256,655 L339.054187,655 C316.458128,621.679293 281.832512,596.729798 263.137931,560.782828 C266.064039,557.007576 267.364532,551.919192 266.714286,546.994949 C276.630542,540.10101 286.546798,533.207071 296.463054,526.313131 C299.389163,529.59596 303.778325,530.744949 308.004926,529.59596 C329.300493,570.631313 371.403941,597.222222 392.536946,638.421717 C389.610837,642.19697 388.310345,647.285354 388.960591,652.209596 C387.660099,653.194444 386.197044,654.179293 384.896552,655 L386.522167,655 C387.660099,654.179293 388.79803,653.358586 389.935961,652.70202 C390.261084,652.537879 390.261084,652.373737 390.261084,652.209596 Z" id="Shape" fill="#EC2227"></path>
                    <path d="M313.701106,584.244688 C303.501843,591.190245 302.021305,604.112212 310.575525,612.996064 C319.129746,621.879916 334.264136,623.656687 344.298894,616.872654 C354.498157,609.927097 355.978695,597.00513 347.424475,588.121278 C338.870254,579.075901 323.900369,577.299131 313.701106,584.244688 Z" id="Shape" fill="#EC2227"></path>
                    <path d="M290.437368,553.25367 C286.929818,555.554001 285.927661,560.318972 288.266028,563.769468 C290.604395,567.219964 295.448154,568.041511 298.788678,565.576871 C302.296229,563.27654 302.964333,558.675878 300.625967,555.225382 C298.454626,551.939195 293.944919,550.953339 290.437368,553.25367 Z" id="Shape" fill="#EC2227"></path>
                    <path d="M359.175957,635.399849 C355.707034,637.677936 355.046286,642.234111 357.358902,645.651242 C359.671518,649.068373 364.131562,650.044696 367.600485,647.766608 C371.069409,645.488521 372.06053,640.769626 369.747914,637.352495 C367.435299,633.772644 362.64488,632.959041 359.175957,635.399849 Z" id="Shape" fill="#EC2227"></path>
                    <path d="M620.797409,83.3481176 C615.711113,87.1408036 614.39852,94.066578 618.172224,99.1784591 C621.945928,104.29034 629.329261,105.609535 634.415557,101.816849 C639.501853,98.0241634 640.486298,90.7685902 636.712594,85.6567091 C632.93889,80.3799285 625.883705,79.5554316 620.797409,83.3481176 Z" id="Shape" fill="#EC2227"></path>
                    <path d="M0,643.960276 L0,655 L4.39083558,655 C31.5489668,627.238342 58.3818509,599.151986 92.5327942,580.806563 C97.574124,587.625216 107.656783,589.573402 115.625337,586.164076 C128.960467,604.022453 142.295597,621.71848 155.793351,639.576857 C149.125786,642.336788 146.849057,648.993092 148.963163,654.837651 L181,654.837651 C157.58221,623.504318 134.001797,592.333333 110.584007,561 C64.8867925,577.234888 32.524708,610.678756 0,643.960276 Z" id="Shape" fill="#EC2227"></path>
                    <path d="M157,639.617068 C143.612245,621.805252 130.22449,604.155361 116.673469,586.343545 C108.673469,589.743982 98.5510204,587.63895 93.4897959,581 C59.2040816,599.297593 32.2653061,627.310722 5,655 L12.0204082,655 C36.8367347,629.739606 61.6530612,604.641138 92.5102041,587.315098 C92.6734694,587.477024 92.8367347,587.477024 93,587.63895 C98.7142857,592.010941 106.55102,593.630197 113.897959,592.334792 C114.061224,592.334792 114.22449,592.334792 114.55102,592.172867 C126.142857,607.555799 137.734694,622.938731 149.489796,638.321663 C149.326531,638.483589 149.163265,638.483589 149.163265,638.645514 C144.428571,642.85558 142.959184,649.008753 144.591837,655 L150.142857,655 C147.857143,648.846827 150.306122,642.369803 157,639.617068 Z" id="Shape" fill="#FFFFFF"></path>
                    <path d="M147,638.014706 C135.767442,623.294118 124.697674,608.411765 113.465116,593.691176 C105.976744,594.985294 98,593.367647 92.1395349,589 C62.3488372,605.985294 38.0930233,630.411765 14,655 L31.9069767,655 C35.8139535,654.191176 39.8837209,654.191176 43.7906977,655 L142.44186,655 C140.813953,648.852941 142.27907,642.382353 147,638.014706 Z M105,644.161765 C99.9534884,647.882353 92.9534884,646.911765 89.2093023,641.897059 C85.4651163,636.882353 86.2790698,629.602941 91.4883721,626.044118 C96.5348837,622.323529 103.860465,623.617647 107.604651,628.632353 C111.348837,633.647059 110.046512,640.441176 105,644.161765 Z" id="Shape" fill="#FFFFFF"></path>
                    <path d="M148.674584,638.569378 C148.837292,638.406699 149,638.406699 149,638.244019 C137.447743,622.789474 125.895487,607.334928 114.180523,591.880383 C114.017815,591.880383 113.855107,591.880383 113.529691,592.043062 C106.207838,593.344498 98.3978622,591.717703 92.7030879,587.325359 C92.54038,587.162679 92.3776722,587.162679 92.2149644,587 C61.6258907,604.406699 36.7315914,629.62201 12,655 L13.9524941,655 C38.0332542,630.272727 62.2767221,605.870813 92.0522565,588.626794 C97.9097387,593.019139 105.882423,594.483254 113.366983,593.344498 C124.593824,608.148325 135.657957,623.114833 146.884798,637.91866 C142.166271,642.311005 140.7019,648.818182 142.328979,655 L143.956057,655 C142.328979,648.980861 143.956057,642.636364 148.674584,638.569378 Z" id="Shape" fill="#EC2227"></path>
                    <path d="M32,655.75 L44,655.75 C40.2191781,654.75 36.109589,654.75 32,655.75 Z" id="Shape" fill="#EC2227"></path>
                    <path d="M91.5844431,626.194587 C86.4981469,630.007141 85.5137024,637.300723 89.2874061,642.439383 C93.0611097,647.578042 100.116295,648.406858 105.202591,644.760068 C110.288887,640.947514 111.60148,633.985458 107.827776,628.846799 C104.054072,623.708139 96.6707392,622.382033 91.5844431,626.194587 Z" id="Shape" fill="#EC2227"></path>
                    <path d="M833.857462,1 L801.703186,1 C802.192845,2.30980392 802.845724,3.45588235 803.661822,4.60196078 C744.41308,36.5284314 707.035774,98.0892157 652.193963,136.073529 C645.991615,140.494118 639.462828,144.423529 632.770822,148.189216 C627.711012,141.312745 617.591392,139.348039 609.593628,142.786275 C596.209614,124.776471 582.825601,106.930392 569.278368,88.9205882 C577.276132,85.4823529 579.234768,76.6411765 574.174958,69.7647059 C604.207378,53.5558824 628.52711,29.8156863 652.357183,5.42058824 C653.82616,3.94705882 655.295137,2.47352941 656.764114,1 L652.357183,1 L641.584684,1 C612.858021,30.1431373 582.988821,57.8127451 543,71.8931373 C566.993292,103.983333 590.823365,135.909804 614.816657,168 C628.36389,163.251961 640.768586,156.866667 652.520402,149.335294 C718.297932,107.094118 758.123533,29.8156863 835,2.47352941 C834.673561,1.98235294 834.183902,1.49117647 833.857462,1 Z" id="Shape" fill="#EC2227"></path>
                    <path d="M794.673716,1 L695.97281,1 C702.498489,2.47176471 708.861027,6.39647059 713.429003,12.6105882 C724.685801,27.6552941 722.891239,50.7129412 709.513595,64.6129412 C696.299094,78.3494118 676.069486,76.8776471 664.649547,61.8329412 C653.392749,46.7882353 655.187311,23.7305882 668.564955,9.83058824 C673.132931,5.08823529 678.353474,2.30823529 683.900302,1 L665.954683,1 C661.386707,5.57882353 656.981873,10.1576471 652.413897,14.9 C631.205438,36.4858824 609.344411,57.2541176 583.241692,72.2988235 C585.362538,78.84 583.89426,85.8717647 579,90.4505882 C590.256798,105.331765 601.350453,120.376471 612.607251,135.257647 C620.111782,133.949412 628.10574,135.584706 633.978852,140 C640.34139,136.238824 646.540785,132.150588 652.577039,127.898824 C703.640483,90.7776471 740.021148,33.8694118 795,2.14470588 C794.836858,1.65411765 794.673716,1.32705882 794.673716,1 Z M634.794562,102.551765 C629.73716,106.312941 622.39577,105.004706 618.643505,99.9352941 C614.891239,94.8658824 616.033233,87.9976471 621.253776,84.2364706 C626.311178,80.4752941 633.326284,81.4564706 637.07855,86.5258824 C640.667674,91.5952941 639.851964,98.9541176 634.794562,102.551765 Z" id="Shape" fill="#FFFFFF"></path>
                    <path d="M801.881616,1 L796.341226,1 C796.504178,1.49333333 796.504178,1.82222222 796.667131,2.31555556 C796.667131,2.48 796.830084,2.64444444 796.830084,2.80888889 C740.937326,34.8755556 704.598886,93.0888889 652.779944,130.417778 C646.750696,134.693333 640.558496,138.804444 634.203343,142.422222 C634.04039,142.257778 633.877437,142.257778 633.714485,142.093333 C628.011142,137.653333 620.189415,136.008889 612.856546,137.324444 C612.693593,137.324444 612.530641,137.324444 612.204735,137.488889 C600.635097,121.866667 589.06546,106.244444 577.332869,90.6222222 C577.495822,90.4577778 577.658774,90.4577778 577.658774,90.2933333 C582.710306,85.8533333 584.17688,78.7822222 581.895543,72.5333333 C581.895543,72.3688889 581.732591,72.2044444 581.732591,72.04 C608.619777,56.5822222 630.94429,35.2044444 652.779944,12.84 C656.527855,8.89333333 660.438719,4.94666667 664.18663,1.16444444 L657.179666,1.16444444 C655.713092,2.64444444 654.246518,4.12444444 652.779944,5.76888889 C628.988858,30.2711111 604.708914,53.9511111 574.888579,70.2311111 C579.940111,76.9733333 577.98468,86.0177778 570,89.4711111 C583.362117,107.56 596.724234,125.484444 610.249304,143.573333 C618.233983,140.12 628.337047,142.257778 633.388579,149 C640.232591,145.382222 646.587744,141.271111 652.942897,136.831111 C707.532033,98.68 744.848189,36.8488889 804,4.78222222 C802.859331,3.46666667 802.207521,2.31555556 801.881616,1 Z" id="Shape" fill="#FFFFFF"></path>
                    <path d="M796.673348,1.31010453 C796.510022,0.982578397 796.510022,0.491289199 796.346696,0 L794.713437,0 C794.876763,0.327526132 794.876763,0.818815331 795.040089,1.14634146 C739.999258,32.9163763 703.57758,90.0696864 652.45657,127.080139 C646.413512,131.337979 640.370453,135.432056 633.837416,139.198606 C627.957684,134.777003 619.954714,133.303136 612.441722,134.449477 C601.172235,119.547038 590.066073,104.480836 578.796585,89.5783972 C583.696362,84.8292683 585.166295,77.7874564 583.043059,71.4006969 C609.175204,56.3344948 631.060876,35.5365854 652.45657,13.9198606 C657.029696,9.33449477 661.439495,4.74912892 665.849295,0.163763066 L663.889384,0.163763066 C660.132888,4.09407666 656.213066,8.02439024 652.45657,11.9547038 C630.734224,34.0627178 608.195249,55.5156794 581.4098,70.9094077 C581.4098,71.0731707 581.573125,71.2369338 581.573125,71.4006969 C583.859688,77.7874564 582.389755,84.6655052 577.326652,89.087108 C577.163326,89.2508711 577,89.2508711 577,89.4146341 C588.59614,104.972125 600.192279,120.529617 611.951745,136.087108 C612.115071,136.087108 612.278396,136.087108 612.605048,135.923345 C619.954714,134.61324 627.794358,136.250871 633.510765,140.672474 C633.674091,140.836237 633.837416,140.836237 634.000742,141 C640.533779,137.233449 646.740163,133.303136 652.619896,128.881533 C704.557535,91.543554 741.142539,33.7351916 797,1.80139373 C796.836674,1.63763066 796.836674,1.4738676 796.673348,1.31010453 Z" id="Shape" fill="#EC2227"></path>
                    <path d="M664.282896,60.6694885 C675.456845,75.8368606 695.537565,77.3046708 708.816751,63.4420189 C721.933996,49.742457 723.877291,26.7467637 712.703342,11.5793916 C708.007045,5.38197075 701.853276,1.46781021 695.375624,0 L683.55391,0 C678.047906,1.14163016 672.865785,4.07725057 668.331428,8.80686123 C655.052242,22.6695132 653.108947,45.6652064 664.282896,60.6694885 Z" id="Shape" fill="#EC2227"></path>
                    <path d="M925.465116,89 C894.697674,114.144633 863.767442,139.452542 833,164.597175 C868.651163,253.909605 970.883721,288.687571 1006.53488,378 C1037.30233,352.855367 1068.23256,327.547458 1099,302.402825 C1063.34884,213.090395 961.116279,178.312429 925.465116,89 Z M1074.09302,308.607345 C1056.83721,322.812429 1039.5814,336.854237 1022.16279,351.059322 C1018.4186,343.222034 1009.46512,341.589266 1002.95349,346.977401 C964.860465,282.319774 891.44186,246.562147 853.348837,181.90452 C859.860465,176.516384 861.651163,166.39322 857.906977,158.555932 C875.162791,144.350847 892.418605,130.30904 909.837209,116.103955 C913.581395,123.941243 922.534884,125.574011 929.046512,120.185876 C967.139535,184.843503 1040.55814,220.60113 1078.65116,285.258757 C1071.97674,290.483616 1070.34884,300.770056 1074.09302,308.607345 Z" id="Shape" fill="#EC2227"></path>
                    <path d="M928.932081,121.082696 C922.400289,126.471855 913.419075,124.838777 909.663295,117 C892.354046,131.207783 875.044798,145.252259 857.572254,159.460042 C861.328035,167.298819 859.695087,177.587213 853,182.813065 C891.210983,247.482974 964.856936,283.247394 1003.06792,347.917304 C1009.59971,342.528145 1018.58092,344.161223 1022.33671,352 C1039.64595,337.792217 1056.9552,323.747741 1074.42775,309.539958 C1070.67197,301.701181 1072.30491,291.412787 1079,286.186935 C1040.78902,221.517026 967.143064,185.752606 928.932081,121.082696 Z M1072.46821,286.023628 C1068.38584,291.90271 1067.07948,299.904795 1068.71243,307.090341 C1068.71243,307.253648 1068.87572,307.416956 1068.87572,307.743572 C1053.8526,319.991661 1038.82948,332.23975 1023.80636,344.487839 C1023.64306,344.324531 1023.64306,344.161223 1023.47977,344.161223 C1018.74422,339.261987 1011.88584,338.118833 1005.68064,340.731758 C1005.51734,340.731758 1005.35405,340.895066 1005.19075,340.895066 C967.143064,279.981237 897.906069,244.543433 859.858382,183.629604 C860.021676,183.466296 860.021676,183.302988 860.184971,183.13968 C864.267341,177.260598 865.573699,169.258513 863.940751,162.072967 C863.940751,161.909659 863.777457,161.746352 863.777457,161.419736 C878.800578,149.171647 893.823699,136.923558 908.846821,124.675469 C909.010116,124.838777 909.010116,125.002085 909.17341,125.002085 C913.745665,129.90132 920.767341,131.044475 926.972543,128.43155 C927.135838,128.43155 927.299133,128.268242 927.462428,128.268242 C965.510116,189.182071 1034.74711,224.619875 1072.7948,285.533704 C1072.6315,285.697012 1072.46821,285.86032 1072.46821,286.023628 Z" id="Shape" fill="#FFFFFF"></path>
                    <path d="M926.271807,129.431165 C919.923676,131.881997 912.924455,130.738275 908.041277,126 C893.554517,137.763994 879.23053,149.527988 864.743769,161.455371 C866.371495,168.971256 865.069315,176.977307 861,183.022693 C898.926012,243.149773 966.964953,278.441755 1004.72819,338.568835 C1011.07632,336.118003 1018.07555,337.261725 1022.95872,342 C1037.44548,330.236006 1051.76947,318.472012 1066.25623,306.544629 C1064.6285,299.028744 1065.93069,291.022693 1070,284.977307 C1032.23676,224.850227 964.035047,189.558245 926.271807,129.431165 Z M914.226636,183.839637 C909.343458,187.760968 902.018692,187.270802 898.11215,182.205749 C894.205607,177.304085 895.182243,169.7882 900.065421,165.866868 C904.948598,161.945537 911.785047,162.762481 915.691589,167.827534 C919.598131,172.729198 919.109813,179.918306 914.226636,183.839637 Z M990.892523,257.364599 C976.405763,269.291982 953.292056,268.311649 939.130841,255.567322 C924.969626,242.822995 925.457944,222.562784 940.107477,210.635401 C954.594237,198.708018 977.707944,199.688351 991.869159,212.432678 C1006.03037,225.177005 1005.54206,245.437216 990.892523,257.364599 Z M1030.77181,301.969743 C1025.88863,305.891074 1019.05218,305.07413 1015.14564,300.009077 C1011.2391,295.107413 1011.89019,288.081694 1016.61059,283.996974 C1021.49377,280.075643 1028.81854,280.565809 1032.72508,285.630862 C1036.63162,290.695915 1035.65498,298.048411 1030.77181,301.969743 Z" id="Shape" fill="#FFFFFF"></path>
                    <path d="M927.624233,127.59584 C927.46089,127.59584 927.297546,127.759287 927.134202,127.759287 C920.927147,130.374443 913.903374,129.066865 909.329755,124.326895 C909.166411,124.163447 909.166411,124 909.003067,124 C893.97546,136.258544 878.947853,148.517088 863.920245,160.775632 C863.920245,160.939079 864.083589,161.102526 864.083589,161.429421 C865.717025,168.784547 864.410276,176.630015 860.326687,182.514116 C860.163344,182.677563 860.163344,182.84101 860,183.004458 C898.059049,243.970282 967.316718,279.438336 1005.37577,340.40416 C1005.53911,340.40416 1005.70245,340.240713 1005.8658,340.240713 C1012.07285,337.625557 1019.09663,338.933135 1023.67025,343.673105 C1023.83359,343.836553 1023.83359,344 1023.99693,344 C1039.02454,331.741456 1054.05215,319.482912 1069.07975,307.224368 C1069.07975,307.060921 1068.91641,306.897474 1068.91641,306.570579 C1067.28298,299.215453 1068.58972,291.369985 1072.67331,285.485884 C1072.83666,285.322437 1072.83666,285.15899 1073,284.995542 C1035.10429,224.029718 965.683282,188.561664 927.624233,127.59584 Z M1067.60966,306.570579 C1053.07209,318.338782 1038.69785,330.106984 1024.16028,342.038633 C1019.25997,337.298663 1012.2362,336.154532 1005.8658,338.606241 C967.970092,278.457652 899.529141,243.153046 861.633436,183.004458 C865.717025,176.956909 867.023773,168.947994 865.390337,161.429421 C879.927914,149.661218 894.302147,137.893016 908.839724,125.961367 C913.740031,130.701337 920.763804,131.845468 927.134202,129.393759 C965.193252,189.542348 1033.47086,224.846954 1071.36656,284.995542 C1067.28298,291.043091 1065.97623,299.215453 1067.60966,306.570579 Z" id="Shape" fill="#EC2227"></path>
                    <path d="M992.599489,213.057054 C978.331522,200.386223 955.043575,199.57399 940.447609,211.270142 C925.687643,223.128741 925.031644,243.272114 939.463611,255.942946 C953.731578,268.613777 977.019525,269.42601 991.615491,257.729858 C1006.37546,245.871259 1006.86746,225.727886 992.599489,213.057054 Z" id="Shape" fill="#EC2227"></path>
                    <path d="M1017.14238,284.600904 C1012.17152,288.523522 1011.67444,295.714988 1015.65112,300.61826 C1019.62781,305.521532 1026.58701,306.502187 1031.55786,302.579569 C1036.52872,298.656951 1037.52289,291.1386 1033.54621,286.235328 C1029.40383,281.168613 1021.94754,280.678286 1017.14238,284.600904 Z" id="Shape" fill="#EC2227"></path>
                    <path d="M900.436569,166.426009 C895.471942,170.357666 894.479016,177.893342 898.450718,182.807914 C902.42242,187.722485 909.869361,188.377762 914.833988,184.446104 C919.798615,180.514447 920.295078,173.306409 916.488863,168.391837 C912.351674,163.477266 905.401196,162.494351 900.436569,166.426009 Z" id="Shape" fill="#EC2227"></path>
                    <path d="M1058,1 L1045.47967,1 C1033.93496,9.06827309 1022.39024,16.9718876 1011.00813,25.0401606 C1009.05691,19.7710843 1003.36585,18.2891566 998.813008,21.4176707 C995.398374,14.1726908 991.333333,7.58634538 986.780488,1.16465863 L978,1.16465863 C987.105691,13.3493976 994.747967,26.686747 999.463415,42 C1018.81301,28.1686747 1038.4878,14.6666667 1058,1 Z" id="Shape" fill="#EC2227"></path>
                    <path d="M1010.44751,24 C1022.01934,16 1033.59116,8.16326531 1045,0.163265306 L1039.1326,0.163265306 C1029.84254,6.53061224 1020.71547,12.8979592 1011.42541,19.1020408 C1011.42541,18.9387755 1011.26243,18.9387755 1011.26243,18.7755102 C1008.49171,15.3469388 1004.09116,14.2040816 999.853591,15.5102041 C999.690608,15.5102041 999.690608,15.5102041 999.527624,15.6734694 C996.756906,10.2857143 993.497238,5.06122449 990.074586,0 L986,0 C990.563536,6.36734694 994.638122,13.0612245 998.060773,20.0816327 C1002.78729,17.1428571 1008.49171,18.7755102 1010.44751,24 Z" id="Shape" fill="#FFFFFF"></path>
                    <path d="M1011.40845,19 C1019.99296,13 1028.41549,7 1037,1 L991,1 C994.077465,5.66666667 997.15493,10.6666667 999.746479,15.8333333 C1003.95775,14.5 1008.49296,15.6666667 1011.40845,19 Z" id="Shape" fill="#FFFFFF"></path>
                    <path d="M999.636667,16.4273504 C1003.72,15.1282051 1008.29333,16.2649573 1011.07,19.6752137 C1011.07,19.8376068 1011.23333,19.8376068 1011.23333,20 C1020.54333,13.6666667 1029.69,7.33333333 1039,1.16239316 L1037.36667,1.16239316 C1028.71,7.00854701 1020.21667,12.8547009 1011.56,18.7008547 C1008.62,15.4529915 1004.21,14.3162393 999.963333,15.4529915 C997.35,10.4188034 994.41,5.70940171 991.143333,1 L990,1 C993.43,6.03418803 996.696667,11.0683761 999.473333,16.5897436 C999.473333,16.5897436 999.636667,16.4273504 999.636667,16.4273504 Z" id="Shape" fill="#EC2227"></path>
                    <path d="M652.183962,227.496263 C630.051887,227.167414 608.082547,224.536622 587.089623,215 C583.67217,243.938714 580.417453,272.713004 577,301.651719 C601.247642,312.668161 626.634434,314.476831 652.183962,313.983558 C693.193396,313.490284 735.016509,307.406577 773.910377,325 C777.32783,296.061286 780.582547,267.286996 784,238.348281 C741.851415,219.603886 696.448113,228.153961 652.183962,227.496263 Z M768.540094,302.967115 C762.681604,300.829596 757.311321,304.446936 756.497642,310.530643 C722.648585,301.158445 687.17217,305.762332 652.021226,306.091181 C633.143868,306.255605 614.429245,305.269058 596.040094,300.336323 C596.691038,294.252616 592.459906,288.004484 586.601415,285.866966 C588.554245,269.753363 590.34434,253.475336 592.29717,237.361734 C598.15566,239.499253 603.525943,235.881913 604.339623,229.798206 C619.962264,234.073244 635.910377,235.38864 652.021226,235.553064 C689.775943,235.881913 728.181604,229.798206 764.634434,239.992526 C763.983491,246.076233 768.214623,252.324365 774.073113,254.461883 C772.283019,270.575486 770.330189,286.853513 768.540094,302.967115 Z" id="Shape" fill="#EC2227"></path>
                    <path d="M764.697917,240.101833 C728.142361,230.162933 689.628472,236.191446 651.767361,235.702648 C635.611111,235.539715 619.618056,234.236253 603.788194,230 C603.135417,236.028513 597.586806,239.775967 591.711806,237.494908 C589.753472,253.462322 587.958333,269.592668 586,285.560081 C591.875,287.678208 596.118056,293.869654 595.465278,299.898167 C613.743056,304.949084 632.673611,305.92668 651.604167,305.600815 C686.690972,305.274949 722.267361,300.712831 756.211806,310 C756.864583,303.971487 762.413194,300.224033 768.288194,302.505092 C770.246528,286.537678 772.041667,270.407332 774,254.439919 C768.288194,252.321792 764.045139,246.130346 764.697917,240.101833 Z M765.350694,298.105906 C765.1875,298.105906 765.024306,298.105906 765.024306,298.105906 C760.128472,297.942974 755.885417,300.875764 753.927083,305.274949 C753.927083,305.437882 753.763889,305.437882 753.763889,305.600815 C720.635417,297.454175 685.875,301.690428 651.767361,302.016293 C633.979167,302.179226 616.517361,301.364562 599.21875,297.12831 C599.21875,296.965377 599.21875,296.802444 599.21875,296.639511 C598.402778,291.425662 595.138889,286.700611 590.569444,283.767821 C590.40625,283.767821 590.40625,283.604888 590.243056,283.604888 C591.875,269.755601 593.506944,255.743381 595.138889,241.894094 C595.302083,241.894094 595.465278,241.894094 595.465278,241.894094 C600.361111,242.057026 604.604167,239.124236 606.5625,234.725051 C606.5625,234.562118 606.725694,234.562118 606.725694,234.399185 C621.576389,237.983707 636.590278,239.287169 651.767361,239.287169 C651.767361,239.287169 651.767361,239.287169 651.767361,239.287169 C651.767361,239.287169 651.767361,239.287169 651.767361,239.287169 C688.322917,239.613035 725.53125,234.07332 761.107639,242.87169 C761.107639,243.034623 761.107639,243.197556 761.107639,243.197556 C761.923611,248.411405 765.1875,253.136456 769.756944,256.069246 C769.920139,256.069246 769.920139,256.232179 770.083333,256.232179 C768.614583,270.244399 766.982639,284.256619 765.350694,298.105906 Z" id="Shape" fill="#FFFFFF"></path>
                    <path d="M761.018349,243.194774 C725.744954,234.672209 688.838532,240.08076 652.585321,239.752969 C637.561468,239.589074 622.700917,238.441805 608.00367,235 C605.880734,239.425178 601.634862,242.375297 596.73578,242.375297 C595.102752,255.814727 593.633028,269.254157 592,282.693587 C596.572477,285.807601 600.001835,290.56057 600.818349,295.805226 C617.801835,299.902613 635.111927,300.72209 652.585321,300.558195 C686.552294,300.230404 721.009174,295.969121 753.99633,304 C756.119266,299.574822 760.365138,296.624703 765.26422,296.624703 C766.897248,283.185273 768.366972,269.745843 770,256.306413 C765.26422,253.356295 761.998165,248.43943 761.018349,243.194774 Z M629.069725,269.418052 C628.579817,274.007126 624.497248,277.285036 619.924771,276.793349 C615.352294,276.137767 612.249541,271.876485 612.73945,267.287411 C613.229358,262.698337 617.311927,259.748219 621.884404,260.4038 C626.293578,261.059382 629.559633,264.992874 629.069725,269.418052 Z M705.822018,268.926366 C704.188991,282.529691 691.777982,293.674584 677.897248,294.330166 C664.016514,294.985748 654.218349,284.004751 655.851376,270.401425 C657.484404,256.7981 669.895413,245.653207 683.776147,244.997625 C697.493578,244.505938 707.455046,255.32304 705.822018,268.926366 Z M749.097248,272.04038 C748.607339,276.629454 744.524771,279.579572 739.952294,278.92399 C735.379817,278.268409 732.113761,274.334917 732.766972,269.745843 C733.256881,265.15677 737.33945,261.87886 741.911927,262.370546 C746.484404,263.026128 749.750459,267.451306 749.097248,272.04038 Z" id="Shape" fill="#FFFFFF"></path>
                    <path d="M770.673617,255.608696 C766.104261,252.684211 762.840435,247.97254 762.024479,242.773455 C762.024479,242.610984 762.024479,242.448513 762.024479,242.448513 C726.448776,233.675057 689.24116,239.199085 652.68631,238.874142 C637.509519,238.71167 622.332729,237.574371 607.482321,234 C607.482321,234.162471 607.31913,234.162471 607.31913,234.324943 C605.360834,238.71167 601.11786,241.636156 596.222121,241.473684 C596.05893,241.473684 595.895739,241.473684 595.895739,241.473684 C594.263826,255.283753 592.631913,269.256293 591,283.066362 C591.163191,283.066362 591.163191,283.228833 591.326383,283.228833 C595.895739,286.153318 599.159565,290.864989 599.975521,296.064073 C599.975521,296.226545 599.975521,296.389016 599.975521,296.551487 C617.110607,300.775744 634.735267,301.750572 652.523119,301.425629 C686.6301,301.100686 721.226655,296.713959 754.517679,305 C754.517679,304.837529 754.68087,304.837529 754.68087,304.675057 C756.639166,300.28833 760.88214,297.363844 765.777879,297.526316 C765.94107,297.526316 766.104261,297.526316 766.104261,297.526316 C767.736174,283.716247 769.368087,269.743707 771,255.933638 C770.836809,255.771167 770.836809,255.608696 770.673617,255.608696 Z M765.125113,296.226545 C760.229374,296.226545 755.986401,299.15103 753.864914,303.537757 C720.900272,295.576659 686.466908,299.800915 652.523119,300.125858 C635.06165,300.28833 617.763373,299.475973 600.954669,295.414188 C599.975521,290.215103 596.711695,285.503432 592.142339,282.416476 C593.774252,269.093822 595.242974,255.771167 596.874887,242.448513 C601.770626,242.448513 606.013599,239.524027 608.135086,235.1373 C622.659112,238.71167 637.672711,239.84897 652.523119,239.84897 C652.523119,239.84897 652.523119,239.84897 652.523119,239.84897 C652.523119,239.84897 652.523119,239.84897 652.523119,239.84897 C688.751587,240.173913 725.63282,234.649886 760.88214,243.26087 C761.861287,248.459954 765.125113,253.171625 769.69447,256.258581 C768.225748,269.581236 766.757026,282.90389 765.125113,296.226545 Z" id="Shape" fill="#EC2227"></path>
                    <path d="M682.92068,245.016003 C669.128582,245.66674 656.796823,256.729277 655.174224,270.23208 C653.551624,283.734882 663.449482,294.47205 677.07932,293.983997 C690.871418,293.33326 703.203177,282.270723 704.825776,268.76792 C706.448376,255.265118 696.550518,244.52795 682.92068,245.016003 Z" id="Shape" fill="#EC2227"></path>
                    <path d="M739.044779,278.915733 C743.497655,279.549261 747.473437,276.540006 747.95053,272.263696 C748.427624,267.829005 745.40603,263.711077 740.953154,263.07755 C736.500279,262.444023 732.524497,265.770041 732.047403,270.204732 C731.570309,274.481042 734.750935,278.282206 739.044779,278.915733 Z" id="Shape" fill="#EC2227"></path>
                    <path d="M772,482.916667 C791.747774,490.277778 811.658754,497.638889 831.406528,505 C862.578635,464.595679 850.827893,408.487654 882,368.083333 C862.252226,360.722222 842.341246,353.361111 822.593472,346 C791.421365,386.404321 803.172107,442.675926 772,482.916667 Z M832.059347,355.814815 C843.15727,359.904321 854.255193,363.993827 865.353116,368.246914 C862.74184,372.009259 864.537092,376.589506 868.617211,378.061728 C849.35905,412.904321 852.78635,456.253086 833.691395,491.095679 C829.448071,489.459877 824.388724,491.58642 821.777448,495.348765 C810.679525,491.259259 799.581602,487.169753 788.48368,482.916667 C791.094955,479.154321 789.299703,474.574074 785.219585,473.101852 C804.477745,438.259259 801.050445,394.910494 820.145401,360.067901 C824.388724,361.540123 829.611276,359.57716 832.059347,355.814815 Z" id="Shape" fill="#EC2227"></path>
                    <path d="M793.259912,481.656716 C802.550661,485.104478 811.678414,488.552239 820.969163,492 C823.903084,489.208955 827.977974,487.731343 831.889868,487.895522 C849.004405,454.238806 846.885463,413.358209 864,379.701493 C861.229075,377.402985 859.762115,373.791045 860.740088,370.343284 C851.449339,366.895522 842.321586,363.447761 833.030837,360 C830.096916,362.791045 826.022026,364.268657 822.110132,364.104478 C804.995595,397.761194 807.114537,438.641791 790,472.298507 C792.770925,474.597015 794.07489,478.208955 793.259912,481.656716 Z M821.621145,470.985075 C820.480176,474.104478 816.731278,475.58209 813.634361,474.432836 C810.537445,473.283582 809.070485,469.835821 810.211454,466.716418 C811.352423,463.597015 814.77533,461.955224 817.872247,463.104478 C820.969163,464.41791 822.762115,467.865672 821.621145,470.985075 Z M832.378855,381.179104 C833.519824,378.059701 837.268722,376.58209 840.365639,377.731343 C843.462555,378.880597 844.929515,382.328358 843.788546,385.447761 C842.647577,388.567164 839.22467,390.208955 836.127753,389.059701 C832.867841,387.746269 831.237885,384.298507 832.378855,381.179104 Z M810.048458,419.761194 C812.004405,409.746269 821.45815,404.656716 830.748899,408.104478 C840.039648,411.552239 845.907489,422.38806 843.951542,432.402985 C841.995595,442.41791 832.54185,447.507463 823.251101,444.059701 C813.797357,440.61194 808.092511,429.776119 810.048458,419.761194 Z" id="Shape" fill="#FFFFFF"></path>
                    <path d="M785,473.678781 C789.223092,475.320047 790.847358,479.751465 788.248532,483.526377 C799.293542,487.629543 810.338552,491.732708 821.383562,496 C823.982387,492.225088 829.017613,490.255569 833.240705,491.732708 C852.407045,456.77374 848.996086,413.280188 868,378.321219 C863.776908,376.84408 862.152642,372.248535 864.751468,368.473623 C853.706458,364.370457 842.661448,360.267292 831.616438,356 C829.017613,359.774912 823.982387,361.744431 819.759295,360.267292 C800.755382,395.22626 804.166341,438.719812 785,473.678781 Z M821.545988,363.385698 C825.2818,363.713951 829.342466,362.072685 832.103718,359.446659 C832.103718,359.446659 832.266145,359.282532 832.266145,359.282532 C841.849315,362.893318 851.432485,366.504103 861.015656,370.114889 C861.015656,370.279015 861.015656,370.279015 861.015656,370.443142 C860.041096,373.889801 861.340509,377.33646 864.264188,379.634232 C864.264188,379.634232 864.426614,379.798359 864.426614,379.798359 C846.88454,413.608441 849.320939,454.968347 831.941292,488.942556 C831.778865,488.942556 831.778865,488.942556 831.616438,488.942556 C827.880626,488.614302 823.819961,490.255569 821.058708,492.881594 C821.058708,492.881594 820.896282,493.045721 820.896282,493.045721 C811.313112,489.434936 801.729941,485.82415 792.146771,482.213365 C792.146771,482.049238 792.146771,482.049238 792.146771,481.885111 C793.121331,478.438453 791.821918,474.827667 788.898239,472.694021 C788.898239,472.694021 788.735812,472.529894 788.735812,472.529894 C806.277886,438.719812 803.841487,397.359906 821.221135,363.385698 C821.383562,363.385698 821.383562,363.385698 821.545988,363.385698 Z" id="Shape" fill="#FFFFFF"></path>
                    <path d="M789.16309,472.61227 C791.935622,474.749693 793.403433,478.366871 792.424893,481.819632 C792.424893,481.984049 792.424893,481.984049 792.424893,482.148466 C802.04721,485.765644 811.669528,489.382822 821.291845,493 C821.291845,493 821.454936,492.835583 821.454936,492.835583 C824.390558,490.040491 828.304721,488.560736 832.055794,488.889571 C832.218884,488.889571 832.218884,488.889571 832.381974,488.889571 C849.995708,455.019632 847.549356,413.586503 865,379.552147 C865,379.552147 864.83691,379.38773 864.83691,379.38773 C862.064378,377.250307 860.596567,373.633129 861.575107,370.180368 C861.575107,370.015951 861.575107,370.015951 861.575107,369.851534 C851.95279,366.234356 842.330472,362.617178 832.708155,359 C832.708155,359 832.545064,359.164417 832.545064,359.164417 C829.609442,361.959509 825.695279,363.439264 821.944206,363.110429 C821.781116,363.110429 821.781116,363.110429 821.618026,363.110429 C804.004292,396.980368 806.450644,438.413497 789,472.447853 C789,472.447853 789.16309,472.447853 789.16309,472.61227 Z M822.107296,363.768098 C826.021459,363.932515 829.935622,362.452761 833.034335,359.657669 C842.330472,363.110429 851.463519,366.56319 860.759657,370.015951 C859.944206,373.468712 861.248927,377.08589 864.021459,379.38773 C846.896996,413.093252 849.017167,454.033129 831.892704,487.73865 C827.978541,487.574233 824.064378,489.053988 820.965665,491.84908 C811.669528,488.396319 802.536481,484.943558 793.240343,481.490798 C794.055794,478.038037 792.751073,474.420859 789.978541,472.119018 C807.103004,438.413497 804.982833,397.47362 822.107296,363.768098 Z" id="Shape" fill="#EC2227"></path>
                    <path d="M822.715342,442.926936 C832.094712,446.364979 841.638634,441.289773 843.613238,431.303078 C845.587842,421.316383 839.82858,410.511106 830.284658,407.073064 C820.905288,403.635021 811.361366,408.710227 809.386762,418.696922 C807.412158,428.683617 813.17142,439.488894 822.715342,442.926936 Z" id="Shape" fill="#EC2227"></path>
                    <path d="M834.999136,388.635243 C838.070826,389.776531 841.465851,388.14612 842.597526,385.048341 C843.729201,381.950561 842.435858,378.526699 839.202501,377.385412 C836.130811,376.244125 832.574118,377.711494 831.280775,380.809274 C830.310768,384.070094 831.927446,387.493956 834.999136,388.635243 Z" id="Shape" fill="#EC2227"></path>
                    <path d="M816.959564,462.364757 C813.90373,461.223469 810.52623,462.85388 809.400396,465.951659 C808.274563,469.049439 809.56123,472.473301 812.777897,473.614588 C815.833731,474.755875 819.372064,473.288506 820.658731,470.190726 C821.784565,467.092947 820.015398,463.669085 816.959564,462.364757 Z" id="Shape" fill="#EC2227"></path>
                    <path d="M689,458.082237 C677.445963,447.28125 664.752795,438.935033 651.408696,432.061678 C593.313043,402.277138 522.036025,400.804276 471.914286,354 C456.942857,385.584704 441.971429,417.333059 427,448.917763 C488.513043,506.359375 582.572671,495.558388 644.085714,553 C646.526708,547.763158 648.967702,542.689967 651.408696,537.453125 L651.408696,537.289474 C663.93913,510.941612 676.469565,484.430099 689,458.082237 Z M629.765217,529.597862 C575.412422,492.612664 503.972671,491.958059 449.619876,454.972862 C452.874534,448.263158 450.270807,439.425987 444.412422,434.680099 C452.874534,417.005757 461.173913,399.167763 469.636025,381.493421 C475.49441,386.239309 483.142857,384.275493 486.397516,377.565789 C535.868323,411.114309 599.496894,414.878289 651.408696,443.026316 C656.616149,445.808388 661.498137,448.754112 666.380124,452.190789 C663.125466,458.900493 665.729193,467.737664 671.587578,472.483553 C664.915528,486.721217 658.080745,500.958882 651.408696,515.196546 L651.408696,515.360197 C649.781366,518.796875 648.154037,522.233553 646.526708,525.833882 C640.668323,520.760691 633.019876,522.888158 629.765217,529.597862 Z" id="Shape" fill="#EC2227"></path>
                    <path d="M673,472.89774 C667.120344,468.152853 664.670487,459.317546 667.773639,452.609257 C662.873926,449.336921 657.810888,446.228202 652.747851,443.446717 C600.484241,415.304629 536.624642,411.541442 487.137536,378 C484.034384,384.708288 476.358166,386.835307 470.315186,381.926803 C461.82235,399.597417 453.492837,417.431647 445,435.10226 C450.879656,439.847147 453.329513,448.682454 450.226361,455.390743 C504.776504,492.368138 576.475645,493.022605 631.025788,530 C634.12894,523.291712 641.805158,521.164693 647.848138,526.073197 C649.481375,522.637244 651.114613,519.037675 652.911175,515.601722 L652.911175,515.438105 C659.60745,501.367061 666.303725,487.1324 673,472.89774 Z M645.888252,519.692142 C645.724928,519.692142 645.561605,519.528525 645.398281,519.528525 C639.845272,517.401507 633.965616,519.037675 629.882521,523.455328 C629.719198,523.618945 629.719198,523.618945 629.555874,523.782562 C576.638968,489.750269 508.369628,487.623251 455.452722,453.590958 C455.452722,453.427341 455.452722,453.263724 455.616046,453.100108 C456.759312,446.88267 454.799427,440.010764 450.716332,434.938644 C450.553009,434.775027 450.553009,434.61141 450.389685,434.61141 C457.739255,419.231432 465.088825,403.851453 472.275072,388.471475 C472.438395,388.471475 472.601719,388.635091 472.765043,388.635091 C478.318052,390.76211 484.197708,389.125942 488.280802,384.708288 C488.444126,384.544672 488.444126,384.544672 488.60745,384.381055 C538.25788,416.286329 601.464183,420.213132 652.911175,448.682454 C656.17765,450.482239 659.60745,452.44564 662.710602,454.572659 C662.710602,454.736276 662.710602,454.899892 662.547278,455.063509 C661.404011,461.280947 663.363897,468.152853 667.446991,473.224973 C667.610315,473.38859 667.610315,473.552207 667.773639,473.715823 C662.710602,484.187298 657.810888,494.658773 652.747851,505.293864 L652.747851,505.457481 C650.461318,510.202368 648.174785,514.947255 645.888252,519.692142 Z" id="Shape" fill="#FFFFFF"></path>
                    <path d="M667,473.71831 C666.836965,473.553991 666.836965,473.389671 666.673929,473.225352 C662.598047,468.131455 660.641623,461.230047 661.78287,454.985915 C661.78287,454.821596 661.78287,454.657277 661.945905,454.492958 C658.685199,452.356808 655.424493,450.549296 652.163787,448.577465 C600.807663,419.821596 537.876033,416.042254 488.150263,384 C487.987228,384.164319 487.987228,384.164319 487.824192,384.328638 C483.911345,388.765258 477.879038,390.408451 472.335838,388.2723 C472.172802,388.2723 472.009767,388.107981 471.846732,388.107981 C464.510143,403.553991 457.173554,419 450,434.446009 C450.163035,434.610329 450.163035,434.774648 450.326071,434.774648 C454.401953,440.032864 456.358377,446.769953 455.21713,453.014085 C455.21713,453.178404 455.21713,453.342723 455.054095,453.507042 C507.877536,487.685446 576.026296,489.821596 628.849737,524 C629.012772,523.835681 629.012772,523.835681 629.175808,523.671362 C633.088655,519.234742 639.120962,517.591549 644.664162,519.7277 C644.827198,519.7277 644.990233,519.892019 645.153268,519.892019 C647.435763,514.962441 649.718257,510.197183 652.000751,505.267606 L652.000751,505.103286 C657.054846,494.586854 661.945905,484.234742 667,473.71831 Z M644.501127,518.248826 C638.957926,516.276995 632.762585,518.084507 628.686702,522.356808 C576.189331,488.835681 509.018783,486.370892 456.521412,452.849765 C457.499624,446.441315 455.543201,439.539906 451.467318,434.28169 C458.477836,419.492958 465.488355,404.539906 472.498873,389.751174 C478.205109,391.723005 484.237415,389.915493 488.313298,385.643192 C538.039068,417.356808 600.970699,421.300469 652.000751,450.056338 C654.935387,451.699531 657.706987,453.342723 660.478588,455.150235 C659.500376,461.558685 661.456799,468.460094 665.532682,473.71831 C660.967693,483.248826 656.56574,492.779343 652.000751,502.309859 L652.000751,502.474178 C649.555222,507.732394 646.946657,512.99061 644.501127,518.248826 Z" id="Shape" fill="#EC2227"></path>
                    <path d="M1229,300.707634 C1253.13607,311.624767 1278.40605,313.417132 1303.83801,312.928305 L1303.83801,305.107076 C1285.04752,305.270018 1266.25702,304.292364 1248.11447,299.404096 C1248.76242,293.375232 1244.55076,287.183426 1238.71922,285.065176 C1240.66307,269.096834 1242.44492,252.965549 1244.38877,236.997207 C1250.2203,239.115456 1255.56587,235.530726 1256.37581,229.501862 C1271.92657,233.738361 1287.8013,235.041899 1304,235.204842 L1304,227.383613 C1281.96976,227.057728 1260.10151,224.450652 1239.20518,215 C1235.64147,243.514897 1232.23974,272.192737 1229,300.707634 Z" id="Shape" fill="#EC2227"></path>
                    <path d="M1244.73201,237.675991 C1242.76675,253.68125 1240.96526,269.849827 1239,285.855086 C1244.89578,287.978232 1249.15385,294.184353 1248.49876,300.227154 C1266.84119,305.290042 1285.83871,306.269956 1304.83623,305.943318 L1304.83623,302.350301 C1286.98511,302.51362 1269.29777,301.697025 1252.10174,297.450732 C1252.10174,297.287413 1252.10174,297.124094 1252.10174,296.960775 C1251.28288,291.734568 1248.00744,286.998318 1243.42184,284.058577 C1243.25806,284.058577 1243.25806,283.895258 1243.09429,283.895258 C1244.73201,270.013146 1246.36973,255.967715 1248.00744,242.085603 C1248.17122,242.085603 1248.33499,242.085603 1248.33499,242.085603 C1253.24814,242.248922 1257.5062,239.309181 1259.47146,234.899569 C1259.47146,234.73625 1259.63524,234.73625 1259.63524,234.572931 C1274.53846,238.329267 1289.60546,239.4725 1305,239.4725 L1305,235.716164 C1288.7866,235.552845 1272.73697,234.246293 1256.85112,230 C1256.03226,236.042802 1250.62779,239.799138 1244.73201,237.675991 Z" id="Shape" fill="#FFFFFF"></path>
                    <path d="M1248.69003,242.454168 C1247.07278,255.742032 1245.61725,269.029896 1244,282.31776 C1248.5283,285.396655 1251.92453,290.096022 1252.73315,295.281529 C1269.55256,299.332707 1286.69542,300.142943 1304,299.980896 L1304,239.699367 C1289.12129,239.537319 1274.40431,238.40299 1259.84906,235 C1257.90836,239.537319 1253.54178,242.454168 1248.69003,242.454168 Z M1264.53908,266.923283 C1265.02426,262.385964 1269.06739,259.469115 1273.59569,260.117304 C1278.12399,260.765492 1281.35849,264.654623 1280.71159,269.191943 C1280.22642,273.729262 1276.18329,276.970205 1271.65499,276.484063 C1267.12668,275.835875 1264.05391,271.460602 1264.53908,266.923283 Z" id="Shape" fill="#FFFFFF"></path>
                    <path d="M1258.18037,234.121346 C1256.23873,238.48981 1252.03183,241.40212 1247.17772,241.240325 C1247.01592,241.240325 1246.85411,241.240325 1246.85411,241.240325 C1245.23607,254.992897 1243.61804,268.907264 1242,282.659837 C1242.1618,282.659837 1242.1618,282.821632 1242.32361,282.821632 C1246.85411,285.733941 1250.09019,290.425995 1250.8992,295.603434 C1250.8992,295.765229 1250.8992,295.927024 1250.8992,296.088819 C1267.88859,300.295488 1285.3634,301.266258 1303,300.942668 L1303,299.971898 C1285.687,300.133693 1268.53581,299.324718 1251.70822,295.279844 C1250.7374,290.102405 1247.50133,285.410351 1242.97082,282.336247 C1244.58886,269.069059 1246.04509,255.801872 1247.66313,242.534685 C1252.51724,242.534685 1256.72414,239.622375 1258.82759,235.253911 C1273.38992,238.8134 1288.11406,239.945965 1303,239.945965 L1303,238.975195 C1287.95225,238.8134 1272.90451,237.680836 1258.18037,234.121346 C1258.34218,233.959551 1258.34218,233.959551 1258.18037,234.121346 Z" id="Shape" fill="#EC2227"></path>
                    <path d="M1271.04685,276.918411 C1275.49972,277.584936 1279.4755,274.08568 1279.9526,269.420005 C1280.42969,264.75433 1277.24907,260.755181 1272.95522,260.088656 C1268.50235,259.422131 1264.52656,262.588124 1264.04947,267.087168 C1263.57238,271.919474 1266.59397,276.418517 1271.04685,276.918411 Z" id="Shape" fill="#EC2227"></path>
                    <path d="M1079,449.003287 C1140.67513,506.397699 1234.9826,495.605588 1296.65772,553 C1299.10515,547.767461 1301.55257,542.698439 1304,537.4659 L1304,515.064092 C1302.36838,518.497946 1300.73677,522.095316 1298.94199,525.52917 C1293.06817,520.787182 1285.39956,522.749384 1282.13633,529.453574 C1227.64032,492.498767 1156.01233,491.8447 1101.51632,454.889893 C1104.77955,448.185703 1102.16896,439.355793 1096.29514,434.613804 C1104.77955,416.953985 1113.1008,399.130649 1121.58521,381.47083 C1127.45903,386.212818 1135.12763,384.250616 1138.39086,377.546426 C1187.99202,411.067379 1251.78825,414.828266 1303.83684,442.953164 L1303.83684,431.997535 C1245.58811,402.237469 1174.12328,400.765818 1123.86947,354 C1109.02175,385.885785 1094.01088,417.444536 1079,449.003287 Z" id="Shape" fill="#EC2227"></path>
                    <path d="M1124.97561,390.116587 C1117.98374,404.936298 1110.99187,419.920673 1104,434.740385 C1108.06504,440.174279 1110.01626,446.925481 1109.04065,453.347356 C1161.39837,486.938702 1228.39024,489.408654 1280.74797,523 C1284.81301,518.554087 1290.82927,516.907452 1296.52033,518.883413 C1298.95935,513.614183 1301.56098,508.180288 1304,502.911058 L1304,450.548077 C1252.94309,421.731971 1190.34146,417.780048 1140.74797,386 C1136.52033,390.28125 1130.50407,392.092548 1124.97561,390.116587 Z M1270.01626,475.082933 C1272.45528,470.143029 1278.30894,467.83774 1283.34959,470.307692 C1288.22764,472.777644 1290.17886,479.034856 1287.90244,484.139423 C1285.46341,489.24399 1279.77236,491.055288 1274.73171,488.585337 C1269.85366,485.950721 1267.57724,480.1875 1270.01626,475.082933 Z M1181.88618,445.608173 C1188.87805,430.623798 1207.57724,422.555288 1223.5122,427.330529 C1239.44715,432.105769 1246.60163,448.572115 1239.44715,463.55649 C1232.45528,478.540865 1213.7561,486.609375 1197.82114,481.834135 C1181.88618,477.058894 1174.73171,460.592548 1181.88618,445.608173 Z M1146.76423,420.579327 C1151.64228,423.049279 1153.9187,428.977163 1151.47967,433.917067 C1149.04065,438.856971 1143.18699,441.16226 1138.14634,438.692308 C1133.26829,436.222356 1131.31707,429.965144 1133.5935,424.860577 C1136.03252,419.920673 1141.72358,418.109375 1146.76423,420.579327 Z" id="Shape" fill="#FFFFFF"></path>
                    <path d="M1122.30612,381.767241 C1113.81633,399.456897 1105.4898,417.310345 1097,435 C1102.87755,439.75 1105.32653,448.594828 1102.22449,455.310345 C1156.7551,492.327586 1228.42857,492.982759 1282.95918,530 C1286.06122,523.284483 1293.73469,521.155172 1299.77551,526.068966 C1301.40816,522.62931 1303.04082,519.025862 1304.83673,515.586207 L1304.83673,505.103448 C1302.55102,510.017241 1300.26531,514.767241 1297.97959,519.681034 C1297.81633,519.681034 1297.65306,519.517241 1297.4898,519.517241 C1291.93878,517.387931 1286.06122,519.025862 1281.97959,523.448276 C1281.81633,523.612069 1281.81633,523.612069 1281.65306,523.775862 C1228.7551,489.706897 1160.5102,487.577586 1107.61224,453.508621 C1107.61224,453.344828 1107.61224,453.181034 1107.77551,453.017241 C1108.91837,446.793103 1106.95918,439.913793 1102.87755,434.836207 C1102.71429,434.672414 1102.71429,434.508621 1102.55102,434.508621 C1109.89796,419.112069 1117.2449,403.715517 1124.42857,388.318966 C1124.59184,388.318966 1124.7551,388.482759 1124.91837,388.482759 C1130.46939,390.612069 1136.34694,388.974138 1140.42857,384.551724 C1140.59184,384.387931 1140.59184,384.387931 1140.7551,384.224138 C1190.55102,416.327586 1253.57143,420.094828 1305,448.594828 L1305,443.517241 C1252.7551,415.344828 1188.91837,411.577586 1139.44898,378 C1135.85714,384.387931 1128.18367,386.517241 1122.30612,381.767241 Z" id="Shape" fill="#FFFFFF"></path>
                    <path d="M1139.82405,384.328638 C1135.91122,388.765258 1129.87893,390.408451 1124.33575,388.2723 C1124.17272,388.2723 1124.00969,388.107981 1123.84665,388.107981 C1116.51009,403.553991 1109.17353,419 1102,434.446009 C1102.16303,434.610329 1102.16303,434.774648 1102.32607,434.774648 C1106.40194,440.032864 1108.35835,446.769953 1107.21711,453.014085 C1107.21711,453.178404 1107.21711,453.342723 1107.05408,453.507042 C1159.87732,487.685446 1228.02583,489.821596 1280.84907,524 C1281.01211,523.835681 1281.01211,523.835681 1281.17514,523.671362 C1285.08797,519.234742 1291.12026,517.591549 1296.66344,519.7277 C1296.82647,519.7277 1296.98951,519.892019 1297.15254,519.892019 C1299.43503,514.962441 1301.71751,510.197183 1304,505.267606 L1304,502.309859 C1301.55448,507.568075 1298.94592,512.99061 1296.5004,518.248826 C1290.95722,516.276995 1284.7619,518.084507 1280.68604,522.356808 C1228.18886,488.835681 1161.01856,486.370892 1108.52139,452.849765 C1109.4996,446.441315 1107.54318,439.539906 1103.46731,434.28169 C1110.4778,419.492958 1117.4883,404.539906 1124.49879,389.751174 C1130.205,391.723005 1136.23729,389.915493 1140.31316,385.643192 C1190.03874,417.356808 1252.97014,421.300469 1304,450.056338 L1304,448.577465 C1252.64407,419.821596 1189.71267,416.042254 1139.98709,384 C1139.98709,384 1139.98709,384.164319 1139.82405,384.328638 Z" id="Shape" fill="#EC2227"></path>
                    <path d="M1197.67757,480.633627 C1213.58388,485.38816 1232.24944,477.354639 1239.22874,462.435243 C1246.37035,447.351897 1239.22874,431.120906 1223.32243,426.366373 C1207.41612,421.61184 1188.75056,429.645361 1181.77126,444.564757 C1174.62965,459.484153 1181.77126,475.879094 1197.67757,480.633627 Z" id="Shape" fill="#EC2227"></path>
                    <path d="M1274.73335,486.926164 C1279.6384,489.351227 1285.52447,487.572848 1287.97699,482.561051 C1290.42952,477.710925 1288.30399,471.405761 1283.39894,468.980698 C1278.49389,466.555635 1272.44433,468.819027 1269.9918,473.669153 C1267.53928,478.842621 1269.8283,484.501101 1274.73335,486.926164 Z" id="Shape" fill="#EC2227"></path>
                    <path d="M1133.02301,424.399111 C1130.57048,429.262506 1132.69601,435.584921 1137.60106,438.016619 C1142.50611,440.448317 1148.55567,438.178732 1151.0082,433.315336 C1153.46072,428.289827 1151.1717,422.615866 1146.26665,420.184168 C1141.19809,417.590357 1135.47553,419.373602 1133.02301,424.399111 Z" id="Shape" fill="#EC2227"></path>
                    <path d="M961.976261,504 C940.596439,518.723727 919.379822,533.447454 898,548.007584 C911.709199,592.505959 950.878338,619.499458 977.643917,655 L986.456973,655 C963.118694,622.11701 928.192878,597.086674 910.240356,560.277356 C914.810089,557.169014 916.442136,550.625135 914.320475,545.390033 C926.234421,537.210184 938.311573,528.866739 950.225519,520.686891 C952.183976,525.921993 957.896142,527.394366 962.465875,524.286024 C983.682493,568.130011 1029.37982,595.287107 1050.75964,639.294691 C1046.18991,642.403034 1044.55786,648.946912 1046.67953,654.182015 C1046.35312,654.509209 1045.8635,654.672806 1045.37389,655 L1057.94065,655 C1059.5727,653.854821 1061.36795,652.709642 1063,651.564464 C1044.72107,591.687974 980.255193,563.712893 961.976261,504 Z" id="Shape" fill="#EC2227"></path>
                    <path d="M1046,638.381378 C1024.60553,597.246173 982.306533,570.590561 961.075377,529.290816 C956.829146,530.607143 952.256281,529.455357 949.479899,526 C939.517588,532.910714 929.555276,539.821429 919.592965,546.732143 C920.246231,551.668367 918.939698,556.769133 916,560.553571 C934.781407,596.58801 969.567839,621.598214 992.268844,655 L1038.48744,655 C1039.79397,654.012755 1041.26382,653.02551 1042.57035,652.202806 C1041.75377,647.266582 1043.0603,642.165816 1046,638.381378 Z M950.296482,564.173469 C946.866834,566.477041 942.29397,565.654337 940.007538,562.36352 C937.721106,558.908163 938.701005,554.13648 942.130653,551.832908 C945.560302,549.529337 949.969849,550.516582 952.256281,553.971939 C954.379397,557.262755 953.726131,561.869898 950.296482,564.173469 Z M996.188442,616.168367 C986.062814,623.079082 971.201005,621.269133 962.708543,612.219388 C954.21608,603.169643 955.68593,590.006378 965.811558,582.931122 C975.937186,576.020408 990.798995,577.830357 999.291457,586.880102 C1007.78392,595.929847 1006.31407,609.093112 996.188442,616.168367 Z M1019.70603,647.431122 C1016.27638,649.734694 1011.86683,648.747449 1009.5804,645.292092 C1007.29397,641.836735 1008.11055,637.229592 1011.37688,634.92602 C1014.80653,632.622449 1019.3794,633.445153 1021.66583,636.735969 C1024.11558,640.355867 1023.13568,645.127551 1019.70603,647.431122 Z" id="Shape" fill="#FFFFFF"></path>
                    <path d="M1050,639.214373 C1028.86179,595.146163 983.333333,567.850183 962.03252,523.61754 C957.479675,526.741778 951.95122,525.261876 949.837398,520 C937.96748,528.221681 925.934959,536.607795 914.065041,544.829476 C916.01626,550.091352 914.390244,556.668697 910,559.792935 C927.723577,596.790499 962.520325,621.948843 985.934959,655 L990,655 C967.235772,621.784409 932.601626,596.790499 914.065041,560.45067 C914.065041,560.286236 914.227642,560.286236 914.227642,560.121803 C917.154472,556.504263 918.455285,551.406821 917.804878,546.638246 C917.804878,546.473812 917.804878,546.309379 917.804878,546.309379 C928.211382,539.0743 938.455285,532.003654 948.861789,524.768575 C948.861789,524.933009 949.02439,524.933009 949.02439,525.097442 C951.788618,528.550548 956.178862,529.701583 960.406504,528.386114 C960.569106,528.386114 960.569106,528.386114 960.731707,528.221681 C982.03252,569.98782 1024.79675,596.790499 1046.09756,638.392205 C1046.09756,638.556638 1045.93496,638.556638 1045.93496,638.721072 C1043.00813,642.338611 1041.70732,647.436054 1042.35772,652.204629 C1042.35772,652.369062 1042.35772,652.533496 1042.35772,652.533496 C1041.21951,653.355664 1040.0813,654.177832 1038.94309,654.835566 L1044.79675,654.835566 C1045.28455,654.506699 1045.60976,654.342266 1046.09756,654.013398 C1043.82114,648.915956 1045.44715,642.503045 1050,639.214373 Z" id="Shape" fill="#FFFFFF"></path>
                    <path d="M1042.26108,652.209596 C1041.61084,647.449495 1042.91133,642.19697 1045.83744,638.75 C1045.83744,638.585859 1046,638.585859 1046,638.421717 C1024.70443,596.729798 981.950739,569.974747 960.655172,528.44697 C960.492611,528.44697 960.492611,528.44697 960.330049,528.611111 C956.26601,529.924242 951.714286,528.775253 948.950739,525.328283 C948.950739,525.164141 948.788177,525.164141 948.788177,525 C938.384236,532.222222 928.142857,539.280303 917.738916,546.502525 C917.738916,546.666667 917.738916,546.830808 917.738916,546.830808 C918.389163,551.590909 917.08867,556.843434 914.162562,560.290404 C914.162562,560.454545 914,560.454545 914,560.618687 C932.53202,596.729798 967.157635,621.679293 989.916256,655 L991.054187,655 C968.458128,621.679293 933.832512,596.729798 915.137931,560.782828 C918.064039,557.007576 919.364532,551.919192 918.714286,546.994949 C928.630542,540.10101 938.546798,533.207071 948.463054,526.313131 C951.389163,529.59596 955.778325,530.744949 960.004926,529.59596 C981.300493,570.631313 1023.40394,597.222222 1044.53695,638.421717 C1041.61084,642.19697 1040.31034,647.285354 1040.96059,652.209596 C1039.6601,653.194444 1038.19704,654.179293 1036.89655,655 L1038.52217,655 C1039.6601,654.179293 1040.79803,653.358586 1041.93596,652.70202 C1042.26108,652.537879 1042.26108,652.373737 1042.26108,652.209596 Z" id="Shape" fill="#EC2227"></path>
                    <path d="M965.701106,584.244688 C955.501843,591.190245 954.021305,604.112212 962.575525,612.996064 C971.129746,621.879916 986.264136,623.656687 996.298894,616.872654 C1006.49816,609.927097 1007.9787,597.00513 999.424475,588.121278 C990.870254,579.075901 975.900369,577.299131 965.701106,584.244688 Z" id="Shape" fill="#EC2227"></path>
                    <path d="M941.437368,553.25367 C937.929818,555.554001 936.927661,560.318972 939.266028,563.769468 C941.604395,567.219964 946.448154,568.041511 949.788678,565.576871 C953.296229,563.27654 953.964333,558.675878 951.625967,555.225382 C949.2876,551.939195 944.777892,550.953339 941.437368,553.25367 Z" id="Shape" fill="#EC2227"></path>
                    <path d="M1011.17596,635.399849 C1007.70703,637.677936 1007.04629,642.234111 1009.3589,645.651242 C1011.67152,649.068373 1016.13156,650.044696 1019.60049,647.766608 C1023.06941,645.488521 1024.06053,640.769626 1021.74791,637.352495 C1019.27011,633.772644 1014.47969,632.959041 1011.17596,635.399849 Z" id="Shape" fill="#EC2227"></path>
                    <path d="M1293.11624,1 C1264.52608,30.1431373 1234.79881,57.8127451 1195,71.8931373 C1218.87928,103.983333 1242.59613,135.909804 1266.47541,168 C1279.95827,163.251961 1292.30402,156.866667 1304,149.335294 L1304,136.073529 C1297.82712,140.494118 1291.32936,144.423529 1284.50671,148.189216 C1279.47094,141.312745 1269.3994,139.348039 1261.43964,142.786275 C1248.11923,124.776471 1234.79881,106.930392 1221.31595,88.9205882 C1229.27571,85.4823529 1231.22504,76.6411765 1226.18927,69.7647059 C1256.07899,53.5558824 1280.28316,29.8156863 1304,5.42058824 L1304,1 L1293.11624,1 Z" id="Shape" fill="#EC2227"></path>
                    <path d="M1235.20843,71.8117647 C1237.31264,78.4 1235.85588,85.4823529 1231,90.0941176 C1242.16851,105.082353 1253.17517,120.235294 1264.34368,135.223529 C1271.78936,133.905882 1279.72062,135.552941 1285.54767,140 C1291.86031,136.211765 1298.01109,132.094118 1304,127.811765 L1304,14 C1282.79601,35.5764706 1261.10643,56.4941176 1235.20843,71.8117647 Z M1286.19512,102.282353 C1281.17738,106.070588 1273.89357,104.752941 1270.17073,99.6470588 C1266.44789,94.5411765 1267.58093,87.6235294 1272.76053,83.8352941 C1277.77827,80.0470588 1284.73836,81.0352941 1288.4612,86.1411765 C1292.18404,91.2470588 1291.21286,98.6588235 1286.19512,102.282353 Z" id="Shape" fill="#FFFFFF"></path>
                    <path d="M1225.89194,69.2678161 C1230.94695,76.0068966 1228.99018,85.0471264 1221,88.4988506 C1234.37132,106.57931 1247.74263,124.495402 1261.27701,142.575862 C1269.26719,139.124138 1279.37721,141.26092 1284.43222,148 C1291.28094,144.383908 1297.64047,140.274713 1304,135.836782 L1304,129.590805 C1297.9666,133.864368 1291.77014,137.973563 1285.41061,141.754023 C1285.24754,141.589655 1285.08448,141.589655 1284.92141,141.425287 C1279.21415,136.987356 1271.38703,135.343678 1264.04912,136.658621 C1263.88605,136.658621 1263.72299,136.658621 1263.39686,136.822989 C1251.81925,121.208046 1240.24165,105.593103 1228.50098,89.9781609 C1228.66405,89.8137931 1228.82711,89.8137931 1228.82711,89.6494253 C1233.88212,85.2114943 1235.34971,78.1436782 1233.0668,71.8977011 C1233.0668,71.7333333 1232.90373,71.5689655 1232.90373,71.4045977 C1259.80943,55.954023 1282.14931,34.5862069 1304,12.2321839 L1304,5 C1280.19253,29.3264368 1255.89587,52.9954023 1225.89194,69.2678161 Z" id="Shape" fill="#FFFFFF"></path>
                    <path d="M1233.37365,71.4803549 C1233.37365,71.6451204 1233.53564,71.8098859 1233.53564,71.9746515 C1235.80346,78.400507 1234.34557,85.3206591 1229.32397,89.7693283 C1229.16199,89.9340938 1229,89.9340938 1229,90.0988593 C1240.50108,105.751584 1252.00216,121.404309 1263.66523,137.057034 C1263.82721,137.057034 1263.9892,137.057034 1264.31317,136.892269 C1271.60259,135.574144 1279.37797,137.2218 1285.04752,141.670469 C1285.2095,141.835234 1285.37149,141.835234 1285.53348,142 C1292.01296,138.210393 1298.16847,134.25602 1304,129.807351 L1304,127.99493 C1298.00648,132.443599 1291.85097,136.397972 1285.53348,140.187579 C1279.70194,135.73891 1271.76458,134.25602 1264.31317,135.409379 C1253.13607,120.415716 1242.12095,105.257288 1230.94384,90.2636248 C1235.80346,85.4854246 1237.26134,78.400507 1235.15551,71.9746515 C1261.07343,56.8162231 1282.7797,35.8910013 1304,14.1419518 L1304,12 C1282.45572,34.4081115 1260.10151,55.9923954 1233.37365,71.4803549 Z" id="Shape" fill="#EC2227"></path>
                    <path d="M1272.79741,83.3481176 C1267.71111,87.1408036 1266.39852,94.066578 1270.17222,99.1784591 C1273.94593,104.29034 1281.32926,105.609535 1286.41556,101.816849 C1291.50185,98.0241634 1292.4863,90.7685902 1288.71259,85.6567091 C1285.10296,80.3799285 1278.04778,79.5554316 1272.79741,83.3481176 Z" id="Shape" fill="#EC2227"></path>
                    <path d="M762.426146,561 C716.789474,577.12825 684.354839,610.688042 651.757216,644.084922 C648.171477,647.668977 644.585739,651.415945 641,655 L651.757216,655 L656.157895,655 C683.37691,627.142114 710.269949,598.958406 744.497453,580.549393 C749.550085,587.391681 759.655348,589.34662 767.641766,585.925477 C781.006791,603.845754 794.371817,621.60312 807.89983,639.523397 C801.217317,642.292894 798.935484,648.97227 801.054329,654.837088 L833,654.837088 C809.529711,623.720971 786.059423,592.441941 762.426146,561 Z" id="Shape" fill="#EC2227"></path>
                    <path d="M808,639.617068 C794.612245,621.805252 781.22449,604.155361 767.673469,586.343545 C759.673469,589.743982 749.55102,587.63895 744.489796,581 C710.204082,599.297593 683.265306,627.310722 656,655 L663.020408,655 C687.836735,629.739606 712.653061,604.641138 743.510204,587.315098 C743.673469,587.477024 743.836735,587.477024 744,587.63895 C749.714286,592.010941 757.55102,593.630197 764.897959,592.334792 C765.061224,592.334792 765.22449,592.334792 765.55102,592.172867 C777.142857,607.555799 788.734694,622.938731 800.489796,638.321663 C800.326531,638.483589 800.163265,638.483589 800.163265,638.645514 C795.428571,642.85558 793.959184,649.008753 795.591837,655 L801.142857,655 C799.020408,648.846827 801.469388,642.369803 808,639.617068 Z" id="Shape" fill="#FFFFFF"></path>
                    <path d="M799,638.014706 C787.767442,623.294118 776.697674,608.411765 765.465116,593.691176 C757.976744,594.985294 750,593.367647 744.139535,589 C714.348837,605.985294 690.093023,630.411765 666,655 L683.906977,655 C687.813953,654.191176 691.883721,654.191176 695.790698,655 L794.604651,655 C792.813953,648.852941 794.44186,642.382353 799,638.014706 Z M757.162791,644.161765 C752.116279,647.882353 745.116279,646.911765 741.372093,641.897059 C737.627907,636.882353 738.44186,629.602941 743.651163,626.044118 C748.697674,622.323529 756.023256,623.617647 759.767442,628.632353 C763.348837,633.647059 762.209302,640.441176 757.162791,644.161765 Z" id="Shape" fill="#FFFFFF"></path>
                    <path d="M799.674584,638.569378 C799.837292,638.406699 800,638.406699 800,638.244019 C788.447743,622.789474 776.895487,607.334928 765.180523,591.880383 C765.017815,591.880383 764.855107,591.880383 764.529691,592.043062 C757.207838,593.344498 749.397862,591.717703 743.703088,587.325359 C743.54038,587.162679 743.377672,587.162679 743.214964,587 C712.625891,604.406699 687.731591,629.62201 663,655 L664.952494,655 C689.033254,630.272727 713.276722,605.870813 743.052257,588.626794 C748.909739,593.019139 756.882423,594.483254 764.366983,593.344498 C775.593824,608.148325 786.657957,623.114833 797.884798,637.91866 C793.166271,642.311005 791.7019,648.818182 793.328979,655 L794.956057,655 C793.491686,648.980861 794.956057,642.636364 799.674584,638.569378 Z" id="Shape" fill="#EC2227"></path>
                    <path d="M684,655.75 L696,655.75 C692.054795,654.75 687.945205,654.75 684,655.75 Z" id="Shape" fill="#EC2227"></path>
                    <path d="M743.584443,626.194587 C738.498147,630.007141 737.513702,637.300723 741.287406,642.439383 C745.06111,647.578042 752.116295,648.406858 757.202591,644.760068 C762.288887,640.947514 763.60148,633.985458 759.827776,628.846799 C756.054072,623.708139 748.670739,622.382033 743.584443,626.194587 Z" id="Shape" fill="#EC2227"></path>
                    <path d="M1304,655 L1304,644 C1300.33333,647.720588 1296.66667,651.279412 1293,655 L1304,655 Z" id="Shape" fill="#EC2227"></path>
                </g>
            </g>
        </g>
    </g>
</svg>