<svg width="33" height="40" viewBox="0 0 33 40" xmlns="http://www.w3.org/2000/svg"><title>apple-seeklogo.com</title><path d="M27.15 21.21c.056 6.042 5.3 8.053 5.358 8.078-.044.142-.838 2.865-2.763 5.679-1.664 2.432-3.39 4.855-6.112 4.905-2.673.05-3.532-1.585-6.589-1.585-3.055 0-4.01 1.535-6.54 1.634-2.627.1-4.626-2.63-6.304-5.053-3.43-4.957-6.05-14.006-2.53-20.115C3.416 11.72 6.54 9.798 9.93 9.75c2.58-.049 5.013 1.735 6.59 1.735 1.575 0 4.533-2.145 7.642-1.83 1.302.054 4.956.526 7.302 3.96-.189.117-4.36 2.545-4.314 7.596M22.126 6.374C23.52 4.687 24.458 2.338 24.202 0c-2.01.08-4.44 1.34-5.881 3.026-1.292 1.493-2.423 3.884-2.118 6.175 2.24.174 4.528-1.138 5.923-2.827" fill="#FFF"/></svg>