<svg width="91" height="120" viewBox="0 0 91 120" xmlns="http://www.w3.org/2000/svg"><title>business-and-finance</title><g fill="#FFF" fill-rule="evenodd" opacity=".5"><path d="M55.352 62.245a2.346 2.346 0 0 1-2.343-2.343 2.349 2.349 0 0 1 2.32-2.344h.017c.835 0 1.713.423 2.541 1.225a2.344 2.344 0 1 0 3.26-3.369c-1.202-1.163-2.407-1.818-3.49-2.17v-2.619a2.344 2.344 0 1 0-4.688 0v2.665c-2.705.981-4.648 3.581-4.648 6.612a7.04 7.04 0 0 0 7.031 7.03 2.346 2.346 0 0 1 2.344 2.345c0 1.28-1.024 2.34-2.362 2.343-1.015-.01-2.06-.621-3.023-1.77a2.344 2.344 0 1 0-3.592 3.011c1.239 1.478 2.7 2.513 4.25 3.042v2.847a2.344 2.344 0 1 0 4.687 0v-2.827a7.032 7.032 0 0 0-2.304-13.678z"/><path d="M55.313 38.906c-14.216 0-25.782 11.566-25.782 25.782 0 14.215 11.566 25.78 25.782 25.78 14.215 0 25.78-11.565 25.78-25.78 0-14.216-11.565-25.782-25.78-25.782zm0 46.875c-11.632 0-21.094-9.462-21.094-21.094 0-11.63 9.462-21.093 21.093-21.093 11.632 0 21.094 9.462 21.094 21.093 0 11.632-9.462 21.094-21.094 21.094z" fill-rule="nonzero"/><path d="M0 110.625C0 115.795 4.206 120 9.375 120a9.357 9.357 0 0 0 7.117-3.272l19.557-22.625c5.726 3.762 12.34 5.74 19.264 5.74 5.537 0 10.837-1.25 15.753-3.719a2.344 2.344 0 1 0-2.103-4.189c-4.257 2.138-8.85 3.221-13.65 3.221-16.866 0-30.47-13.668-30.47-30.469 0-16.8 13.669-30.468 30.47-30.468 16.8 0 30.468 13.668 30.468 30.468 0 4.801-1.084 9.394-3.22 13.651a2.344 2.344 0 0 0 4.188 2.104c2.468-4.917 3.72-10.217 3.72-15.754 0-18.598-14.516-33.866-32.813-35.077v-6.174h7.032c11.63 0 21.093-9.462 21.093-21.093A2.344 2.344 0 0 0 83.437 0h-9.374c-8.154 0-15.24 4.65-18.75 11.437C51.803 4.65 44.715 0 36.563 0h-9.376a2.344 2.344 0 0 0-2.343 2.344c0 11.63 9.462 21.093 21.093 21.093h7.032v6.174c-18.297 1.21-32.813 16.48-32.813 35.076 0 6.923 1.979 13.538 5.742 19.264L3.28 103.501A9.364 9.364 0 0 0 0 110.624zM74.063 4.685h6.864c-1.14 7.943-7.989 14.065-16.24 14.065h-1.634l7.622-5.081a2.344 2.344 0 1 0-2.6-3.9l-9.675 6.45c2.082-6.673 8.314-11.532 15.663-11.534zM39.95 13.67l7.622 5.081h-1.635c-8.25 0-15.098-6.122-16.239-14.063h6.864c7.35 0 13.581 4.86 15.663 11.532L42.55 9.77a2.344 2.344 0 0 0-2.6 3.9zM28.73 87.7a35.324 35.324 0 0 0 3.572 3.57L20.8 104.576 15.424 99.2 28.73 87.698zM6.338 107.053l5.531-4.78 5.858 5.858-4.788 5.54a4.682 4.682 0 0 1-3.563 1.64 4.688 4.688 0 1 1-3.037-8.258z" fill-rule="nonzero"/><circle cx="78.75" cy="88.125" r="2.344"/></g></svg>