<svg width="36" height="35" viewBox="0 0 36 35" xmlns="http://www.w3.org/2000/svg"><title>calendar (4)</title><g fill="#FFF" fill-rule="evenodd"><path d="M34.637 3.563H29.16v2.663h4.153v26.098H2.65V6.226h4.153V3.563H1.325C.593 3.563 0 4.16 0 4.895v28.761c0 .735.593 1.332 1.325 1.332h33.312c.733 0 1.326-.597 1.326-1.332V4.895c0-.736-.594-1.332-1.326-1.332z"/><path d="M11.081 3.652l13.829-.087.016 2.663-13.828.088zm-9.623 8.833h33.047v2.663H1.458z"/><path d="M11.09.012H6.803a1.33 1.33 0 0 0-1.326 1.332v7.102c0 .735.594 1.331 1.326 1.331h4.285c.732 0 1.326-.596 1.326-1.331V1.344A1.33 1.33 0 0 0 11.088.012zM9.763 7.114H8.129V2.676h1.635v4.438zM29.203.012h-4.285a1.33 1.33 0 0 0-1.326 1.332v7.102c0 .735.593 1.331 1.326 1.331h4.285c.732 0 1.325-.596 1.325-1.331V1.344c0-.735-.593-1.332-1.325-1.332zm-1.325 7.102h-1.635V2.676h1.635v4.438z" fill-rule="nonzero"/><path d="M26.714 17.379a1.321 1.321 0 0 0-1.873-.042l-9.137 8.776-4.561-4.583a1.32 1.32 0 0 0-1.875 0 1.336 1.336 0 0 0 0 1.882l5.478 5.504a1.32 1.32 0 0 0 1.853.021l10.073-9.676c.53-.508.549-1.35.042-1.882z"/></g></svg>