<svg width="150" height="150" viewBox="0 0 150 150" xmlns="http://www.w3.org/2000/svg"><title>electricity-tower</title><g fill="#FFF" fill-rule="evenodd" opacity=".5"><path d="M145.161 145.161H150V150h-4.839zM0 145.161h4.839V150H0z"/><path d="M97.21 62.903h21.338v2.42c0 4.001 3.257 7.258 7.258 7.258 4.002 0 7.259-3.257 7.259-7.258v-2.42h4.838v-9.068L96.774 41.74v-5.45h21.774v2.42c0 4.001 3.257 7.258 7.258 7.258 4.002 0 7.259-3.257 7.259-7.258v-2.42h4.838v-9.067L96.774 15.126V4.839h-4.839V0h-4.838v4.839H62.903V0h-4.838v4.839h-4.84v10.287L12.098 27.223v9.067h4.838v2.42c0 4.001 3.257 7.258 7.259 7.258 4.001 0 7.258-3.257 7.258-7.258v-2.42h21.774v5.449l-41.13 12.096v9.068h4.84v2.42c0 4.001 3.256 7.258 7.258 7.258 4.001 0 7.258-3.257 7.258-7.258v-2.42H52.79l-13.71 82.258H9.677V150h130.646v-4.839H110.92L97.21 62.903zm-5.033 33.871L75 110.22 57.823 96.774h34.354zm-34.32-4.839L75 78.602l17.144 13.333H57.856zm40.333 6.276l5.78 34.68-25.046-19.602L98.19 98.21zM78.94 75.537l13.696-10.652 4.08 24.476L78.94 75.537zm8.364-12.634L75 72.472l-12.305-9.569h24.61zm-23.87-4.838L75 50.115l11.565 7.95h-23.13zm28.5-2.18L79.27 47.177l12.665-8.707v17.415zm-5.37-19.595L75 44.24l-11.565-7.95h23.13zM67.21 31.452l7.79-3.41 7.79 3.41H67.21zm13.824-6.049l10.901-4.768v9.54l-10.901-4.772zM75 22.763l-7.79-3.408h15.58L75 22.764zm-6.034 2.64l-10.901 4.769v-9.537l10.901 4.768zM58.065 38.47l12.665 8.707-12.665 8.708V38.47zm12.994 37.067L53.284 89.361l4.079-24.476 13.696 10.652zm.017 37.752L46.03 132.89l5.78-34.679 19.265 15.078zm3.924 3.07l24.435 19.125h-48.87L75 116.359zm53.226-51.036a2.42 2.42 0 0 1-4.839 0v-2.42h4.839v2.42zm4.839-7.868v.61h-36.29V46.78l36.29 10.674zm-4.84-18.745a2.42 2.42 0 0 1-4.838 0v-2.42h4.839v2.42zm4.84-7.868v.61h-36.29V20.168l36.29 10.674zM91.935 9.677v4.84h-33.87v-4.84h33.87zM26.613 38.71a2.42 2.42 0 0 1-4.839 0v-2.42h4.839v2.42zm-9.678-7.258v-.61l36.29-10.674v11.284h-36.29zm0 26.003l36.29-10.674v11.284h-36.29v-.61zm9.678 7.868a2.42 2.42 0 0 1-4.839 0v-2.42h4.839v2.42zm18.179 75h60.418l.806 4.838H43.984l.808-4.838z" fill-rule="nonzero"/></g></svg>