<svg width="150" height="150" viewBox="0 0 150 150" xmlns="http://www.w3.org/2000/svg"><title>trend</title><g fill="#FFF" fill-rule="evenodd" opacity=".5"><path d="M0 150h150v-5.4h-9.3V54h-23.4v90.6h-12.6V90H81.3v54.6H68.7V72H45.3v72.6H32.7V99H9.3v45.6H0v5.4zm122.7-90.6h12.6v85.2h-12.6V59.4zm-36 36h12.6v49.2H86.7V95.4zm-36-18h12.6v67.2H50.7V77.4zm-36 27h12.6v40.2H14.7v-40.2z" fill-rule="nonzero"/><path d="M57 24.51l36 36 51.6-51.33V32.4h5.4V0h-32.7v5.4h23.46L93 52.89l-36-36L2.07 71.52l3.81 3.84z"/></g></svg>