<svg width="150" height="150" viewBox="0 0 150 150" xmlns="http://www.w3.org/2000/svg"><title>sun (1)</title><g fill="#FFF" fill-rule="evenodd" opacity=".5"><path d="M75 36.3c-21.33 0-38.7 17.37-38.7 38.7 0 21.33 17.37 38.7 38.7 38.7 21.33 0 38.7-17.37 38.7-38.7 0-21.33-17.37-38.7-38.7-38.7zm0 72c-18.36 0-33.3-14.94-33.3-33.3S56.64 41.7 75 41.7s33.3 14.94 33.3 33.3-14.94 33.3-33.3 33.3z" fill-rule="nonzero"/><path d="M113.19 110.49c-.03 0-.03 0 0 0-.72 0-1.38.27-1.89.78s-.81 1.2-.81 1.92.27 1.38.78 1.86l21.72 21.72c.51.51 1.2.81 1.92.81s1.38-.27 1.86-.78c.54-.54.81-1.23.81-1.95s-.27-1.38-.78-1.86l-21.72-21.72a2.63 2.63 0 0 0-1.89-.78zm-98.1-98.1c-.03 0-.03 0 0 0-.72 0-1.38.27-1.89.78s-.81 1.2-.81 1.95c0 .72.27 1.38.78 1.89l21.72 21.72c.51.51 1.2.81 1.92.81s1.38-.27 1.86-.78c.54-.54.81-1.23.81-1.95s-.27-1.38-.78-1.86L17.01 13.17c-.54-.51-1.2-.78-1.92-.78zm21.69 98.1c-.72 0-1.38.27-1.86.78L13.2 132.99c-.51.51-.81 1.2-.81 1.92s.27 1.38.78 1.86c.51.51 1.2.81 1.92.81s1.38-.27 1.86-.78l21.72-21.72c.51-.51.81-1.2.81-1.92s-.27-1.38-.78-1.86c-.51-.54-1.17-.81-1.92-.81zm98.13-98.1s-.03 0 0 0c-.72 0-1.38.27-1.89.78L111.3 34.89c-.51.51-.81 1.2-.81 1.92s.27 1.38.78 1.86c.54.54 1.2.81 1.92.81s1.38-.27 1.86-.78l21.72-21.72c.51-.51.81-1.2.81-1.92s-.27-1.38-.78-1.86c-.51-.54-1.17-.81-1.89-.81zm-34.77 123.3c.66-.27 1.2-.81 1.47-1.47.27-.66.27-1.41 0-2.07l-3.45-8.31c-.57-1.35-2.13-2.01-3.54-1.44-1.38.57-2.04 2.13-1.44 3.51l3.45 8.31a2.682 2.682 0 0 0 3.51 1.47zM55.38 27.6c.66-.27 1.2-.81 1.47-1.47.27-.66.27-1.38 0-2.07l-3.45-8.28c-.27-.66-.81-1.2-1.47-1.47-.33-.12-.66-.21-1.02-.21s-.72.06-1.05.21c-1.41.57-2.04 2.13-1.47 3.54l3.45 8.31c.57 1.35 2.16 2.01 3.54 1.44zm-37.53 74.01l8.31-3.45c1.41-.57 2.04-2.13 1.47-3.54-.57-1.35-2.16-2.01-3.54-1.47l-8.31 3.45c-1.41.57-2.04 2.13-1.47 3.54.6 1.38 2.16 2.04 3.54 1.47zm108.06-44.76l8.31-3.45c.66-.27 1.2-.81 1.47-1.47.27-.66.27-1.38 0-2.07-.27-.66-.81-1.2-1.47-1.47-.33-.12-.66-.21-1.02-.21s-.72.06-1.05.21l-8.31 3.45c-.66.27-1.2.81-1.47 1.47-.27.66-.27 1.38 0 2.07.57 1.35 2.16 2.01 3.54 1.47zm-70.53 65.52c-.33-.12-.66-.18-1.02-.18s-.72.06-1.05.21c-.66.27-1.17.78-1.44 1.47l-3.45 8.34c-.57 1.38.09 2.94 1.47 3.54 1.35.57 2.94-.09 3.51-1.47l3.45-8.34c.57-1.41-.09-2.97-1.47-3.57zm44.76-108.09c-.33-.15-.66-.21-1.02-.21-1.05 0-2.07.63-2.52 1.68l-3.45 8.34c-.57 1.38.09 2.94 1.47 3.54 1.38.54 2.97-.09 3.51-1.47v-.03l3.45-8.31c.6-1.38-.06-2.94-1.44-3.54zM15.75 53.4l8.34 3.45c1.38.57 2.94-.09 3.54-1.47.27-.66.27-1.41-.03-2.07-.27-.66-.78-1.17-1.47-1.44h-.03l-8.31-3.45c-.33-.15-.69-.21-1.02-.21-1.05 0-2.07.63-2.52 1.68-.54 1.35.12 2.91 1.5 3.51zm108.09 44.76l8.31 3.45c1.38.57 2.94-.09 3.54-1.47.27-.66.27-1.38 0-2.07-.27-.66-.78-1.2-1.44-1.47l-8.34-3.45c-.33-.15-.69-.21-1.02-.21-1.05 0-2.07.63-2.52 1.68-.57 1.38.09 2.94 1.47 3.54zM75 126.3c-1.5 0-2.7 1.2-2.7 2.7v18.3c0 1.5 1.2 2.7 2.7 2.7 1.5 0 2.7-1.2 2.7-2.7V129c0-1.5-1.2-2.7-2.7-2.7zM75 0c-1.5 0-2.7 1.2-2.7 2.7V21c0 1.5 1.2 2.7 2.7 2.7 1.5 0 2.7-1.2 2.7-2.7V2.7C77.7 1.2 76.5 0 75 0zM21 72.3H2.7C1.2 72.3 0 73.5 0 75c0 1.5 1.2 2.7 2.7 2.7H21c1.5 0 2.7-1.2 2.7-2.7 0-1.5-1.2-2.7-2.7-2.7zm126.3 0H129c-1.5 0-2.7 1.2-2.7 2.7 0 1.5 1.2 2.7 2.7 2.7h18.3c1.5 0 2.7-1.2 2.7-2.7 0-1.5-1.2-2.7-2.7-2.7zM77.49 96.15v-1.62l.87-.24c5.04-1.38 8.58-5.73 8.58-10.59 0-6.09-5.37-11.07-11.94-11.07-3.81 0-6.93-2.73-6.93-6.06 0-3.33 3.12-6.06 6.93-6.06 3.81 0 6.93 2.73 6.93 6.06 0 1.38 1.11 2.49 2.49 2.49 1.38 0 2.49-1.11 2.49-2.49 0-4.95-3.45-9.21-8.58-10.59l-.87-.24v-1.89c0-1.38-1.11-2.49-2.49-2.49-1.38 0-2.49 1.11-2.49 2.49v1.89l-.87.24c-5.04 1.38-8.58 5.73-8.58 10.59 0 6.09 5.37 11.07 11.94 11.07 3.81 0 6.93 2.73 6.93 6.06 0 3.33-3.12 6.06-6.93 6.06-3.81 0-6.93-2.73-6.93-6.06 0-1.38-1.11-2.49-2.49-2.49-1.38 0-2.49 1.11-2.49 2.49 0 4.95 3.45 9.21 8.58 10.59l.87.24v1.62c0 1.38 1.11 2.49 2.49 2.49 1.38 0 2.49-1.11 2.49-2.49z"/></g></svg>