<svg width="35" height="35" viewBox="0 0 35 35" xmlns="http://www.w3.org/2000/svg"><title>solar-panel (3)</title><g fill="#FFF" fill-rule="evenodd"><path d="M26.096 12.832a1.023 1.023 0 0 0-.988-.756H5.458c-.462 0-.866.31-.987.756L.036 29.206c-.176.65.313 1.291.988 1.291H14.26v2.388H6.55a1.023 1.023 0 0 0 0 2.047h17.466a1.023 1.023 0 0 0 0-2.047h-7.71v-2.388h13.236c.673 0 1.165-.64.988-1.29l-4.434-16.375zM11.033 28.451l.569-3.412h7.363l.568 3.412h-8.5zm.91-5.459l.568-3.41h5.544l.568 3.41h-6.68zm-7.18-3.41h5.673l-.568 3.41H3.839l.924-3.41zm12.382-5.459l.569 3.411h-4.862l.569-3.41h3.724zm2.985 5.458h5.673l.924 3.411h-6.028l-.57-3.41zm5.119-2.047h-5.46l-.569-3.41h5.105l.924 3.41zm-19.007-3.41h5.104l-.569 3.41h-5.46l.925-3.41zM3.285 25.038h6.242l-.569 3.412H2.361l.924-3.412zm18.323 3.412l-.568-3.412h6.241l.924 3.412h-6.597z" fill-rule="nonzero"/><path d="M33.909 7.164c-3.443 0-6.14-2.697-6.14-6.14C27.769.458 27.31 0 26.745 0h-3.86a1.023 1.023 0 0 0 0 2.047h2.897a8.138 8.138 0 0 0 1.635 4.021L25.37 8.115c-.647.646-.18 1.747.723 1.747.262 0 .524-.1.724-.3l2.046-2.046a8.138 8.138 0 0 0 4.021 1.634v2.897a1.023 1.023 0 0 0 2.047 0v-3.86c0-.565-.458-1.023-1.023-1.023z"/><path d="M17.288 8.712L23.3 6.344a1.023 1.023 0 1 0-.75-1.904l-6.012 2.368a1.023 1.023 0 1 0 .75 1.904zm11.636 4.712c.395 0 .771-.23.939-.616l.238-.548a1.023 1.023 0 0 0-1.877-.816l-.238.548c-.296.68.208 1.432.938 1.432z"/></g></svg>