<svg width="150" height="150" viewBox="0 0 150 150" xmlns="http://www.w3.org/2000/svg"><title>forbidden (1)</title><g fill="#FFF" fill-rule="evenodd" opacity=".5"><path d="M111.45 123.29a2.93 2.93 0 0 0-4.068-.787l-.093.062a2.93 2.93 0 0 0 3.281 4.855l.093-.063a2.93 2.93 0 0 0 .787-4.068zM43.448 23.287a2.93 2.93 0 0 0-4.069-.782l-.09.06a2.93 2.93 0 1 0 3.282 4.854l.095-.064a2.93 2.93 0 0 0 .782-4.068z"/><path d="M150 75c0-20.033-7.802-38.868-21.967-53.033C113.867 7.8 95.033 0 75 0 59.105 0 43.898 4.926 31.023 14.246a2.93 2.93 0 1 0 3.436 4.747C46.329 10.4 60.347 5.859 75 5.859c38.124 0 69.14 31.017 69.14 69.141 0 17.488-6.452 33.983-18.225 46.772l-4.15-4.15a63.242 63.242 0 0 0 14.787-27.94c3.924-16.442 1.21-33.427-7.642-47.827-8.851-14.4-22.78-24.491-39.222-28.414a63.42 63.42 0 0 0-42.652 4.785 2.93 2.93 0 0 0 2.59 5.256 57.543 57.543 0 0 1 38.702-4.342c14.919 3.56 27.558 12.717 35.59 25.784 8.032 13.066 10.495 28.479 6.935 43.398a57.38 57.38 0 0 1-13.24 25.148L90.069 85.925l15.9-20.513a5.458 5.458 0 0 0-.982-7.647 5.482 5.482 0 0 0-3.017-1.128 2.96 2.96 0 0 0-.316-.017H87.532l10.99-19.99 1.945-3.606a2.93 2.93 0 0 0-5.157-2.782l-1.934 3.586-13.365 24.31a2.93 2.93 0 0 0 2.567 4.341h18.25L85.892 81.75 57.937 53.794l7.617-19.37h11.91a2.93 2.93 0 0 0 0-5.86H65.275a5.442 5.442 0 0 0-5.163 3.684l-6.695 17.027-38.29-38.29a2.93 2.93 0 0 0-4.143 4.143l8.954 8.954A74.575 74.575 0 0 0 5.71 46.299 74.629 74.629 0 0 0 0 74.999c0 20.034 7.801 38.868 21.967 53.034C36.132 142.199 54.967 150 74.999 150c15.895 0 31.102-4.927 43.977-14.246a2.93 2.93 0 1 0-3.436-4.747C103.67 139.6 89.652 144.14 75 144.14c-38.124 0-69.14-31.016-69.14-69.14 0-17.488 6.452-33.983 18.224-46.772l4.148 4.148a63.243 63.243 0 0 0-14.785 27.939c-3.924 16.441-1.21 33.426 7.642 47.826 8.852 14.4 22.781 24.492 39.223 28.415a63.403 63.403 0 0 0 42.652-4.785 2.93 2.93 0 0 0-2.59-5.257 57.544 57.544 0 0 1-38.702 4.342c-30.798-7.349-49.875-38.384-42.526-69.181a57.386 57.386 0 0 1 13.24-25.146L51.08 55.223l-7.811 19.864a5.414 5.414 0 0 0 .084 4.174 5.42 5.42 0 0 0 3.011 2.892 5.43 5.43 0 0 0 1.76.37c.074.005.149.008.225.008h14.74l-8.488 32.063a5.46 5.46 0 0 0 3.886 6.662 5.486 5.486 0 0 0 5.793-2.059l22.17-28.603 48.421 48.42a2.92 2.92 0 0 0 2.072.858 2.93 2.93 0 0 0 2.072-5.001l-8.955-8.954a74.57 74.57 0 0 0 14.23-22.216A74.62 74.62 0 0 0 150 75zm-89.22 39.148l8.947-33.797a2.93 2.93 0 0 0-2.832-3.68H48.94l6.658-16.93 26.675 26.676-21.494 27.731z" fill-rule="nonzero"/><path d="M86.07 28h-.14a2.93 2.93 0 0 0 0 5.86h.14a2.93 2.93 0 0 0 0-5.86z"/></g></svg>