<svg width="34" height="49" viewBox="0 0 34 49" xmlns="http://www.w3.org/2000/svg"><title>energy</title><g fill="#FFF"><path d="M33.236 27.746a.953.953 0 0 0-.732-.732c-.37-.08-9.123-1.889-13.587 2.559-.929.926-1.586 2.036-2.043 3.218-.458-1.182-1.115-2.292-2.044-3.218-4.464-4.448-13.216-2.638-13.587-2.559a.953.953 0 0 0-.732.732c-.08.369-1.897 9.094 2.57 13.544 2.432 2.424 6.138 2.99 9.067 2.989 1.601 0 2.97-.169 3.772-.296v3.969a.953.953 0 1 0 1.907 0v-3.969c.802.127 2.17.296 3.772.296 2.929 0 6.635-.566 9.068-2.99 4.466-4.45 2.649-13.174 2.57-13.543zM4.426 39.939c-3.117-3.106-2.467-9.21-2.16-11.17 1.966-.308 8.09-.962 11.218 2.155 1.908 1.9 2.405 4.923 2.433 7.433-.002.165-.002.328 0 .488a23.18 23.18 0 0 1-.12 2.058l-4.244-4.23V33.21a.953.953 0 1 0-1.907 0v1.564L7.44 32.577a.953.953 0 0 0-1.346 1.35l2.197 2.189H6.725a.953.953 0 0 0 0 1.906h3.48l4.24 4.226c-2.607.266-7.38.32-10.019-2.31zm24.895 0c-2.632 2.622-7.407 2.57-10.018 2.307l4.239-4.223h3.48a.953.953 0 0 0 0-1.907h-1.566l2.196-2.188a.953.953 0 1 0-1.346-1.351L24.1 34.774v-1.565a.953.953 0 0 0-1.906 0v3.464l-4.248 4.232a23.168 23.168 0 0 1-.118-1.934 22.38 22.38 0 0 0 0-.746c.043-2.48.555-5.43 2.434-7.301 3.12-3.11 9.253-2.46 11.22-2.154.308 1.96.963 8.056-2.162 11.169z"/><path d="M9.61 16.306l5.551-.157-1.23 9.06a.953.953 0 0 0 1.747.643l9.29-14.534a.953.953 0 0 0-.838-1.466l-4.449.164.674-8.895A.953.953 0 0 0 18.62.509L8.796 14.814a.953.953 0 0 0 .813 1.492zm8.577-11.799l-.488 6.428a.954.954 0 0 0 .986 1.025l3.697-.136-5.98 9.355.8-5.886a.953.953 0 0 0-.972-1.081l-4.8.135 6.757-9.84z"/></g></svg>