<svg width="35" height="29" viewBox="0 0 35 29" xmlns="http://www.w3.org/2000/svg"><title>battery (1)</title><g fill="#FFF" fill-rule="evenodd"><path d="M32.95 4.922h-3.487V1.025C29.463.46 29.003 0 28.437 0h-4.375c-.566 0-1.025.46-1.025 1.025v3.897H11.963V1.025C11.963.46 11.503 0 10.938 0H6.561c-.566 0-1.025.46-1.025 1.025v3.897H2.051C.92 4.922 0 5.842 0 6.972v2.872c0 1.13.92 2.05 2.05 2.05h.206V26.25c0 1.13.92 2.05 2.05 2.05h26.387c1.131 0 2.051-.92 2.051-2.05V11.895h.205c1.131 0 2.051-.92 2.051-2.051V6.973c0-1.131-.92-2.051-2.05-2.051zM25.087 2.05h2.324v2.87h-2.324V2.05zm-17.5 0h2.324v2.87H7.588V2.05zm-3.28 24.2v-2.324h26.386v2.324H4.307zm26.386-4.375H4.307v-9.98h26.386v9.98zM32.95 9.844H2.051l-.002-2.871h30.9v2.87z" fill-rule="nonzero"/><path d="M21.328 17.91h.615v.615a1.025 1.025 0 0 0 2.051 0v-.615h.615a1.025 1.025 0 0 0 0-2.05h-.615v-.616a1.025 1.025 0 0 0-2.05 0v.615h-.616a1.025 1.025 0 0 0 0 2.051zm-10.938 0h3.282a1.025 1.025 0 0 0 0-2.05H10.39a1.025 1.025 0 0 0 0 2.05z"/></g></svg>