<svg width="84" height="120" viewBox="0 0 84 120" xmlns="http://www.w3.org/2000/svg"><title>confidence</title><g fill="#FFF" fill-rule="evenodd"><path d="M24.27 26.25h6.397c.68 0 1.298-.39 1.59-1.003l1.253-2.638a4.067 4.067 0 0 1 2.087-1.998l.954-.405c.068-.029.134-.062.197-.099l5.824-3.387c.328-.19.585-.481.733-.83l1.547-3.624a.78.78 0 0 1 .722-.472 1.92 1.92 0 0 1 1.782 1.192c.132.323.2.663.2 1.012v3.999a6.75 6.75 0 0 1-.615 2.824l-.88 1.923a2.463 2.463 0 0 0 .17 2.368 2.47 2.47 0 0 0 2.086 1.138h7.409c1.01 0 1.832.821 1.832 1.83 0 .699-.39 1.327-1.016 1.64a1.758 1.758 0 0 0-.238 3c.42.301.662.768.662 1.282 0 .647-.406 1.237-1.01 1.47a1.758 1.758 0 0 0-.553 2.939c.283.257.438.609.438.99 0 .625-.442 1.175-1.05 1.309a1.983 1.983 0 0 0-1.548 1.93c0 .717.392 1.378 1.025 1.728.42.232.687.672.696 1.15.006.346-.13.678-.382.935-.268.273-.643.43-1.026.43h-4.568a1.759 1.759 0 1 0 0 3.515h4.568c1.322 0 2.611-.54 3.537-1.482a4.782 4.782 0 0 0 1.39-3.461 4.85 4.85 0 0 0-.724-2.46 4.872 4.872 0 0 0 1.602-3.594 4.85 4.85 0 0 0-.355-1.82 5.114 5.114 0 0 0 1.48-3.579c0-.881-.231-1.737-.653-2.488a5.319 5.319 0 0 0 1.245-3.433c0-2.948-2.4-5.347-5.352-5.347h-5.791l.207-.453c.62-1.354.933-2.796.933-4.285v-3.998c0-.81-.156-1.6-.464-2.349a5.43 5.43 0 0 0-5.044-3.37 4.29 4.29 0 0 0-3.953 2.608l-1.318 3.089-5.223 3.037-.853.363a7.58 7.58 0 0 0-3.89 3.724l-.777 1.634H24.27a1.759 1.759 0 1 0 0 3.515zm18.979 22.39a1.76 1.76 0 0 0-1.76-1.758h-6.47a3.034 3.034 0 0 1-1.54-.42l-1.918-1.13a1.76 1.76 0 0 0-.894-.244H24.27a1.759 1.759 0 1 0 0 3.515h5.916l1.504.887a6.56 6.56 0 0 0 3.33.908h6.468c.973 0 1.76-.787 1.76-1.758z"/><path d="M82.101 116.426h-.84v-14.058a1.759 1.759 0 0 0-3.52 0v14.058h-8.693v-9.96a1.76 1.76 0 0 0-3.52 0v9.96H47.887a60.153 60.153 0 0 0 14.523-15.532l1.135-1.761 2.687.681a2.25 2.25 0 0 0 1.943-.406c.555-.431.873-1.08.873-1.782v-5.804c0-1.067-.06-2.125-.168-3.174l7.344-5.745a17.141 17.141 0 0 1 1.518 7.06v4.913a1.76 1.76 0 1 0 3.52 0v-4.913A20.632 20.632 0 0 0 70.267 71.7l-11.591-6.147a1.752 1.752 0 0 0-.045-.37l-.99-4.254C67.688 55.398 74.51 44.716 74.51 32.47 74.509 14.566 59.926 0 42.002 0 24.077 0 9.495 14.566 9.495 32.471c0 12.245 6.82 22.927 16.866 28.458l-.99 4.255a1.756 1.756 0 0 0-.044.37L13.736 71.7A20.631 20.631 0 0 0 2.742 89.963v26.463h-.901a1.759 1.759 0 1 0 0 3.516h80.26a1.759 1.759 0 1 0 0-3.516zm-40.1-38.124c.655.363 1.31.714 1.964 1.055l3.227 5.814-.377 2.398H36.773l-.376-2.398 3.06-5.515a81.298 81.298 0 0 0 2.545-1.354zm-2.828 12.782h5.658l1.456 16.475c-.447.86-4.285 7.716-4.285 7.716s-3.839-6.856-4.286-7.716l1.457-16.475zm10.088 10.147l-.911-10.305a2.795 2.795 0 0 0 1.849-2.217l.564-3.59a1.76 1.76 0 0 0-.2-1.124l-1.147-2.068a66.807 66.807 0 0 0 5.115 1.922l-.11.554a86.769 86.769 0 0 1-5.16 16.828zm6.41-32.59c.625 4.033.876 8.093.75 12.122-3.664-1.147-7.39-2.713-11.126-4.677l10.376-7.445zM27.583 80.764c-.127-4.03.124-8.09.75-12.123l10.375 7.445c-3.736 1.964-7.462 3.53-11.125 4.678zm6.467 1.385l-1.025 1.846a1.76 1.76 0 0 0-.2 1.125l.565 3.59a2.796 2.796 0 0 0 2.254 2.325l-.902 10.196a86.764 86.764 0 0 1-5.159-16.828l-.11-.554a66.37 66.37 0 0 0 4.577-1.7zm31.478 13.86l-2.344-.595a1.762 1.762 0 0 0-1.913.752l-1.82 2.824a56.564 56.564 0 0 1-11.526 12.938l.046-.083a90.242 90.242 0 0 0 9.902-26.759l.052-.262c.048.004.096.01.145.01a1.762 1.762 0 0 0 1.756-1.642c.173-2.634.187-5.283.052-7.934l.518.717a26.879 26.879 0 0 1 5.132 15.847v4.187zm8.908-16.173l-6.221 4.867a30.424 30.424 0 0 0-4.966-10.788l-2.296-3.175 7.665 4.065a17.173 17.173 0 0 1 5.818 5.031zM13.014 32.471c0-15.966 13.004-28.955 28.988-28.955 15.983 0 28.987 12.989 28.987 28.955 0 15.966-13.003 28.955-28.987 28.955-15.984 0-28.988-12.989-28.988-28.955zm28.988 32.471c4.385 0 8.57-.874 12.39-2.453l.546 2.35-12.936 9.282-12.936-9.283.546-2.349a32.358 32.358 0 0 0 12.39 2.453zm-26.616 9.863l7.664-4.064-2.296 3.174a30.416 30.416 0 0 0-4.965 10.788l-6.221-4.867a17.164 17.164 0 0 1 5.818-5.03zM6.262 89.963c0-2.483.534-4.88 1.518-7.06l7.344 5.745a30.921 30.921 0 0 0-.168 3.174v5.804c0 .702.318 1.351.872 1.782a2.248 2.248 0 0 0 1.944.406l2.686-.681 1.136 1.762.206.311.126.188a1.759 1.759 0 0 0 2.437.503 1.757 1.757 0 0 0 .503-2.435l-.142-.213c-.058-.086-.116-.172-.171-.259l-1.82-2.824a1.762 1.762 0 0 0-1.913-.752l-2.344.595v-4.187a26.877 26.877 0 0 1 5.131-15.847l.519-.717c-.135 2.65-.122 5.3.052 7.934a1.758 1.758 0 0 0 1.756 1.642c.048 0 .096-.006.145-.01l.052.262a90.242 90.242 0 0 0 9.901 26.76l.054.096a56.214 56.214 0 0 1-6.821-6.66 1.761 1.761 0 0 0-2.482-.183 1.756 1.756 0 0 0-.182 2.48 59.69 59.69 0 0 0 9.513 8.847H18.476v-9.96a1.76 1.76 0 0 0-3.52 0v9.96H6.262V89.963z" fill-rule="nonzero"/></g></svg>