<svg width="154" height="39" viewBox="0 0 154 39" xmlns="http://www.w3.org/2000/svg"><title>ESS лого тесл</title><path d="M107.8 38.607c0-2.112.749-3.93 2.22-5.4 1.523-1.525 3.341-2.273 5.453-2.273h30.747v-7.7H107.8V.16h46.12c0 2.166-.749 3.984-2.273 5.481-1.524 1.47-3.315 2.22-5.4 2.22H115.5v7.7h38.447v23.073H107.8v-.027zm-53.82 0c0-2.112.749-3.93 2.22-5.4 1.523-1.525 3.341-2.273 5.453-2.273H92.4v-7.7H53.98V.16h46.12c0 2.166-.775 3.984-2.273 5.481-1.524 1.47-3.315 2.22-5.4 2.22H61.68v7.7h38.447v23.073H53.98v-.027zM7.86 7.86c-2.165 0-3.983-.748-5.454-2.219C.936 4.117.187 2.3.187.161h46.12c0 2.165-.775 3.983-2.273 5.48-1.524 1.47-3.315 2.22-5.4 2.22H7.86zm0 15.374c-2.165 0-3.983-.749-5.454-2.22C.936 19.492.187 17.674.187 15.56h46.12c0 2.166-.775 3.984-2.273 5.455-1.524 1.47-3.315 2.219-5.4 2.219H7.86zm0 15.373c-2.165 0-3.983-.749-5.454-2.22-1.47-1.523-2.219-3.341-2.219-5.48h46.12c0 2.166-.775 3.984-2.273 5.48-1.524 1.471-3.315 2.22-5.4 2.22H7.86z"/></svg>