<svg width="154" height="50" viewBox="0 0 154 50" xmlns="http://www.w3.org/2000/svg"><title>ESS LOGO VECTOR</title><g fill="#171A20" fill-rule="evenodd"><path d="M7.955 7.649c-2.142 0-3.978-.714-5.405-2.244C1.122 3.875.306 2.04.306 0H46.2c0 2.142-.714 3.977-2.244 5.405-1.53 1.428-3.263 2.244-5.405 2.244H7.955zm0 15.298c-2.142 0-3.978-.714-5.405-2.244-1.428-1.53-2.244-3.365-2.244-5.405H46.2c0 2.142-.714 3.977-2.244 5.405-1.53 1.428-3.263 2.244-5.405 2.244H7.955zm0 15.298c-2.142 0-3.978-.714-5.405-2.244-1.428-1.53-2.244-3.365-2.244-5.405H46.2c0 2.142-.714 3.978-2.244 5.405-1.53 1.428-3.263 2.244-5.405 2.244H7.955z" fill-rule="nonzero"/><path d="M53.747 38.245c0-2.142.714-3.875 2.244-5.405 1.53-1.53 3.365-2.244 5.405-2.244h30.596v-7.649H53.747V0h45.894c0 2.142-.714 3.977-2.244 5.405-1.53 1.428-3.263 2.244-5.405 2.244H61.396v7.649h38.245v22.947H53.747zm53.543 0c0-2.142.714-3.875 2.244-5.405 1.53-1.53 3.365-2.244 5.405-2.244h30.596v-7.649H107.29V0h45.894c0 2.142-.714 3.977-2.244 5.405-1.53 1.428-3.263 2.244-5.405 2.244H114.94v7.649h38.245v22.947H107.29zM1.122 49.668v-5.406c0-.204.102-.306.306-.306h2.346c.203 0 .305.102.305.306 0 .204-.102.306-.305.306h-2.04v1.836h1.53c.204 0 .306.102.306.306 0 .204-.102.306-.306.306h-1.53v2.346h2.04c.203 0 .305.102.305.306 0 .204-.102.306-.305.306H1.428c-.204 0-.306-.102-.306-.306m11.626-1.224v-4.182c0-.204.102-.306.306-.306.204 0 .306.102.306.306v5.406c0 .204-.102.306-.306.306-.102 0-.204 0-.306-.102l-2.447-4.386v4.284c0 .204-.102.305-.306.305-.204 0-.306-.101-.306-.305v-5.406c0-.204.102-.306.306-.306.102 0 .204.102.306.204l2.447 4.182zm6.324 1.224v-5.406c0-.204.102-.306.305-.306h2.346c.204 0 .306.102.306.306 0 .204-.102.306-.306.306h-2.04v1.836h1.53c.204 0 .306.102.306.306 0 .204-.102.306-.306.306h-1.53v2.346h2.04c.204 0 .306.102.306.306 0 .204-.102.306-.306.306h-2.346c-.203 0-.305-.102-.305-.306"/><path d="M30.29 47.424l1.02 2.04v.102c0 .102 0 .102-.102.204s-.102.102-.204.102-.204-.102-.306-.204l-1.122-2.244H28.25v2.142c0 .204-.102.306-.306.306-.204 0-.306-.102-.306-.306V44.16c0-.204.102-.306.306-.306h1.53c.51 0 .918.204 1.224.51.306.306.51.816.51 1.224.102 1.02-.204 1.53-.918 1.836zm-1.938-2.856v2.346h1.224c.306 0 .612-.102.816-.306.204-.204.306-.51.306-.816 0-.306-.102-.612-.306-.816-.204-.204-.51-.306-.816-.306h-1.224v-.102z" fill-rule="nonzero"/><path d="M38.551 49.362h1.53v-2.448h-.612c-.204 0-.306-.102-.306-.306 0-.204.102-.306.306-.306h.918c.204 0 .306.102.306.306v2.958c0 .204-.102.306-.306.306H38.55c-.408 0-.816-.102-1.02-.408-.306-.306-.408-.612-.408-1.02v-2.958c0-.408.102-.816.408-1.02.306-.306.612-.408 1.02-.408h1.836c.204 0 .306.102.306.306 0 .204-.102.306-.306.306H38.55c-.204 0-.51.102-.612.306-.204.204-.306.408-.306.612v2.958c0 .204.102.51.306.612.102.102.306.204.612.204"/><path d="M49.872 48.138c0 .51-.204.918-.51 1.224-.306.306-.816.51-1.224.51a1.69 1.69 0 0 1-1.224-.51 1.882 1.882 0 0 1-.51-1.224v-2.346c0-.51.204-.918.51-1.224.306-.306.816-.51 1.224-.51.51 0 .918.204 1.224.51.306.306.51.816.51 1.224v2.346zm-.612 0v-2.346c0-.306-.102-.612-.306-.816-.204-.204-.51-.306-.816-.306-.306 0-.612.102-.816.306-.204.204-.306.51-.306.816v2.346c0 .306.102.612.306.816.204.204.51.306.816.306.306 0 .612-.102.816-.306.204-.204.306-.51.306-.816z" fill-rule="nonzero"/><path d="M59.152 48.444c0 .408-.102.714-.408 1.02-.306.306-.612.408-1.02.408-.713 0-1.427-.204-1.937-.612-.102-.102-.102-.102-.102-.204s0-.102.102-.204.102-.102.204-.102c0 0 .102 0 .204.102l.816.408c.204.102.51.102.815.102.204 0 .408-.102.612-.306.204-.204.306-.408.306-.612 0-.408-.204-.612-.51-.816l-1.631-.816c-.51-.306-.816-.714-.816-1.326 0-.408.102-.714.408-1.02.306-.306.612-.408 1.02-.408.713 0 1.223.102 1.631.306.102.102.204.204.204.306 0 .102 0 .102-.102.204s-.102.102-.204.102h-.102a3.14 3.14 0 0 0-1.325-.306c-.204 0-.408.102-.612.306-.204.204-.306.408-.306.612 0 .408.204.612.51.816l1.631.816c.408.204.612.612.612 1.224"/><path d="M69.045 49.668c0 .204-.102.306-.306.306-.102 0-.204-.102-.306-.204l-.408-1.326h-2.142l-.408 1.326c0 .102-.101.204-.305.204s-.306-.102-.306-.306v-.102l1.733-5.304c.102-.204.204-.204.306-.204.102 0 .204.102.306.204l1.836 5.406c0-.102 0-.102 0 0zm-2.04-4.488l-.918 2.652h1.734l-.816-2.652z" fill-rule="nonzero"/><path d="M76.898 49.974c-.102 0-.204-.102-.306-.204l-1.734-5.406v-.102c0-.204.102-.306.306-.306.102 0 .204.102.306.204L77 48.648l1.53-4.488c0-.102.102-.204.306-.204.204 0 .306.102.306.306v.102l-1.734 5.406c-.306.102-.408.204-.51.204m7.751-.306v-5.406c0-.204.102-.306.306-.306h2.346c.204 0 .306.102.306.306 0 .204-.102.306-.306.306h-2.04v1.836h1.53c.204 0 .306.102.306.306 0 .204-.102.306-.306.306h-1.53v2.346h2.04c.204 0 .306.102.306.306 0 .204-.102.306-.306.306h-2.346c-.204 0-.306-.102-.306-.306m12.238-1.224c0 .408-.102.714-.408 1.02-.305.306-.611.408-1.02.408-.713 0-1.427-.204-1.937-.612-.102-.102-.102-.102-.102-.204s0-.102.102-.204.102-.102.204-.102c0 0 .102 0 .204.102l.816.408c.204.102.51.102.816.102.204 0 .408-.102.612-.306.203-.204.305-.408.305-.612 0-.408-.204-.612-.51-.816l-1.631-.816c-.51-.306-.816-.714-.816-1.326 0-.408.102-.714.408-1.02.306-.306.612-.408 1.02-.408.714 0 1.224.102 1.631.306.102.102.204.204.204.306 0 .102 0 .102-.102.204s-.102.102-.204.102h-.102a3.14 3.14 0 0 0-1.325-.306c-.204 0-.408.102-.612.306-.204.204-.306.408-.306.612 0 .408.204.612.51.816l1.631.816c.408.204.612.612.612 1.224m8.159-1.53v2.652c0 .204-.102.306-.306.306-.204 0-.306-.102-.306-.306v-2.652l-1.733-2.55c0-.102-.102-.102-.102-.204 0-.204.102-.306.306-.306.102 0 .204 0 .204.102l1.53 2.244 1.53-2.244c.101-.102.101-.102.203-.102.204 0 .306.102.306.306 0 .102 0 .102-.102.204l-1.53 2.55zm11.014 1.53c0 .408-.101.714-.407 1.02-.306.306-.612.408-1.02.408-.714 0-1.428-.204-1.938-.612-.102-.102-.102-.102-.102-.204s0-.102.102-.204.102-.102.204-.102c0 0 .102 0 .204.102l.816.408c.204.102.51.102.816.102.204 0 .408-.102.612-.306.204-.204.306-.408.306-.612 0-.408-.204-.612-.51-.816l-1.632-.816c-.51-.306-.816-.714-.816-1.326 0-.408.102-.714.408-1.02.306-.306.612-.408 1.02-.408.714 0 1.224.102 1.632.306.102.102.204.204.204.306 0 .102 0 .102-.102.204s-.102.102-.204.102h-.102a3.14 3.14 0 0 0-1.326-.306c-.204 0-.408.102-.612.306-.204.204-.306.408-.306.612 0 .408.204.612.51.816l1.632.816c.408.204.612.612.612 1.224m5.711-4.182c0-.204.102-.306.306-.306h2.958c.204 0 .306.102.306.306 0 .204-.102.306-.306.306h-1.224v5.1c0 .204-.102.306-.306.306-.204 0-.306-.102-.306-.306v-5.1h-1.224c-.102 0-.204-.102-.204-.306m9.281 5.406v-5.406c0-.204.102-.306.306-.306h2.346c.204 0 .306.102.306.306 0 .204-.102.306-.306.306h-2.04v1.836h1.53c.204 0 .306.102.306.306 0 .204-.102.306-.306.306h-1.53v2.346h2.04c.204 0 .306.102.306.306 0 .204-.102.306-.306.306h-2.346c-.204 0-.306-.102-.306-.306m12.647-5.712c.203 0 .305.102.305.306v5.406c0 .204-.102.306-.306.306-.204 0-.306-.102-.306-.306v-4.386l-1.223 1.836c-.102.102-.204.204-.306.204-.102 0-.204-.102-.306-.204l-1.224-1.836v4.386c0 .204-.102.306-.306.306-.204 0-.306-.102-.306-.306v-5.406c0-.204.102-.306.306-.306.102 0 .204 0 .306.102l1.53 2.346 1.53-2.346c.101-.102.203-.102.305-.102m9.587 4.488c0 .408-.102.714-.408 1.02-.306.306-.612.408-1.02.408-.714 0-1.428-.204-1.937-.612-.102-.102-.102-.102-.102-.204s0-.102.102-.204.102-.102.204-.102c0 0 .101 0 .203.102l.816.408c.204.102.51.102.816.102.204 0 .408-.102.612-.306.204-.204.306-.408.306-.612 0-.408-.204-.612-.51-.816l-1.632-.816c-.51-.306-.815-.714-.815-1.326 0-.408.102-.714.407-1.02.306-.306.612-.408 1.02-.408.714 0 1.224.102 1.632.306.102.102.204.204.204.306 0 .102 0 .102-.102.204s-.102.102-.204.102h-.102a3.14 3.14 0 0 0-1.326-.306c-.204 0-.408.102-.612.306-.204.204-.306.408-.306.612 0 .408.204.612.51.816l1.632.816c.306.204.612.612.612 1.224"/></g></svg>