<svg width="151" height="50" viewBox="0 0 151 50" xmlns="http://www.w3.org/2000/svg"><title>ESS LOGO VECTOR</title><g fill="#FFF" fill-rule="evenodd"><path d="M7.8 7.5c-2.1 0-3.9-.7-5.3-2.2C1.1 3.8.3 2 .3 0h45c0 2.1-.7 3.9-2.2 5.3-1.5 1.4-3.2 2.2-5.3 2.2h-30zm0 15c-2.1 0-3.9-.7-5.3-2.2C1.1 18.8.3 17 .3 15h45c0 2.1-.7 3.9-2.2 5.3-1.5 1.4-3.2 2.2-5.3 2.2h-30zm0 15c-2.1 0-3.9-.7-5.3-2.2C1.1 33.8.3 32 .3 30h45c0 2.1-.7 3.9-2.2 5.3-1.5 1.4-3.2 2.2-5.3 2.2h-30z" fill-rule="nonzero"/><path d="M52.7 37.5c0-2.1.7-3.8 2.2-5.3 1.5-1.5 3.3-2.2 5.3-2.2h30v-7.5H52.7V0h45c0 2.1-.7 3.9-2.2 5.3-1.5 1.4-3.2 2.2-5.3 2.2h-30V15h37.5v22.5h-45zm52.5 0c0-2.1.7-3.8 2.2-5.3 1.5-1.5 3.3-2.2 5.3-2.2h30v-7.5h-37.5V0h45c0 2.1-.7 3.9-2.2 5.3-1.5 1.4-3.2 2.2-5.3 2.2h-30V15h37.5v22.5h-45zM1.1 48.7v-5.3c0-.2.1-.3.3-.3h2.3c.2 0 .3.1.3.3 0 .2-.1.3-.3.3h-2v1.8h1.5c.2 0 .3.1.3.3 0 .2-.1.3-.3.3H1.7v2.3h2c.2 0 .3.1.3.3 0 .2-.1.3-.3.3H1.4c-.2 0-.3-.1-.3-.3m11.4-1.2v-4.1c0-.2.1-.3.3-.3.2 0 .3.1.3.3v5.3c0 .2-.1.3-.3.3-.1 0-.2 0-.3-.1l-2.4-4.3v4.2c0 .2-.1.3-.3.3-.2 0-.3-.1-.3-.3v-5.3c0-.2.1-.3.3-.3.1 0 .2.1.3.2l2.4 4.1zm6.2 1.2v-5.3c0-.2.1-.3.3-.3h2.3c.2 0 .3.1.3.3 0 .2-.1.3-.3.3h-2v1.8h1.5c.2 0 .3.1.3.3 0 .2-.1.3-.3.3h-1.5v2.3h2c.2 0 .3.1.3.3 0 .2-.1.3-.3.3H19c-.2 0-.3-.1-.3-.3"/><path d="M29.7 46.5l1 2v.1c0 .1 0 .1-.1.2s-.1.1-.2.1-.2-.1-.3-.2L29 46.5h-1.3v2.1c0 .2-.1.3-.3.3-.2 0-.3-.1-.3-.3v-5.3c0-.2.1-.3.3-.3h1.5c.5 0 .9.2 1.2.5.3.3.5.8.5 1.2.1 1-.2 1.5-.9 1.8zm-1.9-2.8V46H29c.3 0 .6-.1.8-.3.2-.2.3-.5.3-.8 0-.3-.1-.6-.3-.8-.2-.2-.5-.3-.8-.3h-1.2v-.1z" fill-rule="nonzero"/><path d="M37.8 48.4h1.5V46h-.6c-.2 0-.3-.1-.3-.3 0-.2.1-.3.3-.3h.9c.2 0 .3.1.3.3v2.9c0 .2-.1.3-.3.3h-1.8c-.4 0-.8-.1-1-.4-.3-.3-.4-.6-.4-1v-2.9c0-.4.1-.8.4-1 .3-.3.6-.4 1-.4h1.8c.2 0 .3.1.3.3 0 .2-.1.3-.3.3h-1.8c-.2 0-.5.1-.6.3-.2.2-.3.4-.3.6v2.9c0 .2.1.5.3.6.1.1.3.2.6.2"/><path d="M48.9 47.2c0 .5-.2.9-.5 1.2-.3.3-.8.5-1.2.5-.5 0-.9-.2-1.2-.5-.3-.3-.5-.8-.5-1.2v-2.3c0-.5.2-.9.5-1.2.3-.3.8-.5 1.2-.5.5 0 .9.2 1.2.5.3.3.5.8.5 1.2v2.3zm-.6 0v-2.3c0-.3-.1-.6-.3-.8-.2-.2-.5-.3-.8-.3-.3 0-.6.1-.8.3-.2.2-.3.5-.3.8v2.3c0 .3.1.6.3.8.2.2.5.3.8.3.3 0 .6-.1.8-.3.2-.2.3-.5.3-.8z" fill-rule="nonzero"/><path d="M58 47.5c0 .4-.1.7-.4 1-.3.3-.6.4-1 .4-.7 0-1.4-.2-1.9-.6-.1-.1-.1-.1-.1-.2s0-.1.1-.2.1-.1.2-.1c0 0 .1 0 .2.1l.8.4c.2.1.5.1.8.1.2 0 .4-.1.6-.3.2-.2.3-.4.3-.6 0-.4-.2-.6-.5-.8l-1.6-.8c-.5-.3-.8-.7-.8-1.3 0-.4.1-.7.4-1 .3-.3.6-.4 1-.4.7 0 1.2.1 1.6.3.1.1.2.2.2.3 0 .1 0 .1-.1.2s-.1.1-.2.1h-.1c-.4-.2-.9-.3-1.3-.3-.2 0-.4.1-.6.3-.2.2-.3.4-.3.6 0 .4.2.6.5.8l1.6.8c.4.2.6.6.6 1.2"/><path d="M67.7 48.7c0 .2-.1.3-.3.3-.1 0-.2-.1-.3-.2l-.4-1.3h-2.1l-.4 1.3c0 .1-.1.2-.3.2-.2 0-.3-.1-.3-.3v-.1l1.7-5.2c.1-.2.2-.2.3-.2.1 0 .2.1.3.2l1.8 5.3c0-.1 0-.1 0 0zm-2-4.4l-.9 2.6h1.7l-.8-2.6z" fill-rule="nonzero"/><path d="M75.4 49c-.1 0-.2-.1-.3-.2l-1.7-5.3v-.1c0-.2.1-.3.3-.3.1 0 .2.1.3.2l1.5 4.4 1.5-4.4c0-.1.1-.2.3-.2.2 0 .3.1.3.3v.1l-1.7 5.3c-.3.1-.4.2-.5.2m7.6-.3v-5.3c0-.2.1-.3.3-.3h2.3c.2 0 .3.1.3.3 0 .2-.1.3-.3.3h-2v1.8h1.5c.2 0 .3.1.3.3 0 .2-.1.3-.3.3h-1.5v2.3h2c.2 0 .3.1.3.3 0 .2-.1.3-.3.3h-2.3c-.2 0-.3-.1-.3-.3m12-1.2c0 .4-.1.7-.4 1-.3.3-.6.4-1 .4-.7 0-1.4-.2-1.9-.6-.1-.1-.1-.1-.1-.2s0-.1.1-.2.1-.1.2-.1c0 0 .1 0 .2.1l.8.4c.2.1.5.1.8.1.2 0 .4-.1.6-.3.2-.2.3-.4.3-.6 0-.4-.2-.6-.5-.8l-1.6-.8c-.5-.3-.8-.7-.8-1.3 0-.4.1-.7.4-1 .3-.3.6-.4 1-.4.7 0 1.2.1 1.6.3.1.1.2.2.2.3 0 .1 0 .1-.1.2s-.1.1-.2.1h-.1c-.4-.2-.9-.3-1.3-.3-.2 0-.4.1-.6.3-.2.2-.3.4-.3.6 0 .4.2.6.5.8l1.6.8c.4.2.6.6.6 1.2m8-1.5v2.6c0 .2-.1.3-.3.3-.2 0-.3-.1-.3-.3V46l-1.7-2.5c0-.1-.1-.1-.1-.2 0-.2.1-.3.3-.3.1 0 .2 0 .2.1l1.5 2.2 1.5-2.2c.1-.1.1-.1.2-.1.2 0 .3.1.3.3 0 .1 0 .1-.1.2L103 46zm10.8 1.5c0 .4-.1.7-.4 1-.3.3-.6.4-1 .4-.7 0-1.4-.2-1.9-.6-.1-.1-.1-.1-.1-.2s0-.1.1-.2.1-.1.2-.1c0 0 .1 0 .2.1l.8.4c.2.1.5.1.8.1.2 0 .4-.1.6-.3.2-.2.3-.4.3-.6 0-.4-.2-.6-.5-.8l-1.6-.8c-.5-.3-.8-.7-.8-1.3 0-.4.1-.7.4-1 .3-.3.6-.4 1-.4.7 0 1.2.1 1.6.3.1.1.2.2.2.3 0 .1 0 .1-.1.2s-.1.1-.2.1h-.1c-.4-.2-.9-.3-1.3-.3-.2 0-.4.1-.6.3-.2.2-.3.4-.3.6 0 .4.2.6.5.8l1.6.8c.4.2.6.6.6 1.2m5.6-4.1c0-.2.1-.3.3-.3h2.9c.2 0 .3.1.3.3 0 .2-.1.3-.3.3h-1.2v5c0 .2-.1.3-.3.3-.2 0-.3-.1-.3-.3v-5h-1.2c-.1 0-.2-.1-.2-.3m9.1 5.3v-5.3c0-.2.1-.3.3-.3h2.3c.2 0 .3.1.3.3 0 .2-.1.3-.3.3h-2v1.8h1.5c.2 0 .3.1.3.3 0 .2-.1.3-.3.3h-1.5v2.3h2c.2 0 .3.1.3.3 0 .2-.1.3-.3.3h-2.3c-.2 0-.3-.1-.3-.3m12.4-5.6c.2 0 .3.1.3.3v5.3c0 .2-.1.3-.3.3-.2 0-.3-.1-.3-.3v-4.3l-1.2 1.8c-.1.1-.2.2-.3.2-.1 0-.2-.1-.3-.2l-1.2-1.8v4.3c0 .2-.1.3-.3.3-.2 0-.3-.1-.3-.3v-5.3c0-.2.1-.3.3-.3.1 0 .2 0 .3.1l1.5 2.3 1.5-2.3c.1-.1.2-.1.3-.1m9.4 4.4c0 .4-.1.7-.4 1-.3.3-.6.4-1 .4-.7 0-1.4-.2-1.9-.6-.1-.1-.1-.1-.1-.2s0-.1.1-.2.1-.1.2-.1c0 0 .1 0 .2.1l.8.4c.2.1.5.1.8.1.2 0 .4-.1.6-.3.2-.2.3-.4.3-.6 0-.4-.2-.6-.5-.8l-1.6-.8c-.5-.3-.8-.7-.8-1.3 0-.4.1-.7.4-1 .3-.3.6-.4 1-.4.7 0 1.2.1 1.6.3.1.1.2.2.2.3 0 .1 0 .1-.1.2s-.1.1-.2.1h-.1c-.4-.2-.9-.3-1.3-.3-.2 0-.4.1-.6.3-.2.2-.3.4-.3.6 0 .4.2.6.5.8l1.6.8c.3.2.6.6.6 1.2"/></g></svg>