<svg width="73" height="20" viewBox="0 0 73 20" xmlns="http://www.w3.org/2000/svg"><title>Group 8</title><g fill="none" fill-rule="evenodd"><g fill="#000"><path d="M4.92 5.384c-.998 0-1.854-.333-2.52-1.046-.665-.713-1.045-1.569-1.045-2.52H22.75c0 .999-.333 1.854-1.046 2.52-.714.666-1.522 1.046-2.52 1.046H4.92zm0 7.132c-.998 0-1.854-.333-2.52-1.046-.665-.713-1.045-1.569-1.045-2.52H22.75c0 .999-.333 1.854-1.046 2.52-.714.666-1.522 1.046-2.52 1.046H4.92zm0 7.132c-.998 0-1.854-.333-2.52-1.046-.665-.713-1.045-1.569-1.045-2.52H22.75c0 .999-.333 1.854-1.046 2.52-.714.666-1.522 1.046-2.52 1.046H4.92z" fill-rule="nonzero"/><path d="M26.269 19.648c0-.998.333-1.807 1.046-2.52a3.45 3.45 0 0 1 2.52-1.046h14.264v-3.566h-17.83V1.818h21.396c0 .999-.333 1.854-1.046 2.52-.713.666-1.522 1.046-2.52 1.046H29.835V8.95h17.83v10.698H26.269zm24.961 0c0-.998.334-1.807 1.047-2.52a3.45 3.45 0 0 1 2.52-1.046H69.06v-3.566H51.23V1.818h21.396c0 .999-.333 1.854-1.046 2.52-.714.666-1.522 1.046-2.52 1.046H54.797V8.95h17.83v10.698H51.23z"/></g><g fill="#FFF"><path d="M3.709 3.566c-.999 0-1.855-.333-2.52-1.046C.523 1.807.143.95.143 0h21.395c0 .998-.332 1.854-1.046 2.52-.713.666-1.521 1.046-2.52 1.046H3.71zm0 7.132c-.999 0-1.855-.333-2.52-1.046C.523 8.939.143 8.082.143 7.132h21.395c0 .998-.332 1.854-1.046 2.52-.713.666-1.521 1.046-2.52 1.046H3.71zm0 7.132c-.999 0-1.855-.333-2.52-1.046-.666-.713-1.046-1.57-1.046-2.52h21.395c0 .998-.332 1.854-1.046 2.52-.713.665-1.521 1.046-2.52 1.046H3.71z" fill-rule="nonzero"/><path d="M25.057 17.83c0-.999.333-1.807 1.046-2.52a3.45 3.45 0 0 1 2.52-1.046h14.264v-3.566h-17.83V0h21.396c0 .998-.333 1.854-1.046 2.52-.714.666-1.522 1.046-2.52 1.046H28.623v3.566h17.83V17.83H25.057zm24.962 0c0-.999.333-1.807 1.046-2.52a3.45 3.45 0 0 1 2.52-1.046h14.264v-3.566h-17.83V0h21.396c0 .998-.333 1.854-1.047 2.52-.713.666-1.521 1.046-2.52 1.046H53.586v3.566h17.83V17.83H50.019z"/></g></g></svg>