<svg width="37" height="20" viewBox="0 0 37 20" xmlns="http://www.w3.org/2000/svg"><title>eye (2)</title><g fill="#FFF" fill-rule="evenodd"><path d="M18.432 19.942c-4.145 0-8.607-1.606-12.902-4.646C2.32 13.024.337 10.773.254 10.678a1.026 1.026 0 0 1 0-1.353C.337 9.231 2.32 6.98 5.53 4.707 9.825 1.667 14.287.061 18.432.061c4.146 0 8.607 1.607 12.902 4.646 3.211 2.272 5.193 4.523 5.276 4.618.34.388.34.965 0 1.353-.083.095-2.065 2.346-5.276 4.618-4.295 3.04-8.756 4.646-12.902 4.646zm-15.96-9.94a32.82 32.82 0 0 0 4.31 3.642c2.739 1.93 6.982 4.232 11.65 4.232s8.912-2.301 11.65-4.232a32.823 32.823 0 0 0 4.31-3.642 32.815 32.815 0 0 0-4.31-3.642c-2.738-1.931-6.982-4.233-11.65-4.233S9.521 4.43 6.782 6.36a32.81 32.81 0 0 0-4.31 3.642z" fill-rule="nonzero"/><path d="M18.432 16.407c-3.564 0-6.463-2.874-6.463-6.405 0-3.532 2.9-6.405 6.463-6.405 1.568 0 3.08.563 4.257 1.586.433.376.477 1.028.098 1.457a1.05 1.05 0 0 1-1.471.097 4.397 4.397 0 0 0-2.884-1.074c-2.414 0-4.378 1.946-4.378 4.339 0 2.392 1.964 4.339 4.378 4.339S22.81 12.394 22.81 10c0-.57.467-1.032 1.043-1.032.576 0 1.042.462 1.042 1.033 0 3.531-2.899 6.405-6.463 6.405z"/><path d="M18.432 12.068a2.078 2.078 0 0 1-2.085-2.066c0-1.14.936-2.066 2.085-2.066 1.15 0 2.085.926 2.085 2.066a2.078 2.078 0 0 1-2.085 2.066z"/></g></svg>