<svg width="94" height="35" viewBox="0 0 94 35" xmlns="http://www.w3.org/2000/svg"><title>ford-logo-flat</title><g fill="#FFF" fill-rule="evenodd"><path d="M46.642 2.87c-23.817 0-43.12 6.581-43.12 14.637 0 8.053 19.303 14.635 43.12 14.635 23.817 0 43.12-6.582 43.12-14.635 0-8.052-19.307-14.638-43.12-14.638zm-22.15 24.257c-2.544.015-4.79-1.556-5.048-4.284a5.507 5.507 0 0 1 1.138-3.962c.758-.99 2.045-1.806 3.13-2.008.351-.067.825-.026 1.023.21.31.357.22.75-.086.91-.828.421-1.828 1.145-2.32 2.134a2.62 2.62 0 0 0 .13 2.709c1.022 1.545 3.877 1.586 6.526-.877a22.908 22.908 0 0 0 1.84-1.87c1.168-1.335 1.556-1.824 3.108-3.977.015-.026.026-.06.015-.071-.011-.03-.034-.034-.079-.041-1.033.034-1.94.343-2.817.996-.25.183-.615.157-.776-.082-.175-.276-.048-.634.243-.836 1.41-.985 2.955-1.16 4.53-1.425 0 0 .108 0 .201-.112.646-.836 1.134-1.582 1.825-2.418.697-.85 1.593-1.634 2.276-2.224.959-.82 1.574-1.097 2.194-1.44.168-.082-.023-.187-.071-.187-3.485-.656-7.1-1.503-10.56-.22-2.395.892-3.448 2.795-2.94 4.064.358.903 1.545 1.044 2.653.5a5.98 5.98 0 0 0 2.377-2.112c.332-.523 1.048-.146.664.757-1.015 2.377-2.944 4.265-5.299 4.343-2.007.068-3.298-1.41-3.294-3.227.007-3.59 4.003-5.948 8.197-6.302 5.056-.418 9.847.929 14.866 1.54 3.847.463 7.534.475 11.403-.417.459-.097.776.198.75.656-.041.668-.56 1.31-1.832 2.004-1.448.799-2.963 1.038-4.549 1.052-3.82.034-7.384-1.459-11.074-2.26.004.163.048.354-.082.458-2.045 1.504-3.892 3.034-5.13 5.183-.042.049-.016.1.055.093 1.075-.056 2.041-.082 3.045-.168.172-.01.179-.056.168-.182a2.492 2.492 0 0 1 .776-2.165c.668-.597 1.504-.668 2.056-.235.627.49.57 1.373.227 2.03a2.443 2.443 0 0 1-1.485 1.205s-.115.027-.1.131c.022.168.78.59.843.701.063.109.03.273-.082.396a.479.479 0 0 1-.366.175c-.13 0-.209-.044-.377-.138-.399-.212-.75-.5-1.044-.843-.101-.12-.15-.127-.389-.108a71.01 71.01 0 0 0-3.921.366c-.28.033-.321.085-.377.182-1.828 3.012-3.78 6.262-5.925 8.44-2.295 2.325-4.206 2.937-6.235 2.956zm49.549-14.642v-.004c-.358.612-7.187 11.015-7.62 12.086-.137.347-.152.605-.01.791.358.482 1.152.202 1.652-.145 1.478-1.023 2.504-2.254 3.642-3.336.064-.045.176-.067.25 0 .168.157.414.358.579.533.082.086.048.172.007.22-1.108 1.355-2.336 2.639-3.511 3.542-1.829 1.414-3.65 1.776-4.552.873a1.998 1.998 0 0 1-.541-1.232c-.012-.22-.127-.235-.228-.13-1.082 1.067-2.955 2.246-4.657 1.41-1.425-.709-1.757-2.406-1.489-3.84.008-.03-.026-.234-.201-.111a4.812 4.812 0 0 1-1.168.627 3.32 3.32 0 0 1-1.418.302 2.025 2.025 0 0 1-1.754-.985c-.25-.373-.347-.933-.376-1.343 0-.045-.06-.131-.127-.023-1.165 1.773-2.25 3.493-3.4 5.299-.06.082-.112.138-.235.145h-2.276c-.142 0-.209-.108-.134-.242.41-.784 2.62-4.004 4.123-6.75.414-.754.328-1.142.07-1.31-.32-.209-.958.104-1.503.519-1.474 1.115-2.713 2.854-3.336 3.634-.373.455-.72 1.134-1.686 2.179-1.519 1.653-3.534 2.6-5.474 1.944a3.297 3.297 0 0 1-2.12-2.257c-.06-.202-.175-.258-.283-.127-.314.392-.955.966-1.489 1.332-.06.04-.205.13-.328.067a3.332 3.332 0 0 1-.59-.776.27.27 0 0 1 .064-.31c.768-.671 1.186-1.056 1.518-1.474a4.55 4.55 0 0 0 .664-1.227c.463-1.176 1.527-3.37 3.642-4.508.81-.429 1.627-.742 2.538-.847.388-.04.709.004.824.314l.22.608c.041.127.008.22-.138.276-1.246.474-2.5 1.209-3.365 2.37-.982 1.317-1.243 2.899-.59 3.81.481.663 1.258.779 2 .54 1.13-.354 2.09-1.41 2.586-2.578a6.204 6.204 0 0 0 .228-4.112c-.068-.228-.008-.403.141-.53.303-.246.713-.433.836-.496a.546.546 0 0 1 .71.171c.432.713.66 1.53.656 2.366.03.187.108.19.198.093.738-.783 1.425-1.623 2.212-2.253.717-.571 1.638-1.038 2.5-1.02 1.108.027 1.664.78 1.627 2.124-.004.168.116.157.202.041.257-.388.57-.735.932-1.026.77-.634 1.556-.918 2.374-.858a1.796 1.796 0 0 1 1.653 2.045 2.062 2.062 0 0 1-1.094 1.578c-.53.261-1.142.216-1.574-.168a1.306 1.306 0 0 1-.377-1.25c.022-.097-.105-.187-.21-.078-.988 1.026-1.059 2.358-.417 2.955.713.66 1.776.216 2.556-.287 1.425-.933 2.53-2.195 3.806-3.168.85-.642 1.813-1.213 2.9-1.366a3.357 3.357 0 0 1 1.764.209c.776.313 1.269.966 1.332 1.533.011.168.142.187.243.042.612-.96 3.91-5.896 4.179-6.41.078-.165.171-.187.347-.187h2.358c.138-.004.198.074.138.186z" fill-rule="nonzero"/><path d="M64.832 18.903c-.81-.388-2.048.328-3.172 1.705-.917 1.13-1.417 2.276-1.436 3.4-.004.395.145.888.496 1.07.791.415 1.746-.205 2.44-.776.456-.377.836-.765 1.168-1.265.362-.54.627-.903.918-1.518.041-.086.026-.112-.015-.127-.1-.038-.205-.112-.216-.198a.227.227 0 0 1 .015-.157c.377-.757.645-1.727-.198-2.134z"/><path d="M46.642.007C20.754.007 0 7.77 0 17.497c0 9.67 20.925 17.492 46.642 17.492 25.72 0 46.642-7.847 46.642-17.493C93.284 7.851 72.362.007 46.642.007zm0 33.46c-24.687 0-44.694-7.146-44.694-15.96 0-8.82 20.007-15.962 44.694-15.962 24.679 0 44.69 7.142 44.69 15.962 0 8.814-20.011 15.96-44.69 15.96z" fill-rule="nonzero"/><path d="M41.903 13.739c.03.153.093.183.164.168.388-.105.728-.351.952-.683.209-.302.306-.735.1-.91-.182-.154-.48-.113-.701.082-.384.335-.575.84-.515 1.343z"/></g></svg>