<svg width="100" height="32" viewBox="0 0 100 32" xmlns="http://www.w3.org/2000/svg"><title>google white</title><g fill="#FFF" fill-rule="evenodd"><path d="M12.547 11.313v3.355h8.038c-.253 1.883-.87 3.26-1.835 4.24-1.17 1.171-3.006 2.453-6.203 2.453-4.936 0-8.813-3.988-8.813-8.924 0-4.937 3.86-8.924 8.813-8.924 2.659 0 4.62 1.044 6.045 2.405l2.357-2.358C18.956 1.614 16.282.142 12.532.142 5.759.142.063 5.665.063 12.437S5.76 24.73 12.532 24.73c3.655 0 6.424-1.203 8.576-3.434 2.215-2.215 2.911-5.332 2.911-7.848 0-.775-.047-1.503-.174-2.104l-11.298-.032z"/><path d="M34.082 8.576c-4.383 0-7.959 3.339-7.959 7.927 0 4.557 3.576 7.927 7.96 7.927 4.382 0 7.958-3.354 7.958-7.927 0-4.588-3.576-7.927-7.959-7.927zm0 12.737c-2.405 0-4.478-1.978-4.478-4.81 0-2.848 2.073-4.81 4.478-4.81s4.478 1.946 4.478 4.81c0 2.832-2.073 4.81-4.478 4.81zm39.019-10.965h-.126c-.776-.933-2.279-1.772-4.178-1.772-3.955 0-7.42 3.45-7.42 7.927 0 4.446 3.449 7.927 7.42 7.927 1.9 0 3.402-.854 4.178-1.803h.126v1.107c0 3.038-1.63 4.652-4.24 4.652-2.136 0-3.45-1.535-4.003-2.832l-3.038 1.25c.87 2.104 3.18 4.683 7.025 4.683 4.082 0 7.532-2.405 7.532-8.26V8.957H73.1v1.392zm-4.003 10.965c-2.405 0-4.24-2.04-4.24-4.81 0-2.8 1.835-4.81 4.24-4.81 2.374 0 4.24 2.041 4.24 4.842.016 2.785-1.85 4.778-4.24 4.778zM51.835 8.576c-4.382 0-7.958 3.339-7.958 7.927 0 4.557 3.576 7.927 7.958 7.927 4.383 0 7.96-3.354 7.96-7.927 0-4.588-3.577-7.927-7.96-7.927zm0 12.737c-2.405 0-4.477-1.978-4.477-4.81 0-2.848 2.072-4.81 4.477-4.81 2.406 0 4.478 1.946 4.478 4.81 0 2.832-2.072 4.81-4.478 4.81z" fill-rule="nonzero"/><path d="M79.146.459h3.433v23.987h-3.433z"/><path d="M93.149 21.313c-1.772 0-3.038-.807-3.845-2.405l10.617-4.383-.348-.902c-.649-1.772-2.674-5.047-6.788-5.047-4.082 0-7.484 3.212-7.484 7.927 0 4.446 3.354 7.927 7.864 7.927 3.639 0 5.727-2.23 6.613-3.512l-2.705-1.804c-.918 1.329-2.136 2.2-3.924 2.2zm-.238-9.762c1.409 0 2.611.727 3.007 1.74L88.75 16.25c0-3.323 2.358-4.7 4.161-4.7z" fill-rule="nonzero"/></g></svg>