<svg width="120" height="120" viewBox="0 0 120 120" xmlns="http://www.w3.org/2000/svg"><title>guarantee</title><g fill="#FFF" fill-rule="evenodd" opacity=".5"><path d="M114.836 50.037l-1.54-1.153a5.163 5.163 0 0 1-1.657-6.181l.759-1.768a12.195 12.195 0 0 0-.655-10.993 12.192 12.192 0 0 0-9.193-6.062l-1.91-.229a5.162 5.162 0 0 1-4.525-4.525l-.228-1.91a12.195 12.195 0 0 0-6.062-9.192 12.19 12.19 0 0 0-10.993-.655l-1.769.758a5.162 5.162 0 0 1-6.181-1.657L69.73 4.93A12.192 12.192 0 0 0 59.883 0a12.192 12.192 0 0 0-9.846 4.93l-1.154 1.54a5.16 5.16 0 0 1-6.181 1.657l-1.768-.758a12.192 12.192 0 0 0-10.992.655 12.19 12.19 0 0 0-6.063 9.192l-.229 1.91a5.162 5.162 0 0 1-4.525 4.525l-1.91.229a12.19 12.19 0 0 0-9.192 6.062 12.192 12.192 0 0 0-.655 10.993l.758 1.768a5.162 5.162 0 0 1-1.657 6.181l-1.54 1.153A12.195 12.195 0 0 0 0 59.883c0 3.914 1.797 7.503 4.93 9.847l1.54 1.153a5.163 5.163 0 0 1 1.657 6.181l-.759 1.768a12.195 12.195 0 0 0 .655 10.993 12.192 12.192 0 0 0 9.193 6.062l1.91.229a5.162 5.162 0 0 1 4.525 4.525l.228 1.91a12.195 12.195 0 0 0 6.063 9.192 12.195 12.195 0 0 0 10.992.655l1.769-.758a5.162 5.162 0 0 1 6.181 1.657l1.153 1.54a12.194 12.194 0 0 0 9.847 4.93c3.913 0 7.502-1.797 9.846-4.93l1.153-1.54a5.161 5.161 0 0 1 6.182-1.656l1.768.757a12.195 12.195 0 0 0 10.992-.654 12.198 12.198 0 0 0 6.063-9.193l.228-1.91a5.162 5.162 0 0 1 4.525-4.525l1.91-.228a12.197 12.197 0 0 0 9.193-6.063 12.194 12.194 0 0 0 .654-10.993l-.757-1.767a5.162 5.162 0 0 1 1.657-6.182l1.54-1.153a12.193 12.193 0 0 0 4.929-9.846 12.2 12.2 0 0 0-4.93-9.847zm-2.803 15.948l-1.54 1.152a9.826 9.826 0 0 0-3.153 11.77l.757 1.767a7.557 7.557 0 0 1-.405 6.811 7.555 7.555 0 0 1-5.696 3.758l-1.91.227a9.827 9.827 0 0 0-8.616 8.617l-.228 1.91a7.557 7.557 0 0 1-3.757 5.696 7.557 7.557 0 0 1-6.81.405l-1.769-.758a9.828 9.828 0 0 0-11.77 3.154l-1.152 1.54a7.557 7.557 0 0 1-6.101 3.055 7.558 7.558 0 0 1-6.102-3.055l-1.152-1.54a9.825 9.825 0 0 0-11.77-3.154l-1.767.758a7.559 7.559 0 0 1-6.812-.405 7.557 7.557 0 0 1-3.757-5.696l-.227-1.91a9.827 9.827 0 0 0-8.617-8.616l-1.91-.228a7.557 7.557 0 0 1-5.696-3.757 7.557 7.557 0 0 1-.405-6.81l.758-1.769a9.829 9.829 0 0 0-3.153-11.77l-1.54-1.152a7.557 7.557 0 0 1-3.055-6.102 7.555 7.555 0 0 1 3.055-6.101l1.54-1.152a9.827 9.827 0 0 0 3.153-11.77l-.757-1.768a7.557 7.557 0 0 1 .405-6.811 7.557 7.557 0 0 1 5.696-3.757l1.91-.228a9.826 9.826 0 0 0 8.616-8.616l.228-1.91a7.557 7.557 0 0 1 3.757-5.696 7.554 7.554 0 0 1 6.81-.405l1.769.757a9.828 9.828 0 0 0 11.77-3.153l1.152-1.54a7.557 7.557 0 0 1 6.101-3.055 7.557 7.557 0 0 1 6.101 3.055l1.153 1.54a9.826 9.826 0 0 0 11.77 3.154l1.767-.758a7.557 7.557 0 0 1 6.811.405 7.554 7.554 0 0 1 3.757 5.696l.228 1.91a9.827 9.827 0 0 0 8.616 8.616l1.91.228a7.557 7.557 0 0 1 5.696 3.757 7.557 7.557 0 0 1 .406 6.81l-.758 1.769a9.827 9.827 0 0 0 3.153 11.77l1.54 1.152a7.555 7.555 0 0 1 3.055 6.102 7.555 7.555 0 0 1-3.055 6.101z" fill-rule="nonzero"/><path d="M59.883 13.596c-7.057 0-13.833 1.547-20.14 4.6a2.34 2.34 0 1 0 2.038 4.21c5.666-2.741 11.756-4.132 18.102-4.132 22.943 0 41.61 18.666 41.61 41.61 0 22.943-18.667 41.61-41.61 41.61-22.944 0-41.61-18.667-41.61-41.61 0-9.398 3.056-18.265 8.84-25.643a2.34 2.34 0 0 0-3.683-2.887c-6.433 8.211-9.834 18.076-9.834 28.53 0 25.523 20.764 46.287 46.287 46.287s46.288-20.764 46.288-46.287c0-25.524-20.765-46.288-46.288-46.288z"/><path d="M25.682 47.973L23.9 50.245a2.339 2.339 0 1 0 3.68 2.887l.979-1.246v15.47h-1.566a2.339 2.339 0 1 0 0 4.679h7.73a2.34 2.34 0 0 0 0-4.678h-1.486v-17.94a2.34 2.34 0 0 0-2.339-2.34h-3.376c-.718 0-1.397.33-1.84.896z"/><path d="M44.48 72.035h1.214a7.013 7.013 0 0 0 7.006-7.006V53.691c0-3.864-3.143-7.007-7.006-7.007H44.48c-3.863 0-7.005 3.143-7.005 7.007v11.338a7.013 7.013 0 0 0 7.005 7.006zM42.151 53.69a2.33 2.33 0 0 1 2.327-2.329h1.215a2.33 2.33 0 0 1 2.328 2.329v11.338a2.33 2.33 0 0 1-2.328 2.328H44.48a2.33 2.33 0 0 1-2.327-2.328V53.691zM63.33 72.035a7.013 7.013 0 0 0 7.006-7.006V53.691c0-3.864-3.143-7.007-7.005-7.007h-1.216c-3.863 0-7.005 3.143-7.005 7.007v11.338a7.013 7.013 0 0 0 7.005 7.006h1.216zm-3.542-7.006V53.691a2.33 2.33 0 0 1 2.327-2.329h1.216a2.33 2.33 0 0 1 2.327 2.329v11.338a2.33 2.33 0 0 1-2.327 2.328h-1.216a2.33 2.33 0 0 1-2.327-2.328z" fill-rule="nonzero"/><path d="M94.222 46.4a2.34 2.34 0 0 0-3.267.516l-14.863 20.44a2.338 2.338 0 1 0 3.784 2.75l14.863-20.439a2.34 2.34 0 0 0-.517-3.267zm-55.408-8.908a2.33 2.33 0 0 0 1.537-.577 29.685 29.685 0 0 1 19.532-7.323c6.725 0 13.067 2.192 18.342 6.336a2.339 2.339 0 1 0 2.89-3.677c-6.107-4.8-13.449-7.337-21.232-7.337-8.32 0-16.35 3.01-22.609 8.477a2.339 2.339 0 0 0 1.54 4.1zm-.43 48.865c6.105 4.799 13.448 7.335 21.231 7.335 5.4 0 10.57-1.217 15.368-3.616a2.34 2.34 0 0 0-2.094-4.184c-4.14 2.072-8.607 3.122-13.274 3.122-6.724 0-13.067-2.19-18.341-6.336a2.34 2.34 0 0 0-2.89 3.679zm44.47-4.001a2.365 2.365 0 0 0-2.4-.995 2.363 2.363 0 0 0-1.864 1.989 2.362 2.362 0 0 0 1.217 2.367 2.362 2.362 0 0 0 2.65-.306c.873-.768 1.028-2.09.397-3.055z"/><path d="M78.882 45.953a5.511 5.511 0 0 0-5.505 5.504 5.512 5.512 0 0 0 5.505 5.506 5.512 5.512 0 0 0 5.505-5.506 5.51 5.51 0 0 0-5.505-5.504zm0 6.331a.828.828 0 0 1 0-1.654.827.827 0 0 1 0 1.654zm7.478 13.43a5.512 5.512 0 0 0 5.505 5.505 5.512 5.512 0 0 0 5.505-5.505 5.512 5.512 0 0 0-5.505-5.506 5.512 5.512 0 0 0-5.504 5.506zm6.332 0a.827.827 0 1 1-1.654 0 .827.827 0 0 1 1.654 0z" fill-rule="nonzero"/><path d="M30.286 26.539a2.36 2.36 0 0 0 2.273 1.44 2.36 2.36 0 0 0 2.111-1.62 2.356 2.356 0 0 0-.801-2.57 2.367 2.367 0 0 0-2.722-.09c-.923.61-1.278 1.823-.861 2.84z"/></g></svg>