<svg width="120" height="120" viewBox="0 0 120 120" xmlns="http://www.w3.org/2000/svg"><title>price (1)</title><g fill="#FFF" fill-rule="evenodd"><path d="M36.024 32.3c.403 0 .806-.166 1.09-.45.285-.285.451-.688.451-1.091s-.166-.806-.45-1.091a1.564 1.564 0 0 0-1.091-.45c-.403 0-.807.165-1.091.45-.285.285-.45.688-.45 1.09 0 .404.165.807.45 1.092.284.284.688.45 1.09.45z"/><path d="M119.43 9.794l-3.51-3.533 3.51-3.51a1.56 1.56 0 0 0 0-2.182 1.56 1.56 0 0 0-2.181 0l-3.51 3.51-3.486-3.462a1.564 1.564 0 0 0-1.09-.451L69.035.142a10.92 10.92 0 0 0-7.803 3.226l-20.04 20.04c-.284.284-.45.687-.45 1.09s.166.806.45 1.09a1.56 1.56 0 0 0 2.182 0L63.415 5.55a7.932 7.932 0 0 1 5.62-2.324l39.51.024 3.036 3.036-9.866 9.841-.545-.332c-3.51-2.086-7.968-1.541-10.838 1.329a8.827 8.827 0 0 0-2.609 6.284c0 2.372.925 4.6 2.609 6.285a8.827 8.827 0 0 0 6.285 2.608 8.83 8.83 0 0 0 6.284-2.608 8.893 8.893 0 0 0 1.352-10.838l-.332-.546 9.842-9.842 3.06 3.06-.025 39.438c0 2.135-.83 4.127-2.324 5.621L56.61 114.451a7.932 7.932 0 0 1-5.62 2.324 7.93 7.93 0 0 1-5.621-2.324L5.526 74.656a7.932 7.932 0 0 1-2.324-5.62c0-2.111.83-4.127 2.324-5.621L31.09 37.85c.284-.285.45-.688.45-1.091s-.166-.806-.45-1.091a1.506 1.506 0 0 0-1.091-.45c-.403 0-.783.142-1.09.45L3.343 61.233a10.96 10.96 0 0 0-3.225 7.803 10.96 10.96 0 0 0 3.225 7.802l39.794 39.794a10.96 10.96 0 0 0 7.803 3.226 10.96 10.96 0 0 0 7.802-3.226l57.866-57.865a10.96 10.96 0 0 0 3.225-7.803l.024-40.079c.023-.403-.143-.782-.427-1.09zM100.697 27.51a5.799 5.799 0 0 1-4.103 1.707 5.701 5.701 0 0 1-4.103-1.707 5.799 5.799 0 0 1-1.707-4.103 5.7 5.7 0 0 1 1.707-4.103 5.799 5.799 0 0 1 4.103-1.707c.57 0 1.115.071 1.66.237l1.328.403-3.723 3.723a1.56 1.56 0 0 0 0 2.182c.284.285.687.45 1.09.45.404 0 .807-.165 1.092-.45l3.723-3.723.403 1.352a5.828 5.828 0 0 1-1.47 5.739z" fill-rule="nonzero"/><path d="M14.016 69.77c0 2.277.901 4.436 2.514 6.048l27.628 27.629a8.525 8.525 0 0 0 6.048 2.513 8.525 8.525 0 0 0 6.047-2.513l43.731-43.732a8.525 8.525 0 0 0 2.514-6.047 8.525 8.525 0 0 0-2.514-6.047L72.356 19.992a8.525 8.525 0 0 0-6.048-2.514c-2.3 0-4.434.878-6.047 2.514L16.53 63.723a8.525 8.525 0 0 0-2.514 6.048zm4.695-3.865l43.732-43.731a5.439 5.439 0 0 1 3.865-1.613c1.447 0 2.846.57 3.866 1.613l27.652 27.628a5.439 5.439 0 0 1 1.613 3.866c0 1.447-.57 2.846-1.613 3.866l-43.731 43.755a5.439 5.439 0 0 1-3.866 1.612 5.358 5.358 0 0 1-3.865-1.612L18.71 73.66a5.439 5.439 0 0 1-1.612-3.866c0-1.47.569-2.845 1.612-3.889z" fill-rule="nonzero"/><path d="M50.348 71.194c.403 0 .806-.166 1.09-.45l2.088-2.088.569.356c1.447.877 3.06 1.352 4.696 1.352 2.134 0 4.102-.807 5.549-2.253 3.178-3.178 2.964-8.538-.474-11.977l-.048-.047c-1.09-1.091-1.707-2.49-1.778-3.937-.072-1.423.403-2.703 1.351-3.628 1.898-1.897 5.123-1.779 7.352.237h.024l.237.237c2.23 2.23 2.443 5.644.474 7.613a1.56 1.56 0 0 0 0 2.182c.285.284.688.45 1.091.45s.806-.166 1.091-.45c2.632-2.633 2.988-6.854.878-10.27l-.356-.568 1.826-1.827c.284-.284.45-.687.45-1.09 0-.404-.166-.807-.45-1.091a1.56 1.56 0 0 0-2.182 0L72 45.77l-.57-.356c-3.414-2.11-7.636-1.731-10.268.877-1.565 1.566-2.348 3.676-2.253 5.977.119 2.229 1.067 4.363 2.727 6.023 2.23 2.23 2.443 5.645.475 7.613-1.969 1.969-5.384 1.755-7.613-.474-2.23-2.23-2.443-5.644-.474-7.613a1.56 1.56 0 0 0 0-2.182 1.506 1.506 0 0 0-1.091-.45c-.403 0-.783.142-1.091.45-2.633 2.633-2.988 6.854-.878 10.27l.356.568-2.087 2.087a1.56 1.56 0 0 0 0 2.182c.309.308.688.45 1.115.45zm-.498 17.62c.284.285.688.45 1.09.45.404 0 .807-.165 1.092-.45a1.56 1.56 0 0 0 0-2.182l-12.19-12.166a1.56 1.56 0 0 0-2.182 0 1.56 1.56 0 0 0 0 2.182l12.19 12.166zM32.253 70.6c.403 0 .806-.165 1.09-.45.285-.284.451-.688.451-1.09 0-.404-.166-.807-.45-1.092a1.564 1.564 0 0 0-1.091-.45c-.403 0-.806.166-1.09.45-.286.285-.452.688-.452 1.091s.166.807.451 1.091c.308.285.688.45 1.091.45z"/></g></svg>