<svg width="120" height="108" viewBox="0 0 120 108" xmlns="http://www.w3.org/2000/svg"><title>contract (2)</title><g fill="#FFF" fill-rule="evenodd"><path d="M107.346 0H29.749c-6.734 0-12.213 5.41-12.213 12.04l-.5 68.112H1.893C.82 80.152 0 81.098 0 82.168v9.374c0 8.775 7.045 15.952 15.547 16.345V108H80.89v-.127c.486.02.78.127 1.114.127h.046c9.068-.053 16.377-7.42 16.33-16.46V31.964h19.726c1.073 0 1.893-.968 1.893-2.037v-17.2C120.012 5.737 114.358.05 107.346 0zm-90.95 104.126h-.013c-6.912 0-12.496-5.696-12.496-12.586v-7.513h61.7v7.481a16.37 16.37 0 0 0 4.801 11.635c.329.329.672.498 1.023.983H16.397zm78.098-12.588c0 6.892-5.53 12.588-12.446 12.588h-.04c-6.95-.05-12.55-5.69-12.534-12.617v-9.34a2.01 2.01 0 0 0-1.944-2.017H20.923l.5-68.1c0-4.505 3.735-8.178 8.326-8.178h68.422c-2.215 2.422-3.677 5.486-3.677 8.905v78.76zm21.62-78.777V28.09H98.38V12.775c0-4.848 4.046-8.9 8.908-8.9h.054c4.874.048 8.793 4.012 8.77 8.872v.014z" fill-rule="nonzero"/><path d="M45.633 47.683l10.02 6.829a1.918 1.918 0 0 0 2.171 0l9.99-6.827c3.47-2.36 6.032-7.294 6.032-11.478V22.392a1.893 1.893 0 0 0-1.036-1.74l-15.255-7.48a1.915 1.915 0 0 0-1.699 0l-15.227 7.46a1.89 1.89 0 0 0-1.034 1.739v13.836c0 4.184 2.569 9.118 6.038 11.476zM43.482 23.58l13.239-6.512 13.239 6.53v12.61c0 2.918-1.92 6.63-4.34 8.274l-8.922 6.083-8.887-6.082c-2.421-1.647-4.33-5.357-4.33-8.276V23.58z" fill-rule="nonzero"/><path d="M53.434 39.132c.362.37.857.578 1.376.581h.004a1.949 1.949 0 0 0 1.374-.573l7.73-7.71a1.931 1.931 0 0 0 .002-2.74 1.947 1.947 0 0 0-2.75-.002l-6.349 6.33-2.538-2.555a1.948 1.948 0 0 0-2.75-.013 1.935 1.935 0 0 0-.013 2.742l3.914 3.94zM80.89 60.054H34.252a1.94 1.94 0 0 0-1.943 1.937c0 1.07.87 1.937 1.943 1.937h46.64a1.94 1.94 0 0 0 1.943-1.937 1.94 1.94 0 0 0-1.943-1.937zm0 8.959H34.252a1.94 1.94 0 0 0-1.943 1.938c0 1.07.87 1.937 1.943 1.937h46.64a1.94 1.94 0 0 0 1.943-1.937 1.94 1.94 0 0 0-1.943-1.938z"/></g></svg>