<svg width="120" height="120" viewBox="0 0 120 120" xmlns="http://www.w3.org/2000/svg"><title>energy (1)</title><path d="M118.013 75.113h-2.062V64.805a5.25 5.25 0 0 0-4.246-5.154L76.84 50.037V36.01h10.131c.97 0 1.755-.784 1.755-1.75 0-.968-.786-1.752-1.755-1.752h-10.13v-8.612l34.157 6.117a1.75 1.75 0 0 1 1.444 1.723v.772H93.99c-.97 0-1.755.784-1.755 1.751 0 .967.786 1.751 1.755 1.751h18.453v6.034h-2.062c-.969 0-1.754.784-1.754 1.751 0 .967.785 1.751 1.754 1.751h7.633a1.752 1.752 0 1 0 0-3.502h-2.062V31.736a5.25 5.25 0 0 0-4.333-5.17L76.84 20.338v-3.803a6.404 6.404 0 0 0-2.282-4.906L61.922.98a3.154 3.154 0 0 0-4.075 0L45.21 11.63a6.402 6.402 0 0 0-2.283 4.906v3.803L8.151 26.566a5.25 5.25 0 0 0-4.333 5.17v10.308H1.756c-.97 0-1.755.784-1.755 1.751 0 .967.786 1.751 1.755 1.751h7.632a1.752 1.752 0 1 0 0-3.502H7.326V36.01h35.602v14.027L8.064 59.651a5.25 5.25 0 0 0-4.246 5.154v10.308H1.756c-.97 0-1.755.784-1.755 1.751 0 .967.786 1.75 1.755 1.75h7.632a1.751 1.751 0 1 0 0-3.501H7.326v-6.034h34.878l-6.252 17.685a1.75 1.75 0 0 0 1.07 2.234 1.763 1.763 0 0 0 2.239-1.069l2.99-8.461 14.523 9.526-23.248 15.158 3.623-10.25a1.754 1.754 0 0 0-3.309-1.165l-4.934 13.958h-.835a4.094 4.094 0 0 0-4.093 4.086v4.902a4.094 4.094 0 0 0 4.093 4.086h63.626a4.094 4.094 0 0 0 4.094-4.086v-4.902a4.094 4.094 0 0 0-4.094-4.086h-.835L77.565 69.079h34.877v6.034h-2.062a1.751 1.751 0 0 0 0 3.501h7.633a1.751 1.751 0 1 0 0-3.501zm-75.085-9.536H7.326v-.772a1.75 1.75 0 0 1 1.445-1.723c.053-.01.105-.022.157-.036l34-9.376v11.907zm0-33.069H7.326v-.772a1.75 1.75 0 0 1 1.445-1.723l34.157-6.117v8.612zm3.51-15.973a2.91 2.91 0 0 1 1.037-2.23l12.41-10.459 12.41 10.459a2.91 2.91 0 0 1 1.037 2.23v3.517H46.437v-3.517zm0 7.019h26.894v8.954H46.437v-8.954zm21.965 26.065H51.366l8.518-4.794 8.519 4.794zM51.366 36.01h17.037l-8.519 4.794-8.518-4.794zm12.09 6.805l9.875-5.558v11.115l-9.875-5.557zm-17.019-5.558l9.876 5.558-9.876 5.557V37.257zm0 15.864h26.895v12.456H46.437V53.121zm-2.983 22.945l2.47-6.987h27.92l2.524 7.14-16.39 10.686-16.524-10.839zm16.518 15.026l23.786 15.603H36.04l23.93-15.603zm31.725 19.105c.322 0 .585.262.585.584v4.903a.585.585 0 0 1-.585.583H28.071a.585.585 0 0 1-.584-.583v-4.903c0-.322.262-.584.584-.584h63.626zM77.57 79.617l8.665 24.512-23.06-15.126 14.395-9.385zm34.872-14.04H76.84V53.67l34 9.376c.052.014.105.026.158.036a1.75 1.75 0 0 1 1.444 1.723v.772z" fill="#FFF"/></svg>