<svg width="191" height="120" viewBox="0 0 191 120" xmlns="http://www.w3.org/2000/svg"><title>Group</title><path d="M134.522 50.075h-1.372v-6.871a3.499 3.499 0 0 0-2.825-3.437l-23.198-6.409v-9.351h6.741a1.167 1.167 0 1 0 0-2.335h-6.74v-5.741l22.727 4.077c.557.1.96.583.96 1.15v.514h-12.278a1.167 1.167 0 1 0 0 2.335h12.279v4.022h-1.372a1.167 1.167 0 1 0 0 2.335h5.078a1.167 1.167 0 1 0 0-2.335h-1.372v-6.871a3.499 3.499 0 0 0-2.883-3.447l-23.14-4.152v-2.536a4.272 4.272 0 0 0-1.518-3.27L97.2.653a2.096 2.096 0 0 0-2.712 0l-8.407 7.1a4.271 4.271 0 0 0-1.519 3.27v2.536l-23.14 4.152a3.499 3.499 0 0 0-2.883 3.447v6.871h-1.372a1.167 1.167 0 1 0 0 2.335h5.079a1.167 1.167 0 1 0 0-2.335h-1.372v-4.022h23.688v9.351l-23.197 6.41a3.499 3.499 0 0 0-2.826 3.436v6.871h-1.372a1.167 1.167 0 1 0 0 2.335h5.079a1.167 1.167 0 1 0 0-2.335h-1.372v-4.022H84.08l-4.16 11.79a1.167 1.167 0 1 0 2.202.777l1.99-5.641 9.662 6.35-15.468 10.105 2.41-6.833a1.167 1.167 0 1 0-2.2-.776l-3.284 9.305h-.555a2.727 2.727 0 0 0-2.724 2.724v3.268a2.727 2.727 0 0 0 2.724 2.724h42.334a2.727 2.727 0 0 0 2.724-2.724v-3.268a2.727 2.727 0 0 0-2.724-2.724h-.555l-8.848-25.077h23.207v4.022h-1.372a1.167 1.167 0 1 0 0 2.335h5.078a1.167 1.167 0 1 0 0-2.335zm-49.959-6.357H60.875v-.514c0-.566.404-1.05.96-1.15.036-.006.071-.014.106-.023l22.622-6.25v7.937zm0-22.046H60.875v-.515c0-.566.404-1.049.961-1.149l22.727-4.077v5.741zm2.335-10.649c0-.574.252-1.116.69-1.486l8.257-6.973 8.257 6.973c.439.37.69.912.69 1.486v2.345H86.899v-2.345zm0 4.68h17.895v5.97H86.898v-5.97zm14.615 17.376H90.177l5.668-3.196 5.668 3.196zm-11.336-9.072h11.336l-5.668 3.196-5.668-3.196zm8.045 4.536l6.57-3.705v7.41l-6.57-3.705zm-11.324-3.705l6.57 3.705-6.57 3.705v-7.41zm0 10.576h17.895v8.304H86.898v-8.304zM84.913 50.71l1.643-4.658h18.578l1.68 4.76-10.907 7.124-10.994-7.226zm10.99 10.017L111.73 71.13H79.98l15.923-10.402zm21.11 12.737a.39.39 0 0 1 .389.389v3.268a.39.39 0 0 1-.39.39H74.678a.39.39 0 0 1-.39-.39v-3.268a.39.39 0 0 1 .39-.39h42.334zm-9.4-20.386l5.765 16.34-15.343-10.084 9.578-6.256zm23.203-9.36h-23.689V35.78l22.623 6.25c.034.01.07.018.104.024.557.1.962.584.962 1.15v.514zM58.892 97.556h-1.03v-5.153a2.624 2.624 0 0 0-2.118-2.577l-17.399-4.808v-7.013h5.056a.875.875 0 1 0 0-1.751h-5.056v-4.306l17.046 3.058c.418.075.72.438.72.862v.386h-9.208a.875.875 0 1 0 0 1.751h9.209v3.017h-1.03a.875.875 0 1 0 0 1.751h3.81a.875.875 0 1 0 0-1.75h-1.03v-5.155c0-1.273-.909-2.36-2.162-2.585l-17.355-3.114v-1.902c0-.947-.415-1.841-1.139-2.452l-6.305-5.325a1.572 1.572 0 0 0-2.034 0l-6.306 5.325a3.204 3.204 0 0 0-1.139 2.452v1.902L4.068 73.283a2.624 2.624 0 0 0-2.163 2.585v5.154H.876a.875.875 0 1 0 0 1.751h3.809a.875.875 0 1 0 0-1.75H3.656v-3.018h17.766v7.013L4.024 89.826a2.624 2.624 0 0 0-2.119 2.577v5.153H.876a.875.875 0 1 0 0 1.751h3.809a.875.875 0 1 0 0-1.75H3.656v-3.018h17.405l-3.12 8.843a.875.875 0 1 0 1.651.583l1.493-4.231 7.247 4.763-11.602 7.579 1.808-5.125a.875.875 0 1 0-1.65-.582l-2.463 6.978h-.417a2.045 2.045 0 0 0-2.042 2.043v2.452c0 1.126.916 2.042 2.042 2.042H45.76a2.045 2.045 0 0 0 2.043-2.042v-2.452a2.045 2.045 0 0 0-2.043-2.043h-.416L38.707 94.54h17.405v3.017h-1.03a.875.875 0 1 0 0 1.751h3.81a.875.875 0 1 0 0-1.75zm-37.47-4.767H3.656v-.386c0-.425.303-.787.72-.862a.9.9 0 0 0 .08-.018l16.966-4.688v5.954zm0-16.535H3.656v-.386c0-.424.303-.787.721-.862l17.045-3.058v4.306zm1.751-7.987c0-.43.19-.837.518-1.115l6.193-5.229 6.193 5.23c.329.277.518.684.518 1.114v1.759H23.173v-1.759zm0 3.51h13.422v4.477H23.173v-4.477zm10.962 13.032h-8.502l4.25-2.397 4.252 2.397zm-8.502-6.804h8.502l-4.251 2.397-4.251-2.397zm6.033 3.402l4.928-2.779v5.558l-4.928-2.779zm-8.493-2.779l4.928 2.78-4.928 2.778v-5.558zm0 7.932h13.422v6.228H23.173V86.56zm-1.488 11.473l1.232-3.493H36.85l1.26 3.57-8.18 5.343-8.245-5.42zm8.243 7.513l11.87 7.802H17.984l11.943-7.802zm15.831 9.553c.161 0 .292.13.292.291v2.452a.292.292 0 0 1-.292.292H14.01a.292.292 0 0 1-.292-.292v-2.452c0-.16.13-.291.291-.291H45.76zm-7.05-15.29l4.325 12.256-11.508-7.563 7.184-4.693zm17.403-7.02H38.345v-5.954l16.967 4.688a.867.867 0 0 0 .079.018c.418.075.72.437.72.862v.386zm133.78 4.767h-1.03v-5.153a2.624 2.624 0 0 0-2.118-2.577l-17.399-4.808v-7.013h5.056a.875.875 0 1 0 0-1.751h-5.056v-4.306l17.046 3.058c.418.075.72.438.72.862v.386h-9.208a.875.875 0 1 0 0 1.751h9.209v3.017h-1.03a.875.875 0 1 0 0 1.751h3.81a.875.875 0 1 0 0-1.75h-1.03v-5.155c0-1.273-.909-2.36-2.162-2.585l-17.355-3.114v-1.902c0-.947-.415-1.841-1.139-2.452l-6.305-5.325a1.572 1.572 0 0 0-2.034 0l-6.306 5.325a3.204 3.204 0 0 0-1.139 2.452v1.902l-17.354 3.114a2.624 2.624 0 0 0-2.163 2.585v5.154h-1.029a.875.875 0 1 0 0 1.751h3.809a.875.875 0 1 0 0-1.75h-1.029v-3.018h17.766v7.013l-17.398 4.808a2.624 2.624 0 0 0-2.119 2.577v5.153h-1.029a.875.875 0 1 0 0 1.751h3.809a.875.875 0 1 0 0-1.75h-1.029v-3.018h17.405l-3.12 8.843a.875.875 0 1 0 1.651.583l1.493-4.231 7.247 4.763-11.602 7.579 1.808-5.125a.875.875 0 1 0-1.65-.582l-2.463 6.978h-.417a2.045 2.045 0 0 0-2.042 2.043v2.452c0 1.126.916 2.042 2.042 2.042h31.751a2.045 2.045 0 0 0 2.043-2.042v-2.452a2.045 2.045 0 0 0-2.043-2.043h-.416l-6.636-18.808h17.405v3.017h-1.03a.875.875 0 1 0 0 1.751h3.81a.875.875 0 1 0 0-1.75zm-37.47-4.767h-17.766v-.386c0-.425.303-.787.72-.862a.9.9 0 0 0 .08-.018l16.966-4.688v5.954zm0-16.535h-17.766v-.386c0-.424.303-.787.721-.862l17.045-3.058v4.306zm1.751-7.987c0-.43.19-.837.518-1.115l6.193-5.229 6.193 5.23c.329.277.518.684.518 1.114v1.759h-13.422v-1.759zm0 3.51h13.422v4.477h-13.422v-4.477zm10.962 13.032h-8.502l4.25-2.397 4.252 2.397zm-8.502-6.804h8.502l-4.251 2.397-4.251-2.397zm6.033 3.402l4.928-2.779v5.558l-4.928-2.779zm-8.493-2.779l4.928 2.78-4.928 2.778v-5.558zm0 7.932h13.422v6.228h-13.422V86.56zm-1.488 11.473l1.232-3.493h13.933l1.26 3.57-8.18 5.343-8.245-5.42zm8.243 7.513l11.87 7.802h-23.813l11.943-7.802zm15.831 9.553c.161 0 .292.13.292.291v2.452a.292.292 0 0 1-.292.292h-31.75a.292.292 0 0 1-.292-.292v-2.452c0-.16.13-.291.291-.291h31.751zm-7.05-15.29l4.325 12.256-11.508-7.563 7.184-4.693zm17.403-7.02h-17.767v-5.954l16.967 4.688a.867.867 0 0 0 .079.018c.418.075.72.437.72.862v.386z" fill="#FFF"/></svg>