<svg width="192" height="205" viewBox="0 0 192 205" xmlns="http://www.w3.org/2000/svg"><title>icon_2</title><g fill="#FFF" opacity=".5"><path d="M150.007 123.135c-.487 0-.973-.15-1.385-.412l-46.596-30.84-14.597 25.675c-.524.936-1.647 1.422-2.694 1.198a2.504 2.504 0 0 1-1.984-2.209l-2.508-27.321-29.342 15.981a2.557 2.557 0 0 1-2.995-.45c-.786-.785-.935-2.02-.374-2.993l17.142-29.53-15.345-2.059a2.55 2.55 0 0 1-2.134-1.983c-.224-1.048.262-2.096 1.16-2.657l13.025-7.71L40.57 41.73a2.491 2.491 0 0 1-.785-2.882 2.523 2.523 0 0 1 2.545-1.61l26.161 2.022-3.33-11.266c-.3-.973.037-1.983.823-2.62a2.512 2.512 0 0 1 2.732-.299l10.255 5.277 1.534-27.958A2.545 2.545 0 0 1 82.49.075a2.537 2.537 0 0 1 2.732 1.272l14.26 27.247 9.394-8.72a2.59 2.59 0 0 1 2.77-.45c.935.412 1.497 1.348 1.46 2.396l-.45 10.667 31.289-14.073c1.048-.45 2.245-.187 2.957.711a2.53 2.53 0 0 1 .074 3.07l-20.173 27.807 19.837 3.256a2.549 2.549 0 0 1 2.058 2.059c.187 1.048-.337 2.096-1.272 2.62l-24.14 13.286 28.855 48.131c.6 1.01.412 2.283-.411 3.107-.45.449-1.086.674-1.722.674zM101.202 85.82c.487 0 .973.15 1.385.412l39.635 26.236-24.514-40.908c-.337-.599-.45-1.272-.262-1.946a2.475 2.475 0 0 1 1.197-1.534l20.061-11.041-16.692-2.77a2.503 2.503 0 0 1-1.91-1.534 2.48 2.48 0 0 1 .3-2.433l17.03-23.467-26.424 11.902c-.786.374-1.721.262-2.433-.225a2.503 2.503 0 0 1-1.085-2.17l.337-8.646-7.336 6.812c-.561.524-1.347.748-2.133.636-.786-.15-1.422-.599-1.797-1.31l-11.565-22.12-1.272 22.756a2.418 2.418 0 0 1-1.273 2.021c-.748.412-1.646.45-2.395.038l-8.496-4.38 2.695 9.133c.225.786.075 1.647-.45 2.283a2.592 2.592 0 0 1-2.132.936l-21.446-1.647L67.368 56.14a2.52 2.52 0 0 1 .974 2.134c-.038.823-.524 1.572-1.236 1.983l-9.993 5.914 11.902 1.572a2.526 2.526 0 0 1 1.909 1.384 2.505 2.505 0 0 1-.075 2.358L56.29 96.561l24.852-13.548c.748-.412 1.646-.412 2.357 0 .749.412 1.236 1.123 1.31 1.983l2.134 23.168 12.014-21.109a2.495 2.495 0 0 1 1.61-1.198c.224-.037.41-.037.635-.037z"/><path d="M191.813 137.506c0-.037-.038-.074-.038-.15a2.08 2.08 0 0 0-.336-.636s0-.037-.038-.037l-29.979-40.346a2.571 2.571 0 0 0-2.096-1.048h-12.912l3.144 5.24h8.458l9.47 12.725H157.23l1.348 2.245a9.846 9.846 0 0 1 1.197 2.995h11.603l12.725 17.141h-40.421l-4.155-9.955-7.86-5.203 6.326 15.158h-39.56v-17.141h30.278l-7.897-5.24H98.545l-4.603 8.01a8.363 8.363 0 0 1-.749 1.122v13.212H53.595l7.149-17.142H75.49c-.075-.412-.15-.823-.187-1.235l-.374-4.005H62.915l3.256-7.86-7.336 4.005-1.61 3.855H24.74l9.47-12.725h5.8a10.17 10.17 0 0 1 1.01-2.47l1.61-2.77H32.9c-.824 0-1.61.375-2.097 1.048L.823 136.683s0 .037-.037.037a2.08 2.08 0 0 0-.337.637c0 .037-.037.075-.037.15a2.413 2.413 0 0 0-.113.748v10.405a8.61 8.61 0 0 0 8.609 8.608h71.86v16.206h-9.432a2.48 2.48 0 0 0-1.685.636l-14.97 12.725a2.576 2.576 0 0 0-.936 1.984v12.725c0 1.46 1.16 2.62 2.62 2.62h79.532c1.46 0 2.62-1.16 2.62-2.62v-12.725c0-.786-.337-1.497-.936-1.984l-14.97-12.725a2.622 2.622 0 0 0-1.685-.636h-9.431v-16.206h71.86a8.61 8.61 0 0 0 8.608-8.608v-10.405a4.415 4.415 0 0 0-.15-.749zM20.884 118.494h34.208l-7.186 17.141H8.16l12.725-17.141zm99.07 60.22l13.323 11.34v8.907H58.985v-8.907l13.324-11.34h47.644zm-33.91-5.24v-16.206h20.211v16.206h-20.21zm100.679-24.814a3.354 3.354 0 0 1-3.369 3.368H8.945a3.354 3.354 0 0 1-3.368-3.368v-7.785h181.146v7.785z"/></g></svg>