<svg width="192" height="204" viewBox="0 0 192 204" xmlns="http://www.w3.org/2000/svg"><title>icon_3</title><g fill="#FFF" fill-rule="evenodd" opacity=".5"><path d="M90.423 59.36L75.79 62.203c-1.384.261-2.283 1.609-2.02 2.994.261 1.384 1.609 2.283 2.994 2.02l14.633-2.844c.487-.075.899-.3 1.236-.599.636-.561.973-1.46.786-2.395-.262-1.385-1.61-2.32-2.995-2.02zm8.01-14.073L83.799 48.13c-1.385.262-2.283 1.61-2.021 2.994.262 1.385 1.61 2.283 2.994 2.021l14.634-2.844c.486-.075.898-.3 1.235-.6.636-.56.973-1.459.786-2.394-.262-1.385-1.61-2.283-2.994-2.021zm7.972-14.073L91.77 34.058c-1.385.262-2.283 1.61-2.021 2.995.262 1.384 1.61 2.283 2.994 2.02l14.634-2.844c.486-.075.898-.3 1.235-.599.636-.561.973-1.46.786-2.395-.262-1.385-1.61-2.283-2.994-2.021zm8.009-14.072L99.78 19.986c-1.385.262-2.283 1.61-2.02 2.994.261 1.385 1.608 2.283 2.993 2.021l14.634-2.844c.487-.075.898-.3 1.235-.6.636-.56.973-1.459.786-2.394-.3-1.385-1.61-2.283-2.994-2.021z"/><path d="M139.19.898a3.28 3.28 0 0 0-.598-.411 1.12 1.12 0 0 0-.374-.15c-.225-.075-.45-.075-.712-.112-.112 0-.187-.038-.262-.038-.037 0-.074.038-.112.038h-.15L96.674 8.982c-.711.15-1.31.562-1.647 1.198L51.275 83.911c-.075.112-.075.225-.112.337-.038.075-.075.112-.113.187v.187c-.075.337-.112.674-.037 1.01v.188c.075.374.262.748.524 1.048.037.037 0 .075.037.075l27.36 30.428a2.562 2.562 0 0 0 2.432.786l40.309-8.72c.449-.113.823-.3 1.16-.6.187-.15.374-.374.487-.598l43.752-73.731a2.6 2.6 0 0 0-.3-3.032L139.415 1.048c-.075-.075-.15-.075-.224-.15zm-22.905 104.459l-34.545 7.485-23.429-26.049 34.545-7.485 23.43 26.049zm-24.14-31.14l-33.46 7.261 40.16-67.742 33.46-7.261-40.16 67.743zm69.577-40.72l-41.02 69.128-23.766-26.461 41.02-69.128 23.766 26.461z" fill-rule="nonzero"/><path d="M191.588 137.132c0-.037-.037-.075-.037-.15a2.08 2.08 0 0 0-.337-.636s0-.037-.037-.037l-29.98-40.346a2.571 2.571 0 0 0-2.095-1.048h-19.2l-3.107 5.24h20.997l9.469 12.725H134.1l-1.984-4.791-2.32 3.892a9.94 9.94 0 0 1-1.947 2.396 10.217 10.217 0 0 1-4.603 2.358l-6.438 1.384h13.81l7.15 17.142H98.17v-13.1l-5.24 1.123v11.977H53.37l7.148-17.142h9.058l-4.716-5.24h-2.134l.674-1.646-3.892-4.304-2.47 5.95H24.552l9.47-12.725h19.386l-4.716-5.24h-15.98c-.824 0-1.61.375-2.097 1.049L.6 136.309s0 .037-.038.037a2.08 2.08 0 0 0-.336.636c0 .038-.038.075-.038.15a2.413 2.413 0 0 0-.112.749v10.404a8.61 8.61 0 0 0 8.608 8.609h71.86v16.205H71.11c-.636 0-1.235.225-1.684.637l-14.97 12.725a2.576 2.576 0 0 0-.937 1.983v12.726c0 1.46 1.16 2.62 2.62 2.62h79.533c1.46 0 2.62-1.16 2.62-2.62v-12.726c0-.786-.337-1.497-.936-1.983l-14.971-12.725a2.622 2.622 0 0 0-1.684-.637h-9.432v-16.205h71.86a8.61 8.61 0 0 0 8.608-8.609v-10.404a4.415 4.415 0 0 0-.15-.749zm-55.28-19.013h34.883l12.725 17.142h-40.421l-7.186-17.142zm-115.686 0H54.83l-7.148 17.142H7.897l12.725-17.142zm99.107 60.22l13.324 11.34v8.908H58.76v-8.907l13.324-11.34h47.645zm-33.947-5.24v-16.205h20.211v16.205h-20.21zm100.679-24.814a3.354 3.354 0 0 1-3.369 3.369H8.683a3.354 3.354 0 0 1-3.368-3.369v-7.784H186.46v7.784z" fill-rule="nonzero"/></g></svg>