<svg width="192" height="205" viewBox="0 0 192 205" xmlns="http://www.w3.org/2000/svg"><title>icon_1</title><g fill="#FFF" opacity=".5"><path d="M140.164 70.961l-.075-1.16c-1.347-17.665-9.581-28.744-16.842-38.55-6.737-9.057-12.538-16.88-12.538-28.407 0-.935-.524-1.759-1.348-2.208-.823-.411-1.834-.374-2.582.187-10.891 7.823-20.023 20.96-23.167 33.497-2.208 8.72-2.508 18.564-2.545 25.04-10.068-2.134-12.351-17.217-12.389-17.367a2.517 2.517 0 0 0-1.272-1.834c-.711-.374-1.535-.412-2.246-.037-.524.262-12.95 6.587-13.698 31.813-.037.823-.037 1.684-.037 2.507 0 24.515 19.948 44.463 44.463 44.463 24.514 0 44.463-19.91 44.463-44.425 0-1.236-.112-2.358-.187-3.519zm-44.276 43.041c-8.16 0-14.821-7.073-14.821-15.794 0-.3 0-.599.037-.973.112-3.668.786-6.175 1.572-7.86 1.422 3.07 4.005 5.914 8.16 5.914a2.492 2.492 0 0 0 2.47-2.47c0-3.518.074-7.56.935-11.228.786-3.256 2.657-6.7 5.015-9.47 1.048 3.594 3.107 6.513 5.09 9.357 2.845 4.08 5.801 8.272 6.325 15.42.038.412.075.861.075 1.31-.037 8.72-6.7 15.794-14.858 15.794zm15.607-3.218c2.545-3.481 4.154-7.823 4.154-12.576 0-.599-.037-1.123-.112-2.133-.599-8.047-4.08-13.062-7.186-17.441-2.62-3.743-4.903-6.961-4.903-11.565 0-.936-.524-1.796-1.385-2.208a2.478 2.478 0 0 0-2.582.224c-4.754 3.593-8.683 9.62-10.068 15.345-.711 2.957-.936 6.138-1.048 8.758-1.722-1.834-2.246-5.24-2.246-5.314a2.53 2.53 0 0 0-1.31-1.872c-.71-.374-1.534-.374-2.283 0-.636.337-6.1 3.444-6.4 14.971-.037.374-.037.786-.037 1.16 0 4.754 1.572 9.058 4.154 12.576-14.035-6.063-23.916-20.024-23.916-36.304 0-.749 0-1.46.038-2.283.412-14.821 5.165-22.157 8.271-25.376 2.171 7.71 7.822 17.815 18.863 17.815a2.492 2.492 0 0 0 2.47-2.47c0-8.271.188-17.815 2.396-26.573 2.508-9.918 9.394-20.622 17.665-27.845 1.385 10.591 7.149 18.339 13.212 26.498 7.186 9.693 14.634 19.724 15.907 35.93l.074 1.197c.075 1.01.15 2.059.15 3.144.038 16.28-9.843 30.278-23.878 36.342z"/><path d="M191.7 137.88c0-.037-.037-.074-.037-.149a2.08 2.08 0 0 0-.337-.636s0-.038-.037-.038l-29.98-40.346a2.571 2.571 0 0 0-2.095-1.048h-15.906a53.473 53.473 0 0 1-2.733 5.24h17.292l9.469 12.725h-33.16l-1.198-2.844c-3.032 3.106-6.438 5.838-10.18 8.084h7.86l7.148 17.141H98.283v-9.319l-.711-.3a51.666 51.666 0 0 1-3.406 0l-1.16.487v9.095h-39.56l7.148-17.142h8.309c-3.855-2.357-7.373-5.165-10.48-8.42l-1.31 3.18H24.627l9.469-12.725h17.067a53.473 53.473 0 0 1-2.733-5.24H32.75a2.57 2.57 0 0 0-2.096 1.049L.71 137.057s0 .038-.037.038a2.08 2.08 0 0 0-.337.636c0 .037-.038.075-.038.15a2.413 2.413 0 0 0-.112.748v10.405a8.61 8.61 0 0 0 8.608 8.608h71.86v16.206h-9.432c-.636 0-1.235.225-1.684.636L54.57 187.21a2.576 2.576 0 0 0-.936 1.984v12.725c0 1.46 1.16 2.62 2.62 2.62h79.532c1.46 0 2.62-1.16 2.62-2.62v-12.725c0-.786-.337-1.497-.936-1.984l-14.97-12.725a2.622 2.622 0 0 0-1.685-.636h-9.432v-16.206h71.86a8.61 8.61 0 0 0 8.608-8.608V138.63a4.342 4.342 0 0 0-.15-.748zm-55.316-19.012h34.881l12.726 17.141H143.57l-7.186-17.141zm-115.65 0h34.209l-7.149 17.141H8.01l12.726-17.141zm99.107 60.22l13.324 11.34v8.908h-74.33v-8.908l13.324-11.34h47.682zm-33.946-5.24v-16.206h20.21v16.206h-20.21zm100.678-24.814a3.354 3.354 0 0 1-3.368 3.368H8.795a3.354 3.354 0 0 1-3.368-3.368v-7.785h181.146v7.785z"/></g></svg>