<svg width="36" height="35" viewBox="0 0 36 35" xmlns="http://www.w3.org/2000/svg"><title>instagram (1)</title><g fill="#FF702A" fill-rule="evenodd"><path d="M35.45 10.285c-.085-1.863-.38-3.135-.813-4.248a8.577 8.577 0 0 0-2.019-3.1 8.58 8.58 0 0 0-3.1-2.019C28.406.486 27.134.19 25.272.106 23.404.02 22.808 0 18.056 0c-4.753 0-5.35.02-7.216.105C8.978.19 7.706.486 6.593.92a8.577 8.577 0 0 0-3.1 2.018 8.578 8.578 0 0 0-2.02 3.1C1.043 7.15.747 8.422.662 10.285.576 12.15.556 12.747.556 17.5s.02 5.349.105 7.215c.085 1.863.381 3.135.814 4.248a8.576 8.576 0 0 0 2.018 3.1 8.575 8.575 0 0 0 3.1 2.018c1.113.433 2.385.728 4.248.814 1.866.085 2.462.105 7.215.105 4.752 0 5.349-.02 7.215-.105 1.863-.086 3.135-.381 4.248-.814a8.947 8.947 0 0 0 5.118-5.118c.433-1.113.728-2.385.813-4.248.085-1.866.106-2.462.106-7.215s-.02-5.349-.106-7.215zM32.3 24.572c-.077 1.706-.363 2.633-.602 3.25a5.795 5.795 0 0 1-3.322 3.32c-.616.24-1.543.525-3.249.603-1.845.084-2.398.102-7.071.102-4.674 0-5.227-.018-7.072-.102-1.706-.078-2.633-.363-3.25-.602a5.423 5.423 0 0 1-2.012-1.31 5.421 5.421 0 0 1-1.309-2.012c-.24-.616-.525-1.543-.602-3.25-.084-1.844-.102-2.398-.102-7.07 0-4.674.018-5.227.102-7.072.078-1.707.363-2.633.602-3.25.28-.76.728-1.448 1.31-2.012a5.418 5.418 0 0 1 2.012-1.31c.616-.239 1.543-.524 3.25-.602 1.844-.084 2.398-.102 7.07-.102 4.673 0 5.227.018 7.072.102 1.706.078 2.633.363 3.25.603.76.28 1.447.728 2.012 1.309a5.418 5.418 0 0 1 1.309 2.012c.24.617.525 1.543.602 3.25.084 1.845.102 2.398.102 7.071s-.017 5.226-.102 7.072z" fill-rule="nonzero"/><path d="M18.055 8.513a8.987 8.987 0 1 0 0 17.974 8.987 8.987 0 0 0 0-17.974zm0 14.82a5.833 5.833 0 1 1 0-11.666 5.833 5.833 0 0 1 0 11.666z" fill-rule="nonzero"/><path d="M29.497 8.159a2.1 2.1 0 1 1-4.2 0 2.1 2.1 0 0 1 4.2 0z"/></g></svg>