<svg width="113" height="120" viewBox="0 0 113 120" xmlns="http://www.w3.org/2000/svg"><title>knowledge</title><g fill="#FFF" fill-rule="evenodd"><path d="M80.165 69.276c9.629-7.384 15.151-18.548 15.151-30.631 0-11.444-5.053-22.234-13.862-29.602a1.771 1.771 0 0 0-2.488.215 1.752 1.752 0 0 0 .216 2.477c8.01 6.699 12.603 16.507 12.603 26.91 0 10.983-5.021 21.133-13.775 27.845-2.4 1.84-3.776 4.603-3.776 7.58v3.586h-8.169v-4.133c0-2.003-1.636-3.632-3.649-3.632h-.25v-4.25H64.3c3.124 0 5.666-2.53 5.666-5.64S67.424 54.36 64.3 54.36c-3.124 0-5.666 2.53-5.666 5.64v2.125h-4.269V60c0-3.11-2.541-5.64-5.665-5.64s-5.666 2.53-5.666 5.64 2.542 5.64 5.666 5.64h2.134v4.25h-.25c-2.013 0-3.65 1.63-3.65 3.633v4.133h-8.169V74.07c0-2.977-1.378-5.74-3.78-7.583-8.872-6.805-13.89-17.096-13.768-28.233.105-9.572 3.962-18.46 10.863-25.027 6.91-6.576 16.016-10.02 25.648-9.69 5.559.189 10.84 1.628 15.697 4.276a1.77 1.77 0 0 0 2.397-.697 1.754 1.754 0 0 0-.7-2.386C69.775 1.815 63.964.23 57.847.023 47.27-.334 37.243 3.45 29.64 10.686c-7.594 7.227-11.84 17.004-11.954 27.53-.067 6.18 1.288 12.098 4.028 17.591A39.026 39.026 0 0 0 32.83 69.272c1.528 1.172 2.404 2.92 2.404 4.798v3.868c-2.262.741-3.9 2.863-3.9 5.36 0 2.496 1.638 4.617 3.9 5.358v16.196c0 4.07 3.327 7.382 7.416 7.382h.507c.719 4.398 4.559 7.766 9.176 7.766h8.334c4.617 0 8.457-3.368 9.176-7.766h.507c4.09 0 7.416-3.311 7.416-7.382V88.656c2.262-.741 3.9-2.863 3.9-5.359s-1.638-4.618-3.9-5.359V74.07c0-1.878.874-3.625 2.399-4.794zm-18-9.276c0-1.172.958-2.125 2.135-2.125 1.177 0 2.134.953 2.134 2.125a2.132 2.132 0 0 1-2.134 2.125h-2.134V60zM48.7 62.125A2.132 2.132 0 0 1 46.565 60c0-1.171.958-2.125 2.135-2.125 1.177 0 2.134.954 2.134 2.125v2.125H48.7zm5.665 3.516h4.27v4.25h-4.27v-4.25zm-3.9 7.882c0-.064.054-.117.118-.117h11.834c.064 0 .117.053.117.117v4.133H50.466v-4.133zm23.77 19.665H50.096c-.975 0-1.765.787-1.765 1.757 0 .971.79 1.758 1.765 1.758h24.138v4.25H38.766v-4.25h4.27c.974 0 1.765-.787 1.765-1.758 0-.97-.79-1.757-1.766-1.757h-4.269v-4.25h35.47v4.25zm-13.568 23.296h-8.334a5.774 5.774 0 0 1-5.57-4.25h19.474a5.775 5.775 0 0 1-5.57 4.25zm9.683-7.765h-27.7c-2.142 0-3.885-1.735-3.885-3.868v-.382h35.47v.382c0 2.133-1.743 3.868-3.885 3.868zM76 85.422H37a2.132 2.132 0 0 1-2.135-2.125c0-1.172.958-2.125 2.135-2.125h39c1.177 0 2.135.953 2.135 2.125A2.132 2.132 0 0 1 76 85.422z" fill-rule="nonzero"/><path d="M11.465 38.645c0-.971-.79-1.758-1.766-1.758H1.9c-.975 0-1.766.787-1.766 1.758 0 .97.79 1.758 1.766 1.758h7.8c.975 0 1.766-.788 1.766-1.758zm3.622 21.775L8.33 64.301a1.754 1.754 0 0 0-.646 2.401 1.767 1.767 0 0 0 2.412.643l6.755-3.882a1.754 1.754 0 0 0 .646-2.402 1.77 1.77 0 0 0-2.411-.643zm89.581 3.882l-6.755-3.883a1.77 1.77 0 0 0-2.412.643 1.754 1.754 0 0 0 .647 2.402l6.755 3.882a1.766 1.766 0 0 0 2.412-.643 1.754 1.754 0 0 0-.647-2.401zm6.432-27.415h-7.8c-.975 0-1.765.787-1.765 1.758 0 .97.79 1.758 1.765 1.758h7.8c.976 0 1.766-.788 1.766-1.758 0-.971-.79-1.758-1.765-1.758zM97.032 17.106c.3 0 .604-.076.881-.236l6.755-3.882a1.754 1.754 0 0 0 .647-2.402 1.77 1.77 0 0 0-2.412-.643l-6.755 3.883a1.754 1.754 0 0 0-.647 2.401c.327.564.921.88 1.531.88zM8.331 12.987l6.755 3.883a1.767 1.767 0 0 0 2.412-.644 1.754 1.754 0 0 0-.646-2.4l-6.755-3.883a1.77 1.77 0 0 0-2.412.643 1.754 1.754 0 0 0 .646 2.401z"/><path d="M56.5 23.297c-3.124 0-5.666 2.53-5.666 5.64 0 3.111 2.542 5.641 5.666 5.641 3.124 0 5.666-2.53 5.666-5.64s-2.542-5.64-5.666-5.64zm0 7.766a2.132 2.132 0 0 1-2.134-2.125c0-1.172.957-2.125 2.134-2.125s2.134.953 2.134 2.125a2.132 2.132 0 0 1-2.134 2.125z" fill-rule="nonzero"/><path d="M72.573 22.39a10.499 10.499 0 0 0-.057-.137l1.261-2.093a3.682 3.682 0 0 0-.559-4.52l-3.362-3.347a3.723 3.723 0 0 0-4.539-.556l-2.102 1.255-.138-.056-.595-2.368a3.707 3.707 0 0 0-3.604-2.802h-4.756a3.707 3.707 0 0 0-3.604 2.802l-.595 2.368a24.37 24.37 0 0 0-.138.056l-2.102-1.255a3.723 3.723 0 0 0-4.54.556l-3.362 3.348a3.682 3.682 0 0 0-.558 4.519l1.26 2.093-.056.137-2.379.592a3.697 3.697 0 0 0-2.814 3.589v4.734c0 1.7 1.157 3.176 2.814 3.589l2.379.592.057.137-1.261 2.093a3.682 3.682 0 0 0 .558 4.519l3.363 3.347a3.723 3.723 0 0 0 4.539.557l2.102-1.256.138.057.595 2.367a3.707 3.707 0 0 0 3.604 2.803h4.755a3.707 3.707 0 0 0 3.605-2.803l.594-2.367.139-.057 2.102 1.256a3.723 3.723 0 0 0 4.539-.557l3.362-3.347a3.682 3.682 0 0 0 .559-4.52l-1.261-2.092.057-.138 2.378-.592a3.697 3.697 0 0 0 2.814-3.588V26.57a3.698 3.698 0 0 0-2.814-3.59l-2.378-.59zm1.662 8.915a.183.183 0 0 1-.14.178l-3.276.815c-.58.144-1.046.57-1.241 1.132-.186.537-.4 1.055-.638 1.538a1.75 1.75 0 0 0 .073 1.676l1.736 2.88a.183.183 0 0 1-.027.225l-3.363 3.347a.185.185 0 0 1-.225.028l-2.894-1.729a1.772 1.772 0 0 0-1.682-.072c-.486.236-1.006.45-1.545.635a1.76 1.76 0 0 0-1.137 1.235l-.82 3.262a.184.184 0 0 1-.178.139h-4.756a.184.184 0 0 1-.178-.14l-.82-3.261a1.76 1.76 0 0 0-1.137-1.236 13.87 13.87 0 0 1-1.545-.634 1.77 1.77 0 0 0-1.682.072l-2.894 1.729a.184.184 0 0 1-.225-.028l-3.362-3.347a.183.183 0 0 1-.028-.225l1.736-2.88a1.75 1.75 0 0 0 .073-1.676 13.715 13.715 0 0 1-.638-1.538 1.763 1.763 0 0 0-1.24-1.132l-3.277-.815a.183.183 0 0 1-.14-.178V26.57c0-.085.058-.158.14-.179l3.276-.815a1.763 1.763 0 0 0 1.241-1.131c.187-.538.401-1.055.638-1.539a1.75 1.75 0 0 0-.073-1.675l-1.736-2.88a.183.183 0 0 1 .028-.225l3.362-3.348a.185.185 0 0 1 .225-.028l2.894 1.729a1.772 1.772 0 0 0 1.682.072c.486-.236 1.006-.45 1.545-.634a1.76 1.76 0 0 0 1.138-1.236l.819-3.262a.184.184 0 0 1 .178-.139h4.755c.085 0 .159.058.18.14l.818 3.261a1.76 1.76 0 0 0 1.137 1.236 13.87 13.87 0 0 1 1.545.634c.537.261 1.17.234 1.683-.072l2.894-1.729a.184.184 0 0 1 .225.028l3.362 3.347c.06.06.072.152.028.225l-1.736 2.88a1.75 1.75 0 0 0-.073 1.676c.236.484.451 1.001.637 1.538.195.562.662.988 1.241 1.132l3.276.815c.083.02.14.094.14.178v4.735z" fill-rule="nonzero"/></g></svg>