<svg width="67" height="90" viewBox="0 0 67 90" xmlns="http://www.w3.org/2000/svg"><title>location-pin (3)</title><g fill="#FF702A"><path d="M33.449 0C15.005 0 0 15.011 0 33.462c0 27.491 30.12 54.334 31.402 55.463a3.09 3.09 0 0 0 2.047.773 3.09 3.09 0 0 0 2.047-.773c1.282-1.129 31.402-27.971 31.402-55.463C66.898 15.011 51.893 0 33.448 0zm0 82.356C26.789 75.903 6.194 54.26 6.194 33.462c0-15.035 12.227-27.268 27.255-27.268 15.028 0 27.254 12.233 27.254 27.268 0 20.797-20.595 42.44-27.254 48.894z"/><path d="M33.485 18C24.947 18 18 24.993 18 33.588c0 8.596 6.947 15.588 15.485 15.588 8.54 0 15.486-6.992 15.486-15.588C48.97 24.993 42.024 18 33.485 18zm0 24.982c-5.123 0-9.291-4.214-9.291-9.394s4.168-9.394 9.291-9.394c5.124 0 9.292 4.214 9.292 9.394s-4.168 9.394-9.292 9.394z"/></g></svg>