<svg width="182" height="48" viewBox="0 0 182 48" xmlns="http://www.w3.org/2000/svg"><title>ess new</title><g fill="none" fill-rule="evenodd"><path d="M89.883 32.037l11.054 1.786c-.446 1.228-1.116 2.344-1.786 3.46a38.95 38.95 0 0 1-3.461 4.243c-1.564 1.674-3.685 3.014-6.477 4.018-2.68 1.005-5.806 1.563-9.267 1.563-6.7 0-12.17-2.01-16.413-6.028-4.467-4.242-6.7-9.823-6.7-16.632 0-6.81 2.122-12.391 6.476-16.745C67.44 3.684 72.8 1.674 79.388 1.674c7.257 0 12.84 2.345 16.637 7.033 3.46 4.13 5.136 9.712 5.136 16.744v1.005H69.115c0 2.902.67 5.246 2.122 7.256 2.01 2.679 4.801 4.018 8.597 4.018 4.578-.111 7.928-2.01 10.05-5.693zm-20.21-13.395h20.21c-.446-2.79-1.674-4.912-3.573-6.363a10.672 10.672 0 0 0-6.587-2.232c-2.345 0-4.578.78-6.476 2.232-1.899 1.563-3.127 3.684-3.573 6.363z" fill="#FFF" fill-rule="nonzero"/><path d="M139.794 6.14l-5.918 7.032c-2.01-1.898-4.355-2.902-7.034-2.902-1.452 0-2.568.335-3.462.893-.781.67-1.228 1.451-1.228 2.567 0 1.675 1.34 3.014 3.908 3.907l2.903.893c5.583 1.786 9.268 3.796 10.83 6.14 1.452 2.01 2.122 4.353 2.122 7.144 0 4.353-1.563 7.926-4.69 10.828-3.237 3.014-7.592 4.577-12.84 4.577-6.7 0-12.17-2.345-16.637-7.145l6.365-7.255c2.791 3.237 6.03 4.911 9.49 4.911 1.676 0 3.127-.446 4.244-1.228 1.116-.781 1.674-2.009 1.674-3.46 0-2.01-1.228-3.46-3.796-4.354l-2.791-1.004c-4.243-1.563-7.37-3.237-9.156-5.135-2.122-2.344-3.238-5.023-3.238-8.149 0-3.907 1.451-7.144 4.466-9.712 2.568-2.009 6.253-3.014 11.166-3.014 5.136-.111 9.714 1.452 13.622 4.466zm39.973 0l-5.918 7.032c-2.01-1.898-4.355-2.902-7.034-2.902-1.452 0-2.568.335-3.462.893-.781.67-1.228 1.451-1.228 2.567 0 1.675 1.34 3.014 3.908 3.907l2.903.893c5.583 1.786 9.268 3.796 10.83 6.14 1.452 2.01 2.122 4.353 2.122 7.144 0 4.353-1.563 7.926-4.69 10.828-3.237 3.014-7.592 4.577-12.84 4.577-6.7 0-12.17-2.345-16.637-7.145l6.365-7.255c2.791 3.237 6.03 4.911 9.49 4.911 1.676 0 3.127-.446 4.244-1.228 1.116-.781 1.674-2.009 1.674-3.46 0-2.01-1.228-3.46-3.796-4.354l-2.791-1.004c-4.243-1.563-7.37-3.237-9.156-5.135-2.122-2.344-3.238-5.023-3.238-8.149 0-3.907 1.451-7.144 4.466-9.712 2.568-2.009 6.253-3.014 11.166-3.014 5.024-.111 9.602 1.452 13.622 4.466z" fill="#FFF"/><ellipse fill="#FF702A" cx="24.006" cy="23.777" rx="23.336" ry="23.33"/></g></svg>