<svg width="1078" height="610" viewBox="0 0 1078 610" xmlns="http://www.w3.org/2000/svg"><title>map ukraine</title><g fill="#FFF" fill-rule="evenodd"><circle cx="567" cy="5" r="5"/><circle cx="586" cy="5" r="5"/><circle cx="605" cy="5" r="5"/><circle cx="623" cy="5" r="5"/><circle cx="642" cy="5" r="5"/><circle cx="661" cy="5" r="5"/><circle cx="679" cy="5" r="5"/><circle cx="567" cy="24" r="5"/><circle cx="586" cy="24" r="5"/><circle cx="605" cy="24" r="5"/><circle cx="623" cy="24" r="5"/><circle cx="642" cy="24" r="5"/><circle cx="661" cy="24" r="5"/><circle cx="679" cy="24" r="5"/><circle cx="492" cy="43" r="5"/><circle cx="511" cy="43" r="5"/><circle cx="530" cy="43" r="5"/><circle cx="548" cy="43" r="5"/><circle cx="567" cy="43" r="5"/><circle cx="586" cy="43" r="5"/><circle cx="605" cy="43" r="5"/><circle cx="623" cy="43" r="5"/><circle cx="642" cy="43" r="5"/><circle cx="661" cy="43" r="5"/><circle cx="679" cy="43" r="5"/><circle cx="698" cy="43" r="5"/><circle cx="80" cy="62" r="5"/><circle cx="98" cy="62" r="5"/><circle cx="136" cy="62" r="5"/><circle cx="155" cy="62" r="5"/><circle cx="173" cy="62" r="5"/><circle cx="192" cy="62" r="5"/><circle cx="211" cy="62" r="5"/><circle cx="230" cy="62" r="5"/><circle cx="248" cy="62" r="5"/><circle cx="267" cy="62" r="5"/><circle cx="492" cy="62" r="5"/><circle cx="511" cy="62" r="5"/><circle cx="530" cy="62" r="5"/><circle cx="548" cy="62" r="5"/><circle cx="567" cy="62" r="5"/><circle cx="586" cy="62" r="5"/><circle cx="605" cy="62" r="5"/><circle cx="623" cy="62" r="5"/><circle cx="642" cy="62" r="5"/><circle cx="661" cy="62" r="5"/><circle cx="679" cy="62" r="5"/><circle cx="698" cy="62" r="5"/><circle cx="80" cy="81" r="5"/><circle cx="98" cy="81" r="5"/><circle cx="117" cy="81" r="5"/><circle cx="136" cy="81" r="5"/><circle cx="155" cy="81" r="5"/><circle cx="173" cy="81" r="5"/><circle cx="192" cy="81" r="5"/><circle cx="211" cy="81" r="5"/><circle cx="230" cy="81" r="5"/><circle cx="248" cy="81" r="5"/><circle cx="267" cy="81" r="5"/><circle cx="286" cy="81" r="5"/><circle cx="305" cy="81" r="5"/><circle cx="323" cy="81" r="5"/><circle cx="342" cy="81" r="5"/><circle cx="361" cy="81" r="5"/><circle cx="380" cy="81" r="5"/><circle cx="398" cy="81" r="5"/><circle cx="417" cy="81" r="5"/><circle cx="436" cy="81" r="5"/><circle cx="454" cy="81" r="5"/><circle cx="473" cy="81" r="5"/><circle cx="492" cy="81" r="5"/><circle cx="511" cy="81" r="5"/><circle cx="530" cy="81" r="5"/><circle cx="548" cy="81" r="5"/><circle cx="567" cy="81" r="5"/><circle cx="586" cy="81" r="5"/><circle cx="605" cy="81" r="5"/><circle cx="623" cy="81" r="5"/><circle cx="642" cy="81" r="5"/><circle cx="661" cy="81" r="5"/><circle cx="679" cy="81" r="5"/><circle cx="698" cy="81" r="5"/><circle cx="717" cy="81" r="5"/><circle cx="736" cy="81" r="5"/><circle cx="754" cy="81" r="5"/><circle cx="80" cy="99" r="5"/><circle cx="98" cy="99" r="5"/><circle cx="117" cy="99" r="5"/><circle cx="136" cy="99" r="5"/><circle cx="155" cy="99" r="5"/><circle cx="173" cy="99" r="5"/><circle cx="192" cy="99" r="5"/><circle cx="211" cy="99" r="5"/><circle cx="230" cy="99" r="5"/><circle cx="248" cy="99" r="5"/><circle cx="267" cy="99" r="5"/><circle cx="286" cy="99" r="5"/><circle cx="305" cy="99" r="5"/><circle cx="323" cy="99" r="5"/><circle cx="342" cy="99" r="5"/><circle cx="361" cy="99" r="5"/><circle cx="380" cy="99" r="5"/><circle cx="398" cy="99" r="5"/><circle cx="417" cy="99" r="5"/><circle cx="436" cy="99" r="5"/><circle cx="454" cy="99" r="5"/><circle cx="473" cy="99" r="5"/><circle cx="492" cy="99" r="5"/><circle cx="511" cy="99" r="5"/><circle cx="530" cy="99" r="5"/><circle cx="548" cy="99" r="5"/><circle cx="567" cy="99" r="5"/><circle cx="586" cy="99" r="5"/><circle cx="605" cy="99" r="5"/><circle cx="623" cy="99" r="5"/><circle cx="642" cy="99" r="5"/><circle cx="661" cy="99" r="5"/><circle cx="679" cy="99" r="5"/><circle cx="698" cy="99" r="5"/><circle cx="717" cy="99" r="5"/><circle cx="736" cy="99" r="5"/><circle cx="754" cy="99" r="5"/><circle cx="773" cy="99" r="5"/><circle cx="80" cy="118" r="5"/><circle cx="98" cy="118" r="5"/><circle cx="117" cy="118" r="5"/><circle cx="136" cy="118" r="5"/><circle cx="155" cy="118" r="5"/><circle cx="173" cy="118" r="5"/><circle cx="192" cy="118" r="5"/><circle cx="211" cy="118" r="5"/><circle cx="230" cy="118" r="5"/><circle cx="248" cy="118" r="5"/><circle cx="267" cy="118" r="5"/><circle cx="286" cy="118" r="5"/><circle cx="305" cy="118" r="5"/><circle cx="323" cy="118" r="5"/><circle cx="342" cy="118" r="5"/><circle cx="361" cy="118" r="5"/><circle cx="380" cy="118" r="5"/><circle cx="398" cy="118" r="5"/><circle cx="417" cy="118" r="5"/><circle cx="436" cy="118" r="5"/><circle cx="454" cy="118" r="5"/><circle cx="473" cy="118" r="5"/><circle cx="492" cy="118" r="5"/><circle cx="511" cy="118" r="5"/><circle cx="530" cy="118" r="5"/><circle cx="548" cy="118" r="5"/><circle cx="567" cy="118" r="5"/><circle cx="586" cy="118" r="5"/><circle cx="605" cy="118" r="5"/><circle cx="623" cy="118" r="5"/><circle cx="642" cy="118" r="5"/><circle cx="661" cy="118" r="5"/><circle cx="679" cy="118" r="5"/><circle cx="698" cy="118" r="5"/><circle cx="717" cy="118" r="5"/><circle cx="736" cy="118" r="5"/><circle cx="754" cy="118" r="5"/><circle cx="773" cy="118" r="5"/><circle cx="98" cy="137" r="5"/><circle cx="117" cy="137" r="5"/><circle cx="136" cy="137" r="5"/><circle cx="155" cy="137" r="5"/><circle cx="173" cy="137" r="5"/><circle cx="192" cy="137" r="5"/><circle cx="211" cy="137" r="5"/><circle cx="230" cy="137" r="5"/><circle cx="248" cy="137" r="5"/><circle cx="267" cy="137" r="5"/><circle cx="286" cy="137" r="5"/><circle cx="305" cy="137" r="5"/><circle cx="323" cy="137" r="5"/><circle cx="342" cy="137" r="5"/><circle cx="361" cy="137" r="5"/><circle cx="380" cy="137" r="5"/><circle cx="398" cy="137" r="5"/><circle cx="417" cy="137" r="5"/><circle cx="436" cy="137" r="5"/><circle cx="454" cy="137" r="5"/><circle cx="473" cy="137" r="5"/><circle cx="492" cy="137" r="5"/><circle cx="511" cy="137" r="5"/><circle cx="530" cy="137" r="5"/><circle cx="548" cy="137" r="5"/><circle cx="567" cy="137" r="5"/><circle cx="586" cy="137" r="5"/><circle cx="605" cy="137" r="5"/><circle cx="623" cy="137" r="5"/><circle cx="642" cy="137" r="5"/><circle cx="661" cy="137" r="5"/><circle cx="679" cy="137" r="5"/><circle cx="698" cy="137" r="5"/><circle cx="717" cy="137" r="5"/><circle cx="736" cy="137" r="5"/><circle cx="754" cy="137" r="5"/><circle cx="773" cy="137" r="5"/><circle cx="792" cy="137" r="5"/><circle cx="98" cy="155" r="5"/><circle cx="117" cy="155" r="5"/><circle cx="136" cy="155" r="5"/><circle cx="155" cy="155" r="5"/><circle cx="173" cy="155" r="5"/><circle cx="192" cy="155" r="5"/><circle cx="211" cy="155" r="5"/><circle cx="230" cy="155" r="5"/><circle cx="248" cy="155" r="5"/><circle cx="267" cy="155" r="5"/><circle cx="286" cy="155" r="5"/><circle cx="305" cy="155" r="5"/><circle cx="323" cy="155" r="5"/><circle cx="342" cy="155" r="5"/><circle cx="361" cy="155" r="5"/><circle cx="380" cy="155" r="5"/><circle cx="398" cy="155" r="5"/><circle cx="417" cy="155" r="5"/><circle cx="436" cy="155" r="5"/><circle cx="454" cy="155" r="5"/><circle cx="473" cy="155" r="5"/><circle cx="492" cy="155" r="5"/><circle cx="511" cy="155" r="5"/><circle cx="530" cy="155" r="5"/><circle cx="548" cy="155" r="5"/><circle cx="567" cy="155" r="5"/><circle cx="586" cy="155" r="5"/><circle cx="605" cy="155" r="5"/><circle cx="623" cy="155" r="5"/><circle cx="642" cy="155" r="5"/><circle cx="661" cy="155" r="5"/><circle cx="679" cy="155" r="5"/><circle cx="698" cy="155" r="5"/><circle cx="717" cy="155" r="5"/><circle cx="736" cy="155" r="5"/><circle cx="754" cy="155" r="5"/><circle cx="773" cy="155" r="5"/><circle cx="792" cy="155" r="5"/><circle cx="811" cy="155" r="5"/><circle cx="829" cy="155" r="5"/><circle cx="848" cy="155" r="5"/><circle cx="867" cy="155" r="5"/><circle cx="886" cy="155" r="5"/><circle cx="904" cy="155" r="5"/><circle cx="98" cy="174" r="5"/><circle cx="117" cy="174" r="5"/><circle cx="136" cy="174" r="5"/><circle cx="155" cy="174" r="5"/><circle cx="173" cy="174" r="5"/><circle cx="192" cy="174" r="5"/><circle cx="211" cy="174" r="5"/><circle cx="230" cy="174" r="5"/><circle cx="248" cy="174" r="5"/><circle cx="267" cy="174" r="5"/><circle cx="286" cy="174" r="5"/><circle cx="305" cy="174" r="5"/><circle cx="323" cy="174" r="5"/><circle cx="342" cy="174" r="5"/><circle cx="361" cy="174" r="5"/><circle cx="380" cy="174" r="5"/><circle cx="398" cy="174" r="5"/><circle cx="417" cy="174" r="5"/><circle cx="436" cy="174" r="5"/><circle cx="454" cy="174" r="5"/><circle cx="473" cy="174" r="5"/><circle cx="492" cy="174" r="5"/><circle cx="511" cy="174" r="5"/><circle cx="530" cy="174" r="5"/><circle cx="548" cy="174" r="5"/><circle cx="567" cy="174" r="5"/><circle cx="586" cy="174" r="5"/><circle cx="605" cy="174" r="5"/><circle cx="623" cy="174" r="5"/><circle cx="642" cy="174" r="5"/><circle cx="661" cy="174" r="5"/><circle cx="679" cy="174" r="5"/><circle cx="698" cy="174" r="5"/><circle cx="717" cy="174" r="5"/><circle cx="736" cy="174" r="5"/><circle cx="754" cy="174" r="5"/><circle cx="773" cy="174" r="5"/><circle cx="792" cy="174" r="5"/><circle cx="811" cy="174" r="5"/><circle cx="829" cy="174" r="5"/><circle cx="848" cy="174" r="5"/><circle cx="867" cy="174" r="5"/><circle cx="886" cy="174" r="5"/><circle cx="904" cy="174" r="5"/><circle cx="923" cy="174" r="5"/><circle cx="80" cy="193" r="5"/><circle cx="98" cy="193" r="5"/><circle cx="117" cy="193" r="5"/><circle cx="136" cy="193" r="5"/><circle cx="155" cy="193" r="5"/><circle cx="173" cy="193" r="5"/><circle cx="192" cy="193" r="5"/><circle cx="211" cy="193" r="5"/><circle cx="230" cy="193" r="5"/><circle cx="248" cy="193" r="5"/><circle cx="267" cy="193" r="5"/><circle cx="286" cy="193" r="5"/><circle cx="305" cy="193" r="5"/><circle cx="323" cy="193" r="5"/><circle cx="342" cy="193" r="5"/><circle cx="361" cy="193" r="5"/><circle cx="380" cy="193" r="5"/><circle cx="398" cy="193" r="5"/><circle cx="417" cy="193" r="5"/><circle cx="436" cy="193" r="5"/><circle cx="454" cy="193" r="5"/><circle cx="473" cy="193" r="5"/><circle cx="492" cy="193" r="5"/><circle cx="511" cy="193" r="5"/><circle cx="530" cy="193" r="5"/><circle cx="548" cy="193" r="5"/><circle cx="567" cy="193" r="5"/><circle cx="586" cy="193" r="5"/><circle cx="605" cy="193" r="5"/><circle cx="623" cy="193" r="5"/><circle cx="642" cy="193" r="5"/><circle cx="661" cy="193" r="5"/><circle cx="679" cy="193" r="5"/><circle cx="698" cy="193" r="5"/><circle cx="717" cy="193" r="5"/><circle cx="736" cy="193" r="5"/><circle cx="754" cy="193" r="5"/><circle cx="773" cy="193" r="5"/><circle cx="792" cy="193" r="5"/><circle cx="811" cy="193" r="5"/><circle cx="829" cy="193" r="5"/><circle cx="848" cy="193" r="5"/><circle cx="867" cy="193" r="5"/><circle cx="886" cy="193" r="5"/><circle cx="904" cy="193" r="5"/><circle cx="923" cy="193" r="5"/><circle cx="942" cy="193" r="5"/><circle cx="961" cy="193" r="5"/><circle cx="979" cy="193" r="5"/><circle cx="998" cy="193" r="5"/><circle cx="1017" cy="193" r="5"/><circle cx="80" cy="212" r="5"/><circle cx="98" cy="212" r="5"/><circle cx="117" cy="212" r="5"/><circle cx="136" cy="212" r="5"/><circle cx="155" cy="212" r="5"/><circle cx="173" cy="212" r="5"/><circle cx="192" cy="212" r="5"/><circle cx="211" cy="212" r="5"/><circle cx="230" cy="212" r="5"/><circle cx="248" cy="212" r="5"/><circle cx="267" cy="212" r="5"/><circle cx="286" cy="212" r="5"/><circle cx="305" cy="212" r="5"/><circle cx="323" cy="212" r="5"/><circle cx="342" cy="212" r="5"/><circle cx="361" cy="212" r="5"/><circle cx="380" cy="212" r="5"/><circle cx="398" cy="212" r="5"/><circle cx="417" cy="212" r="5"/><circle cx="436" cy="212" r="5"/><circle cx="454" cy="212" r="5"/><circle cx="473" cy="212" r="5"/><circle cx="492" cy="212" r="5"/><circle cx="511" cy="212" r="5"/><circle cx="530" cy="212" r="5"/><circle cx="548" cy="212" r="5"/><circle cx="567" cy="212" r="5"/><circle cx="586" cy="212" r="5"/><circle cx="605" cy="212" r="5"/><circle cx="623" cy="212" r="5"/><circle cx="642" cy="212" r="5"/><circle cx="661" cy="212" r="5"/><circle cx="679" cy="212" r="5"/><circle cx="698" cy="212" r="5"/><circle cx="717" cy="212" r="5"/><circle cx="736" cy="212" r="5"/><circle cx="754" cy="212" r="5"/><circle cx="773" cy="212" r="5"/><circle cx="792" cy="212" r="5"/><circle cx="811" cy="212" r="5"/><circle cx="829" cy="212" r="5"/><circle cx="848" cy="212" r="5"/><circle cx="867" cy="212" r="5"/><circle cx="886" cy="212" r="5"/><circle cx="904" cy="212" r="5"/><circle cx="923" cy="212" r="5"/><circle cx="942" cy="212" r="5"/><circle cx="961" cy="212" r="5"/><circle cx="979" cy="212" r="5"/><circle cx="998" cy="212" r="5"/><circle cx="1017" cy="212" r="5"/><circle cx="1036" cy="212" r="5"/><circle cx="1054" cy="212" r="5"/><circle cx="1073" cy="212" r="5"/><circle cx="61" cy="230" r="5"/><circle cx="80" cy="230" r="5"/><circle cx="98" cy="230" r="5"/><circle cx="117" cy="230" r="5"/><circle cx="136" cy="230" r="5"/><circle cx="155" cy="230" r="5"/><circle cx="173" cy="230" r="5"/><circle cx="192" cy="230" r="5"/><circle cx="211" cy="230" r="5"/><circle cx="230" cy="230" r="5"/><circle cx="248" cy="230" r="5"/><circle cx="267" cy="230" r="5"/><circle cx="286" cy="230" r="5"/><circle cx="305" cy="230" r="5"/><circle cx="323" cy="230" r="5"/><circle cx="342" cy="230" r="5"/><circle cx="361" cy="230" r="5"/><circle cx="380" cy="230" r="5"/><circle cx="398" cy="230" r="5"/><circle cx="417" cy="230" r="5"/><circle cx="436" cy="230" r="5"/><circle cx="454" cy="230" r="5"/><circle cx="473" cy="230" r="5"/><circle cx="492" cy="230" r="5"/><circle cx="511" cy="230" r="5"/><circle cx="530" cy="230" r="5"/><circle cx="548" cy="230" r="5"/><circle cx="567" cy="230" r="5"/><circle cx="586" cy="230" r="5"/><circle cx="605" cy="230" r="5"/><circle cx="623" cy="230" r="5"/><circle cx="642" cy="230" r="5"/><circle cx="661" cy="230" r="5"/><circle cx="679" cy="230" r="5"/><circle cx="698" cy="230" r="5"/><circle cx="717" cy="230" r="5"/><circle cx="736" cy="230" r="5"/><circle cx="754" cy="230" r="5"/><circle cx="773" cy="230" r="5"/><circle cx="792" cy="230" r="5"/><circle cx="811" cy="230" r="5"/><circle cx="829" cy="230" r="5"/><circle cx="848" cy="230" r="5"/><circle cx="867" cy="230" r="5"/><circle cx="886" cy="230" r="5"/><circle cx="904" cy="230" r="5"/><circle cx="923" cy="230" r="5"/><circle cx="942" cy="230" r="5"/><circle cx="961" cy="230" r="5"/><circle cx="979" cy="230" r="5"/><circle cx="998" cy="230" r="5"/><circle cx="1017" cy="230" r="5"/><circle cx="1036" cy="230" r="5"/><circle cx="1054" cy="230" r="5"/><circle cx="1073" cy="230" r="5"/><circle cx="42" cy="249" r="5"/><circle cx="61" cy="249" r="5"/><circle cx="80" cy="249" r="5"/><circle cx="98" cy="249" r="5"/><circle cx="117" cy="249" r="5"/><circle cx="136" cy="249" r="5"/><circle cx="155" cy="249" r="5"/><circle cx="173" cy="249" r="5"/><circle cx="192" cy="249" r="5"/><circle cx="211" cy="249" r="5"/><circle cx="230" cy="249" r="5"/><circle cx="248" cy="249" r="5"/><circle cx="267" cy="249" r="5"/><circle cx="286" cy="249" r="5"/><circle cx="305" cy="249" r="5"/><circle cx="323" cy="249" r="5"/><circle cx="342" cy="249" r="5"/><circle cx="361" cy="249" r="5"/><circle cx="380" cy="249" r="5"/><circle cx="398" cy="249" r="5"/><circle cx="417" cy="249" r="5"/><circle cx="436" cy="249" r="5"/><circle cx="454" cy="249" r="5"/><circle cx="473" cy="249" r="5"/><circle cx="492" cy="249" r="5"/><circle cx="511" cy="249" r="5"/><circle cx="530" cy="249" r="5"/><circle cx="548" cy="249" r="5"/><circle cx="567" cy="249" r="5"/><circle cx="586" cy="249" r="5"/><circle cx="605" cy="249" r="5"/><circle cx="623" cy="249" r="5"/><circle cx="642" cy="249" r="5"/><circle cx="661" cy="249" r="5"/><circle cx="679" cy="249" r="5"/><circle cx="698" cy="249" r="5"/><circle cx="717" cy="249" r="5"/><circle cx="736" cy="249" r="5"/><circle cx="754" cy="249" r="5"/><circle cx="773" cy="249" r="5"/><circle cx="792" cy="249" r="5"/><circle cx="811" cy="249" r="5"/><circle cx="829" cy="249" r="5"/><circle cx="848" cy="249" r="5"/><circle cx="867" cy="249" r="5"/><circle cx="886" cy="249" r="5"/><circle cx="904" cy="249" r="5"/><circle cx="923" cy="249" r="5"/><circle cx="942" cy="249" r="5"/><circle cx="961" cy="249" r="5"/><circle cx="979" cy="249" r="5"/><circle cx="998" cy="249" r="5"/><circle cx="1017" cy="249" r="5"/><circle cx="1036" cy="249" r="5"/><circle cx="1054" cy="249" r="5"/><circle cx="1073" cy="249" r="5"/><circle cx="42" cy="268" r="5"/><circle cx="61" cy="268" r="5"/><circle cx="80" cy="268" r="5"/><circle cx="98" cy="268" r="5"/><circle cx="117" cy="268" r="5"/><circle cx="136" cy="268" r="5"/><circle cx="155" cy="268" r="5"/><circle cx="173" cy="268" r="5"/><circle cx="192" cy="268" r="5"/><circle cx="211" cy="268" r="5"/><circle cx="230" cy="268" r="5"/><circle cx="248" cy="268" r="5"/><circle cx="267" cy="268" r="5"/><circle cx="286" cy="268" r="5"/><circle cx="305" cy="268" r="5"/><circle cx="323" cy="268" r="5"/><circle cx="342" cy="268" r="5"/><circle cx="361" cy="268" r="5"/><circle cx="380" cy="268" r="5"/><circle cx="398" cy="268" r="5"/><circle cx="417" cy="268" r="5"/><circle cx="436" cy="268" r="5"/><circle cx="454" cy="268" r="5"/><circle cx="473" cy="268" r="5"/><circle cx="492" cy="268" r="5"/><circle cx="511" cy="268" r="5"/><circle cx="530" cy="268" r="5"/><circle cx="548" cy="268" r="5"/><circle cx="567" cy="268" r="5"/><circle cx="586" cy="268" r="5"/><circle cx="605" cy="268" r="5"/><circle cx="623" cy="268" r="5"/><circle cx="642" cy="268" r="5"/><circle cx="661" cy="268" r="5"/><circle cx="679" cy="268" r="5"/><circle cx="698" cy="268" r="5"/><circle cx="717" cy="268" r="5"/><circle cx="736" cy="268" r="5"/><circle cx="754" cy="268" r="5"/><circle cx="773" cy="268" r="5"/><circle cx="792" cy="268" r="5"/><circle cx="811" cy="268" r="5"/><circle cx="829" cy="268" r="5"/><circle cx="848" cy="268" r="5"/><circle cx="867" cy="268" r="5"/><circle cx="886" cy="268" r="5"/><circle cx="904" cy="268" r="5"/><circle cx="923" cy="268" r="5"/><circle cx="942" cy="268" r="5"/><circle cx="961" cy="268" r="5"/><circle cx="979" cy="268" r="5"/><circle cx="998" cy="268" r="5"/><circle cx="1017" cy="268" r="5"/><circle cx="1036" cy="268" r="5"/><circle cx="1054" cy="268" r="5"/><circle cx="5" cy="287" r="5"/><circle cx="23" cy="287" r="5"/><circle cx="42" cy="287" r="5"/><circle cx="61" cy="287" r="5"/><circle cx="80" cy="287" r="5"/><circle cx="98" cy="287" r="5"/><circle cx="117" cy="287" r="5"/><circle cx="136" cy="287" r="5"/><circle cx="155" cy="287" r="5"/><circle cx="173" cy="287" r="5"/><circle cx="192" cy="287" r="5"/><circle cx="211" cy="287" r="5"/><circle cx="230" cy="287" r="5"/><circle cx="248" cy="287" r="5"/><circle cx="267" cy="287" r="5"/><circle cx="286" cy="287" r="5"/><circle cx="305" cy="287" r="5"/><circle cx="323" cy="287" r="5"/><circle cx="342" cy="287" r="5"/><circle cx="361" cy="287" r="5"/><circle cx="380" cy="287" r="5"/><circle cx="398" cy="287" r="5"/><circle cx="417" cy="287" r="5"/><circle cx="436" cy="287" r="5"/><circle cx="454" cy="287" r="5"/><circle cx="473" cy="287" r="5"/><circle cx="492" cy="287" r="5"/><circle cx="511" cy="287" r="5"/><circle cx="530" cy="287" r="5"/><circle cx="548" cy="287" r="5"/><circle cx="567" cy="287" r="5"/><circle cx="586" cy="287" r="5"/><circle cx="605" cy="287" r="5"/><circle cx="623" cy="287" r="5"/><circle cx="642" cy="287" r="5"/><circle cx="661" cy="287" r="5"/><circle cx="679" cy="287" r="5"/><circle cx="698" cy="287" r="5"/><circle cx="717" cy="287" r="5"/><circle cx="736" cy="287" r="5"/><circle cx="754" cy="287" r="5"/><circle cx="773" cy="287" r="5"/><circle cx="792" cy="287" r="5"/><circle cx="811" cy="287" r="5"/><circle cx="829" cy="287" r="5"/><circle cx="848" cy="287" r="5"/><circle cx="867" cy="287" r="5"/><circle cx="886" cy="287" r="5"/><circle cx="904" cy="287" r="5"/><circle cx="923" cy="287" r="5"/><circle cx="942" cy="287" r="5"/><circle cx="961" cy="287" r="5"/><circle cx="979" cy="287" r="5"/><circle cx="998" cy="287" r="5"/><circle cx="1017" cy="287" r="5"/><circle cx="1036" cy="287" r="5"/><circle cx="1054" cy="287" r="5"/><circle cx="1073" cy="287" r="5"/><circle cx="5" cy="305" r="5"/><circle cx="23" cy="305" r="5"/><circle cx="42" cy="305" r="5"/><circle cx="61" cy="305" r="5"/><circle cx="80" cy="305" r="5"/><circle cx="98" cy="305" r="5"/><circle cx="117" cy="305" r="5"/><circle cx="136" cy="305" r="5"/><circle cx="155" cy="305" r="5"/><circle cx="173" cy="305" r="5"/><circle cx="192" cy="305" r="5"/><circle cx="211" cy="305" r="5"/><circle cx="230" cy="305" r="5"/><circle cx="248" cy="305" r="5"/><circle cx="267" cy="305" r="5"/><circle cx="286" cy="305" r="5"/><circle cx="305" cy="305" r="5"/><circle cx="323" cy="305" r="5"/><circle cx="342" cy="305" r="5"/><circle cx="361" cy="305" r="5"/><circle cx="380" cy="305" r="5"/><circle cx="398" cy="305" r="5"/><circle cx="417" cy="305" r="5"/><circle cx="436" cy="305" r="5"/><circle cx="454" cy="305" r="5"/><circle cx="473" cy="305" r="5"/><circle cx="492" cy="305" r="5"/><circle cx="511" cy="305" r="5"/><circle cx="530" cy="305" r="5"/><circle cx="548" cy="305" r="5"/><circle cx="567" cy="305" r="5"/><circle cx="586" cy="305" r="5"/><circle cx="605" cy="305" r="5"/><circle cx="623" cy="305" r="5"/><circle cx="642" cy="305" r="5"/><circle cx="661" cy="305" r="5"/><circle cx="679" cy="305" r="5"/><circle cx="698" cy="305" r="5"/><circle cx="717" cy="305" r="5"/><circle cx="736" cy="305" r="5"/><circle cx="754" cy="305" r="5"/><circle cx="773" cy="305" r="5"/><circle cx="792" cy="305" r="5"/><circle cx="811" cy="305" r="5"/><circle cx="829" cy="305" r="5"/><circle cx="848" cy="305" r="5"/><circle cx="867" cy="305" r="5"/><circle cx="886" cy="305" r="5"/><circle cx="904" cy="305" r="5"/><circle cx="923" cy="305" r="5"/><circle cx="942" cy="305" r="5"/><circle cx="961" cy="305" r="5"/><circle cx="979" cy="305" r="5"/><circle cx="998" cy="305" r="5"/><circle cx="1017" cy="305" r="5"/><circle cx="1036" cy="305" r="5"/><circle cx="1054" cy="305" r="5"/><circle cx="1073" cy="305" r="5"/><circle cx="5" cy="324" r="5"/><circle cx="23" cy="324" r="5"/><circle cx="42" cy="324" r="5"/><circle cx="61" cy="324" r="5"/><circle cx="80" cy="324" r="5"/><circle cx="98" cy="324" r="5"/><circle cx="117" cy="324" r="5"/><circle cx="136" cy="324" r="5"/><circle cx="155" cy="324" r="5"/><circle cx="173" cy="324" r="5"/><circle cx="192" cy="324" r="5"/><circle cx="211" cy="324" r="5"/><circle cx="230" cy="324" r="5"/><circle cx="248" cy="324" r="5"/><circle cx="267" cy="324" r="5"/><circle cx="286" cy="324" r="5"/><circle cx="305" cy="324" r="5"/><circle cx="323" cy="324" r="5"/><circle cx="342" cy="324" r="5"/><circle cx="361" cy="324" r="5"/><circle cx="380" cy="324" r="5"/><circle cx="398" cy="324" r="5"/><circle cx="417" cy="324" r="5"/><circle cx="436" cy="324" r="5"/><circle cx="454" cy="324" r="5"/><circle cx="473" cy="324" r="5"/><circle cx="492" cy="324" r="5"/><circle cx="511" cy="324" r="5"/><circle cx="530" cy="324" r="5"/><circle cx="548" cy="324" r="5"/><circle cx="567" cy="324" r="5"/><circle cx="586" cy="324" r="5"/><circle cx="605" cy="324" r="5"/><circle cx="623" cy="324" r="5"/><circle cx="642" cy="324" r="5"/><circle cx="661" cy="324" r="5"/><circle cx="679" cy="324" r="5"/><circle cx="698" cy="324" r="5"/><circle cx="717" cy="324" r="5"/><circle cx="736" cy="324" r="5"/><circle cx="754" cy="324" r="5"/><circle cx="773" cy="324" r="5"/><circle cx="792" cy="324" r="5"/><circle cx="811" cy="324" r="5"/><circle cx="829" cy="324" r="5"/><circle cx="848" cy="324" r="5"/><circle cx="867" cy="324" r="5"/><circle cx="886" cy="324" r="5"/><circle cx="904" cy="324" r="5"/><circle cx="923" cy="324" r="5"/><circle cx="942" cy="324" r="5"/><circle cx="961" cy="324" r="5"/><circle cx="979" cy="324" r="5"/><circle cx="998" cy="324" r="5"/><circle cx="1017" cy="324" r="5"/><circle cx="1036" cy="324" r="5"/><circle cx="1054" cy="324" r="5"/><circle cx="1073" cy="324" r="5"/><circle cx="5" cy="343" r="5"/><circle cx="23" cy="343" r="5"/><circle cx="42" cy="343" r="5"/><circle cx="61" cy="343" r="5"/><circle cx="80" cy="343" r="5"/><circle cx="98" cy="343" r="5"/><circle cx="117" cy="343" r="5"/><circle cx="136" cy="343" r="5"/><circle cx="155" cy="343" r="5"/><circle cx="173" cy="343" r="5"/><circle cx="192" cy="343" r="5"/><circle cx="211" cy="343" r="5"/><circle cx="230" cy="343" r="5"/><circle cx="248" cy="343" r="5"/><circle cx="267" cy="343" r="5"/><circle cx="286" cy="343" r="5"/><circle cx="361" cy="343" r="5"/><circle cx="380" cy="343" r="5"/><circle cx="398" cy="343" r="5"/><circle cx="417" cy="343" r="5"/><circle cx="436" cy="343" r="5"/><circle cx="454" cy="343" r="5"/><circle cx="473" cy="343" r="5"/><circle cx="492" cy="343" r="5"/><circle cx="511" cy="343" r="5"/><circle cx="530" cy="343" r="5"/><circle cx="548" cy="343" r="5"/><circle cx="567" cy="343" r="5"/><circle cx="586" cy="343" r="5"/><circle cx="605" cy="343" r="5"/><circle cx="623" cy="343" r="5"/><circle cx="642" cy="343" r="5"/><circle cx="661" cy="343" r="5"/><circle cx="679" cy="343" r="5"/><circle cx="698" cy="343" r="5"/><circle cx="717" cy="343" r="5"/><circle cx="736" cy="343" r="5"/><circle cx="754" cy="343" r="5"/><circle cx="773" cy="343" r="5"/><circle cx="792" cy="343" r="5"/><circle cx="811" cy="343" r="5"/><circle cx="829" cy="343" r="5"/><circle cx="848" cy="343" r="5"/><circle cx="867" cy="343" r="5"/><circle cx="886" cy="343" r="5"/><circle cx="904" cy="343" r="5"/><circle cx="923" cy="343" r="5"/><circle cx="942" cy="343" r="5"/><circle cx="961" cy="343" r="5"/><circle cx="979" cy="343" r="5"/><circle cx="998" cy="343" r="5"/><circle cx="1017" cy="343" r="5"/><circle cx="1036" cy="343" r="5"/><circle cx="1054" cy="343" r="5"/><circle cx="1073" cy="343" r="5"/><circle cx="42" cy="361" r="5"/><circle cx="61" cy="361" r="5"/><circle cx="80" cy="361" r="5"/><circle cx="98" cy="361" r="5"/><circle cx="117" cy="361" r="5"/><circle cx="136" cy="361" r="5"/><circle cx="155" cy="361" r="5"/><circle cx="173" cy="361" r="5"/><circle cx="192" cy="361" r="5"/><circle cx="211" cy="361" r="5"/><circle cx="230" cy="361" r="5"/><circle cx="248" cy="361" r="5"/><circle cx="267" cy="361" r="5"/><circle cx="286" cy="361" r="5"/><circle cx="417" cy="361" r="5"/><circle cx="436" cy="361" r="5"/><circle cx="454" cy="361" r="5"/><circle cx="473" cy="361" r="5"/><circle cx="492" cy="361" r="5"/><circle cx="511" cy="361" r="5"/><circle cx="530" cy="361" r="5"/><circle cx="548" cy="361" r="5"/><circle cx="567" cy="361" r="5"/><circle cx="586" cy="361" r="5"/><circle cx="605" cy="361" r="5"/><circle cx="623" cy="361" r="5"/><circle cx="642" cy="361" r="5"/><circle cx="661" cy="361" r="5"/><circle cx="679" cy="361" r="5"/><circle cx="698" cy="361" r="5"/><circle cx="717" cy="361" r="5"/><circle cx="736" cy="361" r="5"/><circle cx="754" cy="361" r="5"/><circle cx="773" cy="361" r="5"/><circle cx="792" cy="361" r="5"/><circle cx="811" cy="361" r="5"/><circle cx="829" cy="361" r="5"/><circle cx="848" cy="361" r="5"/><circle cx="867" cy="361" r="5"/><circle cx="886" cy="361" r="5"/><circle cx="904" cy="361" r="5"/><circle cx="923" cy="361" r="5"/><circle cx="942" cy="361" r="5"/><circle cx="961" cy="361" r="5"/><circle cx="979" cy="361" r="5"/><circle cx="998" cy="361" r="5"/><circle cx="1017" cy="361" r="5"/><circle cx="1036" cy="361" r="5"/><circle cx="1054" cy="361" r="5"/><circle cx="136" cy="380" r="5"/><circle cx="155" cy="380" r="5"/><circle cx="173" cy="380" r="5"/><circle cx="192" cy="380" r="5"/><circle cx="211" cy="380" r="5"/><circle cx="436" cy="380" r="5"/><circle cx="454" cy="380" r="5"/><circle cx="473" cy="380" r="5"/><circle cx="492" cy="380" r="5"/><circle cx="511" cy="380" r="5"/><circle cx="530" cy="380" r="5"/><circle cx="548" cy="380" r="5"/><circle cx="567" cy="380" r="5"/><circle cx="586" cy="380" r="5"/><circle cx="605" cy="380" r="5"/><circle cx="623" cy="380" r="5"/><circle cx="642" cy="380" r="5"/><circle cx="661" cy="380" r="5"/><circle cx="679" cy="380" r="5"/><circle cx="698" cy="380" r="5"/><circle cx="717" cy="380" r="5"/><circle cx="736" cy="380" r="5"/><circle cx="754" cy="380" r="5"/><circle cx="773" cy="380" r="5"/><circle cx="792" cy="380" r="5"/><circle cx="811" cy="380" r="5"/><circle cx="829" cy="380" r="5"/><circle cx="848" cy="380" r="5"/><circle cx="867" cy="380" r="5"/><circle cx="886" cy="380" r="5"/><circle cx="904" cy="380" r="5"/><circle cx="923" cy="380" r="5"/><circle cx="942" cy="380" r="5"/><circle cx="961" cy="380" r="5"/><circle cx="979" cy="380" r="5"/><circle cx="998" cy="380" r="5"/><circle cx="1017" cy="380" r="5"/><circle cx="436" cy="399" r="5"/><circle cx="454" cy="399" r="5"/><circle cx="473" cy="399" r="5"/><circle cx="492" cy="399" r="5"/><circle cx="511" cy="399" r="5"/><circle cx="530" cy="399" r="5"/><circle cx="548" cy="399" r="5"/><circle cx="567" cy="399" r="5"/><circle cx="586" cy="399" r="5"/><circle cx="605" cy="399" r="5"/><circle cx="623" cy="399" r="5"/><circle cx="642" cy="399" r="5"/><circle cx="661" cy="399" r="5"/><circle cx="679" cy="399" r="5"/><circle cx="698" cy="399" r="5"/><circle cx="717" cy="399" r="5"/><circle cx="736" cy="399" r="5"/><circle cx="754" cy="399" r="5"/><circle cx="773" cy="399" r="5"/><circle cx="792" cy="399" r="5"/><circle cx="811" cy="399" r="5"/><circle cx="829" cy="399" r="5"/><circle cx="848" cy="399" r="5"/><circle cx="867" cy="399" r="5"/><circle cx="886" cy="399" r="5"/><circle cx="904" cy="399" r="5"/><circle cx="923" cy="399" r="5"/><circle cx="942" cy="399" r="5"/><circle cx="961" cy="399" r="5"/><circle cx="979" cy="399" r="5"/><circle cx="998" cy="399" r="5"/><circle cx="454" cy="418" r="5"/><circle cx="473" cy="418" r="5"/><circle cx="492" cy="418" r="5"/><circle cx="511" cy="418" r="5"/><circle cx="530" cy="418" r="5"/><circle cx="548" cy="418" r="5"/><circle cx="567" cy="418" r="5"/><circle cx="586" cy="418" r="5"/><circle cx="605" cy="418" r="5"/><circle cx="623" cy="418" r="5"/><circle cx="642" cy="418" r="5"/><circle cx="661" cy="418" r="5"/><circle cx="679" cy="418" r="5"/><circle cx="698" cy="418" r="5"/><circle cx="717" cy="418" r="5"/><circle cx="736" cy="418" r="5"/><circle cx="754" cy="418" r="5"/><circle cx="773" cy="418" r="5"/><circle cx="792" cy="418" r="5"/><circle cx="811" cy="418" r="5"/><circle cx="829" cy="418" r="5"/><circle cx="848" cy="418" r="5"/><circle cx="867" cy="418" r="5"/><circle cx="886" cy="418" r="5"/><circle cx="904" cy="418" r="5"/><circle cx="923" cy="418" r="5"/><circle cx="942" cy="418" r="5"/><circle cx="979" cy="418" r="5"/><circle cx="473" cy="437" r="5"/><circle cx="492" cy="437" r="5"/><circle cx="511" cy="437" r="5"/><circle cx="530" cy="437" r="5"/><circle cx="548" cy="437" r="5"/><circle cx="567" cy="437" r="5"/><circle cx="586" cy="437" r="5"/><circle cx="605" cy="437" r="5"/><circle cx="623" cy="437" r="5"/><circle cx="642" cy="437" r="5"/><circle cx="661" cy="437" r="5"/><circle cx="679" cy="437" r="5"/><circle cx="698" cy="437" r="5"/><circle cx="717" cy="437" r="5"/><circle cx="736" cy="437" r="5"/><circle cx="754" cy="437" r="5"/><circle cx="773" cy="437" r="5"/><circle cx="792" cy="437" r="5"/><circle cx="811" cy="437" r="5"/><circle cx="829" cy="437" r="5"/><circle cx="848" cy="437" r="5"/><circle cx="867" cy="437" r="5"/><circle cx="886" cy="437" r="5"/><circle cx="904" cy="437" r="5"/><circle cx="473" cy="455" r="5"/><circle cx="492" cy="455" r="5"/><circle cx="511" cy="455" r="5"/><circle cx="530" cy="455" r="5"/><circle cx="548" cy="455" r="5"/><circle cx="567" cy="455" r="5"/><circle cx="586" cy="455" r="5"/><circle cx="605" cy="455" r="5"/><circle cx="623" cy="455" r="5"/><circle cx="642" cy="455" r="5"/><circle cx="661" cy="455" r="5"/><circle cx="679" cy="455" r="5"/><circle cx="698" cy="455" r="5"/><circle cx="717" cy="455" r="5"/><circle cx="736" cy="455" r="5"/><circle cx="754" cy="455" r="5"/><circle cx="773" cy="455" r="5"/><circle cx="792" cy="455" r="5"/><circle cx="811" cy="455" r="5"/><circle cx="829" cy="455" r="5"/><circle cx="848" cy="455" r="5"/><circle cx="867" cy="455" r="5"/><circle cx="886" cy="455" r="5"/><circle cx="436" cy="474" r="5"/><circle cx="454" cy="474" r="5"/><circle cx="473" cy="474" r="5"/><circle cx="492" cy="474" r="5"/><circle cx="511" cy="474" r="5"/><circle cx="530" cy="474" r="5"/><circle cx="548" cy="474" r="5"/><circle cx="586" cy="474" r="5"/><circle cx="605" cy="474" r="5"/><circle cx="623" cy="474" r="5"/><circle cx="642" cy="474" r="5"/><circle cx="661" cy="474" r="5"/><circle cx="679" cy="474" r="5"/><circle cx="698" cy="474" r="5"/><circle cx="717" cy="474" r="5"/><circle cx="736" cy="474" r="5"/><circle cx="754" cy="474" r="5"/><circle cx="773" cy="474" r="5"/><circle cx="792" cy="474" r="5"/><circle cx="811" cy="474" r="5"/><circle cx="829" cy="474" r="5"/><circle cx="436" cy="493" r="5"/><circle cx="454" cy="493" r="5"/><circle cx="473" cy="493" r="5"/><circle cx="492" cy="493" r="5"/><circle cx="511" cy="493" r="5"/><circle cx="530" cy="493" r="5"/><circle cx="548" cy="493" r="5"/><circle cx="623" cy="493" r="5"/><circle cx="642" cy="493" r="5"/><circle cx="661" cy="493" r="5"/><circle cx="679" cy="493" r="5"/><circle cx="698" cy="493" r="5"/><circle cx="717" cy="493" r="5"/><circle cx="736" cy="493" r="5"/><circle cx="754" cy="493" r="5"/><circle cx="773" cy="493" r="5"/><circle cx="792" cy="493" r="5"/><circle cx="811" cy="493" r="5"/><circle cx="417" cy="511" r="5"/><circle cx="436" cy="511" r="5"/><circle cx="454" cy="511" r="5"/><circle cx="473" cy="511" r="5"/><circle cx="492" cy="511" r="5"/><circle cx="511" cy="511" r="5"/><circle cx="530" cy="511" r="5"/><circle cx="717" cy="511" r="5"/><circle cx="736" cy="511" r="5"/><circle cx="754" cy="511" r="5"/><circle cx="773" cy="511" r="5"/><circle cx="792" cy="511" r="5"/><circle cx="811" cy="511" r="5"/><circle cx="398" cy="530" r="5"/><circle cx="417" cy="530" r="5"/><circle cx="436" cy="530" r="5"/><circle cx="454" cy="530" r="5"/><circle cx="473" cy="530" r="5"/><circle cx="492" cy="530" r="5"/><circle cx="511" cy="530" r="5"/><circle cx="679" cy="530" r="5"/><circle cx="698" cy="530" r="5"/><circle cx="717" cy="530" r="5"/><circle cx="736" cy="530" r="5"/><circle cx="754" cy="530" r="5"/><circle cx="773" cy="530" r="5"/><circle cx="792" cy="530" r="5"/><circle cx="811" cy="530" r="5"/><circle cx="829" cy="530" r="5"/><circle cx="867" cy="530" r="5"/><circle cx="886" cy="530" r="5"/><circle cx="904" cy="530" r="5"/><circle cx="398" cy="549" r="5"/><circle cx="417" cy="549" r="5"/><circle cx="436" cy="549" r="5"/><circle cx="454" cy="549" r="5"/><circle cx="473" cy="549" r="5"/><circle cx="492" cy="549" r="5"/><circle cx="661" cy="549" r="5"/><circle cx="679" cy="549" r="5"/><circle cx="698" cy="549" r="5"/><circle cx="717" cy="549" r="5"/><circle cx="736" cy="549" r="5"/><circle cx="754" cy="549" r="5"/><circle cx="773" cy="549" r="5"/><circle cx="792" cy="549" r="5"/><circle cx="811" cy="549" r="5"/><circle cx="829" cy="549" r="5"/><circle cx="848" cy="549" r="5"/><circle cx="867" cy="549" r="5"/><circle cx="886" cy="549" r="5"/><circle cx="904" cy="549" r="5"/><circle cx="717" cy="568" r="5"/><circle cx="736" cy="568" r="5"/><circle cx="754" cy="568" r="5"/><circle cx="773" cy="568" r="5"/><circle cx="792" cy="568" r="5"/><circle cx="811" cy="568" r="5"/><circle cx="829" cy="568" r="5"/><circle cx="848" cy="568" r="5"/><circle cx="867" cy="568" r="5"/><circle cx="886" cy="568" r="5"/><circle cx="904" cy="568" r="5"/><circle cx="717" cy="586" r="5"/><circle cx="736" cy="586" r="5"/><circle cx="754" cy="586" r="5"/><circle cx="773" cy="586" r="5"/><circle cx="792" cy="586" r="5"/><circle cx="811" cy="586" r="5"/><circle cx="829" cy="586" r="5"/><circle cx="717" cy="605" r="5"/><circle cx="736" cy="605" r="5"/><circle cx="754" cy="605" r="5"/><circle cx="773" cy="605" r="5"/><circle cx="792" cy="605" r="5"/></g></svg>