<svg width="100" height="22" viewBox="0 0 100 22" xmlns="http://www.w3.org/2000/svg"><title>msft_logo_print</title><g fill="#FFF" fill-rule="evenodd"><path d="M0 .018h10.159v10.159H0V.018zm11.196 0h10.158v10.159H11.196V.018zm80.409 3.869c.94-.61 2.147-.666 3.203-.379.006.629 0 1.257.006 1.886-.5-.22-1.092-.367-1.617-.147-.42.165-.665.598-.732 1.025-.08.543-.024 1.098-.043 1.647h3.216c.006-.695-.007-1.39.012-2.086.726-.208 1.452-.44 2.172-.66.006.916-.006 1.831.006 2.753.726-.013 1.452 0 2.172-.007v1.782c-.726-.03-1.452-.006-2.184-.012.006 1.025 0 2.05 0 3.075.012.567-.03 1.14.036 1.702.043.336.159.702.476.879.525.293 1.19.164 1.672-.159v1.8c-.628.275-1.33.354-2.007.305-.647-.049-1.312-.28-1.733-.793-.488-.58-.61-1.36-.622-2.099-.007-1.574 0-3.148 0-4.722h-3.216v7.413h-2.196c0-2.471-.006-4.942 0-7.407-.507-.012-1.02 0-1.532-.006 0-.586.006-1.172 0-1.764.507-.012 1.013-.006 1.526-.006.036-.78-.08-1.58.152-2.343a3.036 3.036 0 0 1 1.233-1.677zm-47.035.128c.445-.067.921.085 1.214.433.342.378.409.982.153 1.428-.281.5-.916.732-1.465.61-.567-.104-1.043-.635-1.019-1.227-.018-.622.507-1.171 1.117-1.244zm-16.84.275h3.197c.995 2.525 1.996 5.045 2.99 7.57.256.635.494 1.27.757 1.898 1.28-3.154 2.574-6.302 3.85-9.463 1.025-.018 2.05-.006 3.075-.006v12.813c-.739 0-1.477.006-2.215-.006.006-3.148 0-6.303.006-9.457 0-.14-.006-.28-.012-.427-.043.067-.08.134-.116.207-1.27 3.228-2.563 6.443-3.826 9.67-.524.019-1.05 0-1.58.013-1.312-3.228-2.605-6.461-3.905-9.689a5.59 5.59 0 0 0-.11-.195c-.024 1.379-.006 2.764-.012 4.143v5.735h-2.093c-.006-4.265-.006-8.536-.006-12.807zm22.886 3.617a5.936 5.936 0 0 1 3.264.012c.22.061.428.147.629.263-.012.701 0 1.403-.006 2.099-.708-.543-1.605-.885-2.508-.77a2.581 2.581 0 0 0-1.824 1.014c-.55.714-.677 1.665-.58 2.544.073.683.354 1.373.885 1.824.555.494 1.33.665 2.056.61.714-.085 1.391-.384 1.97-.811.007.665 0 1.324.007 1.989-.897.537-1.977.671-3.002.622-1.05-.055-2.099-.451-2.861-1.196-.83-.799-1.276-1.934-1.33-3.075-.055-1.183.189-2.422.866-3.41.567-.836 1.458-1.434 2.434-1.715zm23.997-.14c1.012-.177 2.08-.049 3.038.317v2.02a3.893 3.893 0 0 0-2.306-.684c-.41.019-.86.19-1.05.58-.146.384-.049.89.318 1.123.622.415 1.366.591 2.013.97.506.286 1 .659 1.257 1.196.482 1.006.28 2.342-.574 3.093-.811.756-1.983.97-3.056.927-.763-.048-1.532-.201-2.233-.512.006-.708-.007-1.416.006-2.123a4.78 4.78 0 0 0 1.995.86c.5.08 1.05.085 1.519-.14.445-.22.53-.86.262-1.251-.25-.3-.616-.464-.958-.629-.646-.293-1.33-.537-1.897-.97a2.279 2.279 0 0 1-.824-1.244c-.177-.733-.122-1.556.305-2.19.482-.739 1.324-1.184 2.185-1.343zm-15.199.293c.604-.366 1.38-.397 2.038-.171-.006.732 0 1.464 0 2.196a2.315 2.315 0 0 0-1.483-.347c-.622.073-1.116.549-1.372 1.098-.281.58-.33 1.238-.311 1.873v4.393H56.12V7.926c.72-.013 1.446-.007 2.166 0-.007.524 0 1.049 0 1.574.231-.574.58-1.129 1.128-1.44zm-15.759-.14c.726 0 1.458-.013 2.184.006-.006 3.056 0 6.12-.006 9.176h-2.178V7.919z"/><path d="M70.561 10.061a3.866 3.866 0 0 0-1.922-1.94c-.976-.446-2.092-.507-3.142-.372-1.11.14-2.184.659-2.886 1.543-.64.787-.951 1.8-1.012 2.807-.086 1.183.11 2.44.805 3.429.592.854 1.525 1.44 2.538 1.653a6.31 6.31 0 0 0 2.575 0c.988-.201 1.91-.75 2.52-1.556.598-.762.896-1.72.964-2.672.067-.976-.03-1.989-.44-2.892zm-2.117 4.216c-.207.47-.592.872-1.08 1.062-.567.22-1.208.231-1.794.079a2.192 2.192 0 0 1-1.378-1.135c-.354-.708-.41-1.525-.336-2.3.067-.702.311-1.428.848-1.916.39-.366.921-.543 1.446-.573.659-.043 1.36.146 1.837.622.506.5.701 1.22.756 1.916.049.756.018 1.543-.299 2.245zm19.713-3.947c-.335-.91-1.012-1.703-1.885-2.136-1-.506-2.166-.58-3.258-.445-.885.116-1.751.451-2.428 1.043-.824.708-1.306 1.751-1.452 2.819-.135 1.067-.092 2.19.347 3.19a4.05 4.05 0 0 0 2.233 2.167c.977.384 2.063.427 3.094.262 1.05-.17 2.05-.726 2.703-1.58.695-.879.994-2.02.994-3.13.012-.745-.08-1.495-.348-2.19zm-1.983 3.111c-.085.482-.25.964-.567 1.349-.317.384-.793.616-1.281.689-.525.08-1.08.043-1.574-.17-.531-.227-.94-.684-1.16-1.215-.262-.628-.31-1.33-.262-2.001.049-.653.232-1.324.665-1.83.39-.477.995-.733 1.605-.77.622-.042 1.281.098 1.757.52.44.365.683.908.793 1.464.134.646.134 1.311.024 1.964z" fill-rule="nonzero"/><path d="M0 11.214h10.159v10.159H0V11.214zm11.196 0h10.158v10.159H11.196V11.214z"/></g></svg>