<svg width="94" height="27" viewBox="0 0 94 27" xmlns="http://www.w3.org/2000/svg"><title>NASA</title><path d="M50.2 25.7h12.85c1.9 0 3.5-.8 4.75-2.35 1.25-1.5 1.85-3.35 1.85-5.4 0-4.2-5.35-7.15-7.45-7.15h-7c-.55 0-1-.25-1.35-.65-.35-.45-.55-.95-.55-1.5 0-.7.2-1.3.55-1.75.4-.5.9-.8 1.5-.8h13.2V.85H55.1c-2.4 0-4.3.75-5.6 2.15-1.2 1.35-1.75 3.1-1.75 5.2 0 2.05.6 3.9 1.75 5.35 1.35 1.6 2.9 2.45 4.8 2.45h8.15c.5 0 .9.15 1.2.55.35.4.5.9.5 1.45 0 .65-.25 1.25-.65 1.7-.45.45-.95.7-1.55.7h-13l-.2-.35L43.9 4.4l-.25-.5C42.45 1.5 40.5.3 37.8.3c-1.5 0-2.8.35-4 1.1-1.25.75-2 1.8-2.45 3.2L24.8 25.65l5.95.05 6-18.75c.15-.6.5-.9.95-.9.25 0 .45.1.6.25.15.2.25.4.3.65l6.05 18.75h5.55zM5.95 8.5v17.15H.45V6.6c0-2.45.6-4.2 1.85-5.2C3.3.65 4.75.25 6.8.25c1.65 0 3.1.5 4.4 1.45 1.3.95 2.1 2.2 2.55 3.8l3.6 12.65.6 1.7c.05.35.25.6.45.8.25.2.5.3.8.2.5-.05.75-.35.75-.8V.85h5.65V19.8c0 2.1-.5 3.7-1.5 4.8-1 1.15-2.45 1.7-4.45 1.7-1.7 0-3.15-.35-4.3-.95-1.4-.7-2.25-1.75-2.65-3.2L8.55 7.75l-.3-.95c-.1-.35-.3-.6-.55-.85-.25-.2-.55-.25-.85-.2-.3.05-.5.2-.7.5-.15.25-.25.55-.25.9V8.5h.05zm88 17.2l-6.4-21.3-.25-.5C86.1 1.5 84.15.3 81.45.3c-1.5 0-2.8.35-4 1.1-1.25.75-2 1.8-2.45 3.2l-6.5 21.05 5.95.05 6-18.75c.15-.6.5-.9.95-.9.25 0 .45.1.6.25.15.2.25.4.3.65l6.05 18.75h5.6z" fill="#FFF" fill-rule="evenodd"/></svg>