<svg width="17" height="20" viewBox="0 0 17 20" xmlns="http://www.w3.org/2000/svg"><title>pdf (1)</title><path d="M14.75 11.499c-.258-.262-.832-.401-1.705-.413a13.746 13.746 0 0 0-2.05.155c-.336-.2-.681-.416-.952-.677-.73-.7-1.338-1.673-1.718-2.742.025-.1.046-.188.066-.277 0 0 .41-2.4.302-3.212a.96.96 0 0 0-.054-.23l-.035-.095c-.112-.265-.331-.546-.674-.53l-.202-.007h-.005c-.383 0-.696.201-.777.502-.25.945.007 2.359.473 4.19L7.3 8.46c-.334.837-.751 1.68-1.12 2.422l-.048.097c-.388.781-.74 1.444-1.059 2.006l-.33.179c-.023.013-.588.32-.72.403-1.124.69-1.868 1.473-1.992 2.095-.04.198-.01.452.19.57l.319.165a.938.938 0 0 0 .433.107c.8 0 1.729-1.025 3.009-3.323a29.27 29.27 0 0 1 4.634-1.133c1.123.65 2.505 1.103 3.377 1.103.155 0 .289-.015.397-.045a.675.675 0 0 0 .394-.277c.17-.262.204-.623.158-.992a.668.668 0 0 0-.191-.338zM2.8 15.879c.145-.41.723-1.221 1.577-1.942.054-.044.186-.172.307-.29-.893 1.465-1.491 2.05-1.885 2.233zM7.857 3.896c.257 0 .403.667.415 1.293.012.625-.13 1.064-.306 1.389-.146-.481-.217-1.239-.217-1.735 0 0-.01-.947.108-.947zm-1.51 8.54c.18-.33.366-.678.557-1.047.464-.903.757-1.61.976-2.191a7.206 7.206 0 0 0 1.611 2.058c.08.07.163.139.252.208-1.293.263-2.411.583-3.395.973zm8.154-.074c-.078.05-.304.08-.45.08-.468 0-1.047-.22-1.86-.58.313-.023.599-.035.856-.035.47 0 .609-.002 1.068.118.46.121.465.366.386.417zm1.413-8.47l-2.708-2.788C12.617.497 11.452 0 10.617 0h-9.1C.683 0 0 .702 0 1.56v16.854c0 .859.683 1.561 1.517 1.561H15.47c.834 0 1.517-.702 1.517-1.56V6.554c0-.859-.483-2.058-1.073-2.665zm-.858.882c.06.061.119.136.176.22h-3.099V1.806c.083.06.155.12.215.181l2.708 2.787zm.717 13.641c0 .17-.138.313-.303.313H1.517a.312.312 0 0 1-.304-.313V1.561c0-.17.14-.313.304-.313h9.1c.092 0 .195.012.304.034v4.96h4.821c.02.112.032.218.032.312v11.86z"/></svg>