<svg width="18" height="20" viewBox="0 0 18 20" xmlns="http://www.w3.org/2000/svg"><title>pdf (1)</title><path d="M15.177 11.499c-.267-.262-.857-.401-1.755-.413-.609-.007-1.34.047-2.11.155-.345-.2-.7-.416-.98-.677-.75-.7-1.376-1.673-1.766-2.742.025-.1.047-.188.067-.277 0 0 .422-2.4.31-3.212a.938.938 0 0 0-.054-.23l-.037-.095c-.115-.265-.34-.546-.694-.53l-.207-.007h-.006c-.394 0-.715.201-.799.502-.256.945.008 2.359.487 4.19l-.122.297c-.343.837-.773 1.68-1.153 2.422l-.05.097a39.4 39.4 0 0 1-1.089 2.006l-.339.179c-.024.013-.605.32-.741.403-1.156.69-1.922 1.473-2.05 2.095-.04.198-.01.452.196.57l.328.165a.988.988 0 0 0 .446.107c.823 0 1.779-1.025 3.095-3.323a30.832 30.832 0 0 1 4.768-1.133c1.156.65 2.578 1.103 3.475 1.103.16 0 .297-.015.408-.045a.694.694 0 0 0 .406-.277c.174-.262.21-.623.162-.992-.014-.11-.102-.246-.196-.338zM2.88 15.879c.15-.41.745-1.221 1.623-1.942a8.26 8.26 0 0 0 .316-.29c-.919 1.465-1.534 2.05-1.939 2.233zM8.084 3.896c.265 0 .416.667.428 1.293.012.625-.134 1.064-.315 1.389-.15-.481-.223-1.239-.223-1.735 0 0-.011-.947.11-.947zm-1.552 8.54c.184-.33.376-.678.572-1.047.478-.903.78-1.61 1.004-2.191a7.24 7.24 0 0 0 1.658 2.058c.082.07.168.139.259.208-1.33.263-2.48.583-3.493.973zm8.389-.074c-.081.05-.313.08-.463.08-.481 0-1.078-.22-1.914-.58.322-.023.616-.035.88-.035.483 0 .627-.002 1.1.118.472.121.478.366.397.417zm1.454-8.47l-2.787-2.788C12.98.497 11.782 0 10.924 0H1.56C.702 0 0 .702 0 1.56v16.854c0 .859.702 1.561 1.56 1.561h14.358c.858 0 1.56-.702 1.56-1.56V6.554c0-.859-.496-2.058-1.103-2.665zm-.883.882c.061.061.122.136.181.22h-3.189V1.806c.085.06.16.12.221.181l2.787 2.787zm.738 13.641c0 .17-.143.313-.312.313H1.56a.316.316 0 0 1-.313-.313V1.561c0-.17.143-.313.313-.313h9.363c.094 0 .2.012.312.034v4.96h4.96a1.7 1.7 0 0 1 .034.312v11.86z" fill="#FFF"/></svg>