<svg width="35" height="35" viewBox="0 0 35 35" xmlns="http://www.w3.org/2000/svg"><title>percent</title><g fill="#FFF" fill-rule="evenodd"><path d="M29.874 5.126A17.386 17.386 0 0 0 17.5 0C12.826 0 8.431 1.82 5.126 5.126A17.386 17.386 0 0 0 0 17.5c0 4.674 1.82 9.069 5.126 12.374A17.386 17.386 0 0 0 17.5 35c3.2 0 6.331-.872 9.055-2.522a1.367 1.367 0 0 0-1.417-2.339 14.738 14.738 0 0 1-7.638 2.127c-8.142 0-14.766-6.624-14.766-14.766S9.358 2.734 17.5 2.734 32.266 9.358 32.266 17.5c0 2.911-.866 5.745-2.504 8.195a1.367 1.367 0 0 0 2.273 1.52A17.431 17.431 0 0 0 35 17.5c0-4.674-1.82-9.069-5.126-12.374z"/><path d="M13.282 25.539a1.367 1.367 0 0 0 1.853-.553l7.39-13.672a1.367 1.367 0 1 0-2.405-1.3l-7.39 13.672a1.367 1.367 0 0 0 .552 1.853z"/><path d="M15.244 12.715a3.422 3.422 0 0 0-3.418-3.418 3.422 3.422 0 0 0-3.418 3.418 3.422 3.422 0 0 0 3.418 3.418 3.422 3.422 0 0 0 3.418-3.418zm-3.418.683a.684.684 0 1 1 .002-1.368.684.684 0 0 1-.002 1.368zm11.279 12.305a3.422 3.422 0 0 0 3.418-3.418 3.422 3.422 0 0 0-3.418-3.418 3.422 3.422 0 0 0-3.418 3.418 3.422 3.422 0 0 0 3.418 3.418zm0-4.101a.684.684 0 1 1-.001 1.368.684.684 0 0 1 .001-1.368z" fill-rule="nonzero"/></g></svg>