<svg width="80" height="80" viewBox="0 0 80 80" xmlns="http://www.w3.org/2000/svg"><title>play-button</title><g fill="#FF702A" fill-rule="evenodd"><path d="M79.67 38.545C79.002 17.611 62.08.69 41.146.021 29.756-.34 19.1 3.996 11.223 12.127 3.65 19.944-.327 30.25.02 41.147.69 62.08 17.611 79.001 38.545 79.67c.436.014.868.02 1.3.02 10.884 0 21.049-4.306 28.623-12.126 7.572-7.816 11.55-18.122 11.202-29.019zM62.44 61.726C56.463 67.9 48.438 71.3 39.847 71.3c-.344 0-.687-.006-1.034-.017C22.291 70.756 8.936 57.401 8.408 40.88c-.275-8.605 2.865-16.743 8.842-22.914 5.98-6.173 14.004-9.573 22.596-9.573.343 0 .687.006 1.033.016 16.521.528 29.876 13.883 30.404 30.405.275 8.605-2.866 16.743-8.842 22.913z" fill-rule="nonzero"/><path d="M52.915 37.53l-17.67-12.668c-1.884-1.352-4.508-.005-4.508 2.315v25.338c0 2.32 2.624 3.667 4.508 2.315l17.67-12.67a2.848 2.848 0 0 0 0-4.63z"/></g></svg>