<svg width="1299" height="662" viewBox="0 0 1299 662" xmlns="http://www.w3.org/2000/svg"><title>Group 3</title><defs><linearGradient x1="50.004%" y1="50%" x2="50.004%" y2="-.256%" id="a"><stop stop-color="#FF702B" offset="0%"/><stop stop-color="#FFDC3A" offset="100%"/></linearGradient><radialGradient cx="49.999%" cy="50.031%" fx="49.999%" fy="50.031%" r="49.947%" gradientTransform="scale(1 .99959)" id="b"><stop stop-color="#FFF" offset="0%"/><stop stop-color="#FFF" offset="82.8%"/><stop stop-color="#FFF" stop-opacity="0" offset="100%"/></radialGradient><radialGradient cx="49.978%" cy="49.936%" fx="49.978%" fy="49.936%" r="49.962%" gradientTransform="scale(1 .99959)" id="c"><stop stop-color="#FFF" offset="0%"/><stop stop-color="#FFF" offset="77.42%"/><stop stop-color="#FFF" stop-opacity="0" offset="100%"/></radialGradient><radialGradient cx="50.128%" cy="49.914%" fx="50.128%" fy="49.914%" r="50.067%" gradientTransform="matrix(-.9938 .1111 -.11115 -.9934 1.055 .94)" id="d"><stop stop-color="#FFF" offset="0%"/><stop stop-color="#FFF" offset="82.8%"/><stop stop-color="#FFF" stop-opacity="0" offset="100%"/></radialGradient><radialGradient cx="50.039%" cy="50.158%" fx="50.039%" fy="50.158%" r="49.827%" gradientTransform="matrix(-.9938 .1111 -.11115 -.9934 1.053 .944)" id="e"><stop stop-color="#FFF" offset="0%"/><stop stop-color="#FFF" offset="77.42%"/><stop stop-color="#FFF" stop-opacity="0" offset="100%"/></radialGradient></defs><g fill="none" fill-rule="evenodd"><path d="M0 650.712C0 291.972 290.7 1 649.5 1 1008.124 1 1299 291.795 1299 650.712c0 139.765-44.168 269.32-119.307 375.288H119.307C44.168 920.032 0 790.477 0 650.712z" fill="url(#a)" transform="translate(0 -1)"/><g opacity=".694"><path d="M195.264 629.383c0-257.116 208.457-465.66 465.467-465.66s465.467 208.544 465.467 465.66c0 166.835-87.781 313.255-219.54 395.441H414.98c-131.935-82.186-219.716-228.43-219.716-395.441z" fill="#FFF" opacity=".2"/><path d="M101.15 665.988c0-326.63 264.75-591.49 591.245-591.49s591.245 264.86 591.245 591.49c0 134.981-45.21 259.228-121.204 358.836H222.53c-76.17-99.432-121.38-223.855-121.38-358.836z" fill="#FFF" opacity=".2"/><path d="M35.183 690.098c0-326.63 264.75-591.49 591.245-591.49s591.245 264.86 591.245 591.49c0 124.246-38.35 239.517-103.79 334.726h-974.91c-65.44-95.209-103.79-210.48-103.79-334.726z" fill="#FFF" opacity=".2"/><path d="M0 649.621C0 290.961 290.609.056 649.296.056c358.512 0 649.297 290.73 649.297 649.565 0 139.733-44.155 269.26-119.27 375.203H119.27C44.154 918.88 0 789.354 0 649.621z" fill="#FFF" opacity=".2"/><g transform="translate(321.162 311.496)" fill="#FFF" opacity=".1"><ellipse cx="327.078" cy="326.862" rx="326.495" ry="326.631"/><ellipse cx="340.976" cy="312.96" rx="293.775" ry="293.897"/><ellipse cx="335.346" cy="325.455" rx="293.775" ry="293.897"/><ellipse cx="335.346" cy="353.436" rx="293.775" ry="293.897"/><ellipse cx="335.346" cy="325.455" rx="293.775" ry="293.897"/><ellipse cx="363.317" cy="325.455" rx="293.775" ry="293.897"/><ellipse cx="297.701" cy="335.31" rx="214.087" ry="214.175"/><ellipse cx="311.598" cy="335.31" rx="214.087" ry="214.175"/><ellipse cx="367.539" cy="363.292" rx="214.087" ry="214.175"/><ellipse cx="353.641" cy="279.346" rx="214.087" ry="214.175"/><ellipse cx="339.568" cy="279.346" rx="214.087" ry="214.175"/><ellipse cx="304.562" cy="356.252" rx="165.183" ry="165.251"/><ellipse cx="332.532" cy="286.386" rx="165.183" ry="165.251"/><ellipse cx="346.605" cy="286.386" rx="165.183" ry="165.251"/><ellipse cx="346.605" cy="300.289" rx="165.183" ry="165.251"/><ellipse cx="360.502" cy="314.367" rx="165.183" ry="165.251"/><ellipse cx="374.575" cy="258.404" rx="165.183" ry="165.251"/><ellipse cx="430.516" cy="314.367" rx="165.183" ry="165.251"/><ellipse cx="301.923" cy="303.104" rx="106.428" ry="106.472"/><ellipse cx="273.953" cy="205.256" rx="106.428" ry="106.472"/><ellipse cx="357.863" cy="359.068" rx="106.428" ry="106.472"/><ellipse cx="371.76" cy="373.147" rx="106.428" ry="106.472"/><ellipse cx="371.76" cy="345.165" rx="106.428" ry="106.472"/><ellipse cx="371.76" cy="317.183" rx="106.428" ry="106.472"/><ellipse cx="357.863" cy="317.183" rx="106.428" ry="106.472"/><ellipse cx="371.76" cy="317.183" rx="106.428" ry="106.472"/><ellipse cx="371.76" cy="275.122" rx="106.428" ry="106.472"/><ellipse cx="346.253" cy="328.622" rx="80.92" ry="80.954"/><ellipse cx="388.296" cy="342.701" rx="80.92" ry="80.954"/><ellipse cx="304.386" cy="342.701" rx="80.92" ry="80.954"/><ellipse cx="276.415" cy="412.568" rx="80.92" ry="80.954"/></g><g transform="translate(304.33 193.585)" opacity=".3"><ellipse fill="url(#b)" cx="550.081" cy="205.608" rx="62.977" ry="63.003"/><ellipse fill="url(#c)" cx="634.168" cy="90.865" rx="34.303" ry="34.317"/><ellipse fill="url(#d)" cx="65.968" cy="70.274" rx="31.488" ry="31.502"/><ellipse fill="url(#e)" cx="17.767" cy="17.655" rx="17.24" ry="17.247"/></g></g></g></svg>