<svg width="300" height="38" viewBox="0 0 300 38" xmlns="http://www.w3.org/2000/svg"><title>sunpower-seeklogo.com</title><g fill="none" fill-rule="evenodd"><path d="M17.308 8.74c-1.346-2.328-3.03-3.705-5.914-3.705-3.077 0-5.72 2.185-5.72 5.272 0 2.945 3.076 4.275 5.384 5.32l2.26.998c4.47 1.9 8.269 4.133 8.269 9.547 0 5.938-4.856 10.498-10.818 10.498-5.529 0-9.615-3.515-10.72-8.788l3.75-1.045c.48 3.468 3.172 6.318 6.874 6.318 3.702 0 7.067-2.803 7.067-6.603 0-3.99-3.173-5.32-6.346-6.744l-2.115-.903c-4.039-1.805-7.5-3.848-7.5-8.693 0-5.272 4.52-8.644 9.615-8.644 3.846 0 7.068 1.947 8.894 5.272l-2.98 1.9zm20.913 13.585c0 2.518-.096 5.415 1.49 7.553 1.49 2.09 4.424 3.23 6.924 3.23 2.452 0 5.144-1.14 6.73-3.04 1.827-2.186 1.683-5.13 1.683-7.79V2.09h3.846v21.28c0 3.705-.288 6.65-3.029 9.405-2.355 2.517-5.817 3.895-9.278 3.895-3.222 0-6.587-1.235-8.895-3.468-3.029-2.85-3.365-5.937-3.365-9.832V2.09h3.846v20.235h.048zM72.356.665l26.827 27.74V2.09h3.846v35.53L76.202 9.88V36.1h-3.846z" fill="#FFF"/><path d="M121.346 5.605h1.394c4.472 0 8.99.427 8.99 5.938 0 4.892-3.605 6.127-7.836 6.127h-2.548V5.605zm0 15.58h2.789c2.884 0 5.865-.38 8.173-2.232 2.163-1.758 3.269-4.56 3.269-7.316 0-3.04-1.346-5.985-3.894-7.742-2.5-1.71-5.577-1.805-8.51-1.805H117.5V36.1h3.846V21.185z" fill="#FFF" fill-rule="nonzero"/><path fill="#FFF" d="M197.404 27.55L208.558.332l11.105 27.218 9.039-25.46h4.135l-13.174 35.767-11.105-27.36-11.154 27.36L184.23 2.09h4.134zm44.038-25.46h17.837v3.515h-13.99v10.117h13.557v3.516h-13.558v13.347h13.99V36.1h-17.836z"/><path d="M276.01 5.605h1.153c4.616 0 8.75.522 8.75 6.127 0 5.273-4.375 6.08-8.701 6.08h-1.202V5.605zm0 15.532h.961L287.404 36.1h4.711l-10.961-15.248c5.288-.427 8.606-4.132 8.606-9.357 0-7.647-6.058-9.357-12.597-9.357h-4.951V36.1h3.846V21.137h-.048z" fill="#FFF" fill-rule="nonzero"/><path d="M17.308 8.74c-1.346-2.328-3.03-3.705-5.914-3.705-3.077 0-5.72 2.185-5.72 5.272 0 2.945 3.076 4.275 5.384 5.32l2.26.998c4.47 1.9 8.269 4.133 8.269 9.547 0 5.938-4.856 10.498-10.818 10.498-5.529 0-9.615-3.515-10.72-8.788l3.75-1.045c.48 3.468 3.172 6.318 6.874 6.318 3.702 0 7.067-2.803 7.067-6.603 0-3.99-3.173-5.32-6.346-6.744l-2.115-.903c-4.039-1.805-7.5-3.848-7.5-8.693 0-5.272 4.52-8.644 9.615-8.644 3.846 0 7.068 1.947 8.894 5.272l-2.98 1.9zm20.913 13.585c0 2.518-.096 5.415 1.49 7.553 1.49 2.09 4.424 3.23 6.924 3.23 2.452 0 5.144-1.14 6.73-3.04 1.827-2.186 1.683-5.13 1.683-7.79V2.09h3.846v21.28c0 3.705-.288 6.65-3.029 9.405-2.355 2.517-5.817 3.895-9.278 3.895-3.222 0-6.587-1.235-8.895-3.468-3.029-2.85-3.365-5.937-3.365-9.832V2.09h3.846v20.235h.048zM72.356.665l26.827 27.74V2.09h3.846v35.53L76.202 9.88V36.1h-3.846z" fill="#FFF"/><path d="M121.346 5.605h1.394c4.472 0 8.99.427 8.99 5.938 0 4.892-3.605 6.127-7.836 6.127h-2.548V5.605zm0 15.58h2.789c2.884 0 5.865-.38 8.173-2.232 2.163-1.758 3.269-4.56 3.269-7.316 0-3.04-1.346-5.985-3.894-7.742-2.5-1.71-5.577-1.805-8.51-1.805H117.5V36.1h3.846V21.185z" fill="#FFF" fill-rule="nonzero"/><path fill="#FFF" d="M197.404 27.55L208.558.332l11.105 27.218 9.039-25.46h4.135l-13.174 35.767-11.105-27.36-11.154 27.36L184.23 2.09h4.134zm44.038-25.46h17.837v3.515h-13.99v10.117h13.557v3.516h-13.558v13.347h13.99V36.1h-17.836z"/><path d="M276.01 5.605h1.153c4.616 0 8.75.522 8.75 6.127 0 5.273-4.375 6.08-8.701 6.08h-1.202V5.605zm0 15.532h.961L287.404 36.1h4.711l-10.961-15.248c5.288-.427 8.606-4.132 8.606-9.357 0-7.647-6.058-9.357-12.597-9.357h-4.951V36.1h3.846V21.137h-.048zm16.827-15.579c0-1.948 1.538-3.468 3.51-3.468 1.97 0 3.509 1.52 3.509 3.468 0 1.947-1.539 3.467-3.51 3.467-1.971 0-3.51-1.52-3.51-3.468zm.576 0c0 1.615 1.347 2.897 2.933 2.897 1.587 0 2.933-1.282 2.933-2.897 0-1.663-1.346-2.898-2.933-2.898-1.586 0-2.933 1.235-2.933 2.897zm4.52 1.995h-.673l-1.01-1.806h-.721v1.806h-.577V3.658h1.635c.72 0 1.346.19 1.346 1.044 0 .76-.53 1.045-1.058 1.045l1.058 1.806zm-2.356-3.373v.95h.625c.529 0 1.25.095 1.25-.428 0-.474-.433-.522-.914-.522h-.961z" fill="#FFF" fill-rule="nonzero"/><path d="M178.942 19.142c0 9.928-7.932 17.433-18.029 17.433-9.855 0-17.836-7.885-17.836-17.385 0-9.643 7.885-17.527 17.836-17.527 10.097.047 18.03 7.552 18.03 17.48m-31.828.047c0 7.22 5.866 13.632 13.558 13.632 7.98 0 14.183-5.937 14.183-13.632 0-7.838-6.154-13.775-14.183-13.775-7.788.048-13.558 6.413-13.558 13.775" fill="#F7921E" fill-rule="nonzero"/></g></svg>