<svg width="120" height="120" viewBox="0 0 120 120" xmlns="http://www.w3.org/2000/svg"><title>support (22)</title><g fill="#FFF" fill-rule="evenodd" opacity=".5"><path d="M20.963 93.12c-1.624 0-3.227.4-4.64 1.178l-.147.084-.106-.147C8.478 84.505 4.302 72.336 4.302 59.979c0-30.725 24.991-55.713 55.72-55.713 3.732 0 7.465.378 11.092 1.114.57.105 1.14 0 1.603-.315.485-.315.801-.799.907-1.366a2.152 2.152 0 0 0-1.666-2.522A61.679 61.679 0 0 0 60 0C43.972 0 28.914 6.242 17.568 17.57 6.243 28.896 0 43.964 0 60c0 13.45 4.576 26.648 12.907 37.177l.105.126-.084.126a9.652 9.652 0 0 0-1.624 5.36 9.636 9.636 0 0 0 2.826 6.83 9.624 9.624 0 0 0 6.833 2.836 9.588 9.588 0 0 0 6.833-2.837 9.549 9.549 0 0 0 2.826-6.83 9.636 9.636 0 0 0-2.826-6.83 9.552 9.552 0 0 0-6.833-2.837zm3.817 13.472a5.368 5.368 0 0 1-3.817 1.576c-1.434 0-2.784-.567-3.817-1.576a5.367 5.367 0 0 1 0-7.608 5.368 5.368 0 0 1 3.817-1.576c1.434 0 2.784.567 3.817 1.576a5.367 5.367 0 0 1 0 7.608zm82.313-83.79l-.105-.126.084-.126c2.552-3.825 2.046-8.953-1.202-12.19a9.624 9.624 0 0 0-6.833-2.836 9.588 9.588 0 0 0-6.833 2.837 9.549 9.549 0 0 0-2.826 6.83 9.636 9.636 0 0 0 2.826 6.83 9.624 9.624 0 0 0 6.833 2.837 9.64 9.64 0 0 0 4.64-1.177l.147-.084.106.147c7.592 9.73 11.768 21.899 11.768 34.256 0 30.725-24.991 55.713-55.72 55.713-3.69 0-7.402-.357-10.987-1.093-.147-.021-.274-.042-.422-.042a2.16 2.16 0 0 0-2.109 1.723 2.15 2.15 0 0 0 1.688 2.522 60.218 60.218 0 0 0 11.83 1.156c16.029 0 31.087-6.242 42.433-17.57 11.325-11.327 17.568-26.395 17.568-42.43.021-13.43-4.577-26.627-12.886-37.177zm-8.056-.21c-1.434 0-2.784-.567-3.817-1.576a5.367 5.367 0 0 1 0-7.608 5.368 5.368 0 0 1 3.817-1.576c1.434 0 2.784.567 3.817 1.576 2.11 2.102 2.11 5.527 0 7.608-1.033 1.009-2.383 1.576-3.817 1.576z" fill-rule="nonzero"/><path d="M50.51 95.727v4.728c0 1.177.97 2.144 2.15 2.144h14.7a2.156 2.156 0 0 0 2.151-2.144v-4.728l.148-.042c3.058-.82 6.01-2.06 8.773-3.636l.148-.084 3.332 3.341c.4.4.95.631 1.519.631a2.16 2.16 0 0 0 1.518-.63l10.376-10.403a2.126 2.126 0 0 0 0-3.027l-3.332-3.32.084-.147a36.78 36.78 0 0 0 3.628-8.785l.042-.147h4.703a2.156 2.156 0 0 0 2.151-2.143V52.623c0-1.176-.97-2.143-2.151-2.143h-4.703l-.042-.147a36.78 36.78 0 0 0-3.628-8.785l-.084-.147 3.311-3.32c.4-.4.633-.946.633-1.514 0-.567-.232-1.113-.633-1.513L84.907 24.651c-.4-.399-.95-.63-1.519-.63a2.16 2.16 0 0 0-1.518.63l-3.311 3.3-.148-.084a36.316 36.316 0 0 0-8.773-3.636l-.148-.042v-4.644c0-1.177-.97-2.144-2.15-2.144h-14.7a2.156 2.156 0 0 0-2.151 2.144v4.686l-.148.042a36.316 36.316 0 0 0-8.773 3.636l-.148.084-3.311-3.3c-.4-.399-.95-.63-1.518-.63a2.16 2.16 0 0 0-1.519.63L24.675 35.097c-.4.4-.633.946-.633 1.513 0 .568.232 1.114.633 1.514l3.31 3.32-.083.147a36.78 36.78 0 0 0-3.628 8.785l-.042.147H19.55a2.156 2.156 0 0 0-2.151 2.143v14.712a2.16 2.16 0 0 0 2.151 2.144h4.703l.042.146a37.14 37.14 0 0 0 3.628 8.785l.084.147-3.332 3.278a2.126 2.126 0 0 0 0 3.027l10.397 10.402c.4.4.95.631 1.519.631a2.16 2.16 0 0 0 1.518-.63l3.332-3.342.148.084a36.316 36.316 0 0 0 8.773 3.636l.148.042zM32.225 80.385a2.125 2.125 0 0 0 .274-2.669 32.565 32.565 0 0 1-4.492-10.823 2.139 2.139 0 0 0-2.088-1.681h-4.26V54.788h4.281a2.143 2.143 0 0 0 2.088-1.681 32.131 32.131 0 0 1 4.492-10.823 2.15 2.15 0 0 0-.274-2.67l-2.995-2.984 7.382-7.376 2.994 2.984c.717.715 1.835.82 2.679.294a32.156 32.156 0 0 1 10.819-4.476 2.162 2.162 0 0 0 1.687-2.102V21.73H65.23v4.224c0 1.01.717 1.892 1.687 2.102 3.86.82 7.508 2.333 10.82 4.476.843.547 1.96.42 2.678-.294l2.994-2.984 7.382 7.376-2.995 2.985a2.125 2.125 0 0 0-.274 2.669 32.565 32.565 0 0 1 4.492 10.823 2.139 2.139 0 0 0 2.088 1.681h4.26v10.424H94.06a2.143 2.143 0 0 0-2.088 1.681 32.131 32.131 0 0 1-4.492 10.823 2.15 2.15 0 0 0 .274 2.67l3.016 3.005-7.36 7.376-3.016-3.005a2.175 2.175 0 0 0-2.679-.294 32.156 32.156 0 0 1-10.819 4.476 2.162 2.162 0 0 0-1.687 2.102v4.266H54.791v-4.266a2.162 2.162 0 0 0-1.687-2.102 32.156 32.156 0 0 1-10.82-4.476 2.147 2.147 0 0 0-2.678.294l-3.015 3.005-7.36-7.376 2.994-3.006z" fill-rule="nonzero"/><path d="M60.021 72.546c-1.75 0-3.184 1.43-3.184 3.174s1.434 3.173 3.184 3.173c1.75 0 3.185-1.429 3.185-3.173 0-1.745-1.434-3.174-3.185-3.174zM40.387 53.359c5.167-5.527 12.19-8.574 19.718-8.574 7.55 0 14.552 3.047 19.72 8.574a2.021 2.021 0 0 0 2.846.084 2.013 2.013 0 0 0 .106-2.837c-5.947-6.347-13.983-9.856-22.672-9.856-8.667 0-16.724 3.51-22.67 9.856-.76.799-.718 2.08.105 2.837a1.992 1.992 0 0 0 2.847-.084z"/><path d="M60.105 51.173c-5.947 0-11.662 2.438-16.07 6.852-.78.777-.78 2.06.021 2.837a2.01 2.01 0 0 0 2.847-.021c3.649-3.657 8.33-5.675 13.224-5.675 4.871 0 9.574 2.018 13.223 5.675a2.012 2.012 0 0 0 2.847 0c.78-.778.78-2.039.02-2.837-4.449-4.393-10.143-6.83-16.112-6.83zm-.021 10.467h-.126c-3.1 0-6.517 1.45-8.9 3.803-.38.378-.59.883-.59 1.408a2.012 2.012 0 0 0 3.438 1.408c1.623-1.597 4.006-2.648 6.073-2.648h.126c2.067 0 4.43 1.03 6.074 2.648a2 2 0 0 0 1.413.589 2 2 0 0 0 1.413-.589c.38-.378.59-.882.59-1.408 0-.525-.21-1.03-.59-1.408-2.404-2.354-5.8-3.804-8.92-3.804zM80.541 8.07A2.321 2.321 0 0 0 82.82 9.5a2.328 2.328 0 0 0 2.109-1.62c.295-.924-.021-1.975-.801-2.563a2.353 2.353 0 0 0-2.721-.084 2.34 2.34 0 0 0-.865 2.837zM35.43 113.968a2.321 2.321 0 0 0 2.278 1.43 2.328 2.328 0 0 0 2.11-1.619c.294-.924-.022-1.975-.802-2.564a2.353 2.353 0 0 0-2.72-.084c-.929.61-1.266 1.829-.865 2.837z"/></g></svg>