<svg width="45" height="41" viewBox="0 0 45 41" xmlns="http://www.w3.org/2000/svg"><title>telegram-logo</title><path d="M36.126 40.376c-.35 0-.699-.104-.998-.306l-11.283-7.654-6.052 4.354a1.778 1.778 0 0 1-2.755-.988L12 24.266 1.142 20.115a1.777 1.777 0 0 1-.022-3.31L42.404.377a1.777 1.777 0 0 1 2.435 1.992l-6.968 36.563a1.776 1.776 0 0 1-1.745 1.444zm-11.29-11.581l10.05 6.818 5.423-28.45-19.584 18.844 4.063 2.756c.017.01.032.021.048.032zm-8.367-1.516l1.346 5.1 2.899-2.087-3.797-2.576a1.771 1.771 0 0 1-.448-.437zm-9.805-8.857l7.455 2.85a1.78 1.78 0 0 1 1.083 1.206l.946 3.584c.043-.414.23-.803.535-1.096l18.66-17.955-28.68 11.411z" fill="#FF702A"/></svg>