<svg width="55" height="35" viewBox="0 0 55 35" xmlns="http://www.w3.org/2000/svg"><title>toyota-seeklogo.com</title><path d="M27.43.025C12.274.025 0 7.85 0 17.5c0 9.65 12.275 17.475 27.43 17.475 15.153 0 27.429-7.825 27.429-17.475 0-9.65-12.276-17.475-27.43-17.475zM7.1 10.59c.761 3.157 6.252 5.77 13.683 6.772v.443c0 7.495 2.156 13.772 5.06 15.484-12.06-.57-21.558-7.228-21.558-15.344C4.273 15.282 5.3 12.771 7.1 10.59zm16.41 7.05a48.87 48.87 0 0 0 3.918.153c1.345 0 2.65-.051 3.919-.153-.178 5.555-1.864 9.904-3.919 9.904-2.054 0-3.74-4.35-3.918-9.904zm10.563-.278c7.596-1.015 13.163-3.741 13.721-6.988 1.915 2.232 3.006 4.819 3.006 7.57 0 8.168-9.638 14.863-21.812 15.358 2.917-1.687 5.073-7.99 5.073-15.484.012-.165.012-.304.012-.456zM29.801 2.917c7.596.38 13.416 2.6 13.416 5.262 0 2.182-3.88 4.058-9.447 4.883-.596-4.667-2.067-8.408-3.97-10.145zm1.382 10.449c-1.205.101-2.46.152-3.754.152-1.293 0-2.549-.05-3.753-.152.507-4.4 1.99-7.596 3.753-7.596 1.763 0 3.247 3.183 3.754 7.596zm-10.107-.304c-5.567-.825-9.447-2.701-9.447-4.883 0-.9.659-1.75 1.838-2.498 1.37-.697 2.866-1.28 4.451-1.763 2.042-.52 4.477-.875 7.127-1.014-1.89 1.75-3.36 5.49-3.969 10.158z" fill="#FFF" fill-rule="evenodd"/></svg>