<svg width="45" height="37" viewBox="0 0 45 37" xmlns="http://www.w3.org/2000/svg"><title>Path</title><path d="M44.912 4.355a18.75 18.75 0 0 1-5.297 1.454A9.296 9.296 0 0 0 43.671.703a19.055 19.055 0 0 1-5.863 2.22A9.187 9.187 0 0 0 31.075 0c-5.094 0-9.225 4.13-9.225 9.219 0 .731.085 1.434.238 2.107-7.668-.361-14.465-4.044-19.013-9.61a9.04 9.04 0 0 0-1.249 4.64 9.226 9.226 0 0 0 4.103 7.68A9.195 9.195 0 0 1 1.75 12.88v.114a9.23 9.23 0 0 0 7.399 9.05 9.367 9.367 0 0 1-4.148.16c1.183 3.661 4.584 6.331 8.632 6.406a18.502 18.502 0 0 1-11.44 3.947c-.732 0-1.46-.043-2.194-.126 4.104 2.614 8.94 4.142 14.169 4.142 16.975 0 26.247-14.054 26.247-26.223 0-.391 0-.787-.028-1.18A18.629 18.629 0 0 0 45 4.392l-.088-.038z" fill="#FF702A" fill-rule="evenodd"/></svg>