<svg width="88" height="1079" viewBox="0 0 88 1079" xmlns="http://www.w3.org/2000/svg"><title>ukrainian ornament</title><g fill="none" fill-rule="evenodd"><path fill="#FFF" d="M40.584 1011.371h6.742v6.742h-6.742zm26.967 20.225h6.742v6.742h-6.742zm-6.742 0h6.742v6.742h-6.742zm0-6.742h6.742v6.742h-6.742zm-6.742 0h6.742v6.742h-6.742zm0-6.742h6.742v6.742h-6.742z"/><path fill="#FFF" d="M47.326 1018.112h6.742v6.742h-6.742z"/><path fill="#FFF" d="M47.326 1011.371h6.742v6.742h-6.742zm20.225 26.966h6.742v6.742h-6.742z"/><path fill="#FFF" d="M74.292 1038.337h6.742v6.742h-6.742zm-33.708 0h6.742v6.742h-6.742zm0 26.966h6.742v6.742h-6.742zm26.967-20.224h6.742v6.742h-6.742zm-6.742 0h6.742v6.742h-6.742z"/><path fill="#FFF" d="M60.809 1051.82h6.742v6.742h-6.742zm-6.742 0h6.742v6.742h-6.742zm0 6.742h6.742v6.742h-6.742z"/><path fill="#FFF" d="M47.326 1058.562h6.742v6.742h-6.742z"/><path fill="#FFF" d="M47.326 1065.303h6.742v6.742h-6.742zm-6.742 6.742h6.742v6.742h-6.742zm0-330.337h6.742v6.742h-6.742zm26.967 20.225h6.742v6.742h-6.742zm-6.742 0h6.742v6.742h-6.742zm0-6.742h6.742v6.742h-6.742zm-6.742 0h6.742v6.742h-6.742zm0-6.742h6.742v6.742h-6.742z"/><path fill="#FFF" d="M47.326 748.449h6.742v6.742h-6.742z"/><path fill="#FFF" d="M47.326 741.708h6.742v6.742h-6.742zm20.225 26.966h6.742v6.742h-6.742z"/><path fill="#FFF" d="M74.292 768.674h6.742v6.742h-6.742zm-33.708 0h6.742v6.742h-6.742zm0 26.966h6.742v6.742h-6.742zm26.967-20.224h6.742v6.742h-6.742zm-6.742 0h6.742v6.742h-6.742z"/><path fill="#FFF" d="M60.809 782.157h6.742v6.742h-6.742zm-6.742 0h6.742v6.742h-6.742zm0 6.742h6.742v6.742h-6.742z"/><path fill="#FFF" d="M47.326 788.899h6.742v6.742h-6.742z"/><path fill="#FFF" d="M47.326 795.64h6.742v6.742h-6.742zm-6.742 6.742h6.742v6.742h-6.742zm0 141.573h6.742v6.742h-6.742zm26.967 20.225h6.742v6.742h-6.742zm-6.742 0h6.742v6.742h-6.742zm0-6.742h6.742v6.742h-6.742zm-6.742 0h6.742v6.742h-6.742z"/><path fill="#FFF" d="M54.067 950.697h6.742v6.742h-6.742z"/><path fill="#FFF" d="M47.326 950.697h6.742v6.742h-6.742zm0-6.742h6.742v6.742h-6.742zm20.225 26.966h6.742v6.742h-6.742z"/><path fill="#FFF" d="M74.292 970.921h6.742v6.742h-6.742zm-33.708 0h6.742v6.742h-6.742zm0 26.967h6.742v6.742h-6.742zm26.967-20.225h6.742v6.742h-6.742zm-6.742 0h6.742v6.742h-6.742z"/><path fill="#FFF" d="M60.809 984.404h6.742v6.742h-6.742zm-6.742 0h6.742v6.742h-6.742zm0 6.742h6.742v6.742h-6.742z"/><path fill="#FFF" d="M47.326 991.146h6.742v6.742h-6.742zm0 6.742h6.742v6.742h-6.742zm-6.742 6.741h6.742v6.742h-6.742zm0-128.09h6.742v6.742h-6.742zm26.967 20.225h6.742v6.742h-6.742zm-6.742 0h6.742v6.742h-6.742zm0-6.742h6.742v6.742h-6.742zm-6.742 0h6.742v6.742h-6.742z"/><path fill="#FFF" d="M54.067 883.281h6.742v6.742h-6.742z"/><path fill="#FFF" d="M47.326 883.281h6.742v6.742h-6.742zm0-6.742h6.742v6.742h-6.742zm20.225 26.967h6.742v6.742h-6.742z"/><path fill="#FFF" d="M74.292 903.506h6.742v6.742h-6.742zm-33.708 0h6.742v6.742h-6.742zm0 26.966h6.742v6.742h-6.742z"/><path fill="#FFF" d="M67.551 910.247h6.742v6.742h-6.742zm-6.742 0h6.742v6.742h-6.742zm0 6.742h6.742v6.742h-6.742zm-6.742 0h6.742v6.742h-6.742z"/><path fill="#FFF" d="M54.067 923.73h6.742v6.742h-6.742z"/><path fill="#FFF" d="M47.326 923.73h6.742v6.742h-6.742zm0 6.742h6.742v6.742h-6.742zm-6.742 6.741h6.742v6.742h-6.742z"/><path fill="#000" d="M40.584 809.124h6.742v6.742h-6.742z"/><path fill="#FFF" d="M67.551 829.348h6.742v6.742h-6.742zm-6.742 0h6.742v6.742h-6.742z"/><path fill="#FFF" d="M60.809 822.607h6.742v6.742h-6.742zm-6.742 0h6.742v6.742h-6.742zm0-6.742h6.742v6.742h-6.742z"/><path fill="#FFF" d="M47.326 815.865h6.742v6.742h-6.742z"/><path fill="#FFF" d="M47.326 809.124h6.742v6.742h-6.742zm20.225 26.966h6.742v6.742h-6.742z"/><path fill="#FFF" d="M74.292 836.09h6.742v6.742h-6.742zm-33.708 0h6.742v6.742h-6.742zm0-26.966h6.742v6.742h-6.742zm0 53.932h6.742v6.742h-6.742z"/><path fill="#FFF" d="M67.551 842.831h6.742v6.742h-6.742zm-6.742 0h6.742v6.742h-6.742zm0 6.742h6.742v6.742h-6.742zm-6.742 0h6.742v6.742h-6.742zm0 6.742h6.742v6.742h-6.742z"/><path fill="#FFF" d="M47.326 856.315h6.742v6.742h-6.742z"/><path fill="#FFF" d="M47.326 863.056h6.742v6.742h-6.742zm-6.742 6.742h6.742v6.742h-6.742zm26.967 141.573h6.742v6.742h-6.742zm6.741-6.742h6.742v6.742h-6.742z"/><path fill="#FFF" d="M67.551 997.888h6.742v6.742h-6.742zm0-53.933h6.742v6.742h-6.742zm6.741-6.742h6.742v6.742h-6.742z"/><path fill="#FFF" d="M67.551 930.472h6.742v6.742h-6.742zm0-53.933h6.742v6.742h-6.742z"/><path fill="#FFF" d="M74.292 869.798h6.742v6.742h-6.742zm-6.741-6.742h6.742v6.742h-6.742zm0-53.932h6.742v6.742h-6.742zm6.741-6.742h6.742v6.742h-6.742zm-6.741-6.742h6.742v6.742h-6.742zm0-53.932h6.742v6.742h-6.742zm6.741 330.337h6.742v6.742h-6.742zm-6.741-6.742h6.742v6.742h-6.742zm-53.933-33.707h6.742v6.742h-6.742zm6.742 0h6.742v6.742H20.36zm0-6.742h6.742v6.742H20.36z"/><path fill="#FFF" d="M27.101 1024.854h6.742v6.742h-6.742zm0-6.742h6.742v6.742h-6.742zm6.742 0h6.742v6.742h-6.742z"/><path fill="#FFF" d="M33.843 1011.371h6.742v6.742h-6.742zm-20.225 26.966h6.742v6.742h-6.742zm-6.742 0h6.742v6.742H6.876zm6.742 6.742h6.742v6.742h-6.742zm6.742 0h6.742v6.742H20.36z"/><path fill="#FFF" d="M20.36 1051.82h6.742v6.742H20.36z"/><path fill="#FFF" d="M27.101 1051.82h6.742v6.742h-6.742zm0 6.742h6.742v6.742h-6.742zm6.742 0h6.742v6.742h-6.742z"/><path fill="#FFF" d="M33.843 1065.303h6.742v6.742h-6.742zm-20.225-303.37h6.742v6.742h-6.742zm6.742 0h6.742v6.742H20.36zm0-6.742h6.742v6.742H20.36z"/><path fill="#FFF" d="M27.101 755.191h6.742v6.742h-6.742zm0-6.742h6.742v6.742h-6.742zm6.742 0h6.742v6.742h-6.742z"/><path fill="#FFF" d="M33.843 741.708h6.742v6.742h-6.742zm-20.225 26.966h6.742v6.742h-6.742zm-6.742 0h6.742v6.742H6.876zm6.742 6.742h6.742v6.742h-6.742zm6.742 0h6.742v6.742H20.36z"/><path fill="#FFF" d="M20.36 782.157h6.742v6.742H20.36z"/><path fill="#FFF" d="M27.101 782.157h6.742v6.742h-6.742zm0 6.742h6.742v6.742h-6.742zm6.742 0h6.742v6.742h-6.742z"/><path fill="#FFF" d="M33.843 795.64h6.742v6.742h-6.742zM13.618 964.18h6.742v6.742h-6.742zm6.742 0h6.742v6.742H20.36zm0-6.742h6.742v6.742H20.36z"/><path fill="#FFF" d="M27.101 957.438h6.742v6.742h-6.742z"/><path fill="#FFF" d="M27.101 950.697h6.742v6.742h-6.742zm6.742 0h6.742v6.742h-6.742zm0-6.742h6.742v6.742h-6.742zm-20.225 26.966h6.742v6.742h-6.742z"/><path fill="#FFF" d="M6.876 970.921h6.742v6.742H6.876zm6.742 6.742h6.742v6.742h-6.742zm6.742 0h6.742v6.742H20.36z"/><path fill="#FFF" d="M20.36 984.404h6.742v6.742H20.36z"/><path fill="#FFF" d="M27.101 984.404h6.742v6.742h-6.742zm0 6.742h6.742v6.742h-6.742zm6.742 0h6.742v6.742h-6.742zm0 6.742h6.742v6.742h-6.742zM13.618 896.764h6.742v6.742h-6.742zm6.742 0h6.742v6.742H20.36zm0-6.742h6.742v6.742H20.36z"/><path fill="#FFF" d="M27.101 890.022h6.742v6.742h-6.742z"/><path fill="#FFF" d="M27.101 883.281h6.742v6.742h-6.742zm6.742 0h6.742v6.742h-6.742zm0-6.742h6.742v6.742h-6.742zm-20.225 26.967h6.742v6.742h-6.742z"/><path fill="#FFF" d="M6.876 903.506h6.742v6.742H6.876z"/><path fill="#FFF" d="M13.618 910.247h6.742v6.742h-6.742zm6.742 0h6.742v6.742H20.36zm0 6.742h6.742v6.742H20.36z"/><path fill="#FFF" d="M27.101 916.989h6.742v6.742h-6.742z"/><path fill="#FFF" d="M27.101 923.73h6.742v6.742h-6.742zm6.742 0h6.742v6.742h-6.742zm0 6.742h6.742v6.742h-6.742zM13.618 829.348h6.742v6.742h-6.742zm6.742 0h6.742v6.742H20.36z"/><path fill="#FFF" d="M20.36 822.607h6.742v6.742H20.36z"/><path fill="#FFF" d="M27.101 822.607h6.742v6.742h-6.742zm0-6.742h6.742v6.742h-6.742zm6.742 0h6.742v6.742h-6.742z"/><path fill="#FFF" d="M33.843 809.124h6.742v6.742h-6.742zM13.618 836.09h6.742v6.742h-6.742z"/><path fill="#FFF" d="M6.876 836.09h6.742v6.742H6.876z"/><path fill="#FFF" d="M13.618 842.831h6.742v6.742h-6.742zm6.742 0h6.742v6.742H20.36zm0 6.742h6.742v6.742H20.36z"/><path fill="#FFF" d="M27.101 849.573h6.742v6.742h-6.742zm0 6.742h6.742v6.742h-6.742zm6.742 0h6.742v6.742h-6.742z"/><path fill="#FFF" d="M33.843 863.056h6.742v6.742h-6.742zm-20.225 148.315h6.742v6.742h-6.742zm-6.742-6.742h6.742v6.742H6.876z"/><path fill="#FFF" d="M13.618 997.888h6.742v6.742h-6.742zm0-53.933h6.742v6.742h-6.742zm-6.742-6.742h6.742v6.742H6.876z"/><path fill="#FFF" d="M13.618 930.472h6.742v6.742h-6.742zm0-53.933h6.742v6.742h-6.742z"/><path fill="#FFF" d="M6.876 869.798h6.742v6.742H6.876zm6.742-6.742h6.742v6.742h-6.742zm0-53.932h6.742v6.742h-6.742zm-6.742-6.742h6.742v6.742H6.876zm6.742-6.742h6.742v6.742h-6.742zm0-53.932h6.742v6.742h-6.742zm-6.742 330.337h6.742v6.742H6.876zm6.742-6.742h6.742v6.742h-6.742zm26.966-390.876h6.742v6.742h-6.742zm26.967 20.225h6.742v6.742h-6.742zm-6.742 0h6.742v6.742h-6.742zm0-6.742h6.742v6.742h-6.742zm-6.742 0h6.742v6.742h-6.742z"/><path fill="#FFF" d="M54.067 681.169h6.742v6.742h-6.742z"/><path fill="#FFF" d="M47.326 681.169h6.742v6.742h-6.742zm0-6.742h6.742v6.742h-6.742zm20.225 26.966h6.742v6.742h-6.742z"/><path fill="#FFF" d="M74.292 701.393h6.742v6.742h-6.742zm-33.708 0h6.742v6.742h-6.742zm0 26.967h6.742v6.742h-6.742zm26.967-20.225h6.742v6.742h-6.742zm-6.742 0h6.742v6.742h-6.742z"/><path fill="#FFF" d="M60.809 714.876h6.742v6.742h-6.742zm-6.742 0h6.742v6.742h-6.742zm0 6.742h6.742v6.742h-6.742z"/><path fill="#FFF" d="M47.326 721.618h6.742v6.742h-6.742zm0 6.742h6.742v6.742h-6.742zm-6.742 6.741h6.742v6.742h-6.742zm0-330.337h6.742v6.742h-6.742zm26.967 20.225h6.742v6.742h-6.742zm-6.742 0h6.742v6.742h-6.742zm0-6.742h6.742v6.742h-6.742zm-6.742 0h6.742v6.742h-6.742z"/><path fill="#FFF" d="M54.067 411.506h6.742v6.742h-6.742z"/><path fill="#FFF" d="M47.326 411.506h6.742v6.742h-6.742z"/><path fill="#FFF" d="M47.326 404.764h6.742v6.742h-6.742zm20.225 26.966h6.742v6.742h-6.742z"/><path fill="#FFF" d="M74.292 431.73h6.742v6.742h-6.742zm-33.708 0h6.742v6.742h-6.742zm0 26.967h6.742v6.742h-6.742z"/><path fill="#FFF" d="M67.551 438.472h6.742v6.742h-6.742zm-6.742 0h6.742v6.742h-6.742z"/><path fill="#FFF" d="M60.809 445.213h6.742v6.742h-6.742zm-6.742 0h6.742v6.742h-6.742z"/><path fill="#FFF" d="M54.067 451.955h6.742v6.742h-6.742z"/><path fill="#FFF" d="M47.326 451.955h6.742v6.742h-6.742zm0 6.742h6.742v6.742h-6.742zm-6.742 6.741h6.742v6.742h-6.742zm0 141.573h6.742v6.742h-6.742zm26.967 20.225h6.742v6.742h-6.742zm-6.742 0h6.742v6.742h-6.742zm0-6.742h6.742v6.742h-6.742zm-6.742 0h6.742v6.742h-6.742z"/><path fill="#FFF" d="M54.067 613.753h6.742v6.742h-6.742z"/><path fill="#FFF" d="M47.326 613.753h6.742v6.742h-6.742zm0-6.742h6.742v6.742h-6.742zm20.225 26.967h6.742v6.742h-6.742z"/><path fill="#FFF" d="M74.292 633.978h6.742v6.742h-6.742zm-33.708 0h6.742v6.742h-6.742zm0 26.966h6.742v6.742h-6.742z"/><path fill="#FFF" d="M67.551 640.719h6.742v6.742h-6.742zm-6.742 0h6.742v6.742h-6.742zm0 6.742h6.742v6.742h-6.742zm-6.742 0h6.742v6.742h-6.742z"/><path fill="#FFF" d="M54.067 654.202h6.742v6.742h-6.742z"/><path fill="#FFF" d="M47.326 654.202h6.742v6.742h-6.742zm0 6.742h6.742v6.742h-6.742zm-6.742 6.741h6.742v6.742h-6.742zm0-128.089h6.742v6.742h-6.742zm26.967 20.224h6.742v6.742h-6.742zm-6.742 0h6.742v6.742h-6.742z"/><path fill="#FFF" d="M60.809 553.079h6.742v6.742h-6.742zm-6.742 0h6.742v6.742h-6.742zm0-6.742h6.742v6.742h-6.742z"/><path fill="#FFF" d="M47.326 546.337h6.742v6.742h-6.742z"/><path fill="#FFF" d="M47.326 539.596h6.742v6.742h-6.742zm20.225 26.966h6.742v6.742h-6.742z"/><path fill="#FFF" d="M74.292 566.562h6.742v6.742h-6.742zm-33.708 0h6.742v6.742h-6.742zm0 26.966h6.742v6.742h-6.742z"/><path fill="#FFF" d="M67.551 573.303h6.742v6.742h-6.742zm-6.742 0h6.742v6.742h-6.742zm0 6.742h6.742v6.742h-6.742zm-6.742 0h6.742v6.742h-6.742zm0 6.742h6.742v6.742h-6.742z"/><path fill="#FFF" d="M47.326 586.787h6.742v6.742h-6.742z"/><path fill="#FFF" d="M47.326 593.528h6.742v6.742h-6.742zm-6.742 6.742h6.742v6.742h-6.742z"/><path fill="#000" d="M40.584 472.18h6.742v6.742h-6.742z"/><path fill="#FFF" d="M67.551 492.404h6.742v6.742h-6.742zm-6.742 0h6.742v6.742h-6.742z"/><path fill="#FFF" d="M60.809 485.663h6.742v6.742h-6.742zm-6.742 0h6.742v6.742h-6.742zm0-6.742h6.742v6.742h-6.742z"/><path fill="#FFF" d="M47.326 478.921h6.742v6.742h-6.742z"/><path fill="#FFF" d="M47.326 472.18h6.742v6.742h-6.742zm20.225 26.966h6.742v6.742h-6.742z"/><path fill="#FFF" d="M74.292 499.146h6.742v6.742h-6.742zm-33.708 0h6.742v6.742h-6.742zm0-26.966h6.742v6.742h-6.742zm0 53.932h6.742v6.742h-6.742z"/><path fill="#FFF" d="M67.551 505.888h6.742v6.742h-6.742zm-6.742 0h6.742v6.742h-6.742z"/><path fill="#FFF" d="M60.809 512.629h6.742v6.742h-6.742zm-6.742 0h6.742v6.742h-6.742zm0 6.742h6.742v6.742h-6.742z"/><path fill="#FFF" d="M47.326 519.371h6.742v6.742h-6.742z"/><path fill="#FFF" d="M47.326 526.112h6.742v6.742h-6.742zm-6.742 6.742h6.742v6.742h-6.742zm26.967 141.573h6.742v6.742h-6.742zm6.741-6.742h6.742v6.742h-6.742z"/><path fill="#FFF" d="M67.551 660.944h6.742v6.742h-6.742zm0-53.933h6.742v6.742h-6.742z"/><path fill="#FFF" d="M74.292 600.27h6.742v6.742h-6.742zm-6.741-6.742h6.742v6.742h-6.742zm0-53.932h6.742v6.742h-6.742zm6.741-6.742h6.742v6.742h-6.742zm-6.741-6.742h6.742v6.742h-6.742zm0-53.932h6.742v6.742h-6.742zm6.741-6.742h6.742v6.742h-6.742z"/><path fill="#FFF" d="M67.551 458.697h6.742v6.742h-6.742zm0-53.933h6.742v6.742h-6.742zm6.741 330.337h6.742v6.742h-6.742z"/><path fill="#FFF" d="M67.551 728.36h6.742v6.742h-6.742zm-53.933-33.708h6.742v6.742h-6.742zm6.742 0h6.742v6.742H20.36zm0-6.742h6.742v6.742H20.36z"/><path fill="#FFF" d="M27.101 687.91h6.742v6.742h-6.742z"/><path fill="#FFF" d="M27.101 681.169h6.742v6.742h-6.742zm6.742 0h6.742v6.742h-6.742zm0-6.742h6.742v6.742h-6.742zm-20.225 26.966h6.742v6.742h-6.742z"/><path fill="#FFF" d="M6.876 701.393h6.742v6.742H6.876zm6.742 6.742h6.742v6.742h-6.742zm6.742 0h6.742v6.742H20.36z"/><path fill="#FFF" d="M20.36 714.876h6.742v6.742H20.36z"/><path fill="#FFF" d="M27.101 714.876h6.742v6.742h-6.742zm0 6.742h6.742v6.742h-6.742zm6.742 0h6.742v6.742h-6.742zm0 6.742h6.742v6.742h-6.742zM13.618 424.989h6.742v6.742h-6.742zm6.742 0h6.742v6.742H20.36z"/><path fill="#FFF" d="M20.36 418.247h6.742v6.742H20.36z"/><path fill="#FFF" d="M27.101 418.247h6.742v6.742h-6.742z"/><path fill="#FFF" d="M27.101 411.506h6.742v6.742h-6.742zm6.742 0h6.742v6.742h-6.742z"/><path fill="#FFF" d="M33.843 404.764h6.742v6.742h-6.742zM13.618 431.73h6.742v6.742h-6.742z"/><path fill="#FFF" d="M6.876 431.73h6.742v6.742H6.876z"/><path fill="#FFF" d="M13.618 438.472h6.742v6.742h-6.742zm6.742 0h6.742v6.742H20.36z"/><path fill="#FFF" d="M20.36 445.213h6.742v6.742H20.36z"/><path fill="#FFF" d="M27.101 445.213h6.742v6.742h-6.742z"/><path fill="#FFF" d="M27.101 451.955h6.742v6.742h-6.742zm6.742 0h6.742v6.742h-6.742zm0 6.742h6.742v6.742h-6.742zM13.618 627.236h6.742v6.742h-6.742zm6.742 0h6.742v6.742H20.36zm0-6.742h6.742v6.742H20.36z"/><path fill="#FFF" d="M27.101 620.494h6.742v6.742h-6.742z"/><path fill="#FFF" d="M27.101 613.753h6.742v6.742h-6.742zm6.742 0h6.742v6.742h-6.742zm0-6.742h6.742v6.742h-6.742zm-20.225 26.967h6.742v6.742h-6.742z"/><path fill="#FFF" d="M6.876 633.978h6.742v6.742H6.876z"/><path fill="#FFF" d="M13.618 640.719h6.742v6.742h-6.742zm6.742 0h6.742v6.742H20.36zm0 6.742h6.742v6.742H20.36z"/><path fill="#FFF" d="M27.101 647.461h6.742v6.742h-6.742z"/><path fill="#FFF" d="M27.101 654.202h6.742v6.742h-6.742zm6.742 0h6.742v6.742h-6.742zm0 6.742h6.742v6.742h-6.742zM13.618 559.82h6.742v6.742h-6.742zm6.742 0h6.742v6.742H20.36z"/><path fill="#FFF" d="M20.36 553.079h6.742v6.742H20.36z"/><path fill="#FFF" d="M27.101 553.079h6.742v6.742h-6.742zm0-6.742h6.742v6.742h-6.742zm6.742 0h6.742v6.742h-6.742z"/><path fill="#FFF" d="M33.843 539.596h6.742v6.742h-6.742zm-20.225 26.966h6.742v6.742h-6.742zm-6.742 0h6.742v6.742H6.876z"/><path fill="#FFF" d="M13.618 573.303h6.742v6.742h-6.742zm6.742 0h6.742v6.742H20.36zm0 6.742h6.742v6.742H20.36z"/><path fill="#FFF" d="M27.101 580.045h6.742v6.742h-6.742zm0 6.742h6.742v6.742h-6.742zm6.742 0h6.742v6.742h-6.742z"/><path fill="#FFF" d="M33.843 593.528h6.742v6.742h-6.742zM13.618 492.404h6.742v6.742h-6.742zm6.742 0h6.742v6.742H20.36z"/><path fill="#FFF" d="M20.36 485.663h6.742v6.742H20.36z"/><path fill="#FFF" d="M27.101 485.663h6.742v6.742h-6.742zm0-6.742h6.742v6.742h-6.742zm6.742 0h6.742v6.742h-6.742z"/><path fill="#FFF" d="M33.843 472.18h6.742v6.742h-6.742zm-20.225 26.966h6.742v6.742h-6.742zm-6.742 0h6.742v6.742H6.876z"/><path fill="#FFF" d="M13.618 505.888h6.742v6.742h-6.742zm6.742 0h6.742v6.742H20.36z"/><path fill="#FFF" d="M20.36 512.629h6.742v6.742H20.36z"/><path fill="#FFF" d="M27.101 512.629h6.742v6.742h-6.742zm0 6.742h6.742v6.742h-6.742zm6.742 0h6.742v6.742h-6.742z"/><path fill="#FFF" d="M33.843 526.112h6.742v6.742h-6.742zM13.618 674.427h6.742v6.742h-6.742zm-6.742-6.742h6.742v6.742H6.876z"/><path fill="#FFF" d="M13.618 660.944h6.742v6.742h-6.742zm0-53.933h6.742v6.742h-6.742z"/><path fill="#FFF" d="M6.876 600.27h6.742v6.742H6.876zm6.742-6.742h6.742v6.742h-6.742zm0-53.932h6.742v6.742h-6.742zm-6.742-6.742h6.742v6.742H6.876zm6.742-6.742h6.742v6.742h-6.742zm0-53.932h6.742v6.742h-6.742zm-6.742-6.742h6.742v6.742H6.876z"/><path fill="#FFF" d="M13.618 458.697h6.742v6.742h-6.742zm0-53.933h6.742v6.742h-6.742zM6.876 735.101h6.742v6.742H6.876z"/><path fill="#FFF" d="M13.618 728.36h6.742v6.742h-6.742zm26.966-391.147h6.742v6.742h-6.742zm26.967 20.225h6.742v6.742h-6.742zm-6.742 0h6.742v6.742h-6.742z"/><path fill="#FFF" d="M60.809 350.697h6.742v6.742h-6.742zm-6.742 0h6.742v6.742h-6.742zm0-6.742h6.742v6.742h-6.742z"/><path fill="#FFF" d="M47.326 343.955h6.742v6.742h-6.742z"/><path fill="#FFF" d="M47.326 337.213h6.742v6.742h-6.742zm20.225 26.967h6.742v6.742h-6.742z"/><path fill="#FFF" d="M74.292 364.18h6.742v6.742h-6.742zm-33.708 0h6.742v6.742h-6.742zm0 26.966h6.742v6.742h-6.742z"/><path fill="#FFF" d="M67.551 370.921h6.742v6.742h-6.742zm-6.742 0h6.742v6.742h-6.742zm0 6.742h6.742v6.742h-6.742zm-6.742 0h6.742v6.742h-6.742z"/><path fill="#FFF" d="M54.067 384.404h6.742v6.742h-6.742z"/><path fill="#FFF" d="M47.326 384.404h6.742v6.742h-6.742zm0 6.742h6.742v6.742h-6.742zm-6.742 6.742h6.742v6.742h-6.742zm0-330.337h6.742v6.742h-6.742zm26.967 20.224h6.742v6.742h-6.742zm-6.742 0h6.742v6.742h-6.742z"/><path fill="#FFF" d="M60.809 81.034h6.742v6.742h-6.742zm-6.742 0h6.742v6.742h-6.742zm0-6.742h6.742v6.742h-6.742z"/><path fill="#FFF" d="M47.326 74.292h6.742v6.742h-6.742z"/><path fill="#FFF" d="M47.326 67.551h6.742v6.742h-6.742zm20.225 26.966h6.742v6.742h-6.742z"/><path fill="#FFF" d="M74.292 94.517h6.742v6.742h-6.742zm-33.708 0h6.742v6.742h-6.742zm0 26.966h6.742v6.742h-6.742z"/><path fill="#FFF" d="M67.551 101.258h6.742V108h-6.742zm-6.742 0h6.742V108h-6.742zm0 6.742h6.742v6.742h-6.742zm-6.742 0h6.742v6.742h-6.742zm0 6.742h6.742v6.742h-6.742z"/><path fill="#FFF" d="M47.326 114.742h6.742v6.742h-6.742z"/><path fill="#FFF" d="M47.326 121.483h6.742v6.742h-6.742zm-6.742 6.742h6.742v6.742h-6.742zm0 141.573h6.742v6.742h-6.742zm26.967 20.224h6.742v6.742h-6.742zm-6.742 0h6.742v6.742h-6.742z"/><path fill="#FFF" d="M60.809 283.281h6.742v6.742h-6.742zm-6.742 0h6.742v6.742h-6.742zm0-6.742h6.742v6.742h-6.742z"/><path fill="#FFF" d="M47.326 276.539h6.742v6.742h-6.742z"/><path fill="#FFF" d="M47.326 269.798h6.742v6.742h-6.742zm20.225 26.966h6.742v6.742h-6.742z"/><path fill="#FFF" d="M74.292 296.764h6.742v6.742h-6.742zm-33.708 0h6.742v6.742h-6.742zm0 26.966h6.742v6.742h-6.742z"/><path fill="#FFF" d="M67.551 303.506h6.742v6.742h-6.742zm-6.742 0h6.742v6.742h-6.742z"/><path fill="#FFF" d="M60.809 310.247h6.742v6.742h-6.742zm-6.742 0h6.742v6.742h-6.742z"/><path fill="#FFF" d="M54.067 316.989h6.742v6.742h-6.742z"/><path fill="#FFF" d="M47.326 316.989h6.742v6.742h-6.742z"/><path fill="#FFF" d="M47.326 323.73h6.742v6.742h-6.742zm-6.742 6.742h6.742v6.742h-6.742zm0-128.09h6.742v6.742h-6.742zm26.967 20.225h6.742v6.742h-6.742zm-6.742 0h6.742v6.742h-6.742zm0-6.742h6.742v6.742h-6.742zm-6.742 0h6.742v6.742h-6.742z"/><path fill="#FFF" d="M54.067 209.124h6.742v6.742h-6.742z"/><path fill="#FFF" d="M47.326 209.124h6.742v6.742h-6.742zm0-6.742h6.742v6.742h-6.742zm20.225 26.966h6.742v6.742h-6.742z"/><path fill="#FFF" d="M74.292 229.348h6.742v6.742h-6.742zm-33.708 0h6.742v6.742h-6.742zm0 26.967h6.742v6.742h-6.742zm26.967-20.225h6.742v6.742h-6.742zm-6.742 0h6.742v6.742h-6.742z"/><path fill="#FFF" d="M60.809 242.831h6.742v6.742h-6.742zm-6.742 0h6.742v6.742h-6.742zm0 6.742h6.742v6.742h-6.742z"/><path fill="#FFF" d="M47.326 249.573h6.742v6.742h-6.742zm0 6.742h6.742v6.742h-6.742zm-6.742 6.741h6.742v6.742h-6.742z"/><path fill="#000" d="M40.584 134.966h6.742v6.742h-6.742z"/><path fill="#FFF" d="M67.551 155.191h6.742v6.742h-6.742zm-6.742 0h6.742v6.742h-6.742zm0-6.742h6.742v6.742h-6.742zm-6.742 0h6.742v6.742h-6.742z"/><path fill="#FFF" d="M54.067 141.708h6.742v6.742h-6.742z"/><path fill="#FFF" d="M47.326 141.708h6.742v6.742h-6.742zm0-6.742h6.742v6.742h-6.742zm20.225 26.967h6.742v6.742h-6.742z"/><path fill="#FFF" d="M74.292 161.933h6.742v6.742h-6.742zm-33.708 0h6.742v6.742h-6.742zm0-26.967h6.742v6.742h-6.742zm0 53.933h6.742v6.742h-6.742z"/><path fill="#FFF" d="M67.551 168.674h6.742v6.742h-6.742zm-6.742 0h6.742v6.742h-6.742zm0 6.742h6.742v6.742h-6.742zm-6.742 0h6.742v6.742h-6.742z"/><path fill="#FFF" d="M54.067 182.157h6.742v6.742h-6.742z"/><path fill="#FFF" d="M47.326 182.157h6.742v6.742h-6.742zm0 6.742h6.742v6.742h-6.742zm-6.742 6.741h6.742v6.742h-6.742zm26.967 141.573h6.742v6.742h-6.742z"/><path fill="#FFF" d="M74.292 330.472h6.742v6.742h-6.742z"/><path fill="#FFF" d="M67.551 323.73h6.742v6.742h-6.742zm0-53.932h6.742v6.742h-6.742zm6.741-6.742h6.742v6.742h-6.742z"/><path fill="#FFF" d="M67.551 256.315h6.742v6.742h-6.742zm0-53.933h6.742v6.742h-6.742zm6.741-6.742h6.742v6.742h-6.742z"/><path fill="#FFF" d="M67.551 188.899h6.742v6.742h-6.742zm0-53.933h6.742v6.742h-6.742z"/><path fill="#FFF" d="M74.292 128.225h6.742v6.742h-6.742zm-6.741-6.742h6.742v6.742h-6.742zm0-53.932h6.742v6.742h-6.742zm6.741 330.337h6.742v6.742h-6.742z"/><path fill="#FFF" d="M67.551 391.146h6.742v6.742h-6.742zm-53.933-33.708h6.742v6.742h-6.742zm6.742 0h6.742v6.742H20.36z"/><path fill="#FFF" d="M20.36 350.697h6.742v6.742H20.36z"/><path fill="#FFF" d="M27.101 350.697h6.742v6.742h-6.742zm0-6.742h6.742v6.742h-6.742zm6.742 0h6.742v6.742h-6.742z"/><path fill="#FFF" d="M33.843 337.213h6.742v6.742h-6.742zM13.618 364.18h6.742v6.742h-6.742z"/><path fill="#FFF" d="M6.876 364.18h6.742v6.742H6.876z"/><path fill="#FFF" d="M13.618 370.921h6.742v6.742h-6.742zm6.742 0h6.742v6.742H20.36zm0 6.742h6.742v6.742H20.36z"/><path fill="#FFF" d="M27.101 377.663h6.742v6.742h-6.742z"/><path fill="#FFF" d="M27.101 384.404h6.742v6.742h-6.742zm6.742 0h6.742v6.742h-6.742zm0 6.742h6.742v6.742h-6.742zM13.618 87.775h6.742v6.742h-6.742zm6.742 0h6.742v6.742H20.36z"/><path fill="#FFF" d="M20.36 81.034h6.742v6.742H20.36z"/><path fill="#FFF" d="M27.101 81.034h6.742v6.742h-6.742zm0-6.742h6.742v6.742h-6.742zm6.742 0h6.742v6.742h-6.742z"/><path fill="#FFF" d="M33.843 67.551h6.742v6.742h-6.742zM13.618 94.517h6.742v6.742h-6.742z"/><path fill="#FFF" d="M6.876 94.517h6.742v6.742H6.876z"/><path fill="#FFF" d="M13.618 101.258h6.742V108h-6.742zm6.742 0h6.742V108H20.36zm0 6.742h6.742v6.742H20.36z"/><path fill="#FFF" d="M27.101 108h6.742v6.742h-6.742zm0 6.742h6.742v6.742h-6.742zm6.742 0h6.742v6.742h-6.742z"/><path fill="#FFF" d="M33.843 121.483h6.742v6.742h-6.742zM13.618 290.022h6.742v6.742h-6.742zm6.742 0h6.742v6.742H20.36z"/><path fill="#FFF" d="M20.36 283.281h6.742v6.742H20.36z"/><path fill="#FFF" d="M27.101 283.281h6.742v6.742h-6.742zm0-6.742h6.742v6.742h-6.742zm6.742 0h6.742v6.742h-6.742z"/><path fill="#FFF" d="M33.843 269.798h6.742v6.742h-6.742zm-20.225 26.966h6.742v6.742h-6.742zm-6.742 0h6.742v6.742H6.876z"/><path fill="#FFF" d="M13.618 303.506h6.742v6.742h-6.742zm6.742 0h6.742v6.742H20.36z"/><path fill="#FFF" d="M20.36 310.247h6.742v6.742H20.36z"/><path fill="#FFF" d="M27.101 310.247h6.742v6.742h-6.742z"/><path fill="#FFF" d="M27.101 316.989h6.742v6.742h-6.742zm6.742 0h6.742v6.742h-6.742z"/><path fill="#FFF" d="M33.843 323.73h6.742v6.742h-6.742zM13.618 222.607h6.742v6.742h-6.742zm6.742 0h6.742v6.742H20.36zm0-6.742h6.742v6.742H20.36z"/><path fill="#FFF" d="M27.101 215.865h6.742v6.742h-6.742z"/><path fill="#FFF" d="M27.101 209.124h6.742v6.742h-6.742zm6.742 0h6.742v6.742h-6.742zm0-6.742h6.742v6.742h-6.742zm-20.225 26.966h6.742v6.742h-6.742z"/><path fill="#FFF" d="M6.876 229.348h6.742v6.742H6.876zm6.742 6.742h6.742v6.742h-6.742zm6.742 0h6.742v6.742H20.36z"/><path fill="#FFF" d="M20.36 242.831h6.742v6.742H20.36z"/><path fill="#FFF" d="M27.101 242.831h6.742v6.742h-6.742zm0 6.742h6.742v6.742h-6.742zm6.742 0h6.742v6.742h-6.742zm0 6.742h6.742v6.742h-6.742zM13.618 155.191h6.742v6.742h-6.742zm6.742 0h6.742v6.742H20.36zm0-6.742h6.742v6.742H20.36z"/><path fill="#FFF" d="M27.101 148.449h6.742v6.742h-6.742z"/><path fill="#FFF" d="M27.101 141.708h6.742v6.742h-6.742zm6.742 0h6.742v6.742h-6.742zm0-6.742h6.742v6.742h-6.742zm-20.225 26.967h6.742v6.742h-6.742z"/><path fill="#FFF" d="M6.876 161.933h6.742v6.742H6.876z"/><path fill="#FFF" d="M13.618 168.674h6.742v6.742h-6.742zm6.742 0h6.742v6.742H20.36zm0 6.742h6.742v6.742H20.36z"/><path fill="#FFF" d="M27.101 175.416h6.742v6.742h-6.742z"/><path fill="#FFF" d="M27.101 182.157h6.742v6.742h-6.742zm6.742 0h6.742v6.742h-6.742zm0 6.742h6.742v6.742h-6.742zM13.618 337.213h6.742v6.742h-6.742z"/><path fill="#FFF" d="M6.876 330.472h6.742v6.742H6.876z"/><path fill="#FFF" d="M13.618 323.73h6.742v6.742h-6.742zm0-53.932h6.742v6.742h-6.742zm-6.742-6.742h6.742v6.742H6.876z"/><path fill="#FFF" d="M13.618 256.315h6.742v6.742h-6.742zm0-53.933h6.742v6.742h-6.742zm-6.742-6.742h6.742v6.742H6.876z"/><path fill="#FFF" d="M13.618 188.899h6.742v6.742h-6.742zm0-53.933h6.742v6.742h-6.742z"/><path fill="#FFF" d="M6.876 128.225h6.742v6.742H6.876zm6.742-6.742h6.742v6.742h-6.742zm0-53.932h6.742v6.742h-6.742zM6.876 397.888h6.742v6.742H6.876z"/><path fill="#FFF" d="M13.618 391.146h6.742v6.742h-6.742z"/><path fill="#FF9E78" d="M40.584 1031.596h6.742v6.742h-6.742zm0 13.483h6.742v6.742h-6.742zm6.742-6.742h6.742v6.742h-6.742zm-6.742-276.404h6.742v6.742h-6.742zm0 13.483h6.742v6.742h-6.742zm6.742-6.742h6.742v6.742h-6.742zM40.584 964.18h6.742v6.742h-6.742zm0 13.483h6.742v6.742h-6.742zm6.742-6.742h6.742v6.742h-6.742zm-6.742-74.157h6.742v6.742h-6.742zm0 13.483h6.742v6.742h-6.742zm6.742-6.741h6.742v6.742h-6.742zm-6.742-74.158h6.742v6.742h-6.742zm0 13.483h6.742v6.742h-6.742zm6.742-6.741h6.742v6.742h-6.742zm6.741 175.281h6.742v6.742h-6.742zm0-13.483h6.742v6.742h-6.742zm6.742 6.741h6.742v6.742h-6.742zm-6.742-60.674h6.742v6.742h-6.742zm0-13.483h6.742v6.742h-6.742zm6.742 6.741h6.742v6.742h-6.742zm-6.742-60.674h6.742v6.742h-6.742zm0-13.483h6.742v6.742h-6.742zm6.742 6.742h6.742v6.742h-6.742zm-6.742-60.674h6.742v6.742h-6.742zm0-13.484h6.742v6.742h-6.742zm6.742 6.742h6.742v6.742h-6.742zm-6.742-60.674h6.742v6.742h-6.742zm0 323.595h6.742v6.742h-6.742zm6.742 6.742h6.742v6.742h-6.742z"/><path fill="#FF9E78" d="M33.843 1038.337h6.742v6.742h-6.742zm0-269.663h6.742v6.742h-6.742zm0 202.247h6.742v6.742h-6.742zm0-67.415h6.742v6.742h-6.742zm0-67.416h6.742v6.742h-6.742zm-6.742 175.281h6.742v6.742h-6.742zm0-13.483h6.742v6.742h-6.742z"/><path fill="#FF9E78" d="M20.36 1004.629h6.742v6.742H20.36zm6.741-60.674h6.742v6.742h-6.742zm0-13.483h6.742v6.742h-6.742z"/><path fill="#FF9E78" d="M20.36 937.213h6.742v6.742H20.36zm6.741-60.674h6.742v6.742h-6.742zm0-13.483h6.742v6.742h-6.742z"/><path fill="#FF9E78" d="M20.36 869.798h6.742v6.742H20.36zm6.741-60.674h6.742v6.742h-6.742zm0-13.484h6.742v6.742h-6.742zm-6.741 6.742h6.742v6.742H20.36zm6.741-60.674h6.742v6.742h-6.742zm0 323.595h6.742v6.742h-6.742zm-6.741 6.742h6.742v6.742H20.36zm20.224-377.393h6.742v6.742h-6.742zm0 13.483h6.742v6.742h-6.742zm6.742-6.742h6.742v6.742h-6.742zm-6.742-276.404h6.742v6.742h-6.742zm0 13.483h6.742v6.742h-6.742zm6.742-6.742h6.742v6.742h-6.742zm-6.742 195.506h6.742v6.742h-6.742zm0 13.483h6.742v6.742h-6.742zm6.742-6.741h6.742v6.742h-6.742zm-6.742-74.158h6.742v6.742h-6.742zm0 13.483h6.742v6.742h-6.742zm6.742-6.741h6.742v6.742h-6.742zm-6.742-74.158h6.742v6.742h-6.742zm0 13.484h6.742v6.742h-6.742zm6.742-6.742h6.742v6.742h-6.742zm6.741 175.281h6.742v6.742h-6.742zm0-13.483h6.742v6.742h-6.742zm6.742 6.741h6.742v6.742h-6.742zm-6.742-60.674h6.742v6.742h-6.742zm0-13.483h6.742v6.742h-6.742zm6.742 6.742h6.742v6.742h-6.742zm-6.742-60.674h6.742v6.742h-6.742zm0-13.484h6.742v6.742h-6.742zm6.742 6.742h6.742v6.742h-6.742zm-6.742-60.674h6.742v6.742h-6.742zm0-13.483h6.742v6.742h-6.742zm6.742 6.741h6.742v6.742h-6.742zm-6.742-60.674h6.742v6.742h-6.742zm0 323.596h6.742v6.742h-6.742zm6.742 6.741h6.742v6.742h-6.742z"/><path fill="#FF9E78" d="M33.843 701.393h6.742v6.742h-6.742zm0-269.663h6.742v6.742h-6.742zm0 202.248h6.742v6.742h-6.742zm0-67.416h6.742v6.742h-6.742zm0-67.416h6.742v6.742h-6.742zm-6.742 175.281h6.742v6.742h-6.742zm0-13.483h6.742v6.742h-6.742z"/><path fill="#FF9E78" d="M20.36 667.685h6.742v6.742H20.36zm6.741-60.674h6.742v6.742h-6.742zm0-13.483h6.742v6.742h-6.742z"/><path fill="#FF9E78" d="M20.36 600.27h6.742v6.742H20.36zm6.741-60.674h6.742v6.742h-6.742zm0-13.484h6.742v6.742h-6.742zm-6.741 6.742h6.742v6.742H20.36zm6.741-60.674h6.742v6.742h-6.742zm0-13.483h6.742v6.742h-6.742z"/><path fill="#FF9E78" d="M20.36 465.438h6.742v6.742H20.36zm6.741-60.674h6.742v6.742h-6.742zm0 323.596h6.742v6.742h-6.742z"/><path fill="#FF9E78" d="M20.36 735.101h6.742v6.742H20.36zm20.224-377.663h6.742v6.742h-6.742zm0 13.483h6.742v6.742h-6.742zm6.742-6.741h6.742v6.742h-6.742zM40.584 87.775h6.742v6.742h-6.742zm0 13.483h6.742V108h-6.742zm6.742-6.741h6.742v6.742h-6.742zm-6.742 195.505h6.742v6.742h-6.742zm0 13.484h6.742v6.742h-6.742zm6.742-6.742h6.742v6.742h-6.742zm-6.742-74.157h6.742v6.742h-6.742zm0 13.483h6.742v6.742h-6.742zm6.742-6.742h6.742v6.742h-6.742zm-6.742-74.157h6.742v6.742h-6.742zm0 13.483h6.742v6.742h-6.742zm6.742-6.741h6.742v6.742h-6.742zm6.741 175.28h6.742v6.742h-6.742zm0-13.483h6.742v6.742h-6.742zm6.742 6.742h6.742v6.742h-6.742zm-6.742-60.674h6.742v6.742h-6.742zm0-13.483h6.742v6.742h-6.742zm6.742 6.741h6.742v6.742h-6.742zm-6.742-60.674h6.742v6.742h-6.742zm0-13.483h6.742v6.742h-6.742zm6.742 6.741h6.742v6.742h-6.742zm-6.742-60.674h6.742v6.742h-6.742zm0-13.483h6.742v6.742h-6.742zm6.742 6.742h6.742v6.742h-6.742zm-6.742-60.674h6.742v6.742h-6.742zm0 323.595h6.742v6.742h-6.742zm6.742 6.742h6.742v6.742h-6.742z"/><path fill="#FF9E78" d="M33.843 364.18h6.742v6.742h-6.742zm0-269.663h6.742v6.742h-6.742zm0 202.247h6.742v6.742h-6.742zm0-67.416h6.742v6.742h-6.742zm0-67.415h6.742v6.742h-6.742zm-6.742 175.28h6.742v6.742h-6.742zm0-13.483h6.742v6.742h-6.742z"/><path fill="#FF9E78" d="M20.36 330.472h6.742v6.742H20.36zm6.741-60.674h6.742v6.742h-6.742zm0-13.483h6.742v6.742h-6.742z"/><path fill="#FF9E78" d="M20.36 263.056h6.742v6.742H20.36zm6.741-60.674h6.742v6.742h-6.742zm0-13.483h6.742v6.742h-6.742z"/><path fill="#FF9E78" d="M20.36 195.64h6.742v6.742H20.36zm6.741-60.674h6.742v6.742h-6.742zm0-13.483h6.742v6.742h-6.742z"/><path fill="#FF9E78" d="M20.36 128.225h6.742v6.742H20.36zm6.741-60.674h6.742v6.742h-6.742zm0 323.595h6.742v6.742h-6.742z"/><path fill="#FF9E78" d="M20.36 397.888h6.742v6.742H20.36z"/><path fill="#FC422D" d="M47.326 1031.596h6.742v6.742h-6.742zm-6.742-6.742h6.742v6.742h-6.742zm6.742 20.225h6.742v6.742h-6.742zm-6.742 6.741h6.742v6.742h-6.742z"/><path fill="#FC422D" d="M54.067 1038.337h6.742v6.742h-6.742zm-6.741-276.404h6.742v6.742h-6.742zm-6.742-6.742h6.742v6.742h-6.742zm6.742 20.225h6.742v6.742h-6.742zm-6.742 6.741h6.742v6.742h-6.742z"/><path fill="#FC422D" d="M54.067 768.674h6.742v6.742h-6.742zM47.326 964.18h6.742v6.742h-6.742zm-6.742-6.742h6.742v6.742h-6.742zm6.742 20.225h6.742v6.742h-6.742zm-6.742 6.741h6.742v6.742h-6.742z"/><path fill="#FC422D" d="M54.067 970.921h6.742v6.742h-6.742zm-6.741-74.157h6.742v6.742h-6.742zm-6.742-6.742h6.742v6.742h-6.742zm6.742 20.225h6.742v6.742h-6.742zm-6.742 6.742h6.742v6.742h-6.742z"/><path fill="#FC422D" d="M54.067 903.506h6.742v6.742h-6.742zm-6.741-74.158h6.742v6.742h-6.742zm-6.742-6.741h6.742v6.742h-6.742zm6.742 20.224h6.742v6.742h-6.742zm-6.742 6.742h6.742v6.742h-6.742z"/><path fill="#FC422D" d="M54.067 836.09h6.742v6.742h-6.742zm-20.224 195.506h6.742v6.742h-6.742zm0 13.483h6.742v6.742h-6.742zm-6.742-6.742h6.742v6.742h-6.742zm6.742-276.404h6.742v6.742h-6.742zm0 13.483h6.742v6.742h-6.742zm-6.742-6.742h6.742v6.742h-6.742zm6.742 195.506h6.742v6.742h-6.742zm0 13.483h6.742v6.742h-6.742zm-6.742-6.742h6.742v6.742h-6.742zm6.742-74.157h6.742v6.742h-6.742zm0 13.483h6.742v6.742h-6.742zm-6.742-6.741h6.742v6.742h-6.742zm6.742-74.158h6.742v6.742h-6.742zm0 13.483h6.742v6.742h-6.742zm-6.742-6.741h6.742v6.742h-6.742zm20.225-141.438h6.742v6.742h-6.742zm-6.742-6.742h6.742v6.742h-6.742zm6.742 20.225h6.742v6.742h-6.742zm-6.742 6.741h6.742v6.742h-6.742z"/><path fill="#FC422D" d="M54.067 701.393h6.742v6.742h-6.742zm-6.741-276.404h6.742v6.742h-6.742zm-6.742-6.742h6.742v6.742h-6.742zm6.742 20.225h6.742v6.742h-6.742zm-6.742 6.741h6.742v6.742h-6.742z"/><path fill="#FC422D" d="M54.067 431.73h6.742v6.742h-6.742zm-6.741 195.506h6.742v6.742h-6.742zm-6.742-6.742h6.742v6.742h-6.742zm6.742 20.225h6.742v6.742h-6.742zm-6.742 6.742h6.742v6.742h-6.742z"/><path fill="#FC422D" d="M54.067 633.978h6.742v6.742h-6.742zm-6.741-74.158h6.742v6.742h-6.742zm-6.742-6.741h6.742v6.742h-6.742zm6.742 20.224h6.742v6.742h-6.742zm-6.742 6.742h6.742v6.742h-6.742z"/><path fill="#FC422D" d="M54.067 566.562h6.742v6.742h-6.742zm-6.741-74.158h6.742v6.742h-6.742zm-6.742-6.741h6.742v6.742h-6.742zm6.742 20.225h6.742v6.742h-6.742zm-6.742 6.741h6.742v6.742h-6.742z"/><path fill="#FC422D" d="M54.067 499.146h6.742v6.742h-6.742zM33.843 694.652h6.742v6.742h-6.742zm0 13.483h6.742v6.742h-6.742zm-6.742-6.742h6.742v6.742h-6.742zm6.742-276.404h6.742v6.742h-6.742zm0 13.483h6.742v6.742h-6.742zm-6.742-6.742h6.742v6.742h-6.742zm6.742 195.506h6.742v6.742h-6.742zm0 13.483h6.742v6.742h-6.742zm-6.742-6.741h6.742v6.742h-6.742zm6.742-74.158h6.742v6.742h-6.742zm0 13.483h6.742v6.742h-6.742zm-6.742-6.741h6.742v6.742h-6.742zm6.742-74.158h6.742v6.742h-6.742zm0 13.484h6.742v6.742h-6.742zm-6.742-6.742h6.742v6.742h-6.742zm20.225-141.708h6.742v6.742h-6.742zm-6.742-6.741h6.742v6.742h-6.742zm6.742 20.224h6.742v6.742h-6.742zm-6.742 6.742h6.742v6.742h-6.742z"/><path fill="#FC422D" d="M54.067 364.18h6.742v6.742h-6.742zM47.326 87.775h6.742v6.742h-6.742zm-6.742-6.741h6.742v6.742h-6.742zm6.742 20.224h6.742V108h-6.742zM40.584 108h6.742v6.742h-6.742z"/><path fill="#FC422D" d="M54.067 94.517h6.742v6.742h-6.742zm-6.741 195.505h6.742v6.742h-6.742zm-6.742-6.741h6.742v6.742h-6.742zm6.742 20.225h6.742v6.742h-6.742zm-6.742 6.741h6.742v6.742h-6.742zm13.483-13.483h6.742v6.742h-6.742zm-6.741-74.157h6.742v6.742h-6.742zm-6.742-6.742h6.742v6.742h-6.742zm6.742 20.225h6.742v6.742h-6.742zm-6.742 6.741h6.742v6.742h-6.742z"/><path fill="#FC422D" d="M54.067 229.348h6.742v6.742h-6.742zm-6.741-74.157h6.742v6.742h-6.742zm-6.742-6.742h6.742v6.742h-6.742zm6.742 20.225h6.742v6.742h-6.742zm-6.742 6.742h6.742v6.742h-6.742z"/><path fill="#FC422D" d="M54.067 161.933h6.742v6.742h-6.742zM33.843 357.438h6.742v6.742h-6.742zm0 13.483h6.742v6.742h-6.742zm-6.742-6.741h6.742v6.742h-6.742zm6.742-276.405h6.742v6.742h-6.742zm0 13.483h6.742V108h-6.742zm-6.742-6.741h6.742v6.742h-6.742zm6.742 195.505h6.742v6.742h-6.742zm0 13.484h6.742v6.742h-6.742zm-6.742-6.742h6.742v6.742h-6.742zm6.742-74.157h6.742v6.742h-6.742zm0 13.483h6.742v6.742h-6.742zm-6.742-6.742h6.742v6.742h-6.742zm6.742-74.157h6.742v6.742h-6.742zm0 13.483h6.742v6.742h-6.742zm-6.742-6.741h6.742v6.742h-6.742z"/><path fill="#820000" d="M40.584 1018.112h6.742v6.742h-6.742zm13.483 13.484h6.742v6.742h-6.742zm-6.741-6.742h6.742v6.742h-6.742zm-6.742 33.708h6.742v6.742h-6.742zm13.483-13.483h6.742v6.742h-6.742z"/><path fill="#820000" d="M47.326 1051.82h6.742v6.742h-6.742zm13.483-13.483h6.742v6.742h-6.742zM40.584 748.449h6.742v6.742h-6.742zm13.483 13.484h6.742v6.742h-6.742zm-6.741-6.742h6.742v6.742h-6.742zm-6.742 33.708h6.742v6.742h-6.742zm13.483-13.483h6.742v6.742h-6.742z"/><path fill="#820000" d="M47.326 782.157h6.742v6.742h-6.742zm13.483-13.483h6.742v6.742h-6.742zM40.584 950.697h6.742v6.742h-6.742zm13.483 13.483h6.742v6.742h-6.742zm-6.741-6.742h6.742v6.742h-6.742zm-6.742 33.708h6.742v6.742h-6.742zm13.483-13.483h6.742v6.742h-6.742z"/><path fill="#820000" d="M47.326 984.404h6.742v6.742h-6.742zm13.483-13.483h6.742v6.742h-6.742zm-20.225-87.64h6.742v6.742h-6.742zm13.483 13.483h6.742v6.742h-6.742zm-6.741-6.742h6.742v6.742h-6.742zm-6.742 33.708h6.742v6.742h-6.742zm13.483-13.483h6.742v6.742h-6.742zm-6.741 6.742h6.742v6.742h-6.742zm13.483-13.483h6.742v6.742h-6.742zm-20.225-87.641h6.742v6.742h-6.742zm13.483 13.483h6.742v6.742h-6.742z"/><path fill="#820000" d="M47.326 822.607h6.742v6.742h-6.742zm-6.742 33.708h6.742v6.742h-6.742zm13.483-13.484h6.742v6.742h-6.742zm-6.741 6.742h6.742v6.742h-6.742zm13.483-13.483h6.742v6.742h-6.742zm-33.708 195.506h6.742v6.742h-6.742zm6.742-6.742h6.742v6.742h-6.742zm-6.742 20.225h6.742v6.742h-6.742zm6.742 6.741h6.742v6.742h-6.742z"/><path fill="#820000" d="M20.36 1038.337h6.742v6.742H20.36zm6.741-276.404h6.742v6.742h-6.742zm6.742-6.742h6.742v6.742h-6.742zm-6.742 20.225h6.742v6.742h-6.742zm6.742 6.741h6.742v6.742h-6.742z"/><path fill="#820000" d="M20.36 768.674h6.742v6.742H20.36zm6.741 195.506h6.742v6.742h-6.742zm6.742-6.742h6.742v6.742h-6.742zm-6.742 20.225h6.742v6.742h-6.742zm6.742 6.741h6.742v6.742h-6.742z"/><path fill="#820000" d="M20.36 970.921h6.742v6.742H20.36zm6.741-74.157h6.742v6.742h-6.742zm6.742-6.742h6.742v6.742h-6.742zm-6.742 20.225h6.742v6.742h-6.742zm6.742 6.742h6.742v6.742h-6.742z"/><path fill="#820000" d="M20.36 903.506h6.742v6.742H20.36zm6.741-74.158h6.742v6.742h-6.742zm6.742-6.741h6.742v6.742h-6.742zm-6.742 20.224h6.742v6.742h-6.742zm6.742 6.742h6.742v6.742h-6.742z"/><path fill="#820000" d="M20.36 836.09h6.742v6.742H20.36zm20.224-154.921h6.742v6.742h-6.742zm13.483 13.483h6.742v6.742h-6.742zm-6.741-6.742h6.742v6.742h-6.742zm-6.742 33.708h6.742v6.742h-6.742zm13.483-13.483h6.742v6.742h-6.742z"/><path fill="#820000" d="M47.326 714.876h6.742v6.742h-6.742zm13.483-13.483h6.742v6.742h-6.742zM40.584 411.506h6.742v6.742h-6.742zm13.483 13.483h6.742v6.742h-6.742z"/><path fill="#820000" d="M47.326 418.247h6.742v6.742h-6.742zm-6.742 33.708h6.742v6.742h-6.742zm13.483-13.483h6.742v6.742h-6.742z"/><path fill="#820000" d="M47.326 445.213h6.742v6.742h-6.742zm13.483-13.483h6.742v6.742h-6.742zM40.584 613.753h6.742v6.742h-6.742zm13.483 13.483h6.742v6.742h-6.742zm-6.741-6.742h6.742v6.742h-6.742zm-6.742 33.708h6.742v6.742h-6.742zm13.483-13.483h6.742v6.742h-6.742zm-6.741 6.742h6.742v6.742h-6.742zm13.483-13.483h6.742v6.742h-6.742zm-20.225-87.641h6.742v6.742h-6.742zm13.483 13.483h6.742v6.742h-6.742z"/><path fill="#820000" d="M47.326 553.079h6.742v6.742h-6.742zm-6.742 33.708h6.742v6.742h-6.742zm13.483-13.484h6.742v6.742h-6.742zm-6.741 6.742h6.742v6.742h-6.742zm13.483-13.483h6.742v6.742h-6.742zm-20.225-87.641h6.742v6.742h-6.742zm13.483 13.483h6.742v6.742h-6.742z"/><path fill="#820000" d="M47.326 485.663h6.742v6.742h-6.742zm-6.742 33.708h6.742v6.742h-6.742zm13.483-13.483h6.742v6.742h-6.742z"/><path fill="#820000" d="M47.326 512.629h6.742v6.742h-6.742zm13.483-13.483h6.742v6.742h-6.742zM27.101 694.652h6.742v6.742h-6.742zm6.742-6.742h6.742v6.742h-6.742zm-6.742 20.225h6.742v6.742h-6.742zm6.742 6.741h6.742v6.742h-6.742z"/><path fill="#820000" d="M20.36 701.393h6.742v6.742H20.36zm6.741-276.404h6.742v6.742h-6.742zm6.742-6.742h6.742v6.742h-6.742zm-6.742 20.225h6.742v6.742h-6.742zm6.742 6.741h6.742v6.742h-6.742z"/><path fill="#820000" d="M20.36 431.73h6.742v6.742H20.36zm6.741 195.506h6.742v6.742h-6.742zm6.742-6.742h6.742v6.742h-6.742zm-6.742 20.225h6.742v6.742h-6.742zm6.742 6.742h6.742v6.742h-6.742z"/><path fill="#820000" d="M20.36 633.978h6.742v6.742H20.36zm6.741-74.158h6.742v6.742h-6.742zm6.742-6.741h6.742v6.742h-6.742zm-6.742 20.224h6.742v6.742h-6.742zm6.742 6.742h6.742v6.742h-6.742z"/><path fill="#820000" d="M20.36 566.562h6.742v6.742H20.36zm6.741-74.158h6.742v6.742h-6.742zm6.742-6.741h6.742v6.742h-6.742zm-6.742 20.225h6.742v6.742h-6.742zm6.742 6.741h6.742v6.742h-6.742zM20.36 499.146h6.742v6.742H20.36zm20.224-155.191h6.742v6.742h-6.742zm13.483 13.483h6.742v6.742h-6.742z"/><path fill="#820000" d="M47.326 350.697h6.742v6.742h-6.742zm-6.742 33.707h6.742v6.742h-6.742zm13.483-13.483h6.742v6.742h-6.742zm-6.741 6.742h6.742v6.742h-6.742zm13.483-13.483h6.742v6.742h-6.742zM40.584 74.292h6.742v6.742h-6.742zm13.483 13.483h6.742v6.742h-6.742z"/><path fill="#820000" d="M47.326 81.034h6.742v6.742h-6.742zm-6.742 33.708h6.742v6.742h-6.742zm13.483-13.484h6.742V108h-6.742zM47.326 108h6.742v6.742h-6.742zm13.483-13.483h6.742v6.742h-6.742zM40.584 276.539h6.742v6.742h-6.742zm13.483 13.483h6.742v6.742h-6.742z"/><path fill="#820000" d="M47.326 283.281h6.742v6.742h-6.742zm-6.742 33.708h6.742v6.742h-6.742zm13.483-13.483h6.742v6.742h-6.742z"/><path fill="#820000" d="M47.326 310.247h6.742v6.742h-6.742zm13.483-13.483h6.742v6.742h-6.742zm-20.225-87.64h6.742v6.742h-6.742zm13.483 13.483h6.742v6.742h-6.742zm-6.741-6.742h6.742v6.742h-6.742zm-6.742 33.708h6.742v6.742h-6.742zm13.483-13.483h6.742v6.742h-6.742z"/><path fill="#820000" d="M47.326 242.831h6.742v6.742h-6.742zm13.483-13.483h6.742v6.742h-6.742zm-20.225-87.64h6.742v6.742h-6.742zm13.483 13.483h6.742v6.742h-6.742zm-6.741-6.742h6.742v6.742h-6.742zm-6.742 33.708h6.742v6.742h-6.742zm13.483-13.483h6.742v6.742h-6.742zm-6.741 6.742h6.742v6.742h-6.742zm13.483-13.483h6.742v6.742h-6.742zM27.101 357.438h6.742v6.742h-6.742zm6.742-6.741h6.742v6.742h-6.742zm-6.742 20.224h6.742v6.742h-6.742zm6.742 6.742h6.742v6.742h-6.742z"/><path fill="#820000" d="M20.36 364.18h6.742v6.742H20.36zm6.741-276.405h6.742v6.742h-6.742zm6.742-6.741h6.742v6.742h-6.742zm-6.742 20.224h6.742V108h-6.742zM33.843 108h6.742v6.742h-6.742z"/><path fill="#820000" d="M20.36 94.517h6.742v6.742H20.36zm6.741 195.505h6.742v6.742h-6.742zm6.742-6.741h6.742v6.742h-6.742zm-6.742 20.225h6.742v6.742h-6.742zm6.742 6.741h6.742v6.742h-6.742zM20.36 296.764h6.742v6.742H20.36zm6.741-74.157h6.742v6.742h-6.742zm6.742-6.742h6.742v6.742h-6.742zm-6.742 20.225h6.742v6.742h-6.742zm6.742 6.741h6.742v6.742h-6.742z"/><path fill="#820000" d="M20.36 229.348h6.742v6.742H20.36zm6.741-74.157h6.742v6.742h-6.742zm6.742-6.742h6.742v6.742h-6.742zm-6.742 20.225h6.742v6.742h-6.742zm6.742 6.742h6.742v6.742h-6.742z"/><path fill="#820000" d="M20.36 161.933h6.742v6.742H20.36z"/><path fill="#FFF" d="M81.034 1072.045h6.742v6.742h-6.742zm0-6.742h6.742v6.742h-6.742z"/><path fill="#FFF" d="M81.034 1058.562h6.742v6.742h-6.742zm0-20.225h6.742v6.742h-6.742zm0 6.742h6.742v6.742h-6.742z"/><path fill="#FFF" d="M81.034 1051.82h6.742v6.742h-6.742zm0-33.708h6.742v6.742h-6.742z"/><path fill="#FFF" d="M81.034 1011.371h6.742v6.742h-6.742zm0-6.742h6.742v6.742h-6.742z"/><path fill="#FFF" d="M81.034 997.888h6.742v6.742h-6.742zm0-6.742h6.742v6.742h-6.742zm0-6.742h6.742v6.742h-6.742z"/><path fill="#FFF" d="M81.034 977.663h6.742v6.742h-6.742zm0-6.742h6.742v6.742h-6.742z"/><path fill="#FFF" d="M81.034 964.18h6.742v6.742h-6.742zm0-6.742h6.742v6.742h-6.742z"/><path fill="#FFF" d="M81.034 950.697h6.742v6.742h-6.742zm0-6.742h6.742v6.742h-6.742zm0-6.742h6.742v6.742h-6.742z"/><path fill="#FFF" d="M81.034 930.472h6.742v6.742h-6.742zm0-6.742h6.742v6.742h-6.742zm0 107.866h6.742v6.742h-6.742zm0-6.742h6.742v6.742h-6.742zm0-121.348h6.742v6.742h-6.742z"/><path fill="#FFF" d="M81.034 910.247h6.742v6.742h-6.742zm0 6.742h6.742v6.742h-6.742zm0-33.708h6.742v6.742h-6.742zm0-6.742h6.742v6.742h-6.742z"/><path fill="#FFF" d="M81.034 869.798h6.742v6.742h-6.742zm0-6.742h6.742v6.742h-6.742z"/><path fill="#FFF" d="M81.034 856.315h6.742v6.742h-6.742zm0-6.742h6.742v6.742h-6.742zm0-6.742h6.742v6.742h-6.742z"/><path fill="#FFF" d="M81.034 836.09h6.742v6.742h-6.742zm0-6.742h6.742v6.742h-6.742zm0 67.416h6.742v6.742h-6.742zm0-6.742h6.742v6.742h-6.742zm0-74.157h6.742v6.742h-6.742z"/><path fill="#FFF" d="M81.034 822.607h6.742v6.742h-6.742zm0-26.967h6.742v6.742h-6.742z"/><path fill="#FFF" d="M81.034 788.899h6.742v6.742h-6.742zm0-6.742h6.742v6.742h-6.742z"/><path fill="#FFF" d="M81.034 775.416h6.742v6.742h-6.742zm0-6.742h6.742v6.742h-6.742z"/><path fill="#FFF" d="M81.034 761.933h6.742v6.742h-6.742zm0-6.742h6.742v6.742h-6.742zm0-6.742h6.742v6.742h-6.742z"/><path fill="#FFF" d="M81.034 741.708h6.742v6.742h-6.742zm0 67.416h6.742v6.742h-6.742zm0-6.742h6.742v6.742h-6.742z"/><path fill="#FFF" d="M81.034 735.101h6.742v6.742h-6.742z"/><path fill="#FFF" d="M81.034 728.36h6.742v6.742h-6.742zm0-6.742h6.742v6.742h-6.742zm0-20.225h6.742v6.742h-6.742zm0 6.742h6.742v6.742h-6.742z"/><path fill="#FFF" d="M81.034 714.876h6.742v6.742h-6.742zm0-33.707h6.742v6.742h-6.742zm0-6.742h6.742v6.742h-6.742zm0-6.742h6.742v6.742h-6.742z"/><path fill="#FFF" d="M81.034 660.944h6.742v6.742h-6.742zm0-6.742h6.742v6.742h-6.742z"/><path fill="#FFF" d="M81.034 647.461h6.742v6.742h-6.742zm0-6.742h6.742v6.742h-6.742z"/><path fill="#FFF" d="M81.034 633.978h6.742v6.742h-6.742zm0-6.742h6.742v6.742h-6.742zm0-6.742h6.742v6.742h-6.742z"/><path fill="#FFF" d="M81.034 613.753h6.742v6.742h-6.742zm0-6.742h6.742v6.742h-6.742z"/><path fill="#FFF" d="M81.034 600.27h6.742v6.742h-6.742zm0-6.742h6.742v6.742h-6.742z"/><path fill="#FFF" d="M81.034 586.787h6.742v6.742h-6.742zm0 107.865h6.742v6.742h-6.742zm0-6.742h6.742v6.742h-6.742zm0-121.348h6.742v6.742h-6.742z"/><path fill="#FFF" d="M81.034 573.303h6.742v6.742h-6.742zm0 6.742h6.742v6.742h-6.742zm0-33.708h6.742v6.742h-6.742z"/><path fill="#FFF" d="M81.034 539.596h6.742v6.742h-6.742zm0-6.742h6.742v6.742h-6.742zm0-6.742h6.742v6.742h-6.742z"/><path fill="#FFF" d="M81.034 519.371h6.742v6.742h-6.742zm0-6.742h6.742v6.742h-6.742z"/><path fill="#FFF" d="M81.034 505.888h6.742v6.742h-6.742z"/><path fill="#FFF" d="M81.034 499.146h6.742v6.742h-6.742zm0-6.742h6.742v6.742h-6.742zm0 67.416h6.742v6.742h-6.742z"/><path fill="#FFF" d="M81.034 553.079h6.742v6.742h-6.742zm0-74.158h6.742v6.742h-6.742zm0 6.742h6.742v6.742h-6.742zm0-26.966h6.742v6.742h-6.742zm0-6.742h6.742v6.742h-6.742z"/><path fill="#FFF" d="M81.034 445.213h6.742v6.742h-6.742z"/><path fill="#FFF" d="M81.034 438.472h6.742v6.742h-6.742z"/><path fill="#FFF" d="M81.034 431.73h6.742v6.742h-6.742z"/><path fill="#FFF" d="M81.034 424.989h6.742v6.742h-6.742z"/><path fill="#FFF" d="M81.034 418.247h6.742v6.742h-6.742z"/><path fill="#FFF" d="M81.034 411.506h6.742v6.742h-6.742z"/><path fill="#FFF" d="M81.034 404.764h6.742v6.742h-6.742zm0 67.416h6.742v6.742h-6.742zm0-6.742h6.742v6.742h-6.742zm0-67.55h6.742v6.742h-6.742z"/><path fill="#FFF" d="M81.034 391.146h6.742v6.742h-6.742zm0-6.742h6.742v6.742h-6.742zm0-20.224h6.742v6.742h-6.742z"/><path fill="#FFF" d="M81.034 370.921h6.742v6.742h-6.742zm0 6.742h6.742v6.742h-6.742zm0-33.708h6.742v6.742h-6.742zm0-6.742h6.742v6.742h-6.742z"/><path fill="#FFF" d="M81.034 330.472h6.742v6.742h-6.742z"/><path fill="#FFF" d="M81.034 323.73h6.742v6.742h-6.742z"/><path fill="#FFF" d="M81.034 316.989h6.742v6.742h-6.742z"/><path fill="#FFF" d="M81.034 310.247h6.742v6.742h-6.742z"/><path fill="#FFF" d="M81.034 303.506h6.742v6.742h-6.742z"/><path fill="#FFF" d="M81.034 296.764h6.742v6.742h-6.742zm0-6.742h6.742v6.742h-6.742z"/><path fill="#FFF" d="M81.034 283.281h6.742v6.742h-6.742zm0-6.742h6.742v6.742h-6.742z"/><path fill="#FFF" d="M81.034 269.798h6.742v6.742h-6.742zm0-6.742h6.742v6.742h-6.742z"/><path fill="#FFF" d="M81.034 256.315h6.742v6.742h-6.742zm0-6.742h6.742v6.742h-6.742zm0 107.865h6.742v6.742h-6.742z"/><path fill="#FFF" d="M81.034 350.697h6.742v6.742h-6.742zm0-121.349h6.742v6.742h-6.742zm0 6.742h6.742v6.742h-6.742z"/><path fill="#FFF" d="M81.034 242.831h6.742v6.742h-6.742zm0-33.707h6.742v6.742h-6.742zm0-6.742h6.742v6.742h-6.742zm0-6.742h6.742v6.742h-6.742z"/><path fill="#FFF" d="M81.034 188.899h6.742v6.742h-6.742zm0-6.742h6.742v6.742h-6.742z"/><path fill="#FFF" d="M81.034 175.416h6.742v6.742h-6.742zm0-6.742h6.742v6.742h-6.742z"/><path fill="#FFF" d="M81.034 161.933h6.742v6.742h-6.742zm0-6.742h6.742v6.742h-6.742zm0 67.416h6.742v6.742h-6.742zm0-6.742h6.742v6.742h-6.742zm0-74.157h6.742v6.742h-6.742z"/><path fill="#FFF" d="M81.034 148.449h6.742v6.742h-6.742zm0-26.966h6.742v6.742h-6.742z"/><path fill="#FFF" d="M81.034 114.742h6.742v6.742h-6.742zm0-6.742h6.742v6.742h-6.742zm0-6.742h6.742V108h-6.742z"/><path fill="#FFF" d="M81.034 94.517h6.742v6.742h-6.742z"/><path fill="#FFF" d="M81.034 87.775h6.742v6.742h-6.742z"/><path fill="#FFF" d="M81.034 81.034h6.742v6.742h-6.742zm0-6.742h6.742v6.742h-6.742z"/><path fill="#FFF" d="M81.034 67.551h6.742v6.742h-6.742zm0 67.415h6.742v6.742h-6.742z"/><path fill="#FFF" d="M81.034 128.225h6.742v6.742h-6.742zM.135 1072.045h6.742v6.742H.135zm0-6.742h6.742v6.742H.135z"/><path fill="#FFF" d="M.135 1058.562h6.742v6.742H.135zm0-20.225h6.742v6.742H.135zm0 6.742h6.742v6.742H.135z"/><path fill="#FFF" d="M.135 1051.82h6.742v6.742H.135zm0-33.708h6.742v6.742H.135z"/><path fill="#FFF" d="M.135 1011.371h6.742v6.742H.135zm0-6.742h6.742v6.742H.135z"/><path fill="#FFF" d="M.135 997.888h6.742v6.742H.135zm0-6.742h6.742v6.742H.135zm0-6.742h6.742v6.742H.135z"/><path fill="#FFF" d="M.135 977.663h6.742v6.742H.135zm0-6.742h6.742v6.742H.135z"/><path fill="#FFF" d="M.135 964.18h6.742v6.742H.135zm0-6.742h6.742v6.742H.135z"/><path fill="#FFF" d="M.135 950.697h6.742v6.742H.135zm0-6.742h6.742v6.742H.135zm0-6.742h6.742v6.742H.135z"/><path fill="#FFF" d="M.135 930.472h6.742v6.742H.135zm0-6.742h6.742v6.742H.135zm0 107.866h6.742v6.742H.135zm0-6.742h6.742v6.742H.135zm0-121.348h6.742v6.742H.135z"/><path fill="#FFF" d="M.135 910.247h6.742v6.742H.135zm0 6.742h6.742v6.742H.135zm0-33.708h6.742v6.742H.135zm0-6.742h6.742v6.742H.135z"/><path fill="#FFF" d="M.135 869.798h6.742v6.742H.135zm0-6.742h6.742v6.742H.135z"/><path fill="#FFF" d="M.135 856.315h6.742v6.742H.135zm0-6.742h6.742v6.742H.135zm0-6.742h6.742v6.742H.135z"/><path fill="#FFF" d="M.135 836.09h6.742v6.742H.135zm0-6.742h6.742v6.742H.135zm0 67.416h6.742v6.742H.135zm0-6.742h6.742v6.742H.135zm0-74.157h6.742v6.742H.135z"/><path fill="#FFF" d="M.135 822.607h6.742v6.742H.135zm0-26.967h6.742v6.742H.135z"/><path fill="#FFF" d="M.135 788.899h6.742v6.742H.135zm0-6.742h6.742v6.742H.135z"/><path fill="#FFF" d="M.135 775.416h6.742v6.742H.135zm0-6.742h6.742v6.742H.135z"/><path fill="#FFF" d="M.135 761.933h6.742v6.742H.135zm0-6.742h6.742v6.742H.135zm0-6.742h6.742v6.742H.135z"/><path fill="#FFF" d="M.135 741.708h6.742v6.742H.135zm0 67.416h6.742v6.742H.135zm0-6.742h6.742v6.742H.135z"/><path fill="#FFF" d="M.135 735.101h6.742v6.742H.135z"/><path fill="#FFF" d="M.135 728.36h6.742v6.742H.135zm0-6.742h6.742v6.742H.135zm0-20.225h6.742v6.742H.135zm0 6.742h6.742v6.742H.135z"/><path fill="#FFF" d="M.135 714.876h6.742v6.742H.135zm0-33.707h6.742v6.742H.135zm0-6.742h6.742v6.742H.135zm0-6.742h6.742v6.742H.135z"/><path fill="#FFF" d="M.135 660.944h6.742v6.742H.135zm0-6.742h6.742v6.742H.135z"/><path fill="#FFF" d="M.135 647.461h6.742v6.742H.135zm0-6.742h6.742v6.742H.135z"/><path fill="#FFF" d="M.135 633.978h6.742v6.742H.135zm0-6.742h6.742v6.742H.135zm0-6.742h6.742v6.742H.135z"/><path fill="#FFF" d="M.135 613.753h6.742v6.742H.135zm0-6.742h6.742v6.742H.135z"/><path fill="#FFF" d="M.135 600.27h6.742v6.742H.135zm0-6.742h6.742v6.742H.135z"/><path fill="#FFF" d="M.135 586.787h6.742v6.742H.135zm0 107.865h6.742v6.742H.135zm0-6.742h6.742v6.742H.135zm0-121.348h6.742v6.742H.135z"/><path fill="#FFF" d="M.135 573.303h6.742v6.742H.135zm0 6.742h6.742v6.742H.135zm0-33.708h6.742v6.742H.135z"/><path fill="#FFF" d="M.135 539.596h6.742v6.742H.135zm0-6.742h6.742v6.742H.135zm0-6.742h6.742v6.742H.135z"/><path fill="#FFF" d="M.135 519.371h6.742v6.742H.135zm0-6.742h6.742v6.742H.135z"/><path fill="#FFF" d="M.135 505.888h6.742v6.742H.135z"/><path fill="#FFF" d="M.135 499.146h6.742v6.742H.135zm0-6.742h6.742v6.742H.135zm0 67.416h6.742v6.742H.135z"/><path fill="#FFF" d="M.135 553.079h6.742v6.742H.135zm0-74.158h6.742v6.742H.135zm0 6.742h6.742v6.742H.135zm0-26.966h6.742v6.742H.135zm0-6.742h6.742v6.742H.135z"/><path fill="#FFF" d="M.135 445.213h6.742v6.742H.135z"/><path fill="#FFF" d="M.135 438.472h6.742v6.742H.135z"/><path fill="#FFF" d="M.135 431.73h6.742v6.742H.135z"/><path fill="#FFF" d="M.135 424.989h6.742v6.742H.135z"/><path fill="#FFF" d="M.135 418.247h6.742v6.742H.135z"/><path fill="#FFF" d="M.135 411.506h6.742v6.742H.135z"/><path fill="#FFF" d="M.135 404.764h6.742v6.742H.135zm0 67.416h6.742v6.742H.135zm0-6.742h6.742v6.742H.135zm0-67.55h6.742v6.742H.135z"/><path fill="#FFF" d="M.135 391.146h6.742v6.742H.135zm0-6.742h6.742v6.742H.135zm0-20.224h6.742v6.742H.135z"/><path fill="#FFF" d="M.135 370.921h6.742v6.742H.135zm0 6.742h6.742v6.742H.135zm0-33.708h6.742v6.742H.135zm0-6.742h6.742v6.742H.135z"/><path fill="#FFF" d="M.135 330.472h6.742v6.742H.135z"/><path fill="#FFF" d="M.135 323.73h6.742v6.742H.135z"/><path fill="#FFF" d="M.135 316.989h6.742v6.742H.135z"/><path fill="#FFF" d="M.135 310.247h6.742v6.742H.135z"/><path fill="#FFF" d="M.135 303.506h6.742v6.742H.135z"/><path fill="#FFF" d="M.135 296.764h6.742v6.742H.135zm0-6.742h6.742v6.742H.135z"/><path fill="#FFF" d="M.135 283.281h6.742v6.742H.135zm0-6.742h6.742v6.742H.135z"/><path fill="#FFF" d="M.135 269.798h6.742v6.742H.135zm0-6.742h6.742v6.742H.135z"/><path fill="#FFF" d="M.135 256.315h6.742v6.742H.135zm0-6.742h6.742v6.742H.135zm0 107.865h6.742v6.742H.135z"/><path fill="#FFF" d="M.135 350.697h6.742v6.742H.135zm0-121.349h6.742v6.742H.135zm0 6.742h6.742v6.742H.135z"/><path fill="#FFF" d="M.135 242.831h6.742v6.742H.135zm0-33.707h6.742v6.742H.135zm0-6.742h6.742v6.742H.135zm0-6.742h6.742v6.742H.135z"/><path fill="#FFF" d="M.135 188.899h6.742v6.742H.135zm0-6.742h6.742v6.742H.135z"/><path fill="#FFF" d="M.135 175.416h6.742v6.742H.135zm0-6.742h6.742v6.742H.135z"/><path fill="#FFF" d="M.135 161.933h6.742v6.742H.135zm0-6.742h6.742v6.742H.135zm0 67.416h6.742v6.742H.135zm0-6.742h6.742v6.742H.135zm0-74.157h6.742v6.742H.135z"/><path fill="#FFF" d="M.135 148.449h6.742v6.742H.135zm0-26.966h6.742v6.742H.135z"/><path fill="#FFF" d="M.135 114.742h6.742v6.742H.135zm0-6.742h6.742v6.742H.135zm0-6.742h6.742V108H.135z"/><path fill="#FFF" d="M.135 94.517h6.742v6.742H.135z"/><path fill="#FFF" d="M.135 87.775h6.742v6.742H.135z"/><path fill="#FFF" d="M.135 81.034h6.742v6.742H.135zm0-6.742h6.742v6.742H.135z"/><path fill="#FFF" d="M.135 67.551h6.742v6.742H.135zm0 67.415h6.742v6.742H.135z"/><path fill="#FFF" d="M.135 128.225h6.742v6.742H.135zM40.584.135h6.742v6.742h-6.742zM67.551 20.36h6.742v6.742h-6.742zm-6.742 0h6.742v6.742h-6.742zm0-6.742h6.742v6.742h-6.742zm-6.742 0h6.742v6.742h-6.742zm0-6.742h6.742v6.742h-6.742z"/><path fill="#FFF" d="M47.326 6.876h6.742v6.742h-6.742z"/><path fill="#FFF" d="M47.326.135h6.742v6.742h-6.742zm20.225 26.966h6.742v6.742h-6.742z"/><path fill="#FFF" d="M74.292 27.101h6.742v6.742h-6.742zm-33.708 0h6.742v6.742h-6.742zm0 26.966h6.742v6.742h-6.742zm26.967-20.224h6.742v6.742h-6.742zm-6.742 0h6.742v6.742h-6.742z"/><path fill="#FFF" d="M60.809 40.584h6.742v6.742h-6.742zm-6.742 0h6.742v6.742h-6.742zm0 6.742h6.742v6.742h-6.742z"/><path fill="#FFF" d="M47.326 47.326h6.742v6.742h-6.742z"/><path fill="#FFF" d="M47.326 54.067h6.742v6.742h-6.742zm-6.742 6.742h6.742v6.742h-6.742zM67.551.135h6.742v6.742h-6.742zm6.741 60.674h6.742v6.742h-6.742zm-6.741-6.742h6.742v6.742h-6.742zM13.618 20.36h6.742v6.742h-6.742zm6.742 0h6.742v6.742H20.36zm0-6.742h6.742v6.742H20.36z"/><path fill="#FFF" d="M27.101 13.618h6.742v6.742h-6.742zm0-6.742h6.742v6.742h-6.742zm6.742 0h6.742v6.742h-6.742z"/><path fill="#FFF" d="M33.843.135h6.742v6.742h-6.742zM13.618 27.101h6.742v6.742h-6.742z"/><path fill="#FFF" d="M6.876 27.101h6.742v6.742H6.876zm6.742 6.742h6.742v6.742h-6.742zm6.742 0h6.742v6.742H20.36z"/><path fill="#FFF" d="M20.36 40.584h6.742v6.742H20.36z"/><path fill="#FFF" d="M27.101 40.584h6.742v6.742h-6.742zm0 6.742h6.742v6.742h-6.742zm6.742 0h6.742v6.742h-6.742z"/><path fill="#FFF" d="M33.843 54.067h6.742v6.742h-6.742zM13.618.135h6.742v6.742h-6.742zM6.876 60.809h6.742v6.742H6.876zm6.742-6.742h6.742v6.742h-6.742z"/><path fill="#FF9E78" d="M40.584 20.36h6.742v6.742h-6.742zm0 13.483h6.742v6.742h-6.742zm6.742-6.742h6.742v6.742h-6.742zM54.067.135h6.742v6.742h-6.742zm0 53.932h6.742v6.742h-6.742zm6.742 6.742h6.742v6.742h-6.742z"/><path fill="#FF9E78" d="M33.843 27.101h6.742v6.742h-6.742zM27.101.135h6.742v6.742h-6.742zm0 53.932h6.742v6.742h-6.742zm-6.741 6.742h6.742v6.742H20.36z"/><path fill="#FC422D" d="M47.326 20.36h6.742v6.742h-6.742zm-6.742-6.742h6.742v6.742h-6.742zm6.742 20.225h6.742v6.742h-6.742zm-6.742 6.741h6.742v6.742h-6.742z"/><path fill="#FC422D" d="M54.067 27.101h6.742v6.742h-6.742zM33.843 20.36h6.742v6.742h-6.742zm0 13.483h6.742v6.742h-6.742zm-6.742-6.742h6.742v6.742h-6.742z"/><path fill="#820000" d="M40.584 6.876h6.742v6.742h-6.742zM54.067 20.36h6.742v6.742h-6.742zm-6.741-6.742h6.742v6.742h-6.742zm-6.742 33.708h6.742v6.742h-6.742zm13.483-13.483h6.742v6.742h-6.742z"/><path fill="#820000" d="M47.326 40.584h6.742v6.742h-6.742zm13.483-13.483h6.742v6.742h-6.742zM27.101 20.36h6.742v6.742h-6.742zm6.742-6.742h6.742v6.742h-6.742zm-6.742 20.225h6.742v6.742h-6.742zm6.742 6.741h6.742v6.742h-6.742z"/><path fill="#820000" d="M20.36 27.101h6.742v6.742H20.36z"/><path fill="#FFF" d="M81.034 60.809h6.742v6.742h-6.742zm0-6.742h6.742v6.742h-6.742z"/><path fill="#FFF" d="M81.034 47.326h6.742v6.742h-6.742zm0-20.225h6.742v6.742h-6.742zm0 6.742h6.742v6.742h-6.742z"/><path fill="#FFF" d="M81.034 40.584h6.742v6.742h-6.742zm0-33.708h6.742v6.742h-6.742z"/><path fill="#FFF" d="M81.034.135h6.742v6.742h-6.742zm0 20.225h6.742v6.742h-6.742zm0-6.742h6.742v6.742h-6.742zM.135 60.809h6.742v6.742H.135zm0-6.742h6.742v6.742H.135z"/><path fill="#FFF" d="M.135 47.326h6.742v6.742H.135zm0-20.225h6.742v6.742H.135zm0 6.742h6.742v6.742H.135z"/><path fill="#FFF" d="M.135 40.584h6.742v6.742H.135zm0-33.708h6.742v6.742H.135z"/><path fill="#FFF" d="M.135.135h6.742v6.742H.135zm0 20.225h6.742v6.742H.135zm0-6.742h6.742v6.742H.135z"/></g></svg>