<svg width="44" height="45" viewBox="0 0 44 45" xmlns="http://www.w3.org/2000/svg"><title>viber</title><g fill="#FF702A" fill-rule="evenodd"><path d="M42.412 10.912l-.014-.057c-1.05-4.227-5.765-8.77-10.093-9.72l-.043-.014a56.102 56.102 0 0 0-21.12 0l-.057.015C6.757 2.085 2.042 6.628.992 10.855l-.014.057a41.356 41.356 0 0 0 0 17.813l.014.058c1.006 4.054 5.377 8.382 9.546 9.575v4.73c0 1.71 2.085 2.545 3.264 1.308l4.787-4.974a56.104 56.104 0 0 0 13.687-.92l.043-.015c4.328-.949 9.058-5.477 10.093-9.719l.015-.057a41.516 41.516 0 0 0-.015-17.799zm-3.781 16.95c-.704 2.761-4.284 6.197-7.131 6.83a52.708 52.708 0 0 1-11.228.905.284.284 0 0 0-.202.087l-3.493 3.58-3.724 3.81c-.273.287-.748.086-.748-.302V34.95c0-.129-.086-.244-.215-.258-2.847-.633-6.427-4.069-7.131-6.83a37.545 37.545 0 0 1 0-16.102c.704-2.76 4.284-6.196 7.13-6.829a52.302 52.302 0 0 1 19.611 0c2.847.633 6.427 4.069 7.131 6.83a37.545 37.545 0 0 1 0 16.102z" fill-rule="nonzero"/><path d="M27.877 31.471c-.431-.13-.848-.215-1.236-.388-4.012-1.668-7.706-3.81-10.64-7.102-1.667-1.87-2.961-3.983-4.068-6.225-.518-1.064-.963-2.157-1.409-3.264-.403-.992.187-2.027.834-2.79.59-.704 1.366-1.25 2.185-1.638.647-.316 1.28-.13 1.754.417 1.02 1.179 1.955 2.43 2.717 3.81.475.848.345 1.883-.503 2.458-.201.144-.388.302-.59.46-.172.144-.33.273-.445.46-.216.345-.216.748-.086 1.122 1.05 2.875 2.803 5.104 5.693 6.311.46.187.92.417 1.467.36.89-.101 1.178-1.079 1.811-1.596.604-.503 1.395-.503 2.056-.086a35.13 35.13 0 0 1 1.926 1.322c.619.446 1.237.877 1.812 1.38.546.49.748 1.122.431 1.783-.575 1.208-1.394 2.214-2.588 2.861-.33.173-.733.23-1.121.345-.431-.13.388-.115 0 0zM21.695 8.698c5.247.144 9.56 3.637 10.48 8.828.159.89.216 1.782.288 2.688.029.374-.187.733-.59.748-.416 0-.603-.345-.632-.72-.057-.747-.086-1.494-.201-2.242-.546-3.91-3.666-7.145-7.548-7.835-.59-.101-1.179-.13-1.783-.202-.374-.043-.862-.057-.949-.532-.072-.388.26-.704.633-.719.1-.028.201-.014.302-.014 5.262.144-.1 0 0 0z"/><path d="M29.674 19.035c-.014.072-.014.216-.057.36-.144.532-.935.589-1.122.057-.057-.158-.057-.33-.057-.503 0-1.107-.245-2.229-.805-3.192a5.892 5.892 0 0 0-2.488-2.329c-.618-.302-1.294-.489-1.984-.604-.302-.043-.603-.086-.905-.115-.36-.057-.561-.287-.547-.647.015-.33.26-.575.633-.56 1.208.071 2.372.33 3.436.891 2.17 1.15 3.422 2.976 3.781 5.406.014.115.043.215.058.33.028.274.043.547.057.906 0 .072-.014-.36 0 0z"/><path d="M26.41 18.906c-.445.014-.675-.23-.718-.633a5.303 5.303 0 0 0-.13-.834c-.13-.532-.417-1.035-.877-1.366a2.293 2.293 0 0 0-.704-.345c-.316-.086-.662-.071-.978-.143-.345-.087-.546-.374-.489-.69.044-.302.345-.532.662-.504 2.041.144 3.493 1.194 3.695 3.595.014.172.028.345 0 .503a.497.497 0 0 1-.46.417c-.432.014.2-.015 0 0z"/></g></svg>