<svg width="35" height="31" viewBox="0 0 35 31" xmlns="http://www.w3.org/2000/svg"><title>wallet (3)</title><g fill="#FFF" fill-rule="evenodd"><path d="M24.336.063H4.099C1.84.063 0 1.878 0 4.108 0 6.34 1.839 8.154 4.1 8.154V5.6a1.502 1.502 0 0 1-1.511-1.49c0-.822.677-1.491 1.51-1.491h18.943v4.258h2.589V1.34c0-.705-.58-1.277-1.295-1.277z"/><path d="M32.923 5.599H4.099c-.833 0-1.51-.669-1.51-1.49 0-.706-.58-1.278-1.294-1.278A1.286 1.286 0 0 0 0 4.108v22.784c0 2.23 1.839 4.045 4.1 4.045h28.823c.715 0 1.294-.572 1.294-1.277V6.876c0-.705-.58-1.277-1.294-1.277zm-1.295 22.783H4.1c-.833 0-1.51-.669-1.51-1.49V7.87c.467.183.977.284 1.51.284h27.53v20.228z" fill-rule="nonzero"/><path d="M27.14 20.589c-1.142 0-2.07-.917-2.07-2.044s.928-2.044 2.07-2.044h5.74v-2.555h-5.74c-2.57 0-4.66 2.063-4.66 4.599s2.09 4.6 4.66 4.6h5.783v-2.556H27.14z"/></g></svg>