<svg width="28" height="26" viewBox="0 0 28 26" fill="none" xmlns="http://www.w3.org/2000/svg">
<path d="M27.9861 23.9271L27.0558 20.4526C27.0348 20.3744 26.991 20.3041 26.9297 20.2506C26.8685 20.1971 26.7928 20.1628 26.712 20.1521C26.6312 20.1414 26.549 20.1547 26.4758 20.1904C26.4026 20.226 26.3417 20.2825 26.3008 20.3525L25.2235 22.1989L22.5306 20.6312V11.5312C22.5301 11.5092 22.5279 11.4873 22.524 11.4656C22.5272 11.4491 22.5294 11.4324 22.5306 11.4156C22.5307 11.3441 22.5119 11.2739 22.4761 11.2119C22.4403 11.1499 22.3888 11.0983 22.3267 11.0622L14.4121 6.45574V3.36126H16.5589C16.6403 3.36117 16.72 3.33708 16.7877 3.29204C16.8554 3.247 16.9082 3.18302 16.9393 3.10819C16.9704 3.03337 16.9785 2.95105 16.9626 2.87165C16.9467 2.79225 16.9074 2.71933 16.8497 2.6621L14.2913 0.119831C14.214 0.0431017 14.1092 0 14 0C13.8907 0 13.7859 0.0431017 13.7086 0.119831L11.1502 2.6621C11.0925 2.71936 11.0532 2.79232 11.0373 2.87176C11.0214 2.95121 11.0295 3.03356 11.0607 3.10841C11.0919 3.18325 11.1447 3.24723 11.2125 3.29223C11.2803 3.33724 11.36 3.36126 11.4415 3.36126H13.5878V6.45574L5.67326 11.0622C5.61118 11.0983 5.55968 11.1499 5.5239 11.2119C5.48812 11.2739 5.46929 11.3441 5.46931 11.4156C5.47052 11.4324 5.4728 11.4491 5.47614 11.4656C5.47205 11.4873 5.46977 11.5092 5.46931 11.5312V20.6307L2.77664 22.1984L1.69915 20.3518C1.65822 20.2817 1.59731 20.2253 1.52412 20.1897C1.45094 20.154 1.36876 20.1407 1.28797 20.1514C1.20717 20.1621 1.13139 20.1964 1.07018 20.2499C1.00897 20.3034 0.965095 20.3737 0.944083 20.4519L0.0137916 23.9271C-0.0142396 24.0321 0.000821378 24.1439 0.0556667 24.2378C0.110512 24.3318 0.200657 24.4003 0.306304 24.4283L3.80373 25.3526C3.8825 25.3733 3.96569 25.3704 4.0428 25.3442C4.11991 25.318 4.18748 25.2697 4.23695 25.2054C4.28643 25.1411 4.31561 25.0636 4.32078 24.9828C4.32596 24.902 4.30692 24.8215 4.26605 24.7514L3.18974 22.9065L5.88122 21.3399L13.7913 25.9436C13.796 25.9464 13.8014 25.9474 13.8061 25.9499C13.8287 25.9619 13.8524 25.9717 13.8768 25.9794C13.885 25.982 13.893 25.985 13.9015 25.9871C13.9655 26.0043 14.033 26.0043 14.097 25.9871C14.1055 25.985 14.1135 25.982 14.1205 25.9794C14.145 25.9717 14.1686 25.9619 14.1912 25.9499C14.1959 25.9474 14.2013 25.9464 14.206 25.9436L22.1185 21.3399L24.81 22.9076L23.7339 24.7517C23.6975 24.8139 23.6784 24.8846 23.6782 24.9565C23.6781 25.0285 23.6971 25.0992 23.7333 25.1615C23.7694 25.2239 23.8215 25.2757 23.8842 25.3117C23.9469 25.3477 24.018 25.3666 24.0904 25.3666C24.1262 25.3665 24.1618 25.3619 24.1964 25.3528L27.6939 24.4285C27.7995 24.4005 27.8896 24.3319 27.9444 24.2379C27.9993 24.1439 28.0142 24.0321 27.9861 23.9271ZM14 7.16496L21.3031 11.4156L14 15.6659L6.69706 11.4156L14 7.16496ZM6.29361 12.1299L13.5878 16.3752V24.8759L6.29361 20.6307V12.1299ZM14.4121 24.8759V16.3752L21.7063 12.1299V20.6307L14.4121 24.8759Z" fill="#00A82D"/>
</svg>
