<?xml version="1.0" encoding="UTF-8"?>
<svg width="231px" height="40px" viewBox="0 0 231 40" version="1.1" xmlns="http://www.w3.org/2000/svg" xmlns:xlink="http://www.w3.org/1999/xlink">
    <!-- Generator: sketchtool 52.6 (67491) - http://www.bohemiancoding.com/sketch -->
    <title>E8BA5280-BDF9-48C4-BC0F-EAD0E0ADDE8B</title>
    <desc>Created with sketchtool.</desc>
    <g id="Мир-роз" stroke="none" stroke-width="1" fill="none" fill-rule="evenodd">
        <g id="Главная-мир-роз" transform="translate(-190.000000, -14.000000)" fill="#81D7D0" fill-rule="nonzero">
            <g id="Прозрачный" transform="translate(190.000000, 14.000000)">
                <g id="SvgjsG100898">
                    <path d="M30.5,39.4375 C29.6875,39.1875 29.25,38.5 28.6875,37.9375 C28.375,37.625 28,37.3125 27.625,37.0625 C27.5625,37 27.3125,37.0625 27.1875,37.0625 C26.9375,37.125 26.625,37.25 26.375,37.375 C26.3125,37.3125 26.3125,37.1875 26.25,37.125 C26.375,37 26.5,36.75 26.6875,36.6875 C27.0625,36.5 27.0625,36.3125 26.875,36.0625 C26.625,35.6875 26.5,35.25 25.875,35.3125 C25.5,35.375 25.375,35.5 25.1875,35.8125 C24.75,36.5 24.3125,37.1875 23.6875,37.75 C23.25,38.125 22.625,38.25 22.0625,38.4375 C21.875,38.5 21.625,38.5 21.375,38.625 C20.9375,38.875 20.4375,38.9375 19.9375,38.8125 C19.0625,38.6875 18.1875,38.75 17.25,38.6875 C16.9375,38.6875 16.625,38.625 16.3125,38.5625 C15.6875,38.4375 15,38.3125 14.4375,38.125 C13.625,37.8125 12.8125,37.4375 12,37.0625 C11.25,36.75 10.5625,36.4375 9.8125,36.125 C9.8125,36.0625 9.9375,36 9.9375,35.875 C10.0625,34.9375 10.75,34.625 11.5,34.3125 C12.25,33.9375 13,33.5 13.6875,33.125 C14.875,32.5 16.125,32.125 17.4375,31.9375 C17.8125,31.875 18.1875,31.6875 18.5625,31.75 C19.6875,31.8125 20.75,31.875 21.6875,32.625 C22.25,33.0625 22.9375,33.3125 23.5625,33.6875 C23.875,33.875 24.1875,34.0625 24.375,34.3125 C24.6875,34.875 25.125,34.9375 25.75,34.75 C25.6875,34.625 25.6875,34.4375 25.5625,34.3125 L24.0625,32.0625 C23.9375,31.9375 23.75,31.875 23.5625,31.8125 C23.25,31.6875 22.9375,31.625 22.5625,31.5 C22.5625,31.4375 22.5625,31.375 22.625,31.3125 C22.75,31.25 22.875,31.25 23,31.1875 C23.125,31.125 23.25,31.0625 23.3125,31.0625 C23,30.375 22.6875,29.75 22.375,29.1875 C22.3125,29.0625 22.0625,29 21.875,28.9375 C21.5,28.875 21.0625,28.8125 20.6875,28.75 L20.6875,28.625 C20.9375,28.5 21.25,28.375 21.5,28.3125 C21.8125,28.25 21.875,28.125 21.75,27.8125 C21.375,26.9375 20.9375,26 20.625,25.125 C20.4375,24.6875 20.1875,24.625 19.8125,24.75 C19.125,25.0625 18.5,24.8125 17.9375,24.5 C17.25,24.125 16.4375,23.875 15.8125,23.3125 C15.5,23 15,23.375 14.75,23.9375 C14.5625,24.3125 14.375,24.6875 14.0625,25 C13.25,25.8125 12.3125,25.6875 11.375,25.3125 C10.5625,25 9.8125,24.5625 9,24.1875 C8.375,23.875 7.8125,23.625 7.1875,23.375 L6.625,23.1875 C5.875,22.875 5.3125,22.375 5.5,21.4375 C5.5,21.3125 5.5,21.1875 5.4375,20.875 C5,21.125 4.6875,21.375 4.3125,21.625 C4.1875,21.6875 4,21.75 3.875,21.6875 C2.625,21.4375 2,20.5 1.5625,19.375 C0.75,17.125 1.0625,15.0625 2.4375,13.125 C2.5625,12.9375 2.6875,12.6875 2.8125,12.5 C2.75,12.4375 2.75,12.375 2.6875,12.3125 C2.375,12.5 2,12.625 1.6875,12.8125 C1.3125,13.0625 1,13.5625 0.5625,13.3125 C0.3125,13.1875 0.25,12.5625 0.3125,12.1875 C0.6875,10.25 1.0625,8.25 2.625,6.875 C3.6875,5.9375 5.0625,5.625 6.5,5.9375 C6.6875,6 6.8125,6.125 6.9375,6.25 C6.9375,6.3125 6.875,6.375 6.875,6.375 C6.5,6.375 6.0625,6.3125 5.6875,6.375 C5.0625,6.25 4.375,6.4375 3.75,6.625 C3.6875,6.625 3.6875,6.6875 3.6875,6.6875 C2.25,7.0625 2.0625,8.25 1.9375,9.5 C1.875,10 1.625,10.5 1.4375,11 C1.3125,11.3125 1.25,11.6875 1.125,12.0625 C1.625,11.9375 2,11.75 2.375,11.6875 C2.625,11.625 2.9375,11.625 3.1875,11.6875 C3.4375,11.8125 3.75,12 3.9375,12.1875 C4,12.25 3.75,12.625 3.5625,12.8125 C2.625,13.5625 2.5625,14.75 2.3125,15.75 C1.9375,17.4375 2.4375,19.0625 3.4375,20.625 C4,20.1875 4.4375,19.6875 4.9375,19.3125 C5.75,18.6875 6.625,18.5 7.6875,18.625 C8.8125,18.75 9.75,19.1875 10.625,19.8125 C11.5625,20.4375 12.25,20.25 13,19.3125 C12.125,18.625 11.25,17.9375 10.25,17.1875 L10.25,16.9375 C9.8125,17 9.375,17 8.875,17.0625 C9,16.5 8.625,16.625 8.3125,16.625 C8.3125,16.8125 8.25,16.9375 8.25,17.0625 L8.0625,17.0625 C7.8125,17.0625 7.5,17 7.3125,17.125 C6.9375,17.4375 6.8125,17.4375 6.25,17.125 C6.5,17 6.6875,16.9375 6.875,16.8125 C6.875,16.6875 6.8125,16.5 6.8125,16.25 C6.5625,16.5 6.3125,16.6875 6.0625,16.875 C5.875,16.625 5.6875,16.4375 5.5625,16.125 C5.375,15.5625 5.125,14.9375 5.0625,14.375 C5.0625,13.875 5,13.4375 4.75,13.0625 C4.6875,12.9375 4.9375,12.6875 4.875,12.4375 C4.9375,12 4.875,11.5625 5,11.125 C5.375,9.5 6,8 6.875,6.5 C7.5,5.375 8.25,4.3125 9.25,3.5 C10.125,2.8125 11.125,2.3125 12.0625,1.6875 C12.9375,1.125 14,0.9375 15,0.5 C15.9375,0.125 16.25,0.5625 16.75,1.0625 C17.625,2 17.625,1.9375 18.5625,1.125 C19.5625,0.25 20.6875,-0.125 22,0.125 C22.75,0.3125 23.4375,0.6875 24.125,1 C24.5625,1.25 24.9375,1.375 25.4375,1.1875 C26.3125,0.875 27.25,0.875 28.1875,1.1875 C28.3125,1.25 28.4375,1.25 28.5625,1.25 C29.0625,1.25 29.3125,1.5625 29.375,2 C29.375,2.375 29.375,2.75 29.3125,3.125 C29.1875,4.1875 29.5625,5 30.5,5.5625 C30.875,5.8125 31.25,6.125 31.5625,6.4375 C32.0625,6.9375 32,7.375 31.375,7.8125 C33.125,8.4375 34.5625,9.5 35.0625,10.5 C34.1875,10.3125 33.75,10.875 33.375,11.4375 C32.625,12.625 31.625,13.4375 30.3125,14.0625 C29.3125,14.5625 28.4375,15.125 27.5,15.75 C27.1875,15.9375 26.9375,16.1875 26.6875,16.5 C26.3125,16.875 25.9375,17.3125 25.625,17.75 C25.375,18.1875 25.1875,18.625 25.125,19.125 C25,19.9375 25.0625,20.75 24.875,21.5625 C24.625,22.4375 24,23.125 23.125,23.5 C22.75,23.625 22.5625,24.25 22.75,24.75 C22.875,25.125 23.0625,25.5 23.1875,25.9375 C23.4375,25.8125 23.75,25.6875 24,25.5625 C24.0625,25.625 24.125,25.625 24.1875,25.6875 C24.0625,25.9375 24,26.25 23.8125,26.4375 C23.5,26.75 23.4375,27 23.6875,27.3125 C23.75,27.375 23.75,27.5 23.8125,27.5625 C24,27.875 24.125,28.3125 24.4375,28.5625 C24.625,28.75 25.0625,28.625 25.5,28.625 L25.3125,29.1875 C25.125,29.6875 25.0625,30.125 25.5,30.5625 C25.9375,31.0625 26.25,31.6875 26.625,32.25 C26.8125,32.5625 27.0625,32.8125 27.375,33.1875 C27.625,32.4375 27.8125,31.875 28,31.25 L28,31.0625 C27.25,30.4375 27.9375,29.5625 27.5625,28.875 C28.0625,28.375 27.6875,27.6875 27.875,27.125 C28.125,26.25 28.3125,25.3125 28.4375,24.375 C28.5625,23.5625 29.0625,22.8125 29.4375,22.0625 C29.4375,22 29.5625,22 29.5625,21.9375 C29.5625,20.75 30.5625,20.1875 31.125,19.3125 C31.4375,18.875 31.875,18.5 32.25,18.1875 C33,17.5625 33.8125,17.0625 34.75,16.6875 C35.8125,16.1875 36.875,15.625 37.9375,15.0625 C38.375,14.875 38.8125,14.75 39.3125,14.625 C39.375,14.6875 39.4375,14.75 39.5,14.75 C39.4375,15.0625 39.3125,15.4375 39.375,15.75 C39.375,16.0625 39.625,16.375 39.625,16.75 C39.6875,17.25 39.5625,17.8125 39.5625,18.3125 C39.5625,18.625 39.625,18.875 39.6875,19.1875 C39.625,20 39.6875,20.625 39.375,21.25 C39.25,21.5 39.375,21.9375 39.375,22.25 C39.375,22.625 39.4375,23 39.25,23.3125 C39,23.875 38.75,24.375 38.75,25 C38.75,25.375 38.1875,25.6875 37.9375,26.0625 C37.75,26.3125 37.625,26.5625 37.4375,26.8125 C37.0625,27.3125 36.6875,27.875 36.3125,28.375 C36.125,28.625 35.9375,28.8125 35.75,29 C35.5,29.25 35.25,29.5 34.9375,29.75 C34.625,30.0625 34.3125,30.4375 33.9375,30.6875 C33.625,30.875 33.3125,31.0625 32.9375,31.125 C32.5625,31.1875 32.1875,31.1875 31.8125,31.1875 C31.6875,31.1875 31.5625,31.1875 31.5,31.25 C30.8125,31.875 30,31.6875 29.25,31.5625 C29.125,31.5625 28.9375,31.5625 28.625,31.5 C28.625,32.5625 28.5625,33.625 28.625,34.6875 C28.625,35.3125 29.125,35.5625 29.75,35.4375 C29.875,35.375 30.125,35.4375 30.1875,35.5625 C30.25,35.625 30.1875,35.875 30.125,35.9375 C29.75,36.375 29.9375,36.6875 30.375,37 C30.8125,37.3125 31.1875,37.625 31.625,37.9375 C31.8125,38.0625 31.9375,38.25 32.0625,38.4375 C31.875,38.5 31.6875,38.5625 31.5625,38.625 C31.875,38.875 32.25,39.1875 32.5625,39.5 L31.625,39.5 L30.6875,38.75 C30.6875,38.8125 30.625,38.8125 30.625,38.875 C30.6875,39.0625 30.75,39.3125 30.8125,39.5 C30.625,39.4375 30.5625,39.4375 30.5,39.4375 Z M18.75,19.3125 C19.125,19.0625 19.5,18.75 19.875,18.5 C20.0625,18.375 20.375,18.3125 20.625,18.25 C19.625,17.8125 19.0625,18.5 18.4375,18.9375 C18.5625,19.0625 18.6875,19.1875 18.75,19.3125 C18.5,19.3125 18.25,19.4375 18.0625,19.375 C17.5,19.1875 16.8125,19.375 16.375,19.8125 C17.125,19.75 17.875,19.75 18.625,19.6875 C18.6875,19.6875 18.6875,19.4375 18.75,19.3125 Z M30,29.8125 C31,29.8125 32,30.0625 32.9375,29.8125 C33.8125,29.5625 34.5625,28.75 35.0625,27.8125 C34.0625,28.0625 33.1875,28.25 32.3125,28.4375 C32.3125,28.375 32.25,28.3125 32.25,28.25 C32.4375,28.125 32.625,28 32.8125,27.9375 C33.6875,27.6875 34.5,27.5 35.375,27.3125 C35.5625,27.25 35.8125,27.125 35.9375,26.9375 C36.375,26.3125 36.8125,25.6875 37.3125,24.9375 C36.4375,25.125 35.5,25.3125 34.625,25.5 C34.625,25.4375 34.5625,25.375 34.5625,25.375 C34.6875,25.3125 34.75,25.125 34.875,25.125 C35.3125,25 35.8125,24.8125 36.3125,24.75 C37.1875,24.625 37.4375,23.9375 37.8125,23.3125 C37.9375,23.125 37.8125,22.75 37.6875,22.5625 C37.625,22.5 37.25,22.5625 37.0625,22.5625 L36.3125,22.75 C36.25,22.6875 36.25,22.625 36.1875,22.5625 C36.375,22.4375 36.625,22.25 36.8125,22.125 C37.125,21.9375 37.5625,21.875 37.6875,21.625 C38.0625,20.6875 38.375,19.75 38.625,18.75 C38.75,18.0625 38.75,17.375 38.8125,16.5 C38.625,16.75 38.5,16.875 38.4375,17 L36.5625,20.5625 C36.125,21.4375 35.75,22.3125 35.3125,23.1875 C35.1875,23.4375 35,23.6875 34.8125,24 C34.1875,25 33.625,26.0625 32.9375,26.9375 C31.9375,27.9375 30.9375,28.875 30,29.8125 L29.5625,30.25 L29,30.0625 L29,29.9375 C29.0625,29.875 29.125,29.8125 29.125,29.75 C30.125,28.9375 30.6875,28.0625 30.25,26.75 L30.25,26.6875 C30.0625,25.8125 29.875,25 29.6875,24 C29.5625,24.6875 29.6875,25.375 29.375,25.625 C28.875,26.125 28.9375,26.8125 29.0625,27.125 C29.25,27.6875 29.0625,28.0625 28.875,28.5 C28.5625,29.1875 27.875,29.875 28.5,30.625 C29,30.75 29.5,31 30,31 C30.4375,31 30.875,30.6875 31.375,30.5 C31.375,30.4375 31.3125,30.375 31.3125,30.3125 C31,30.3125 30.75,30.3125 30.4375,30.25 C30.25,30.1875 30.125,29.9375 30,29.8125 Z M9.4375,8.6875 C9.3125,9 9.1875,9.25 9.0625,9.5625 C9.125,9.5625 9.125,9.5625 9.1875,9.625 C9.625,9.125 10.0625,8.5625 10.5,8.0625 C10.5,8 10.4375,7.9375 10.4375,7.9375 C10.1875,8.0625 9.9375,8.25 9.75,8.375 C9.5625,8.4375 9.5,8.625 9.4375,8.6875 C9.4375,8.4375 9.4375,8.125 9.5625,7.9375 C10.1875,6.9375 11,6.0625 12,5.3125 C12.5,4.9375 12.9375,4.75 13.5,4.75 C13.6875,4.75 13.9375,5 14.125,5.125 C14,5.25 13.875,5.375 13.75,5.5625 L13.5625,5.75 C13.1875,6.375 12.875,7 12.5,7.625 C12.25,8.0625 12.0625,8.625 11.6875,8.9375 C10.875,9.6875 10.8125,10.75 10.3125,11.5625 C10.4375,11.625 10.5,11.6875 10.5625,11.6875 C11.9375,11.6875 13.25,11.6875 14.5625,12.1875 C14.6875,12.25 14.9375,12.25 15.0625,12.1875 C15.6875,11.8125 16.25,11.375 16.875,10.875 C16.5625,10.75 16.375,10.625 16.25,10.5625 C15.5,10.25 14.75,10.1875 13.9375,10.3125 C13.625,10.375 13.1875,10.125 12.875,9.875 C12.75,9.8125 12.8125,9.3125 12.9375,9.125 C13.8125,8.1875 14.75,7.3125 15.6875,6.4375 C15.75,6.375 15.9375,6.375 16.0625,6.375 C17.3125,6.75 18.5625,7.1875 19.5625,8.125 C19.6875,8.25 19.75,8.5625 19.8125,8.75 C19.75,8.75 19.6875,8.8125 19.625,8.8125 C18.5,8.25 17.3125,7.6875 16.1875,7.1875 C15.75,7.625 15.3125,8.125 14.875,8.625 C15.9375,9.0625 16.875,9.4375 17.875,9.8125 C18.3125,9.625 18.8125,9.3125 19.3125,9.125 C19.375,9.0625 19.5625,9.1875 19.6875,9.25 C19.625,9.375 19.625,9.5 19.5,9.5625 C18.75,10.25 17.9375,10.9375 17.1875,11.6875 C16.75,12.125 16.375,12.625 15.9375,13 C15.6875,13.1875 15.3125,13.25 15,13.25 C14.4375,13.1875 13.9375,12.875 13.375,12.8125 C12.5,12.75 11.625,13 10.8125,13.375 C11.25,13.5 11.6875,13.5625 12.125,13.625 C12.875,13.75 13.6875,13.875 14.4375,14.0625 C15.0625,14.1875 15.625,14.375 16.1875,14.5 C17.3125,14.75 18.3125,14.5 18.9375,13.4375 C19.3125,12.8125 19.75,12.1875 20.1875,11.5625 C20.5,11.0625 20.875,10.5625 21.25,10.0625 C22,9.125 21.9375,8.125 21.375,7.0625 C21.3125,6.9375 21.3125,6.75 21.3125,6.625 C21.4375,6.6875 21.625,6.75 21.75,6.8125 L22.3125,7.375 C22.875,7.9375 23,8.625 22.625,9.375 C22,10.5625 21.4375,11.6875 20.8125,12.875 C20.3125,13.8125 19.9375,14.75 19.0625,15.5 C18.1875,16.25 17.375,16.0625 16.4375,16.0625 C16.1875,16.0625 15.9375,16.1875 15.75,16.3125 C15.25,16.6875 14.875,17.125 14.375,17.4375 C14.125,17.625 13.625,17.75 13.375,17.625 C12.8125,17.3125 12.75,17.75 12.375,18.125 C13.1875,18.3125 13.8125,18.5 14.5,18.625 C14.8125,18.6875 15.125,18.6875 15.4375,18.6875 C16.125,18.75 16.875,18.75 17.375,18.125 C18.5,16.875 19.8125,16.125 21.5,16.125 C21.625,16.125 21.8125,16 21.9375,15.9375 C22.6875,15.3125 23.125,14.5 23.0625,13.5 C23,12.5 23.25,11.625 23.9375,11.0625 C24.9375,10.25 25.6875,9.3125 26.375,8.3125 C26.9375,7.4375 26.6875,6.9375 26,6.4375 C24.875,5.625 24.125,4.5625 24.25,3.125 C24.25,2.8125 24.3125,2.4375 24.25,2.125 C24.25,1.9375 24.125,1.625 23.9375,1.5625 C23.0625,0.875 22.0625,0.625 20.9375,0.625 C20.0625,0.625 19.875,0.875 19.9375,1.5 C19.4375,1.6875 18.9375,1.9375 18.4375,2.125 C18.4375,2.1875 18.5,2.25 18.5,2.3125 C18.875,2.1875 19.1875,2.0625 19.5,1.9375 C19.875,2.3125 19.9375,2.75 19.5,3.125 C19.625,3.25 19.875,3.375 19.875,3.5 C20.0625,4.125 20.4375,4.625 20.9375,5 C21.125,5.125 21.25,5.3125 21.375,5.5625 C21.4375,5.6875 21.4375,5.9375 21.4375,6.0625 C21.25,6 21.0625,6 20.9375,5.9375 C20.0625,5.625 19.25,5.25 18.375,4.9375 C18.3125,4.875 18.1875,4.9375 18.0625,4.9375 C17.1875,5.3125 16.3125,5 15.4375,4.75 C15.1875,4.6875 15,4.4375 14.75,4.25 C15,4.1875 15.3125,4 15.5625,4 C16.375,3.875 17.1875,3.8125 18.0625,3.75 C17.75,3.125 17.5625,2.625 16.9375,2.3125 C16.5625,2.125 16.1875,1.8125 15.9375,1.4375 C15.625,0.9375 15.1875,0.875 14.75,1.0625 C13.5,1.5625 12.125,2 11,2.75 C9.75,3.5625 8.6875,4.625 7.5625,5.625 C7.25,5.875 6.875,6.375 6.9375,6.625 C7,7.125 6.75,7.375 6.625,7.75 C6,9.125 5.6875,10.5625 5.8125,12.0625 C5.9375,13.0625 6.1875,14.0625 6.75,14.9375 C6.9375,15.25 7.0625,15.3125 7.4375,15.3125 C8.3125,15.3125 9.125,15.3125 10,15.5 C10.6875,15.625 11.3125,16.125 11.9375,16.25 C13,16.5 14,16.25 15,15.5625 C14.5,15.1875 14,14.875 13.4375,14.625 C12.625,14.3125 11.8125,14 11,13.8125 C10.6875,13.6875 10.1875,13.625 9.9375,13.8125 C9.1875,14.3125 8.4375,13.9375 7.6875,13.875 C7.25,13.875 7.125,13.5625 7.1875,13.25 C7.25,12.4375 7.1875,11.6875 7.6875,10.9375 C8.125,10.3125 8.0625,10.25 8.75,10.1875 C8.5625,9.875 8.375,9.625 8.25,9.375 C8.0625,9.5625 7.875,9.6875 7.75,9.875 C7.6875,9.8125 7.625,9.75 7.5625,9.75 C8,9 8.375,8.25 8.8125,7.5 C8.875,7.5 8.9375,7.5625 9,7.5625 C8.9375,7.8125 8.875,8.125 8.8125,8.375 C9.1875,8.6875 9.3125,8.6875 9.4375,8.6875 Z M21.1875,18.375 C20.875,18.5 20.5,18.6875 20.1875,18.875 C20,19 19.75,19.125 19.5625,19.3125 C19.3125,19.5 19.0625,19.875 18.8125,19.9375 C18.0625,20.125 17.3125,20.1875 16.5625,20.3125 C16.5,20.3125 16.5,20.25 16.4375,20.25 C15.625,20.125 14.8125,19.875 14.1875,20.6875 C14.0625,20.8125 13.875,21 13.6875,21 C13.1875,21 13.1875,21.375 13.0625,21.625 C13.5625,21.5625 14.0625,21.5625 14.5,21.5 C15.375,21.375 16.1875,21.5625 16.875,22.25 L17.8125,23.1875 C18.4375,23.8125 19.75,24 20.4375,23.6875 C21.125,23.375 21.8125,23.0625 22.5,22.875 C23.1875,22.6875 23.75,22.3125 23.875,21.625 C24.0625,20.9375 24.1875,20.1875 24.1875,19.5 C24.1875,18.5625 24.5,17.875 25.0625,17.1875 C25.5625,16.625 25.9375,15.9375 26.375,15.3125 C26.875,14.625 26.6875,13.9375 26.5,13.1875 C25.9375,13.4375 26,13.375 25.75,12.9375 C25.625,12.75 25.375,12.5625 25.125,12.5 C25.0625,12.5 24.8125,12.75 24.75,12.875 C24.4375,13.625 24.1875,14.4375 23.9375,15.1875 C23.75,15.9375 23.3125,16.4375 22.625,16.75 C22.3125,16.875 22,17.125 21.75,17.25 C21.75,17.8125 22.8125,17.75 22.3125,18.4375 C22.1875,18.5625 21.625,18.375 21.1875,18.375 Z M33.5,10.0625 C33.5,10 33.5,9.9375 33.5625,9.875 C33.25,9.5625 32.9375,9.25 32.5625,9 C32.1875,8.8125 31.75,8.75 31.375,8.6875 C30.4375,8.4375 30.1875,7.875 30.6875,7.125 C30.75,7 30.75,6.75 30.6875,6.625 C30.5,6.375 30.25,6.1875 30,6 C28.9375,5.3125 28.375,4.375 28.5,3.125 C28.5625,2.75 28.5,2.375 28.5,1.9375 L26.5625,1.9375 C26.5,2.4375 26.3125,2.8125 26.3125,3.25 C26.3125,3.8125 26.3125,4.375 26.5,4.875 C26.875,5.875 27.375,6.75 27.875,7.6875 C28.125,8.1875 28.125,8.625 27.875,9.125 C27.75,9 27.625,8.9375 27.5625,8.875 C27.5625,8.9375 27.625,9 27.625,9.0625 C27.375,9.25 27.0625,9.4375 26.8125,9.625 C26.625,9.75 26.5,9.9375 26.375,10.0625 L26.5,10.1875 C27,10 27.4375,9.75 27.9375,9.5625 C28,9.625 28.0625,9.625 28.0625,9.6875 C27.9375,9.9375 27.8125,10.25 27.6875,10.5 C27.5,10.75 27.25,10.9375 27.125,11.1875 C27.0625,11.375 27,11.6875 27.125,11.875 C27.75,12.8125 28.75,13.25 29.875,13.1875 C30.4375,13.125 30.9375,12.9375 31.3125,12.4375 C31.875,11.5 32.25,10.375 33.5,10.0625 Z M6.9375,20.125 C6.375,20.375 6.1875,20.75 6.1875,21.6875 C6.1875,22.375 6.75,22.125 7.125,22.25 C7.25,22.3125 7.5,22.3125 7.625,22.375 C8.625,22.875 9.625,23.375 10.5625,23.875 C11.9375,24.5625 13,24.25 13.6875,22.8125 C13,22.5 12.125,22.375 12.0625,21.4375 C11.75,21.4375 11.3125,21.5625 11.125,21.4375 C10,20.75 8.6875,20.75 7.5,20.3125 C7.375,20.375 7.1875,20.25 6.9375,20.125 Z M32.8125,19.125 C32.75,19.0625 32.6875,19 32.625,19 L32.0625,19.5625 C31.9375,19.6875 31.875,19.9375 31.6875,20.0625 C31.375,20.3125 31.375,20.625 31.5,21 C31.6875,21.6875 31.875,22.3125 32.0625,23 C32.25,23.875 32.4375,24.8125 32.5625,25.6875 C33.625,24.5625 34.125,23.25 33.6875,21.6875 C33.4375,20.875 33.125,20 32.8125,19.125 Z M31.0625,20.875 C31,20.875 30.9375,20.875 30.875,20.9375 C30.6875,21.625 30.6875,21.625 30.0625,22.4375 C29.6875,22.875 29.6875,23.5 29.9375,24 C30.1875,24.5 30.3125,25 30.5,25.5 C30.6875,26.1875 30.8125,26.875 31,27.5625 C31.8125,27 32.25,26.375 32,25.4375 C31.9375,25.1875 31.9375,24.9375 31.875,24.6875 C31.625,23.5 31.375,22.1875 31.0625,20.875 Z M34.25,22.625 C35.625,20.4375 35.8125,18.5 34.875,17.5 C34.4375,17.75 34.0625,18 33.6875,18.125 C33.1875,18.25 33.125,18.5 33.25,18.9375 C33.625,20.125 33.9375,21.375 34.25,22.625 Z M15.125,37.3125 C16.0625,37.5 16.9375,38.25 17.875,37.5625 C18.625,37 19.3125,36.25 20,35.625 C20,35.5625 19.9375,35.5 19.9375,35.4375 L17.5,35.4375 C17.5,35.4375 17.4375,35.4375 17.4375,35.5 C16.6875,36.0625 15.9375,36.6875 15.125,37.3125 Z M20.6875,34.8125 C20.4375,34.5 20.3125,34.25 20.125,34.0625 C19.6875,33.625 19.25,33.1875 18.75,32.75 C18.5,32.5625 18.1875,32.375 17.875,32.4375 C17.1875,32.5 16.4375,32.75 15.75,32.875 C16.625,33.5625 17.5,34.1875 18.3125,34.8125 L20.6875,34.8125 Z M22.75,35.625 C22,35.5625 21.375,35.5 20.8125,35.5 C20.6875,35.5 20.5625,35.5625 20.5,35.625 C19.6875,36.4375 18.9375,37.25 18.1875,38.0625 C18.5625,38.0625 19.0625,37.9375 19.4375,38 C19.875,38.125 20.1875,38 20.625,37.8125 C21.5,37.3125 22,36.4375 22.75,35.625 Z M13.375,34.375 C14.875,35.0625 14.875,35.0625 16.1875,34.9375 L17.6875,34.75 L17.6875,34.5625 C16.625,34 15.875,32.9375 14.375,33.4375 C13.8125,33.625 13.6875,34 13.375,34.375 Z M19.375,32.375 L19.375,32.5 C20,33.25 20.5625,34.0625 21.1875,34.8125 C21.25,34.875 21.375,34.9375 21.4375,34.9375 L23.625,34.9375 C23.375,34.5 23.25,34.1875 23,33.9375 C22.6875,33.6875 22.3125,33.5 22,33.375 C21.8125,33.25 21.5,33.25 21.3125,33.1875 C21.0625,33.125 20.75,33.0625 20.5625,32.9375 C20.0625,32.75 19.6875,32.5625 19.375,32.375 Z M16.75,35.625 C16.75,35.5625 16.6875,35.5625 16.6875,35.5 C15.3125,35.6875 13.9375,35.9375 12.4375,36.125 C12.75,36.375 13,36.625 13.3125,36.75 C13.625,36.875 14.125,37.0625 14.375,36.9375 C15.25,36.625 16,36.125 16.75,35.625 Z M11.375,35.6875 C12.3125,35.25 13.5,35.9375 14.5625,35.0625 C13.75,34.875 13.0625,34.625 12.375,34.5 C12.1875,34.5 11.9375,34.75 11.8125,34.875 C11.5625,35.125 11.5,35.4375 11.375,35.6875 Z M35.875,19.0625 L37.1875,16.625 C35.1875,16.9375 35.4375,17.6875 35.875,19.0625 Z M21.9375,37.3125 L22.0625,37.4375 C22.625,36.875 23.3125,36.4375 23.5,35.625 C23.4375,35.5625 23.375,35.5 23.3125,35.5 C22.875,36.0625 22.4375,36.6875 21.9375,37.3125 Z M8.8125,19.875 C8.3125,19.75 8,19.6875 7.5625,19.5625 C7.75,20.1875 7.875,20.25 8.8125,19.875 Z M8.375,12.125 C8.125,12.3125 7.9375,12.375 7.8125,12.5 C7.75,12.625 7.75,12.8125 7.75,12.9375 C7.75,13 7.9375,13.0625 8,13.0625 C8.0625,13 8.125,12.875 8.1875,12.75 C8.1875,12.5625 8.25,12.4375 8.375,12.125 Z" id="Shape"></path>
                </g>
                <g id="SvgjsG100899" transform="translate(51.000000, 8.000000)">
                    <path d="M30.1018519,24.3055556 C30.1018519,24.1527778 30.0648148,24.0740741 29.9861111,24.0740741 C29.0138889,24.0740741 28.3101852,24.0138889 27.875,23.8842593 C27.4398148,23.7546296 27.1388889,23.5138889 26.9722222,23.1527778 C26.8055556,22.7962963 26.7083333,22.2175926 26.6851852,21.4259259 L25.9166667,3.63425926 C25.8888889,2.60648148 26.1527778,1.91203704 26.7037037,1.53703704 C27.2546296,1.16666667 28.1666667,0.981481481 29.4490741,0.981481481 C29.5277778,0.981481481 29.5648148,0.907407407 29.5648148,0.75 C29.5648148,0.597222222 29.5277778,0.523148148 29.4490741,0.523148148 C28.8842593,0.523148148 28.462963,0.532407407 28.1805556,0.560185185 L26.375,0.597222222 C25.9675926,0.597222222 25.6388889,0.583333333 25.3935185,0.560185185 C25.1527778,0.532407407 24.9675926,0.523148148 24.837963,0.523148148 C24.3518519,0.523148148 23.9675926,0.842592593 23.6851852,1.48148148 L15.3101852,20.5787037 L6.74074074,2.51851852 C6.3287037,1.6712963 6.01388889,1.12962963 5.7962963,0.884259259 C5.5787037,0.643518519 5.30555556,0.523148148 4.97222222,0.523148148 C4.79166667,0.523148148 4.54166667,0.532407407 4.22222222,0.560185185 C3.90277778,0.583333333 3.51388889,0.597222222 3.05092593,0.597222222 C2.58796296,0.597222222 2.23148148,0.583333333 1.97685185,0.560185185 L0.555555556,0.523148148 C0.5,0.523148148 0.476851852,0.597222222 0.476851852,0.75 C0.476851852,0.907407407 0.5,0.981481481 0.555555556,0.981481481 C1.88425926,0.981481481 2.93518519,1.49537037 3.7037037,2.51851852 L3.35648148,20.3472222 C3.33333333,21.6805556 3.08333333,22.6342593 2.61111111,23.212963 C2.13425926,23.787037 1.36111111,24.0740741 0.282407407,24.0740741 C0.231481481,24.0740741 0.208333333,24.1527778 0.208333333,24.3055556 C0.208333333,24.4583333 0.231481481,24.537037 0.282407407,24.537037 C0.949074074,24.537037 1.46296296,24.5231481 1.81944444,24.5 L3.81944444,24.4583333 L5.89351852,24.5 C6.27777778,24.5231481 6.8287037,24.537037 7.5462963,24.537037 C7.59722222,24.537037 7.625,24.4583333 7.625,24.3055556 C7.625,24.1527778 7.59722222,24.0740741 7.5462963,24.0740741 C6.31944444,24.0740741 5.45833333,23.7962963 4.97222222,23.2314815 C4.48611111,22.6666667 4.25462963,21.7083333 4.28240741,20.3472222 L4.625,4.1712963 L14.0787037,24.2685185 C14.1805556,24.3703704 14.2962963,24.4212963 14.4259259,24.4212963 C14.5787037,24.4212963 14.6805556,24.3703704 14.7314815,24.2685185 L23.4953704,3.93981481 L24.1851852,21.4259259 C24.2361111,22.1944444 24.1898148,22.7546296 24.0509259,23.1157407 C23.912037,23.4722222 23.6296296,23.7222222 23.2037037,23.8657407 C22.7824074,24.0046296 22.1342593,24.0740741 21.2638889,24.0740741 C21.212963,24.0740741 21.1898148,24.1527778 21.1898148,24.3055556 C21.1898148,24.4583333 21.212963,24.537037 21.2638889,24.537037 C22.0092593,24.537037 22.5833333,24.5231481 22.9953704,24.5 L25.4537037,24.4583333 L28.1064815,24.5 C28.5648148,24.5231481 29.1944444,24.537037 29.9861111,24.537037 C30.0648148,24.537037 30.1018519,24.4583333 30.1018519,24.3055556 Z M62.1481481,24.3055556 C62.1481481,24.1527778 62.125,24.0740741 62.0740741,24.0740741 C61.1018519,24.0740741 60.3842593,24.0138889 59.9212963,23.8842593 C59.4583333,23.7546296 59.1481481,23.5046296 58.9814815,23.1342593 C58.8148148,22.7638889 58.7314815,22.1944444 58.7314815,21.4259259 L58.7314815,3.63425926 C58.7314815,2.86574074 58.8148148,2.30092593 58.9814815,1.94444444 C59.1481481,1.58333333 59.4583333,1.33333333 59.9212963,1.19444444 C60.3842593,1.05092593 61.1018519,0.981481481 62.0740741,0.981481481 C62.125,0.981481481 62.1481481,0.907407407 62.1481481,0.75 C62.1481481,0.597222222 62.125,0.523148148 62.0740741,0.523148148 L60.1527778,0.560185185 C59.0231481,0.611111111 58.1388889,0.634259259 57.5,0.634259259 C56.7592593,0.634259259 55.8240741,0.611111111 54.6944444,0.560185185 L52.8518519,0.523148148 C52.8009259,0.523148148 52.7731481,0.597222222 52.7731481,0.75 C52.7731481,0.907407407 52.8009259,0.981481481 52.8518519,0.981481481 C53.8518519,0.981481481 54.5787037,1.06018519 55.0416667,1.21296296 C55.5046296,1.36574074 55.8148148,1.62962963 55.9814815,2 C56.1481481,2.37037037 56.2314815,2.93981481 56.2314815,3.70833333 L56.2314815,4.32407407 L41.9398148,19.5416667 L41.9398148,3.70833333 C41.9398148,2.93981481 42.0231481,2.37037037 42.1898148,2 C42.3564815,1.62962963 42.6759259,1.36574074 43.1481481,1.21296296 C43.6203704,1.06018519 44.3472222,0.981481481 45.3194444,0.981481481 C45.3703704,0.981481481 45.3981481,0.907407407 45.3981481,0.75 C45.3981481,0.597222222 45.3703704,0.523148148 45.3194444,0.523148148 L43.4768519,0.560185185 C42.3472222,0.611111111 41.412037,0.634259259 40.6712963,0.634259259 C40.0277778,0.634259259 39.1712963,0.611111111 38.0972222,0.560185185 L36.1342593,0.523148148 C36.0833333,0.523148148 36.0601852,0.597222222 36.0601852,0.75 C36.0601852,0.907407407 36.0833333,0.981481481 36.1342593,0.981481481 C37.1111111,0.981481481 37.8287037,1.05092593 38.287037,1.19444444 C38.75,1.33333333 39.0601852,1.58333333 39.2268519,1.94444444 C39.3935185,2.30092593 39.4768519,2.86574074 39.4768519,3.63425926 L39.4768519,21.4259259 C39.4768519,22.1944444 39.3935185,22.7638889 39.2268519,23.1342593 C39.0601852,23.5046296 38.7407407,23.7546296 38.2685185,23.8842593 C37.7962963,24.0138889 37.0694444,24.0740741 36.0972222,24.0740741 C36.0462963,24.0740741 36.0185185,24.1527778 36.0185185,24.3055556 C36.0185185,24.4583333 36.0462963,24.537037 36.0972222,24.537037 C36.9166667,24.537037 37.5555556,24.5231481 38.0185185,24.5 L40.6712963,24.4583333 L43.4351852,24.5 C43.8981481,24.5231481 44.5231481,24.537037 45.3194444,24.537037 C45.3703704,24.537037 45.3981481,24.4583333 45.3981481,24.3055556 C45.3981481,24.1527778 45.3703704,24.0740741 45.3194444,24.0740741 C44.3194444,24.0740741 43.5925926,24.0138889 43.1296296,23.8842593 C42.6666667,23.7546296 42.3564815,23.5046296 42.1898148,23.1342593 C42.0231481,22.7638889 41.9398148,22.1944444 41.9398148,21.4259259 L41.9398148,20.8472222 L56.2314815,5.55555556 L56.2314815,21.4259259 C56.2314815,22.1944444 56.1481481,22.7638889 55.9814815,23.1342593 C55.8148148,23.5046296 55.5046296,23.7546296 55.0416667,23.8842593 C54.5787037,24.0138889 53.8518519,24.0740741 52.8518519,24.0740741 C52.8009259,24.0740741 52.7731481,24.1527778 52.7731481,24.3055556 C52.7731481,24.4583333 52.8009259,24.537037 52.8518519,24.537037 C53.6203704,24.537037 54.2361111,24.5231481 54.6944444,24.5 L57.5,24.4583333 L60.1527778,24.5 C60.6111111,24.5231481 61.2546296,24.537037 62.0740741,24.537037 C62.125,24.537037 62.1481481,24.4583333 62.1481481,24.3055556 Z M75.0046296,23.0555556 C74.787037,22.6851852 74.6759259,22.0925926 74.6759259,21.2685185 L74.6759259,3.70833333 C74.6759259,2.83796296 74.7685185,2.21759259 74.9444444,1.84722222 C75.125,1.47685185 75.4212963,1.23611111 75.8287037,1.13425926 C76.2407407,1.03240741 76.9074074,0.981481481 77.8287037,0.981481481 C79.5462963,0.981481481 80.9537037,1.56481481 82.0555556,2.73148148 C83.1574074,3.89814815 83.7083333,5.49074074 83.7083333,7.51388889 C83.7083333,9.58796296 83.125,11.1759259 81.9583333,12.2777778 C80.7916667,13.3796296 79.3657407,13.9305556 77.6759259,13.9305556 C77.162037,13.9305556 76.6990741,13.8796296 76.2916667,13.7777778 C76.2407407,13.75 76.1944444,13.7777778 76.1574074,13.8564815 C76.1157407,13.9305556 76.0972222,14.0092593 76.0972222,14.0833333 C76.0972222,14.212963 76.1388889,14.2777778 76.212963,14.2777778 C76.6990741,14.4074074 77.3148148,14.4675926 78.0601852,14.4675926 C79.4398148,14.4675926 80.787037,14.1898148 82.0925926,13.625 C83.3981481,13.0601852 84.4675926,12.2037037 85.3009259,11.0509259 C86.1342593,9.89814815 86.5509259,8.47685185 86.5509259,6.78240741 C86.5509259,4.63425926 85.837963,3.03240741 84.4166667,1.98148148 C82.9953704,0.930555556 81.1064815,0.407407407 78.75,0.407407407 C78.2638889,0.407407407 77.6851852,0.425925926 77.0231481,0.462962963 C76.3564815,0.5 75.8657407,0.523148148 75.5601852,0.523148148 C74.7685185,0.597222222 74.0509259,0.634259259 73.4074074,0.634259259 C72.7685185,0.634259259 71.912037,0.611111111 70.8333333,0.560185185 L68.912037,0.523148148 C68.8611111,0.523148148 68.837963,0.597222222 68.837963,0.75 C68.837963,0.907407407 68.8611111,0.981481481 68.912037,0.981481481 C69.8842593,0.981481481 70.5972222,1.05092593 71.0462963,1.19444444 C71.4953704,1.33333333 71.7962963,1.58333333 71.9490741,1.94444444 C72.1018519,2.30092593 72.1805556,2.86574074 72.1805556,3.63425926 L72.1805556,21.4259259 C72.1805556,22.1944444 72.1018519,22.7638889 71.9490741,23.1342593 C71.7962963,23.5046296 71.4953704,23.7546296 71.0462963,23.8842593 C70.5972222,24.0138889 69.8842593,24.0740741 68.912037,24.0740741 C68.8611111,24.0740741 68.837963,24.1527778 68.837963,24.3055556 C68.837963,24.4583333 68.8611111,24.537037 68.912037,24.537037 C69.7314815,24.537037 70.3842593,24.5231481 70.8703704,24.5 L73.4490741,24.4583333 L76.7916667,24.5 C77.3796296,24.5231481 78.1990741,24.537037 79.25,24.537037 C79.3287037,24.537037 79.3657407,24.4583333 79.3657407,24.3055556 C79.3657407,24.1527778 79.3287037,24.0740741 79.25,24.0740741 C77.8935185,24.0740741 76.8981481,24 76.2731481,23.8472222 C75.6435185,23.6898148 75.2222222,23.4305556 75.0046296,23.0555556 Z M112.546296,23.0555556 C112.328704,22.6851852 112.217593,22.0925926 112.217593,21.2685185 L112.217593,3.70833333 C112.217593,2.83796296 112.310185,2.21759259 112.486111,1.84722222 C112.666667,1.47685185 112.962963,1.23611111 113.37037,1.13425926 C113.782407,1.03240741 114.449074,0.981481481 115.37037,0.981481481 C117.087963,0.981481481 118.49537,1.56481481 119.597222,2.73148148 C120.699074,3.89814815 121.25,5.49074074 121.25,7.51388889 C121.25,9.58796296 120.666667,11.1759259 119.5,12.2777778 C118.333333,13.3796296 116.907407,13.9305556 115.217593,13.9305556 C114.703704,13.9305556 114.240741,13.8796296 113.833333,13.7777778 C113.782407,13.75 113.736111,13.7777778 113.699074,13.8564815 C113.662037,13.9305556 113.638889,14.0092593 113.638889,14.0833333 C113.638889,14.212963 113.680556,14.2777778 113.75463,14.2777778 C114.240741,14.4074074 114.856481,14.4675926 115.601852,14.4675926 C116.986111,14.4675926 118.328704,14.1898148 119.634259,13.625 C120.939815,13.0601852 122.009259,12.2037037 122.842593,11.0509259 C123.675926,9.89814815 124.092593,8.47685185 124.092593,6.78240741 C124.092593,4.63425926 123.37963,3.03240741 121.958333,1.98148148 C120.537037,0.930555556 118.648148,0.407407407 116.291667,0.407407407 C115.805556,0.407407407 115.226852,0.425925926 114.564815,0.462962963 C113.898148,0.5 113.412037,0.523148148 113.101852,0.523148148 C112.310185,0.597222222 111.592593,0.634259259 110.949074,0.634259259 C110.310185,0.634259259 109.453704,0.611111111 108.375,0.560185185 L106.453704,0.523148148 C106.402778,0.523148148 106.37963,0.597222222 106.37963,0.75 C106.37963,0.907407407 106.402778,0.981481481 106.453704,0.981481481 C107.430556,0.981481481 108.138889,1.05092593 108.587963,1.19444444 C109.037037,1.33333333 109.337963,1.58333333 109.490741,1.94444444 C109.643519,2.30092593 109.722222,2.86574074 109.722222,3.63425926 L109.722222,21.4259259 C109.722222,22.1944444 109.643519,22.7638889 109.490741,23.1342593 C109.337963,23.5046296 109.037037,23.7546296 108.587963,23.8842593 C108.138889,24.0138889 107.430556,24.0740741 106.453704,24.0740741 C106.402778,24.0740741 106.37963,24.1527778 106.37963,24.3055556 C106.37963,24.4583333 106.402778,24.537037 106.453704,24.537037 C107.273148,24.537037 107.925926,24.5231481 108.416667,24.5 L110.990741,24.4583333 L114.333333,24.5 C114.921296,24.5231481 115.740741,24.537037 116.791667,24.537037 C116.87037,24.537037 116.907407,24.4583333 116.907407,24.3055556 C116.907407,24.1527778 116.87037,24.0740741 116.791667,24.0740741 C115.435185,24.0740741 114.439815,24 113.814815,23.8472222 C113.185185,23.6898148 112.763889,23.4305556 112.546296,23.0555556 Z M137.25463,23.3287037 C139.111111,24.4398148 141.231481,25 143.611111,25 C146.023148,25 148.25463,24.4351852 150.319444,23.3055556 C152.37963,22.1805556 154.027778,20.6435185 155.25463,18.6944444 C156.486111,16.75 157.101852,14.6111111 157.101852,12.2777778 C157.101852,10.1805556 156.606481,8.19444444 155.62037,6.32407407 C154.634259,4.4537037 153.217593,2.94907407 151.375,1.81018519 C149.532407,0.666666667 147.393519,0.0972222222 144.958333,0.0972222222 C142.782407,0.0972222222 140.648148,0.574074074 138.560185,1.51851852 C136.472222,2.46759259 134.763889,3.88425926 133.430556,5.76388889 C132.097222,7.64814815 131.430556,9.90740741 131.430556,12.5462963 C131.430556,14.8009259 131.939815,16.8842593 132.949074,18.7916667 C133.962963,20.6990741 135.398148,22.212963 137.25463,23.3287037 Z M149.666667,22.9212963 C148.268519,23.7685185 146.699074,24.1898148 144.958333,24.1898148 C142.907407,24.1898148 141.078704,23.6203704 139.462963,22.4814815 C137.847222,21.3425926 136.592593,19.7777778 135.699074,17.7916667 C134.800926,15.8101852 134.351852,13.6111111 134.351852,11.2037037 C134.351852,8.02777778 135.148148,5.52777778 136.736111,3.70833333 C138.324074,1.89351852 140.527778,0.981481481 143.342593,0.981481481 C145.523148,0.981481481 147.421296,1.50925926 149.050926,2.55555556 C150.675926,3.60648148 151.939815,5.06944444 152.833333,6.93981481 C153.731481,8.81018519 154.180556,10.9490741 154.180556,13.3564815 C154.180556,15.6111111 153.777778,17.5555556 152.967593,19.1944444 C152.162037,20.8333333 151.060185,22.0787037 149.666667,22.9212963 Z M178.217593,13.4722222 C177.101852,12.3703704 175.648148,11.7546296 173.856481,11.625 C175.162037,11.1666667 176.319444,10.3518519 177.333333,9.18518519 C178.342593,8.01851852 178.851852,6.73148148 178.851852,5.32407407 C178.851852,3.83796296 178.268519,2.59722222 177.101852,1.59722222 C175.935185,0.597222222 174.263889,0.0972222222 172.087963,0.0972222222 C170.268519,0.0972222222 168.37037,0.444444444 166.398148,1.13425926 C166.171296,1.21296296 166.027778,1.30092593 165.976852,1.40277778 C165.925926,1.50925926 165.875,1.71296296 165.824074,2.01851852 L165.287037,6.36111111 C165.287037,6.38888889 165.319444,6.4212963 165.37963,6.45833333 C165.444444,6.49537037 165.50463,6.51388889 165.555556,6.51388889 C165.657407,6.51388889 165.708333,6.49074074 165.708333,6.43981481 C166.222222,4.51851852 166.99537,3.06481481 168.032407,2.0787037 C169.069444,1.09259259 170.25463,0.597222222 171.587963,0.597222222 C172.99537,0.597222222 174.125,1.09722222 174.967593,2.09722222 C175.814815,3.09722222 176.236111,4.43981481 176.236111,6.12962963 C176.236111,7.81944444 175.731481,9.15277778 174.717593,10.1296296 C173.708333,11.1018519 172.203704,11.587963 170.203704,11.587963 C170.101852,11.587963 170.050926,11.6666667 170.050926,11.8194444 C170.050926,11.9722222 170.101852,12.0509259 170.203704,12.0509259 C172.407407,12.0509259 174.092593,12.5787037 175.25463,13.6435185 C176.421296,14.7083333 177.00463,16.2731481 177.00463,18.3518519 C177.00463,20.0648148 176.587963,21.5 175.75463,22.6527778 C174.925926,23.8055556 173.648148,24.3842593 171.935185,24.3842593 C170.37037,24.3842593 168.935185,23.8888889 167.62963,22.9027778 C166.324074,21.9166667 165.490741,20.3888889 165.12963,18.3101852 C165.106481,18.2361111 165.023148,18.2083333 164.87963,18.2361111 C164.740741,18.2592593 164.671296,18.3101852 164.671296,18.3888889 L165.12963,22.6527778 C165.157407,22.9351852 165.194444,23.1203704 165.24537,23.212963 C165.296296,23.3009259 165.439815,23.412037 165.671296,23.537037 C166.231481,24 167.018519,24.3564815 168.032407,24.6157407 C169.046296,24.8703704 170.074074,25 171.125,25 C172.740741,25 174.212963,24.6851852 175.546296,24.0555556 C176.875,23.4305556 177.935185,22.5601852 178.712963,21.4444444 C179.49537,20.3287037 179.888889,19.0694444 179.888889,17.6574074 C179.888889,15.9675926 179.328704,14.5740741 178.217593,13.4722222 Z" id="Shape"></path>
                </g>
            </g>
        </g>
    </g>
</svg>