<?xml version="1.0" encoding="UTF-8"?>
<svg width="20px" height="15px" viewBox="0 0 20 15" version="1.1" xmlns="http://www.w3.org/2000/svg" xmlns:xlink="http://www.w3.org/1999/xlink">
    <!-- Generator: Sketch 50.2 (55047) - http://www.bohemiancoding.com/sketch -->
    <title>tag (2)</title>
    <desc>Created with Sketch.</desc>
    <defs></defs>
    <g id="desktop" stroke="none" stroke-width="1" fill="none" fill-rule="evenodd">
        <g id="excursii_new" transform="translate(-1415.000000, -834.000000)" fill="#FF001F" fill-rule="nonzero">
            <g id="tag-(2)" transform="translate(1415.000000, 834.000000)">
                <path d="M5.17125984,14.5657087 C5.74606299,15.1405118 6.67913386,15.1405118 7.25393701,14.5657087 L14.3838583,7.4357874 C14.5885827,7.23106299 14.746063,6.9869685 14.8484252,6.72712598 C15.5649606,6.92791339 16.261811,7.0342126 16.8759843,7.03027559 C18.3956693,7.02240157 18.8996063,6.35704724 19.0649606,5.95940945 C19.230315,5.56570866 19.3484252,4.73893701 18.2814961,3.65232283 C18.269685,3.64051181 18.257874,3.62870079 18.246063,3.61688976 C17.5846457,2.95547244 16.6240157,2.34523622 15.5334646,1.89248031 C15.3326772,1.80980315 15.1318898,1.735 14.9350394,1.66413386 L14.9350394,1.65232283 C14.9232283,0.778307087 14.2185039,0.0735826772 13.3444882,0.0617716535 L9.07283465,0.00271653543 C8.50590551,-0.00515748031 7.96259843,0.215314961 7.56496063,0.616889764 L0.431102362,7.74681102 C-0.143700787,8.32161417 -0.143700787,9.25468504 0.431102362,9.82948819 L5.17125984,14.5657087 Z M10.6673228,2.55389764 C11.1437008,2.07751969 11.9153543,2.07751969 12.3917323,2.55389764 C12.6751969,2.8373622 12.7893701,3.22712598 12.734252,3.59326772 C13.2027559,3.92397638 13.761811,4.23106299 14.3602362,4.47909449 C14.5728346,4.56570866 14.7775591,4.64444882 14.9744094,4.71137795 L14.9507874,2.99484252 C14.9862205,3.01059055 15.0177165,3.02240157 15.0531496,3.03814961 C15.9862205,3.42791339 16.8248031,3.95547244 17.3641732,4.49484252 C17.3720472,4.50271654 17.3799213,4.51059055 17.3877953,4.51846457 C17.8996063,5.04208661 17.9547244,5.37673228 17.9114173,5.47909449 C17.7775591,5.79799213 16.3405512,6.08145669 14.1594488,5.17200787 C13.5216535,4.90429134 12.9232283,4.57358268 12.4389764,4.21531496 C12.4232283,4.235 12.4035433,4.25468504 12.3877953,4.27437008 C11.9114173,4.75074803 11.1397638,4.75074803 10.6633858,4.27437008 C10.1909449,3.80192913 10.1909449,3.03027559 10.6673228,2.55389764 Z" id="Shape"></path>
            </g>
        </g>
    </g>
</svg>