<?xml version="1.0" encoding="UTF-8"?>
<svg width="20px" height="19px" viewBox="0 0 20 19" version="1.1" xmlns="http://www.w3.org/2000/svg" xmlns:xlink="http://www.w3.org/1999/xlink">
    <!-- Generator: Sketch 52.6 (67491) - http://www.bohemiancoding.com/sketch -->
    <title>Action_icon</title>
    <desc>Created with Sketch.</desc>
    <g id="mobile" stroke="none" stroke-width="1" fill="none" fill-rule="evenodd">
        <g id="tehnostok_icons" transform="translate(-22.000000, -354.000000)" fill="#323232">
            <g id="Action_icon" transform="translate(21.692308, 353.692308)">
                <path d="M10.7461538,19.2923077 C10.3230769,19.2923077 9.9,19.1230769 9.56153846,18.7846154 L0.507692308,9.81538462 C0.423076923,9.73076923 0.338461538,9.56153846 0.338461538,9.39230769 L0.338461538,2.28461538 C0.338461538,1.43846154 1.01538462,0.676923077 1.94615385,0.676923077 L9.98461538,0.676923077 C10.1538462,0.676923077 10.3230769,0.761538462 10.4076923,0.846153846 L18.9538462,9.30769231 C19.2923077,9.64615385 19.4615385,9.98461538 19.4615385,10.4923077 C19.4615385,10.9153846 19.2923077,11.3384615 18.9538462,11.6769231 L11.8461538,18.7846154 C11.5923077,19.1230769 11.1692308,19.2923077 10.7461538,19.2923077 Z M1.69230769,9.13846154 L10.4923077,17.9384615 C10.6615385,18.1076923 10.8307692,18.1076923 11,17.9384615 L18.1076923,10.8307692 C18.1923077,10.7461538 18.1923077,10.6615385 18.1923077,10.5769231 C18.1923077,10.4923077 18.1923077,10.4076923 18.1076923,10.3230769 L9.73076923,2.03076923 L1.94615385,2.03076923 C1.77692308,2.03076923 1.60769231,2.2 1.60769231,2.36923077 L1.60769231,9.13846154 L1.69230769,9.13846154 Z" id="Shape" fill-rule="nonzero"></path>
                <circle id="Oval" cx="5.07692308" cy="5.41538462" r="1.01538462"></circle>
            </g>
        </g>
    </g>
</svg>