<?xml version="1.0" encoding="UTF-8"?>
<svg width="88px" height="55px" viewBox="0 0 88 55" version="1.1" xmlns="http://www.w3.org/2000/svg" xmlns:xlink="http://www.w3.org/1999/xlink">
    <!-- Generator: Sketch 50.2 (55047) - http://www.bohemiancoding.com/sketch -->
    <title>bike</title>
    <desc>Created with Sketch.</desc>
    <defs></defs>
    <g id="Desktop" stroke="none" stroke-width="1" fill="none" fill-rule="evenodd">
        <g id="lider_final_white" transform="translate(-377.000000, -703.000000)" fill="#FFED00" fill-rule="nonzero">
            <g id="bike" transform="translate(377.000000, 703.000000)">
                <path d="M31.7608935,29.1575601 C31.3647423,28.4822509 30.4958935,28.2565808 29.8207732,28.652354 C29.1456529,29.0486942 28.9194158,29.9169759 29.315567,30.5924742 C29.6947079,31.238299 30.0245189,31.9194674 30.2961168,32.616323 C30.5144158,33.1769072 31.0498625,33.5197595 31.6172509,33.5197595 C31.788299,33.5197595 31.9623711,33.4885739 32.1313402,33.4226117 C32.8608935,33.1385395 33.222079,32.3167526 32.9378179,31.5873883 C32.6117869,30.7502921 32.2158247,29.9328522 31.7608935,29.1575601 Z" id="Shape"></path>
                <path d="M32.1311512,42.1213058 C31.4014089,41.8368557 30.579811,42.1980412 30.2959278,42.9277835 C28.1531959,48.4291065 22.9527663,51.9840722 17.047354,51.9840722 C9.21070447,51.9840722 2.83505155,45.6086082 2.83505155,37.7719588 C2.83505155,29.9351203 9.21070447,23.5596564 17.047354,23.5596564 C18.4741409,23.5596564 19.8822165,23.7702062 21.232457,24.1856357 C21.9814777,24.4158419 22.7737801,23.9954983 23.0041753,23.2474227 C23.2341924,22.4989691 22.8142268,21.7059107 22.0659622,21.4757045 C20.4452577,20.9773024 18.75689,20.7246048 17.047354,20.7246048 C7.64745704,20.7244158 0,28.3718729 0,37.7719588 C0,47.1716667 7.64745704,54.8191237 17.047354,54.8191237 C20.5490206,54.8191237 23.9136598,53.7650515 26.7776289,51.7710653 C29.5750687,49.8231959 31.7049485,47.1210137 32.9374399,43.9565292 C33.221701,43.2271649 32.8605155,42.405378 32.1311512,42.1213058 Z" id="Shape"></path>
                <path d="M71.7814261,20.7501203 C71.004433,20.7109966 70.3313918,21.3067354 70.288866,22.0884536 C70.2463402,22.8701718 70.8452921,23.538488 71.6271993,23.5810137 C79.1548282,23.9917182 85.0515464,30.2250515 85.0515464,37.7719588 C85.0515464,45.6086082 78.6758935,51.9840722 70.839244,51.9840722 C63.0025945,51.9840722 56.6271306,45.6086082 56.6271306,37.7719588 C56.6271306,33.5023711 58.521512,29.4975773 61.8245361,26.783866 C62.4295361,26.2869759 62.5170447,25.3937457 62.0199656,24.7887457 C61.5232646,24.1839347 60.6298454,24.0966151 60.0248454,24.5933162 C56.0637113,27.8473883 53.79189,32.6509107 53.79189,37.7719588 C53.79189,47.1716667 61.4393471,54.8191237 70.839055,54.8191237 C80.2389519,54.8191237 87.8864089,47.1716667 87.8864089,37.7719588 C87.8865979,28.7196392 80.8123883,21.2428522 71.7814261,20.7501203 Z" id="Shape"></path>
                <path d="M69.4920275,38.2123368 C69.687457,38.8101546 70.2425601,39.1898625 70.839244,39.1898625 C70.9849656,39.1898625 71.1337113,39.1671821 71.279811,39.1193643 C72.0241065,38.8761168 72.4300859,38.0758763 72.1868385,37.3315808 L64.3989519,13.5037285 L64.3989519,3.01139175 C65.1375773,2.96262887 65.7219759,2.34969072 65.7219759,1.59859107 C65.7219759,0.815549828 65.0874914,0.181065292 64.3044502,0.181065292 L56.5040893,0.181065292 C53.4811684,0.181065292 51.0218557,2.64037801 51.0218557,5.66329897 C51.0218557,6.44634021 51.6563402,7.08082474 52.4393814,7.08082474 C53.2224227,7.08082474 53.8569072,6.44634021 53.8569072,5.66329897 C53.8569072,4.20362543 55.0444158,3.01611684 56.5040893,3.01611684 L61.5639003,3.01611684 L61.5639003,13.2360997 L44.3562715,34.9671478 L34.4156357,9.89168385 L40.2257904,9.89168385 C41.0088316,9.89168385 41.6433162,9.25719931 41.6433162,8.47415808 C41.6433162,7.69111684 41.0088316,7.0566323 40.2257904,7.0566323 L32.3641924,7.0566323 C32.3592784,7.0564433 32.3543643,7.0566323 32.3494502,7.0566323 L29.2834364,7.0566323 C28.5003952,7.0566323 27.8659107,7.69111684 27.8659107,8.47415808 C27.8659107,9.25719931 28.5003952,9.89168385 29.2834364,9.89168385 L31.3662543,9.89168385 L33.3541924,14.906323 L30.8115292,18.1157904 L27.2304811,15.3546392 C26.9825086,15.1633677 26.6782131,15.0596048 26.3650344,15.0596048 L9.23243986,15.0596048 C8.44939863,15.0596048 7.81491409,15.6940893 7.81491409,16.4771306 C7.81491409,17.2601718 8.44939863,17.8946564 9.23243986,17.8946564 L25.8817526,17.8946564 L29.0507732,20.3379038 L15.9362027,36.8915808 C15.5986426,37.3177835 15.5345704,37.8993471 15.7712027,38.388866 C16.0078351,38.8783849 16.5035911,39.1892955 17.047354,39.1892955 L43.9387629,39.1892955 C43.9404639,39.1892955 43.9419759,39.1896735 43.943677,39.1896735 C43.9941409,39.1896735 44.0447938,39.1860825 44.0954467,39.1806014 C44.1065979,39.1794674 44.1175601,39.1773883 44.1285223,39.1758763 C44.166134,39.1709622 44.2035567,39.1645361 44.2409794,39.1565979 C44.2570447,39.1531959 44.27311,39.1492268 44.2889863,39.1450687 C44.3201718,39.1371306 44.3513574,39.1280584 44.382354,39.1178522 C44.4006873,39.1118041 44.4190206,39.105756 44.4369759,39.0991409 C44.4464261,39.0955498 44.4560653,39.0930928 44.4655155,39.0893127 C44.4838488,39.0821306 44.5008591,39.0730584 44.5186254,39.0651203 C44.5382818,39.0564261 44.5579381,39.04811 44.5772165,39.0384708 C44.607646,39.0233505 44.6367526,39.0065292 44.6654811,38.9895189 C44.6792784,38.9813918 44.6932646,38.9740206 44.7068729,38.9653265 C44.7484536,38.938866 44.7885223,38.9105155 44.826512,38.8800859 C44.827268,38.8795189 44.8278351,38.8791409 44.8285911,38.8785739 C44.8694158,38.8458763 44.9081615,38.8110997 44.9448282,38.774433 C44.9503093,38.7689519 44.9550344,38.7629038 44.9605155,38.7574227 C44.99,38.7269931 45.0183505,38.6954296 45.044811,38.662543 C45.0480241,38.6585739 45.0516151,38.6553608 45.0546392,38.6513918 L62.4541065,16.6782302 L69.4920275,38.2123368 Z M19.9787973,36.354433 L34.5602234,17.9492784 L41.856701,36.354433 L19.9787973,36.354433 Z" id="Shape"></path>
            </g>
        </g>
    </g>
</svg>