<?xml version="1.0" encoding="UTF-8"?>
<svg width="66px" height="60px" viewBox="0 0 66 60" version="1.1" xmlns="http://www.w3.org/2000/svg" xmlns:xlink="http://www.w3.org/1999/xlink">
    <!-- Generator: Sketch 50.2 (55047) - http://www.bohemiancoding.com/sketch -->
    <title>drill</title>
    <desc>Created with Sketch.</desc>
    <defs></defs>
    <g id="Desktop" stroke="none" stroke-width="1" fill="none" fill-rule="evenodd">
        <g id="lider_final_white" transform="translate(-1470.000000, -257.000000)" fill="#FFED00" fill-rule="nonzero">
            <g id="drill" transform="translate(1470.000000, 257.000000)">
                <path d="M64.1451316,10.5264474 L58.6538158,10.5264474 C58.2409211,9.30407895 57.0840789,8.42118421 55.7240789,8.42118421 L50.3951316,8.42118421 L50.3951316,6.25013158 C50.3951316,4.54513158 49.0080263,3.15802632 47.3030263,3.15802632 L38.8161842,3.15802632 L38.8161842,3.09223684 C38.8161842,1.38723684 37.4290789,0.000131578947 35.7240789,0.000131578947 L11.5135526,0.000131578947 C8.34328947,0.000131578947 5.28105263,1.32723684 3.11210526,3.64118421 C0.912763158,5.9875 -0.183552632,9.05460526 0.0251315789,12.2776316 C0.415263158,18.3051316 5.62,23.0264474 11.8740789,23.0264474 L13.3305263,23.0264474 C14.3480263,23.0264474 15.2842105,23.4913158 15.8990789,24.3019737 C16.5139474,25.1126316 16.7092105,26.1394737 16.4348684,27.1193421 L11.5051316,44.7255263 C11.2428947,45.6619737 10.3806579,46.3159211 9.40828947,46.3159211 C8.86328947,46.3159211 8.42144737,46.7577632 8.42144737,47.3027632 L8.42144737,57.8290789 C8.42144737,58.9536842 9.33631579,59.8685526 10.4609211,59.8685526 L27.3030263,59.8685526 C28.4276316,59.8685526 29.3425,58.9536842 29.3425,57.8290789 L29.3425,48.3553947 C29.3425,47.2307895 28.4276316,46.3159211 27.3030263,46.3159211 L26.1628947,46.3159211 C25.8098684,46.3159211 25.4851316,46.1546053 25.2718421,45.8734211 C25.0585526,45.5922368 24.9907895,45.2359211 25.0859211,44.8959211 L29.4409211,29.3422368 L33.6186842,29.3422368 C33.9517105,29.3422368 34.2623684,29.1743421 34.4446053,28.8955263 C34.6268421,28.6168421 34.6563158,28.265 34.5227632,27.9598684 C34.5127632,27.9371053 33.6098684,25.8143421 34.3482895,23.0264474 L35.7239474,23.0264474 C37.4289474,23.0264474 38.8160526,21.6393421 38.8160526,19.9343421 L38.8160526,19.8685526 L47.3028947,19.8685526 C49.0078947,19.8685526 50.395,18.4814474 50.395,16.7764474 L50.395,14.6053947 L55.7239474,14.6053947 C57.0839474,14.6053947 58.2407895,13.7225 58.6536842,12.5001316 L64.145,12.5001316 C64.69,12.5001316 65.1318421,12.0582895 65.1318421,11.5132895 C65.1318421,10.9682895 64.6901316,10.5264474 64.1451316,10.5264474 Z M32.3042105,27.3685526 L29.9935526,27.3685526 L31.2093421,23.0264474 L32.3194737,23.0264474 C31.9409211,24.8027632 32.0886842,26.3365789 32.3042105,27.3685526 Z M36.8425,19.9343421 C36.8425,20.5510526 36.3407895,21.0527632 35.7240789,21.0527632 L30.4609211,21.0527632 C30.0184211,21.0527632 29.63,21.3473684 29.5106579,21.7735526 L23.1853947,44.3638158 C22.9222368,45.3035526 23.1094737,46.2885526 23.6993421,47.0661842 C24.2890789,47.8436842 25.1871053,48.2897368 26.1630263,48.2897368 L27.3031579,48.2897368 C27.3394737,48.2897368 27.3689474,48.3193421 27.3689474,48.3555263 L27.3689474,57.8292105 C27.3689474,57.8653947 27.3394737,57.895 27.3031579,57.895 L10.4610526,57.895 C10.4247368,57.895 10.3952632,57.8653947 10.3952632,57.8292105 L10.3952632,48.2897368 L20.9873684,48.2897368 C21.5323684,48.2897368 21.9742105,47.8478947 21.9742105,47.3028947 C21.9742105,46.7578947 21.5323684,46.3160526 20.9873684,46.3160526 L12.9396053,46.3160526 C13.1403947,45.9919737 13.2993421,45.6373684 13.4056579,45.2578947 L18.3353947,27.6517105 C18.7776316,26.0721053 18.4628947,24.4165789 17.4715789,23.1094737 C17.45,23.0810526 17.4269737,23.0544737 17.4048684,23.0265789 L26.2503947,23.0265789 C26.7953947,23.0265789 27.2372368,22.5847368 27.2372368,22.0397368 C27.2372368,21.4947368 26.7953947,21.0528947 26.2503947,21.0528947 L13.6188158,21.0528947 C13.5842105,21.0528947 13.5501316,21.0547368 13.5164474,21.0582895 C13.4546053,21.0560526 13.3928947,21.0528947 13.3305263,21.0528947 L11.8740789,21.0528947 C6.6575,21.0528947 2.31789474,17.1423684 1.99473684,12.1502632 C1.82171053,9.4775 2.72986842,6.935 4.55210526,4.99105263 C6.37578947,3.04552632 8.84802632,1.97394737 11.5135526,1.97394737 L35.7240789,1.97394737 C36.3407895,1.97394737 36.8425,2.47565789 36.8425,3.09236842 L36.8425,19.9343421 Z M48.4214474,16.7764474 C48.4214474,17.3931579 47.9197368,17.8948684 47.3030263,17.8948684 L47.2372368,17.8948684 L47.2372368,9.40802632 C47.2372368,8.86302632 46.7953947,8.42118421 46.2503947,8.42118421 C45.7053947,8.42118421 45.2635526,8.86302632 45.2635526,9.40802632 L45.2635526,17.8948684 L38.8161842,17.8948684 L38.8161842,5.13171053 L45.2635526,5.13171053 L45.2635526,6.25013158 C45.2635526,6.79513158 45.7053947,7.23697368 46.2503947,7.23697368 C46.7953947,7.23697368 47.2372368,6.79513158 47.2372368,6.25013158 L47.2372368,5.13171053 L47.3030263,5.13171053 C47.9197368,5.13171053 48.4214474,5.63342105 48.4214474,6.25013158 L48.4214474,16.7764474 Z M55.7240789,12.6317105 L50.3951316,12.6317105 L50.3951316,10.3948684 L55.7240789,10.3948684 C56.3407895,10.3948684 56.8425,10.8965789 56.8425,11.5132895 C56.8425,12.13 56.3407895,12.6317105 55.7240789,12.6317105 Z" id="Shape"></path>
                <path d="M15.7240789,10.5264474 L6.25039474,10.5264474 C5.70539474,10.5264474 5.26355263,10.9682895 5.26355263,11.5132895 C5.26355263,12.0582895 5.70539474,12.5001316 6.25039474,12.5001316 L15.7240789,12.5001316 C16.2690789,12.5001316 16.7109211,12.0582895 16.7109211,11.5132895 C16.7109211,10.9682895 16.2690789,10.5264474 15.7240789,10.5264474 Z" id="Shape"></path>
                <path d="M8.35565789,9.34223684 L13.6188158,9.34223684 C14.1638158,9.34223684 14.6056579,8.90039474 14.6056579,8.35539474 C14.6056579,7.81039474 14.1638158,7.36855263 13.6188158,7.36855263 L8.35565789,7.36855263 C7.81065789,7.36855263 7.36881579,7.81039474 7.36881579,8.35539474 C7.36881579,8.90039474 7.81052632,9.34223684 8.35565789,9.34223684 Z" id="Shape"></path>
                <path d="M13.6188158,13.6843421 L8.35565789,13.6843421 C7.81065789,13.6843421 7.36881579,14.1261842 7.36881579,14.6711842 C7.36881579,15.2161842 7.81065789,15.6580263 8.35565789,15.6580263 L13.6188158,15.6580263 C14.1638158,15.6580263 14.6056579,15.2161842 14.6056579,14.6711842 C14.6056579,14.1261842 14.1638158,13.6843421 13.6188158,13.6843421 Z" id="Shape"></path>
            </g>
        </g>
    </g>
</svg>