<?xml version="1.0" encoding="UTF-8"?>
<svg width="63px" height="60px" viewBox="0 0 63 60" version="1.1" xmlns="http://www.w3.org/2000/svg" xmlns:xlink="http://www.w3.org/1999/xlink">
    <!-- Generator: Sketch 50.2 (55047) - http://www.bohemiancoding.com/sketch -->
    <title>headphones</title>
    <desc>Created with Sketch.</desc>
    <defs></defs>
    <g id="Desktop" stroke="none" stroke-width="1" fill="none" fill-rule="evenodd">
        <g id="lider_final_white" transform="translate(-1251.000000, -257.000000)" fill="#FFED00" fill-rule="nonzero">
            <g id="headphones" transform="translate(1251.000000, 257.000000)">
                <path d="M52.2755756,35.8011738 C51.8303837,32.7238375 49.176298,30.3516027 45.9776072,30.3516027 C42.4680813,30.3516027 39.6128668,33.2068172 39.6128668,36.7163431 L39.6128668,53.6310609 C39.6128668,57.1404515 42.4680813,59.9956659 45.9776072,59.9956659 C49.176298,59.9956659 51.8303837,57.6234312 52.2755756,54.5462302 C54.3220767,54.108623 55.8616253,52.2868172 55.8616253,50.1116479 L55.8616253,40.2357562 C55.8616253,38.0605869 54.3220767,36.238781 52.2755756,35.8011738 Z M53.8300226,50.1115124 C53.8300226,51.130158 53.2175621,52.0071332 52.3423476,52.3977427 L52.3423476,43.4883521 C52.3423476,42.9272235 51.8876749,42.4725508 51.3265463,42.4725508 C50.7654176,42.4725508 50.3107449,42.9272235 50.3107449,43.4883521 L50.3107449,53.6310609 C50.3107449,56.0203612 48.366772,57.9640632 45.9776072,57.9640632 C43.5884424,57.9640632 41.6444695,56.0202257 41.6444695,53.6310609 L41.6444695,36.7163431 C41.6444695,34.3270429 43.5884424,32.3832054 45.9776072,32.3832054 C48.366772,32.3832054 50.3107449,34.3271783 50.3107449,36.7163431 L50.3107449,39.4251467 C50.3107449,39.9862754 50.7654176,40.4409481 51.3265463,40.4409481 C51.8876749,40.4409481 52.3423476,39.9862754 52.3423476,39.4251467 L52.3423476,37.949526 C53.2175621,38.34 53.8300226,39.2168397 53.8300226,40.2356208 L53.8300226,50.1115124 Z" id="Shape"></path>
                <path d="M17.0020767,30.3516027 C13.803386,30.3516027 11.1491648,32.7239729 10.7041084,35.8011738 C8.65760722,36.238781 7.11805869,38.0605869 7.11805869,40.2356208 L7.11805869,50.1115124 C7.11805869,52.2868172 8.65760722,54.1084876 10.7041084,54.5460948 C11.1493002,57.6234312 13.803386,59.9955305 17.0020767,59.9955305 C20.5116027,59.9955305 23.3668172,57.140316 23.3668172,53.6309255 L23.3668172,36.7163431 C23.3668172,33.2068172 20.5116027,30.3516027 17.0020767,30.3516027 Z M21.3352144,53.6310609 C21.3352144,56.0203612 19.3912415,57.9640632 17.0020767,57.9640632 C14.612912,57.9640632 12.6689391,56.0202257 12.6689391,53.6310609 L12.6689391,43.4883521 C12.6689391,42.9272235 12.2142664,42.4725508 11.6531377,42.4725508 C11.092009,42.4725508 10.6373363,42.9272235 10.6373363,43.4883521 L10.6373363,52.3977427 C9.7621219,52.0071332 9.1496614,51.1302935 9.1496614,50.1115124 L9.1496614,40.2356208 C9.1496614,39.2169752 9.7621219,38.34 10.6373363,37.949526 L10.6373363,39.4251467 C10.6373363,39.9862754 11.092009,40.4409481 11.6531377,40.4409481 C12.2142664,40.4409481 12.6689391,39.9862754 12.6689391,39.4251467 L12.6689391,36.7163431 C12.6689391,34.3270429 14.612912,32.3832054 17.0020767,32.3832054 C19.3912415,32.3832054 21.3352144,34.3271783 21.3352144,36.7163431 L21.3352144,53.6310609 Z" id="Shape"></path>
                <path d="M53.756614,9.22740406 C47.8087585,3.27981941 39.9010835,0.00433408578 31.489842,0.00433408578 C23.0786005,0.00433408578 15.1709255,3.27981941 9.22306998,9.22740406 C3.27548533,15.1749887 0,23.0829345 0,31.4941761 C0,32.0553047 0.454672686,32.5099774 1.01580135,32.5099774 L1.71643341,32.5099774 C2.27756208,32.5099774 2.73223476,32.0553047 2.73223476,31.4941761 C2.73223476,31.0488488 2.44564334,30.6704289 2.04677201,30.5333634 C2.28595937,23.0249661 5.3227991,16.0006321 10.659684,10.6640181 C16.2235666,5.10013544 23.6213093,2.03593679 31.489842,2.03593679 C39.3583747,2.03593679 46.7561174,5.10013544 52.32,10.6640181 C57.6567494,16.0006321 60.6937246,23.0251016 60.932912,30.5333634 C60.5341761,30.6705643 60.2475847,31.0488488 60.2475847,31.4941761 C60.2475847,32.0553047 60.7022573,32.5099774 61.263386,32.5099774 L61.9638826,32.5099774 C62.5250113,32.5099774 62.979684,32.0553047 62.979684,31.4941761 C62.979684,23.0829345 59.7041986,15.1749887 53.756614,9.22740406 Z" id="Shape"></path>
                <path d="M31.489842,3.41363431 C16.0063205,3.41363431 3.40943567,16.0105192 3.40943567,31.4941761 C3.40943567,33.6651467 3.65837472,35.8270429 4.14948081,37.922167 L4.14948081,45.1736343 C4.14948081,45.734763 4.6041535,46.1894357 5.16528217,46.1894357 C5.72641084,46.1894357 6.18108352,45.734763 6.18108352,45.1736343 L6.18108352,37.8035214 C6.18108352,37.7240181 6.17173815,37.6446501 6.15331828,37.5674492 C5.68076749,35.590158 5.44103837,33.5469074 5.44103837,31.4941761 C5.44103837,17.1307449 17.1264108,5.44523702 31.489842,5.44523702 C45.8532731,5.44523702 57.5386456,17.1307449 57.5386456,31.4941761 C57.5386456,33.5469074 57.2989165,35.590158 56.8263657,37.5674492 C56.8079458,37.6446501 56.7986005,37.7240181 56.7986005,37.8035214 L56.7986005,45.1736343 C56.7986005,45.734763 57.2532731,46.1894357 57.8144018,46.1894357 C58.3755305,46.1894357 58.8302032,45.734763 58.8302032,45.1736343 L58.8302032,37.922167 C59.3213093,35.8270429 59.5702483,33.6651467 59.5702483,31.4941761 C59.5702483,16.0105192 46.9733634,3.41363431 31.489842,3.41363431 Z" id="Shape"></path>
            </g>
        </g>
    </g>
</svg>