<?xml version="1.0" encoding="UTF-8"?>
<svg width="18px" height="17px" viewBox="0 0 18 17" version="1.1" xmlns="http://www.w3.org/2000/svg" xmlns:xlink="http://www.w3.org/1999/xlink">
    <!-- Generator: Sketch 52.6 (67491) - http://www.bohemiancoding.com/sketch -->
    <title>home_icon</title>
    <desc>Created with Sketch.</desc>
    <g id="mobile" stroke="none" stroke-width="1" fill="none" fill-rule="evenodd">
        <g id="tehnostok_icons" transform="translate(-22.000000, -118.000000)" fill="#323232" fill-rule="nonzero">
            <g id="home_icon" transform="translate(22.538462, 118.000000)">
                <path d="M17.0076923,7.36153846 L15.2307692,5.83846154 L15.2307692,1.1 C15.0615385,0.761538462 14.7230769,0.592307692 14.3846154,0.676923077 C14.2153846,0.761538462 14.0461538,0.930769231 13.9615385,1.1 L13.9615385,4.65384615 L9.73076923,0.930769231 C9.05384615,0.338461538 8.12307692,0.338461538 7.44615385,0.930769231 L0.169230769,7.44615385 C-9.28979116e-14,7.78461538 0.169230769,8.20769231 0.507692308,8.37692308 C0.676923077,8.46153846 0.846153846,8.46153846 1.01538462,8.37692308 L1.94615385,7.53076923 L1.94615385,15.0615385 C1.94615385,15.9923077 2.70769231,16.7538462 3.63846154,16.7538462 L13.5384615,16.7538462 C14.4692308,16.7538462 15.2307692,15.9923077 15.2307692,15.0615385 L15.2307692,7.53076923 L16.1615385,8.37692308 L16.5846154,8.54615385 L17.0923077,8.29230769 C17.3461538,8.03846154 17.3461538,7.7 17.0923077,7.44615385 C17.0923077,7.44615385 17.0076923,7.36153846 17.0076923,7.36153846 Z M13.9615385,14.9769231 C13.9615385,15.2307692 13.7923077,15.4 13.5384615,15.4 L3.72307692,15.4 C3.46923077,15.4 3.3,15.2307692 3.3,14.9769231 L3.3,6.34615385 L8.37692308,1.86153846 C8.54615385,1.69230769 8.8,1.69230769 8.96923077,1.86153846 L14.0461538,6.34615385 L13.9615385,14.9769231 Z" id="Shape"></path>
            </g>
        </g>
    </g>
</svg>