<?xml version="1.0" encoding="UTF-8"?>
<svg width="67px" height="60px" viewBox="0 0 67 60" version="1.1" xmlns="http://www.w3.org/2000/svg" xmlns:xlink="http://www.w3.org/1999/xlink">
    <!-- Generator: Sketch 50.2 (55047) - http://www.bohemiancoding.com/sketch -->
    <title>devices</title>
    <desc>Created with Sketch.</desc>
    <defs></defs>
    <g id="Desktop" stroke="none" stroke-width="1" fill="none" fill-rule="evenodd">
        <g id="lider_final_white" transform="translate(-603.000000, -257.000000)" fill="#FFED00" fill-rule="nonzero">
            <g id="devices" transform="translate(603.000000, 257.000000)">
                <path d="M64.0019417,20.906297 L64.0019417,4.70413165 C64.0019417,2.1103055 61.8917476,0 59.2980583,0 L4.7038835,0 C2.11004854,0 0,2.1103055 0,4.70413165 L0,37.7102417 C0,40.3040679 2.11019417,42.4143734 4.7038835,42.4143734 L20.176165,42.4143734 L18.405,44.3207846 L15.7514563,44.3207846 C15.1482524,44.3207846 14.6592233,44.8098395 14.6592233,45.4130752 C14.6592233,46.016311 15.1482524,46.5053659 15.7514563,46.5053659 L30.9496602,46.5053659 L30.9496602,57.0399993 C30.9496602,58.5617786 32.1876699,59.7999992 33.7095146,59.7999992 L45.4513107,59.7999992 C46.9730097,59.7999992 48.211165,58.5619242 48.211165,57.0399993 L48.211165,54.8213385 L62.911165,54.8213385 C64.9741748,54.8213385 66.6524272,53.1422694 66.6524272,51.0784227 L66.6524272,24.4862432 C66.6524272,22.8022223 65.5348544,21.3748169 64.0019417,20.906297 Z M64.4679612,24.4862432 L64.4679612,24.784657 L39.3480583,24.784657 L39.3480583,24.4862432 C39.3480583,23.6269745 40.0470874,22.9279085 40.9063107,22.9279085 L62.911165,22.9279085 C63.7696602,22.9280542 64.4679612,23.6271202 64.4679612,24.4862432 Z M45.4513107,33.714497 L39.3480583,33.714497 L39.3480583,26.9692382 L64.4679612,26.9692382 L64.4679612,48.595282 L48.211165,48.595282 L48.211165,36.4743513 C48.211165,34.952572 46.9730097,33.714497 45.4513107,33.714497 Z M46.026699,37.9102037 L33.1342718,37.9102037 L33.1342718,36.4744969 C33.1342718,36.1572957 33.3923301,35.8990782 33.7096602,35.8990782 L45.4514563,35.8990782 C45.7686408,35.8990782 46.0268447,36.1571501 46.0268447,36.4744969 L46.0268447,37.9102037 L46.026699,37.9102037 Z M61.8173301,5.79642228 L61.8173301,20.7433273 L40.906165,20.7433273 C38.8424272,20.7433273 37.1634466,22.4223964 37.1634466,24.4862432 L37.1634466,33.714497 L33.7093689,33.714497 C32.188835,33.714497 30.951699,34.9506787 30.9498058,36.470856 L2.18432039,36.470856 L2.18432039,5.79642228 L61.8173301,5.79642228 Z M33.1339806,40.094785 L46.0264078,40.094785 L46.0264078,53.4200025 L33.1339806,53.4200025 L33.1339806,40.094785 Z M4.70373786,2.18458126 L59.2979126,2.18458126 C60.2954854,2.18458126 61.1568932,2.76888393 61.5646602,3.61184102 L2.43684466,3.61184102 C2.84475728,2.76888393 3.70616505,2.18458126 4.70373786,2.18458126 Z M2.37,38.6555829 L30.9496602,38.6555829 L30.9496602,40.2299377 L4.70373786,40.2299377 C3.64893204,40.2297921 2.74470874,39.5774761 2.37,38.6555829 Z M21.3867961,44.3207846 L23.1579612,42.4143734 L30.9496602,42.4143734 L30.9496602,44.3207846 L21.3867961,44.3207846 Z M45.451165,57.6155636 L33.7093689,57.6155636 C33.3921845,57.6155636 33.1339806,57.3574917 33.1339806,57.0401449 L33.1339806,55.6045837 L46.0264078,55.6045837 L46.0264078,57.0401449 C46.0265534,57.3573461 45.7683495,57.6155636 45.451165,57.6155636 Z M62.9110194,52.6369029 L48.2110194,52.6369029 L48.2110194,50.7800089 L64.4678155,50.7800089 L64.4678155,51.0785683 C64.4678155,51.9376913 63.7695146,52.6369029 62.9110194,52.6369029 Z" id="Shape"></path>
            </g>
        </g>
    </g>
</svg>