<?xml version="1.0" encoding="utf-8"?>
<!-- Generator: Adobe Illustrator 21.0.0, SVG Export Plug-In . SVG Version: 6.00 Build 0)  -->
<svg version="1.1" id="Layer_1" xmlns="http://www.w3.org/2000/svg" xmlns:xlink="http://www.w3.org/1999/xlink" x="0px" y="0px"
	 viewBox="0 0 50 50" style="enable-background:new 0 0 50 50;" xml:space="preserve">
<style type="text/css">
	.st0{fill:#2E3B8B;}
</style>
<g>
	<path class="st0" d="M48.2,46.2l-4.3-6H23.5c-1.2,0-2.2-0.8-2.4-1.9l-3.9-17c-0.4-1.6,0.8-3,2.4-3h27.9c1.4,0,2.6,1.2,2.5,2.7
		L48.2,46.2z"/>
	<path class="st0" d="M15.3,21.7c-0.3-1.3,0-2.7,0.8-3.7c0.8-1.1,2.1-1.7,3.4-1.7h11.5l1.8-7.6c0.4-1.6-0.8-3-2.4-3H2.5
		C1,5.6-0.1,6.9,0,8.3l1.7,25.3l4.3-6h10.5L15.3,21.7z"/>
</g>
</svg>
