<?xml version="1.0" encoding="UTF-8"?>
<svg width="18px" height="15px" viewBox="0 0 18 15" version="1.1" xmlns="http://www.w3.org/2000/svg" xmlns:xlink="http://www.w3.org/1999/xlink">
    <!-- Generator: Sketch 52.6 (67491) - http://www.bohemiancoding.com/sketch -->
    <title>Shape</title>
    <desc>Created with Sketch.</desc>
    <g id="mobile" stroke="none" stroke-width="1" fill="none" fill-rule="evenodd">
        <g id="tehnostok_icons2" transform="translate(-64.000000, -333.000000)" fill="#1F30A7" fill-rule="nonzero">
            <path d="M79.7530079,333.2125 L65.6361863,333.2125 C64.8336797,333.2125 64.1770833,333.869096 64.1770833,334.671603 L64.1770833,343.243833 C64.1770833,344.04634 64.8336797,344.702936 65.6361863,344.702936 L75.4121764,344.702936 L79.7894854,347.65762 L78.6951582,344.702936 L79.7165303,344.702936 C80.5190369,344.702936 81.1756333,344.04634 81.1756333,343.243833 L81.1756333,334.671603 C81.2121109,333.869096 80.5555145,333.2125 79.7530079,333.2125 Z M69.4298541,341.055179 C68.8097354,341.055179 68.2990493,340.544493 68.2990493,339.924374 C68.2990493,339.304255 68.8097354,338.793569 69.4298541,338.793569 C70.0499729,338.793569 70.560659,339.304255 70.560659,339.924374 C70.560659,340.544493 70.0499729,341.055179 69.4298541,341.055179 Z M72.7128359,341.055179 C72.0927171,341.055179 71.5820311,340.544493 71.5820311,339.924374 C71.5820311,339.304255 72.0927171,338.793569 72.7128359,338.793569 C73.3329547,338.793569 73.8436407,339.304255 73.8436407,339.924374 C73.8436407,340.544493 73.3329547,341.055179 72.7128359,341.055179 Z M75.9958176,341.055179 C75.3756989,341.055179 74.8650128,340.544493 74.8650128,339.924374 C74.8650128,339.304255 75.3756989,338.793569 75.9958176,338.793569 C76.6159364,338.793569 77.1266225,339.304255 77.1266225,339.924374 C77.1266225,340.544493 76.6159364,341.055179 75.9958176,341.055179 Z" id="Shape"></path>
        </g>
    </g>
</svg>