<?xml version="1.0" encoding="UTF-8"?>
<svg width="40px" height="60px" viewBox="0 0 40 60" version="1.1" xmlns="http://www.w3.org/2000/svg" xmlns:xlink="http://www.w3.org/1999/xlink">
    <!-- Generator: Sketch 50.2 (55047) - http://www.bohemiancoding.com/sketch -->
    <title>microscope</title>
    <desc>Created with Sketch.</desc>
    <defs></defs>
    <g id="Desktop" stroke="none" stroke-width="1" fill="none" fill-rule="evenodd">
        <g id="lider_final_white" transform="translate(-1053.000000, -700.000000)" fill="#FFED00" fill-rule="nonzero">
            <g id="microscope" transform="translate(1053.000000, 700.000000)">
                <path d="M17.7021145,48.4855507 L20.025859,48.4855507 C30.8869163,48.4855507 39.7229075,39.6502203 39.7229075,28.7899559 C39.7229075,24.5517621 38.391674,20.5110132 35.8728634,17.1048899 C33.4589868,13.8403084 30.171674,11.4396476 26.355859,10.143304 C26.0622026,9.83814978 25.7255947,9.57502203 25.3554185,9.36356828 L27.5102643,3.41511013 L18.0770485,0 L6.07903084,33.1287225 L8.42801762,33.9796916 L7.08528634,37.6863436 L11.8161674,39.3997797 L13.1590308,35.6933921 L15.5121145,36.545815 L22.3864758,17.5624229 C22.6406167,17.6080176 22.9017621,17.6331278 23.1687225,17.6331278 C23.784185,17.6331278 24.3705727,17.5065198 24.9037004,17.2784141 C27.0670044,18.196652 28.919207,19.6970485 30.2787225,21.6392511 C31.7524229,23.7446696 32.5313656,26.2173568 32.5313656,28.7899559 C32.5313656,35.6845374 26.9214978,41.2938767 20.025859,41.2938767 L0.0937004405,41.2938767 L0.0937004405,48.4855507 L11.127489,48.4855507 L11.127489,52.5679295 L0.0933039648,52.5679295 L0.0933039648,59.904185 L38.7964758,59.904185 L38.7964758,52.5679295 L17.7021145,52.5679295 L17.7021145,48.4855507 Z M10.627533,36.8608811 L9.62444934,36.4975771 L10.2919824,34.6548899 L11.2950661,35.018326 L10.627533,36.8608811 Z M14.3230837,34.006652 L8.61779736,31.9399559 L19.265815,2.53876652 L24.9709692,4.60427313 L23.4533921,8.79330396 C23.359163,8.78722467 23.2644053,8.78312775 23.1685903,8.78312775 C20.7286784,8.78312775 18.7436564,10.7681498 18.7436564,13.2080617 C18.7436564,14.6737004 19.4604846,15.9744053 20.5613656,16.7801762 L14.3230837,34.006652 Z M20.7261674,13.2081938 C20.7261674,11.8613656 21.8218943,10.7656388 23.1687225,10.7656388 C24.5155507,10.7656388 25.6112775,11.8613656 25.6112775,13.2081938 C25.6112775,14.555022 24.5155507,15.6507489 23.1687225,15.6507489 C21.8218943,15.6507489 20.7261674,14.555022 20.7261674,13.2081938 Z M2.0760793,46.5031718 L2.0760793,43.2762555 L20.0257269,43.2762555 C28.0143172,43.2762555 34.5136123,36.7777533 34.5136123,28.7899559 C34.5136123,25.8084581 33.6107048,22.9425991 31.9026872,20.5024229 C30.5396035,18.5551982 28.7479295,16.9912335 26.6643172,15.9162555 C27.2459471,15.1671806 27.5935242,14.2277974 27.5935242,13.2080617 C27.5935242,13.0592511 27.585859,12.9122907 27.5714537,12.7671806 C30.2162115,14.0117181 32.5082379,15.889163 34.2787665,18.2834802 C36.5434361,21.3459912 37.7402643,24.9790308 37.7402643,28.7898238 C37.7402643,38.5568722 29.7934361,46.5030396 20.0255947,46.5030396 L2.0760793,46.5031718 Z M13.11,48.4855507 L15.7197357,48.4855507 L15.7197357,52.5679295 L13.11,52.5679295 L13.11,48.4855507 Z M36.8140969,57.9218062 L2.07568282,57.9218062 L2.07568282,54.5503084 L36.8140969,54.5503084 L36.8140969,57.9218062 Z" id="Shape"></path>
            </g>
        </g>
    </g>
</svg>