<?xml version="1.0" encoding="UTF-8"?>
<svg width="22px" height="26px" viewBox="0 0 22 26" version="1.1" xmlns="http://www.w3.org/2000/svg" xmlns:xlink="http://www.w3.org/1999/xlink">
    <!-- Generator: Sketch 52.6 (67491) - http://www.bohemiancoding.com/sketch -->
    <title>Money_icon</title>
    <desc>Created with Sketch.</desc>
    <g id="mobile" stroke="none" stroke-width="1" fill="none" fill-rule="evenodd">
        <g id="tehnostok_icons" transform="translate(-20.000000, -396.000000)" fill="#323232">
            <g id="Money_icon" transform="translate(20.000000, 396.384615)">
                <path d="M20.4769231,14.3 C19.8,12.7769231 18.9538462,11.4230769 17.8538462,10.0692308 C16.5,8.46153846 15.1461538,7.36153846 14.4692308,6.85384615 L17.0923077,2.03076923 C17.2615385,1.77692308 17.1769231,1.52307692 17.0076923,1.26923077 C16.3307692,0.592307692 15.6538462,0.253846154 14.8076923,0.253846154 C14.0461538,0.253846154 13.3692308,0.507692308 12.8615385,0.761538462 C12.4384615,0.930769231 11.9307692,1.1 11.5923077,1.1 C11.5076923,1.1 11.4230769,1.1 11.3384615,1.01538462 C10.1538462,0.592307692 9.22307692,0.253846154 8.29230769,0.253846154 C7.10769231,0.253846154 6.17692308,0.676923077 5.24615385,1.69230769 C5.07692308,1.86153846 4.99230769,2.2 5.16153846,2.45384615 L7.95384615,6.68461538 C7.27692308,7.19230769 5.92307692,8.29230769 4.56923077,9.9 C3.46923077,11.2538462 2.53846154,12.6923077 1.94615385,14.1307692 C1.1,15.9923077 0.761538462,17.9384615 0.761538462,19.8846154 C0.761538462,22.5076923 2.87692308,24.6230769 5.5,24.6230769 L16.9230769,24.6230769 C19.5461538,24.6230769 21.6615385,22.5076923 21.6615385,19.8846154 C21.6615385,18.1076923 21.3230769,16.1615385 20.4769231,14.3 Z M6.34615385,2.36923077 C6.93846154,1.86153846 7.53076923,1.60769231 8.20769231,1.60769231 C8.96923077,1.60769231 9.73076923,1.86153846 10.8307692,2.28461538 C11.0846154,2.36923077 11.2538462,2.36923077 11.5076923,2.36923077 C12.1,2.36923077 12.6923077,2.11538462 13.2,1.94615385 C13.7076923,1.69230769 14.2153846,1.52307692 14.7230769,1.52307692 C14.9769231,1.52307692 15.3153846,1.52307692 15.7384615,1.86153846 L13.2846154,6.43076923 L9.05384615,6.43076923 L6.34615385,2.36923077 Z M16.9230769,23.6076923 L5.33076923,23.6076923 C3.38461538,23.6076923 1.77692308,22 1.77692308,20.0538462 C1.77692308,16.7538462 2.96153846,13.7076923 5.33076923,10.8307692 C6.85384615,9.05384615 8.37692308,7.86923077 8.8,7.61538462 L13.3692308,7.61538462 C13.7923077,7.95384615 15.3153846,9.05384615 16.8384615,10.8307692 C19.2076923,13.7076923 20.3923077,16.7538462 20.3923077,20.0538462 C20.4769231,22.0846154 18.8692308,23.6076923 16.9230769,23.6076923 Z" id="Shape" fill-rule="nonzero"></path>
                <g id="Group" transform="translate(7.615385, 11.000000)">
                    <path d="M0.169230769,4.73846154 C0.253846154,4.82307692 0.338461538,4.90769231 0.507692308,4.90769231 L6.51538462,4.90769231 C6.68461538,4.90769231 6.76923077,4.82307692 6.85384615,4.73846154 C6.93846154,4.65384615 6.93846154,4.56923077 6.93846154,4.4 C6.93846154,4.23076923 6.93846154,4.14615385 6.85384615,4.06153846 C6.76923077,3.97692308 6.68461538,3.89230769 6.51538462,3.89230769 L6.09230769,3.89230769 C6.43076923,3.55384615 6.6,3.04615385 6.6,2.53846154 C6.6,2.03076923 6.43076923,1.60769231 6.26153846,1.26923077 C6.00769231,0.930769231 5.66923077,0.592307692 5.24615385,0.423076923 C4.82307692,0.253846154 4.31538462,0.0846153846 3.72307692,0.0846153846 C3.04615385,0.0846153846 2.53846154,0.253846154 2.03076923,0.507692308 C1.52307692,0.761538462 1.18461538,1.18461538 0.846153846,1.60769231 C0.761538462,1.69230769 0.761538462,1.86153846 0.761538462,1.94615385 C0.761538462,2.11538462 0.846153846,2.28461538 1.01538462,2.36923077 C1.18461538,2.45384615 1.43846154,2.45384615 1.60769231,2.36923077 C1.69230769,2.28461538 1.77692308,2.2 1.86153846,2.11538462 C2.28461538,1.43846154 2.87692308,1.1 3.80769231,1.1 C4.4,1.1 4.82307692,1.18461538 5.16153846,1.43846154 C5.5,1.69230769 5.58461538,2.03076923 5.58461538,2.45384615 C5.58461538,3.04615385 5.33076923,3.46923077 4.73846154,3.63846154 L0.761538462,3.63846154 C0.592307692,3.63846154 0.507692308,3.72307692 0.423076923,3.80769231 C0.338461538,3.89230769 0.338461538,3.97692308 0.338461538,4.14615385 C0.0846153846,4.56923077 0.0846153846,4.65384615 0.169230769,4.73846154 Z" id="Path"></path>
                    <path d="M2.2,6.68461538 L6.51538462,6.68461538 C6.68461538,6.68461538 6.76923077,6.6 6.85384615,6.51538462 C6.93846154,6.43076923 6.93846154,6.34615385 6.93846154,6.17692308 C6.93846154,6.09230769 6.93846154,5.92307692 6.85384615,5.83846154 C6.76923077,5.75384615 6.68461538,5.66923077 6.51538462,5.66923077 L0.507692308,5.66923077 C0.338461538,5.66923077 0.253846154,5.75384615 0.169230769,5.83846154 C0.0846153846,5.92307692 0.0846153846,6.00769231 0.0846153846,6.17692308 C0.0846153846,6.34615385 0.0846153846,6.43076923 0.169230769,6.51538462 C0.253846154,6.6 0.338461538,6.68461538 0.507692308,6.68461538 L0.846153846,6.68461538 C0.676923077,6.93846154 0.507692308,7.19230769 0.507692308,7.61538462 C0.507692308,8.37692308 0.761538462,9.05384615 1.35384615,9.47692308 C1.94615385,9.9 2.70769231,10.1538462 3.63846154,10.1538462 C4.4,10.1538462 5.07692308,9.98461538 5.58461538,9.64615385 C6.17692308,9.30769231 6.51538462,8.88461538 6.85384615,8.29230769 C6.85384615,8.20769231 6.93846154,8.12307692 6.93846154,8.03846154 C6.93846154,7.95384615 6.85384615,7.78461538 6.76923077,7.7 C6.68461538,7.61538462 6.6,7.53076923 6.43076923,7.53076923 C6.43076923,7.53076923 6.34615385,7.53076923 6.26153846,7.53076923 C6.17692308,7.53076923 6.00769231,7.53076923 5.92307692,7.61538462 C5.83846154,7.7 5.75384615,7.78461538 5.66923077,7.86923077 C5.5,8.20769231 5.24615385,8.46153846 4.90769231,8.71538462 C4.56923077,8.88461538 4.14615385,9.05384615 3.63846154,9.05384615 C3.04615385,9.05384615 2.53846154,8.88461538 2.2,8.63076923 C1.86153846,8.37692308 1.69230769,8.03846154 1.69230769,7.53076923 C1.77692308,7.10769231 1.94615385,6.85384615 2.2,6.68461538 Z" id="Path"></path>
                </g>
            </g>
        </g>
    </g>
</svg>