<?xml version="1.0" encoding="UTF-8"?>
<svg width="62px" height="60px" viewBox="0 0 62 60" version="1.1" xmlns="http://www.w3.org/2000/svg" xmlns:xlink="http://www.w3.org/1999/xlink">
    <!-- Generator: Sketch 50.2 (55047) - http://www.bohemiancoding.com/sketch -->
    <title>new-sticker</title>
    <desc>Created with Sketch.</desc>
    <defs></defs>
    <g id="Desktop" stroke="none" stroke-width="1" fill="none" fill-rule="evenodd">
        <g id="lider_final_white" transform="translate(-605.000000, -700.000000)" fill="#FFED00" fill-rule="nonzero">
            <g id="new-sticker" transform="translate(605.000000, 700.000000)">
                <path d="M32.0840244,24.7236585 C32.7912195,24.7236585 33.3645122,24.1503659 33.3645122,23.4431707 C33.3645122,22.7359756 32.7912195,22.1626829 32.0840244,22.1626829 L26.2303659,22.1626829 C25.5231707,22.1626829 24.949878,22.7359756 24.949878,23.4431707 L24.949878,36.555122 C24.949878,37.2623171 25.5231707,37.8356098 26.2303659,37.8356098 L32.0840244,37.8356098 C32.7912195,37.8356098 33.3645122,37.2623171 33.3645122,36.555122 C33.3645122,35.8479268 32.7912195,35.2746341 32.0840244,35.2746341 L27.5108537,35.2746341 L27.5108537,31.2069512 L32.0840244,31.2069512 C32.7912195,31.2069512 33.3645122,30.6336585 33.3645122,29.9264634 C33.3645122,29.2192683 32.7912195,28.6459756 32.0840244,28.6459756 L27.5108537,28.6459756 L27.5108537,24.7237805 L32.0840244,24.7237805 L32.0840244,24.7236585 Z" id="Shape"></path>
                <path d="M20.4376829,22.1626829 C19.7304878,22.1626829 19.1571951,22.7359756 19.1571951,23.4431707 L19.1571951,31.7147561 L14.0910976,22.81 C13.8040244,22.304878 13.2129268,22.0569512 12.6506098,22.2053659 C12.0889024,22.3539024 11.6976829,22.8621951 11.6976829,23.4431707 L11.6976829,36.555122 C11.6976829,37.2623171 12.2709756,37.8356098 12.9781707,37.8356098 C13.6853659,37.8356098 14.2586585,37.2623171 14.2586585,36.555122 L14.2586585,28.2835366 L19.3247561,37.1884146 C19.5562195,37.5956098 19.9856098,37.8358537 20.437561,37.8358537 C20.5463415,37.8358537 20.6562195,37.8219512 20.765122,37.7930488 C21.3269512,37.6445122 21.7180488,37.1362195 21.7180488,36.5552439 L21.7180488,23.4431707 C21.7181707,22.7360976 21.144878,22.1626829 20.4376829,22.1626829 Z" id="Shape"></path>
                <path d="M48.2376829,22.1615854 C47.5304878,22.1615854 46.9573171,22.735 46.9573171,23.4421951 L46.9579268,32.2296341 L43.9686585,27.6235366 C43.732439,27.2597561 43.3282927,27.040122 42.8945122,27.040122 C42.4606098,27.040122 42.0564634,27.2597561 41.8202439,27.6236585 L38.8314634,32.2297561 L38.8309756,23.4419512 C38.8309756,22.7347561 38.2576829,22.1615854 37.5503659,22.1615854 C36.8431707,22.1615854 36.27,22.734878 36.27,23.4421951 L36.2707317,36.5554878 C36.2707317,37.122561 36.6440244,37.6221951 37.1879268,37.7831707 C37.7315854,37.9442683 38.3168293,37.7280488 38.6254878,37.2521951 L42.8946341,30.6728049 L47.1645122,37.2523171 C47.405,37.6229268 47.8129268,37.8358537 48.2386585,37.8358537 C48.3595122,37.8358537 48.4819512,37.8186585 48.6020732,37.7830488 C49.1459756,37.6219512 49.5191463,37.1223171 49.5191463,36.555122 L49.5182927,23.4418293 C49.5182927,22.7347561 48.944878,22.1615854 48.2376829,22.1615854 Z" id="Shape"></path>
                <path d="M58.2826829,34.0362195 C59.6579268,32.9563415 61.2168293,31.7323171 61.2168293,29.9986585 C61.2168293,28.265 59.6580488,27.0410976 58.2826829,25.9613415 C57.5384146,25.3769512 56.5191463,24.5765854 56.412561,24.1079268 C56.2953659,23.5923171 56.882561,22.3928049 57.3114634,21.5169512 C58.1028049,19.9003659 58.9212195,18.2287805 58.1903659,16.7136585 C57.4482927,15.1757317 55.5292683,14.7539024 53.8360976,14.3817073 C52.8976829,14.1754878 51.6123171,13.8929268 51.2985366,13.499878 C50.980122,13.1012195 50.9892683,11.7789024 50.9959756,10.8134146 C51.0080488,9.08597561 51.0215854,7.12804878 49.6942683,6.06841463 C49.1470732,5.63146341 48.4315854,5.40987805 47.5680488,5.40987805 C46.6807317,5.40987805 45.7220732,5.63463415 44.795122,5.85207317 C44.0062195,6.03707317 43.1907317,6.22829268 42.5932927,6.22829268 C42.2954878,6.22829268 42.1512195,6.18 42.0917073,6.15134146 C41.6471951,5.93695122 41.0891463,4.755 40.6815854,3.89207317 C39.9380488,2.31743902 39.0953659,0.532560976 37.4179268,0.151463415 C37.2213415,0.106707317 37.0173171,0.0840243902 36.8114634,0.0840243902 C35.4186585,0.0840243902 34.1703659,1.09390244 32.9630488,2.0704878 C32.1982927,2.68914634 31.1507317,3.53658537 30.6084146,3.53658537 C30.0660976,3.53658537 29.0184146,2.68914634 28.2534146,2.0702439 C27.0462195,1.09365854 25.7976829,0.0837804878 24.4047561,0.0837804878 C24.1989024,0.0837804878 23.995,0.106463415 23.7984146,0.151097561 C22.1209756,0.532317073 21.2782927,2.31719512 20.534878,3.89182927 C20.1273171,4.7547561 19.5692683,5.93670732 19.125,6.15109756 C19.0654878,6.1797561 18.9212195,6.22792683 18.6234146,6.22792683 C18.0260976,6.22792683 17.2103659,6.03670732 16.4214634,5.85170732 C15.4945122,5.63439024 14.5359756,5.40963415 13.6485366,5.40963415 C12.784878,5.40963415 12.0695122,5.63121951 11.5221951,6.06817073 C10.194878,7.12792683 10.2085366,9.08597561 10.2204878,10.8132927 C10.2271951,11.7787805 10.2363415,13.1009756 9.91804878,13.4996341 C9.60426829,13.892561 8.31902439,14.175122 7.38036585,14.3814634 C5.68719512,14.7536585 3.76804878,15.1754878 3.02609756,16.7134146 C2.2952439,18.2282927 3.11353659,19.9 3.905,21.5167073 C4.33378049,22.392561 4.92109756,23.5920732 4.80378049,24.1078049 C4.69731707,24.5762195 3.67817073,25.3764634 2.93390244,25.9608537 C1.55890244,27.0408537 0,28.264878 0,29.9985366 C0,31.7321951 1.55890244,32.9562195 2.93439024,34.0360976 C3.67865854,34.6204878 4.69780488,35.4208537 4.80426829,35.8891463 C4.92146341,36.404878 4.33426829,37.6043902 3.90536585,38.4802439 C3.11402439,40.0969512 2.29560976,41.7685366 3.02646341,43.2835366 C3.76841463,44.8214634 5.68743902,45.2432927 7.38073171,45.6154878 C8.31914634,45.8217073 9.60439024,46.1043902 9.91829268,46.4971951 C10.2365854,46.8959756 10.227439,48.2181707 10.2207317,49.1836585 C10.2086585,50.9110976 10.1952439,52.8690244 11.522439,53.9286585 C12.0696341,54.3656098 12.785122,54.5871951 13.6487805,54.5871951 C14.5362195,54.5871951 15.4947561,54.362439 16.4217073,54.1452439 C17.2104878,53.9602439 18.0259756,53.7690244 18.6234146,53.7690244 C18.9212195,53.7690244 19.0656098,53.8173171 19.125122,53.8459756 C19.5696341,54.0603659 20.1276829,55.2421951 20.5352439,56.1052439 C21.2787805,57.6797561 22.1214634,59.4645122 23.7987805,59.8456098 C23.9953659,59.8903659 24.1993902,59.9130488 24.4052439,59.9130488 C25.7980488,59.9130488 27.0464634,58.9032927 28.2537805,57.9267073 C29.0187805,57.3080488 30.0663415,56.4606098 30.6087805,56.4606098 C31.1510976,56.4606098 32.1986585,57.3080488 32.9635366,57.9268293 C34.1708537,58.9035366 35.4193902,59.9134146 36.812439,59.9132927 C37.0180488,59.9131707 37.2219512,59.8906098 37.4185366,59.8458537 C39.0959756,59.4645122 39.9386585,57.6797561 40.6821951,56.1052439 C41.0896341,55.2421951 41.6478049,54.0602439 42.0920732,53.8459756 C42.1515854,53.8173171 42.2958537,53.7691463 42.5936585,53.7691463 C43.1909756,53.7691463 44.0065854,53.9603659 44.7952439,54.1453659 C45.7223171,54.3626829 46.6810976,54.587561 47.5686585,54.587439 C48.4323171,54.5873171 49.1476829,54.3658537 49.694878,53.9289024 C51.0221951,52.8691463 51.0085366,50.9112195 50.9965854,49.1837805 C50.989878,48.2182927 50.9807317,46.8960976 51.2991463,46.497439 C51.6129268,46.1043902 52.8981707,45.8219512 53.8367073,45.6156098 C55.529878,45.2434146 57.4489024,44.8214634 58.1909756,43.2835366 C58.9218293,41.7686585 58.1034146,40.0969512 57.3120732,38.4803659 C56.8831707,37.6043902 56.2959756,36.4047561 56.4132927,35.8891463 C56.5192683,35.4208537 57.5384146,34.6206098 58.2826829,34.0362195 Z M13.1204878,8.0695122 C13.1495122,8.04634146 13.2735366,7.97060976 13.6487805,7.97060976 C14.24,7.97060976 15.0519512,8.16097561 15.8371951,8.345 C16.7676829,8.56317073 17.729878,8.78890244 18.6236585,8.78890244 C19.2478049,8.78890244 19.7758537,8.6804878 20.2379268,8.45768293 C21.4984146,7.84963415 22.1859756,6.39329268 22.8508537,4.98512195 C23.244878,4.15036585 23.9046341,2.75317073 24.3662195,2.64829268 C24.3768293,2.64585366 24.389878,2.6447561 24.404878,2.6447561 C24.8915854,2.6447561 25.9037805,3.46353659 26.6429268,4.06134146 C27.8803659,5.06243902 29.159878,6.09756098 30.6084146,6.09756098 C32.0568293,6.09756098 33.3364634,5.06243902 34.5740244,4.06146341 C35.3131707,3.46365854 36.325122,2.64487805 36.8118293,2.64487805 C36.8270732,2.64487805 36.8397561,2.64609756 36.8504878,2.64853659 C37.3121951,2.75341463 37.9718293,4.1504878 38.3660976,4.9852439 C39.0309756,6.39353659 39.7186585,7.84963415 40.9791463,8.45780488 C41.4412195,8.68073171 41.9692683,8.78914634 42.5935366,8.78914634 C43.4870732,8.78914634 44.4493902,8.56341463 45.38,8.3452439 C46.1652439,8.16109756 46.9771951,7.97073171 47.5682927,7.97073171 C47.9435366,7.97073171 48.067439,8.04634146 48.0965854,8.0697561 C48.4521951,8.35365854 48.4415854,9.88231707 48.4352439,10.7957317 C48.4307317,11.4619512 48.4267073,12.137439 48.4902439,12.7795122 L12.7265854,12.7795122 C12.790122,12.137561 12.7862195,11.4620732 12.7815854,10.7958537 C12.7753659,9.88231707 12.7647561,8.35353659 13.1204878,8.0695122 Z M48.0964634,51.9279268 C48.067439,51.9510976 47.9435366,52.0268293 47.5680488,52.0268293 C46.9768293,52.0269512 46.1647561,51.8364634 45.3796341,51.652439 C44.4490244,51.4342683 43.4868293,51.2085366 42.5932927,51.2085366 C41.9691463,51.2085366 41.4410976,51.3169512 40.9790244,51.5397561 C39.7185366,52.1478049 39.0309756,53.6040244 38.3660976,55.0121951 C37.9719512,55.8469512 37.3120732,57.2441463 36.8506098,57.3490244 C36.84,57.3514634 36.8269512,57.3526829 36.8118293,57.3526829 C36.3252439,57.3526829 35.3130488,56.5339024 34.5739024,55.9360976 C33.3365854,54.935122 32.0569512,53.9 30.6084146,53.9 C29.16,53.9 27.8803659,54.935 26.6429268,55.9359756 C25.9037805,56.5336585 24.8917073,57.352439 24.404878,57.352439 C24.3896341,57.352439 24.3769512,57.3512195 24.3662195,57.3487805 C23.9046341,57.2439024 23.244878,55.8469512 22.8507317,55.0121951 C22.1858537,53.6040244 21.4981707,52.1479268 20.2376829,51.5397561 C19.7756098,51.3168293 19.247561,51.2084146 18.6231707,51.2084146 C17.7296341,51.2084146 16.767439,51.4340244 15.8368293,51.6521951 C15.0517073,51.8363415 14.2397561,52.0265854 13.6485366,52.0265854 C13.2732927,52.0265854 13.1492683,51.9509756 13.1202439,51.9276829 C12.7645122,51.6436585 12.775122,50.115 12.7815854,49.2015854 C12.7857317,48.5882927 12.7892683,47.9670732 12.7402439,47.3712195 L48.4763415,47.3712195 C48.427439,47.9670732 48.4308537,48.5881707 48.435122,49.2017073 C48.4415854,50.115 48.4521951,51.6437805 48.0964634,51.9279268 Z M55.0114634,39.6064634 C55.4089024,40.4181707 56.0740244,41.7768293 55.8839024,42.1707317 C55.6828049,42.587561 54.1826829,42.9173171 53.2863415,43.1143902 C51.8007317,43.4409756 50.2679268,43.7806098 49.3754878,44.810122 L11.8415854,44.810122 C10.9490244,43.7803659 9.41609756,43.4407317 7.9304878,43.1142683 C7.03414634,42.9173171 5.53414634,42.587561 5.33304878,42.1707317 C5.14292683,41.7768293 5.80817073,40.4181707 6.2054878,39.6064634 C6.9004878,38.1868293 7.61914634,36.7189024 7.30146341,35.3214634 C6.99365854,33.967439 5.73402439,32.9784146 4.51585366,32.0218293 C3.73731707,31.4107317 2.56097561,30.4869512 2.56097561,29.9985366 C2.56097561,29.510122 3.73731707,28.5864634 4.51573171,27.975122 C5.73390244,27.0186585 6.99353659,26.0295122 7.30146341,24.6753659 C7.61902439,23.2781707 6.90036585,21.8102439 6.2054878,20.3904878 C5.80804878,19.5787805 5.14292683,18.220122 5.33304878,17.8262195 C5.53402439,17.4093902 7.03426829,17.0796341 7.93060976,16.8826829 C9.3402439,16.5729268 10.7929268,16.2518293 11.7003659,15.3402439 L49.5168293,15.3402439 C50.4242683,16.2518293 51.8768293,16.5729268 53.2864634,16.8826829 C54.1828049,17.0797561 55.6829268,17.4093902 55.8840244,17.8260976 C56.0741463,18.220122 55.4090244,19.5787805 55.0115854,20.3904878 C54.3165854,21.8102439 53.5979268,23.2781707 53.9156098,24.6753659 C54.2234146,26.0296341 55.4831707,27.0187805 56.7014634,27.9753659 C57.479878,28.5865854 58.6560976,29.510122 58.6560976,29.9985366 C58.6560976,30.4869512 57.4797561,31.4106098 56.7013415,32.0219512 C55.4831707,32.9784146 54.2235366,33.967561 53.9156098,35.3217073 C53.5978049,36.7189024 54.3165854,38.1869512 55.0114634,39.6064634 Z" id="Shape"></path>
            </g>
        </g>
    </g>
</svg>