<?xml version="1.0" encoding="UTF-8"?>
<svg width="17px" height="17px" viewBox="0 0 17 17" version="1.1" xmlns="http://www.w3.org/2000/svg" xmlns:xlink="http://www.w3.org/1999/xlink">
    <!-- Generator: Sketch 52.6 (67491) - http://www.bohemiancoding.com/sketch -->
    <title>New_icon</title>
    <desc>Created with Sketch.</desc>
    <g id="mobile" stroke="none" stroke-width="1" fill="none" fill-rule="evenodd">
        <g id="tehnostok_icons" transform="translate(-23.000000, -258.000000)" fill="#323232">
            <g id="New_icon" transform="translate(22.538462, 258.153846)">
                <path d="M14.9769231,0.338461538 L2.2,0.338461538 C1.26923077,0.338461538 0.507692308,1.1 0.507692308,2.03076923 L0.507692308,14.8076923 C0.507692308,15.7384615 1.26923077,16.5 2.2,16.5 L14.9769231,16.5 C15.9076923,16.5 16.6692308,15.7384615 16.6692308,14.8076923 L16.6692308,2.03076923 C16.7538462,1.1 15.9076923,0.338461538 14.9769231,0.338461538 Z M15.4,14.8923077 C15.4,15.1461538 15.2307692,15.3153846 14.9769231,15.3153846 L2.2,15.3153846 C1.94615385,15.3153846 1.77692308,15.1461538 1.77692308,14.8923077 L1.77692308,2.11538462 C1.77692308,1.86153846 1.94615385,1.69230769 2.2,1.69230769 L14.9769231,1.69230769 C15.2307692,1.69230769 15.4,1.86153846 15.4,2.11538462 L15.4,14.8923077 Z" id="Shape" fill-rule="nonzero"></path>
                <path d="M11.5076923,7.86923077 L9.30769231,7.86923077 L9.30769231,5.66923077 C9.30769231,5.33076923 9.05384615,4.99230769 8.63076923,4.99230769 C8.20769231,4.99230769 7.95384615,5.24615385 7.95384615,5.66923077 L7.95384615,7.86923077 L5.75384615,7.86923077 C5.41538462,7.86923077 5.07692308,8.12307692 5.07692308,8.54615385 C5.07692308,8.96923077 5.33076923,9.22307692 5.75384615,9.22307692 L7.95384615,9.22307692 L7.95384615,11.4230769 C7.95384615,11.7615385 8.20769231,12.1 8.63076923,12.1 C9.05384615,12.1 9.30769231,11.8461538 9.30769231,11.4230769 L9.30769231,9.22307692 L11.5076923,9.22307692 C11.8461538,9.22307692 12.1846154,8.96923077 12.1846154,8.54615385 C12.1846154,8.12307692 11.8461538,7.86923077 11.5076923,7.86923077 Z" id="Path"></path>
            </g>
        </g>
    </g>
</svg>