<?xml version="1.0" encoding="UTF-8"?>
<svg width="59px" height="60px" viewBox="0 0 59 60" version="1.1" xmlns="http://www.w3.org/2000/svg" xmlns:xlink="http://www.w3.org/1999/xlink">
    <!-- Generator: Sketch 50.2 (55047) - http://www.bohemiancoding.com/sketch -->
    <title>percentage</title>
    <desc>Created with Sketch.</desc>
    <defs></defs>
    <g id="Desktop" stroke="none" stroke-width="1" fill="none" fill-rule="evenodd">
        <g id="lider_final_white" transform="translate(-1471.000000, -700.000000)" fill="#FF0201" fill-rule="nonzero">
            <g id="percentage" transform="translate(1471.000000, 700.000000)">
                <path d="M20.0199545,30.8892273 C21.0425455,31.9118182 22.386,32.4231818 23.7291818,32.4231818 C25.0723636,32.4231818 26.4156818,31.9118182 27.4382727,30.8892273 C28.4292273,29.8984091 28.9749545,28.5811364 28.9749545,27.18 C28.9749545,25.7788636 28.4292273,24.4614545 27.4384091,23.4707727 C26.4475909,22.4799545 25.1303182,21.9342273 23.7291818,21.9342273 C22.3280455,21.9342273 21.0106364,22.4798182 20.0198182,23.4707727 C17.9746364,25.5158182 17.9746364,28.8437727 20.0199545,30.8892273 Z M21.4662273,24.9169091 C22.0708636,24.3124091 22.8744545,23.9795455 23.7293182,23.9795455 C24.5841818,23.9795455 25.3876364,24.3124091 25.9922727,24.9170455 C26.5967727,25.5214091 26.9296364,26.3251364 26.9296364,27.1798636 C26.9296364,28.0345909 26.5967727,28.8383182 25.9921364,29.4428182 C24.7446818,30.6904091 22.7143636,30.6905455 21.4663636,29.4428182 L21.4665,29.4428182 C20.2185,28.1949545 20.2185,26.1647727 21.4662273,24.9169091 Z" id="Shape"></path>
                <path d="M20.6026364,40.0534091 C18.5574545,42.0987273 18.5574545,45.4266818 20.6026364,47.472 C21.6253636,48.4947273 22.9686818,49.0059545 24.3118636,49.0059545 C25.6553182,49.0059545 26.9985,48.4945909 28.0212273,47.472 C30.0664091,45.4266818 30.0664091,42.0987273 28.0212273,40.0534091 C25.9756364,38.0079545 22.6479545,38.0082273 20.6026364,40.0534091 Z M26.5748182,46.0255909 C25.3272273,47.2731818 23.2970455,47.2734545 22.0491818,46.0255909 C20.8014545,44.7778636 20.8014545,42.7474091 22.0491818,41.4996818 C23.2966364,40.2519545 25.3270909,40.2518182 26.5748182,41.4996818 C27.8225455,42.7474091 27.8225455,44.7778636 26.5748182,46.0255909 Z" id="Shape"></path>
                <path d="M32.5309091,29.9548636 L14.5764545,39.1675909 C14.0738182,39.4254545 13.8755455,40.0419545 14.1334091,40.5444545 C14.3146364,40.8976364 14.6727273,41.1005455 15.0441818,41.1005455 C15.2012727,41.1005455 15.3608182,41.0641364 15.5102727,40.9875 L33.4647273,31.7747727 C33.9673636,31.5169091 34.1656364,30.9004091 33.9077727,30.3979091 C33.6499091,29.8954091 33.0335455,29.6971364 32.5309091,29.9548636 Z" id="Shape"></path>
                <path d="M58.4612727,6.61527273 C58.4612727,2.96754545 55.4935909,0 51.846,0 L44.7109091,0 C41.0633182,0 38.0956364,2.96754545 38.0956364,6.61527273 L38.0956364,11.2685455 L28.4848636,10.3231364 C27.2494091,10.2016364 26.0395909,10.6351364 25.1627727,11.5120909 L0.911181818,35.7636818 C-0.246409091,36.9214091 -0.246409091,38.8052727 0.911181818,39.963 L19.9463182,58.998 C20.5071818,59.5588636 21.2528182,59.8677273 22.0459091,59.8677273 C22.839,59.8677273 23.5847727,59.5588636 24.1456364,58.998 L48.3972273,34.7465455 C49.2741818,33.8694545 49.7074091,32.6586818 49.5860455,31.4244545 L48.4044545,19.4123182 L56.5238182,11.2930909 C57.7731818,10.0435909 58.4612727,8.38227273 58.4612727,6.61527273 Z M46.9508182,33.3001364 L22.6992273,57.5515909 C22.5248182,57.7261364 22.2927273,57.8222727 22.0459091,57.8222727 C21.7990909,57.8222727 21.5671364,57.7261364 21.3927273,57.5517273 L2.35759091,38.5167273 C1.99731818,38.1564545 1.99731818,37.5702273 2.35759091,37.2099545 L26.6091818,12.9585 C27.0024545,12.5650909 27.5289545,12.3488182 28.0785,12.3488182 C28.1469545,12.3488182 28.2156818,12.3522273 28.2845455,12.3589091 L38.0956364,13.3239545 L38.0956364,16.4252727 C37.2889091,16.6126364 36.5481818,17.0205 35.9480455,17.6207727 C35.1012273,18.4675909 34.6348636,19.5934091 34.6348636,20.7910909 C34.6348636,21.9887727 35.1012273,23.1145909 35.9480455,23.9612727 C36.7948636,24.8080909 37.9206818,25.2744545 39.1183636,25.2744545 C40.3159091,25.2744545 41.4417273,24.8080909 42.2885455,23.9612727 L42.2884091,23.9612727 C43.1353636,23.1145909 43.6017273,21.9886364 43.6017273,20.7910909 C43.6017273,19.5935455 43.1353636,18.4675909 42.2885455,17.6207727 C41.6884091,17.0206364 40.9476818,16.6127727 40.1410909,16.4254091 L40.1410909,13.5250909 L44.1246818,13.9168636 C45.1100455,14.0138182 45.8953636,14.7992727 45.9923182,15.7845 L47.5504091,31.6246364 C47.6116364,32.2471364 47.3930455,32.8579091 46.9508182,33.3001364 Z M38.2539545,18.5125909 C38.6701364,20.0368636 39.8723182,21.2390455 41.3965909,21.6552273 C41.2759091,21.9737727 41.0901818,22.2666818 40.8422727,22.5147273 C40.8421364,22.5147273 40.8421364,22.5147273 40.8421364,22.5147273 C40.3817727,22.9752273 39.7696364,23.2288636 39.1183636,23.2288636 C38.4670909,23.2288636 37.8548182,22.9752273 37.3943182,22.5147273 C36.9339545,22.0542273 36.6803182,21.4420909 36.6803182,20.7908182 C36.6803182,20.1395455 36.9339545,19.5274091 37.3944545,19.0669091 C37.6425,18.819 37.9355455,18.6332727 38.2539545,18.5125909 Z M55.0772727,9.84668182 L48.1453636,16.7784545 L48.0279545,15.5841818 C47.8358182,13.6306364 46.2784091,12.0733636 44.325,11.8812273 L40.1410909,11.4696818 L40.1410909,6.61527273 C40.1410909,4.09540909 42.1910455,2.04545455 44.7109091,2.04545455 L51.846,2.04545455 C54.3658636,2.04545455 56.4158182,4.09540909 56.4158182,6.61527273 C56.4158182,7.836 55.9404545,8.98363636 55.0772727,9.84668182 Z" id="Shape"></path>
            </g>
        </g>
    </g>
</svg>