<?xml version="1.0" encoding="UTF-8"?>
<svg width="13px" height="21px" viewBox="0 0 13 21" version="1.1" xmlns="http://www.w3.org/2000/svg" xmlns:xlink="http://www.w3.org/1999/xlink">
    <!-- Generator: Sketch 52.6 (67491) - http://www.bohemiancoding.com/sketch -->
    <title>Shape</title>
    <desc>Created with Sketch.</desc>
    <g id="mobile" stroke="none" stroke-width="1" fill="none" fill-rule="evenodd">
        <g id="tehnostok_icons2" transform="translate(-68.000000, -432.000000)" fill="#1F30A7" fill-rule="nonzero">
            <path d="M78.5731707,432 L69.4268293,432 C68.6219512,432 68,432.658537 68,433.426829 L68,451.536585 C68,452.341463 68.6585366,453 69.4634146,453 L78.5731707,453 C79.3780488,453 80.0365854,452.341463 80.0365854,451.536585 L80.0365854,433.463415 C80.0731707,432.658537 79.4146341,432 78.5731707,432 Z M74.0365854,452.414634 C73.597561,452.414634 73.2317073,452.04878 73.2317073,451.609756 C73.2317073,451.170732 73.597561,450.804878 74.0365854,450.804878 C74.4756098,450.804878 74.8414634,451.170732 74.8414634,451.609756 C74.804878,452.085366 74.4756098,452.414634 74.0365854,452.414634 Z M79.195122,449.707317 C79.195122,450 78.9390244,450.256098 78.6463415,450.256098 L69.3902439,450.256098 C69.097561,450.256098 68.8414634,450 68.8414634,449.707317 L68.8414634,434.378049 C68.8414634,434.085366 69.097561,433.829268 69.3902439,433.829268 L78.6463415,433.829268 C78.9390244,433.829268 79.195122,434.085366 79.195122,434.378049 L79.195122,449.707317 Z" id="Shape"></path>
        </g>
    </g>
</svg>