<?xml version="1.0" encoding="UTF-8"?>
<svg width="19px" height="22px" viewBox="0 0 19 22" version="1.1" xmlns="http://www.w3.org/2000/svg" xmlns:xlink="http://www.w3.org/1999/xlink">
    <!-- Generator: Sketch 52.6 (67491) - http://www.bohemiancoding.com/sketch -->
    <title>Combined Shape</title>
    <desc>Created with Sketch.</desc>
    <g id="mobile" stroke="none" stroke-width="1" fill="none" fill-rule="evenodd">
        <g id="tehnostok_icons2" transform="translate(-61.000000, -381.000000)" fill="#1F30A7" fill-rule="nonzero">
            <path d="M67.3,390.900144 L67.3,382.53545 C67.3,381.767157 67.9219512,381.108621 68.7268293,381.108621 L77.8731707,381.108621 C78.7146341,381.108621 79.3731707,381.767157 79.3365854,382.572035 L79.3365854,400.645206 C79.3365854,401.450084 78.6780488,402.108621 77.8731707,402.108621 L68.7634146,402.108621 C67.9585366,402.108621 67.3,401.450084 67.3,400.645206 L67.3,392.193083 L61.2534483,391.5 L67.3,390.900144 Z M68.1414634,392.289535 L68.1414634,398.815938 C68.1414634,399.108621 68.397561,399.364718 68.6902439,399.364718 L77.9463415,399.364718 C78.2390244,399.364718 78.495122,399.108621 78.495122,398.815938 L78.495122,383.486669 C78.495122,383.193987 78.2390244,382.937889 77.9463415,382.937889 L68.6902439,382.937889 C68.397561,382.937889 68.1414634,383.193987 68.1414634,383.486669 L68.1414634,390.816665 L70.3775862,390.594828 L69.7982759,388.531034 L73.6,391.5 L69.9793103,394.541379 L70.4137931,392.55 L68.1414634,392.289535 Z M73.3365854,401.523255 C73.7756098,401.523255 74.104878,401.157401 74.1414634,400.718377 C74.1414634,400.279352 73.7756098,399.913499 73.3365854,399.913499 C72.897561,399.913499 72.5317073,400.279352 72.5317073,400.718377 C72.5317073,401.157401 72.897561,401.523255 73.3365854,401.523255 Z" id="Combined-Shape"></path>
        </g>
    </g>
</svg>