<?xml version="1.0" encoding="UTF-8"?>
<svg width="50px" height="50px" viewBox="0 0 50 50" version="1.1" xmlns="http://www.w3.org/2000/svg" xmlns:xlink="http://www.w3.org/1999/xlink">
    <!-- Generator: Sketch 50.2 (55047) - http://www.bohemiancoding.com/sketch -->
    <title>add-square-outlined-interface-button</title>
    <desc>Created with Sketch.</desc>
    <defs></defs>
    <g id="Desktop" stroke="none" stroke-width="1" fill="none" fill-rule="evenodd">
        <g id="lider_final_white" transform="translate(-1259.000000, -705.000000)" fill="#24CB99" fill-rule="nonzero">
            <g id="add-square-outlined-interface-button" transform="translate(1259.000000, 705.000000)">
                <path d="M34.375,23.4375 L26.5625,23.4375 L26.5625,15.625 C26.5625,14.7625 25.8625,14.0625 25,14.0625 C24.1375,14.0625 23.4375,14.7625 23.4375,15.625 L23.4375,23.4375 L15.625,23.4375 C14.7625,23.4375 14.0625,24.1375 14.0625,25 C14.0625,25.8625 14.7625,26.5625 15.625,26.5625 L23.4375,26.5625 L23.4375,34.375 C23.4375,35.2375 24.1375,35.9375 25,35.9375 C25.8625,35.9375 26.5625,35.2375 26.5625,34.375 L26.5625,26.5625 L34.375,26.5625 C35.2375,26.5625 35.9375,25.8625 35.9375,25 C35.9375,24.1375 35.2375,23.4375 34.375,23.4375 Z M43.75,0 L6.25,0 C2.79844771,0 0,2.79844771 0,6.25 L0,43.75 C0,47.2015523 2.79844771,50 6.25,50 L43.75,50 C47.2015523,50 50,47.2015523 50,43.75 L50,6.25 C50,2.79844771 47.2015523,0 43.75,0 Z M46.875,43.75 C46.875,45.4765523 45.475,46.875 43.75,46.875 L6.25,46.875 C4.52344771,46.875 3.125,45.4765523 3.125,43.75 L3.125,6.25 C3.125,4.52344771 4.52344771,3.125 6.25,3.125 L43.75,3.125 C45.475,3.125 46.875,4.525 46.875,6.25 L46.875,43.75 Z" id="Shape"></path>
            </g>
        </g>
    </g>
</svg>