<?xml version="1.0" encoding="UTF-8"?>
<svg width="17px" height="18px" viewBox="0 0 17 18" version="1.1" xmlns="http://www.w3.org/2000/svg" xmlns:xlink="http://www.w3.org/1999/xlink">
    <!-- Generator: Sketch 52.6 (67491) - http://www.bohemiancoding.com/sketch -->
    <title>Sales_icon</title>
    <desc>Created with Sketch.</desc>
    <g id="mobile" stroke="none" stroke-width="1" fill="none" fill-rule="evenodd">
        <g id="tehnostok_icons" transform="translate(-23.000000, -210.000000)" fill="#323232">
            <g id="Sales_icon" transform="translate(22.538462, 210.538462)">
                <path d="M14.9769231,16.5846154 L2.2,16.5846154 C1.26923077,16.5846154 0.507692308,15.8230769 0.507692308,14.8923077 L0.507692308,2.11538462 C0.507692308,1.18461538 1.26923077,0.423076923 2.2,0.423076923 L14.9769231,0.423076923 C15.9076923,0.423076923 16.6692308,1.18461538 16.6692308,2.11538462 L16.6692308,14.8923077 C16.7538462,15.8230769 15.9076923,16.5846154 14.9769231,16.5846154 Z M2.2,1.60769231 C1.94615385,1.60769231 1.77692308,1.77692308 1.77692308,2.03076923 L1.77692308,14.8076923 C1.77692308,15.0615385 1.94615385,15.2307692 2.2,15.2307692 L14.9769231,15.2307692 C15.2307692,15.2307692 15.4,15.0615385 15.4,14.8076923 L15.4,2.03076923 C15.4,1.77692308 15.2307692,1.60769231 14.9769231,1.60769231 L2.2,1.60769231 Z" id="Shape" fill-rule="nonzero"></path>
                <path d="M5.92307692,11.7615385 C5.75384615,11.7615385 5.58461538,11.6769231 5.5,11.5923077 C5.24615385,11.3384615 5.24615385,10.9153846 5.5,10.6615385 L10.8307692,5.33076923 C11.0846154,5.07692308 11.5076923,5.07692308 11.7615385,5.33076923 C12.0153846,5.58461538 12.0153846,6.00769231 11.7615385,6.26153846 L6.43076923,11.5923077 C6.26153846,11.6769231 6.09230769,11.7615385 5.92307692,11.7615385 Z" id="Path"></path>
                <circle id="Oval" cx="6.09230769" cy="5.92307692" r="1.01538462"></circle>
                <circle id="Oval" cx="11.0846154" cy="11" r="1.01538462"></circle>
            </g>
        </g>
    </g>
</svg>