<?xml version="1.0" encoding="UTF-8"?>
<svg width="16px" height="26px" viewBox="0 0 16 26" version="1.1" xmlns="http://www.w3.org/2000/svg" xmlns:xlink="http://www.w3.org/1999/xlink">
    <!-- Generator: Sketch 52.6 (67491) - http://www.bohemiancoding.com/sketch -->
    <title>Shops_icon</title>
    <desc>Created with Sketch.</desc>
    <g id="mobile" stroke="none" stroke-width="1" fill="none" fill-rule="evenodd">
        <g id="tehnostok_icons" transform="translate(-23.000000, -302.000000)" fill="#323232" fill-rule="nonzero">
            <g id="Shops_icon" transform="translate(23.384615, 302.692308)">
                <path d="M11.8461538,7.7 C11.8461538,5.41538462 9.98461538,3.55384615 7.7,3.55384615 C5.41538462,3.55384615 3.55384615,5.41538462 3.55384615,7.7 C3.55384615,9.98461538 5.41538462,11.8461538 7.7,11.8461538 C9.98461538,11.8461538 11.8461538,9.98461538 11.8461538,7.7 Z M7.7,10.5769231 C6.09230769,10.5769231 4.82307692,9.30769231 4.82307692,7.7 C4.82307692,6.09230769 6.09230769,4.82307692 7.7,4.82307692 C9.30769231,4.82307692 10.5769231,6.09230769 10.5769231,7.7 C10.5769231,9.30769231 9.30769231,10.5769231 7.7,10.5769231 Z" id="Shape"></path>
                <path d="M8.20769231,19.9692308 C8.54615385,19.6307692 15.2307692,12.8615385 15.2307692,7.7 C15.2307692,3.55384615 11.8461538,0.169230769 7.7,0.169230769 C3.55384615,0.169230769 0.169230769,3.55384615 0.169230769,7.7 C0.169230769,12.8615385 6.85384615,19.6307692 7.19230769,19.9692308 C4.99230769,20.0538462 2.96153846,20.8153846 2.96153846,22.3384615 C2.96153846,23.8615385 5.33076923,24.7076923 7.61538462,24.7076923 C9.9,24.7076923 12.2692308,23.8615385 12.2692308,22.3384615 C12.4384615,20.9 10.4076923,20.1384615 8.20769231,19.9692308 Z M7.7,1.43846154 C11.1692308,1.43846154 13.9615385,4.23076923 13.9615385,7.7 C13.9615385,11.6769231 9.22307692,17.0923077 7.7,18.7 C6.17692308,17.0923077 1.43846154,11.6769231 1.43846154,7.7 C1.52307692,4.31538462 4.31538462,1.43846154 7.7,1.43846154 Z M7.7,23.4384615 C5.58461538,23.4384615 4.31538462,22.6769231 4.31538462,22.3384615 C4.31538462,22 5.5,21.2384615 7.7,21.2384615 C9.9,21.2384615 11.0846154,22 11.0846154,22.3384615 C11.1692308,22.7615385 9.81538462,23.4384615 7.7,23.4384615 Z" id="Shape"></path>
            </g>
        </g>
    </g>
</svg>