<?xml version="1.0" encoding="UTF-8"?>
<svg width="50px" height="60px" viewBox="0 0 50 60" version="1.1" xmlns="http://www.w3.org/2000/svg" xmlns:xlink="http://www.w3.org/1999/xlink">
    <!-- Generator: Sketch 50.2 (55047) - http://www.bohemiancoding.com/sketch -->
    <title>stove</title>
    <desc>Created with Sketch.</desc>
    <defs></defs>
    <g id="Desktop" stroke="none" stroke-width="1" fill="none" fill-rule="evenodd">
        <g id="lider_final_white" transform="translate(-1039.000000, -257.000000)" fill="#FFED00" fill-rule="nonzero">
            <g id="stove" transform="translate(1039.000000, 257.000000)">
                <path d="M19.6328294,13.3477322 C21.3120518,13.3477322 22.6781857,11.9815983 22.6781857,10.3023758 C22.6781857,8.96293737 21.8086393,7.82358531 20.6047516,7.41693305 L20.6047516,7.19222462 C20.6047516,6.65546436 20.1695896,6.22030238 19.6328294,6.22030238 C19.0960691,6.22030238 18.6609071,6.65546436 18.6609071,7.19222462 L18.6609071,7.41693305 C17.4570194,7.82358531 16.587473,8.96293737 16.587473,10.3023758 C16.587473,11.9815983 17.9536069,13.3477322 19.6328294,13.3477322 Z M19.6328294,9.20086393 C20.240216,9.20086393 20.7343413,9.6949892 20.7343413,10.3023758 C20.7343413,10.9097624 20.240216,11.4038877 19.6328294,11.4038877 C19.0254428,11.4038877 18.5313175,10.9097624 18.5313175,10.3023758 C18.5313175,9.6949892 19.0254428,9.20086393 19.6328294,9.20086393 Z" id="Shape"></path>
                <path d="M9.26565875,13.3477322 C10.9448812,13.3477322 12.3110151,11.9815983 12.3110151,10.3023758 C12.3110151,8.96293737 11.4414687,7.82358531 10.237581,7.41693305 L10.237581,7.19222462 C10.237581,6.65546436 9.80241901,6.22030238 9.26565875,6.22030238 C8.72889849,6.22030238 8.2937365,6.65546436 8.2937365,7.19222462 L8.2937365,7.41693305 C7.08984881,7.82358531 6.22030238,8.96293737 6.22030238,10.3023758 C6.22030238,11.9815983 7.58643629,13.3477322 9.26565875,13.3477322 Z M9.26565875,9.20086393 C9.87304536,9.20086393 10.3671706,9.6949892 10.3671706,10.3023758 C10.3671706,10.9097624 9.87304536,11.4038877 9.26565875,11.4038877 C8.65827214,11.4038877 8.16414687,10.9097624 8.16414687,10.3023758 C8.16414687,9.6949892 8.65827214,9.20086393 9.26565875,9.20086393 Z" id="Shape"></path>
                <path d="M40.3671706,13.3477322 C42.0463931,13.3477322 43.412527,11.9815983 43.412527,10.3023758 C43.412527,8.96293737 42.5429806,7.82358531 41.3390929,7.41693305 L41.3390929,7.19222462 C41.3390929,6.65546436 40.9039309,6.22030238 40.3671706,6.22030238 C39.8304104,6.22030238 39.3952484,6.65546436 39.3952484,7.19222462 L39.3952484,7.41693305 C38.1913607,7.82358531 37.3218143,8.96293737 37.3218143,10.3023758 C37.3218143,11.9815983 38.6879482,13.3477322 40.3671706,13.3477322 Z M40.3671706,9.20086393 C40.9745572,9.20086393 41.4686825,9.6949892 41.4686825,10.3023758 C41.4686825,10.9097624 40.9745572,11.4038877 40.3671706,11.4038877 C39.759784,11.4038877 39.2656587,10.9097624 39.2656587,10.3023758 C39.2656587,9.6949892 39.759784,9.20086393 40.3671706,9.20086393 Z" id="Shape"></path>
                <path d="M30,13.3477322 C31.6792225,13.3477322 33.0453564,11.9815983 33.0453564,10.3023758 C33.0453564,8.96293737 32.1758099,7.82358531 30.9719222,7.41693305 L30.9719222,7.19222462 C30.9719222,6.65546436 30.5367603,6.22030238 30,6.22030238 C29.4632397,6.22030238 29.0280778,6.65546436 29.0280778,7.19222462 L29.0280778,7.41693305 C27.8241901,7.82358531 26.9546436,8.96293737 26.9546436,10.3023758 C26.9546436,11.9815983 28.3207775,13.3477322 30,13.3477322 Z M30,9.20086393 C30.6073866,9.20086393 31.1015119,9.6949892 31.1015119,10.3023758 C31.1015119,10.9097624 30.6073866,11.4038877 30,11.4038877 C29.3926134,11.4038877 28.8984881,10.9097624 28.8984881,10.3023758 C28.8984881,9.6949892 29.3926134,9.20086393 30,9.20086393 Z" id="Shape"></path>
                <path d="M40.3671706,23.8444924 L9.26565875,23.8444924 C8.72889849,23.8444924 8.2937365,24.2796544 8.2937365,24.8164147 C8.2937365,25.3531749 8.72889849,25.7883369 9.26565875,25.7883369 L40.3671706,25.7883369 C40.9039309,25.7883369 41.3390929,25.3531749 41.3390929,24.8164147 C41.3390929,24.2796544 40.9039309,23.8444924 40.3671706,23.8444924 Z" id="Shape"></path>
                <path d="M43.4773218,19.6976242 L6.15550756,19.6976242 C5.04790497,19.6976242 4.14686825,20.5986609 4.14686825,21.7062635 L4.14686825,50.7343413 C4.14686825,51.8419438 5.04790497,52.7429806 6.15550756,52.7429806 L43.4773218,52.7429806 C44.5849244,52.7429806 45.4859611,51.8419438 45.4859611,50.7343413 L45.4859611,21.7062635 C45.4859611,20.5986609 44.5849244,19.6976242 43.4773218,19.6976242 Z M43.5421166,50.7343413 C43.5421166,50.770108 43.5130886,50.7991361 43.4773218,50.7991361 L6.15550756,50.7991361 C6.11974082,50.7991361 6.09071274,50.770108 6.09071274,50.7343413 L6.09071274,21.7062635 C6.09071274,21.6704968 6.11974082,21.6414687 6.15550756,21.6414687 L43.4773218,21.6414687 C43.5130886,21.6414687 43.5421166,21.6704968 43.5421166,21.7062635 L43.5421166,50.7343413 Z" id="Shape"></path>
                <path d="M40.3671706,27.9913607 L9.26565875,27.9913607 C8.72889849,27.9913607 8.2937365,28.4265227 8.2937365,28.9632829 L8.2937365,47.6241901 C8.2937365,48.1609503 8.72889849,48.5961123 9.26565875,48.5961123 L40.3671706,48.5961123 C40.9039309,48.5961123 41.3390929,48.1609503 41.3390929,47.6241901 L41.3390929,28.9632829 C41.3390929,28.4265227 40.9039309,27.9913607 40.3671706,27.9913607 Z M39.3952484,46.6522678 L10.237581,46.6522678 L10.237581,29.9352052 L39.3952484,29.9352052 L39.3952484,46.6522678 Z" id="Shape"></path>
                <path d="M47.6241901,3.11015119 L45.4859611,3.11015119 L45.4859611,2.00863931 C45.4859611,0.901036717 44.5849244,0 43.4773218,0 L28.9632829,0 C27.8556803,0 26.9546436,0.901036717 26.9546436,2.00863931 L26.9546436,3.11015119 L22.6781857,3.11015119 L22.6781857,2.00863931 C22.6781857,0.901036717 21.777149,0 20.6695464,0 L6.15550756,0 C5.04790497,0 4.14686825,0.901036717 4.14686825,2.00863931 L4.14686825,3.11015119 L2.00863931,3.11015119 C0.901036717,3.11015119 0,4.0111879 0,5.1187905 L0,57.9913607 C0,59.0989633 0.901036717,60 2.00863931,60 L4.08207343,60 C5.18967603,60 6.09071274,59.0989633 6.09071274,57.9913607 L6.09071274,56.8898488 L43.5421166,56.8898488 L43.5421166,57.9913607 C43.5421166,59.0989633 44.4431533,60 45.5507559,60 L47.6241901,60 C48.7317927,60 49.6328294,59.0989633 49.6328294,57.9913607 L49.6328294,5.1187905 C49.6328294,4.0111879 48.7317927,3.11015119 47.6241901,3.11015119 Z M28.8984881,2.00863931 C28.8984881,1.97287257 28.9275162,1.94384449 28.9632829,1.94384449 L43.4773218,1.94384449 C43.5130886,1.94384449 43.5421166,1.97287257 43.5421166,2.00863931 L43.5421166,3.11015119 L28.8984881,3.11015119 L28.8984881,2.00863931 Z M6.09071274,2.00863931 C6.09071274,1.97287257 6.11974082,1.94384449 6.15550756,1.94384449 L20.6695464,1.94384449 C20.7053132,1.94384449 20.7343413,1.97287257 20.7343413,2.00863931 L20.7343413,3.11015119 L6.09071274,3.11015119 L6.09071274,2.00863931 Z M2.00863931,5.05399568 L47.6241901,5.05399568 C47.6599568,5.05399568 47.6889849,5.08302376 47.6889849,5.1187905 L47.6889849,15.5507559 L1.94384449,15.5507559 L1.94384449,5.1187905 C1.94384449,5.08302376 1.97287257,5.05399568 2.00863931,5.05399568 Z M47.6241901,58.0561555 L45.5507559,58.0561555 C45.5149892,58.0561555 45.4859611,58.0271274 45.4859611,57.9913607 L45.4859611,55.9179266 C45.4859611,55.3811663 45.0507991,54.9460043 44.5140389,54.9460043 L5.1187905,54.9460043 C4.58203024,54.9460043 4.14686825,55.3811663 4.14686825,55.9179266 L4.14686825,57.9913607 C4.14686825,58.0271274 4.11784017,58.0561555 4.08207343,58.0561555 L2.00863931,58.0561555 C1.97287257,58.0561555 1.94384449,58.0271274 1.94384449,57.9913607 L1.94384449,17.4946004 L47.6889849,17.4946004 L47.6889849,57.9913607 C47.6889849,58.0271274 47.6599568,58.0561555 47.6241901,58.0561555 Z" id="Shape"></path>
            </g>
        </g>
    </g>
</svg>