<?xml version="1.0" encoding="UTF-8"?>
<svg width="37px" height="60px" viewBox="0 0 37 60" version="1.1" xmlns="http://www.w3.org/2000/svg" xmlns:xlink="http://www.w3.org/1999/xlink">
    <!-- Generator: Sketch 50.2 (55047) - http://www.bohemiancoding.com/sketch -->
    <title>telephone-contact</title>
    <desc>Created with Sketch.</desc>
    <defs></defs>
    <g id="Desktop" stroke="none" stroke-width="1" fill="none" fill-rule="evenodd">
        <g id="lider_final_white" transform="translate(-402.000000, -257.000000)" fill="#FFED00" fill-rule="nonzero">
            <g id="telephone-contact" transform="translate(402.000000, 257.000000)">
                <path d="M18.1290323,50.1909677 C16.5282581,50.1909677 15.2258065,51.4934194 15.2258065,53.0941935 C15.2258065,54.6949677 16.5282581,55.9974194 18.1290323,55.9974194 C19.7298065,55.9974194 21.0322581,54.6949677 21.0322581,53.0941935 C21.0322581,51.4934194 19.7298065,50.1909677 18.1290323,50.1909677 Z M18.1290323,54.0619355 C17.5953548,54.0619355 17.1612903,53.6277419 17.1612903,53.0941935 C17.1612903,52.5606452 17.5953548,52.1264516 18.1290323,52.1264516 C18.6627097,52.1264516 19.0967742,52.5606452 19.0967742,53.0941935 C19.0967742,53.6277419 18.6627097,54.0619355 18.1290323,54.0619355 Z" id="Shape"></path>
                <path d="M14.0465806,7.87354839 L22.2113548,7.87354839 C22.7459355,7.87354839 23.1790968,7.44025806 23.1790968,6.90580645 C23.1790968,6.37135484 22.7459355,5.93806452 22.2113548,5.93806452 L14.0465806,5.93806452 C13.512,5.93806452 13.0788387,6.37135484 13.0788387,6.90580645 C13.0788387,7.44025806 13.512129,7.87354839 14.0465806,7.87354839 Z" id="Shape"></path>
                <path d="M30.0059355,0 L6.25212903,0 C2.808,0 0.00593548387,2.80206452 0.00593548387,6.24632258 L0.00593548387,53.7536774 C0.00593548387,57.1979355 2.808,60 6.25212903,60 L30.0059355,60 C33.4500645,60 36.252129,57.1979355 36.252129,53.7536774 L36.252129,6.24632258 C36.252129,2.80206452 33.4500645,0 30.0059355,0 Z M1.94141935,13.8117419 L34.3166452,13.8117419 L34.3166452,46.1882581 L1.94141935,46.1882581 L1.94141935,13.8117419 Z M6.25212903,1.93548387 L30.0059355,1.93548387 C32.3828387,1.93548387 34.3166452,3.86929032 34.3166452,6.24632258 L34.3166452,11.8762581 L1.94141935,11.8762581 L1.94141935,6.24632258 C1.94141935,3.86929032 3.87522581,1.93548387 6.25212903,1.93548387 Z M30.0059355,58.0645161 L6.25212903,58.0645161 C3.87522581,58.0645161 1.94141935,56.1307097 1.94141935,53.7536774 L1.94141935,48.1237419 L34.3166452,48.1237419 L34.3166452,53.7536774 C34.3166452,56.1307097 32.3828387,58.0645161 30.0059355,58.0645161 Z" id="Shape"></path>
            </g>
        </g>
    </g>
</svg>