<?xml version="1.0" encoding="UTF-8"?>
<svg width="17px" height="17px" viewBox="0 0 17 17" version="1.1" xmlns="http://www.w3.org/2000/svg" xmlns:xlink="http://www.w3.org/1999/xlink">
    <!-- Generator: Sketch 52.6 (67491) - http://www.bohemiancoding.com/sketch -->
    <title>Tovars_icon</title>
    <desc>Created with Sketch.</desc>
    <g id="mobile" stroke="none" stroke-width="1" fill="none" fill-rule="evenodd">
        <g id="tehnostok_icons" transform="translate(-23.000000, -165.000000)" fill="#323232" fill-rule="nonzero">
            <g id="Tovars_icon" transform="translate(22.538462, 164.615385)">
                <path d="M4.06153846,7.86923077 C2.11538462,7.86923077 0.507692308,6.26153846 0.507692308,4.31538462 C0.507692308,2.36923077 2.11538462,0.761538462 4.06153846,0.761538462 C6.00769231,0.761538462 7.61538462,2.36923077 7.61538462,4.31538462 C7.61538462,6.26153846 6.00769231,7.86923077 4.06153846,7.86923077 Z M4.06153846,2.03076923 C2.79230769,2.03076923 1.77692308,3.04615385 1.77692308,4.31538462 C1.77692308,5.58461538 2.79230769,6.6 4.06153846,6.6 C5.33076923,6.6 6.34615385,5.58461538 6.34615385,4.31538462 C6.43076923,3.04615385 5.41538462,2.03076923 4.14615385,1.94615385 C4.14615385,1.94615385 4.06153846,1.94615385 4.06153846,1.94615385 L4.06153846,2.03076923 Z" id="Shape"></path>
                <path d="M13.1153846,7.86923077 C11.1692308,7.86923077 9.56153846,6.26153846 9.56153846,4.31538462 C9.56153846,2.36923077 11.1692308,0.761538462 13.1153846,0.761538462 C15.0615385,0.761538462 16.6692308,2.36923077 16.6692308,4.31538462 C16.6692308,6.26153846 15.0615385,7.86923077 13.1153846,7.86923077 Z M13.1153846,2.03076923 C11.8461538,2.03076923 10.8307692,3.04615385 10.8307692,4.31538462 C10.8307692,5.58461538 11.8461538,6.6 13.1153846,6.6 C14.3846154,6.6 15.4,5.58461538 15.4,4.31538462 C15.4846154,3.04615385 14.4692308,2.03076923 13.2,1.94615385 C13.2,1.94615385 13.1153846,1.94615385 13.1153846,1.94615385 L13.1153846,2.03076923 Z" id="Shape"></path>
                <path d="M4.06153846,17.0076923 C2.11538462,17.0076923 0.507692308,15.4 0.507692308,13.4538462 C0.507692308,11.5076923 2.11538462,9.9 4.06153846,9.9 C6.00769231,9.9 7.61538462,11.5076923 7.61538462,13.4538462 C7.61538462,15.4 6.00769231,17.0076923 4.06153846,17.0076923 Z M4.06153846,11.1692308 C2.79230769,11.1692308 1.77692308,12.1846154 1.77692308,13.4538462 C1.77692308,14.7230769 2.79230769,15.7384615 4.06153846,15.7384615 C5.33076923,15.7384615 6.34615385,14.7230769 6.34615385,13.4538462 C6.43076923,12.1846154 5.41538462,11.1692308 4.14615385,11.0846154 C4.14615385,11.0846154 4.06153846,11.0846154 4.06153846,11.0846154 L4.06153846,11.1692308 Z" id="Shape"></path>
                <path d="M13.1153846,17.0076923 C11.1692308,17.0076923 9.56153846,15.4 9.56153846,13.4538462 C9.56153846,11.5076923 11.1692308,9.9 13.1153846,9.9 C15.0615385,9.9 16.6692308,11.5076923 16.6692308,13.4538462 C16.6692308,15.4 15.0615385,17.0076923 13.1153846,17.0076923 Z M13.1153846,11.1692308 C11.8461538,11.1692308 10.8307692,12.1846154 10.8307692,13.4538462 C10.8307692,14.7230769 11.8461538,15.7384615 13.1153846,15.7384615 C14.3846154,15.7384615 15.4,14.7230769 15.4,13.4538462 C15.4846154,12.1846154 14.4692308,11.1692308 13.2,11.0846154 C13.2,11.0846154 13.1153846,11.0846154 13.1153846,11.0846154 L13.1153846,11.1692308 Z" id="Shape"></path>
            </g>
        </g>
    </g>
</svg>