<?xml version="1.0" encoding="UTF-8"?>
<svg width="104px" height="60px" viewBox="0 0 104 60" version="1.1" xmlns="http://www.w3.org/2000/svg" xmlns:xlink="http://www.w3.org/1999/xlink">
    <!-- Generator: Sketch 50.2 (55047) - http://www.bohemiancoding.com/sketch -->
    <title>television</title>
    <desc>Created with Sketch.</desc>
    <defs></defs>
    <g id="Desktop" stroke="none" stroke-width="1" fill="none" fill-rule="evenodd">
        <g id="lider_final_white" transform="translate(-798.000000, -257.000000)" fill="#FFED00" fill-rule="nonzero">
            <g id="television" transform="translate(798.000000, 257.000000)">
                <path d="M102.3665,59.9639988 L93.7365,59.9639988 C93.1845,59.9639988 92.7365,59.5160214 92.7365,58.9640492 L92.7365,10.0130171 C92.714,9.81302715 92.702,9.61003739 92.702,9.40404777 C92.702,9.19805816 92.7135,8.99506839 92.7365,8.79507847 L92.7365,4.35030256 C92.7365,2.19091142 94.4935,0.434 96.653,0.434 L99.4495,0.434 C101.609,0.434 103.366,2.19091142 103.366,4.35030256 L103.366,8.79307857 C103.389,8.99356847 103.4005,9.19755818 103.4005,9.40404777 C103.4005,9.61053736 103.389,9.81452708 103.366,10.015017 L103.366,58.9640492 C103.3665,59.5165213 102.919,59.9639988 102.3665,59.9639988 Z M94.737,57.9640996 L101.367,57.9640996 L101.367,26.4426888 C100.455,27.1646524 99.303,27.5961306 98.052,27.5961306 C96.801,27.5961306 95.649,27.1646524 94.737,26.4421888 L94.737,57.9640996 Z M94.737,22.727876 C94.971,24.3477944 96.3685,25.5962314 98.052,25.5962314 C99.735,25.5962314 101.1325,24.3482944 101.367,22.729376 L101.367,21.7644246 C101.1325,20.1455062 99.735,18.8975692 98.052,18.8975692 C96.3685,18.8975692 94.971,20.1460062 94.737,21.7659245 L94.737,22.727876 Z M94.737,13.5998362 L94.737,18.0516118 C95.649,17.3296482 96.801,16.89767 98.052,16.89767 C99.303,16.89767 100.455,17.3291482 101.367,18.0511118 L101.367,13.5998362 C100.455,14.3217998 99.303,14.7532781 98.052,14.7532781 C96.801,14.7532781 95.649,14.3222998 94.737,13.5998362 Z M94.737,9.88502352 C94.971,11.5049419 96.3685,12.7533789 98.052,12.7533789 C99.735,12.7533789 101.1325,11.5054418 101.367,9.88652345 L101.367,8.9215721 C101.1325,7.30265371 99.735,6.05471663 98.052,6.05471663 C96.3685,6.05471663 94.971,7.30315369 94.737,8.92307202 L94.737,9.88502352 Z M96.6535,2.43439915 C95.5965,2.43439915 94.737,3.29435579 94.737,4.35080253 L94.737,5.20875928 C95.649,4.48679568 96.801,4.05481746 98.052,4.05481746 C99.303,4.05481746 100.455,4.4862957 101.367,5.2082593 L101.367,4.35030256 C101.367,3.29335584 100.5075,2.43389917 99.4505,2.43389917 L96.6535,2.43389917 L96.6535,2.43439915 Z M68.758,59.9639988 L34.718,59.9639988 C34.166,59.9639988 33.718,59.5160214 33.718,58.9640492 C33.718,58.412077 34.166,57.9640996 34.718,57.9640996 L41.772,57.9640996 L42.8995,50.6949661 L14.342,50.6949661 C13.79,50.6949661 13.342,50.2469887 13.342,49.6950165 L13.342,1.43444956 C13.342,0.88247739 13.79,0.434499975 14.342,0.434499975 L89.134,0.434499975 C89.686,0.434499975 90.134,0.88247739 90.134,1.43444956 L90.134,49.6955165 C90.134,50.2474886 89.686,50.6954661 89.134,50.6954661 L60.576,50.6954661 L61.7035,57.9645996 L68.7575,57.9645996 C69.3095,57.9645996 69.7575,58.412577 69.7575,58.9645492 C69.7575,59.5165213 69.3105,59.9639988 68.758,59.9639988 Z M43.796,57.9640996 L59.68,57.9640996 L58.5525,50.6949661 L44.9235,50.6949661 L43.796,57.9640996 Z M59.409,48.6955669 L88.134,48.6955669 L88.134,2.43439915 L15.342,2.43439915 L15.342,48.6955669 L59.409,48.6955669 Z M9.6645,59.9639988 L1.0345,59.9639988 C0.4825,59.9639988 0.0345,59.5160214 0.0345,58.9640492 L0.0345,10.015017 C0.0115,9.81452708 0,9.61103734 0,9.40454775 C0,9.19805816 0.0115,8.99406844 0.0345,8.79357855 L0.0345,4.35080253 C0.0345,2.1914114 1.7915,0.434499975 3.951,0.434499975 L6.7475,0.434499975 C8.907,0.434499975 10.664,2.1914114 10.664,4.35080253 L10.664,8.79557845 C10.6865,8.99556837 10.6985,9.19855813 10.6985,9.40454775 C10.6985,9.61053736 10.687,9.81352713 10.664,10.013517 L10.664,58.9645492 C10.6645,59.5165213 10.217,59.9639988 9.6645,59.9639988 Z M2.0345,57.9640996 L8.6645,57.9640996 L8.6645,26.4426888 C7.7525,27.1646524 6.6005,27.5966306 5.3495,27.5966306 C4.0985,27.5966306 2.9465,27.1651523 2.0345,26.4431887 L2.0345,57.9640996 Z M2.0345,22.729376 C2.269,24.3482944 3.6665,25.5962314 5.3495,25.5962314 C7.033,25.5962314 8.4305,24.3477944 8.6645,22.727876 L8.6645,21.7659245 C8.4305,20.1460062 7.033,18.8975692 5.3495,18.8975692 C3.6665,18.8975692 2.269,20.1455062 2.0345,21.7644246 L2.0345,22.729376 Z M5.3495,16.89767 C6.6005,16.89767 7.7525,17.3291482 8.6645,18.0516118 L8.6645,13.5998362 C7.7525,14.3217998 6.6005,14.7537781 5.3495,14.7537781 C4.0985,14.7537781 2.9465,14.3222998 2.0345,13.6003362 L2.0345,18.0516118 C2.947,17.3296482 4.0985,16.89767 5.3495,16.89767 Z M2.0345,9.88702342 C2.269,11.5059418 3.6665,12.7538789 5.3495,12.7538789 C7.033,12.7538789 8.4305,11.5054418 8.6645,9.8855235 L8.6645,8.923572 C8.4305,7.30365366 7.033,6.0552166 5.3495,6.0552166 C3.6665,6.0552166 2.269,7.30315369 2.0345,8.92207207 L2.0345,9.88702342 Z M5.3495,4.05531743 C6.6005,4.05531743 7.7525,4.48679568 8.6645,5.20925925 L8.6645,4.35130251 C8.6645,3.29435579 7.8045,2.43489912 6.748,2.43489912 L3.951,2.43489912 C2.894,2.43489912 2.0345,3.29485577 2.0345,4.35130251 L2.0345,5.20925925 C2.947,4.48679568 4.0985,4.05531743 5.3495,4.05531743 Z M85.858,47.2596393 L17.618,47.2596393 C17.066,47.2596393 16.618,46.8116619 16.618,46.2596897 L16.618,4.47029651 C16.618,3.91832434 17.066,3.47034692 17.618,3.47034692 L85.858,3.47034692 C86.41,3.47034692 86.858,3.91832434 86.858,4.47029651 L86.858,46.2596897 C86.858,46.8116619 86.41,47.2596393 85.858,47.2596393 Z M18.618,45.2597401 L84.858,45.2597401 L84.858,5.4702461 L18.618,5.4702461 L18.618,45.2597401 Z" id="Shape"></path>
            </g>
        </g>
    </g>
</svg>