<?xml version="1.0" encoding="UTF-8"?>
<svg width="86px" height="55px" viewBox="0 0 86 55" version="1.1" xmlns="http://www.w3.org/2000/svg" xmlns:xlink="http://www.w3.org/1999/xlink">
    <!-- Generator: Sketch 50.2 (55047) - http://www.bohemiancoding.com/sketch -->
    <title>watch</title>
    <desc>Created with Sketch.</desc>
    <defs></defs>
    <g id="Desktop" stroke="none" stroke-width="1" fill="none" fill-rule="evenodd">
        <g id="lider_final_white" transform="translate(-811.000000, -703.000000)" fill="#FFED00" fill-rule="nonzero">
            <g id="watch" transform="translate(811.000000, 703.000000)">
                <path d="M84.2571885,38.4833067 L72.5010703,38.4833067 C72.4952716,38.4833067 72.4898243,38.4824281 72.4840256,38.4824281 C72.4782268,38.4824281 72.4727796,38.483131 72.4669808,38.4833067 L67.9970447,38.4833067 C69.5001438,35.0358786 70.2875399,31.279361 70.2875399,27.5 C70.2875399,23.7202875 69.5001438,19.9634185 67.9966933,16.5158147 L72.4501118,16.5158147 C72.4615335,16.5161661 72.4726038,16.5175719 72.4842013,16.5175719 C72.4957987,16.5175719 72.506869,16.5161661 72.5182907,16.5158147 L84.2571885,16.5158147 C84.985016,16.5158147 85.5750799,15.9259265 85.5750799,15.1979233 C85.5750799,14.4699201 84.985016,13.8800319 84.2571885,13.8800319 L73.8019169,13.8800319 L73.8019169,11.6853035 C73.8019169,11.1563898 73.4857987,10.6787859 72.9990575,10.4723163 L54.4640575,2.60309904 C50.8556709,0.906709265 46.8807348,0 42.7875399,0 C38.6941693,0 34.7190575,0.906884984 31.1106709,2.60327476 L12.5760224,10.4723163 C12.0892812,10.6787859 11.7731629,11.1563898 11.7731629,11.6853035 L11.7731629,13.8810863 L1.31789137,13.8810863 C0.590063898,13.8810863 0,14.4709744 0,15.1989776 C0,15.9269808 0.590063898,16.516869 1.31789137,16.516869 L13.077524,16.516869 C13.0820927,16.516869 13.0864856,16.5175719 13.0910543,16.5175719 C13.095623,16.5175719 13.100016,16.516869 13.1045847,16.516869 L17.5778594,16.516869 C16.0747604,19.9642971 15.2875399,23.720639 15.2875399,27.5 C15.2875399,31.2790096 16.0747604,35.0351757 17.5780351,38.4824281 L1.31789137,38.4824281 C0.590063898,38.4824281 0,39.0723163 0,39.8003195 C0,40.5283227 0.590063898,41.1182109 1.31789137,41.1182109 L11.7731629,41.1182109 L11.7731629,43.3146965 C11.7731629,43.8436102 12.0892812,44.3212141 12.5760224,44.5276837 L31.1113738,52.396901 C34.7197604,54.0932907 38.694345,55 42.7875399,55 C46.8807348,55 50.8554952,54.0932907 54.4638818,52.3970767 L72.9992332,44.5278594 C73.4859744,44.3212141 73.8020927,43.8436102 73.8020927,43.3148722 L73.8020927,41.1192652 L84.2573642,41.1192652 C84.9851917,41.1192652 85.5752556,40.529377 85.5752556,39.8013738 C85.5752556,39.0733706 84.985016,38.4833067 84.2571885,38.4833067 Z M71.1661342,42.4424281 L63.320639,45.7733546 C63.5183227,45.5514217 63.713722,45.326853 63.9049042,45.0978914 C64.371262,44.5391054 64.2964058,43.708131 63.7376198,43.2417732 C63.1788339,42.7754153 62.3476837,42.8500958 61.8815016,43.4090575 C59.5166773,46.2423482 56.6041374,48.4736262 53.3644089,50.0004473 L53.3503514,50.0064217 C53.3315495,50.0143291 53.3139776,50.0241693 53.2957029,50.0329553 C50.0461342,51.5522204 46.4697284,52.3642173 42.7875399,52.3642173 C39.1046486,52.3642173 35.5277157,51.551869 32.2774441,50.031901 C32.2596965,50.0234665 32.2428275,50.0139776 32.2245527,50.006246 L32.2115495,50.0007987 C28.9714696,48.4738019 26.0585783,46.242524 23.6934026,43.4090575 C23.2270447,42.8502716 22.3958946,42.7755911 21.8372843,43.2417732 C21.2784984,43.708131 21.2036422,44.5392812 21.67,45.0978914 C21.8611821,45.3270288 22.0565815,45.5514217 22.2542652,45.7733546 L14.4089457,42.4424281 L14.4089457,41.1182109 L19.6792812,41.1182109 C20.142476,41.1182109 20.5715815,40.875016 20.8096805,40.4777157 C21.0477796,40.0804153 21.0599042,39.587524 20.8414856,39.1789776 C18.932476,35.6073163 17.9233227,31.56877 17.9233227,27.5 C17.9233227,23.4308786 18.932476,19.3919808 20.8414856,15.8201438 C21.0599042,15.4117732 21.0477796,14.9187061 20.8096805,14.5214058 C20.5715815,14.1241054 20.142476,13.8809105 19.6792812,13.8809105 L14.4089457,13.8809105 L14.4089457,12.5573962 L22.2542652,9.22664537 C22.0565815,9.44857827 21.8611821,9.67314696 21.6698243,9.90228435 C21.2034665,10.4610703 21.2783227,11.2920447 21.8371086,11.7584026 C22.0836422,11.9641693 22.3830671,12.0645048 22.6809105,12.0645048 C23.0581789,12.0645048 23.4328115,11.9033706 23.6934026,11.5911182 C26.0584026,8.75765176 28.9711182,6.5263738 32.2110224,4.999377 L32.2245527,4.99357827 C32.2430032,4.98567093 32.2602236,4.97618211 32.278147,4.96757188 C35.5282428,3.44795527 39.105,2.63578275 42.7875399,2.63578275 C46.4702556,2.63578275 50.0471885,3.44795527 53.2971086,4.96792332 C53.3148562,4.97635783 53.331901,4.98602236 53.3503514,4.99375399 L53.3635304,4.999377 C56.6034345,6.5263738 59.5163259,8.75765176 61.8811502,11.5909425 C62.3476837,12.1499042 63.1788339,12.2247604 63.7374441,11.7582268 C64.29623,11.291869 64.3710863,10.4607188 63.9047284,9.90210863 C63.7135463,9.67314696 63.518147,9.44857827 63.320639,9.22682109 L71.1661342,12.5575719 L71.1661342,13.8800319 L65.8954473,13.8800319 C65.4322524,13.8800319 65.003147,14.1232268 64.7650479,14.5205272 C64.5269489,14.9178275 64.5148243,15.4107188 64.7332428,15.8192652 C66.6424281,19.391278 67.6517572,23.4305272 67.6517572,27.5 C67.6517572,31.5691214 66.6426038,35.6080192 64.7335942,39.1800319 C64.5153514,39.5884026 64.527476,40.0816454 64.7655751,40.47877 C65.0036741,40.8760703 65.4327796,41.1192652 65.8959744,41.1192652 L71.1661342,41.1192652 L71.1661342,42.4424281 Z" id="Shape"></path>
                <path d="M57.2639617,14.9046486 C56.6839137,15.3442971 56.5698722,16.1708786 57.0095208,16.7509265 C59.3734665,19.870639 60.6230032,23.5874441 60.6230032,27.5 C60.6230032,37.3346326 52.6219968,45.3354633 42.7875399,45.3354633 C32.9530831,45.3354633 24.9520767,37.3346326 24.9520767,27.5 C24.9520767,17.6653674 32.9530831,9.66453674 42.7875399,9.66453674 C46.7000958,9.66453674 50.416901,10.9138978 53.5364377,13.2778435 C54.1164856,13.7173163 54.9432428,13.6038019 55.3827157,13.0234026 C55.8223642,12.4433546 55.7084984,11.6167732 55.1282748,11.1771246 C51.5469489,8.46332268 47.2794409,7.02875399 42.7875399,7.02875399 C31.4997125,7.02875399 22.3162939,16.2121725 22.3162939,27.5 C22.3162939,38.7878275 31.4997125,47.971246 42.7875399,47.971246 C54.0753674,47.971246 63.2587859,38.7878275 63.2587859,27.5 C63.2587859,23.008099 61.8242173,18.7405911 59.1102396,15.1592652 C58.6707668,14.5790415 57.8441853,14.465 57.2639617,14.9046486 Z" id="Shape"></path>
                <path d="M42.7875399,15.8146965 C42.0597125,15.8146965 41.4696486,16.4045847 41.4696486,17.1325879 L41.4696486,25.1857827 C40.6659105,25.6454633 40.121885,26.5096486 40.121885,27.5 C40.121885,28.9698882 41.3178275,30.1658307 42.7875399,30.1658307 C43.7778914,30.1658307 44.6420767,29.6218051 45.1017572,28.8178914 L56.6693291,28.8178914 C57.3971565,28.8178914 57.9872204,28.2280032 57.9872204,27.5 C57.9872204,26.7719968 57.3971565,26.1821086 56.6693291,26.1821086 L45.1017572,26.1821086 C44.8647125,25.7674121 44.5201278,25.4228275 44.1054313,25.1857827 L44.1054313,17.1325879 C44.1054313,16.4045847 43.5153674,15.8146965 42.7875399,15.8146965 Z" id="Shape"></path>
            </g>
        </g>
    </g>
</svg>