<svg width="22" height="24" viewBox="0 0 22 24" fill="none" xmlns="http://www.w3.org/2000/svg">
<path fill-rule="evenodd" clip-rule="evenodd" d="M15.3749 7.75C15.3749 8.91032 14.9139 10.0231 14.0935 10.8436C13.273 11.6641 12.1602 12.125 10.9999 12.125C9.83955 12.125 8.72676 11.6641 7.90629 10.8436C7.0858 10.0231 6.62487 8.91032 6.62487 7.75C6.62487 6.58968 7.0858 5.47687 7.90629 4.6564C8.72676 3.83593 9.83955 3.375 10.9999 3.375C12.1602 3.375 13.273 3.83593 14.0935 4.6564C14.9139 5.47687 15.3749 6.58968 15.3749 7.75ZM15.4816 13.1277C16.5864 12.2066 17.3805 10.9675 17.7563 9.57899C18.1318 8.19046 18.0704 6.71995 17.5806 5.36752C17.0907 4.01508 16.1961 2.84638 15.0186 2.02039C13.8409 1.19443 12.4374 0.751312 10.999 0.751312C9.56058 0.751312 8.15708 1.19443 6.97945 2.02039C5.80182 2.84638 4.90722 4.01508 4.4174 5.36752C3.92756 6.71995 3.86624 8.19046 4.2418 9.57899C4.61737 10.9675 5.41157 12.2066 6.51637 13.1277C4.79365 13.9422 3.32484 15.2098 2.26719 16.7949C1.20954 18.38 0.602871 20.2228 0.512116 22.1262C0.503681 22.4692 0.629856 22.8019 0.863656 23.0529C1.09744 23.304 1.42024 23.4536 1.76296 23.4695C2.10567 23.4856 2.44102 23.3668 2.6972 23.1386C2.95338 22.9104 3.11004 22.591 3.13362 22.2487C3.22903 20.2266 4.09944 18.3189 5.56421 16.9217C7.02896 15.5244 8.97554 14.7449 10.9999 14.7449C13.0242 14.7449 14.9708 15.5244 16.4355 16.9217C17.9003 18.3189 18.7707 20.2266 18.8661 22.2487C18.8705 22.4236 18.9095 22.5956 18.9813 22.755C19.053 22.9144 19.1559 23.0579 19.2838 23.1769C19.4118 23.2961 19.5623 23.3885 19.7262 23.4487C19.8904 23.5089 20.0649 23.5357 20.2395 23.5275C20.4142 23.5194 20.5853 23.4764 20.7432 23.4011C20.9008 23.3259 21.0421 23.22 21.1583 23.0894C21.2746 22.9589 21.3635 22.8065 21.4201 22.6411C21.4768 22.4757 21.4997 22.3005 21.4876 22.1262C21.3966 20.2226 20.7897 18.3797 19.7318 16.7945C18.6738 15.2095 17.2047 13.942 15.4816 13.1277Z" fill="black"/>
</svg>
