<svg width="13" height="8" viewBox="0 0 13 8" fill="none" xmlns="http://www.w3.org/2000/svg">
<path d="M0.254416 0.267772C0.173769 0.352092 0.109785 0.45226 0.0661285 0.562539C0.0224716 0.672818 -3.06371e-07 0.791042 -3.01152e-07 0.910439C-2.95933e-07 1.02984 0.0224716 1.14806 0.0661285 1.25834C0.109785 1.36862 0.173769 1.46878 0.254416 1.5531L6.01149 7.58762C6.07558 7.65494 6.15171 7.70835 6.23552 7.74479C6.31933 7.78123 6.40917 7.79999 6.49991 7.79999C6.59064 7.79999 6.68048 7.78123 6.76429 7.74479C6.8481 7.70835 6.92423 7.65494 6.98832 7.58762L12.7454 1.5531C13.0849 1.19728 13.0849 0.623598 12.7454 0.267772C12.4059 -0.0880542 11.8586 -0.0880542 11.5192 0.267772L6.49644 5.52528L1.47372 0.260512C1.14119 -0.0880523 0.586954 -0.0880537 0.254416 0.267772Z" fill="#171717"/>
</svg>
