<svg width="4" height="7" viewBox="0 0 4 7" fill="none" xmlns="http://www.w3.org/2000/svg">
<path d="M0.135927 6.47081C0.178735 6.51175 0.22959 6.54424 0.285577 6.5664C0.341565 6.58857 0.401586 6.59998 0.462203 6.59998C0.522819 6.59998 0.58284 6.58857 0.638828 6.5664C0.694815 6.54424 0.745669 6.51175 0.788477 6.47081L3.85214 3.548C3.88632 3.51546 3.91344 3.47681 3.93194 3.43426C3.95044 3.39171 3.95996 3.3461 3.95996 3.30003C3.95996 3.25397 3.95044 3.20836 3.93194 3.16581C3.91344 3.12326 3.88632 3.08461 3.85214 3.05207L0.788477 0.129258C0.607828 -0.0430862 0.316576 -0.0430862 0.135927 0.129258C-0.0447226 0.301602 -0.0447226 0.579462 0.135927 0.751807L2.80512 3.30179L0.132241 5.85178C-0.0447217 6.02061 -0.0447221 6.30198 0.135927 6.47081Z" fill="#171717"/>
</svg>
