<svg width="13" height="10" viewBox="0 0 13 10" fill="none" xmlns="http://www.w3.org/2000/svg">
<path fill-rule="evenodd" clip-rule="evenodd" d="M12.1 1.7C12.0962 1.88542 12.0251 2.06313 11.9 2.2L6.2 7.9L5.1 9C4.96313 9.12514 4.78542 9.19623 4.6 9.2C4.41458 9.19623 4.23687 9.12514 4.1 9L3 7.9L0.2 5.1C0.0748574 4.96313 0.00377144 4.78542 0 4.6C0.00377144 4.41458 0.0748574 4.23687 0.2 4.1L1.3 3C1.43687 2.87486 1.61458 2.80377 1.8 2.8C1.98542 2.80377 2.16313 2.87486 2.3 3L4.6 5.3L9.7 0.2C9.83687 0.0748572 10.0146 0.00377144 10.2 0C10.3854 0.00377144 10.5631 0.0748572 10.7 0.2L11.8 1.3C12 1.4 12.1 1.5 12.1 1.7Z" fill="white"/>
</svg>
