<svg width="10" height="16" viewBox="0 0 10 16" fill="none" xmlns="http://www.w3.org/2000/svg">
<path d="M1.21708 8.52159H2.97092V15.7419C2.97092 15.8845 3.08642 16 3.22898 16H6.2027C6.34526 16 6.46077 15.8845 6.46077 15.7419V8.55562H8.47698C8.60808 8.55562 8.71839 8.45725 8.73336 8.32703L9.03958 5.66888C9.04798 5.59575 9.02483 5.5225 8.97589 5.46763C8.92692 5.41272 8.85683 5.38128 8.78326 5.38128H6.46089V3.715C6.46089 3.21272 6.73133 2.958 7.26483 2.958C7.34086 2.958 8.78326 2.958 8.78326 2.958C8.92583 2.958 9.04133 2.84244 9.04133 2.69994V0.259969C9.04133 0.117406 8.92583 0.00190625 8.78326 0.00190625H6.69061C6.67586 0.0011875 6.64308 0 6.59477 0C6.23167 0 4.96958 0.0712812 3.97261 0.988437C2.86798 2.00481 3.02155 3.22172 3.05823 3.43272V5.38122H1.21705C1.07448 5.38122 0.958984 5.49672 0.958984 5.63928V8.2635C0.959016 8.40603 1.07452 8.52159 1.21708 8.52159Z" fill="#385C8E"/>
</svg>
