<svg width="60" height="22" viewBox="0 0 60 22" fill="none" xmlns="http://www.w3.org/2000/svg">
<path d="M57.8407 5.26342C57.5868 4.36913 57.1374 3.54237 56.5252 2.84281C55.9129 2.14325 55.1529 1.58834 54.3002 1.21814C52.5014 0.409841 50.2018 0 47.4695 0C43.724 0 39.7318 0.758965 38.7945 1.1764L38.6617 1.22952C36.914 1.88457 35.4884 3.19182 34.6847 4.87635C30.8519 3.35842 27.0495 4.37923 25.5506 4.89912C24.7479 3.2009 23.3142 1.88295 21.5546 1.22573L21.4066 1.1726C20.4921 0.758965 16.4961 0 12.7468 0C10.0108 0 7.70729 0.409841 5.91613 1.21814C5.06145 1.58935 4.29965 2.14533 3.68549 2.8461C3.07133 3.54688 2.62007 4.37503 2.36418 5.27101C1.51793 5.22548 0 5.2103 0 5.69224C0 6.17418 1.22573 6.34116 2.09854 6.4512V6.50813C1.8782 8.30718 2.06893 10.1328 2.65638 11.8474V12.0106L2.7171 12.2687C4.93327 17.756 9.02789 21.0195 13.9042 21.0195H13.9991C14.0902 21.0195 23.0536 20.8032 25.6151 12.1245C26.1703 10.4013 26.3349 8.57609 26.097 6.78135C27.3 6.35633 30.7571 5.3507 34.1193 6.72823C33.8717 8.54634 34.0351 10.3968 34.5974 12.1434C37.1589 20.8222 46.1185 21.0233 46.2096 21.0233H46.2969C51.1732 21.0233 55.2527 17.7598 57.4916 12.2725L57.5523 12.0713V11.8816C58.1348 10.1632 58.3228 8.3357 58.1026 6.53469C58.1026 6.50433 58.1026 6.47018 58.1026 6.43982C58.9488 6.3108 60 6.06034 60 5.68085C60 5.30137 58.7098 5.22548 57.8407 5.26342ZM24.4463 11.4604C22.325 18.5719 15.2628 19.05 14.0067 19.05C12.7506 19.05 7.01663 19.1449 3.84795 11.4604C3.84795 11.4604 1.37752 4.72456 6.31839 2.53494C11.2592 0.345329 20.0746 2.1251 20.993 2.53494C21.9113 2.94479 26.5638 4.37164 24.4349 11.4604H24.4463ZM56.3835 11.4604C53.2149 19.1373 47.4809 19.05 46.2248 19.05C44.9687 19.05 37.9065 18.5795 35.7852 11.4604C33.6639 4.34128 38.3277 2.94099 39.2271 2.53494C40.1265 2.1289 48.9533 0.341534 53.8865 2.53494C58.8198 4.72835 56.3721 11.4604 56.3721 11.4604H56.3835Z" fill="black"/>
</svg>
