<svg width="8" height="13" viewBox="0 0 8 13" fill="none" xmlns="http://www.w3.org/2000/svg">
<path d="M0.248551 11.8305C0.326817 11.9054 0.419793 11.9648 0.522154 12.0053C0.624516 12.0458 0.734252 12.0667 0.845077 12.0667C0.955901 12.0667 1.06564 12.0458 1.168 12.0053C1.27036 11.9648 1.36334 11.9054 1.4416 11.8305L7.04287 6.48677C7.10536 6.42728 7.15493 6.35661 7.18875 6.27882C7.22258 6.20103 7.23999 6.11764 7.23999 6.03342C7.23999 5.9492 7.22258 5.86581 7.18875 5.78801C7.15493 5.71022 7.10536 5.63956 7.04287 5.58007L1.4416 0.23632C1.11132 -0.0787749 0.578829 -0.0787748 0.24855 0.23632C-0.0817295 0.551415 -0.0817294 1.05943 0.24855 1.37452L5.1286 6.03663L0.241812 10.6987C-0.0817276 11.0074 -0.0817285 11.5219 0.248551 11.8305Z" fill="#171717"/>
</svg>
