<svg width="21" height="21" viewBox="0 0 21 21" fill="none" xmlns="http://www.w3.org/2000/svg">
<path d="M16.0125 13.125C14.5687 12.9937 13.7812 14.9625 12.7312 15.4875C11.025 16.4062 7.87498 13.125 7.87498 13.125C7.87498 13.125 4.59373 9.975 5.38123 8.26875C6.03748 7.21875 8.00623 6.43125 7.87498 4.9875C7.74373 3.675 4.85623 -1.05 3.41248 0.262498C0.262479 3.15 -2.0853e-05 4.33125 -2.0853e-05 6.69375C-0.131271 10.7625 5.11873 15.8812 5.11873 15.8812C5.64373 16.4062 10.2375 21.1312 14.3062 21C16.6687 21 17.85 20.7375 20.7375 17.5875C22.05 16.1437 17.4562 13.2562 16.0125 13.125Z" fill="#444444"/>
</svg>
