<svg width="17" height="27" viewBox="0 0 17 27" fill="none" xmlns="http://www.w3.org/2000/svg">
<path d="M15.9386 0H1.06127C0.49687 0 0.0400391 0.456831 0.0400391 1.02123V25.9788C0.0400391 26.5432 0.49687 27 1.06127 27H15.9386C16.503 27 16.9598 26.5432 16.9598 25.9788V1.02123C16.9598 0.456831 16.5023 0 15.9386 0ZM5.89033 1.24522H11.1102C11.2974 1.24522 11.4506 1.39773 11.4506 1.58563C11.4506 1.77354 11.2974 1.92604 11.1102 1.92604H5.89033C5.70243 1.92604 5.54992 1.77354 5.54992 1.58563C5.54992 1.39773 5.70175 1.24522 5.89033 1.24522ZM8.49992 25.8685C7.99884 25.8685 7.59239 25.4613 7.59239 24.9609C7.59239 24.4605 7.99884 24.0527 8.49992 24.0527C9.00101 24.0527 9.40745 24.4605 9.40745 24.9603C9.40745 25.46 9.00101 25.8685 8.49992 25.8685ZM14.9173 23.0315H2.0825V2.83358H14.9173V23.0315Z" fill="#FFCA43"/>
</svg>
