<svg width="32" height="32" viewBox="0 0 32 32" fill="none" xmlns="http://www.w3.org/2000/svg">
<path d="M16.0231 0C7.17349 0 0 7.15622 0 15.9845C0 22.7557 4.2243 28.5369 10.1858 30.865C10.0445 29.5989 9.91918 27.6619 10.238 26.2818C10.5307 25.0318 12.1175 18.3386 12.1175 18.3386C12.1175 18.3386 11.6374 17.3745 11.6374 15.9635C11.6374 13.7444 12.9325 12.0834 14.5354 12.0834C15.9038 12.0834 16.5664 13.1044 16.5664 14.3334C16.5664 15.7035 15.6943 17.7556 15.2401 19.6566C14.8592 21.2457 16.0391 22.5417 17.6109 22.5417C20.4569 22.5417 22.6492 19.5466 22.6492 15.2235C22.6492 11.4104 19.8925 8.73327 15.9559 8.73327C11.3978 8.73327 8.72427 12.1504 8.72427 15.6655C8.72427 17.0405 9.25155 18.5196 9.91517 19.3166C10.0455 19.4776 10.0615 19.6186 10.0244 19.7806C9.90414 20.2806 9.63248 21.3797 9.58035 21.5987C9.50717 21.8957 9.35079 21.9577 9.04304 21.8177C7.04818 20.8957 5.79011 17.9786 5.79011 15.6245C5.79011 10.5883 9.46607 5.95219 16.3789 5.95219C21.9345 5.95219 26.257 9.91031 26.257 15.1815C26.257 20.6976 22.7745 25.1348 17.9297 25.1348C16.3057 25.1348 14.781 24.2958 14.2437 23.2957L13.2413 27.0928C12.8814 28.4839 11.899 30.2279 11.2364 31.286C12.7401 31.744 14.3219 32 15.982 32C24.8165 32 32 24.8488 32 16.0155C32 7.18722 24.8155 0.0360011 15.982 0.0360011L16.0231 0Z" fill="#1A1A1A"/>
</svg>
