<svg width="60" height="23" viewBox="0 0 60 23" fill="none" xmlns="http://www.w3.org/2000/svg">
<path d="M60 9.9885C60 9.27531 58.4663 9.30598 57.569 9.3865C56.7485 4.07975 51.9325 0 46.1541 0C40.9586 0 36.5683 3.29755 35.1112 7.81825C33.5412 7.01832 31.8042 6.60131 30.0422 6.60131C28.2802 6.60131 26.5431 7.01832 24.9732 7.81825C23.5276 3.30138 19.1258 0 13.9264 0C8.14801 0 3.34356 4.08359 2.50767 9.39417C1.61043 9.30598 0 9.2523 0 9.9885C0 10.7247 1.46856 10.7899 2.38497 10.7822C2.38497 10.8704 2.38497 10.9586 2.38497 11.0468C2.38497 17.1357 7.56519 22.0897 13.9302 22.0897C20.2952 22.0897 25.4793 17.1357 25.4793 11.0468C25.4786 10.3527 25.4092 9.66046 25.2722 8.98006C26.1294 8.50716 27.054 8.16837 28.0138 7.97546C30.3275 7.51367 32.7296 7.86303 34.816 8.96472C34.6755 9.64984 34.6049 10.3474 34.6051 11.0468C34.6051 17.1357 39.7853 22.0897 46.1541 22.0897C52.523 22.0897 57.6994 17.1357 57.6994 11.0468C57.6994 10.9586 57.6994 10.8704 57.6994 10.7822C58.612 10.7822 60 10.671 60 9.9885ZM13.9264 20.9394C8.19402 20.9394 3.53144 16.4877 3.53144 11.0468C3.53144 5.60583 8.19402 1.15031 13.9264 1.15031C19.6587 1.15031 24.3213 5.58666 24.3213 11.0429C24.3213 16.4992 19.6587 20.9394 13.9264 20.9394ZM46.1541 20.9394C40.4026 20.9394 35.7592 16.4992 35.7592 11.0468C35.7592 5.59433 40.4218 1.15031 46.1541 1.15031C51.8865 1.15031 56.5491 5.58666 56.5491 11.0429C56.5491 16.4992 51.8865 20.9394 46.1541 20.9394Z" fill="black"/>
</svg>
