<svg width="28" height="28" viewBox="0 0 28 28" fill="none" xmlns="http://www.w3.org/2000/svg">
<path d="M0 9.96751V14.124V21.9781C0 23.8134 1.48783 25.3012 3.32309 25.3012H24.6769C26.5122 25.3012 27.9999 23.8133 27.9999 21.9781V14.124V9.96756V9.20911H0V9.96751ZM21.1106 11.7034C21.1106 11.525 21.2551 11.3805 21.4334 11.3805H24.3379C24.5164 11.3805 24.6609 11.525 24.6609 11.7034V14.04C24.6609 14.2183 24.5164 14.3628 24.3379 14.3628H21.4334C21.2551 14.3628 21.1106 14.2183 21.1106 14.04V11.7034ZM21.1106 15.9512C21.1106 15.7729 21.2551 15.6282 21.4334 15.6282H24.3379C24.5164 15.6282 24.6609 15.7729 24.6609 15.9512V18.2877C24.6609 18.4661 24.5164 18.6106 24.3379 18.6106H21.4334C21.2551 18.6106 21.1106 18.4661 21.1106 18.2877V15.9512ZM21.1106 20.1989C21.1106 20.0206 21.2551 19.876 21.4334 19.876H24.3379C24.5164 19.876 24.6609 20.0206 24.6609 20.1989V22.5354C24.6609 22.7138 24.5164 22.8583 24.3379 22.8583H21.4334C21.2551 22.8583 21.1106 22.7138 21.1106 22.5354V20.1989ZM15.1867 11.7034C15.1867 11.525 15.3314 11.3805 15.5097 11.3805H18.4141C18.5926 11.3805 18.7371 11.525 18.7371 11.7034V14.04C18.7371 14.2183 18.5926 14.3628 18.4141 14.3628H15.5097C15.3314 14.3628 15.1867 14.2183 15.1867 14.04V11.7034ZM15.1867 15.9512C15.1867 15.7729 15.3314 15.6282 15.5097 15.6282H18.4141C18.5926 15.6282 18.7371 15.7729 18.7371 15.9512V18.2877C18.7371 18.4661 18.5926 18.6106 18.4141 18.6106H15.5097C15.3314 18.6106 15.1867 18.4661 15.1867 18.2877V15.9512ZM15.1867 20.1989C15.1867 20.0206 15.3314 19.876 15.5097 19.876H18.4141C18.5926 19.876 18.7371 20.0206 18.7371 20.1989V22.5354C18.7371 22.7138 18.5926 22.8583 18.4141 22.8583H15.5097C15.3314 22.8583 15.1867 22.7138 15.1867 22.5354V20.1989ZM9.26291 11.7034C9.26291 11.525 9.40749 11.3805 9.58583 11.3805H12.4903C12.6687 11.3805 12.8133 11.525 12.8133 11.7034V14.04C12.8133 14.2183 12.6687 14.3628 12.4903 14.3628H9.58583C9.40749 14.3628 9.26291 14.2183 9.26291 14.04V11.7034ZM9.26291 15.9512C9.26291 15.7729 9.40749 15.6282 9.58583 15.6282H12.4903C12.6687 15.6282 12.8133 15.7729 12.8133 15.9512V18.2877C12.8133 18.4661 12.6687 18.6106 12.4903 18.6106H9.58583C9.40749 18.6106 9.26291 18.4661 9.26291 18.2877V15.9512ZM9.26291 20.1989C9.26291 20.0206 9.40749 19.876 9.58583 19.876H12.4903C12.6687 19.876 12.8133 20.0206 12.8133 20.1989V22.5354C12.8133 22.7138 12.6687 22.8583 12.4903 22.8583H9.58583C9.40749 22.8583 9.26291 22.7138 9.26291 22.5354V20.1989ZM3.33914 11.7034C3.33914 11.525 3.48371 11.3805 3.662 11.3805H6.56646C6.74491 11.3805 6.88943 11.525 6.88943 11.7034V14.04C6.88943 14.2183 6.74491 14.3628 6.56646 14.3628H3.662C3.48371 14.3628 3.33914 14.2183 3.33914 14.04V11.7034ZM3.33914 15.9512C3.33914 15.7729 3.48371 15.6282 3.662 15.6282H6.56646C6.74491 15.6282 6.88943 15.7729 6.88943 15.9512V18.2877C6.88943 18.4661 6.74491 18.6106 6.56646 18.6106H3.662C3.48371 18.6106 3.33914 18.4661 3.33914 18.2877V15.9512ZM3.33914 20.1989C3.33914 20.0206 3.48371 19.876 3.662 19.876H6.56646C6.74491 19.876 6.88943 20.0206 6.88943 20.1989V22.5354C6.88943 22.7138 6.74491 22.8583 6.56646 22.8583H3.662C3.48371 22.8583 3.33914 22.7138 3.33914 22.5354V20.1989Z" fill="#FFCA43"/>
<path d="M27.9829 5.68216C27.8127 4.00651 26.3975 2.69879 24.677 2.69879H24.6769H23.5407V4.40033C23.895 4.60022 24.1346 4.97948 24.1346 5.41525C24.1346 6.05879 23.6129 6.58051 22.9693 6.58051C22.3258 6.58051 21.8041 6.05879 21.8041 5.41525C21.8041 4.97948 22.0437 4.60022 22.3979 4.40033V2.69879H17.5612V4.40033C17.9154 4.60022 18.155 4.97948 18.155 5.41525C18.155 6.05879 17.6333 6.58051 16.9898 6.58051C16.3462 6.58051 15.8246 6.05879 15.8246 5.41525C15.8246 4.97948 16.0642 4.60022 16.4184 4.40033V2.69879H11.5817V4.40033C11.9359 4.60022 12.1755 4.97948 12.1755 5.41525C12.1755 6.05879 11.6538 6.58051 11.0103 6.58051C10.3667 6.58051 9.84503 6.05879 9.84503 5.41525C9.84503 4.97948 10.0846 4.60022 10.4389 4.40033V2.69879H5.60211V4.40028C5.95634 4.60016 6.19594 4.97942 6.19594 5.41519C6.19594 6.05874 5.67429 6.58045 5.03069 6.58045C4.38709 6.58045 3.86543 6.05874 3.86543 5.41519C3.86543 4.97942 4.10503 4.60016 4.45926 4.40028V2.69879H3.32309C1.77457 2.69879 0.473429 3.75799 0.104629 5.19142C0.0909714 5.24451 0.0785714 5.29811 0.0675429 5.35222C0.0453714 5.46039 0.0285143 5.57045 0.0172 5.68216C0.00588571 5.79388 0 5.90719 0 6.02194V8.06622H28V6.02194C28 5.90719 27.9942 5.79388 27.9829 5.68216Z" fill="#FFCA43"/>
</svg>
