<svg width="28" height="32" viewBox="0 0 28 32" fill="none" xmlns="http://www.w3.org/2000/svg">
<path d="M3.77307 20.2572L3.85303 20.475C3.84303 20.4513 3.81305 20.3756 3.77307 20.2572ZM7.01627 15.2886C7.16119 14.1093 7.65092 13.4509 8.57041 12.7736C9.88968 11.8595 11.5338 12.3757 11.5338 12.3757V9.30178C11.9335 9.2923 12.3333 9.31599 12.7281 9.37282V13.3277C12.7281 13.3277 11.084 12.8115 9.76475 13.7256C8.84526 14.4029 8.35553 15.0613 8.21061 16.2407C8.20562 16.8801 8.32555 17.7184 8.88524 18.4384C8.74532 18.3673 8.60539 18.2868 8.46047 18.1968C7.23615 17.3821 7.01128 16.1554 7.01627 15.2886ZM19.5293 3.61805C18.6248 2.63761 18.28 1.64296 18.1551 0.946705H19.2945C19.2945 0.946705 19.0696 2.77497 20.7237 4.57008L20.7487 4.59376C20.2989 4.31905 19.8891 3.9875 19.5293 3.61805ZM25.0213 6.40308V10.2775C25.0213 10.2775 23.5671 10.2206 22.4877 9.95067C20.9835 9.57175 20.0191 8.98917 20.0191 8.98917C20.0191 8.98917 19.3494 8.57237 19.2995 8.54395V16.5485C19.2995 16.9937 19.1745 18.1068 18.7997 19.0352C18.31 20.2477 17.5504 21.0481 17.4105 21.2092C17.4105 21.2092 16.486 22.2891 14.8619 23.0138C13.3977 23.6674 12.1085 23.6532 11.7237 23.6674C11.7237 23.6674 9.4999 23.7526 7.49601 22.4691C7.06125 22.1849 6.65647 21.8628 6.28668 21.5076L6.29667 21.517C8.30056 22.8054 10.5243 22.7154 10.5243 22.7154C10.9091 22.7012 12.1984 22.7154 13.6626 22.0617C15.2867 21.3371 16.2112 20.2572 16.2112 20.2572C16.3511 20.0961 17.1107 19.2957 17.6004 18.0831C17.9752 17.1548 18.1001 16.0417 18.1001 15.5965V7.59666C18.1551 7.62508 18.8197 8.04188 18.8197 8.04188C18.8197 8.04188 19.7842 8.62447 21.2884 9.00338C22.3678 9.27336 23.822 9.3302 23.822 9.3302V6.29414C24.3217 6.40308 24.7465 6.4315 25.0213 6.40308Z" fill="#fff"/>
<path d="M23.8298 6.2907V9.32749C23.8298 9.32749 22.3792 9.27064 21.3024 9.0006C19.802 8.62159 18.8399 8.03887 18.8399 8.03887C18.8399 8.03887 18.1719 7.62196 18.1221 7.59353V15.6C18.1221 16.0454 17.9975 17.1587 17.6236 18.0873C17.1351 19.3001 16.3774 20.1008 16.2378 20.2618C16.2378 20.2618 15.3156 21.342 13.6955 22.0669C12.2349 22.7206 10.9488 22.7064 10.565 22.7206C10.565 22.7206 8.34671 22.8059 6.34777 21.522L6.3378 21.5126C6.12844 21.3088 5.92904 21.0956 5.7446 20.873C5.10653 20.1008 4.71771 19.1911 4.61802 18.9306V18.9258C4.4585 18.4758 4.1295 17.3861 4.17436 16.3391C4.25412 14.4867 4.91212 13.345 5.08659 13.0607C5.5452 12.2837 6.14838 11.5873 6.85623 11.0046C7.48433 10.5024 8.19716 10.0997 8.95985 9.8202C9.78734 9.48857 10.6747 9.31328 11.5719 9.29906V12.3738C11.5719 12.3738 9.93191 11.8574 8.6159 12.7717C7.69868 13.4492 7.21016 14.1077 7.06559 15.2874C7.06061 16.1543 7.28493 17.3814 8.51121 18.201C8.65577 18.291 8.79535 18.3715 8.93493 18.4426C9.14928 18.7174 9.40849 18.959 9.70759 19.158C10.9089 19.9113 11.9109 19.9634 13.197 19.4754C14.0544 19.1485 14.6975 18.4142 14.9966 17.5946C15.186 17.0829 15.181 16.5713 15.181 16.0406V0.946705H18.1719C18.2965 1.64313 18.6355 2.63802 19.5428 3.6187C19.9067 3.98823 20.3154 4.31986 20.7591 4.59464C20.8887 4.73203 21.5616 5.3953 22.429 5.80747C22.8727 6.02066 23.3462 6.18173 23.8298 6.2907Z" fill="#fff"/>
<path d="M3.40857 18.0511L3.48332 18.2554C3.47335 18.2317 3.44345 18.1604 3.40857 18.0511Z" fill="#fff"/>
<path d="M8.93996 9.85945C8.17254 10.1398 7.46493 10.5437 6.83704 11.0473C6.12444 11.6318 5.52645 12.335 5.06799 13.1143C4.89358 13.3993 4.23579 14.5397 4.15606 16.4023C4.11121 17.4572 4.44509 18.5453 4.59957 18.9967V19.0014C4.69923 19.258 5.08793 20.175 5.72578 20.9495C5.91016 21.1729 6.10949 21.3867 6.31878 21.591C5.64106 21.1444 5.04308 20.6074 4.5298 19.9945C3.89693 19.2295 3.50824 18.3219 3.40858 18.0559V18.0463C3.24911 17.595 2.91524 16.5021 2.96507 15.4473C3.0448 13.5894 3.70259 12.4443 3.877 12.1592C4.33546 11.3799 4.93345 10.6767 5.64605 10.0923C6.27393 9.58861 6.98654 9.18473 7.74897 8.90439C8.22736 8.71433 8.72568 8.57653 9.23397 8.48625C10.0014 8.35796 10.7838 8.34846 11.5562 8.45299V9.33678C10.6542 9.35103 9.76718 9.52684 8.93996 9.85945Z" fill="#fff"/>
<path d="M18.154 0.955059H15.164V16.0935C15.164 16.6256 15.164 17.1388 14.9796 17.652C14.6757 18.4692 14.0328 19.2105 13.1807 19.5383C11.895 20.0325 10.8884 19.9755 9.69244 19.22C9.39345 19.0252 9.13432 18.7828 8.92004 18.5072C9.94161 19.0252 10.8535 19.0157 11.9847 18.5833C12.8418 18.2554 13.4847 17.5142 13.7837 16.6969C13.973 16.1837 13.9681 15.6706 13.9681 15.1384V0H18.0991C18.0942 0 18.0493 0.375371 18.154 0.955059ZM23.8049 5.47377V6.31479C23.3216 6.20551 22.8482 6.04396 22.4047 5.83014C21.5426 5.4215 20.8698 4.75154 20.7353 4.61374C20.8898 4.70877 21.0442 4.7943 21.2087 4.87508C22.2651 5.37399 23.2967 5.52604 23.8049 5.47377Z" fill="#fff"/>
<path d="M18.2681 29.647C18.2681 29.7539 18.2822 29.8562 18.3151 29.9585C18.3151 29.9678 18.3198 29.9725 18.3198 29.9818C18.4748 30.4747 18.935 30.8095 19.4563 30.8095V31.9998C18.8692 31.9998 18.4513 32.0184 17.8126 31.6464C17.0894 31.2187 16.6808 30.4421 16.6808 29.6331C16.6808 28.8007 17.1363 27.9637 17.9159 27.5592C18.4795 27.2663 18.9068 27.2663 19.461 27.2663V28.4566C18.8035 28.4566 18.2728 28.9821 18.2728 29.6331L18.2681 29.647Z" fill="#fff"/>
<path d="M20.739 29.647C20.739 29.7539 20.7239 29.8562 20.6887 29.9585C20.6887 29.9678 20.6837 29.9725 20.6837 29.9818C20.5176 30.4747 20.0245 30.8095 19.466 30.8095V31.9998C20.09 31.9998 20.5428 32.0184 21.2221 31.6464C22.002 31.2187 22.4397 30.4421 22.4397 29.6331C22.4397 28.8007 21.9517 27.9637 21.1164 27.5592C20.5126 27.2663 20.0547 27.2663 19.461 27.2663V28.4566C20.1654 28.4566 20.734 28.9821 20.734 29.6331V29.647H20.739Z" fill="#fff"/>
<path d="M0 26.1302H4.67665L4.24242 27.3427H3.01961V31.9812H1.51729V27.3427H0V26.1302ZM12.3979 26.1302V27.3427H13.9152V31.9812H15.4225V27.3427H16.6453L17.0795 26.1302H12.3979ZM5.69483 27.5071C6.09911 27.5071 6.42353 27.2017 6.42353 26.821C6.42353 26.4403 6.09911 26.1349 5.69483 26.1349C5.29055 26.1349 4.96613 26.4403 4.96613 26.821C4.96613 27.2017 5.29055 27.5071 5.69483 27.5071ZM4.96613 31.9765H6.44349V27.9912H4.96613V31.9765ZM11.754 27.4742H10.0271L8.53975 28.8747V26.1302H7.07237L7.06738 31.9718H8.54973V30.4491L9.00891 30.0543L10.4463 31.9718H12.0285L9.94724 29.1708L11.754 27.4742ZM25.9187 29.1755L27.7255 27.4742H25.9986L24.5112 28.8747V26.1302H23.0438L23.0339 31.9765H24.5162V30.4538L24.9804 30.059L26.4178 31.9765H28L25.9187 29.1755ZM22.1205 29.6079C22.1205 30.9285 20.9676 32 19.5451 32C18.1226 32 16.9697 30.9285 16.9697 29.6079C16.9697 28.2873 18.1226 27.2158 19.5451 27.2158C20.9676 27.2158 22.1205 28.2873 22.1205 29.6079ZM20.8078 29.6079C20.8078 28.9499 20.2439 28.4189 19.5451 28.4189C18.8463 28.4189 18.2824 28.9499 18.2824 29.6079C18.2824 30.2658 18.8463 30.7969 19.5451 30.7969C20.2439 30.7969 20.8078 30.2658 20.8078 29.6079Z" fill="#fff"/>
</svg>
