<svg width="338" height="951" viewBox="0 0 338 951" xmlns="http://www.w3.org/2000/svg"><title>Shape</title><path d="M859.887 831.497C762.712 927.542 642.937 975 502.825 975c-141.243 0-259.887-47.458-357.062-143.503C48.588 735.452 0 616.807 0 474.435c0-143.503 48.588-262.147 146.893-357.062C244.068 22.458 363.842-25 503.955-25s258.757 47.458 357.062 142.373c97.175 94.915 146.893 214.69 146.893 357.062-2.26 142.373-50.848 261.017-148.023 357.062zM780.791 191.95C703.955 115.113 611.299 75.565 502.825 75.565c-109.605 0-202.26 38.418-277.966 116.384-76.836 76.836-114.125 171.752-114.125 282.486 0 110.734 38.419 205.65 114.125 282.486 76.836 76.836 169.491 116.384 277.966 116.384 109.604 0 202.26-38.418 277.966-116.384 76.836-76.836 114.124-171.752 114.124-282.486 0-110.734-38.418-205.65-114.124-282.486z" fill="#FDEC06" opacity=".049"/></svg>