<svg width="332" height="255" viewBox="0 0 332 255" xmlns="http://www.w3.org/2000/svg"><title>partners</title><g fill="none"><path d="M39.962 140.85L.302 101.188 98.49 3l39.66 39.66-98.189 98.19zm-28.98-39.661l28.98 28.98 87.547-87.546-28.98-28.981-87.548 87.547z" fill="#FFF"/><path fill="#FFF" d="M126.316 52.2l5.337-5.336 36.369 36.369-5.337 5.336zm-82 81.986l5.336-5.337 40.906 40.906-5.337 5.336z"/><path d="M87.585 192.132c-6.755-6.755-6.755-17.774 0-24.566l15.51-15.51c6.754-6.754 17.773-6.754 24.565 0 6.755 6.755 6.755 17.774 0 24.567l-15.51 15.51c-6.792 6.792-17.81 6.792-24.565 0zm34.717-34.717c-3.811-3.811-10.038-3.811-13.887 0l-15.51 15.51c-3.81 3.81-3.81 10.037 0 13.886 3.812 3.812 10.038 3.812 13.887 0l15.51-15.51c3.811-3.81 3.811-10.037 0-13.886z" fill="#FFF"/><path d="M106.792 211.377c-6.754-6.754-6.754-17.773 0-24.566l15.51-15.51c6.755-6.754 17.773-6.754 24.566 0 6.755 6.756 6.755 17.774 0 24.567l-15.51 15.51c-6.792 6.754-17.773 6.754-24.566 0zm34.717-34.717c-3.81-3.81-10.037-3.81-13.886 0l-15.51 15.51c-3.811 3.811-3.811 10.038 0 13.887 3.812 3.81 10.038 3.81 13.887 0l15.51-15.51c3.81-3.849 3.81-10.075 0-13.887z" fill="#FFF"/><path d="M126.038 230.585c-6.755-6.755-6.755-17.774 0-24.566l15.51-15.51c6.754-6.754 17.773-6.754 24.565 0 6.755 6.755 6.755 17.774 0 24.566l-15.51 15.51c-6.792 6.792-17.81 6.792-24.565 0zm34.717-34.717c-3.812-3.811-10.038-3.811-13.887 0l-15.51 15.51c-3.81 3.81-3.81 10.037 0 13.886 3.812 3.811 10.038 3.811 13.887 0l15.51-15.51c3.811-3.81 3.811-10.037 0-13.886z" fill="#FFF"/><path d="M145.245 249.83c-6.754-6.755-6.754-17.773 0-24.566l15.51-15.51c6.754-6.754 17.773-6.754 24.566 0 6.754 6.755 6.754 17.774 0 24.567l-15.51 15.51c-6.792 6.754-17.811 6.754-24.566 0zm34.717-34.717c-3.811-3.811-10.037-3.811-13.887 0l-15.509 15.51c-3.811 3.811-3.811 10.037 0 13.886 3.811 3.812 10.038 3.812 13.887 0L179.963 229c3.81-3.85 3.81-10.075 0-13.887zm111.888-72.377L189.433 40.32 229.094.66 331.51 103.074l-39.66 39.66zM200.112 40.32l91.736 91.736 28.981-28.982-91.736-91.735-28.98 28.98z" fill="#FFF"/><path fill="#FFF" d="M244.138 164.693l35.996-35.995 5.336 5.337-35.995 35.995z"/><path d="M247.358 162.585l-63.32-63.32-31.51 31.509c-3.811 3.81-10.037 3.81-13.886 0-3.85-3.812-3.812-10.038 0-13.887l66.377-66.378-5.32-5.32-66.378 66.377c-6.755 6.755-6.755 17.774 0 24.566 6.754 6.755 17.773 6.755 24.566 0l26.15-26.15L242 167.942c3.811 3.812 3.811 10.038 0 13.887-3.811 3.812-10.038 3.812-13.887 0L180 133.68l-5.32 5.32 48.112 48.113c6.755 6.755 17.774 6.755 24.566 0 6.755-6.755 6.755-17.773 0-24.528z" fill="#FFF"/><path d="M228.113 181.83L180 133.68l-5.32 5.32 48.112 48.113c3.812 3.812 3.812 10.038 0 13.887-3.81 3.811-10.037 3.811-13.886 0l-48.114-48.113-5.32 5.32 48.113 48.114c6.755 6.754 17.773 6.754 24.566 0 6.755-6.717 6.755-17.736-.038-24.49z" fill="#FFF"/><path d="M208.906 201.038l-48.114-48.113-5.32 5.32 48.113 48.113c3.811 3.812 3.811 10.038 0 13.887-3.623 3.623-9.396 3.812-13.245.566a17.327 17.327 0 0 1-1.359 8.038c6.49 3.17 14.566 2.076 19.925-3.283 6.754-6.755 6.754-17.774 0-24.528z" fill="#FFF"/><path d="M52.594 110.695C49.702 113.576 46.137 115 41.966 115c-4.204 0-7.735-1.424-10.627-4.305-2.893-2.881-4.339-6.44-4.339-10.712 0-4.305 1.446-7.864 4.372-10.712C34.265 86.424 37.83 85 42 85s7.702 1.424 10.628 4.271C55.52 92.12 57 95.711 57 99.983c-.067 4.271-1.513 7.83-4.406 10.712zM50.24 91.508c-2.287-2.305-5.045-3.491-8.274-3.491-3.262 0-6.02 1.152-8.273 3.491-2.287 2.306-3.397 5.153-3.397 8.475s1.143 6.17 3.397 8.475c2.287 2.305 5.045 3.491 8.273 3.491 3.263 0 6.02-1.152 8.274-3.491 2.287-2.305 3.397-5.153 3.397-8.475s-1.144-6.17-3.397-8.475zm249.354 19.187c-2.892 2.881-6.457 4.305-10.628 4.305-4.204 0-7.735-1.424-10.627-4.305-2.893-2.881-4.339-6.44-4.339-10.712 0-4.305 1.446-7.864 4.372-10.712C281.265 86.424 284.83 85 289 85s7.702 1.424 10.628 4.271C302.52 92.12 304 95.711 304 99.983c-.067 4.271-1.513 7.83-4.406 10.712zm-2.354-19.187c-2.287-2.305-5.045-3.491-8.274-3.491-3.262 0-6.02 1.152-8.273 3.491-2.287 2.306-3.397 5.153-3.397 8.475s1.143 6.17 3.397 8.475c2.287 2.305 5.045 3.491 8.273 3.491 3.263 0 6.02-1.152 8.274-3.491 2.287-2.305 3.397-5.153 3.397-8.475s-1.144-6.17-3.397-8.475z" stroke="#FDEC06" fill="#FBEA04"/></g></svg>