<svg width="380" height="250" viewBox="0 0 380 250" xmlns="http://www.w3.org/2000/svg"><title>Group 4</title><g fill="none"><path d="M367.791 68.52C360.017 76.203 350.435 80 339.226 80c-11.3 0-20.791-3.797-28.565-11.48C302.887 60.836 299 51.345 299 39.955c0-11.48 3.887-20.972 11.751-28.565C318.525 3.797 328.107 0 339.316 0c11.21 0 20.7 3.797 28.565 11.39 7.774 7.593 11.752 17.175 11.752 28.565-.181 11.39-4.068 20.881-11.842 28.565zm-6.328-51.164c-6.147-6.147-13.559-9.31-22.237-9.31-8.768 0-16.18 3.073-22.237 9.31-6.147 6.147-9.13 13.74-9.13 22.599s3.073 16.452 9.13 22.599c6.147 6.147 13.559 9.31 22.237 9.31 8.768 0 16.18-3.073 22.237-9.31 6.147-6.147 9.13-13.74 9.13-22.6 0-8.858-3.073-16.451-9.13-22.598z" fill="#FCEB06"/><g fill="#FFF"><path d="M267.481 249.377H52.596V140.848h214.885v108.529zm-207.127-7.758h199.37v-93.013H60.354v93.013z"/><path d="M294.943 148.606H25.213L64 48.03c1.784-4.654 6.361-7.796 11.326-7.796h172.839a12.13 12.13 0 0 1 11.442 8.106l35.336 100.267zm-258.405-7.758h247.467l-31.651-89.91c-.62-1.745-2.289-2.948-4.15-2.948H75.326c-1.784 0-3.452 1.125-4.111 2.793l-34.677 90.065z"/><path d="M274.114 148.606H46.352l32.814-85.14c1.59-4.15 5.663-6.904 10.085-6.904h144.834c4.577 0 8.688 2.91 10.201 7.215l29.828 84.83zm-216.475-7.758h205.537l-26.22-74.472c-.428-1.203-1.591-2.056-2.871-2.056H89.25c-1.241 0-2.405.776-2.832 1.94l-28.78 74.588z"/><path d="M73.775 85.459h175.942v7.758H73.775zm-11.637 26.027h196.15v7.758H62.138zm124.82 137.891H133.43v-84.209h53.528v84.209zm-45.77-7.758H179.2v-68.693h-38.012v68.693zm108.645-32.892h-53.528v-43.559h53.528v43.56zm-45.77-7.757h38.012v-28.044h-38.012v28.044zm-80.368 7.757H70.167v-43.559h53.528v43.56zm-45.77-7.757h38.012v-28.044H77.925v28.044z"/><path d="M121.513 144.494l4.656-84.276 7.747.428-4.657 84.276zm64.057-83.851l7.746-.428 4.654 84.276-7.746.428zM.233 241.619h319.612v7.758H.233z"/></g></g></svg>