<svg width="56" height="78" viewBox="0 0 56 78" xmlns="http://www.w3.org/2000/svg"><title>location-pin (4)</title><g fill="none"><path d="M28 0C12.7 0 .1 12.4.1 27.7c0 6.1 3.2 14.4 10.3 27.1 4.6 8.3 9.3 15.2 9.5 15.5l3.3 4.9c1.1 1.6 2.9 2.6 4.8 2.6s3.7-1 4.8-2.6l3.3-4.9c.2-.3 4.8-7.2 9.5-15.5 7.1-12.7 10.3-21.1 10.3-27.1C55.9 12.4 43.4 0 28 0z" fill="#FDEC06"/><g fill="#0C0B06"><path d="M28 4C14.9 4 4.1 14.6 4.1 27.7 4.1 33 7.3 41 14 52.9c4.6 8.1 9.1 15 9.3 15.3l3.3 4.9c.3.5.9.8 1.5.8s1.2-.3 1.5-.8l3.3-4.9c.2-.3 4.7-7.1 9.3-15.3C48.8 41 51.9 33 51.9 27.7 51.9 14.6 41.2 4 28 4zm11 47.2c-4.5 8.1-9 14.8-9.2 15.1L28 68.9l-1.8-2.7c-.2-.3-4.7-7-9.2-15.1-6.1-11-9.3-18.9-9.3-23.4C7.7 16.6 16.8 7.6 28 7.6c11.2 0 20.3 9.1 20.3 20.2.1 4.4-3.1 12.3-9.3 23.4z"/><path d="M28 14.4c-7.3 0-13.3 5.9-13.3 13.2 0 7.3 6 13.1 13.3 13.1 7.3 0 13.3-5.9 13.3-13.2 0-7.3-6-13.1-13.3-13.1zm0 22.8c-5.3 0-9.7-4.3-9.7-9.6S22.7 18 28 18c5.3 0 9.7 4.3 9.7 9.6s-4.3 9.6-9.7 9.6z"/></g></g></svg>