<svg width="263" height="64" viewBox="0 0 263 64" xmlns="http://www.w3.org/2000/svg"><title>Group 4</title><g fill="none" fill-rule="evenodd"><path d="M55.071 54.214c-6.142 6.072-13.714 9.072-22.571 9.072-8.929 0-16.429-3-22.571-9.072C3.786 48.143.714 40.643.714 31.643.714 22.57 3.786 15.07 10 9.07c6.143-6 13.714-9 22.571-9 8.858 0 16.358 3 22.572 9 6.143 6 9.286 13.572 9.286 22.572-.143 9-3.215 16.5-9.358 22.571zm-5-40.428C45.214 8.929 39.357 6.429 32.5 6.429c-6.929 0-12.786 2.428-17.571 7.357-4.858 4.857-7.215 10.857-7.215 17.857s2.429 13 7.215 17.857c4.857 4.857 10.714 7.357 17.571 7.357 6.929 0 12.786-2.428 17.571-7.357 4.858-4.857 7.215-10.857 7.215-17.857s-2.429-13-7.215-17.857z" fill="#FCEB06" fill-rule="nonzero"/><path d="M77.6 39.2c-1.307 0-2.267-.307-2.88-.92s-.92-1.573-.92-2.88V29c0-1.4.317-2.417.95-3.05S76.4 25 77.8 25H85v2.8h-6.4c-.8 0-1.2.4-1.2 1.2v6.4c0 .307.09.55.27.73.18.18.423.27.73.27a61.188 61.188 0 0 0 1.92-.04l1.09-.04c.367-.013.723-.033 1.07-.06.813-.053 1.653-.107 2.52-.16v2.7c-.893.08-1.78.147-2.66.2-.76.053-1.563.1-2.41.14-.847.04-1.623.06-2.33.06zM85 25h4l3.6 7.1 3-7.1h4l-5.1 11a8.302 8.302 0 0 1-.75 1.35 4.614 4.614 0 0 1-.93 1 3.836 3.836 0 0 1-1.19.63c-.447.147-.957.22-1.53.22-.28 0-.55-.01-.81-.03A15.098 15.098 0 0 1 87.9 39v-2.7h1.8a.9.9 0 0 0 .5-.13.836.836 0 0 0 .3-.33.948.948 0 0 0 .1-.43.83.83 0 0 0-.1-.41L85 25zm18.6 5.8c0 .307.09.55.27.73.18.18.423.27.73.27.4 0 .827-.01 1.28-.03.453-.02.873-.043 1.26-.07.453-.027.907-.06 1.36-.1V25h3.6v14h-3.6v-4.6c-.48.04-.987.073-1.52.1a67.3 67.3 0 0 1-1.51.07c-.553.02-1.11.03-1.67.03-1.307 0-2.267-.307-2.88-.92s-.92-1.573-.92-2.88V25h3.6v5.8zM117 39h-3.9l5.3-14h4l5.3 14h-3.9l-.9-2.5h-5L117 39zm1.8-5.1h3.2l-1.6-4.7-1.6 4.7zm13.3 5.3c-1.307 0-2.267-.307-2.88-.92s-.92-1.573-.92-2.88V29c0-1.4.317-2.417.95-3.05s1.65-.95 3.05-.95h7.2v2.8h-6.4c-.8 0-1.2.4-1.2 1.2v6.4c0 .307.09.55.27.73.18.18.423.27.73.27a61.188 61.188 0 0 0 1.92-.04l1.09-.04c.367-.013.723-.033 1.07-.06.813-.053 1.653-.107 2.52-.16v2.7c-.893.08-1.78.147-2.66.2-.76.053-1.563.1-2.41.14-.847.04-1.623.06-2.33.06zm21.2-.2h-3.6v-5.7h-5V39h-3.6V25h3.6v5.5h5V25h3.6v14zm4.9 0h-3.9l5.3-14h4l5.3 14H165l-.9-2.5h-5l-.9 2.5zm1.8-5.1h3.2l-1.6-4.7-1.6 4.7zm27 5.1h-11.1V25H187v2.8h-7.5v2.7h5.9v2.8h-5.9v2.9h7.5V39zm13.8 0h-3.6v-5.7h-5V39h-3.6V25h3.6v5.5h5V25h3.6v14zm13.5 0h-11.1V25h11.1v2.8h-7.5v2.7h5.9v2.8h-5.9v2.9h7.5V39zm1.6-14h8.4c1.4 0 2.417.317 3.05.95s.95 1.65.95 3.05v2c0 1.4-.317 2.417-.95 3.05s-1.65.95-3.05.95h-4.8v4h-3.6V25zm8.8 4c0-.8-.4-1.2-1.2-1.2h-4v4.4h4c.8 0 1.2-.4 1.2-1.2v-2zm9 10h-3.6V25H241v2.8h-7.3V39zm15.3 0h-7.2v-2.8h1.8v-8.4h-1.8V25h7.2v2.8h-1.8v8.4h1.8V39zm13.8 0h-3.6v-4.6h-2.7L254 39h-3.8l2.6-4.8c-.853-.2-1.467-.607-1.84-1.22s-.56-1.473-.56-2.58V29c0-1.4.317-2.417.95-3.05S253 25 254.4 25h8.4v14zm-8.8-8.6c0 .8.4 1.2 1.2 1.2h4v-3.8h-4c-.8 0-1.2.4-1.2 1.2v1.4z" fill="#FFF"/></g></svg>