<svg width="203" height="217" viewBox="0 0 203 217" xmlns="http://www.w3.org/2000/svg"><title>Group 5</title><g fill="none"><g fill="#FFF"><path d="M80.58 104.25c-28.752 0-52.125-23.373-52.125-52.125S51.828 0 80.58 0s52.125 23.373 52.125 52.125-23.373 52.125-52.125 52.125zm0-96.83c-24.634 0-44.705 20.07-44.705 44.705 0 24.634 20.071 44.705 44.705 44.705 24.634 0 44.705-20.034 44.705-44.705S105.251 7.42 80.58 7.42zm12.095 133.632h-23.15l-8.904-29.568h37.656l-5.602 29.568zm-17.623-7.42h11.501l2.783-14.728H70.6l4.452 14.728z"/><path d="M80.21 206.347l-20.814-22.334 9.869-50.38h23.484l8.236 50.418-20.776 22.296zm-12.8-24.634l12.8 13.764 12.873-13.8-6.641-40.625H75.349l-7.94 40.661z"/><path d="M125.99 209.056H7.494v-49.677c0-22.296 18.142-40.475 40.476-40.475h64.516a40.36 40.36 0 0 1 20.145 5.38c2.263-1.596 4.6-3.043 7.086-4.267-7.717-5.38-17.103-8.496-27.231-8.496H47.97c-26.415 0-47.896 21.48-47.896 47.896v57.096h135.413a57.61 57.61 0 0 1-9.497-7.457zm33.626-19.166c-6.048-.519-10.5-2.82-13.616-6.01l4.452-6.232c2.152 2.263 5.231 4.266 9.164 4.97v-9.126c-5.936-1.484-12.392-3.672-12.392-11.538 0-5.824 4.6-10.795 12.392-11.575V145h5.49v5.49c4.675.52 8.607 2.3 11.687 5.12l-4.564 6.01c-2.077-1.892-4.563-3.116-7.16-3.746v8.161c5.936 1.484 12.577 3.822 12.577 11.65 0 6.38-4.155 11.315-12.577 12.168v5.231h-5.49v-5.194h.037zm0-25.301v-7.05c-2.597.335-4.044 1.781-4.044 3.748 0 1.67 1.632 2.597 4.044 3.302zm5.49 10.313v7.717c2.82-.594 4.267-2.263 4.267-4.044 0-1.892-1.781-2.857-4.267-3.673z"/></g><path d="M190.791 198.52c-7.774 7.683-17.356 11.48-28.565 11.48-11.3 0-20.791-3.797-28.565-11.48-7.774-7.684-11.661-17.175-11.661-28.565 0-11.48 3.887-20.972 11.751-28.565 7.774-7.593 17.356-11.39 28.565-11.39 11.21 0 20.7 3.797 28.565 11.39 7.774 7.593 11.752 17.175 11.752 28.565-.181 11.39-4.068 20.881-11.842 28.565zm-6.328-51.164c-6.147-6.147-13.559-9.31-22.237-9.31-8.768 0-16.18 3.073-22.237 9.31-6.147 6.147-9.13 13.74-9.13 22.599s3.073 16.452 9.13 22.599c6.147 6.147 13.559 9.31 22.237 9.31 8.768 0 16.18-3.073 22.237-9.31 6.147-6.147 9.13-13.74 9.13-22.6 0-8.858-3.073-16.451-9.13-22.598z" fill="#FCEB06"/></g></svg>