<svg width="204" height="216" viewBox="0 0 204 216" xmlns="http://www.w3.org/2000/svg"><title>Group 9</title><g fill="none" fill-rule="evenodd"><path d="M128.9 15.3c-.1 1.4-.3 2.7-.6 4 41.3 11.5 71.7 49.4 71.7 94.4 0 54.1-43.9 98-98 98s-98-43.9-98-98C4 68.3 34.8 30.2 76.6 19c-.3-1.3-.5-2.6-.6-4C32.3 26.5 0 66.3 0 113.7c0 56.3 45.7 102 102 102s102-45.7 102-102c0-47-31.8-86.6-75.1-98.4z" fill="#FFF" fill-rule="nonzero"/><g fill-rule="nonzero"><path d="M95.935 107.737l4.816 6.174c-.367.76-.691 1.546-.971 2.347l-7.772.961c-.74.092-1.296.72-1.296 1.466v9.987c0 .745.556 1.374 1.296 1.466l7.772.96c.28.8.605 1.585.971 2.345l-4.816 6.175a1.477 1.477 0 0 0 .12 1.952l7.062 7.064a1.477 1.477 0 0 0 1.953.12l6.174-4.817a22.5 22.5 0 0 0 2.346.97l.96 7.774c.091.74.72 1.296 1.466 1.296h9.987c.746 0 1.375-.556 1.467-1.296l.96-7.773c.801-.28 1.586-.605 2.346-.971l6.176 4.817a1.477 1.477 0 0 0 1.953-.12l7.06-7.063a1.476 1.476 0 0 0 .12-1.953l-4.815-6.174c.367-.76.692-1.544.972-2.346l7.771-.96a1.477 1.477 0 0 0 1.296-1.466v-9.987c0-.745-.555-1.374-1.296-1.466l-7.773-.96a22.603 22.603 0 0 0-.971-2.347l4.816-6.175a1.477 1.477 0 0 0-.12-1.953l-7.062-7.06a1.477 1.477 0 0 0-1.952-.12l-6.175 4.815a22.503 22.503 0 0 0-2.346-.971l-.96-7.771a1.478 1.478 0 0 0-1.466-1.296h-9.988c-.745 0-1.374.556-1.466 1.296l-.96 7.77a22.63 22.63 0 0 0-2.345.972l-6.175-4.816a1.477 1.477 0 0 0-1.953.12l-7.061 7.06a1.477 1.477 0 0 0-.121 1.954zm8.347-6.001l5.886 4.59c.462.36 1.093.414 1.608.137a19.419 19.419 0 0 1 3.593-1.488c.56-.169.967-.652 1.038-1.233l.915-7.407h7.375l.916 7.407c.071.581.48 1.064 1.039 1.233 1.25.378 2.458.878 3.592 1.488a1.477 1.477 0 0 0 1.608-.136l5.885-4.59 5.215 5.213-4.59 5.885a1.477 1.477 0 0 0-.137 1.608 19.559 19.559 0 0 1 1.487 3.594c.17.56.653.967 1.234 1.038l7.41.916v7.375l-7.409.915a1.476 1.476 0 0 0-1.233 1.039 19.394 19.394 0 0 1-1.488 3.59 1.477 1.477 0 0 0 .135 1.61l4.592 5.885-5.214 5.217-5.887-4.592a1.477 1.477 0 0 0-1.608-.137 19.504 19.504 0 0 1-3.592 1.487 1.48 1.48 0 0 0-1.04 1.234l-.915 7.409h-7.375l-.915-7.41a1.478 1.478 0 0 0-1.039-1.233 19.492 19.492 0 0 1-3.592-1.487 1.478 1.478 0 0 0-1.608.137l-5.885 4.592-5.215-5.217 4.59-5.886c.36-.461.414-1.092.137-1.607a19.504 19.504 0 0 1-1.488-3.592 1.477 1.477 0 0 0-1.233-1.04l-7.407-.914v-7.375l7.408-.916a1.478 1.478 0 0 0 1.233-1.039 19.518 19.518 0 0 1 1.487-3.593 1.478 1.478 0 0 0-.136-1.608l-4.59-5.885 5.213-5.214z" fill="#FFF"/><path d="M121.01 135.662c6.607 0 11.982-5.375 11.982-11.982 0-6.608-5.375-11.984-11.982-11.984-6.607 0-11.982 5.376-11.982 11.984 0 6.607 5.375 11.982 11.982 11.982zm0-21.011c4.977 0 9.027 4.05 9.027 9.029 0 4.978-4.05 9.027-9.027 9.027-4.978 0-9.027-4.05-9.027-9.027 0-4.979 4.049-9.03 9.027-9.03zM56.996 85.442l3.472 4.451c-.208.447-.398.905-.568 1.373l-5.604.694c-.74.092-1.296.72-1.296 1.466v7.49c0 .745.556 1.374 1.296 1.465l5.604.692c.17.467.36.926.568 1.373l-3.472 4.451a1.477 1.477 0 0 0 .12 1.953l5.296 5.298a1.477 1.477 0 0 0 1.953.12l4.452-3.472c.447.208.905.397 1.373.567l.693 5.604c.091.74.72 1.296 1.466 1.296h7.489c.745 0 1.374-.556 1.466-1.296l.693-5.604c.467-.17.926-.359 1.374-.567l4.45 3.472a1.477 1.477 0 0 0 1.954-.12l5.295-5.298a1.477 1.477 0 0 0 .12-1.953l-3.471-4.45c.21-.45.4-.908.57-1.374l5.601-.692a1.477 1.477 0 0 0 1.297-1.466v-7.49c0-.745-.556-1.373-1.296-1.465l-5.604-.694c-.17-.468-.36-.926-.568-1.373l3.471-4.451a1.477 1.477 0 0 0-.12-1.953l-5.296-5.296a1.477 1.477 0 0 0-1.953-.12l-4.45 3.471c-.45-.209-.908-.399-1.374-.568l-.694-5.602a1.477 1.477 0 0 0-1.466-1.296H72.35c-.746 0-1.374.556-1.466 1.296l-.693 5.602c-.467.17-.925.36-1.373.568l-4.452-3.472a1.477 1.477 0 0 0-1.953.121l-5.295 5.296a1.477 1.477 0 0 0-.12 1.953zm6.582-4.236l4.159 3.242c.462.36 1.093.413 1.609.135.827-.445 1.708-.81 2.622-1.086.56-.169.968-.652 1.04-1.233l.647-5.232h4.877l.648 5.232c.072.581.48 1.065 1.04 1.233.91.274 1.793.64 2.625 1.087a1.477 1.477 0 0 0 1.608-.136l4.157-3.242 3.448 3.448-3.242 4.158a1.478 1.478 0 0 0-.136 1.609c.443.822.81 1.705 1.088 2.625.169.56.652.966 1.232 1.038l5.233.648v4.877l-5.231.646a1.479 1.479 0 0 0-1.234 1.04 14.27 14.27 0 0 1-1.088 2.625 1.477 1.477 0 0 0 .136 1.608l3.243 4.157-3.45 3.45-4.155-3.242a1.477 1.477 0 0 0-1.609-.136c-.826.444-1.709.81-2.624 1.085-.56.168-.969.652-1.04 1.233l-.648 5.234h-4.878l-.647-5.234a1.478 1.478 0 0 0-1.04-1.233 14.106 14.106 0 0 1-2.622-1.084 1.477 1.477 0 0 0-1.61.135l-4.158 3.242-3.45-3.45 3.243-4.157c.36-.461.413-1.092.136-1.608a14.26 14.26 0 0 1-1.087-2.626 1.477 1.477 0 0 0-1.233-1.039l-5.233-.646v-4.877l5.233-.648a1.478 1.478 0 0 0 1.232-1.038c.279-.92.645-1.803 1.088-2.625a1.477 1.477 0 0 0-.136-1.61l-3.242-4.157 3.449-3.448z" fill="#FDEC06"/><path d="M76.094 106.527c5.16 0 9.356-4.197 9.356-9.356 0-5.16-4.197-9.356-9.356-9.356s-9.356 4.197-9.356 9.356 4.197 9.356 9.356 9.356zm0-15.757a6.41 6.41 0 0 1 6.402 6.401 6.41 6.41 0 0 1-6.402 6.402 6.409 6.409 0 0 1-6.401-6.402 6.409 6.409 0 0 1 6.4-6.401z" fill="#FFF"/></g><path fill="#FDEC06" d="M104.84 20.96H91.52v-5.04L100.16.8h7.2l-8.64 15.12h6.12v-5.4h6.48v5.4h2.52v5.04h-2.52V26h-6.48z"/></g></svg>