<svg width="204" height="216" viewBox="0 0 204 216" xmlns="http://www.w3.org/2000/svg"><title>Group 11</title><g fill="none" fill-rule="evenodd"><path d="M128.9 15.3c-.1 1.4-.3 2.7-.6 4 41.3 11.5 71.7 49.4 71.7 94.4 0 54.1-43.9 98-98 98s-98-43.9-98-98C4 68.3 34.8 30.2 76.6 19c-.3-1.3-.5-2.6-.6-4C32.3 26.5 0 66.3 0 113.7c0 56.3 45.7 102 102 102s102-45.7 102-102c0-47-31.8-86.6-75.1-98.4z" fill="#FFF" fill-rule="nonzero"/><g fill-rule="nonzero"><path d="M105.381 153.922c-22.557 0-40.908-17.927-40.908-39.963C64.473 91.925 82.824 74 105.381 74c9.434 0 18.649 3.218 25.945 9.06a2.038 2.038 0 1 1-2.548 3.182c-6.576-5.266-14.886-8.166-23.397-8.166-20.308 0-36.831 16.098-36.831 35.884 0 19.788 16.523 35.886 36.831 35.886 8.519 0 16.828-2.9 23.397-8.168a2.037 2.037 0 1 1 2.55 3.18c-7.29 5.845-16.505 9.064-25.947 9.064z" fill="#FFF"/><path d="M108.482 120.2H60.06a2.038 2.038 0 1 1 0-4.077h48.423a2.038 2.038 0 1 1 0 4.077zm5.696-9.87H60.059a2.038 2.038 0 1 1 0-4.076h54.119a2.038 2.038 0 1 1 0 4.076z" fill="#FDEC06"/></g><path d="M99.08 10.52a30.143 30.143 0 0 1 2.124-.36c.624-.096 1.29-.18 1.998-.252A19.803 19.803 0 0 1 105.2 9.8h2.52c1.632 0 2.94.492 3.924 1.476s1.476 2.292 1.476 3.924v4.68c0 2.184-.552 3.81-1.656 4.878-1.104 1.068-2.832 1.602-5.184 1.602h-6.84c-2.352 0-4.08-.534-5.184-1.602S92.6 22.064 92.6 19.88V7.28c0-2.352.552-4.08 1.656-5.184C95.36.992 97.088.44 99.44.44c1.176 0 2.454.036 3.834.108 1.38.072 2.67.156 3.87.252 1.392.096 2.784.216 4.176.36v4.86c-1.32-.072-2.628-.156-3.924-.252a96.832 96.832 0 0 1-1.71-.09l-1.746-.108a41.958 41.958 0 0 0-1.638-.072c-.516-.012-.99-.018-1.422-.018-.552 0-.99.162-1.314.486-.324.324-.486.762-.486 1.314v3.24zm4.32 4.32c-.504 0-1.014.018-1.53.054a29.62 29.62 0 0 0-1.386.126c-.48.072-.948.132-1.404.18v3.96c0 1.44.72 2.16 2.16 2.16h3.24c1.44 0 2.16-.72 2.16-2.16V16.1c0-.36-.12-.66-.36-.9s-.54-.36-.9-.36h-1.98z" fill="#FDEC06"/></g></svg>