<svg width="204" height="216" viewBox="0 0 204 216" xmlns="http://www.w3.org/2000/svg"><title>Group 10</title><g fill="none" fill-rule="evenodd"><path d="M128.9 15.3c-.1 1.4-.3 2.7-.6 4 41.3 11.5 71.7 49.4 71.7 94.4 0 54.1-43.9 98-98 98s-98-43.9-98-98C4 68.3 34.8 30.2 76.6 19c-.3-1.3-.5-2.6-.6-4C32.3 26.5 0 66.3 0 113.7c0 56.3 45.7 102 102 102s102-45.7 102-102c0-47-31.8-86.6-75.1-98.4z" fill="#FFF" fill-rule="nonzero"/><g fill-rule="nonzero"><path d="M120.413 127.315c-5.328-.448-9.957.272-13.379 2.08-2.625 1.4-4.453 3.403-5.27 5.776-5.872-1.4-9.373-3.228-11.026-4.278 5.64-3.559 11.746-7.779 17.599-12.524l2.606-2.177c3.675-3.112 7.195-6.437 10.403-9.957.642-.7.564-1.808-.194-2.411-.68-.544-1.692-.428-2.295.214-3.17 3.461-6.65 6.728-10.287 9.82l-2.547 2.12c-8.887 7.156-18.338 13.106-25.785 17.345-.875.506-1.75.992-2.587 1.459 1.167-2.49 2.47-6.087 3.481-10.987 6.048-.234 12.212-6.087 13.029-19.174.778-12.328-9.84-22.732-10.287-23.18a1.653 1.653 0 0 0-2.139-.135c-.506.37-12.329 9.392-13.087 21.72-.758 12.115 3.773 18.65 9.178 20.341-.563 2.645-1.186 4.803-1.789 6.514-1.789 5.115-3.616 7.312-3.655 7.37-.37.428-.817.778-1.303 1.031-7.604 3.909-12.796 6.086-12.873 6.106a1.66 1.66 0 0 0-.895 2.158 1.644 1.644 0 0 0 1.536 1.012c.214 0 .428-.04.642-.137.097-.038 9.917-4.141 22.343-11.22a222.533 222.533 0 0 0 5.834-3.442c1.167.914 5.25 3.715 13.573 5.66.156 5.502 5.387 11.161 17.19 12.172.545.039 1.07.058 1.595.058 10.5 0 19.27-8.556 19.66-8.945a1.631 1.631 0 0 0 .175-2.139c-.312-.408-8.265-11.317-19.446-12.25zm-46.281-11.22c-1.77-3.15-2.528-7.585-2.198-12.835.545-8.692 7.798-15.848 10.637-18.337 2.509 2.82 8.829 10.831 8.284 19.523-.33 5.25-1.633 9.548-3.772 12.465-1.517 2.042-3.326 3.247-5.329 3.54.72-4.512 1.148-9.918 1.07-16.374-.02-.914-.758-1.653-1.672-1.634-.914.02-1.653.759-1.634 1.673.078 6.397-.389 11.687-1.07 15.984-1.71-.642-3.188-2.003-4.316-4.006zm44.589 31.249c-4.706-.39-8.537-1.653-11.084-3.637-1.711-1.322-2.723-2.878-2.995-4.55 4.025.72 8.829 1.206 14.565 1.264h.02c.913 0 1.652-.72 1.652-1.633 0-.914-.72-1.653-1.633-1.673-5.62-.058-10.306-.544-14.176-1.244.622-1.42 1.828-2.625 3.559-3.54 2.858-1.516 6.845-2.1 11.53-1.71 7.663.641 13.866 7.116 16.122 9.8-2.703 2.236-9.898 7.564-17.56 6.923z" fill="#FFF"/><path d="M146.237 78.583a1.642 1.642 0 0 0-1.303-.486c-.836.059-20.477 1.712-31.502 12.68-5.309 5.29-8.498 10.366-9.47 15.091-.778 3.831-.253 7.449 2.041 10.132.545.623 1.692 1.829 2.314 2.392 2.081 1.848 4.745 2.645 7.584 2.645.914 0 1.867-.097 2.859-.291 4.764-.934 9.878-4.065 15.187-9.355 11.026-10.968 12.698-30.668 12.776-31.505a1.642 1.642 0 0 0-.486-1.303zm-14.623 30.475c-4.765 4.745-9.432 7.662-13.476 8.44-2.762.544-5.29.253-7.195-1.284-.642-.525-1.828-1.692-2.373-2.314-1.653-1.925-1.925-4.531-1.361-7.37.817-4.026 3.792-8.655 8.556-13.4 8.206-8.148 22.207-10.774 27.4-11.493-.7 5.212-3.345 19.253-11.551 27.42z" fill="#FDEC06"/></g><path d="M99.98 5.84v4.68h5.76c2.352 0 4.08.534 5.184 1.602s1.656 2.694 1.656 4.878v2.52c0 2.352-.552 4.08-1.656 5.184-1.104 1.104-2.832 1.656-5.184 1.656-1.44 0-2.946-.036-4.518-.108A154.03 154.03 0 0 1 96.92 26a126.759 126.759 0 0 1-4.5-.36v-4.86l4.248.288c1.224.072 2.514.132 3.87.18 1.356.048 2.61.072 3.762.072.552 0 .99-.162 1.314-.486.324-.324.486-.762.486-1.314v-1.8c0-1.44-.72-2.16-2.16-2.16H93.5V.8h17.28v5.04h-10.8z" fill="#FDEC06"/></g></svg>