<svg width="204" height="216" viewBox="0 0 204 216" xmlns="http://www.w3.org/2000/svg"><title>Group 7</title><g fill="none" fill-rule="evenodd"><path d="M128.9 15.3c-.1 1.4-.3 2.7-.6 4 41.3 11.5 71.7 49.4 71.7 94.4 0 54.1-43.9 98-98 98s-98-43.9-98-98C4 68.3 34.8 30.2 76.6 19c-.3-1.3-.5-2.6-.6-4C32.3 26.5 0 66.3 0 113.7c0 56.3 45.7 102 102 102s102-45.7 102-102c0-47-31.8-86.6-75.1-98.4z" fill="#FFF" fill-rule="nonzero"/><g fill-rule="nonzero"><path d="M125.2 123.537c-1.638-1.705-3.612-2.616-5.705-2.616-2.076 0-4.068.894-5.772 2.599l-5.334 5.316c-.439-.236-.877-.455-1.3-.675-.607-.303-1.18-.59-1.67-.894-4.996-3.173-9.536-7.308-13.89-12.658-2.11-2.667-3.528-4.912-4.558-7.19 1.384-1.266 2.667-2.583 3.916-3.848.473-.473.945-.962 1.418-1.435 3.544-3.544 3.544-8.135 0-11.68l-4.608-4.607a70.317 70.317 0 0 1-1.57-1.603c-1.012-1.047-2.075-2.127-3.172-3.14-1.638-1.62-3.595-2.48-5.654-2.48-2.06 0-4.051.86-5.739 2.48l-.034.034-5.738 5.79c-2.16 2.16-3.392 4.793-3.662 7.847-.405 4.929 1.046 9.52 2.16 12.524 2.734 7.375 6.818 14.21 12.911 21.535 7.393 8.827 16.287 15.798 26.448 20.71 3.881 1.839 9.063 4.016 14.852 4.388.354.016.726.033 1.063.033 3.899 0 7.173-1.4 9.739-4.185.016-.034.05-.051.067-.085.878-1.063 1.89-2.025 2.954-3.055a66.459 66.459 0 0 0 2.194-2.177c1.67-1.738 2.548-3.764 2.548-5.84 0-2.092-.894-4.1-2.599-5.789l-9.266-9.3zm6.042 17.772c-.017 0-.017.017 0 0-.659.709-1.334 1.35-2.06 2.06-1.097 1.046-2.21 2.143-3.257 3.375-1.705 1.822-3.713 2.683-6.346 2.683-.253 0-.523 0-.776-.017-5.013-.32-9.671-2.278-13.165-3.95-9.553-4.624-17.94-11.189-24.911-19.51-5.756-6.936-9.604-13.35-12.152-20.236-1.57-4.202-2.144-7.477-1.89-10.565.168-1.975.928-3.612 2.329-5.013l5.755-5.755c.827-.777 1.705-1.199 2.565-1.199 1.064 0 1.924.642 2.464 1.182l.051.05a84.644 84.644 0 0 1 3.038 3.022c.523.54 1.063 1.08 1.603 1.637l4.608 4.607c1.79 1.79 1.79 3.443 0 5.232-.49.49-.962.98-1.451 1.452-1.418 1.451-2.768 2.802-4.237 4.118-.033.034-.067.05-.084.084-1.452 1.452-1.182 2.87-.878 3.832.017.05.034.1.05.152 1.2 2.902 2.887 5.637 5.452 8.894l.017.017c4.658 5.738 9.57 10.21 14.988 13.637.692.439 1.4.793 2.076 1.13.607.305 1.181.592 1.67.895.068.034.135.085.203.119.574.286 1.114.421 1.67.421 1.402 0 2.28-.877 2.566-1.164l5.772-5.772c.574-.574 1.486-1.266 2.549-1.266 1.046 0 1.907.658 2.43 1.232l.034.034 9.3 9.3c1.738 1.72 1.738 3.493.017 5.282z" fill="#FFF"/><path d="M105.216 93.022c4.422.743 8.439 2.836 11.646 6.042a21.514 21.514 0 0 1 6.042 11.646 2.265 2.265 0 0 0 2.245 1.89c.135 0 .253-.017.388-.034 1.249-.202 2.076-1.384 1.873-2.632-.911-5.35-3.443-10.228-7.308-14.093-3.865-3.865-8.742-6.397-14.093-7.308a2.29 2.29 0 0 0-2.632 1.856c-.22 1.232.59 2.43 1.84 2.633zm36.658 16.253c-1.502-8.81-5.654-16.827-12.033-23.206-6.38-6.38-14.397-10.532-23.207-12.034-1.232-.22-2.397.624-2.616 1.856a2.29 2.29 0 0 0 1.873 2.633c7.865 1.334 15.038 5.064 20.743 10.751 5.705 5.705 9.418 12.878 10.751 20.743a2.265 2.265 0 0 0 2.245 1.89c.135 0 .253-.017.388-.034a2.236 2.236 0 0 0 1.856-2.599z" fill="#FDEC06"/></g><path fill="#FDEC06" d="M101.15 26V6.38l-4.14 1.44-1.8-4.14L101.87.8h5.76V26z"/></g></svg>