<svg width="204" height="216" viewBox="0 0 204 216" xmlns="http://www.w3.org/2000/svg"><title>Group 6</title><g fill="none" fill-rule="evenodd"><path d="M128.9 15.3c-.1 1.4-.3 2.7-.6 4 41.3 11.5 71.7 49.4 71.7 94.4 0 54.1-43.9 98-98 98s-98-43.9-98-98C4 68.3 34.8 30.2 76.6 19c-.3-1.3-.5-2.6-.6-4C32.3 26.5 0 66.3 0 113.7c0 56.3 45.7 102 102 102s102-45.7 102-102c0-47-31.8-86.6-75.1-98.4z" fill="#FFF" fill-rule="nonzero"/><g fill-rule="nonzero"><path d="M159.702 84.34l-6.85-6.85a1.695 1.695 0 0 0-2.426 0l-16.809 16.808V75.745c0-.936-.766-1.702-1.702-1.702H71.702c-.936 0-1.702.766-1.702 1.702v76.425c0 .936.766 1.702 1.702 1.702h60.213c.936 0 1.702-.766 1.702-1.702v-39.404l26.085-26a1.776 1.776 0 0 0 0-2.426zm-29.49 66.17H73.405V77.448h56.809V97.66l-17.49 17.489c-.212.213-.383.51-.468.808l-2.255 9.15a1.74 1.74 0 0 0 .468 1.616c.34.34.766.511 1.192.511.127 0 .255 0 .425-.043l9.149-2.255c.298-.085.596-.213.809-.468l8.212-8.213v34.256h-.042zm-10.297-28.808l-5.915 1.49 1.49-5.915 17.659-17.66.085-.085 18.426-18.426 4.468 4.468-36.213 36.128z" fill="#FFF"/><path d="M121.106 144.723H80.681a1.707 1.707 0 0 1-1.702-1.702c0-.936.766-1.702 1.702-1.702h40.425c.937 0 1.703.766 1.703 1.702 0 .936-.766 1.702-1.703 1.702zm0-9.702H80.681a1.707 1.707 0 0 1-1.702-1.702c0-.936.766-1.702 1.702-1.702h40.425c.937 0 1.703.766 1.703 1.702 0 .936-.766 1.702-1.703 1.702zm-15.404-19.319H80.681A1.707 1.707 0 0 1 78.979 114c0-.936.766-1.702 1.702-1.702h25.021c.936 0 1.702.766 1.702 1.702 0 .936-.766 1.702-1.702 1.702zm8.808-9.659H80.68a1.707 1.707 0 0 1-1.701-1.703c0-.936.766-1.702 1.702-1.702h33.787c.936 0 1.702.766 1.702 1.702 0 .937-.723 1.703-1.66 1.703zm6.596-19.363H80.681a1.707 1.707 0 0 1-1.702-1.701c0-.936.766-1.702 1.702-1.702h40.425c.937 0 1.703.766 1.703 1.702 0 .936-.766 1.702-1.703 1.702z" fill="#FDEC06"/></g><path d="M112.04 8.72c0 .768-.108 1.464-.324 2.088a6.58 6.58 0 0 1-.9 1.728 8.761 8.761 0 0 1-1.368 1.476c-.528.456-1.104.912-1.728 1.368l-7.74 5.58h12.06V26H92.6v-6.84l12.96-9.36V8c0-1.44-.72-2.16-2.16-2.16H93.32V.8h11.52c2.52 0 4.35.57 5.49 1.71 1.14 1.14 1.71 2.97 1.71 5.49v.72z" fill="#FDEC06"/></g></svg>