<svg width="204" height="215" viewBox="0 0 204 215" xmlns="http://www.w3.org/2000/svg"><title>Group 8</title><g fill="none" fill-rule="evenodd"><path d="M128.9 14.3c-.1 1.4-.3 2.7-.6 4 41.3 11.5 71.7 49.4 71.7 94.4 0 54.1-43.9 98-98 98s-98-43.9-98-98C4 67.3 34.8 29.2 76.6 18c-.3-1.3-.5-2.6-.6-4C32.3 25.5 0 65.3 0 112.7c0 56.3 45.7 102 102 102s102-45.7 102-102c0-47-31.8-86.6-75.1-98.4z" fill="#FFF" fill-rule="nonzero"/><g fill-rule="nonzero"><path d="M116.701 113.546l25.196-25.195L127.526 74 102.35 99.175 77.278 74.103l-14.35 14.371L88 113.546l-26 25.98 14.35 14.35 26-26 14.825 14.825 21.32 5.629-7.031-20.02-14.763-14.764zm-48.33-25.072l8.907-8.907 7.567 7.567-8.907 8.907-7.567-7.567zM78.66 98.763l8.907-8.907 12.062 12.062-8.907 8.907L78.66 98.763zm-2.31 49.67l-8.907-8.907 60.083-60.062 8.907 8.887-60.082 60.082zm28.722-23.258l8.907-8.907 13.279 13.278-8.907 8.908-13.279-13.279zm17.134 14.887l6.887-6.887 3.36 9.588-10.247-2.701z" fill="#FFF"/><path d="M80.495 129.423l-2.742 2.721 3.67 3.67c.763.763 1.98.763 2.721 0 .743-.762.763-1.979 0-2.721l-3.65-3.67zm42.928-32.351a1.904 1.904 0 0 0 0-2.721l-3.938-3.918-2.722 2.722 3.917 3.917c.784.742 2 .742 2.743 0zm-9.712 9.175a1.904 1.904 0 0 0 0-2.721l-3.67-3.67-2.721 2.721 3.67 3.67c.763.743 1.98.743 2.721 0zm-13.938 3.897l-2.721 2.722 3.67 3.67a1.903 1.903 0 0 0 2.721 0 1.904 1.904 0 0 0 0-2.722l-3.67-3.67zm-9.567 9.567l-2.721 2.722 3.67 3.67a1.903 1.903 0 0 0 2.721 0 1.904 1.904 0 0 0 0-2.722l-3.67-3.67z" fill="#FDEC06"/></g><path d="M112.4 19.52c0 2.352-.552 4.08-1.656 5.184-1.104 1.104-2.832 1.656-5.184 1.656-1.44 0-2.946-.036-4.518-.108A154.03 154.03 0 0 1 96.74 26a126.759 126.759 0 0 1-4.5-.36v-4.86l4.248.288c1.224.072 2.514.132 3.87.18 1.356.048 2.61.072 3.762.072.552 0 .99-.162 1.314-.486.324-.324.486-.762.486-1.314v-1.44c0-1.44-.72-2.16-2.16-2.16H96.2v-5.04h6.84c1.44 0 2.16-.72 2.16-2.16V8c0-1.44-.72-2.16-2.16-2.16H92.6V.8h12.24c2.352 0 4.08.534 5.184 1.602s1.656 2.694 1.656 4.878c0 1.44-.33 2.61-.99 3.51a5.19 5.19 0 0 1-2.61 1.89 6.457 6.457 0 0 1 1.584.684c.528.312.99.732 1.386 1.26.396.528.72 1.17.972 1.926s.378 1.626.378 2.61v.36z" fill="#FDEC06"/></g></svg>