<?xml version="1.0" encoding="UTF-8"?>
<svg width="27px" height="26px" viewBox="0 0 27 26" version="1.1" xmlns="http://www.w3.org/2000/svg" xmlns:xlink="http://www.w3.org/1999/xlink">
    <!-- Generator: Sketch 50.2 (55047) - http://www.bohemiancoding.com/sketch -->
    <title>Z_logo</title>
    <desc>Created with Sketch.</desc>
    <defs></defs>
    <g id="front" stroke="none" stroke-width="1" fill="none" fill-rule="evenodd">
        <g transform="translate(-414.000000, -1021.000000)" fill="#000000" fill-rule="nonzero" id="Z_logo">
            <g transform="translate(414.000000, 1021.000000)">
                <path d="M26.964,2.454 L15.564,18.346 C15.2607923,18.7705199 14.769662,19.0205635 14.248,19.016 L11.604,18.992 L23.572,2.734 L23.53,2.652 L4.028,2.652 C3.42467385,2.65358025 2.87175811,2.31564434 2.598,1.778 L1.846,0.314 C1.82011548,0.264379054 1.82203983,0.20483987 1.85107453,0.156993946 C1.88010924,0.109148023 1.93203354,0.079950698 1.988,0.08 L25.74,0.064 C25.8008251,0.0635766931 25.8566295,0.0976793924 25.884,0.152 L26.978,2.28 C27.0081705,2.33566148 27.0026817,2.40387835 26.964,2.454 Z" id="Shape"></path>
                <path d="M0.034,23.546 L11.518,7.546 C11.8195765,7.12379812 12.3071561,6.874044 12.826,6.876 L15.49,6.876 L3.426,23.262 L3.468,23.344 L22.97,23.344 C23.5733261,23.3424197 24.1262419,23.6803557 24.4,24.218 L25.152,25.682 C25.1778845,25.7316209 25.1759602,25.7911601 25.1469255,25.8390061 C25.1178908,25.886852 25.0659665,25.9160493 25.01,25.916 L1.258,25.932 C1.1971749,25.9324233 1.14137048,25.8983206 1.114,25.844 L0.02,23.716 C-0.00844688721,23.6613629 -0.00300206422,23.5952472 0.034,23.546 Z" id="Shape"></path>
            </g>
        </g>
    </g>
</svg>