<?xml version="1.0" encoding="UTF-8"?>
<svg width="210px" height="37px" viewBox="0 0 210 37" version="1.1" xmlns="http://www.w3.org/2000/svg" xmlns:xlink="http://www.w3.org/1999/xlink">
    <!-- Generator: Sketch 52.6 (67491) - http://www.bohemiancoding.com/sketch -->
    <title>мир роз лого новый2</title>
    <desc>Created with Sketch.</desc>
    <g id="Мир-роз" stroke="none" stroke-width="1" fill="none" fill-rule="evenodd">
        <g id="Главная-мир-роз" transform="translate(-189.000000, -14.000000)" fill="#81D7D0">
            <g id="мир-роз-лого-новый2" transform="translate(189.000000, 14.000000)">
                <g id="SvgjsG100898" fill-rule="nonzero">
                    <path d="M27.6077586,35.6637931 C26.8836207,35.4827586 26.5215517,34.8491379 25.9784483,34.3060345 C25.7068966,34.0344828 25.3448276,33.762931 24.9827586,33.4913793 C24.8922414,33.4008621 24.7112069,33.4913793 24.6206897,33.4913793 C24.4396552,33.5818966 24.0775862,33.6724138 23.8965517,33.762931 C23.8060345,33.6724138 23.8060345,33.5818966 23.8060345,33.5818966 C23.8965517,33.4913793 23.987069,33.2198276 24.1681034,33.2198276 C24.5301724,33.0387931 24.5301724,32.8577586 24.3491379,32.6767241 C24.1681034,32.3146552 23.987069,31.9525862 23.4439655,31.9525862 C23.0818966,32.0431034 22.9913793,32.1336207 22.8103448,32.4051724 C22.4482759,33.0387931 21.9956897,33.6724138 21.4525862,34.125 C21.0905172,34.487069 20.4568966,34.5775862 20.0043103,34.7586207 C19.8232759,34.8491379 19.6422414,34.8491379 19.3706897,34.9396552 C19.0086207,35.1206897 18.5560345,35.2112069 18.1034483,35.1206897 C17.2887931,35.0301724 16.4741379,35.0301724 15.6594828,35.0301724 C15.387931,35.0301724 15.1163793,34.9396552 14.8448276,34.9396552 C14.3017241,34.8491379 13.6681034,34.7586207 13.125,34.5775862 C12.4008621,34.3060345 11.6767241,33.9439655 10.9525862,33.5818966 C10.2284483,33.3103448 9.68534483,33.0387931 8.9612069,32.7672414 C8.9612069,32.6767241 9.05172414,32.6767241 9.05172414,32.5862069 C9.14224138,31.7715517 9.77586207,31.5 10.5,31.137931 C11.2241379,30.7758621 11.8577586,30.4137931 12.4913793,30.0517241 C13.5775862,29.5086207 14.6637931,29.1465517 15.9310345,28.9655172 C16.2931034,28.875 16.6551724,28.7844828 16.9267241,28.7844828 C17.9224138,28.875 18.9181034,28.875 19.7327586,29.5991379 C20.2758621,29.9612069 20.8189655,30.2327586 21.4525862,30.5948276 C21.7241379,30.7758621 21.9956897,30.9568966 22.1767241,31.137931 C22.4482759,31.6810345 22.9008621,31.6810345 23.4439655,31.5 C23.3534483,31.4094828 23.3534483,31.2284483 23.262931,31.137931 L21.9051724,29.1465517 C21.8146552,29.0560345 21.6336207,28.9655172 21.4525862,28.9655172 C21.1810345,28.875 20.9094828,28.7844828 20.5474138,28.6939655 C20.5474138,28.6034483 20.5474138,28.6034483 20.637931,28.512931 C20.7284483,28.4224138 20.8189655,28.4224138 21,28.4224138 C21.1810345,28.4224138 21.1810345,28.3318966 21.2715517,28.3318966 C21,27.6982759 20.7284483,27.1551724 20.4568966,26.612069 C20.3663793,26.5215517 20.1853448,26.4310345 20.0043103,26.4310345 C19.6422414,26.3405172 19.2801724,26.3405172 18.9181034,26.25 L18.9181034,26.1594828 C19.0991379,26.0689655 19.4612069,25.9784483 19.6422414,25.887931 C19.9137931,25.7974138 20.0043103,25.7068966 19.8232759,25.4353448 C19.4612069,24.6206897 19.0991379,23.8060345 18.8275862,22.9913793 C18.6465517,22.6293103 18.4655172,22.5387931 18.1034483,22.6293103 C17.4698276,22.9008621 16.9267241,22.7198276 16.3836207,22.4482759 C15.75,22.0862069 15.0258621,21.9051724 14.4827586,21.362069 C14.2112069,21.0905172 13.7586207,21.4525862 13.487069,21.9051724 C13.3060345,22.2672414 13.125,22.6293103 12.8534483,22.9008621 C12.1293103,23.625 11.2241379,23.5344828 10.4094828,23.1724138 C9.59482759,22.6293103 8.87068966,22.2672414 8.14655172,21.9051724 C7.60344828,21.6336207 7.06034483,21.362069 6.51724138,21.1810345 L5.97413793,21 C5.25,20.7284483 4.79741379,20.2758621 4.97844828,19.3706897 C4.97844828,19.2801724 4.97844828,19.1896552 4.88793103,18.8275862 C4.52586207,19.0086207 4.1637931,19.2801724 3.89224138,19.5517241 C3.80172414,19.6422414 3.62068966,19.6422414 3.53017241,19.6422414 C2.44396552,19.4612069 1.81034483,18.5560345 1.44827586,17.5603448 C0.724137931,15.5689655 0.995689655,13.6681034 2.26293103,11.9482759 C2.35344828,11.7672414 2.44396552,11.5862069 2.625,11.4051724 C2.53448276,11.3146552 2.53448276,11.3146552 2.53448276,11.2241379 C2.26293103,11.4051724 1.90086207,11.4956897 1.62931034,11.6767241 C1.26724138,11.8577586 0.995689655,12.4008621 0.63362069,12.1293103 C0.452586207,12.0387931 0.362068966,11.4051724 0.452586207,11.1336207 C0.814655172,9.4137931 1.17672414,7.60344828 2.53448276,6.3362069 C3.53017241,5.52155172 4.70689655,5.25 6.06465517,5.52155172 C6.06465517,5.43103448 6.15517241,5.52155172 6.24568966,5.61206897 C6.24568966,5.70258621 6.15517241,5.70258621 6.15517241,5.70258621 C5.79310345,5.70258621 5.43103448,5.61206897 5.06896552,5.70258621 C4.61637931,5.61206897 3.98275862,5.79310345 3.43965517,5.97413793 C3.34913793,5.97413793 3.34913793,6.06465517 3.34913793,6.06465517 C1.99137931,6.42672414 1.90086207,7.42241379 1.71982759,8.59913793 C1.62931034,9.05172414 1.44827586,9.50431034 1.26724138,9.95689655 C1.17672414,10.2284483 1.0862069,10.5905172 0.995689655,10.9525862 C1.44827586,10.862069 1.81034483,10.6810345 2.08189655,10.5905172 C2.26293103,10.5 2.625,10.5 2.80603448,10.5905172 C2.98706897,10.6810345 3.34913793,10.862069 3.53017241,11.0431034 C3.62068966,11.1336207 3.34913793,11.4051724 3.16810345,11.5862069 C2.35344828,12.3103448 2.26293103,13.3060345 2.08189655,14.2112069 C1.71982759,15.75 2.17241379,17.1982759 3.07758621,18.6465517 C3.62068966,18.2844828 3.98275862,17.8318966 4.43534483,17.4698276 C5.15948276,16.9267241 5.97413793,16.7456897 6.96982759,16.8362069 C7.96551724,16.9267241 8.87068966,17.3793103 9.59482759,17.9224138 C10.4094828,18.4655172 11.0431034,18.2844828 11.7672414,17.4698276 C10.9525862,16.8362069 10.137931,16.2025862 9.23275862,15.5689655 L9.23275862,15.387931 C8.87068966,15.387931 8.50862069,15.387931 8.05603448,15.4784483 C8.14655172,14.9353448 7.875,15.1163793 7.51293103,15.1163793 C7.51293103,15.2974138 7.42241379,15.387931 7.42241379,15.4784483 L7.33189655,15.4784483 C7.15086207,15.4784483 6.7887931,15.387931 6.60775862,15.5689655 C6.24568966,15.8405172 6.15517241,15.8405172 5.61206897,15.5689655 C5.79310345,15.4784483 5.97413793,15.387931 6.15517241,15.2974138 C6.15517241,15.2068966 6.06465517,15.0258621 6.06465517,14.7543103 C5.88362069,14.9353448 5.61206897,15.1163793 5.34051724,15.2974138 C5.15948276,15.1163793 4.97844828,14.9353448 4.88793103,14.5732759 C4.70689655,14.0301724 4.52586207,13.487069 4.43534483,13.0344828 C4.43534483,12.5818966 4.34482759,12.2198276 4.1637931,11.8577586 C4.07327586,11.7672414 4.34482759,11.4956897 4.25431034,11.3146552 C4.34482759,10.9525862 4.25431034,10.5 4.34482759,10.137931 C4.88793103,8.59913793 5.43103448,7.24137931 6.24568966,5.88362069 C6.7887931,4.88793103 7.51293103,3.89224138 8.41810345,3.16810345 C9.23275862,2.53448276 10.137931,2.08189655 10.9525862,1.5387931 C11.6767241,0.995689655 12.6724138,0.814655172 13.5775862,0.452586207 C14.3922414,0.0905172414 14.6637931,0.543103448 15.2068966,0.995689655 C16.0215517,1.81034483 16.0215517,1.81034483 16.8362069,1.0862069 C17.7413793,0.271551724 18.737069,2.22044605e-16 19.9137931,0.181034483 C20.637931,0.362068966 21.1810345,0.724137931 21.8146552,0.995689655 C22.1767241,1.17672414 22.5387931,1.35775862 22.9913793,1.17672414 C23.8060345,0.905172414 24.6206897,0.905172414 25.5258621,1.17672414 C25.6163793,1.26724138 25.7068966,1.26724138 25.887931,1.26724138 C26.3405172,1.26724138 26.612069,1.5387931 26.612069,1.99137931 C26.612069,2.35344828 26.612069,2.71551724 26.5215517,2.98706897 C26.4310345,3.98275862 26.7025862,4.70689655 27.6077586,5.15948276 C27.9698276,5.34051724 28.3318966,5.70258621 28.6034483,5.97413793 C29.0560345,6.42672414 28.9655172,6.7887931 28.4224138,7.24137931 C30.0517241,7.78448276 31.3189655,8.78017241 31.7715517,9.68534483 C30.9568966,9.50431034 30.5948276,10.0474138 30.2327586,10.5 C29.5086207,11.5862069 28.6034483,12.3103448 27.4267241,12.8534483 C26.5215517,13.3060345 25.7068966,13.8491379 24.8922414,14.3922414 C24.6206897,14.5732759 24.3491379,14.7543103 24.1681034,15.0258621 C23.8060345,15.387931 23.4439655,15.75 23.1724138,16.112069 C22.9913793,16.4741379 22.8103448,16.9267241 22.7198276,17.3793103 C22.6293103,18.1034483 22.6293103,18.8275862 22.5387931,19.5517241 C22.3577586,20.3663793 21.7241379,21 20.9094828,21.2715517 C20.5474138,21.362069 20.3663793,21.9956897 20.5474138,22.3577586 C20.637931,22.7198276 20.8189655,23.0818966 20.9094828,23.4439655 C21.0905172,23.3534483 21.4525862,23.262931 21.6336207,23.0818966 C21.7241379,23.1724138 21.7241379,23.1724138 21.8146552,23.1724138 C21.7241379,23.3534483 21.6336207,23.7155172 21.4525862,23.8965517 C21.1810345,24.1681034 21.0905172,24.4396552 21.362069,24.7112069 C21.4525862,24.8017241 21.4525862,24.8922414 21.4525862,24.8922414 C21.6336207,25.1637931 21.7241379,25.6163793 21.9956897,25.7974138 C22.1767241,25.9784483 22.5387931,25.887931 22.9913793,25.887931 L22.8103448,26.4310345 C22.6293103,26.8836207 22.6293103,27.2456897 22.9913793,27.6982759 C23.3534483,28.1508621 23.7155172,28.6939655 23.987069,29.237069 C24.1681034,29.5086207 24.3491379,29.7801724 24.7112069,30.0517241 C24.8922414,29.3275862 25.0732759,28.875 25.2543103,28.3318966 L25.2543103,28.1508621 C24.5301724,27.6077586 25.1637931,26.7931034 24.8922414,26.1594828 C25.3448276,25.7068966 24.9827586,25.0732759 25.1637931,24.5301724 C25.3448276,23.7155172 25.5258621,22.9008621 25.7068966,21.9956897 C25.7974138,21.2715517 26.25,20.5474138 26.612069,19.9137931 C26.612069,19.8232759 26.7025862,19.8232759 26.7025862,19.8232759 C26.7025862,18.737069 27.6077586,18.1939655 28.1508621,17.4698276 C28.4224138,17.1077586 28.875,16.7456897 29.1465517,16.4741379 C29.8706897,15.9310345 30.5948276,15.4784483 31.4094828,15.1163793 C32.4051724,14.6637931 33.3103448,14.1206897 34.3060345,13.6681034 C34.6681034,13.487069 35.1206897,13.3965517 35.5732759,13.3060345 C35.6637931,13.3965517 35.6637931,13.3965517 35.7543103,13.3965517 C35.6637931,13.6681034 35.5732759,14.0301724 35.6637931,14.3017241 C35.6637931,14.5732759 35.8448276,14.8448276 35.8448276,15.2068966 C35.9353448,15.6594828 35.7543103,16.2025862 35.7543103,16.6551724 C35.7543103,16.9267241 35.8448276,17.1982759 35.8448276,17.4698276 C35.7543103,18.1939655 35.8448276,18.737069 35.5732759,19.3706897 C35.4827586,19.5517241 35.5732759,20.0043103 35.5732759,20.2758621 C35.5732759,20.637931 35.6637931,21 35.4827586,21.2715517 C35.3017241,21.8146552 35.0301724,22.2672414 35.0301724,22.8103448 C35.0301724,23.1724138 34.487069,23.4439655 34.3060345,23.8060345 C34.125,23.987069 34.0344828,24.2586207 33.8534483,24.5301724 C33.4913793,24.9827586 33.1293103,25.5258621 32.8577586,25.9784483 C32.6767241,26.1594828 32.4956897,26.3405172 32.3146552,26.5215517 C32.1336207,26.7025862 31.862069,26.9741379 31.5905172,27.2456897 C31.3189655,27.5172414 31.0474138,27.8793103 30.6853448,28.0603448 C30.4137931,28.2413793 30.1422414,28.4224138 29.7801724,28.4224138 C29.4181034,28.4224138 29.0560345,28.512931 28.7844828,28.512931 C28.6939655,28.512931 28.6034483,28.512931 28.512931,28.6034483 C27.8793103,29.1465517 27.1551724,28.9655172 26.5215517,28.875 C26.4310345,28.875 26.25,28.875 25.9784483,28.7844828 C25.9784483,29.7801724 25.887931,30.6853448 25.9784483,31.6810345 C25.9784483,32.2241379 26.4310345,32.4956897 26.9741379,32.4051724 C27.0646552,32.3146552 27.3362069,32.4051724 27.3362069,32.4956897 C27.4267241,32.5862069 27.3362069,32.7672414 27.2456897,32.8577586 C26.8836207,33.2198276 27.0646552,33.5818966 27.4267241,33.8534483 C27.7887931,34.125 28.1508621,34.3965517 28.512931,34.6681034 C28.6939655,34.7586207 28.7844828,34.9396552 28.875,35.1206897 C28.6939655,35.2112069 28.512931,35.2112069 28.4224138,35.3017241 C28.6939655,35.4827586 29.0560345,35.8448276 29.3275862,36.1163793 L28.512931,36.1163793 L27.6982759,35.3922414 C27.6982759,35.4827586 27.6077586,35.4827586 27.6077586,35.4827586 C27.6982759,35.6637931 27.6982759,35.8448276 27.7887931,36.0258621 C27.6982759,35.6637931 27.6982759,35.6637931 27.6077586,35.6637931 Z M17.0172414,17.4698276 C17.3793103,17.2887931 17.7413793,16.9267241 18.012931,16.7456897 C18.1939655,16.6551724 18.4655172,16.5646552 18.737069,16.5646552 C17.8318966,16.2025862 17.2887931,16.7456897 16.7456897,17.1982759 C16.8362069,17.2887931 16.9267241,17.3793103 17.0172414,17.4698276 C16.8362069,17.4698276 16.5646552,17.5603448 16.3836207,17.5603448 C15.8405172,17.3793103 15.2974138,17.5603448 14.8448276,17.9224138 C15.5689655,17.8318966 16.2025862,17.8318966 16.8362069,17.8318966 C16.9267241,17.8318966 16.9267241,17.5603448 17.0172414,17.4698276 Z M27.1551724,26.9741379 C28.0603448,26.9741379 28.9655172,27.1551724 29.7801724,26.9741379 C30.5948276,26.7931034 31.2284483,25.9784483 31.6810345,25.1637931 C30.7758621,25.3448276 29.9612069,25.5258621 29.1465517,25.7068966 C29.1465517,25.6163793 29.0560345,25.6163793 29.0560345,25.5258621 C29.237069,25.4353448 29.4181034,25.3448276 29.5991379,25.2543103 C30.4137931,25.0732759 31.137931,24.8922414 31.9525862,24.7112069 C32.1336207,24.6206897 32.3146552,24.5301724 32.4956897,24.3491379 C32.8577586,23.8060345 33.3103448,23.262931 33.762931,22.5387931 C32.9482759,22.7198276 32.1336207,22.9008621 31.3189655,23.0818966 C31.3189655,22.9913793 31.2284483,22.9913793 31.2284483,22.9913793 C31.3189655,22.9008621 31.4094828,22.8103448 31.5,22.8103448 C31.862069,22.7198276 32.3146552,22.5387931 32.7672414,22.4482759 C33.5818966,22.3577586 33.762931,21.7241379 34.125,21.1810345 C34.2155172,21 34.125,20.637931 34.0344828,20.4568966 C33.9439655,20.3663793 33.6724138,20.4568966 33.4913793,20.4568966 L32.7672414,20.637931 C32.6767241,20.5474138 32.6767241,20.5474138 32.6767241,20.4568966 C32.8577586,20.3663793 33.0387931,20.1853448 33.2198276,20.0948276 C33.4913793,19.9137931 33.9439655,19.9137931 34.0344828,19.6422414 C34.3965517,18.8275862 34.6681034,17.9224138 34.8491379,17.0172414 C34.9396552,16.3836207 34.9396552,15.75 35.0301724,15.0258621 C34.8491379,15.2068966 34.7586207,15.387931 34.6681034,15.4784483 L32.9482759,18.737069 C32.5862069,19.5517241 32.2241379,20.3663793 31.862069,21.0905172 C31.7715517,21.2715517 31.5905172,21.5431034 31.4094828,21.8146552 C30.8663793,22.7198276 30.3232759,23.7155172 29.6896552,24.4396552 C28.875,25.2543103 27.9698276,26.1594828 27.1551724,26.9741379 L26.7931034,27.3362069 L26.25,27.2456897 L26.25,27.1551724 C26.3405172,27.0646552 26.3405172,27.0646552 26.3405172,26.9741379 C27.2456897,26.25 27.7887931,25.4353448 27.3362069,24.2586207 L27.3362069,24.1681034 C27.1551724,23.3534483 26.9741379,22.6293103 26.7931034,21.7241379 C26.7025862,22.3577586 26.7931034,22.9913793 26.5215517,23.1724138 C26.0689655,23.625 26.1594828,24.2586207 26.25,24.5301724 C26.4310345,25.0732759 26.25,25.3448276 26.0689655,25.7974138 C25.7974138,26.4310345 25.1637931,27.0646552 25.7068966,27.6982759 C26.1594828,27.7887931 26.612069,28.0603448 27.0646552,28.0603448 C27.4267241,28.0603448 27.8793103,27.7887931 28.3318966,27.6077586 C28.3318966,27.5172414 28.2413793,27.5172414 28.2413793,27.4267241 C27.9698276,27.4267241 27.6982759,27.4267241 27.4267241,27.3362069 C27.3362069,27.3362069 27.2456897,27.0646552 27.1551724,26.9741379 Z M8.50862069,7.875 C8.41810345,8.14655172 8.32758621,8.32758621 8.23706897,8.68965517 C8.32758621,8.68965517 8.32758621,8.68965517 8.32758621,8.78017241 C8.68965517,8.32758621 9.14224138,7.78448276 9.50431034,7.33189655 C9.50431034,7.24137931 9.4137931,7.24137931 9.4137931,7.24137931 C9.23275862,7.33189655 8.9612069,7.51293103 8.78017241,7.60344828 C8.68965517,7.60344828 8.59913793,7.78448276 8.50862069,7.875 C8.50862069,7.69396552 8.50862069,7.33189655 8.59913793,7.15086207 C9.14224138,6.24568966 9.86637931,5.43103448 10.7715517,4.79741379 C11.2241379,4.43534483 11.5862069,4.25431034 12.1293103,4.25431034 C12.3103448,4.25431034 12.4913793,4.43534483 12.6724138,4.61637931 C12.5818966,4.70689655 12.4913793,4.79741379 12.3103448,4.97844828 L12.1293103,5.15948276 C11.7672414,5.70258621 11.4956897,6.24568966 11.1336207,6.87931034 C10.9525862,7.24137931 10.7715517,7.78448276 10.4094828,8.05603448 C9.68534483,8.78017241 9.59482759,9.68534483 9.14224138,10.4094828 C9.23275862,10.5 9.32327586,10.5 9.32327586,10.5 C10.5905172,10.5 11.7672414,10.5 12.9439655,10.9525862 C13.0344828,11.0431034 13.3060345,11.0431034 13.3965517,10.9525862 C13.9396552,10.5905172 14.4827586,10.2284483 15.0258621,9.77586207 C14.7543103,9.68534483 14.5732759,9.59482759 14.4827586,9.50431034 C13.7586207,9.23275862 13.125,9.14224138 12.4008621,9.32327586 C12.1293103,9.4137931 11.6767241,9.14224138 11.4051724,8.9612069 C11.3146552,8.87068966 11.3146552,8.41810345 11.4956897,8.23706897 C12.3103448,7.42241379 13.125,6.60775862 14.0301724,5.79310345 C14.1206897,5.70258621 14.2112069,5.70258621 14.3922414,5.70258621 C15.4784483,6.06465517 16.6551724,6.42672414 17.5603448,7.33189655 C17.6508621,7.42241379 17.7413793,7.69396552 17.7413793,7.875 C17.6508621,7.875 17.6508621,7.96551724 17.5603448,7.96551724 C16.5646552,7.42241379 15.4784483,6.96982759 14.4827586,6.51724138 C14.1206897,6.87931034 13.6681034,7.33189655 13.3060345,7.78448276 C14.3017241,8.14655172 15.1163793,8.50862069 16.0215517,8.87068966 C16.3836207,8.68965517 16.8362069,8.41810345 17.2887931,8.23706897 C17.3793103,8.14655172 17.4698276,8.32758621 17.6508621,8.32758621 C17.5603448,8.41810345 17.5603448,8.50862069 17.4698276,8.59913793 C16.7456897,9.23275862 16.0215517,9.86637931 15.387931,10.5 C15.0258621,10.862069 14.6637931,11.3146552 14.3017241,11.6767241 C14.1206897,11.8577586 13.7586207,11.8577586 13.487069,11.8577586 C12.9439655,11.7672414 12.4913793,11.4956897 12.0387931,11.4956897 C11.2241379,11.4051724 10.4094828,11.6767241 9.68534483,12.0387931 C10.0474138,12.1293103 10.5,12.2198276 10.862069,12.2198276 C11.5862069,12.3103448 12.3103448,12.4008621 12.9439655,12.5818966 C13.487069,12.6724138 14.0301724,12.8534483 14.5732759,12.9439655 C15.5689655,13.125 16.4741379,12.9439655 17.1077586,11.9482759 C17.4698276,11.4051724 17.8318966,10.862069 18.1939655,10.2284483 C18.4655172,9.77586207 18.8275862,9.32327586 19.1896552,8.87068966 C19.9137931,8.05603448 19.8232759,7.15086207 19.2801724,6.15517241 C19.1896552,6.06465517 19.1896552,5.88362069 19.1896552,5.79310345 C19.2801724,5.88362069 19.4612069,5.88362069 19.5517241,5.97413793 L20.0948276,6.51724138 C20.637931,7.06034483 20.7284483,7.69396552 20.3663793,8.32758621 C19.8232759,9.4137931 19.2801724,10.4094828 18.737069,11.4956897 C18.2844828,12.3103448 17.9224138,13.2155172 17.1077586,13.8491379 C16.2931034,14.4827586 15.5689655,14.3922414 14.7543103,14.3922414 C14.5732759,14.3922414 14.3017241,14.4827586 14.1206897,14.5732759 C13.6681034,14.9353448 13.3060345,15.2974138 12.8534483,15.5689655 C12.6724138,15.75 12.1293103,15.8405172 11.9482759,15.75 C11.4051724,15.4784483 11.4051724,15.8405172 11.0431034,16.2025862 C11.7672414,16.3836207 12.3103448,16.5646552 12.9439655,16.6551724 C13.2155172,16.7456897 13.487069,16.7456897 13.7586207,16.7456897 C14.3922414,16.8362069 15.0258621,16.8362069 15.4784483,16.2025862 C16.4741379,15.1163793 17.6508621,14.3922414 19.1896552,14.3922414 C19.2801724,14.3922414 19.4612069,14.3017241 19.5517241,14.2112069 C20.2758621,13.6681034 20.637931,12.9439655 20.5474138,12.0387931 C20.4568966,11.1336207 20.7284483,10.3189655 21.362069,9.86637931 C22.2672414,9.14224138 22.9913793,8.23706897 23.5344828,7.33189655 C24.0775862,6.51724138 23.8060345,6.06465517 23.1724138,5.61206897 C22.1767241,4.88793103 21.4525862,3.89224138 21.5431034,2.625 C21.5431034,2.35344828 21.6336207,1.99137931 21.5431034,1.71982759 C21.5431034,1.5387931 21.4525862,1.26724138 21.2715517,1.17672414 C20.4568966,0.543103448 19.5517241,0.362068966 18.5560345,0.362068966 C17.7413793,0.362068966 17.5603448,0.543103448 17.6508621,1.17672414 C17.1982759,1.35775862 16.7456897,1.5387931 16.2931034,1.71982759 C16.2931034,1.81034483 16.3836207,1.81034483 16.3836207,1.90086207 C16.7456897,1.81034483 17.0172414,1.71982759 17.2887931,1.5387931 C17.6508621,1.90086207 17.6508621,2.26293103 17.2887931,2.625 C17.3793103,2.71551724 17.6508621,2.80603448 17.6508621,2.98706897 C17.8318966,3.53017241 18.1939655,3.98275862 18.6465517,4.34482759 C18.8275862,4.43534483 18.9181034,4.61637931 19.0086207,4.88793103 C19.0991379,4.97844828 19.0991379,5.25 19.0991379,5.34051724 C19.1896552,5.43103448 19.0991379,5.43103448 18.9181034,5.34051724 C18.1034483,5.06896552 17.3793103,4.70689655 16.5646552,4.43534483 C16.4741379,4.34482759 16.3836207,4.43534483 16.2931034,4.43534483 C15.4784483,4.79741379 14.6637931,4.52586207 13.9396552,4.25431034 C13.7586207,4.1637931 13.5775862,3.98275862 13.3060345,3.80172414 C13.5775862,3.80172414 13.8491379,3.62068966 14.1206897,3.62068966 C14.8448276,3.53017241 15.5689655,3.43965517 16.3836207,3.43965517 C16.112069,2.89655172 15.9310345,2.44396552 15.387931,2.17241379 C15.0258621,1.99137931 14.6637931,1.71982759 14.4827586,1.35775862 C14.2112069,0.905172414 13.7586207,0.814655172 13.3965517,0.995689655 C12.2198276,1.44827586 10.9525862,1.81034483 9.95689655,2.44396552 C8.87068966,3.25862069 7.875,4.1637931 6.87931034,5.06896552 C6.60775862,5.25 6.24568966,5.79310345 6.3362069,5.97413793 C6.3362069,6.42672414 6.15517241,6.69827586 5.97413793,6.96982759 C5.43103448,8.23706897 5.15948276,9.59482759 5.25,10.9525862 C5.34051724,11.8577586 5.61206897,12.762931 6.06465517,13.5775862 C6.24568966,13.8491379 6.3362069,13.9396552 6.69827586,13.9396552 C7.51293103,13.9396552 8.23706897,13.9396552 9.05172414,14.1206897 C9.68534483,14.2112069 10.2284483,14.6637931 10.7715517,14.7543103 C11.7672414,14.9353448 12.6724138,14.7543103 13.5775862,14.1206897 C13.125,13.7586207 12.6724138,13.487069 12.1293103,13.3060345 C11.4051724,13.0344828 10.6810345,12.762931 9.95689655,12.5818966 C9.68534483,12.4913793 9.23275862,12.4008621 8.9612069,12.5818966 C8.23706897,13.0344828 7.60344828,12.6724138 6.96982759,12.6724138 C6.60775862,12.6724138 6.42672414,12.4008621 6.51724138,12.1293103 C6.60775862,11.4051724 6.51724138,10.6810345 6.96982759,10.0474138 C7.33189655,9.50431034 7.33189655,9.4137931 7.96551724,9.32327586 C7.78448276,8.9612069 7.60344828,8.68965517 7.42241379,8.50862069 C7.33189655,8.68965517 7.15086207,8.78017241 7.06034483,8.9612069 C6.96982759,8.87068966 6.87931034,8.78017241 6.87931034,8.78017241 C7.24137931,8.14655172 7.60344828,7.42241379 7.96551724,6.7887931 C8.05603448,6.7887931 8.05603448,6.87931034 8.14655172,6.87931034 C8.05603448,7.06034483 8.05603448,7.33189655 7.96551724,7.60344828 C8.32758621,7.875 8.41810345,7.875 8.50862069,7.875 Z M19.1896552,16.6551724 C18.9181034,16.7456897 18.5560345,16.9267241 18.2844828,17.1077586 C18.1034483,17.1982759 17.9224138,17.2887931 17.7413793,17.4698276 C17.5603448,17.6508621 17.2887931,18.012931 17.0172414,18.012931 C16.2931034,18.1939655 15.6594828,18.1939655 15.0258621,18.375 C14.9353448,18.375 14.9353448,18.2844828 14.9353448,18.2844828 C14.2112069,18.1939655 13.487069,17.9224138 12.9439655,18.6465517 C12.8534483,18.737069 12.6724138,18.9181034 12.4913793,18.9181034 C12.0387931,18.9181034 12.0387931,19.2801724 11.9482759,19.4612069 C12.4008621,19.3706897 12.8534483,19.3706897 13.2155172,19.3706897 C14.0301724,19.2801724 14.7543103,19.4612069 15.387931,20.0948276 L16.2025862,20.9094828 C16.7456897,21.4525862 17.9224138,21.6336207 18.5560345,21.362069 C19.1896552,21.0905172 19.8232759,20.8189655 20.4568966,20.637931 C21.0905172,20.4568966 21.5431034,20.0948276 21.7241379,19.5517241 C21.9051724,18.9181034 21.9956897,18.2844828 21.9956897,17.6508621 C21.9956897,16.8362069 22.2672414,16.2025862 22.8103448,15.5689655 C23.262931,15.0258621 23.625,14.4827586 23.987069,13.8491379 C24.4396552,13.2155172 24.2586207,12.5818966 24.0775862,11.9482759 C23.5344828,12.1293103 23.625,12.1293103 23.3534483,11.7672414 C23.262931,11.5862069 22.9913793,11.4051724 22.8103448,11.4051724 C22.7198276,11.4051724 22.5387931,11.5862069 22.4482759,11.7672414 C22.1767241,12.4913793 21.9051724,13.2155172 21.7241379,13.8491379 C21.5431034,14.5732759 21.1810345,14.9353448 20.5474138,15.2974138 C20.2758621,15.387931 20.0043103,15.6594828 19.7327586,15.75 C19.7327586,16.2931034 20.7284483,16.2025862 20.2758621,16.8362069 C20.0948276,16.8362069 19.5517241,16.6551724 19.1896552,16.6551724 Z M30.3232759,9.14224138 C30.3232759,9.05172414 30.3232759,9.05172414 30.4137931,8.9612069 C30.1422414,8.68965517 29.8706897,8.41810345 29.5086207,8.14655172 C29.1465517,7.96551724 28.7844828,7.96551724 28.4224138,7.875 C27.6077586,7.69396552 27.3362069,7.15086207 27.7887931,6.42672414 C27.8793103,6.3362069 27.8793103,6.06465517 27.7887931,5.97413793 C27.6077586,5.79310345 27.3362069,5.61206897 27.1551724,5.43103448 C26.1594828,4.79741379 25.7068966,3.98275862 25.7974138,2.80603448 C25.887931,2.44396552 25.7974138,2.08189655 25.7974138,1.71982759 L24.0775862,1.71982759 C23.987069,2.17241379 23.8965517,2.53448276 23.8965517,2.89655172 C23.8965517,3.43965517 23.8965517,3.89224138 24.0775862,4.34482759 C24.4396552,5.25 24.8922414,6.06465517 25.3448276,6.87931034 C25.5258621,7.33189655 25.5258621,7.69396552 25.3448276,8.14655172 C25.2543103,8.05603448 25.1637931,7.96551724 25.0732759,7.96551724 C25.0732759,8.05603448 25.1637931,8.05603448 25.1637931,8.14655172 C24.9827586,8.32758621 24.6206897,8.50862069 24.4396552,8.68965517 C24.2586207,8.78017241 24.1681034,8.9612069 24.0775862,9.05172414 L24.1681034,9.14224138 C24.6206897,8.9612069 24.9827586,8.78017241 25.4353448,8.59913793 C25.5258621,8.68965517 25.5258621,8.68965517 25.5258621,8.68965517 C25.4353448,8.87068966 25.3448276,9.23275862 25.1637931,9.4137931 C24.9827586,9.59482759 24.8017241,9.77586207 24.6206897,10.0474138 C24.5301724,10.2284483 24.5301724,10.5 24.6206897,10.6810345 C25.1637931,11.4956897 26.0689655,11.9482759 27.1551724,11.8577586 C27.6982759,11.7672414 28.1508621,11.6767241 28.4224138,11.1336207 C28.875,10.4094828 29.1465517,9.4137931 30.3232759,9.14224138 Z M6.24568966,18.1939655 C5.70258621,18.375 5.52155172,18.737069 5.52155172,19.6422414 C5.52155172,20.2758621 6.06465517,20.0043103 6.3362069,20.1853448 C6.42672414,20.2758621 6.69827586,20.2758621 6.7887931,20.2758621 C7.69396552,20.7284483 8.59913793,21.1810345 9.4137931,21.6336207 C10.6810345,22.2672414 11.5862069,21.9956897 12.2198276,20.637931 C11.5862069,20.3663793 10.7715517,20.2758621 10.7715517,19.3706897 C10.5,19.3706897 10.0474138,19.4612069 9.95689655,19.3706897 C8.9612069,18.737069 7.78448276,18.737069 6.69827586,18.375 C6.69827586,18.4655172 6.51724138,18.2844828 6.24568966,18.1939655 Z M29.6896552,17.2887931 C29.5991379,17.1982759 29.5991379,17.1982759 29.5086207,17.1982759 L28.9655172,17.7413793 C28.875,17.8318966 28.7844828,18.1034483 28.6034483,18.1939655 C28.3318966,18.375 28.3318966,18.737069 28.4224138,19.0086207 C28.6034483,19.6422414 28.7844828,20.1853448 28.9655172,20.8189655 C29.1465517,21.6336207 29.3275862,22.4482759 29.4181034,23.262931 C30.4137931,22.2672414 30.8663793,21.0905172 30.4137931,19.6422414 C30.2327586,18.9181034 29.9612069,18.1034483 29.6896552,17.2887931 Z M28.1508621,18.9181034 C28.0603448,18.9181034 28.0603448,18.9181034 27.9698276,19.0086207 C27.7887931,19.6422414 27.7887931,19.6422414 27.2456897,20.3663793 C26.8836207,20.7284483 26.8836207,21.362069 27.1551724,21.8146552 C27.4267241,22.2672414 27.5172414,22.7198276 27.6982759,23.1724138 C27.8793103,23.8060345 27.9698276,24.4396552 28.1508621,25.0732759 C28.875,24.5301724 29.237069,23.987069 29.0560345,23.1724138 C28.9655172,22.9913793 28.9655172,22.7198276 28.9655172,22.4482759 C28.6034483,21.2715517 28.4224138,20.0948276 28.1508621,18.9181034 Z M30.9568966,20.4568966 C32.2241379,18.4655172 32.4051724,16.7456897 31.5,15.8405172 C31.137931,16.0215517 30.7758621,16.2931034 30.4137931,16.3836207 C29.9612069,16.4741379 29.8706897,16.7456897 30.0517241,17.1077586 C30.4137931,18.1939655 30.6853448,19.3706897 30.9568966,20.4568966 Z M13.6681034,33.762931 C14.4827586,33.9439655 15.2974138,34.5775862 16.2025862,33.9439655 C16.9267241,33.4008621 17.4698276,32.7672414 18.1034483,32.2241379 C18.1034483,32.1336207 18.012931,32.1336207 18.012931,32.0431034 L15.8405172,32.0431034 C15.8405172,32.0431034 15.75,32.0431034 15.75,32.1336207 C15.1163793,32.6767241 14.3922414,33.2198276 13.6681034,33.762931 Z M18.737069,31.5 C18.5560345,31.2284483 18.375,30.9568966 18.1939655,30.7758621 C17.8318966,30.4137931 17.3793103,29.9612069 16.9267241,29.5991379 C16.7456897,29.4181034 16.3836207,29.237069 16.112069,29.3275862 C15.4784483,29.4181034 14.8448276,29.5991379 14.2112069,29.6896552 C15.0258621,30.3232759 15.8405172,30.8663793 16.5646552,31.4094828 L18.737069,31.4094828 L18.737069,31.5 Z M20.637931,32.2241379 C19.9137931,32.1336207 19.3706897,32.1336207 18.9181034,32.1336207 C18.8275862,32.1336207 18.737069,32.2241379 18.6465517,32.2241379 C17.9224138,32.9482759 17.1982759,33.6724138 16.5646552,34.3965517 C16.9267241,34.3965517 17.3793103,34.3060345 17.6508621,34.3060345 C18.012931,34.3965517 18.375,34.3060345 18.737069,34.125 C19.4612069,33.762931 19.9137931,32.9482759 20.637931,32.2241379 Z M12.1293103,31.137931 C13.487069,31.7715517 13.487069,31.7715517 14.6637931,31.6810345 L16.0215517,31.5 L16.0215517,31.3189655 C15.0258621,30.7758621 14.3922414,29.8706897 13.0344828,30.3232759 C12.4913793,30.4137931 12.4008621,30.7758621 12.1293103,31.137931 Z M17.5603448,29.3275862 L17.5603448,29.4181034 C18.1034483,30.1422414 18.6465517,30.8663793 19.1896552,31.5 C19.2801724,31.5905172 19.3706897,31.5905172 19.3706897,31.5905172 L21.362069,31.5905172 C21.1810345,31.2284483 21,30.8663793 20.8189655,30.6853448 C20.5474138,30.5043103 20.1853448,30.3232759 19.9137931,30.1422414 C19.7327586,30.0517241 19.4612069,30.0517241 19.2801724,29.9612069 C19.0991379,29.8706897 18.737069,29.8706897 18.5560345,29.7801724 C18.1939655,29.5991379 17.8318966,29.5086207 17.5603448,29.3275862 Z M15.2068966,32.2241379 C15.2068966,32.1336207 15.1163793,32.1336207 15.1163793,32.1336207 C13.8491379,32.3146552 12.5818966,32.4956897 11.3146552,32.6767241 C11.5862069,32.8577586 11.8577586,33.1293103 12.1293103,33.2198276 C12.4008621,33.3103448 12.8534483,33.4913793 13.125,33.4008621 C13.7586207,33.1293103 14.4827586,32.6767241 15.2068966,32.2241379 Z M10.3189655,32.3146552 C11.1336207,31.9525862 12.2198276,32.4956897 13.2155172,31.7715517 C12.4913793,31.5905172 11.8577586,31.4094828 11.2241379,31.2284483 C11.0431034,31.2284483 10.862069,31.4094828 10.6810345,31.5905172 C10.5,31.7715517 10.4094828,32.0431034 10.3189655,32.3146552 Z M32.4956897,17.2887931 L33.6724138,15.1163793 C31.862069,15.2974138 32.0431034,16.0215517 32.4956897,17.2887931 Z M19.8232759,33.762931 L19.9137931,33.8534483 C20.4568966,33.3103448 21,32.9482759 21.1810345,32.2241379 C21.0905172,32.1336207 21.0905172,32.1336207 21,32.1336207 C20.7284483,32.6767241 20.2758621,33.2198276 19.8232759,33.762931 Z M7.96551724,18.012931 C7.51293103,17.9224138 7.24137931,17.8318966 6.87931034,17.7413793 C7.06034483,18.2844828 7.15086207,18.2844828 7.96551724,18.012931 Z M7.60344828,10.9525862 C7.42241379,11.1336207 7.24137931,11.1336207 7.06034483,11.3146552 C6.96982759,11.4051724 6.96982759,11.5862069 6.96982759,11.6767241 C6.96982759,11.7672414 7.15086207,11.7672414 7.15086207,11.7672414 C7.24137931,11.6767241 7.24137931,11.5862069 7.33189655,11.4956897 C7.42241379,11.4051724 7.42241379,11.2241379 7.60344828,10.9525862 Z" id="Shape"></path>
                </g>
                <g id="Group" transform="translate(45.258621, 6.336207)">
                    <path d="M28.0603448,22.2672414 C27.2456897,22.2672414 26.612069,22.1767241 26.25,22.0862069 C25.887931,21.9956897 25.7974138,21.8146552 25.7068966,21.6336207 C25.6163793,21.4525862 25.5258621,21.0905172 25.5258621,20.2758621 L24.8017241,4.1637931 C24.8017241,3.43965517 24.9827586,2.89655172 25.3448276,2.625 C25.7974138,2.35344828 26.5215517,2.17241379 27.6077586,2.17241379 C27.7887931,2.17241379 28.1508621,1.99137931 28.1508621,1.5387931 C28.1508621,0.995689655 27.7887931,0.905172414 27.6077586,0.905172414 C27.0646552,0.905172414 26.7025862,0.905172414 26.4310345,0.905172414 L24.8017241,0.905172414 C24.4396552,0.905172414 24.1681034,0.905172414 23.987069,0.905172414 C23.7155172,0.905172414 23.5344828,0.905172414 23.4439655,0.905172414 C22.9913793,0.905172414 22.3577586,1.0862069 21.9956897,2.08189655 L14.8448276,18.4655172 L7.51293103,2.98706897 C7.15086207,2.17241379 6.7887931,1.62931034 6.60775862,1.35775862 C6.24568966,1.0862069 5.79310345,0.905172414 5.43103448,0.905172414 C5.25,0.905172414 4.97844828,0.905172414 4.70689655,0.905172414 C4.43534483,0.905172414 4.07327586,0.905172414 3.7112069,0.905172414 C3.34913793,0.905172414 2.98706897,0.905172414 2.71551724,0.905172414 L1.44827586,0.905172414 C1.35775862,0.905172414 0.905172414,0.905172414 0.905172414,1.5387931 C0.905172414,2.17241379 1.35775862,2.17241379 1.44827586,2.17241379 C2.44396552,2.17241379 3.25862069,2.53448276 3.80172414,3.25862069 L3.53017241,19.2801724 C3.53017241,20.3663793 3.34913793,21.1810345 2.98706897,21.6336207 C2.625,22.0862069 2.08189655,22.2672414 1.26724138,22.2672414 C1.17672414,22.2672414 0.724137931,22.2672414 0.724137931,22.9008621 C0.724137931,23.5344828 1.17672414,23.5344828 1.26724138,23.5344828 C1.90086207,23.5344828 2.35344828,23.5344828 2.625,23.5344828 L4.43534483,23.5344828 L6.3362069,23.5344828 C6.69827586,23.5344828 7.24137931,23.5344828 7.875,23.5344828 C7.96551724,23.5344828 8.41810345,23.5344828 8.41810345,22.9008621 C8.41810345,22.2672414 7.96551724,22.2672414 7.875,22.2672414 C6.87931034,22.2672414 6.24568966,22.0862069 5.88362069,21.6336207 C5.52155172,21.1810345 5.34051724,20.4568966 5.34051724,19.3706897 L5.61206897,6.69827586 L13.3060345,23.1724138 L13.3965517,23.262931 C13.8491379,23.625 14.4827586,23.625 14.7543103,23.0818966 L21.9051724,6.51724138 L22.4482759,20.3663793 C22.5387931,21.1810345 22.4482759,21.5431034 22.3577586,21.7241379 C22.2672414,21.8146552 22.1767241,21.9956897 21.9051724,22.1767241 C21.6336207,22.2672414 21.1810345,22.3577586 20.2758621,22.3577586 C20.1853448,22.3577586 19.7327586,22.3577586 19.7327586,22.9913793 C19.7327586,23.625 20.1853448,23.625 20.2758621,23.625 C21,23.625 21.4525862,23.625 21.8146552,23.625 L23.987069,23.625 L26.3405172,23.625 C26.7931034,23.625 27.3362069,23.625 28.0603448,23.625 C28.2413793,23.625 28.6034483,23.4439655 28.6034483,22.9913793 C28.6034483,22.3577586 28.2413793,22.2672414 28.0603448,22.2672414 Z" id="Shape" fill-rule="nonzero"></path>
                    <path d="M54.6724138,2.89655172 C54.762931,2.80603448 54.8534483,2.53448276 55.2155172,2.44396552 C55.5775862,2.35344828 56.2112069,2.26293103 57.0258621,2.26293103 C57.1163793,2.26293103 57.5689655,2.26293103 57.5689655,1.62931034 C57.5689655,0.995689655 57.1163793,0.995689655 57.0258621,0.995689655 C57.0258621,0.995689655 57.0258621,0.995689655 57.0258621,0.995689655 L55.3060345,0.995689655 C54.3103448,1.0862069 53.4956897,1.0862069 52.9525862,1.0862069 C52.3189655,1.0862069 51.4137931,1.0862069 50.4181034,0.995689655 L48.6982759,0.995689655 C48.6077586,0.995689655 48.1551724,0.995689655 48.1551724,1.62931034 C48.1551724,2.26293103 48.6077586,2.26293103 48.6982759,2.26293103 C49.7844828,2.26293103 50.237069,2.35344828 50.5086207,2.44396552 C50.7801724,2.53448276 50.9612069,2.71551724 51.0517241,2.89655172 C51.1422414,3.07758621 51.2327586,3.43965517 51.2327586,4.25431034 L51.2327586,4.61637931 L39.2844828,17.4698276 L39.2844828,4.25431034 C39.2844828,3.43965517 39.375,3.07758621 39.4655172,2.89655172 C39.5560345,2.71551724 39.737069,2.53448276 40.0991379,2.44396552 C40.3706897,2.35344828 40.9137931,2.26293103 41.9094828,2.26293103 C42,2.26293103 42.4525862,2.26293103 42.4525862,1.62931034 C42.4525862,0.905172414 42,0.905172414 41.9094828,0.905172414 C41.9094828,0.905172414 41.9094828,0.905172414 41.9094828,0.905172414 L40.1896552,0.905172414 C39.1939655,0.995689655 38.3793103,0.995689655 37.6551724,0.995689655 C37.112069,0.995689655 36.2974138,0.995689655 35.3017241,0.905172414 L33.4913793,0.905172414 C33.4008621,0.905172414 32.9482759,0.905172414 32.9482759,1.5387931 C32.9482759,2.17241379 33.4008621,2.17241379 33.4913793,2.17241379 C34.3060345,2.17241379 34.9396552,2.26293103 35.3017241,2.35344828 C35.6637931,2.44396552 35.8448276,2.625 35.8448276,2.80603448 C35.9353448,2.98706897 36.0258621,3.34913793 36.0258621,4.1637931 L36.0258621,20.2758621 C36.0258621,21.0905172 35.9353448,21.4525862 35.8448276,21.6336207 C35.7543103,21.7241379 35.6637931,21.9956897 35.3017241,22.0862069 C34.9396552,22.1767241 34.3060345,22.2672414 33.4913793,22.2672414 C33.4008621,22.2672414 32.9482759,22.2672414 32.9482759,22.9008621 C32.9482759,23.5344828 33.4008621,23.5344828 33.4913793,23.5344828 C34.2155172,23.5344828 34.8491379,23.5344828 35.2112069,23.5344828 L37.5646552,23.5344828 L40.0086207,23.5344828 C40.4612069,23.5344828 41.0043103,23.5344828 41.7284483,23.5344828 C41.8189655,23.5344828 42.2715517,23.5344828 42.2715517,22.9008621 C42.2715517,22.2672414 41.8189655,22.2672414 41.7284483,22.2672414 C40.8232759,22.2672414 40.1896552,22.1767241 39.8275862,22.0862069 C39.4655172,21.9956897 39.2844828,21.8146552 39.2844828,21.6336207 C39.1939655,21.4525862 39.1034483,21.0905172 39.1034483,20.2758621 L39.1034483,19.9137931 L51.1422414,7.06034483 L51.1422414,20.2758621 C51.1422414,21.0905172 51.0517241,21.4525862 50.9612069,21.6336207 C50.8706897,21.7241379 50.7801724,21.9956897 50.4181034,22.0862069 C50.0560345,22.1767241 49.4224138,22.2672414 48.5172414,22.2672414 C48.4267241,22.2672414 47.9741379,22.2672414 47.9741379,22.9008621 C47.9741379,23.5344828 48.4267241,23.5344828 48.5172414,23.5344828 C49.2413793,23.5344828 49.7844828,23.5344828 50.1465517,23.5344828 L52.6810345,23.5344828 L55.0344828,23.5344828 C55.487069,23.5344828 56.0301724,23.5344828 56.7543103,23.5344828 C56.8448276,23.5344828 57.2974138,23.5344828 57.2974138,22.9008621 C57.2974138,22.2672414 56.8448276,22.2672414 56.7543103,22.2672414 C55.9396552,22.2672414 55.3060345,22.1767241 54.9439655,22.0862069 C54.5818966,21.9956897 54.4008621,21.8146552 54.4008621,21.6336207 C54.3103448,21.4525862 54.2198276,21.0905172 54.2198276,20.2758621 L54.2198276,4.1637931 C54.4913793,3.43965517 54.5818966,3.07758621 54.6724138,2.89655172 Z" id="Path"></path>
                    <path d="M77.5732759,2.35344828 C76.2155172,1.35775862 74.4051724,0.814655172 72.1422414,0.814655172 C71.6896552,0.814655172 71.1465517,0.814655172 70.512931,0.905172414 C69.8793103,0.905172414 69.5172414,0.995689655 69.1551724,0.995689655 C68.4310345,1.0862069 67.7974138,1.0862069 67.2543103,1.0862069 C66.7112069,1.0862069 65.8965517,1.0862069 64.9008621,0.995689655 L63.1810345,0.995689655 C63.0905172,0.995689655 62.637931,0.995689655 62.637931,1.62931034 C62.637931,2.26293103 63.0905172,2.26293103 63.1810345,2.26293103 C63.9956897,2.26293103 64.6293103,2.35344828 64.9913793,2.44396552 C65.3534483,2.53448276 65.4439655,2.71551724 65.5344828,2.89655172 C65.625,3.07758621 65.7155172,3.43965517 65.7155172,4.25431034 L65.7155172,20.3663793 C65.7155172,21.1810345 65.625,21.5431034 65.5344828,21.7241379 C65.4439655,21.8146552 65.3534483,21.9956897 64.9913793,22.1767241 C64.6293103,22.2672414 63.9956897,22.3577586 63.1810345,22.3577586 C63.0905172,22.3577586 62.637931,22.3577586 62.637931,22.9913793 C62.637931,23.625 63.0905172,23.625 63.1810345,23.625 C63.9051724,23.625 64.5387931,23.625 64.9913793,23.625 L67.3448276,23.625 L70.3318966,23.625 C70.875,23.625 71.5991379,23.625 72.5948276,23.625 C72.7758621,23.625 73.137931,23.4439655 73.137931,22.9913793 C73.137931,22.4482759 72.7758621,22.3577586 72.5948276,22.3577586 C71.4181034,22.3577586 70.512931,22.2672414 69.9698276,22.1767241 C69.5172414,22.0862069 69.2456897,21.9051724 69.0646552,21.6336207 C68.9741379,21.4525862 68.7931034,21.0905172 68.7931034,20.2758621 L68.7931034,4.25431034 C68.7931034,3.34913793 68.8836207,2.98706897 68.9741379,2.80603448 C69.0646552,2.625 69.2456897,2.44396552 69.5172414,2.44396552 C69.8793103,2.35344828 70.4224138,2.35344828 71.237069,2.35344828 C72.6853448,2.35344828 73.862069,2.80603448 74.7672414,3.80172414 C75.6724138,4.79741379 76.125,6.15517241 76.125,7.78448276 C76.125,9.50431034 75.6724138,10.862069 74.6767241,11.7672414 C73.6810345,12.6724138 72.5043103,13.125 71.1465517,13.125 C70.6939655,13.125 70.3318966,13.125 70.0603448,13.0344828 L69.8793103,12.9439655 L69.6982759,13.0344828 C69.6077586,13.0344828 69.4267241,13.125 69.3362069,13.3060345 C69.2456897,13.3965517 69.2456897,13.5775862 69.2456897,13.7586207 C69.2456897,14.1206897 69.5172414,14.3017241 69.6982759,14.3922414 C70.1508621,14.4827586 70.6939655,14.5732759 71.4181034,14.5732759 C72.7758621,14.5732759 74.0431034,14.3017241 75.2198276,13.7586207 C76.487069,13.2155172 77.4827586,12.4008621 78.2974138,11.3146552 C79.112069,10.2284483 79.4741379,8.78017241 79.4741379,7.15086207 C79.7456897,4.97844828 79.0215517,3.34913793 77.5732759,2.35344828 Z" id="Path"></path>
                    <path d="M162.568966,12.762931 C161.844828,12.0387931 160.849138,11.4956897 159.762931,11.2241379 C160.487069,10.7715517 161.12069,10.2284483 161.75431,9.50431034 C162.75,8.32758621 163.202586,7.06034483 163.202586,5.70258621 C163.202586,4.25431034 162.659483,2.98706897 161.482759,1.99137931 C160.306034,0.995689655 158.767241,0.543103448 156.685345,0.543103448 C154.965517,0.543103448 153.24569,0.905172414 151.344828,1.5387931 C151.163793,1.62931034 150.801724,1.71982759 150.711207,1.99137931 C150.62069,2.17241379 150.62069,2.35344828 150.530172,2.71551724 L150.077586,6.69827586 C150.077586,6.7887931 150.168103,7.06034483 150.349138,7.15086207 C150.439655,7.24137931 150.62069,7.24137931 150.711207,7.24137931 C151.073276,7.24137931 151.25431,7.06034483 151.25431,6.7887931 C151.706897,5.15948276 152.340517,3.89224138 153.24569,3.07758621 C154.150862,2.26293103 155.056034,1.90086207 156.142241,1.90086207 C157.318966,1.90086207 158.133621,2.26293103 158.857759,3.07758621 C159.581897,3.89224138 159.943966,4.97844828 159.943966,6.42672414 C159.943966,7.875 159.581897,8.9612069 158.676724,9.68534483 C157.862069,10.5 156.594828,10.862069 154.875,10.862069 C154.603448,10.862069 154.241379,11.0431034 154.241379,11.4956897 C154.241379,11.9482759 154.512931,12.1293103 154.875,12.1293103 C156.775862,12.1293103 158.224138,12.5818966 159.12931,13.487069 C160.125,14.3922414 160.577586,15.6594828 160.577586,17.3793103 C160.577586,18.8275862 160.215517,20.0043103 159.491379,21 C158.857759,21.9051724 157.771552,22.3577586 156.413793,22.3577586 C155.146552,22.3577586 153.87931,21.9051724 152.793103,21.0905172 C151.706897,20.2758621 150.982759,19.0086207 150.711207,17.1982759 C150.62069,17.0172414 150.349138,16.7456897 149.987069,16.8362069 C149.534483,16.9267241 149.443966,17.1982759 149.443966,17.4698276 L149.896552,21.362069 C149.896552,21.7241379 149.987069,21.9051724 150.077586,22.0862069 C150.168103,22.2672414 150.349138,22.3577586 150.530172,22.5387931 C151.073276,22.9913793 151.887931,23.3534483 152.883621,23.625 C153.87931,23.8965517 154.784483,23.987069 155.780172,23.987069 C157.318966,23.987069 158.676724,23.7155172 159.943966,23.0818966 C161.211207,22.4482759 162.206897,21.6336207 163.021552,20.5474138 C163.74569,19.4612069 164.198276,18.1939655 164.198276,16.8362069 C164.198276,15.2068966 163.655172,13.8491379 162.568966,12.762931 Z" id="Path"></path>
                    <path d="M138.12931,2.17241379 C136.409483,1.0862069 134.327586,0.543103448 132.064655,0.543103448 C130.073276,0.543103448 127.991379,0.995689655 126.090517,1.90086207 C124.099138,2.80603448 122.469828,4.1637931 121.293103,5.88362069 C120.025862,7.69396552 119.392241,9.77586207 119.392241,12.3103448 C119.392241,14.3922414 119.844828,16.3836207 120.840517,18.1939655 C121.836207,20.0043103 123.193966,21.4525862 124.913793,22.4482759 C126.633621,23.5344828 128.715517,23.987069 130.887931,23.987069 C133.150862,23.987069 135.232759,23.4439655 137.133621,22.3577586 C139.034483,21.2715517 140.663793,19.8232759 141.75,18.012931 C142.926724,16.2025862 143.469828,14.1206897 143.469828,11.9482759 C143.469828,9.95689655 143.017241,8.05603448 142.112069,6.3362069 C141.206897,4.70689655 139.939655,3.25862069 138.12931,2.17241379 Z M124.189655,16.8362069 C123.375,15.1163793 123.012931,13.125 123.012931,11.0431034 C123.012931,8.32758621 123.737069,6.15517241 125.094828,4.52586207 C126.452586,2.98706897 128.353448,2.17241379 130.706897,2.17241379 C132.607759,2.17241379 134.237069,2.625 135.594828,3.53017241 C136.952586,4.43534483 138.12931,5.70258621 138.853448,7.33189655 C139.668103,8.9612069 140.030172,10.862069 140.030172,12.9439655 C140.030172,14.9353448 139.668103,16.6551724 138.943966,18.012931 C138.219828,19.3706897 137.314655,20.4568966 136.137931,21.1810345 C134.961207,21.9051724 133.603448,22.2672414 132.064655,22.2672414 C130.344828,22.2672414 128.715517,21.8146552 127.357759,20.8189655 C126,19.9137931 124.913793,18.5560345 124.189655,16.8362069 Z" id="Shape" fill-rule="nonzero"></path>
                    <path d="M111.607759,2.35344828 C110.25,1.35775862 108.439655,0.814655172 106.176724,0.814655172 C105.724138,0.814655172 105.181034,0.814655172 104.547414,0.905172414 C103.913793,0.905172414 103.551724,0.995689655 103.189655,0.995689655 C102.465517,1.0862069 101.831897,1.0862069 101.288793,1.0862069 C100.74569,1.0862069 99.9310345,1.0862069 98.9353448,0.995689655 L97.2155172,0.995689655 C97.125,0.995689655 96.6724138,0.995689655 96.6724138,1.62931034 C96.6724138,2.26293103 97.125,2.26293103 97.2155172,2.26293103 C98.0301724,2.26293103 98.6637931,2.35344828 99.0258621,2.44396552 C99.387931,2.53448276 99.4784483,2.71551724 99.5689655,2.89655172 C99.6594828,3.07758621 99.75,3.43965517 99.75,4.25431034 L99.75,20.3663793 C99.75,21.1810345 99.6594828,21.5431034 99.5689655,21.7241379 C99.4784483,21.8146552 99.387931,21.9956897 99.0258621,22.1767241 C98.6637931,22.2672414 98.0301724,22.3577586 97.2155172,22.3577586 C97.125,22.3577586 96.6724138,22.3577586 96.6724138,22.9913793 C96.6724138,23.625 97.125,23.625 97.2155172,23.625 C97.9396552,23.625 98.5732759,23.625 99.0258621,23.625 L101.37931,23.625 L104.366379,23.625 C104.909483,23.625 105.633621,23.625 106.62931,23.625 C106.810345,23.625 107.172414,23.4439655 107.172414,22.9913793 C107.172414,22.4482759 106.810345,22.3577586 106.62931,22.3577586 C105.452586,22.3577586 104.547414,22.2672414 104.00431,22.1767241 C103.551724,22.0862069 103.280172,21.9051724 103.099138,21.6336207 C103.008621,21.4525862 102.827586,21.0905172 102.827586,20.2758621 L102.827586,4.25431034 C102.827586,3.34913793 102.918103,2.98706897 103.008621,2.80603448 C103.099138,2.625 103.280172,2.44396552 103.551724,2.44396552 C103.913793,2.35344828 104.456897,2.35344828 105.271552,2.35344828 C106.719828,2.35344828 107.896552,2.80603448 108.801724,3.80172414 C109.706897,4.79741379 110.159483,6.15517241 110.159483,7.78448276 C110.159483,9.50431034 109.706897,10.862069 108.711207,11.7672414 C107.715517,12.6724138 106.538793,13.125 105.181034,13.125 C104.728448,13.125 104.366379,13.125 104.094828,13.0344828 L103.913793,12.9439655 L103.732759,13.0344828 C103.642241,13.0344828 103.461207,13.125 103.37069,13.3060345 C103.280172,13.487069 103.280172,13.5775862 103.280172,13.7586207 C103.280172,14.1206897 103.551724,14.3017241 103.732759,14.3922414 C104.185345,14.4827586 104.728448,14.5732759 105.452586,14.5732759 C106.810345,14.5732759 108.077586,14.3017241 109.25431,13.7586207 C110.521552,13.2155172 111.517241,12.4008621 112.331897,11.3146552 C113.146552,10.2284483 113.508621,8.78017241 113.508621,7.15086207 C113.689655,4.97844828 112.965517,3.34913793 111.607759,2.35344828 Z" id="Path"></path>
                </g>
            </g>
        </g>
    </g>
</svg>