<svg width="231" height="40" viewBox="0 0 231 40" xmlns="http://www.w3.org/2000/svg"><title>E8BA5280-BDF9-48C4-BC0F-EAD0E0ADDE8B</title><path d="M30.5 39.438c-.813-.25-1.25-.938-1.813-1.5a7.194 7.194 0 0 0-1.062-.876c-.063-.062-.313 0-.438 0a4.34 4.34 0 0 0-.812.313c-.063-.063-.063-.188-.125-.25.125-.125.25-.375.438-.438.375-.187.375-.374.187-.624-.25-.376-.375-.813-1-.75-.375.062-.5.187-.688.5-.437.687-.875 1.374-1.5 1.937-.437.375-1.062.5-1.625.688-.187.062-.437.062-.687.187-.438.25-.938.313-1.438.188-.875-.126-1.75-.063-2.687-.126-.313 0-.625-.062-.938-.124-.625-.126-1.312-.25-1.875-.438-.812-.313-1.624-.688-2.437-1.063-.75-.312-1.438-.624-2.188-.937 0-.063.126-.125.126-.25.124-.938.812-1.25 1.562-1.563.75-.374 1.5-.812 2.188-1.187 1.187-.625 2.437-1 3.75-1.188.375-.062.75-.25 1.125-.187 1.125.063 2.187.125 3.125.875.562.438 1.25.688 1.875 1.063.312.187.625.374.812.624.313.563.75.626 1.375.438-.063-.125-.063-.313-.188-.438l-1.5-2.25c-.125-.124-.312-.187-.5-.25-.312-.125-.625-.187-1-.312 0-.063 0-.125.063-.188.125-.062.25-.062.375-.125.125-.062.25-.125.313-.125a26.173 26.173 0 0 0-.938-1.875c-.063-.125-.313-.187-.5-.25-.375-.062-.813-.125-1.188-.187v-.125c.25-.125.563-.25.813-.313.313-.062.375-.187.25-.5-.375-.875-.813-1.812-1.125-2.687-.188-.438-.438-.5-.813-.375-.687.313-1.312.063-1.875-.25-.687-.375-1.5-.625-2.125-1.188-.312-.312-.812.063-1.062.625-.188.375-.375.75-.688 1.063-.812.813-1.75.688-2.687.313-.813-.313-1.563-.75-2.375-1.125a23.068 23.068 0 0 0-1.813-.813l-.562-.188c-.75-.312-1.313-.812-1.125-1.75 0-.125 0-.25-.063-.562-.437.25-.75.5-1.125.75-.125.063-.312.125-.437.063-1.25-.25-1.875-1.188-2.313-2.313-.812-2.25-.5-4.313.875-6.25.126-.188.25-.438.376-.625-.063-.063-.063-.125-.126-.188-.312.188-.687.313-1 .5-.375.25-.687.75-1.125.5-.25-.124-.312-.75-.25-1.124.376-1.938.75-3.938 2.313-5.313 1.063-.938 2.438-1.25 3.875-.938.188.063.313.188.438.313 0 .063-.063.125-.063.125-.375 0-.813-.063-1.188 0-.625-.125-1.312.063-1.937.25-.063 0-.063.063-.063.063C2.25 7.063 2.063 8.25 1.938 9.5c-.062.5-.312 1-.5 1.5-.125.313-.187.688-.312 1.063.5-.126.875-.313 1.25-.376a1.8 1.8 0 0 1 .813 0c.25.126.562.313.75.5.062.063-.188.438-.376.626-.937.75-1 1.937-1.25 2.937-.374 1.688.126 3.313 1.126 4.875.562-.438 1-.938 1.5-1.313.812-.625 1.687-.812 2.75-.687 1.125.125 2.062.563 2.937 1.188.938.625 1.625.437 2.375-.5-.875-.688-1.75-1.375-2.75-2.125v-.25c-.438.062-.875.062-1.375.125.125-.563-.25-.438-.563-.438 0 .188-.062.313-.062.438h-.188c-.25 0-.562-.063-.75.062-.375.313-.5.313-1.062 0 .25-.125.438-.188.625-.313 0-.125-.063-.312-.063-.562-.25.25-.5.438-.75.625-.187-.25-.375-.438-.5-.75-.187-.563-.437-1.188-.5-1.75 0-.5-.062-.938-.312-1.313-.063-.124.188-.374.125-.624.063-.438 0-.876.125-1.313C5.375 9.5 6 8 6.875 6.5 7.5 5.375 8.25 4.312 9.25 3.5c.875-.688 1.875-1.188 2.813-1.813C12.937 1.125 14 .938 15 .5c.938-.375 1.25.063 1.75.563.875.937.875.875 1.813.062 1-.875 2.125-1.25 3.437-1 .75.188 1.438.563 2.125.875.438.25.813.375 1.313.188.875-.313 1.812-.313 2.75 0 .125.062.25.062.375.062.5 0 .75.313.812.75 0 .375 0 .75-.063 1.125-.125 1.063.25 1.875 1.188 2.438.375.25.75.562 1.063.875.5.5.437.937-.188 1.375 1.75.625 3.188 1.687 3.688 2.687-.876-.188-1.313.375-1.688.938-.75 1.187-1.75 2-3.063 2.624-1 .5-1.875 1.063-2.812 1.688-.313.188-.563.438-.813.75a10.2 10.2 0 0 0-1.062 1.25c-.25.438-.438.875-.5 1.375-.125.813-.063 1.625-.25 2.438-.25.875-.875 1.562-1.75 1.937-.375.125-.563.75-.375 1.25.125.375.313.75.438 1.188.25-.125.562-.25.812-.375.063.062.125.062.188.125-.125.25-.188.562-.375.75-.313.312-.375.562-.125.875.062.062.062.187.125.25.187.312.312.75.625 1 .187.187.625.062 1.062.062l-.188.563c-.187.5-.25.937.188 1.375.438.5.75 1.125 1.125 1.687.188.313.438.563.75.938.25-.75.438-1.313.625-1.938v-.188c-.75-.625-.063-1.5-.438-2.187.5-.5.125-1.188.313-1.75.25-.875.438-1.813.563-2.75.125-.813.625-1.563 1-2.313 0-.062.125-.062.125-.125 0-1.187 1-1.75 1.562-2.625.313-.437.75-.812 1.125-1.125a9.173 9.173 0 0 1 2.5-1.5c1.063-.5 2.125-1.062 3.188-1.625.437-.187.874-.312 1.374-.437.063.063.126.125.188.125-.063.313-.188.688-.125 1 0 .313.25.625.25 1 .063.5-.063 1.063-.063 1.563 0 .312.063.562.126.875-.063.812 0 1.437-.313 2.062-.125.25 0 .688 0 1 0 .375.063.75-.125 1.063-.25.562-.5 1.062-.5 1.687 0 .375-.563.688-.813 1.063-.187.25-.312.5-.5.75-.374.5-.75 1.062-1.124 1.562-.188.25-.376.438-.563.625-.25.25-.5.5-.813.75-.312.313-.624.688-1 .938-.312.187-.624.375-1 .437-.374.063-.75.063-1.124.063-.125 0-.25 0-.313.062-.688.625-1.5.438-2.25.313-.125 0-.313 0-.625-.063 0 1.063-.063 2.125 0 3.188 0 .624.5.874 1.125.75.125-.063.375 0 .438.124.062.063 0 .313-.063.376-.375.437-.188.75.25 1.062.438.313.813.625 1.25.938.188.124.313.312.438.5-.188.062-.376.124-.5.187.312.25.687.563 1 .875h-.938l-.938-.75c0 .063-.062.063-.062.125.063.188.125.438.188.625-.188-.063-.25-.063-.313-.063zM18.75 19.311c.375-.25.75-.562 1.125-.812.188-.125.5-.188.75-.25-1-.438-1.563.25-2.188.688.125.125.25.25.313.375-.25 0-.5.125-.688.062-.562-.188-1.25 0-1.687.438.75-.063 1.5-.063 2.25-.125.063 0 .063-.25.125-.375zM30 29.813c1 0 2 .25 2.938 0 .874-.25 1.624-1.062 2.124-2-1 .25-1.874.438-2.75.625 0-.062-.062-.125-.062-.187.188-.125.375-.25.563-.313.874-.25 1.687-.437 2.562-.625.188-.062.438-.187.563-.375.437-.625.874-1.25 1.374-2-.874.188-1.812.375-2.687.563 0-.063-.063-.125-.063-.125.126-.063.188-.25.313-.25.438-.125.938-.313 1.438-.375.874-.125 1.124-.813 1.5-1.438.124-.187 0-.562-.126-.75-.062-.062-.437 0-.624 0l-.75.188c-.063-.063-.063-.125-.126-.188.188-.125.438-.312.626-.437.312-.188.75-.25.874-.5.376-.938.688-1.875.938-2.875.125-.688.125-1.375.188-2.25-.188.25-.313.375-.376.5l-1.874 3.563c-.438.875-.813 1.75-1.25 2.625-.126.25-.313.5-.5.812-.626 1-1.188 2.063-1.876 2.938-1 1-2 1.937-2.937 2.875l-.438.437-.562-.188v-.125c.063-.062.125-.125.125-.187 1-.813 1.563-1.688 1.125-3v-.063c-.188-.875-.375-1.687-.563-2.687-.125.688 0 1.375-.312 1.625-.5.5-.438 1.188-.313 1.5.188.563 0 .938-.187 1.375-.313.688-1 1.375-.375 2.125.5.125 1 .375 1.5.375.438 0 .875-.313 1.375-.5 0-.063-.063-.125-.063-.188-.312 0-.562 0-.875-.062-.187-.063-.312-.313-.437-.438zM9.437 8.688c-.124.313-.25.563-.374.876.062 0 .062 0 .124.062.438-.5.876-1.063 1.313-1.563 0-.062-.063-.124-.063-.124-.25.125-.5.312-.687.437-.188.063-.25.25-.313.313 0-.25 0-.563.126-.75A9.695 9.695 0 0 1 12 5.313c.5-.375.938-.563 1.5-.563.188 0 .438.25.625.375-.125.125-.25.25-.375.438l-.188.187c-.374.625-.687 1.25-1.062 1.875-.25.438-.438 1-.813 1.313-.812.75-.874 1.812-1.374 2.624.124.063.187.126.25.126 1.374 0 2.687 0 4 .5a.69.69 0 0 0 .5 0c.624-.376 1.187-.813 1.812-1.313-.313-.125-.5-.25-.625-.313-.75-.312-1.5-.374-2.313-.25-.312.063-.75-.187-1.062-.437-.125-.063-.063-.563.063-.75.874-.938 1.812-1.813 2.75-2.688.062-.062.25-.062.374-.062 1.25.375 2.5.813 3.5 1.75.125.125.188.438.25.625-.062 0-.125.063-.187.063a85.294 85.294 0 0 0-3.438-1.626c-.437.438-.875.938-1.312 1.438 1.063.438 2 .813 3 1.188.438-.188.938-.5 1.438-.688.062-.063.25.063.375.125-.063.125-.063.25-.188.313-.75.687-1.563 1.374-2.313 2.124-.437.438-.812.938-1.25 1.313-.25.188-.624.25-.937.25-.563-.063-1.063-.375-1.625-.438-.875-.062-1.75.188-2.563.563.438.125.876.188 1.313.25.75.125 1.563.25 2.313.438.624.124 1.187.312 1.75.437 1.125.25 2.125 0 2.75-1.063.375-.624.812-1.25 1.25-1.874.312-.5.687-1 1.062-1.5.75-.938.688-1.938.125-3-.063-.125-.063-.313-.063-.438.125.063.313.125.438.188l.563.562c.562.563.687 1.25.312 2-.625 1.188-1.188 2.313-1.813 3.5-.5.938-.875 1.875-1.75 2.625s-1.687.563-2.625.563c-.25 0-.5.125-.687.25-.5.375-.875.812-1.375 1.125-.25.187-.75.312-1 .187-.563-.313-.625.125-1 .5.813.188 1.438.375 2.125.5.313.063.625.063.938.063.687.062 1.437.062 1.937-.563 1.125-1.25 2.438-2 4.125-2 .125 0 .313-.125.438-.188.75-.624 1.187-1.437 1.125-2.437-.063-1 .187-1.875.875-2.438 1-.812 1.75-1.75 2.437-2.75.563-.874.313-1.374-.375-1.874-1.125-.813-1.875-1.875-1.75-3.313 0-.313.063-.688 0-1 0-.188-.125-.5-.313-.563-.875-.687-1.875-.937-3-.937-.875 0-1.062.25-1 .875-.5.188-1 .438-1.5.625 0 .063.063.125.063.188.375-.126.688-.25 1-.376.375.375.438.813 0 1.188.125.125.375.25.375.375A2.894 2.894 0 0 0 20.938 5c.187.125.312.313.437.563.063.125.063.375.063.5-.188-.063-.375-.063-.5-.125-.875-.313-1.688-.688-2.563-1-.063-.063-.188 0-.313 0-.875.375-1.75.062-2.625-.188-.25-.063-.437-.313-.687-.5.25-.063.563-.25.813-.25.812-.125 1.624-.188 2.5-.25-.313-.625-.5-1.125-1.125-1.438-.375-.187-.75-.5-1-.874-.313-.5-.75-.563-1.188-.375-1.25.5-2.625.937-3.75 1.687-1.25.813-2.313 1.875-3.438 2.875-.312.25-.687.75-.625 1 .063.5-.187.75-.312 1.125-.625 1.375-.938 2.813-.813 4.313.125 1 .375 2 .938 2.874.188.313.313.376.688.376.875 0 1.687 0 2.562.187.688.125 1.313.625 1.938.75C13 16.5 14 16.25 15 15.562c-.5-.374-1-.687-1.563-.937-.812-.313-1.624-.625-2.437-.813-.313-.124-.813-.187-1.063 0-.75.5-1.5.126-2.25.063-.437 0-.562-.313-.5-.625.063-.813 0-1.563.5-2.313.438-.624.375-.687 1.063-.75-.188-.312-.375-.562-.5-.812-.188.188-.375.313-.5.5-.063-.063-.125-.125-.188-.125C8 9 8.376 8.25 8.813 7.5c.063 0 .126.063.188.063-.063.25-.125.562-.188.812.376.313.5.313.626.313zm11.75 9.688a7.461 7.461 0 0 0-1 .5c-.187.125-.437.25-.625.438-.25.187-.5.562-.75.625-.75.187-1.5.25-2.25.375-.062 0-.062-.063-.125-.063-.812-.125-1.625-.375-2.25.438-.124.125-.312.312-.5.312-.5 0-.5.375-.624.625.5-.063 1-.063 1.437-.125.875-.125 1.688.063 2.375.75l.938.938c.625.625 1.937.812 2.625.5.687-.313 1.375-.625 2.062-.813.688-.188 1.25-.563 1.375-1.25.188-.688.313-1.438.313-2.125 0-.938.312-1.625.875-2.313.5-.562.875-1.25 1.312-1.875.5-.687.313-1.374.125-2.124-.563.25-.5.187-.75-.25a1.146 1.146 0 0 0-.625-.438c-.063 0-.313.25-.375.375-.313.75-.563 1.563-.813 2.313-.187.75-.625 1.25-1.312 1.562-.313.125-.625.375-.875.5 0 .563 1.063.5.563 1.188-.125.125-.688-.063-1.125-.063zM33.5 10.062c0-.062 0-.124.063-.187-.313-.313-.626-.625-1-.875-.376-.188-.813-.25-1.188-.313-.938-.25-1.188-.812-.688-1.562a.69.69 0 0 0 0-.5C30.5 6.375 30.25 6.187 30 6c-1.063-.688-1.625-1.625-1.5-2.875.063-.375 0-.75 0-1.188h-1.938c-.062.5-.25.875-.25 1.313 0 .563 0 1.125.188 1.625.375 1 .875 1.875 1.375 2.813.25.5.25.937 0 1.437-.125-.125-.25-.188-.313-.25 0 .063.063.125.063.188-.25.187-.563.374-.813.562-.187.125-.312.313-.437.438l.125.124c.5-.187.938-.437 1.438-.624.062.062.125.062.125.124-.125.25-.25.563-.375.813-.188.25-.438.438-.563.688-.063.187-.125.5 0 .687.625.938 1.625 1.375 2.75 1.313.563-.063 1.063-.25 1.438-.75.562-.938.937-2.063 2.187-2.376zM6.937 20.126c-.562.25-.75.625-.75 1.563 0 .687.563.437.938.562.125.063.375.063.5.125 1 .5 2 1 2.938 1.5 1.374.688 2.437.375 3.124-1.063-.687-.312-1.562-.437-1.624-1.375-.313 0-.75.125-.938 0C10 20.75 8.687 20.75 7.5 20.313c-.125.063-.313-.062-.563-.187zm25.875-1c-.062-.063-.124-.125-.187-.125l-.563.563c-.124.125-.187.375-.374.5-.313.25-.313.562-.188.937.188.688.375 1.313.563 2 .187.875.374 1.813.5 2.688 1.062-1.125 1.562-2.438 1.124-4-.25-.813-.562-1.688-.874-2.563zm-1.75 1.75c-.062 0-.125 0-.187.063-.188.687-.188.687-.813 1.5-.375.437-.375 1.062-.125 1.562s.375 1 .563 1.5c.188.688.313 1.375.5 2.063.813-.563 1.25-1.188 1-2.125-.063-.25-.063-.5-.125-.75-.25-1.188-.5-2.5-.813-3.813zm3.188 1.75c1.375-2.188 1.563-4.125.625-5.125-.438.25-.813.5-1.188.625-.5.125-.562.375-.437.813.375 1.187.688 2.437 1 3.687zM15.125 37.313c.938.187 1.813.937 2.75.25.75-.563 1.438-1.313 2.125-1.938 0-.063-.063-.125-.063-.188H17.5s-.063 0-.063.063c-.75.563-1.5 1.188-2.312 1.813zm5.563-2.5c-.25-.313-.375-.563-.563-.75-.438-.438-.875-.876-1.375-1.313-.25-.188-.563-.375-.875-.313-.688.063-1.438.313-2.125.438.875.688 1.75 1.313 2.563 1.938h2.375zm2.062.812c-.75-.063-1.375-.125-1.938-.125a.477.477 0 0 0-.312.125 82.37 82.37 0 0 0-2.313 2.438c.375 0 .875-.126 1.25-.063.438.125.75 0 1.188-.188.875-.5 1.375-1.374 2.125-2.187zm-9.375-1.25c1.5.688 1.5.688 2.813.563l1.5-.188v-.188c-1.063-.562-1.813-1.624-3.313-1.124-.563.187-.688.562-1 .937zm6-2v.125c.625.75 1.188 1.563 1.813 2.313a.474.474 0 0 0 .25.124h2.187c-.25-.437-.375-.75-.625-1a4.042 4.042 0 0 0-1-.562c-.188-.125-.5-.125-.688-.188-.25-.062-.562-.124-.75-.25a7.118 7.118 0 0 1-1.187-.562zm-2.625 3.25c0-.063-.063-.063-.063-.125-1.375.188-2.75.438-4.25.625.313.25.563.5.876.625.312.125.812.313 1.062.188.875-.313 1.625-.813 2.375-1.313zm-5.375.063c.938-.438 2.125.25 3.188-.626-.813-.187-1.5-.437-2.188-.562-.188 0-.438.25-.563.375-.25.25-.312.563-.437.813zm24.5-16.626l1.313-2.437c-2 .313-1.75 1.063-1.313 2.438zm-13.938 18.25l.125.126c.563-.563 1.25-1 1.438-1.813-.063-.063-.125-.125-.188-.125-.437.563-.875 1.188-1.375 1.813zM8.813 19.875c-.5-.125-.812-.188-1.25-.313.188.625.313.688 1.25.313zm-.437-7.75c-.25.188-.438.25-.563.375-.062.125-.062.313-.062.438 0 .062.188.124.25.124.063-.062.125-.187.188-.312 0-.188.062-.313.187-.625zm72.726 20.181c0-.153-.037-.232-.116-.232-.972 0-1.676-.06-2.111-.19-.435-.13-.736-.37-.903-.731-.166-.357-.264-.935-.287-1.727l-.768-17.792c-.028-1.028.236-1.722.787-2.097.55-.37 1.463-.556 2.745-.556.079 0 .116-.074.116-.231 0-.153-.037-.227-.116-.227-.565 0-.986.01-1.268.037l-1.806.037c-.407 0-.736-.014-.981-.037a4.971 4.971 0 0 0-.556-.037c-.486 0-.87.32-1.153.958L66.31 28.58l-8.57-18.06c-.411-.848-.726-1.39-.944-1.635a1.06 1.06 0 0 0-.824-.36c-.18 0-.43.008-.75.036-.32.023-.708.037-1.171.037-.463 0-.82-.014-1.074-.037l-1.421-.037c-.056 0-.08.074-.08.227 0 .157.024.231.08.231 1.328 0 2.38.514 3.148 1.538l-.348 17.828c-.023 1.334-.273 2.287-.745 2.866-.477.574-1.25.861-2.329.861-.05 0-.074.079-.074.232 0 .152.023.231.074.231.667 0 1.181-.014 1.537-.037l2-.042 2.075.042c.384.023.935.037 1.652.037.051 0 .079-.079.079-.231 0-.153-.028-.232-.079-.232-1.227 0-2.088-.278-2.574-.843-.486-.564-.717-1.523-.69-2.884l.343-16.176 9.454 20.098a.479.479 0 0 0 .347.152c.153 0 .255-.05.305-.152l8.764-20.33.69 17.487c.051.768.005 1.329-.134 1.69-.139.356-.421.606-.847.75-.422.139-1.07.208-1.94.208-.051 0-.074.079-.074.232 0 .152.023.231.074.231.745 0 1.32-.014 1.731-.037l2.459-.042 2.652.042a38.96 38.96 0 0 0 1.88.037c.079 0 .116-.079.116-.231zm32.046 0c0-.153-.023-.232-.074-.232-.972 0-1.69-.06-2.153-.19-.463-.13-.773-.38-.94-.75-.166-.37-.25-.94-.25-1.708V11.634c0-.768.084-1.333.25-1.69.167-.36.477-.61.94-.75.463-.143 1.18-.213 2.153-.213.051 0 .074-.074.074-.231 0-.153-.023-.227-.074-.227l-1.921.037a61.88 61.88 0 0 1-2.653.074c-.74 0-1.676-.023-2.806-.074l-1.842-.037c-.051 0-.079.074-.079.227 0 .157.028.231.079.231 1 0 1.727.08 2.19.232.463.153.773.417.94.787.166.37.25.94.25 1.708v.616L92.94 27.542V11.708c0-.768.083-1.338.25-1.708.166-.37.486-.634.958-.787.472-.153 1.2-.232 2.171-.232.051 0 .08-.074.08-.231 0-.153-.029-.227-.08-.227l-1.842.037c-1.13.051-2.065.074-2.806.074-.643 0-1.5-.023-2.574-.074l-1.963-.037c-.05 0-.074.074-.074.227 0 .157.023.231.074.231.977 0 1.695.07 2.153.213.463.14.773.39.94.75.167.357.25.922.25 1.69v17.792c0 .768-.083 1.338-.25 1.708-.167.37-.486.62-.958.75-.473.13-1.2.19-2.172.19-.05 0-.078.079-.078.232 0 .152.027.231.078.231.82 0 1.459-.014 1.922-.037l2.652-.042 2.764.042a39.38 39.38 0 0 0 1.884.037c.051 0 .08-.079.08-.231 0-.153-.029-.232-.08-.232-1 0-1.726-.06-2.19-.19-.462-.13-.773-.38-.94-.75-.166-.37-.25-.94-.25-1.708v-.579l14.292-15.291v15.87c0 .768-.083 1.338-.25 1.708-.166.37-.476.62-.94.75-.462.13-1.19.19-2.19.19-.05 0-.078.079-.078.232 0 .152.028.231.079.231.768 0 1.384-.014 1.842-.037l2.806-.042 2.653.042c.458.023 1.102.037 1.921.037.051 0 .074-.079.074-.231zm12.857-1.25c-.218-.37-.33-.963-.33-1.787v-17.56c0-.871.094-1.491.27-1.862.18-.37.476-.61.884-.713.412-.102 1.078-.153 2-.153 1.717 0 3.125.584 4.227 1.75 1.101 1.167 1.652 2.76 1.652 4.783 0 2.074-.583 3.662-1.75 4.764-1.166 1.102-2.592 1.653-4.282 1.653-.514 0-.977-.051-1.384-.153-.051-.028-.098 0-.135.078a.463.463 0 0 0-.06.227c0 .13.042.195.116.195.486.13 1.102.19 1.847.19 1.38 0 2.727-.278 4.033-.843a7.62 7.62 0 0 0 3.208-2.574c.833-1.153 1.25-2.574 1.25-4.269 0-2.148-.713-3.75-2.134-4.8-1.422-1.051-3.31-1.575-5.667-1.575-.486 0-1.065.019-1.727.056-.667.037-1.157.06-1.463.06-.791.074-1.51.111-2.153.111-.638 0-1.495-.023-2.574-.074l-1.921-.037c-.05 0-.074.074-.074.227 0 .157.023.231.074.231.972 0 1.685.07 2.134.213.45.14.75.39.903.75.153.357.232.922.232 1.69v17.792c0 .768-.08 1.338-.232 1.708-.153.37-.454.62-.903.75s-1.162.19-2.134.19c-.05 0-.074.079-.074.232 0 .152.023.231.074.231.82 0 1.472-.014 1.958-.037l2.58-.042 3.342.042c.588.023 1.407.037 2.458.037.079 0 .116-.079.116-.231 0-.153-.037-.232-.116-.232-1.356 0-2.352-.074-2.977-.227-.63-.157-1.05-.416-1.268-.791zm37.541 0c-.217-.37-.328-.963-.328-1.787v-17.56c0-.871.092-1.491.268-1.862.18-.37.477-.61.884-.713.412-.102 1.08-.153 2-.153 1.718 0 3.125.584 4.227 1.75 1.102 1.167 1.653 2.76 1.653 4.783 0 2.074-.583 3.662-1.75 4.764-1.167 1.102-2.593 1.653-4.282 1.653-.514 0-.977-.051-1.385-.153-.05-.028-.097 0-.134.078a.52.52 0 0 0-.06.227c0 .13.042.195.116.195.486.13 1.101.19 1.847.19 1.384 0 2.727-.278 4.032-.843a7.62 7.62 0 0 0 3.209-2.574c.833-1.153 1.25-2.574 1.25-4.269 0-2.148-.713-3.75-2.135-4.8-1.421-1.051-3.31-1.575-5.666-1.575-.486 0-1.065.019-1.727.056-.667.037-1.153.06-1.463.06-.792.074-1.51.111-2.153.111-.639 0-1.495-.023-2.574-.074l-1.921-.037c-.051 0-.074.074-.074.227 0 .157.023.231.074.231.977 0 1.685.07 2.134.213.449.14.75.39.903.75.153.357.231.922.231 1.69v17.792c0 .768-.078 1.338-.231 1.708-.153.37-.454.62-.903.75-.45.13-1.157.19-2.134.19-.051 0-.074.079-.074.232 0 .152.023.231.074.231.82 0 1.472-.014 1.963-.037l2.574-.042 3.342.042a65.95 65.95 0 0 0 2.459.037c.078 0 .115-.079.115-.231 0-.153-.037-.232-.115-.232-1.357 0-2.352-.074-2.977-.227-.63-.157-1.051-.416-1.269-.791zm24.709.273C190.11 32.439 192.23 33 194.61 33c2.412 0 4.644-.565 6.708-1.694 2.06-1.125 3.709-2.662 4.936-4.612 1.231-1.944 1.847-4.083 1.847-6.416 0-2.097-.496-4.084-1.482-5.954s-2.402-3.375-4.245-4.514c-1.843-1.143-3.981-1.713-6.417-1.713-2.176 0-4.31.477-6.398 1.422a12.56 12.56 0 0 0-5.13 4.245c-1.333 1.884-2 4.143-2 6.782 0 2.255.51 4.338 1.52 6.246a11.496 11.496 0 0 0 4.305 4.537zm12.412-.408c-1.398.848-2.968 1.269-4.709 1.269-2.05 0-3.88-.57-5.495-1.709-1.616-1.138-2.87-2.703-3.764-4.69-.898-1.98-1.347-4.18-1.347-6.587 0-3.176.796-5.676 2.384-7.496 1.588-1.814 3.792-2.727 6.607-2.727 2.18 0 4.078.528 5.708 1.575 1.625 1.05 2.889 2.513 3.782 4.384.898 1.87 1.348 4.01 1.348 6.416 0 2.255-.403 4.2-1.213 5.838-.806 1.64-1.908 2.885-3.301 3.727zm28.55-9.449c-1.115-1.102-2.569-1.717-4.36-1.847 1.305-.458 2.462-1.273 3.476-2.44 1.01-1.166 1.519-2.454 1.519-3.86 0-1.487-.583-2.728-1.75-3.728s-2.838-1.5-5.014-1.5c-1.82 0-3.718.347-5.69 1.037-.227.079-.37.167-.421.269-.051.106-.102.31-.153.616l-.537 4.342c0 .028.032.06.093.097a.367.367 0 0 0 .176.056c.101 0 .152-.023.152-.074.514-1.921 1.287-3.375 2.324-4.361 1.037-.986 2.223-1.482 3.556-1.482 1.407 0 2.537.5 3.38 1.5.847 1 1.268 2.343 1.268 4.033 0 1.69-.505 3.023-1.518 4-1.01.972-2.514 1.458-4.514 1.458-.102 0-.153.079-.153.231 0 .153.05.232.153.232 2.203 0 3.889.528 5.05 1.593 1.167 1.064 1.75 2.63 1.75 4.708 0 1.713-.416 3.148-1.25 4.3-.828 1.154-2.106 1.732-3.819 1.732-1.565 0-3-.495-4.305-1.481-1.306-.986-2.14-2.514-2.5-4.593-.024-.074-.107-.102-.25-.074-.14.023-.209.074-.209.153l.459 4.264c.027.282.064.467.115.56.051.088.195.199.426.324.56.463 1.348.82 2.361 1.079 1.014.254 2.042.384 3.093.384 1.616 0 3.088-.315 4.421-.944 1.329-.625 2.39-1.496 3.167-2.612.782-1.115 1.176-2.375 1.176-3.787 0-1.69-.56-3.083-1.671-4.185z" fill="#81D7D0"/></svg>