<?xml version="1.0" encoding="UTF-8"?>
<svg width="33px" height="40px" viewBox="0 0 33 40" version="1.1" xmlns="http://www.w3.org/2000/svg" xmlns:xlink="http://www.w3.org/1999/xlink">
    <!-- Generator: Sketch 52.6 (67491) - http://www.bohemiancoding.com/sketch -->
    <title>apple-seeklogo.com</title>
    <desc>Created with Sketch.</desc>
    <g id="Page-1" stroke="none" stroke-width="1" fill="none" fill-rule="evenodd">
        <g id="ESS-o-nas" transform="translate(-1535.000000, -3419.000000)" fill="#FFFFFF" fill-rule="nonzero">
            <g id="apple-seeklogo.com" transform="translate(1535.000000, 3419.000000)">
                <path d="M27.1496373,21.2102785 C27.2057397,27.2520185 32.449839,29.2625573 32.5079365,29.2882193 C32.4635952,29.4300136 31.6700169,32.153434 29.7450959,34.9665328 C28.0810863,37.3985992 26.3540639,39.8217566 23.6334932,39.8719422 C20.9602604,39.921199 20.1006669,38.2867083 17.0444051,38.2867083 C13.9890664,38.2867083 13.0340189,39.8217525 10.5035064,39.921199 C7.87746549,40.0205727 5.87776293,37.2912413 4.19992481,34.8680841 C0.7714658,29.9114342 -1.84858627,20.8617559 1.6694814,14.7530756 C3.41718236,11.71948 6.54045609,9.79848071 9.93049048,9.74922027 C12.5091955,9.70003119 14.9431865,11.484087 16.5195816,11.484087 C18.0949771,11.484087 21.0527943,9.33860354 24.1622383,9.65369491 C25.4639578,9.70787371 29.1179059,10.1795159 31.4642063,13.6138907 C31.2751524,13.7310899 27.1042984,16.1591625 27.1496373,21.2102842 M22.1256053,6.37443851 C23.5197881,4.6868358 24.4581534,2.33753675 24.2021572,0 C22.1925476,0.0807682825 19.762478,1.33914805 18.3210297,3.0258223 C17.0292152,4.5194509 15.8978762,6.91009873 16.203131,9.20137057 C18.443077,9.37467217 20.731354,8.06311444 22.1256053,6.37444126" id="Shape"></path>
            </g>
        </g>
    </g>
</svg>