<?xml version="1.0" encoding="UTF-8"?>
<svg width="91px" height="120px" viewBox="0 0 91 120" version="1.1" xmlns="http://www.w3.org/2000/svg" xmlns:xlink="http://www.w3.org/1999/xlink">
    <!-- Generator: Sketch 52.6 (67491) - http://www.bohemiancoding.com/sketch -->
    <title>business-and-finance</title>
    <desc>Created with Sketch.</desc>
    <g id="Page-1" stroke="none" stroke-width="1" fill="none" fill-rule="evenodd" opacity="0.5">
        <g id="ESS-Частным-лицам2" transform="translate(-471.000000, -1440.000000)" fill="#FFFFFF">
            <g id="business-and-finance" transform="translate(471.000000, 1440.000000)">
                <path d="M55.3523438,62.2453125 C54.06,62.2453125 53.0085938,61.1939062 53.0085938,59.9015625 C53.0085938,58.6197656 54.050625,57.568125 55.3289062,57.5578125 L55.34625,57.5578125 C56.1808594,57.5578125 57.0590625,57.9810937 57.8873437,58.7826562 C58.8173437,59.6828906 60.3011719,59.65875 61.2014062,58.7285156 C62.1016406,57.7985156 62.0775,56.3146875 61.1472656,55.4144531 C59.9449219,54.2507812 58.7404687,53.5964062 57.65625,53.2432031 L57.65625,50.625 C57.65625,49.3305469 56.6069531,48.28125 55.3125,48.28125 C54.0180469,48.28125 52.96875,49.3305469 52.96875,50.625 L52.96875,53.2896094 C50.2640625,54.2714062 48.3210938,56.8713281 48.3210938,59.9015625 C48.3210938,63.7785937 51.4753125,66.9328125 55.3523438,66.9328125 C56.6446875,66.9328125 57.6960938,67.9842187 57.6960938,69.2765625 C57.6960938,70.5564844 56.6723438,71.6175 55.3338281,71.6203125 C54.3194531,71.6109375 53.2741406,70.99875 52.3108594,69.8496094 C51.4792969,68.8577344 50.0010937,68.7274219 49.0089844,69.5592187 C48.0171094,70.3907812 47.8870312,71.8689844 48.7185937,72.8610937 C49.9577344,74.3392969 51.418125,75.3742969 52.96875,75.9028125 L52.96875,78.75 C52.96875,80.0444531 54.0180469,81.09375 55.3125,81.09375 C56.6069531,81.09375 57.65625,80.0444531 57.65625,78.75 L57.65625,75.9232031 C60.3564844,74.9894531 62.3835938,72.4080469 62.3835938,69.2765625 C62.3835938,65.3995313 59.229375,62.2453125 55.3523438,62.2453125 Z" id="Path"></path>
                <path d="M55.3125,38.90625 C41.0967188,38.90625 29.53125,50.4717188 29.53125,64.6875 C29.53125,78.9032812 41.0967188,90.46875 55.3125,90.46875 C69.5282812,90.46875 81.09375,78.9032812 81.09375,64.6875 C81.09375,50.4717188 69.5282812,38.90625 55.3125,38.90625 Z M55.3125,85.78125 C43.6814062,85.78125 34.21875,76.3185937 34.21875,64.6875 C34.21875,53.0564063 43.6814062,43.59375 55.3125,43.59375 C66.9435937,43.59375 76.40625,53.0564062 76.40625,64.6875 C76.40625,76.3185937 66.9435937,85.78125 55.3125,85.78125 Z" id="Shape" fill-rule="nonzero"></path>
                <path d="M0,110.625 C0,115.794375 4.205625,120 9.375,120 C12.1192969,120 14.7161719,118.803984 16.4917969,116.728125 L36.04875,94.1025 C41.7745313,97.8651562 48.3895313,99.84375 55.3125,99.84375 C60.8500781,99.84375 66.1504688,98.5924219 71.0664844,96.1244531 C72.2233594,95.5436719 72.6902344,94.1350781 72.1094531,92.9782031 C71.5284375,91.8213281 70.1200781,91.3542188 68.9632031,91.9352344 C64.7060156,94.0725 60.1132031,95.15625 55.3125,95.15625 C38.4473438,95.15625 24.84375,81.4884375 24.84375,64.6875 C24.84375,47.8870312 38.5120312,34.21875 55.3125,34.21875 C72.1129687,34.21875 85.78125,47.8870312 85.78125,64.6875 C85.78125,69.4882031 84.6975,74.0810156 82.5602344,78.3384375 C81.9794531,79.4953125 82.4465625,80.9039063 83.6032031,81.4846875 C84.7603125,82.0654688 86.1684375,81.5985937 86.7494531,80.4417188 C89.2174219,75.5254688 90.46875,70.2250781 90.46875,64.6875 C90.46875,46.0900781 75.9527344,30.8217187 57.65625,29.6111719 L57.65625,23.4375 L64.6875,23.4375 C76.3185938,23.4375 85.78125,13.9748437 85.78125,2.34375 C85.78125,1.04929688 84.7319531,0 83.4375,0 L74.0625,0 C65.9092969,0 58.8222656,4.65023438 55.3125,11.4372656 C51.8027344,4.65023438 44.7157031,0 36.5625,0 L27.1875,0 C25.8930469,0 24.84375,1.04929688 24.84375,2.34375 C24.84375,13.9748437 34.3064062,23.4375 45.9375,23.4375 L52.96875,23.4375 L52.96875,29.6111719 C34.6722656,30.8217187 20.15625,46.0900781 20.15625,64.6875 C20.15625,71.6102344 22.1346094,78.225 25.8977344,83.95125 L3.28125,103.500234 C1.19601563,105.283828 3.33066907e-15,107.880703 0,110.625 Z M74.0625,4.68515625 L80.926875,4.68515625 C79.7861719,12.6276563 72.9382031,18.75 64.6875,18.75 L63.0532031,18.75 L70.6750781,13.66875 C71.7520312,12.9508594 72.043125,11.495625 71.325,10.4186719 C70.6071094,9.34171875 69.151875,9.05039062 68.0749219,9.76875 L58.3999219,16.21875 C60.4816406,9.54609375 66.7136719,4.6875 74.0625,4.68515625 Z M39.9499219,13.66875 L47.5717969,18.75 L45.9375,18.75 C37.6867969,18.75 30.8388281,12.6276563 29.698125,4.6875 L36.5625,4.6875 C43.9113281,4.6875 50.1433594,9.54609375 52.2250781,16.2185156 L42.5500781,9.76851562 C41.473125,9.050625 40.0178906,9.34148438 39.3,10.4184375 C38.581875,11.495625 38.8729688,12.9508594 39.9499219,13.66875 Z M28.7308594,87.6982031 C29.8345313,88.9722656 31.0275,90.1652344 32.3017969,91.2691406 L20.7996094,104.57625 L15.42375,99.2003906 L28.7308594,87.6982031 Z M6.3375,107.054297 L11.8680469,102.273984 L17.72625,108.132188 L12.9377344,113.671875 C12.0459375,114.714609 10.7472656,115.3125 9.375,115.3125 C6.7903125,115.3125 4.6875,113.209688 4.6875,110.625 C4.6875,109.252734 5.28539063,107.954062 6.3375,107.054297 Z" id="Shape" fill-rule="nonzero"></path>
                <circle id="Oval" cx="78.75" cy="88.125" r="2.34375"></circle>
            </g>
        </g>
    </g>
</svg>