<?xml version="1.0" encoding="UTF-8"?>
<svg width="36px" height="35px" viewBox="0 0 36 35" version="1.1" xmlns="http://www.w3.org/2000/svg" xmlns:xlink="http://www.w3.org/1999/xlink">
    <!-- Generator: Sketch 52.6 (67491) - http://www.bohemiancoding.com/sketch -->
    <title>calendar (4)</title>
    <desc>Created with Sketch.</desc>
    <g id="Page-1" stroke="none" stroke-width="1" fill="none" fill-rule="evenodd">
        <g id="ESS-кредитование" transform="translate(-41.000000, -1429.000000)" fill="#FFFFFF">
            <g id="calendar-(4)" transform="translate(41.000000, 1429.000000)">
                <path d="M34.6371228,3.56322581 L29.1588059,3.56322581 L29.1588059,6.22626008 L33.3117066,6.22626008 L33.3117066,32.3244052 L2.65083247,32.3244052 L2.65083247,6.22633065 L6.80373309,6.22633065 L6.80373309,3.56322581 L1.32541623,3.56322581 C0.593311655,3.56322581 0,4.15935484 0,4.89477823 L0,33.6559577 C0,34.391381 0.593311655,34.9875101 1.32541623,34.9875101 L34.6371228,34.9875101 C35.3696488,34.9875101 35.962539,34.3914516 35.962539,33.6559577 L35.962539,4.89477823 C35.962539,4.15935484 35.3692274,3.56322581 34.6371228,3.56322581 Z" id="Path"></path>
                <polygon id="Rectangle" transform="translate(18.003785, 4.940258) rotate(-0.360959) translate(-18.003785, -4.940258) " points="11.0893605 3.60888099 24.9182873 3.60847766 24.9182099 6.27163486 11.0892831 6.27203819"></polygon>
                <rect id="Rectangle" x="1.45795786" y="12.4845565" width="33.0466935" height="2.66310484"></rect>
                <path d="M11.0891753,0.0124899194 L6.80373309,0.0124899194 C6.07169875,0.0124899194 5.47831686,0.608548387 5.47831686,1.34404234 L5.47831686,8.44558468 C5.47831686,9.18100806 6.07162851,9.7771371 6.80373309,9.7771371 L11.0891753,9.7771371 C11.8212097,9.7771371 12.4145916,9.18107863 12.4145916,8.44558468 L12.4145916,1.34404234 C12.4145916,0.608548387 11.8212799,0.0124899194 11.0891753,0.0124899194 Z M9.76375911,7.11403226 L8.12907908,7.11403226 L8.12907908,2.67552419 L9.76375911,2.67552419 L9.76375911,7.11403226 Z" id="Shape" fill-rule="nonzero"></path>
                <path d="M29.2029865,0.0124899194 L24.9175442,0.0124899194 C24.1855099,0.0124899194 23.592128,0.608548387 23.592128,1.34404234 L23.592128,8.44558468 C23.592128,9.18100806 24.1854396,9.7771371 24.9175442,9.7771371 L29.2029865,9.7771371 C29.9350208,9.7771371 30.5284027,9.18107863 30.5284027,8.44558468 L30.5284027,1.34404234 C30.5284027,0.608548387 29.9350911,0.0124899194 29.2029865,0.0124899194 Z M27.8775702,7.11403226 L26.2428902,7.11403226 L26.2428902,2.67552419 L27.8775702,2.67552419 L27.8775702,7.11403226 Z" id="Shape" fill-rule="nonzero"></path>
                <path d="M26.7143366,17.3788407 C26.2084729,16.8471371 25.3690427,16.8289315 24.8406322,17.3366431 L15.7042508,26.1128226 L11.1426977,21.5296573 C10.6248933,21.009879 9.78546306,21.0090323 9.26815036,21.5296573 C8.75076743,22.0493649 8.75076743,22.8922581 9.26815036,23.4124597 L14.7464672,28.9161391 C15.0053694,29.1758165 15.344204,29.3062903 15.6839516,29.3062903 C16.0135146,29.3062903 16.3435692,29.1837903 16.5993809,28.9370262 L26.6724037,19.2612198 C27.2016571,18.7534375 27.2206217,17.910121 26.7143366,17.3788407 Z" id="Path"></path>
            </g>
        </g>
    </g>
</svg>