<?xml version="1.0" encoding="UTF-8"?>
<svg width="150px" height="150px" viewBox="0 0 150 150" version="1.1" xmlns="http://www.w3.org/2000/svg" xmlns:xlink="http://www.w3.org/1999/xlink">
    <!-- Generator: Sketch 52.6 (67491) - http://www.bohemiancoding.com/sketch -->
    <title>forbidden (1)</title>
    <desc>Created with Sketch.</desc>
    <g id="Page-1" stroke="none" stroke-width="1" fill="none" fill-rule="evenodd" opacity="0.5">
        <g id="ESS-предприятиям_new" transform="translate(-1218.000000, -1414.000000)" fill="#FFFFFF">
            <g id="forbidden-(1)" transform="translate(1218.000000, 1414.000000)">
                <path d="M111.449654,123.289426 C110.543208,121.948801 108.721236,121.596653 107.381783,122.502805 L107.289497,122.565207 C105.948872,123.47136 105.596724,125.292746 106.502583,126.633078 C107.068892,127.470676 107.992329,127.922434 108.932466,127.922434 C109.497017,127.922434 110.06772,127.759543 110.570454,127.419699 L110.66274,127.357297 C112.003365,126.451145 112.355513,124.630051 111.449654,123.289426 Z" id="Path"></path>
                <path d="M43.4478959,23.2865078 C42.5399857,21.9467618 40.718599,21.59725 39.3791459,22.5045743 L39.2894974,22.5652188 C37.9488724,23.4713711 37.596724,25.2927578 38.5025834,26.6330899 C39.0691849,27.4703946 39.9926224,27.9221524 40.9327591,27.9221524 C41.4973099,27.9221524 42.068013,27.7592618 42.5707474,27.419418 L42.6659623,27.3552578 C44.0054154,26.4476407 44.355806,24.625961 43.4478959,23.2865078 Z" id="Path"></path>
                <path d="M149.999707,75 C149.999707,54.9667969 142.198242,36.1324219 128.03291,21.9667969 C113.867285,7.80117188 95.0332031,0 75,0 C59.1052734,0 43.8984375,4.92626953 31.0233398,14.2461914 C29.7123047,15.1948242 29.419043,17.0267578 30.3679688,18.337207 C31.3168945,19.6479492 33.1485352,19.9412109 34.4589844,18.9925781 C46.3283203,10.4006836 60.346875,5.859375 75,5.859375 C113.124023,5.859375 144.140332,36.8756836 144.140332,75 C144.140332,92.4881836 137.687988,108.982617 125.915039,121.771875 L121.76543,117.622266 C128.970703,109.719141 134.061914,100.118262 136.552441,89.6818359 C140.476172,73.2401367 137.761816,56.2549805 128.910059,41.8549805 C120.058594,27.4549805 106.129102,17.3639648 89.6876953,13.4405273 C75.3796875,10.0268555 60.2317383,11.7257813 47.0361328,18.2258789 C45.5847656,18.9410156 44.9876953,20.6973633 45.7025391,22.1487305 C46.4176758,23.6003906 48.1743164,24.1977539 49.6253906,23.4823242 C61.5990234,17.5839844 75.3436523,16.0417969 88.3277344,19.1399414 C103.246875,22.6998047 115.886426,31.856543 123.918457,44.9235352 C131.950488,57.9902344 134.413184,73.4027344 130.85332,88.321875 C128.614453,97.7036133 124.054395,106.337109 117.612891,113.469727 L90.0688477,85.9253906 L105.968848,65.4120117 C107.806055,63.0331055 107.366016,59.6027344 104.986816,57.7649414 C104.120508,57.0958008 103.059961,56.7011719 101.970117,56.6370117 C101.866406,56.6258789 101.760938,56.6200195 101.654297,56.6200195 L87.5320313,56.6200195 L98.5224609,36.6298828 L100.46748,33.0237305 C101.235352,31.5996094 100.703613,29.8224609 99.2794922,29.0545898 C97.8553711,28.2861328 96.0782227,28.8181641 95.3100586,30.2422852 L93.3764648,33.8276367 L80.0109375,58.1381836 C79.5120117,59.0458008 79.5290039,60.1494141 80.0563477,61.040918 C80.5836914,61.9324219 81.5422852,62.4793945 82.5779297,62.4793945 L100.828125,62.4793945 L85.8922852,81.7488281 L57.937207,53.79375 L65.5543945,34.4235352 L77.4632813,34.4235352 C79.0810547,34.4235352 80.3929688,33.1119141 80.3929688,31.4938477 C80.3929688,29.8757812 79.0810547,28.5641602 77.4632813,28.5641602 L65.3229492,28.5641602 L65.2763672,28.5641602 C62.9323242,28.5641602 60.871582,30.0398437 60.1133789,32.2482422 L53.4178711,49.274707 L15.1286133,10.9851563 C13.9842773,9.84111328 12.1297852,9.84111328 10.9851563,10.9851563 C9.84111328,12.1291992 9.84111328,13.9842773 10.9851563,15.1283203 L19.9391602,24.0820313 C13.9057617,30.5991211 9.12246094,38.0578125 5.70908203,46.2987305 C1.92099609,55.444043 0,65.1005859 0,74.999707 C0,95.0329102 7.80146484,113.867285 21.9667969,128.03291 C36.1324219,142.198535 54.9665039,149.999707 74.9994141,149.999707 C90.8941406,149.999707 106.100977,145.073438 118.976074,135.753516 C120.287109,134.804883 120.580371,132.972949 119.631445,131.6625 C118.68252,130.351758 116.850879,130.058203 115.54043,131.007129 C103.670801,139.599023 89.6522461,144.140332 74.9991211,144.140332 C36.8756836,144.140332 5.859375,113.124023 5.859375,74.999707 C5.859375,57.5118164 12.3117188,41.0173828 24.084375,28.2275391 L28.2322266,32.3756836 C21.0275391,40.2788086 15.9369141,49.8793945 13.4466797,60.3146484 C9.52324219,76.7560547 12.2375977,93.7412109 21.0890625,108.141211 C29.9408203,122.541211 43.8703125,132.63252 60.3117187,136.555664 C65.1383789,137.707324 70.059375,138.277148 74.9701172,138.277148 C84.6164062,138.277148 94.21875,136.077539 102.963281,131.770312 C104.414648,131.055469 105.011719,129.299121 104.296875,127.847461 C103.582031,126.396387 101.825977,125.798437 100.374023,126.513867 C88.3998047,132.412207 74.6551758,133.954395 61.6716797,130.85625 C30.8742188,123.507129 11.7972656,92.4723633 19.1460938,61.6746094 C21.3849609,52.294043 25.9444336,43.6611328 32.3850586,36.5285156 L51.0796875,55.2228516 L43.2685547,75.0867187 C42.7379883,76.443457 42.7678711,77.9258789 43.3526367,79.2606445 C43.9371094,80.5954102 45.0067383,81.6222656 46.3640625,82.153125 C46.9303711,82.3740234 47.5209961,82.4982422 48.1236328,82.5225586 C48.1980469,82.528418 48.2730469,82.5310547 48.3489258,82.5310547 L63.0890625,82.5310547 L54.6005859,114.594434 C53.8359375,117.502148 55.5793945,120.49043 58.4868164,121.255664 C58.9415039,121.375488 59.4029297,121.433203 59.8605469,121.433203 C61.5779297,121.433203 63.2416992,120.61875 64.2799805,119.196973 L86.4506836,90.5935547 L134.871094,139.014258 C135.443262,139.586426 136.192969,139.872363 136.942676,139.872363 C137.692676,139.872363 138.44209,139.586133 139.014258,139.014258 C140.158301,137.870215 140.158301,136.015137 139.014258,134.871094 L130.060254,125.91709 C136.093652,119.400293 140.876953,111.941602 144.290332,103.700684 C148.078711,94.5556641 149.999707,84.8994141 149.999707,75 Z M60.7795898,114.148242 L69.7268555,80.3507813 C69.9594727,79.471875 69.7708008,78.534668 69.2162109,77.8139648 C68.6616211,77.0932617 67.8041016,76.6713867 66.8947266,76.6713867 L48.9413086,76.6713867 L55.5987305,59.7416016 L82.2744141,86.4169922 L60.7795898,114.148242 Z" id="Shape" fill-rule="nonzero"></path>
                <path d="M86.0691406,28 L85.9296875,28 C84.3119141,28 83,29.3116211 83,30.9296875 C83,32.5477539 84.3119141,33.859375 85.9296875,33.859375 L86.0691406,33.859375 C87.6869141,33.859375 88.9988281,32.5477539 88.9988281,30.9296875 C88.9988281,29.3116211 87.6869141,28 86.0691406,28 Z" id="Path"></path>
            </g>
        </g>
    </g>
</svg>