<?xml version="1.0" encoding="UTF-8"?>
<svg width="150px" height="150px" viewBox="0 0 150 150" version="1.1" xmlns="http://www.w3.org/2000/svg" xmlns:xlink="http://www.w3.org/1999/xlink">
    <!-- Generator: Sketch 52.6 (67491) - http://www.bohemiancoding.com/sketch -->
    <title>trend</title>
    <desc>Created with Sketch.</desc>
    <g id="Page-1" stroke="none" stroke-width="1" fill="none" fill-rule="evenodd" opacity="0.5">
        <g id="ESS-предприятиям_new" transform="translate(-1218.000000, -1758.000000)" fill="#FFFFFF">
            <g id="trend" transform="translate(1218.000000, 1758.000000)">
                <path d="M0,150 L150,150 L150,144.6 L140.7,144.6 L140.7,54 L117.3,54 L117.3,144.6 L104.7,144.6 L104.7,90 L81.3,90 L81.3,144.6 L68.7,144.6 L68.7,72 L45.3,72 L45.3,144.6 L32.7,144.6 L32.7,99 L9.3,99 L9.3,144.6 L0,144.6 L0,150 Z M122.7,59.4 L135.3,59.4 L135.3,144.6 L122.7,144.6 L122.7,59.4 Z M86.7,95.4 L99.3,95.4 L99.3,144.6 L86.7,144.6 L86.7,95.4 Z M50.7,77.4 L63.3,77.4 L63.3,144.6 L50.7,144.6 L50.7,77.4 Z M14.7,104.4 L27.3,104.4 L27.3,144.6 L14.7,144.6 L14.7,104.4 Z" id="Shape" fill-rule="nonzero"></path>
                <polygon id="Path" points="57 24.51 93 60.51 144.6 9.18 144.6 32.4 150 32.4 150 0 117.3 0 117.3 5.4 140.76 5.4 93 52.89 57 16.89 2.07 71.52 5.88 75.36"></polygon>
            </g>
        </g>
    </g>
</svg>