<?xml version="1.0" encoding="UTF-8"?>
<svg width="150px" height="150px" viewBox="0 0 150 150" version="1.1" xmlns="http://www.w3.org/2000/svg" xmlns:xlink="http://www.w3.org/1999/xlink">
    <!-- Generator: Sketch 52.6 (67491) - http://www.bohemiancoding.com/sketch -->
    <title>electricity-tower</title>
    <desc>Created with Sketch.</desc>
    <g id="Page-1" stroke="none" stroke-width="1" fill="none" fill-rule="evenodd" opacity="0.5">
        <g id="ESS-предприятиям_new" transform="translate(-552.000000, -1414.000000)" fill="#FFFFFF">
            <g id="electricity-tower" transform="translate(552.000000, 1414.000000)">
                <polygon id="Path" points="145.16129 145.16129 150 145.16129 150 150 145.16129 150"></polygon>
                <polygon id="Path" points="0 145.16129 4.83870968 145.16129 4.83870968 150 0 150"></polygon>
                <path d="M97.2096774,62.9032258 L118.548387,62.9032258 L118.548387,65.3225806 C118.548387,69.3241935 121.804839,72.5806452 125.806452,72.5806452 C129.808065,72.5806452 133.064516,69.3241935 133.064516,65.3225806 L133.064516,62.9032258 L137.903226,62.9032258 L137.903226,53.8354839 L96.7741935,41.7387097 L96.7741935,36.2903226 L118.548387,36.2903226 L118.548387,38.7096774 C118.548387,42.7112903 121.804839,45.9677419 125.806452,45.9677419 C129.808065,45.9677419 133.064516,42.7112903 133.064516,38.7096774 L133.064516,36.2903226 L137.903226,36.2903226 L137.903226,27.2225806 L96.7741935,15.1258065 L96.7741935,4.83870968 L91.9354839,4.83870968 L91.9354839,0 L87.0967742,0 L87.0967742,4.83870968 L62.9032258,4.83870968 L62.9032258,0 L58.0645161,0 L58.0645161,4.83870968 L53.2258065,4.83870968 L53.2258065,15.1258065 L12.0967742,27.2225806 L12.0967742,36.2903226 L16.9354839,36.2903226 L16.9354839,38.7096774 C16.9354839,42.7112903 20.1919355,45.9677419 24.1935484,45.9677419 C28.1951613,45.9677419 31.4516129,42.7112903 31.4516129,38.7096774 L31.4516129,36.2903226 L53.2258065,36.2903226 L53.2258065,41.7387097 L12.0967742,53.8354839 L12.0967742,62.9032258 L16.9354839,62.9032258 L16.9354839,65.3225806 C16.9354839,69.3241935 20.1919355,72.5806452 24.1935484,72.5806452 C28.1951613,72.5806452 31.4516129,69.3241935 31.4516129,65.3225806 L31.4516129,62.9032258 L52.7903226,62.9032258 L39.0798387,145.16129 L9.67741935,145.16129 L9.67741935,150 L140.322581,150 L140.322581,145.16129 L110.920161,145.16129 L97.2096774,62.9032258 Z M92.1774194,96.7741935 L75,110.218548 L57.8225806,96.7741935 L92.1774194,96.7741935 Z M57.8564516,91.9354839 L75,78.6024194 L92.1435484,91.9354839 L57.8564516,91.9354839 Z M98.1895161,98.2112903 L103.969355,132.890323 L78.9241935,113.28871 L98.1895161,98.2112903 Z M78.941129,75.5370968 L92.6370968,64.8846774 L96.716129,89.3612903 L78.941129,75.5370968 Z M87.3048387,62.9032258 L75,72.4717742 L62.6951613,62.9032258 L87.3048387,62.9032258 Z M63.4354839,58.0645161 L75,50.1145161 L86.5645161,58.0645161 L63.4354839,58.0645161 Z M91.9354839,55.8846774 L79.2701613,47.1774194 L91.9354839,38.4701613 L91.9354839,55.8846774 Z M86.5645161,36.2903226 L75,44.2403226 L63.4354839,36.2903226 L86.5645161,36.2903226 Z M67.2096774,31.4516129 L75,28.0427419 L82.7903226,31.4516129 L67.2096774,31.4516129 Z M81.033871,25.4032258 L91.9354839,20.6346774 L91.9354839,30.1741935 L81.033871,25.4032258 Z M75,22.7637097 L67.2096774,19.3548387 L82.7903226,19.3548387 L75,22.7637097 Z M68.966129,25.4032258 L58.0645161,30.1717742 L58.0645161,20.6346774 L68.966129,25.4032258 Z M58.0645161,38.4701613 L70.7298387,47.1774194 L58.0645161,55.8846774 L58.0645161,38.4701613 Z M71.058871,75.5370968 L53.283871,89.3612903 L57.3629032,64.8846774 L71.058871,75.5370968 Z M71.0758065,113.28871 L46.0306452,132.890323 L51.8104839,98.2112903 L71.0758065,113.28871 Z M75,116.358871 L99.4354839,135.483871 L50.5645161,135.483871 L75,116.358871 Z M128.225806,65.3225806 C128.225806,66.6580645 127.141935,67.7419355 125.806452,67.7419355 C124.470968,67.7419355 123.387097,66.6580645 123.387097,65.3225806 L123.387097,62.9032258 L128.225806,62.9032258 L128.225806,65.3225806 Z M133.064516,57.4548387 L133.064516,58.0645161 L96.7741935,58.0645161 L96.7741935,46.7806452 L133.064516,57.4548387 Z M128.225806,38.7096774 C128.225806,40.0451613 127.141935,41.1290323 125.806452,41.1290323 C124.470968,41.1290323 123.387097,40.0451613 123.387097,38.7096774 L123.387097,36.2903226 L128.225806,36.2903226 L128.225806,38.7096774 Z M133.064516,30.8419355 L133.064516,31.4516129 L96.7741935,31.4516129 L96.7741935,20.1677419 L133.064516,30.8419355 Z M91.9354839,9.67741935 L91.9354839,14.516129 L58.0645161,14.516129 L58.0645161,9.67741935 L91.9354839,9.67741935 Z M26.6129032,38.7096774 C26.6129032,40.0451613 25.5290323,41.1290323 24.1935484,41.1290323 C22.8580645,41.1290323 21.7741935,40.0451613 21.7741935,38.7096774 L21.7741935,36.2903226 L26.6129032,36.2903226 L26.6129032,38.7096774 Z M16.9354839,31.4516129 L16.9354839,30.8419355 L53.2258065,20.1677419 L53.2258065,31.4516129 L16.9354839,31.4516129 Z M16.9354839,57.4548387 L53.2258065,46.7806452 L53.2258065,58.0645161 L16.9354839,58.0645161 L16.9354839,57.4548387 Z M26.6129032,65.3225806 C26.6129032,66.6580645 25.5290323,67.7419355 24.1935484,67.7419355 C22.8580645,67.7419355 21.7741935,66.6580645 21.7741935,65.3225806 L21.7741935,62.9032258 L26.6129032,62.9032258 L26.6129032,65.3225806 Z M44.7919355,140.322581 L105.210484,140.322581 L106.016129,145.16129 L43.983871,145.16129 L44.7919355,140.322581 Z" id="Shape" fill-rule="nonzero"></path>
            </g>
        </g>
    </g>
</svg>