<?xml version="1.0" encoding="UTF-8"?>
<svg width="150px" height="150px" viewBox="0 0 150 150" version="1.1" xmlns="http://www.w3.org/2000/svg" xmlns:xlink="http://www.w3.org/1999/xlink">
    <!-- Generator: Sketch 52.6 (67491) - http://www.bohemiancoding.com/sketch -->
    <title>sun (1)</title>
    <desc>Created with Sketch.</desc>
    <g id="Page-1" stroke="none" stroke-width="1" fill="none" fill-rule="evenodd" opacity="0.5">
        <g id="ESS-предприятиям_new" transform="translate(-552.000000, -1758.000000)" fill="#FFFFFF">
            <g id="sun-(1)" transform="translate(552.000000, 1758.000000)">
                <path d="M75,36.3 C53.67,36.3 36.3,53.67 36.3,75 C36.3,96.33 53.67,113.7 75,113.7 C96.33,113.7 113.7,96.33 113.7,75 C113.7,53.67 96.33,36.3 75,36.3 Z M75,108.3 C56.64,108.3 41.7,93.36 41.7,75 C41.7,56.64 56.64,41.7 75,41.7 C93.36,41.7 108.3,56.64 108.3,75 C108.3,93.36 93.36,108.3 75,108.3 Z" id="Shape" fill-rule="nonzero"></path>
                <path d="M113.19,110.49 C113.16,110.49 113.16,110.49 113.19,110.49 C112.47,110.49 111.81,110.76 111.3,111.27 C110.79,111.78 110.49,112.47 110.49,113.19 C110.49,113.91 110.76,114.57 111.27,115.05 L132.99,136.77 C133.5,137.28 134.19,137.58 134.91,137.58 C134.91,137.58 134.91,137.58 134.91,137.58 C135.63,137.58 136.29,137.31 136.77,136.8 C137.31,136.26 137.58,135.57 137.58,134.85 C137.58,134.13 137.31,133.47 136.8,132.99 L115.08,111.27 C114.57,110.76 113.91,110.49 113.19,110.49 Z" id="Path"></path>
                <path d="M15.09,12.39 C15.06,12.39 15.06,12.39 15.09,12.39 C14.37,12.39 13.71,12.66 13.2,13.17 C12.69,13.68 12.39,14.37 12.39,15.12 C12.39,15.84 12.66,16.5 13.17,17.01 L34.89,38.73 C35.4,39.24 36.09,39.54 36.81,39.54 C36.81,39.54 36.81,39.54 36.81,39.54 C37.53,39.54 38.19,39.27 38.67,38.76 C39.21,38.22 39.48,37.53 39.48,36.81 C39.48,36.09 39.21,35.43 38.7,34.95 L17.01,13.17 C16.47,12.66 15.81,12.39 15.09,12.39 Z" id="Path"></path>
                <path d="M36.78,110.49 C36.06,110.49 35.4,110.76 34.92,111.27 L13.2,132.99 C12.69,133.5 12.39,134.19 12.39,134.91 C12.39,135.63 12.66,136.29 13.17,136.77 C13.68,137.28 14.37,137.58 15.09,137.58 C15.09,137.58 15.09,137.58 15.09,137.58 C15.81,137.58 16.47,137.31 16.95,136.8 L38.67,115.08 C39.18,114.57 39.48,113.88 39.48,113.16 C39.48,112.44 39.21,111.78 38.7,111.3 C38.19,110.76 37.53,110.49 36.78,110.49 C36.78,110.49 36.78,110.49 36.78,110.49 Z" id="Path"></path>
                <path d="M134.91,12.39 C134.91,12.39 134.88,12.39 134.91,12.39 C134.19,12.39 133.53,12.66 133.02,13.17 L111.3,34.89 C110.79,35.4 110.49,36.09 110.49,36.81 C110.49,37.53 110.76,38.19 111.27,38.67 C111.81,39.21 112.47,39.48 113.19,39.48 C113.19,39.48 113.19,39.48 113.19,39.48 C113.91,39.48 114.57,39.21 115.05,38.7 L136.77,16.98 C137.28,16.47 137.58,15.78 137.58,15.06 C137.58,14.34 137.31,13.68 136.8,13.2 C136.29,12.66 135.63,12.39 134.91,12.39 Z" id="Path"></path>
                <path d="M100.14,135.69 C100.8,135.42 101.34,134.88 101.61,134.22 C101.88,133.56 101.88,132.81 101.61,132.15 L98.16,123.84 C97.59,122.49 96.03,121.83 94.62,122.4 C93.24,122.97 92.58,124.53 93.18,125.91 L96.63,134.22 C97.2,135.6 98.76,136.26 100.14,135.69 Z" id="Path"></path>
                <path d="M55.38,27.6 C56.04,27.33 56.58,26.79 56.85,26.13 C57.12,25.47 57.12,24.75 56.85,24.06 L53.4,15.78 C53.13,15.12 52.59,14.58 51.93,14.31 C51.6,14.19 51.27,14.1 50.91,14.1 C50.55,14.1 50.19,14.16 49.86,14.31 C48.45,14.88 47.82,16.44 48.39,17.85 L51.84,26.16 C52.41,27.51 54,28.17 55.38,27.6 Z" id="Path"></path>
                <path d="M17.85,101.61 L26.16,98.16 C27.57,97.59 28.2,96.03 27.63,94.62 C27.06,93.27 25.47,92.61 24.09,93.15 L15.78,96.6 C14.37,97.17 13.74,98.73 14.31,100.14 C14.91,101.52 16.47,102.18 17.85,101.61 Z" id="Path"></path>
                <path d="M125.91,56.85 L134.22,53.4 C134.88,53.13 135.42,52.59 135.69,51.93 C135.96,51.27 135.96,50.55 135.69,49.86 C135.42,49.2 134.88,48.66 134.22,48.39 C133.89,48.27 133.56,48.18 133.2,48.18 C132.84,48.18 132.48,48.24 132.15,48.39 L123.84,51.84 C123.18,52.11 122.64,52.65 122.37,53.31 C122.1,53.97 122.1,54.69 122.37,55.38 C122.94,56.73 124.53,57.39 125.91,56.85 Z" id="Path"></path>
                <path d="M55.38,122.37 C55.05,122.25 54.72,122.19 54.36,122.19 C54,122.19 53.64,122.25 53.31,122.4 C52.65,122.67 52.14,123.18 51.87,123.87 L48.42,132.21 C47.85,133.59 48.51,135.15 49.89,135.75 C51.24,136.32 52.83,135.66 53.4,134.28 L56.85,125.94 C57.42,124.53 56.76,122.97 55.38,122.37 Z" id="Path"></path>
                <path d="M100.14,14.28 C99.81,14.13 99.48,14.07 99.12,14.07 C98.07,14.07 97.05,14.7 96.6,15.75 L93.15,24.09 C92.58,25.47 93.24,27.03 94.62,27.63 C96,28.17 97.59,27.54 98.13,26.16 L98.13,26.13 L101.58,17.82 C102.18,16.44 101.52,14.88 100.14,14.28 Z" id="Path"></path>
                <path d="M15.75,53.4 L24.09,56.85 C25.47,57.42 27.03,56.76 27.63,55.38 C27.9,54.72 27.9,53.97 27.6,53.31 C27.33,52.65 26.82,52.14 26.13,51.87 L26.1,51.87 L17.79,48.42 C17.46,48.27 17.1,48.21 16.77,48.21 C15.72,48.21 14.7,48.84 14.25,49.89 C13.71,51.24 14.37,52.8 15.75,53.4 Z" id="Path"></path>
                <path d="M123.84,98.16 L132.15,101.61 C133.53,102.18 135.09,101.52 135.69,100.14 C135.96,99.48 135.96,98.76 135.69,98.07 C135.42,97.41 134.91,96.87 134.25,96.6 L125.91,93.15 C125.58,93 125.22,92.94 124.89,92.94 C123.84,92.94 122.82,93.57 122.37,94.62 C121.8,96 122.46,97.56 123.84,98.16 Z" id="Path"></path>
                <path d="M75,126.3 C73.5,126.3 72.3,127.5 72.3,129 L72.3,147.3 C72.3,148.8 73.5,150 75,150 C76.5,150 77.7,148.8 77.7,147.3 L77.7,129 C77.7,127.5 76.5,126.3 75,126.3 Z" id="Path"></path>
                <path d="M75,0 C73.5,0 72.3,1.2 72.3,2.7 L72.3,21 C72.3,22.5 73.5,23.7 75,23.7 C76.5,23.7 77.7,22.5 77.7,21 L77.7,2.7 C77.7,1.2 76.5,0 75,0 Z" id="Path"></path>
                <path d="M21,72.3 L2.7,72.3 C1.2,72.3 0,73.5 0,75 C0,76.5 1.2,77.7 2.7,77.7 L21,77.7 C22.5,77.7 23.7,76.5 23.7,75 C23.7,73.5 22.5,72.3 21,72.3 Z" id="Path"></path>
                <path d="M147.3,72.3 L129,72.3 C127.5,72.3 126.3,73.5 126.3,75 C126.3,76.5 127.5,77.7 129,77.7 L147.3,77.7 C148.8,77.7 150,76.5 150,75 C150,73.5 148.8,72.3 147.3,72.3 Z" id="Path"></path>
                <path d="M77.49,96.15 L77.49,94.53 L78.36,94.29 C83.4,92.91 86.94,88.56 86.94,83.7 C86.94,77.61 81.57,72.63 75,72.63 C71.19,72.63 68.07,69.9 68.07,66.57 C68.07,63.24 71.19,60.51 75,60.51 C78.81,60.51 81.93,63.24 81.93,66.57 C81.93,67.95 83.04,69.06 84.42,69.06 C85.8,69.06 86.91,67.95 86.91,66.57 C86.91,61.62 83.46,57.36 78.33,55.98 L77.46,55.74 L77.46,53.85 C77.46,52.47 76.35,51.36 74.97,51.36 C73.59,51.36 72.48,52.47 72.48,53.85 L72.48,55.74 L71.61,55.98 C66.57,57.36 63.03,61.71 63.03,66.57 C63.03,72.66 68.4,77.64 74.97,77.64 C78.78,77.64 81.9,80.37 81.9,83.7 C81.9,87.03 78.78,89.76 74.97,89.76 C71.16,89.76 68.04,87.03 68.04,83.7 C68.04,82.32 66.93,81.21 65.55,81.21 C64.17,81.21 63.06,82.32 63.06,83.7 C63.06,88.65 66.51,92.91 71.64,94.29 L72.51,94.53 L72.51,96.15 C72.51,97.53 73.62,98.64 75,98.64 C76.38,98.64 77.49,97.53 77.49,96.15 Z" id="Path"></path>
            </g>
        </g>
    </g>
</svg>