<?xml version="1.0" encoding="UTF-8"?>
<svg width="34px" height="49px" viewBox="0 0 34 49" version="1.1" xmlns="http://www.w3.org/2000/svg" xmlns:xlink="http://www.w3.org/1999/xlink">
    <!-- Generator: Sketch 52.6 (67491) - http://www.bohemiancoding.com/sketch -->
    <title>energy</title>
    <desc>Created with Sketch.</desc>
    <g id="Page-1" stroke="none" stroke-width="1" fill="none" fill-rule="evenodd">
        <g id="ESS-предприятиям_new" transform="translate(-37.000000, -2466.000000)" fill="#FFFFFF" fill-rule="nonzero">
            <g id="energy" transform="translate(37.000000, 2466.000000)">
                <path d="M33.2362043,27.745535 C33.1572704,27.3787977 32.8705156,27.0925195 32.5036829,27.0140623 C32.133323,26.9348424 23.3812938,25.125179 18.9169553,29.5730253 C17.9880525,30.4985914 17.3309377,31.6090039 16.8735409,32.7908191 C16.4160486,31.6090992 15.7590292,30.4985914 14.8300311,29.5730253 C10.3657879,25.125179 1.61385409,26.9349377 1.24339883,27.0140623 C0.876566148,27.0925195 0.589906615,27.3787977 0.510877432,27.745535 C0.431276265,28.114751 -1.38591829,36.8396109 3.08032685,41.2896498 C5.51316732,43.7136245 9.21905447,44.2791265 12.1482821,44.2790311 C13.7491712,44.2789358 15.1181206,44.1100097 15.9201381,43.9831245 L15.9201381,47.9515525 C15.9201381,48.4780642 16.3469339,48.9048599 16.8734455,48.9048599 C17.3998619,48.9048599 17.8267529,48.4780642 17.8267529,47.9515525 L17.8267529,43.9832198 C18.6286751,44.1101051 19.9975292,44.2790311 21.5986089,44.2790311 C24.5277412,44.2789358 28.2339144,43.7133385 30.6665642,41.2896498 C35.1330953,36.8396109 33.3158054,28.114751 33.2362043,27.745535 Z M4.42611089,39.9389086 C1.30898638,36.8331284 1.95914202,30.7296732 2.26534436,28.7687198 C4.23192218,28.4612782 10.3565409,27.8071187 13.4843424,30.9235759 L13.4844377,30.9235759 C15.3920058,32.8241848 15.888679,35.8473132 15.9168016,38.3567996 C15.9148949,38.5220078 15.9148949,38.684928 15.9165156,38.8453696 C15.9072685,39.6092549 15.8579825,40.3120331 15.7977335,40.9029883 L11.5525603,36.6732588 L11.5523696,33.2091304 C11.5523696,32.6826187 11.1255739,32.255823 10.5990623,32.255823 C10.0725506,32.2559183 9.64575486,32.682714 9.64575486,33.2092257 L9.64585019,34.7734125 L7.44123152,32.5768969 C7.06820233,32.205393 6.46456809,32.2063463 6.09296887,32.5793755 C5.72136965,32.9523093 5.72241829,33.5559436 6.09535214,33.9275428 L8.29158171,36.1157646 L6.72520233,36.1156693 C6.725107,36.1156693 6.725107,36.1156693 6.725107,36.1156693 C6.19869066,36.1156693 5.77179961,36.542465 5.77179961,37.0689767 C5.77179961,37.5954883 6.19859533,38.022284 6.72501167,38.022284 L10.2053463,38.0224747 L14.4458482,42.2475331 C11.8375992,42.5136012 7.06524708,42.5684163 4.42611089,39.9389086 Z M29.3210661,39.9389086 C26.6890798,42.5612665 21.9137724,42.5093113 19.3032354,42.2457218 L23.5418307,38.02257 L27.0221654,38.0223794 C27.5485817,38.0223794 27.9753774,37.5954883 27.9753774,37.069072 C27.9753774,36.5425603 27.5484864,36.1157646 27.0219747,36.1157646 L25.4555953,36.1158599 L27.6518249,33.9276381 C28.0247588,33.5560389 28.0259027,32.9524047 27.6542082,32.5794708 C27.2827043,32.206537 26.6791654,32.205393 26.3059455,32.5769922 L24.1014222,34.7735078 L24.1014222,33.209321 C24.1014222,32.6828093 23.6746265,32.2560136 23.1481148,32.2559183 C22.6216984,32.2559183 22.1948074,32.682714 22.1948074,33.2092257 L22.1946167,36.6733541 L17.9474416,40.9049903 C17.8899572,40.3460661 17.8421965,39.6870447 17.8290409,38.9706342 C17.8328541,38.7278268 17.8329494,38.4787276 17.8284689,38.2247665 C17.8716537,35.74407 18.3843424,32.7951089 20.2627393,30.9235759 L20.2628346,30.9235759 C23.3832004,27.8143638 29.5163988,28.4646148 31.482786,28.7696732 C31.7912763,30.7301498 32.4459125,36.8255019 29.3210661,39.9389086 Z" id="Shape"></path>
                <path d="M9.60933852,16.3062276 L15.1611148,16.1491226 L13.9302996,25.209928 C13.8700506,25.6533113 14.1263949,26.078963 14.5464222,26.2331128 C14.6541459,26.2726751 14.7651109,26.2916459 14.8747412,26.2916459 C15.1926693,26.2916459 15.4989669,26.1320623 15.6781887,25.8516946 L24.9680739,11.3176654 C25.1590214,11.0188988 25.1684591,10.6388152 24.9923833,10.3309922 C24.8163074,10.0231693 24.4853191,9.83899027 24.1297354,9.85157393 L19.6811265,10.0155428 L20.3554008,1.1208035 C20.3880039,0.691052529 20.128037,0.2927607 19.7215467,0.14957393 C19.3148658,0.00619649805 18.8629027,0.153768482 18.6190467,0.509066148 L8.79645331,14.8136342 C8.59339883,15.1094455 8.57357004,15.4941051 8.74516537,15.8091732 C8.9167607,16.1242412 9.24936965,16.3159514 9.60933852,16.3062276 Z M18.1866265,4.50695136 L17.6992957,10.9354844 C17.6787996,11.2061284 17.7747023,11.4727685 17.9628852,11.6684825 C18.1511634,11.8641012 18.413037,11.9694416 18.6850156,11.9601946 L22.3816556,11.8239669 L16.402035,21.1790584 L17.2016693,15.2927665 C17.2394202,15.0153541 17.1531459,14.735463 16.966107,14.5272607 C16.7850739,14.3258268 16.5271089,14.211144 16.257037,14.211144 C16.2479805,14.211144 16.2390195,14.2112393 16.229963,14.2115253 L11.4294883,14.3473716 L18.1866265,4.50695136 Z" id="Shape"></path>
            </g>
        </g>
    </g>
</svg>