<?xml version="1.0" encoding="UTF-8"?>
<svg width="35px" height="35px" viewBox="0 0 35 35" version="1.1" xmlns="http://www.w3.org/2000/svg" xmlns:xlink="http://www.w3.org/1999/xlink">
    <!-- Generator: Sketch 52.6 (67491) - http://www.bohemiancoding.com/sketch -->
    <title>solar-panel (3)</title>
    <desc>Created with Sketch.</desc>
    <g id="Page-1" stroke="none" stroke-width="1" fill="none" fill-rule="evenodd">
        <g id="ESS-предприятиям_new" transform="translate(-37.000000, -2361.000000)" fill="#FFFFFF">
            <g id="solar-panel-(3)" transform="translate(37.000000, 2361.000000)">
                <path d="M26.0955361,12.8321053 C25.9747076,12.3859747 25.569922,12.0762281 25.1076901,12.0762281 L5.45856725,12.0762281 C4.99640351,12.0762281 4.59154971,12.3859747 4.47072125,12.8321053 L0.0360233918,29.2063743 C-0.139727096,29.8555458 0.34911306,30.4972807 1.0238694,30.4972807 L14.2597368,30.4972807 L14.2597368,32.8851949 L6.55018519,32.8851949 C5.985,32.8851949 5.52679337,33.3434016 5.52679337,33.9085867 C5.52679337,34.4737719 5.985,34.9319786 6.55018519,34.9319786 L24.0160721,34.9319786 C24.5812573,34.9319786 25.0394639,34.4737719 25.0394639,33.9085867 C25.0394639,33.3434016 24.5812573,32.8851949 24.0160721,32.8851949 L16.3065205,32.8851949 L16.3065205,30.4972807 L29.5423879,30.4972807 C30.2148928,30.4972807 30.7065302,29.8576608 30.5302339,29.2063743 L26.0955361,12.8321053 Z M11.0331189,28.4505653 L11.6016472,25.0392593 L18.9646101,25.0392593 L19.5331384,28.4505653 L11.0331189,28.4505653 Z M11.9427778,22.9924756 L12.511306,19.5811696 L18.054883,19.5811696 L18.6234113,22.9924756 L11.9427778,22.9924756 Z M4.76341131,19.5811696 L10.436345,19.5811696 L9.86781676,22.9924756 L3.83949318,22.9924756 L4.76341131,19.5811696 Z M17.1452242,14.1230799 L17.7137524,17.534386 L12.8524366,17.534386 L13.4209649,14.1230799 L17.1452242,14.1230799 Z M20.1299123,19.5811696 L25.802846,19.5811696 L26.7267641,22.9924756 L20.6985088,22.9924756 L20.1299123,19.5811696 Z M25.2485088,17.534386 L19.7887817,17.534386 L19.2202534,14.1230799 L24.3245906,14.1230799 L25.2485088,17.534386 Z M6.24166667,14.1230799 L11.3460039,14.1230799 L10.7774756,17.534386 L5.31774854,17.534386 L6.24166667,14.1230799 Z M3.28515595,25.0392593 L9.52661793,25.0392593 L8.95808967,28.4505653 L2.36130604,28.4505653 L3.28515595,25.0392593 Z M21.6081676,28.4505653 L21.0396394,25.0392593 L27.2811014,25.0392593 L28.2050195,28.4505653 L21.6081676,28.4505653 Z" id="Shape" fill-rule="nonzero"></path>
                <path d="M33.9088596,7.16401559 C30.465692,7.16401559 27.7685088,4.46683236 27.7685088,1.02366472 C27.7685088,0.458479532 27.3103021,0.000272904483 26.745117,0.000272904483 L22.8855653,0.000272904483 C22.3203801,0.000272904483 21.8621735,0.458479532 21.8621735,1.02366472 C21.8621735,1.5888499 22.3203801,2.04705653 22.8855653,2.04705653 L25.7823099,2.04705653 C25.9634503,3.56201754 26.5433723,4.93704678 27.4168713,6.06844055 L25.3706335,8.11467836 C24.7240546,8.76118908 25.1907212,9.86167641 26.0942398,9.86167641 C26.3561598,9.86167641 26.6180799,9.76179337 26.817846,9.56189084 L28.8640838,7.51565302 C29.9954776,8.38915205 31.3704386,8.96907407 32.8854678,9.15021442 L32.8854678,12.0469591 C32.8854678,12.6121442 33.3436745,13.0703509 33.9088596,13.0703509 C34.4740448,13.0703509 34.9322515,12.6121442 34.9322515,12.0469591 L34.9322515,8.18740741 C34.9322515,7.622154 34.4740448,7.16401559 33.9088596,7.16401559 Z" id="Path"></path>
                <path d="M17.2881579,8.71247563 L23.2995614,6.34434698 C23.8254483,6.13721248 24.0837524,5.54296296 23.8766179,5.01707602 C23.6694834,4.49118908 23.0752339,4.23288499 22.549347,4.44001949 L16.5379435,6.80814815 C16.0120565,7.01528265 15.7537524,7.60953216 15.9608869,8.1354191 C16.1674756,8.65994152 16.7609747,8.92015595 17.2881579,8.71247563 Z" id="Path"></path>
                <path d="M28.923577,13.4235575 C29.3186745,13.4235575 29.695078,13.1933626 29.8626413,12.8079532 L30.1010916,12.2595517 C30.3264425,11.7412378 30.0888109,11.1383236 29.5705653,10.9130409 C29.0519103,10.6876218 28.4493372,10.9252534 28.2240546,11.4435673 L27.9856043,11.9919006 C27.6899805,12.6717057 28.1936257,13.4235575 28.923577,13.4235575 Z" id="Path"></path>
            </g>
        </g>
    </g>
</svg>