<?xml version="1.0" encoding="UTF-8"?>
<svg width="35px" height="29px" viewBox="0 0 35 29" version="1.1" xmlns="http://www.w3.org/2000/svg" xmlns:xlink="http://www.w3.org/1999/xlink">
    <!-- Generator: Sketch 52.6 (67491) - http://www.bohemiancoding.com/sketch -->
    <title>battery (1)</title>
    <desc>Created with Sketch.</desc>
    <g id="Page-1" stroke="none" stroke-width="1" fill="none" fill-rule="evenodd">
        <g id="ESS-предприятиям_new" transform="translate(-37.000000, -2580.000000)" fill="#FFFFFF">
            <g id="battery-(1)" transform="translate(37.000000, 2580.000000)">
                <path d="M32.9492188,4.921875 L29.4628906,4.921875 L29.4628906,1.02539062 C29.4628906,0.459101562 29.0037891,0 28.4375,0 L24.0625,0 C23.4962109,0 23.0371094,0.459101562 23.0371094,1.02539062 L23.0371094,4.921875 L11.9628906,4.921875 L11.9628906,1.02539062 C11.9628906,0.459101562 11.5037891,0 10.9375,0 L6.5625,0 C5.99621094,0 5.53710938,0.459101562 5.53710938,1.02539062 L5.53710938,4.921875 L2.05078125,4.921875 C0.919980469,4.921875 0,5.84185547 0,6.97265625 L0,9.84375 C0,10.9745508 0.919980469,11.8945312 2.05078125,11.8945312 L2.25585938,11.8945312 L2.25585938,26.25 C2.25585938,27.3808008 3.17583984,28.3007812 4.30664062,28.3007812 L30.6933594,28.3007812 C31.8241602,28.3007812 32.7441406,27.3808008 32.7441406,26.25 L32.7441406,11.8945312 L32.9492188,11.8945312 C34.0800195,11.8945312 35,10.9745508 35,9.84375 L35,6.97265625 C35,5.84185547 34.0800195,4.921875 32.9492188,4.921875 Z M25.0878906,2.05078125 L27.4121094,2.05078125 L27.4121094,4.921875 L25.0878906,4.921875 L25.0878906,2.05078125 Z M7.58789062,2.05078125 L9.91210938,2.05078125 L9.91210938,4.921875 L7.58789062,4.921875 L7.58789062,2.05078125 Z M4.30664062,26.25 L4.30664062,23.9257812 L30.6933594,23.9257812 L30.6933594,26.25 L4.30664062,26.25 Z M30.6933594,21.875 L4.30664062,21.875 L4.30664062,11.8945312 L30.6933594,11.8945312 L30.6933594,21.875 Z M32.9492188,9.84375 L2.05078125,9.84375 L2.04948242,6.97272461 C2.04948242,6.97272461 2.04989258,6.97265625 2.05078125,6.97265625 L32.9492188,6.97265625 L32.9492188,9.84375 Z" id="Shape" fill-rule="nonzero"></path>
                <path d="M21.328125,17.9101562 L21.9433594,17.9101562 L21.9433594,18.5253906 C21.9433594,19.0916797 22.4024609,19.5507812 22.96875,19.5507812 C23.5350391,19.5507812 23.9941406,19.0916797 23.9941406,18.5253906 L23.9941406,17.9101562 L24.609375,17.9101562 C25.1756641,17.9101562 25.6347656,17.4510547 25.6347656,16.8847656 C25.6347656,16.3184766 25.1756641,15.859375 24.609375,15.859375 L23.9941406,15.859375 L23.9941406,15.2441406 C23.9941406,14.6778516 23.5350391,14.21875 22.96875,14.21875 C22.4024609,14.21875 21.9433594,14.6778516 21.9433594,15.2441406 L21.9433594,15.859375 L21.328125,15.859375 C20.7618359,15.859375 20.3027344,16.3184766 20.3027344,16.8847656 C20.3027344,17.4510547 20.7618359,17.9101562 21.328125,17.9101562 Z" id="Path"></path>
                <path d="M10.390625,17.9101562 L13.671875,17.9101562 C14.2381641,17.9101562 14.6972656,17.4510547 14.6972656,16.8847656 C14.6972656,16.3184766 14.2381641,15.859375 13.671875,15.859375 L10.390625,15.859375 C9.82433594,15.859375 9.36523438,16.3184766 9.36523438,16.8847656 C9.36523438,17.4510547 9.82433594,17.9101562 10.390625,17.9101562 Z" id="Path"></path>
            </g>
        </g>
    </g>
</svg>