<?xml version="1.0" encoding="UTF-8"?>
<svg width="84px" height="120px" viewBox="0 0 84 120" version="1.1" xmlns="http://www.w3.org/2000/svg" xmlns:xlink="http://www.w3.org/1999/xlink">
    <!-- Generator: Sketch 52.6 (67491) - http://www.bohemiancoding.com/sketch -->
    <title>confidence</title>
    <desc>Created with Sketch.</desc>
    <g id="Page-1" stroke="none" stroke-width="1" fill="none" fill-rule="evenodd">
        <g id="ESS-kness" transform="translate(-1251.000000, -1449.000000)" fill="#FFFFFF">
            <g id="confidence" transform="translate(1251.000000, 1449.000000)">
                <path d="M24.2703687,26.2502344 L30.6668045,26.2502344 C31.3463128,26.2502344 31.9648156,25.8595313 32.2562346,25.2466406 L33.5103687,22.6094531 C33.9381117,21.7101563 34.6788603,21.0007031 35.5965251,20.6111719 L36.5512626,20.2059375 C36.6190726,20.1773438 36.6847709,20.1442969 36.7483575,20.1072656 L42.5720447,16.7203125 C42.8995978,16.5297656 43.1567598,16.2386719 43.3052849,15.8903906 L44.8517765,12.2660156 C44.974257,11.9791406 45.2548827,11.79375 45.5744581,11.79375 C46.3583799,11.79375 47.0573631,12.2617969 47.3555866,12.9860156 C47.4883911,13.30875 47.5557318,13.6492969 47.5557318,13.9980469 L47.5557318,17.9969531 C47.5557318,18.9780469 47.3487821,19.9282031 46.940514,20.8209375 L46.061095,22.74375 C45.7086704,23.5141406 45.7720223,24.3996094 46.2305028,25.1123438 C46.6889832,25.8248438 47.4689162,26.2502344 48.3168939,26.2502344 L55.7255531,26.2502344 C56.7361341,26.2502344 57.558067,27.0714844 57.558067,28.0809375 C57.558067,28.7789063 57.1688045,29.4065625 56.542324,29.7194531 C55.9906927,29.9950781 55.623486,30.5388281 55.5749162,31.1528906 C55.5261117,31.7671875 55.8029832,32.3617969 56.3044022,32.720625 C56.7248715,33.0213281 56.9658436,33.4884375 56.9658436,34.0024219 C56.9658436,34.6488281 56.5599218,35.2392187 55.9557318,35.4721875 C55.3869721,35.6915625 54.9721341,36.1891406 54.859743,36.7877344 C54.747352,37.3863281 54.9528939,38.0003906 55.4033966,38.4107812 C55.6858994,38.6683594 55.8414637,39.0199219 55.8414637,39.4014844 C55.8414637,40.0258594 55.3994078,40.5764062 54.7905251,40.71 C53.8939777,40.906875 53.2433296,41.7159375 53.2433296,42.6398438 C53.2433296,43.3565625 53.6349385,44.0182031 54.2679888,44.3683594 C54.6886927,44.5999219 54.9552402,45.0400781 54.9636872,45.5172656 C54.9697877,45.8641406 54.8346369,46.19625 54.5824022,46.4526563 C54.313743,46.7257031 53.9394972,46.8822656 53.5556313,46.8822656 L48.9879553,46.8822656 C48.0160894,46.8822656 47.2281788,47.6690625 47.2281788,48.6400781 C47.2281788,49.6110938 48.0160894,50.3978906 48.9879553,50.3978906 L53.5556313,50.3978906 C54.8778101,50.3978906 56.1671397,49.8578906 57.0932514,48.9164063 C58.012324,47.9819531 58.506,46.7526563 58.4827709,45.4549219 C58.4670503,44.5722656 58.2089497,43.7247656 57.7589162,42.9953906 C58.7486145,42.0949219 59.3612514,40.7992969 59.3612514,39.40125 C59.3612514,38.7719531 59.2378324,38.154375 59.0057765,37.5813281 C59.9307151,36.6435938 60.4858659,35.3608594 60.4858659,34.0021875 C60.4858659,33.1207031 60.2549832,32.2652344 59.8333408,31.5140625 C60.6257095,30.5714063 61.0778547,29.3667188 61.0778547,28.0807031 C61.0778547,25.1327344 58.6770503,22.734375 55.7257877,22.734375 L49.9347151,22.734375 L50.1418994,22.2810938 C50.7611061,20.9266406 51.0752849,19.485 51.0752849,17.9964844 L51.0752849,13.9980469 C51.0752849,13.1885156 50.9190168,12.3982031 50.6107039,11.6491406 C49.7676536,9.60140625 47.790838,8.278125 45.5667151,8.278125 C43.8421341,8.278125 42.2904804,9.30210938 41.6140223,10.8874219 L40.2963017,13.9755469 L35.0730503,17.0132813 L34.2199106,17.375625 C32.5096425,18.1014844 31.1285698,19.4245313 30.3312737,21.10125 L29.5543911,22.7348438 L24.2703687,22.7348438 C23.2985028,22.7348438 22.5105922,23.5216406 22.5105922,24.4926563 C22.5105922,25.4636719 23.2985028,26.2502344 24.2703687,26.2502344 Z" id="Path"></path>
                <path d="M43.2485028,48.6403125 C43.2485028,47.6692969 42.4605922,46.8825 41.4887263,46.8825 L35.0193184,46.8825 C34.4777765,46.8825 33.9449162,46.7371875 33.4789274,46.4622656 L31.5614749,45.3316406 C31.2904693,45.1717969 30.9816872,45.0876562 30.6668045,45.0876562 L24.2703687,45.0876562 C23.2985028,45.0876562 22.5105922,45.8744531 22.5105922,46.8454687 C22.5105922,47.8164844 23.2985028,48.6032812 24.2703687,48.6032812 L30.1860335,48.6032812 L31.6895866,49.4899219 C32.697352,50.0840625 33.8487151,50.398125 35.0190838,50.398125 L41.4884916,50.398125 C42.4605922,50.398125 43.2485028,49.6113281 43.2485028,48.6403125 Z" id="Path"></path>
                <path d="M82.1010838,116.42625 L81.2613184,116.42625 L81.2613184,102.367734 C81.2613184,101.396719 80.4734078,100.609922 79.5015419,100.609922 C78.529676,100.609922 77.7417654,101.396719 77.7417654,102.367734 L77.7417654,116.42625 L69.0475307,116.42625 L69.0475307,106.46625 C69.0475307,105.495234 68.2596201,104.708438 67.2877542,104.708438 C66.3158883,104.708438 65.5279777,105.495234 65.5279777,106.46625 L65.5279777,116.42625 L47.8868045,116.42625 C53.594581,112.165078 58.560905,106.864688 62.4098883,100.893516 L63.5448268,99.1326563 L66.2316536,99.8142188 C66.9121006,99.9864844 67.6209385,99.8385938 68.1753855,99.4078125 C68.7295978,98.9770313 69.0475307,98.3278125 69.0475307,97.6260938 L69.0475307,91.8220313 C69.0475307,90.7551563 68.9876983,89.6969531 68.8795307,88.648125 L76.2236648,82.9028906 C77.2072626,85.0821094 77.7415307,87.4797656 77.7415307,89.9632031 L77.7415307,94.8764063 C77.7415307,95.8474219 78.5294413,96.6342188 79.5013073,96.6342188 C80.4731732,96.6342188 81.2610838,95.8474219 81.2610838,94.8764063 L81.2610838,89.9632031 C81.2610838,82.2944531 77.048648,75.2967188 70.2678771,71.7004688 L58.6768156,65.5530469 C58.6747039,65.4309375 58.6606257,65.3074219 58.6317654,65.1839063 L57.642067,60.9285938 C67.6875754,55.3978125 74.5089385,44.7157031 74.5089385,32.4710156 C74.5089385,14.5664063 59.926257,2.27373675e-13 42.0016425,2.27373675e-13 C24.0770279,2.27373675e-13 9.49458101,14.5664063 9.49458101,32.4710156 C9.49458101,44.7157031 16.3159441,55.3980469 26.3614525,60.9285938 L25.3717542,65.1839063 C25.3428939,65.3076563 25.3288156,65.4311719 25.3267039,65.5532813 L13.7356425,71.7004688 C6.95487151,75.2964844 2.74243575,82.2942188 2.74243575,89.9632031 L2.74243575,116.42625 L1.84096089,116.42625 C0.869094972,116.42625 0.0811843575,117.213047 0.0811843575,118.184063 C0.0811843575,119.155078 0.869094972,119.941875 1.84096089,119.941875 L82.1013184,119.941875 C83.0731844,119.941875 83.861095,119.155078 83.861095,118.184063 C83.861095,117.213047 83.0729497,116.42625 82.1010838,116.42625 Z M42.0016425,78.3021094 C42.6558101,78.6653906 43.3102123,79.0164844 43.9646145,79.3567969 L47.1918101,85.1711719 L46.8152179,87.5685938 L37.5477654,87.5685938 C37.5414302,87.5685938 37.5348603,87.5685938 37.5285251,87.5685938 L36.7732291,87.5685938 L36.3966369,85.1711719 L39.4579441,79.655625 C40.3059218,79.2234375 41.1538994,78.7727344 42.0016425,78.3021094 Z M39.1726257,91.0842188 L44.8306592,91.0842188 L46.2872849,107.558672 C45.8398324,108.419297 42.0016425,115.275469 42.0016425,115.275469 C42.0016425,115.275469 38.1634525,108.419297 37.716,107.558672 L39.1726257,91.0842188 Z M49.2610726,101.231484 L48.3499777,90.92625 C49.3070615,90.594375 50.0330279,89.7635156 50.1986816,88.7092969 L50.7627486,85.1196094 C50.8235196,84.7328906 50.7533631,84.3370313 50.5633073,83.9946094 L49.4156983,81.9269531 C51.1276089,82.6497656 52.8341229,83.2910156 54.5305475,83.8488281 L54.4205028,84.4028906 C53.2717207,90.1910156 51.5422123,95.8209375 49.2610726,101.231484 Z M55.670648,68.6411719 C56.2961899,72.6740625 56.547486,76.7339063 56.4207821,80.7632813 C52.7573966,79.6160156 49.0315978,78.0496875 45.2954749,76.0863281 L55.670648,68.6411719 Z M27.5827374,80.7635156 C27.4560335,76.734375 27.7073296,72.6742969 28.3328715,68.6411719 L38.7078101,76.0863281 C34.9719218,78.0496875 31.2458883,79.6160156 27.5827374,80.7635156 Z M34.0495642,82.149375 L33.0253743,83.9946094 C32.8353184,84.3370313 32.765162,84.7326563 32.825933,85.1196094 L33.39,88.7090625 C33.5784134,89.9078906 34.4899777,90.8198438 35.6439218,91.0352344 L34.7424469,101.231484 C32.4613073,95.8209375 30.7317989,90.19125 29.5830168,84.4028906 L29.4729721,83.8488281 C30.9915419,83.3496094 32.518324,82.7810156 34.0495642,82.149375 Z M65.5279777,96.0086719 L63.1839553,95.4138281 C62.4511844,95.2286719 61.6808715,95.5307813 61.2711955,96.1659375 L59.450648,98.9901563 C56.3182458,103.849219 52.400514,108.236484 47.9250503,111.927656 L47.9712737,111.845156 C52.675743,103.491094 56.0071173,94.4880469 57.8727151,85.0863281 L57.9248045,84.8242969 C57.9731397,84.8282813 58.0214749,84.8339063 58.0698101,84.8339063 C58.4327933,84.8339063 58.7910838,84.7216406 59.0925922,84.5067188 C59.5219777,84.2001563 59.7913408,83.7175781 59.8258324,83.1916406 C59.9992291,80.5584375 60.012838,77.9090625 59.8781564,75.2580469 L60.3964693,75.9745313 C63.7536536,80.6160938 65.5282123,86.09625 65.5282123,91.8222656 L65.5282123,96.0086719 L65.5279777,96.0086719 Z M74.4359665,79.8360938 L68.2148045,84.7028906 C67.294324,80.8457813 65.6215978,77.1951563 63.249419,73.9153125 L60.9530279,70.7404688 L68.6179106,74.8054688 C70.959352,76.0474219 72.9305363,77.7796875 74.4359665,79.8360938 Z M13.0141341,32.4710156 C13.0141341,16.5049219 26.0179441,3.515625 42.0016425,3.515625 C57.9853408,3.515625 70.9893855,16.5049219 70.9893855,32.4710156 C70.9893855,48.4371094 57.9855754,61.4264063 42.0018771,61.4264063 C26.0181788,61.4264063 13.0141341,48.4371094 13.0141341,32.4710156 Z M42.0016425,64.9420313 C46.3867709,64.9420313 50.5710503,64.0682813 54.3916425,62.4890625 L54.9381117,64.8382031 L42.0018771,74.1213281 L29.0656425,64.8382031 L29.6121117,62.4890625 C33.4324693,64.0682813 37.616514,64.9420313 42.0016425,64.9420313 Z M15.3858436,74.8054688 L23.050257,70.7409375 L20.7543352,73.9153125 C18.3819218,77.1951563 16.7091955,80.8457813 15.7889497,84.7028906 L9.56778771,79.8358594 C11.0727486,77.7794531 13.043933,76.0474219 15.3858436,74.8054688 Z M6.26198883,89.9632031 C6.26198883,87.4797656 6.79649162,85.0821094 7.77985475,82.9028906 L15.1239888,88.648125 C15.0158212,89.6969531 14.9559888,90.7551563 14.9559888,91.8220313 L14.9559888,97.6260938 C14.9559888,98.3275781 15.2739218,98.9770313 15.8281341,99.4078125 C16.382581,99.8388281 17.0911844,99.9867188 17.7723352,99.8142188 L20.4584581,99.1326563 L21.5941006,100.894922 C21.661676,100.999453 21.7308939,101.103047 21.8003464,101.206172 L21.9256425,101.393906 C22.2637542,101.907422 22.8250056,102.186094 23.3975196,102.186094 C23.7295307,102.186094 24.0650615,102.092578 24.3630503,101.896641 C25.1748939,101.363438 25.4003799,100.273125 24.8663464,99.4621875 L24.7239218,99.2486719 C24.6662011,99.1626563 24.6082458,99.0766406 24.5528715,98.9903906 L22.732324,96.1659375 C22.322648,95.5307813 21.5523352,95.2286719 20.8195642,95.4138281 L18.4755419,96.0086719 L18.4755419,91.8222656 C18.4755419,86.0957813 20.2501006,80.6158594 23.6072849,75.9745313 L24.1258324,75.2575781 C23.9911508,77.9088281 24.0042905,80.5582031 24.1776872,83.1916406 C24.2124134,83.7175781 24.4815419,84.2003906 24.9109274,84.5067188 C25.2126704,84.721875 25.5707263,84.8339063 25.9337095,84.8339063 C25.9820447,84.8339063 26.0303799,84.8282813 26.0787151,84.8242969 L26.1308045,85.0863281 C27.9964022,94.4880469 31.3277765,103.491094 36.0322458,111.845156 L36.0864469,111.941719 C33.6330838,109.923281 31.3519441,107.696719 29.2648492,105.28125 C28.6296872,104.546484 27.5186816,104.464922 26.7828603,105.099141 C26.0470391,105.733359 25.9653855,106.843359 26.6005475,107.578359 C29.4476313,110.873438 32.6361117,113.835469 36.1141341,116.42625 L18.4757765,116.42625 L18.4757765,106.46625 C18.4757765,105.495234 17.6878659,104.708438 16.716,104.708438 C15.7441341,104.708438 14.9562235,105.495234 14.9562235,106.46625 L14.9562235,116.42625 L6.26198883,116.42625 L6.26222346,89.9632031 L6.26198883,89.9632031 Z" id="Shape" fill-rule="nonzero"></path>
            </g>
        </g>
    </g>
</svg>