<?xml version="1.0" encoding="UTF-8"?>
<svg width="154px" height="39px" viewBox="0 0 154 39" version="1.1" xmlns="http://www.w3.org/2000/svg" xmlns:xlink="http://www.w3.org/1999/xlink">
    <!-- Generator: Sketch 52.6 (67491) - http://www.bohemiancoding.com/sketch -->
    <title>ESS лого тесл</title>
    <desc>Created with Sketch.</desc>
    <g id="Page-1" stroke="none" stroke-width="1" fill="none" fill-rule="evenodd">
        <g id="ESS-Частным-лицам3" transform="translate(-46.000000, -30.000000)" fill="#FFFFFF" fill-rule="nonzero">
            <g id="ESS-лого-тесл" transform="translate(46.000000, 30.000000)">
                <path d="M107.8,38.6069444 C107.8,36.4947917 108.548611,34.6767361 110.019097,33.20625 C111.543056,31.6822917 113.361111,30.9336806 115.473264,30.9336806 L146.219792,30.9336806 L146.219792,23.2336806 L107.8,23.2336806 L107.8,0.160416667 L153.919792,0.160416667 C153.919792,2.32604167 153.171181,4.14409722 151.647222,5.64131944 C150.123264,7.11180556 148.331944,7.86041667 146.246528,7.86041667 L115.5,7.86041667 L115.5,15.5604167 L153.946528,15.5604167 L153.946528,38.6336806 L107.8,38.6336806 L107.8,38.6069444 Z M53.9802083,38.6069444 C53.9802083,36.4947917 54.7288194,34.6767361 56.1993056,33.20625 C57.7232639,31.6822917 59.5413194,30.9336806 61.6534722,30.9336806 L92.4,30.9336806 L92.4,23.2336806 L53.9802083,23.2336806 L53.9802083,0.160416667 L100.1,0.160416667 C100.1,2.32604167 99.3246528,4.14409722 97.8274306,5.64131944 C96.3034722,7.11180556 94.5121528,7.86041667 92.4267361,7.86041667 L61.6802083,7.86041667 L61.6802083,15.5604167 L100.126736,15.5604167 L100.126736,38.6336806 L53.9802083,38.6336806 L53.9802083,38.6069444 Z M7.86041667,7.86041667 C5.69479167,7.86041667 3.87673611,7.11180556 2.40625,5.64131944 C0.935763889,4.11736111 0.187152778,2.29930556 0.187152778,0.160416667 L46.3069444,0.160416667 C46.3069444,2.32604167 45.5315972,4.14409722 44.034375,5.64131944 C42.5104167,7.11180556 40.7190972,7.86041667 38.6336806,7.86041667 L7.86041667,7.86041667 Z M7.86041667,23.2336806 C5.69479167,23.2336806 3.87673611,22.4850694 2.40625,21.0145833 C0.935763889,19.490625 0.187152778,17.6725694 0.187152778,15.5604167 L46.3069444,15.5604167 C46.3069444,17.7260417 45.5315972,19.5440972 44.034375,21.0145833 C42.5104167,22.4850694 40.7190972,23.2336806 38.6336806,23.2336806 L7.86041667,23.2336806 Z M7.86041667,38.6069444 C5.69479167,38.6069444 3.87673611,37.8583333 2.40625,36.3878472 C0.935763889,34.8638889 0.187152778,33.0458333 0.187152778,30.9069444 L46.3069444,30.9069444 C46.3069444,33.0725694 45.5315972,34.890625 44.034375,36.3878472 C42.5104167,37.8583333 40.7190972,38.6069444 38.6336806,38.6069444 L7.86041667,38.6069444 Z" id="Shape"></path>
            </g>
        </g>
    </g>
</svg>