<?xml version="1.0" encoding="UTF-8"?>
<svg width="154px" height="50px" viewBox="0 0 154 50" version="1.1" xmlns="http://www.w3.org/2000/svg" xmlns:xlink="http://www.w3.org/1999/xlink">
    <!-- Generator: Sketch 52.6 (67491) - http://www.bohemiancoding.com/sketch -->
    <title>ESS LOGO VECTOR</title>
    <desc>Created with Sketch.</desc>
    <g id="Page-1" stroke="none" stroke-width="1" fill="none" fill-rule="evenodd">
        <g id="ESS-menu" transform="translate(-1309.000000, -30.000000)" fill="#171A20">
            <g id="ESS-LOGO-VECTOR" transform="translate(1309.000000, 30.000000)">
                <path d="M7.95496689,7.64900662 C5.81324503,7.64900662 3.97748344,6.93509934 2.54966887,5.40529801 C1.1218543,3.87549669 0.305960265,2.0397351 0.305960265,0 L46.2,0 C46.2,2.14172185 45.4860927,3.97748344 43.9562914,5.40529801 C42.4264901,6.83311258 40.6927152,7.64900662 38.5509934,7.64900662 L7.95496689,7.64900662 Z M7.95496689,22.9470199 C5.81324503,22.9470199 3.97748344,22.2331126 2.54966887,20.7033113 C1.1218543,19.1735099 0.305960265,17.3377483 0.305960265,15.2980132 L46.2,15.2980132 C46.2,17.4397351 45.4860927,19.2754967 43.9562914,20.7033113 C42.4264901,22.1311258 40.6927152,22.9470199 38.5509934,22.9470199 L7.95496689,22.9470199 Z M7.95496689,38.2450331 C5.81324503,38.2450331 3.97748344,37.5311258 2.54966887,36.0013245 C1.1218543,34.4715232 0.305960265,32.6357616 0.305960265,30.5960265 L46.2,30.5960265 C46.2,32.7377483 45.4860927,34.5735099 43.9562914,36.0013245 C42.4264901,37.4291391 40.6927152,38.2450331 38.5509934,38.2450331 L7.95496689,38.2450331 Z" id="Shape" fill-rule="nonzero"></path>
                <path d="M53.7470199,38.2450331 C53.7470199,36.1033113 54.4609272,34.3695364 55.9907285,32.8397351 C57.5205298,31.3099338 59.3562914,30.5960265 61.3960265,30.5960265 L91.992053,30.5960265 L91.992053,22.9470199 L53.7470199,22.9470199 L53.7470199,0 L99.6410596,0 C99.6410596,2.14172185 98.9271523,3.97748344 97.397351,5.40529801 C95.8675497,6.83311258 94.1337748,7.64900662 91.992053,7.64900662 L61.3960265,7.64900662 L61.3960265,15.2980132 L99.6410596,15.2980132 L99.6410596,38.2450331 L53.7470199,38.2450331 Z" id="Path"></path>
                <path d="M107.290066,38.2450331 C107.290066,36.1033113 108.003974,34.3695364 109.533775,32.8397351 C111.063576,31.3099338 112.899338,30.5960265 114.939073,30.5960265 L145.535099,30.5960265 L145.535099,22.9470199 L107.290066,22.9470199 L107.290066,0 L153.184106,0 C153.184106,2.14172185 152.470199,3.97748344 150.940397,5.40529801 C149.410596,6.83311258 147.676821,7.64900662 145.535099,7.64900662 L114.939073,7.64900662 L114.939073,15.2980132 L153.184106,15.2980132 L153.184106,38.2450331 L107.290066,38.2450331 Z" id="Path"></path>
                <path d="M1.1218543,49.6675497 L1.1218543,44.2622517 C1.1218543,44.0582781 1.22384106,43.9562914 1.42781457,43.9562914 L3.77350993,43.9562914 C3.97748344,43.9562914 4.0794702,44.0582781 4.0794702,44.2622517 C4.0794702,44.4662252 3.97748344,44.5682119 3.77350993,44.5682119 L1.73377483,44.5682119 L1.73377483,46.4039735 L3.26357616,46.4039735 C3.46754967,46.4039735 3.56953642,46.5059603 3.56953642,46.7099338 C3.56953642,46.9139073 3.46754967,47.015894 3.26357616,47.015894 L1.73377483,47.015894 L1.73377483,49.3615894 L3.77350993,49.3615894 C3.97748344,49.3615894 4.0794702,49.4635762 4.0794702,49.6675497 C4.0794702,49.8715232 3.97748344,49.9735099 3.77350993,49.9735099 L1.42781457,49.9735099 C1.22384106,49.9735099 1.1218543,49.8715232 1.1218543,49.6675497" id="Path"></path>
                <path d="M12.7483444,48.4437086 L12.7483444,44.2622517 C12.7483444,44.0582781 12.8503311,43.9562914 13.0543046,43.9562914 C13.2582781,43.9562914 13.3602649,44.0582781 13.3602649,44.2622517 L13.3602649,49.6675497 C13.3602649,49.8715232 13.2582781,49.9735099 13.0543046,49.9735099 C12.9523179,49.9735099 12.8503311,49.9735099 12.7483444,49.8715232 L10.3006623,45.4860927 L10.3006623,49.7695364 C10.3006623,49.9735099 10.1986755,50.0754967 9.99470199,50.0754967 C9.79072848,50.0754967 9.68874172,49.9735099 9.68874172,49.7695364 L9.68874172,44.3642384 C9.68874172,44.1602649 9.79072848,44.0582781 9.99470199,44.0582781 C10.0966887,44.0582781 10.1986755,44.1602649 10.3006623,44.2622517 L12.7483444,48.4437086 Z" id="Path"></path>
                <path d="M19.0715232,49.6675497 L19.0715232,44.2622517 C19.0715232,44.0582781 19.1735099,43.9562914 19.3774834,43.9562914 L21.7231788,43.9562914 C21.9271523,43.9562914 22.0291391,44.0582781 22.0291391,44.2622517 C22.0291391,44.4662252 21.9271523,44.5682119 21.7231788,44.5682119 L19.6834437,44.5682119 L19.6834437,46.4039735 L21.213245,46.4039735 C21.4172185,46.4039735 21.5192053,46.5059603 21.5192053,46.7099338 C21.5192053,46.9139073 21.4172185,47.015894 21.213245,47.015894 L19.6834437,47.015894 L19.6834437,49.3615894 L21.7231788,49.3615894 C21.9271523,49.3615894 22.0291391,49.4635762 22.0291391,49.6675497 C22.0291391,49.8715232 21.9271523,49.9735099 21.7231788,49.9735099 L19.3774834,49.9735099 C19.1735099,49.9735099 19.0715232,49.8715232 19.0715232,49.6675497" id="Path"></path>
                <path d="M30.2900662,47.4238411 L31.3099338,49.4635762 C31.3099338,49.4635762 31.3099338,49.5655629 31.3099338,49.5655629 C31.3099338,49.6675497 31.3099338,49.6675497 31.207947,49.7695364 C31.1059603,49.8715232 31.1059603,49.8715232 31.0039735,49.8715232 C30.9019868,49.8715232 30.8,49.7695364 30.6980132,49.6675497 L29.5761589,47.4238411 C29.5761589,47.4238411 29.4741722,47.4238411 29.4741722,47.4238411 L28.2503311,47.4238411 L28.2503311,49.5655629 C28.2503311,49.7695364 28.1483444,49.8715232 27.9443709,49.8715232 C27.7403974,49.8715232 27.6384106,49.7695364 27.6384106,49.5655629 L27.6384106,44.1602649 C27.6384106,43.9562914 27.7403974,43.8543046 27.9443709,43.8543046 L29.4741722,43.8543046 C29.984106,43.8543046 30.392053,44.0582781 30.6980132,44.3642384 C31.0039735,44.6701987 31.207947,45.1801325 31.207947,45.5880795 C31.3099338,46.607947 31.0039735,47.1178808 30.2900662,47.4238411 Z M28.3523179,44.5682119 L28.3523179,46.9139073 L29.5761589,46.9139073 C29.8821192,46.9139073 30.1880795,46.8119205 30.392053,46.607947 C30.5960265,46.4039735 30.6980132,46.0980132 30.6980132,45.792053 C30.6980132,45.4860927 30.5960265,45.1801325 30.392053,44.9761589 C30.1880795,44.7721854 29.8821192,44.6701987 29.5761589,44.6701987 L28.3523179,44.6701987 L28.3523179,44.5682119 Z" id="Shape" fill-rule="nonzero"></path>
                <path d="M38.5509934,49.3615894 L40.0807947,49.3615894 L40.0807947,46.9139073 L39.4688742,46.9139073 C39.2649007,46.9139073 39.1629139,46.8119205 39.1629139,46.607947 C39.1629139,46.4039735 39.2649007,46.3019868 39.4688742,46.3019868 L40.386755,46.3019868 C40.5907285,46.3019868 40.6927152,46.4039735 40.6927152,46.607947 L40.6927152,49.5655629 C40.6927152,49.7695364 40.5907285,49.8715232 40.386755,49.8715232 L38.5509934,49.8715232 C38.1430464,49.8715232 37.7350993,49.7695364 37.5311258,49.4635762 C37.2251656,49.1576159 37.1231788,48.8516556 37.1231788,48.4437086 L37.1231788,45.4860927 C37.1231788,45.0781457 37.2251656,44.6701987 37.5311258,44.4662252 C37.8370861,44.1602649 38.1430464,44.0582781 38.5509934,44.0582781 L40.386755,44.0582781 C40.5907285,44.0582781 40.6927152,44.1602649 40.6927152,44.3642384 C40.6927152,44.5682119 40.5907285,44.6701987 40.386755,44.6701987 L38.5509934,44.6701987 C38.3470199,44.6701987 38.0410596,44.7721854 37.9390728,44.9761589 C37.7350993,45.1801325 37.6331126,45.384106 37.6331126,45.5880795 L37.6331126,48.5456954 C37.6331126,48.7496689 37.7350993,49.0556291 37.9390728,49.1576159 C38.0410596,49.2596026 38.2450331,49.3615894 38.5509934,49.3615894" id="Path"></path>
                <path d="M49.8715232,48.1377483 C49.8715232,48.6476821 49.6675497,49.0556291 49.3615894,49.3615894 C49.0556291,49.6675497 48.5456954,49.8715232 48.1377483,49.8715232 C47.6278146,49.8715232 47.2198675,49.6675497 46.9139073,49.3615894 C46.607947,49.0556291 46.4039735,48.5456954 46.4039735,48.1377483 L46.4039735,45.792053 C46.4039735,45.2821192 46.607947,44.8741722 46.9139073,44.5682119 C47.2198675,44.2622517 47.7298013,44.0582781 48.1377483,44.0582781 C48.6476821,44.0582781 49.0556291,44.2622517 49.3615894,44.5682119 C49.6675497,44.8741722 49.8715232,45.384106 49.8715232,45.792053 L49.8715232,48.1377483 Z M49.2596026,48.1377483 L49.2596026,45.792053 C49.2596026,45.4860927 49.1576159,45.1801325 48.9536424,44.9761589 C48.7496689,44.7721854 48.4437086,44.6701987 48.1377483,44.6701987 C47.8317881,44.6701987 47.5258278,44.7721854 47.3218543,44.9761589 C47.1178808,45.1801325 47.015894,45.4860927 47.015894,45.792053 L47.015894,48.1377483 C47.015894,48.4437086 47.1178808,48.7496689 47.3218543,48.9536424 C47.5258278,49.1576159 47.8317881,49.2596026 48.1377483,49.2596026 C48.4437086,49.2596026 48.7496689,49.1576159 48.9536424,48.9536424 C49.1576159,48.7496689 49.2596026,48.4437086 49.2596026,48.1377483 Z" id="Shape" fill-rule="nonzero"></path>
                <path d="M59.1523179,48.4437086 C59.1523179,48.8516556 59.0503311,49.1576159 58.7443709,49.4635762 C58.4384106,49.7695364 58.1324503,49.8715232 57.7245033,49.8715232 C57.010596,49.8715232 56.2966887,49.6675497 55.786755,49.2596026 C55.6847682,49.1576159 55.6847682,49.1576159 55.6847682,49.0556291 C55.6847682,48.9536424 55.6847682,48.9536424 55.786755,48.8516556 C55.8887417,48.7496689 55.8887417,48.7496689 55.9907285,48.7496689 C55.9907285,48.7496689 56.0927152,48.7496689 56.194702,48.8516556 C56.3986755,48.9536424 56.602649,49.0556291 57.010596,49.2596026 C57.2145695,49.3615894 57.5205298,49.3615894 57.8264901,49.3615894 C58.0304636,49.3615894 58.2344371,49.2596026 58.4384106,49.0556291 C58.6423841,48.8516556 58.7443709,48.6476821 58.7443709,48.4437086 C58.7443709,48.0357616 58.5403974,47.8317881 58.2344371,47.6278146 L56.602649,46.8119205 C56.0927152,46.5059603 55.786755,46.0980132 55.786755,45.4860927 C55.786755,45.0781457 55.8887417,44.7721854 56.194702,44.4662252 C56.5006623,44.1602649 56.8066225,44.0582781 57.2145695,44.0582781 C57.9284768,44.0582781 58.4384106,44.1602649 58.8463576,44.3642384 C58.9483444,44.4662252 59.0503311,44.5682119 59.0503311,44.6701987 C59.0503311,44.7721854 59.0503311,44.7721854 58.9483444,44.8741722 C58.8463576,44.9761589 58.8463576,44.9761589 58.7443709,44.9761589 C58.7443709,44.9761589 58.6423841,44.9761589 58.6423841,44.9761589 C58.2344371,44.7721854 57.7245033,44.6701987 57.3165563,44.6701987 C57.1125828,44.6701987 56.9086093,44.7721854 56.7046358,44.9761589 C56.5006623,45.1801325 56.3986755,45.384106 56.3986755,45.5880795 C56.3986755,45.9960265 56.602649,46.2 56.9086093,46.4039735 L58.5403974,47.2198675 C58.9483444,47.4238411 59.1523179,47.8317881 59.1523179,48.4437086" id="Path"></path>
                <path d="M69.0450331,49.6675497 C69.0450331,49.8715232 68.9430464,49.9735099 68.7390728,49.9735099 C68.6370861,49.9735099 68.5350993,49.8715232 68.4331126,49.7695364 L68.0251656,48.4437086 L65.8834437,48.4437086 L65.4754967,49.7695364 C65.4754967,49.8715232 65.3735099,49.9735099 65.1695364,49.9735099 C64.9655629,49.9735099 64.8635762,49.8715232 64.8635762,49.6675497 C64.8635762,49.6675497 64.8635762,49.5655629 64.8635762,49.5655629 L66.597351,44.2622517 C66.6993377,44.0582781 66.8013245,44.0582781 66.9033113,44.0582781 C67.005298,44.0582781 67.1072848,44.1602649 67.2092715,44.2622517 L69.0450331,49.6675497 C69.0450331,49.5655629 69.0450331,49.5655629 69.0450331,49.6675497 Z M67.005298,45.1801325 L66.0874172,47.8317881 L67.8211921,47.8317881 L67.005298,45.1801325 Z" id="Shape" fill-rule="nonzero"></path>
                <path d="M76.8980132,49.9735099 C76.7960265,49.9735099 76.6940397,49.8715232 76.592053,49.7695364 L74.8582781,44.3642384 C74.8582781,44.3642384 74.8582781,44.2622517 74.8582781,44.2622517 C74.8582781,44.0582781 74.9602649,43.9562914 75.1642384,43.9562914 C75.2662252,43.9562914 75.3682119,44.0582781 75.4701987,44.1602649 L77,48.6476821 L78.5298013,44.1602649 C78.5298013,44.0582781 78.6317881,43.9562914 78.8357616,43.9562914 C79.0397351,43.9562914 79.1417219,44.0582781 79.1417219,44.2622517 C79.1417219,44.2622517 79.1417219,44.3642384 79.1417219,44.3642384 L77.407947,49.7695364 C77.1019868,49.8715232 77,49.9735099 76.8980132,49.9735099" id="Path"></path>
                <path d="M84.6490066,49.6675497 L84.6490066,44.2622517 C84.6490066,44.0582781 84.7509934,43.9562914 84.9549669,43.9562914 L87.3006623,43.9562914 C87.5046358,43.9562914 87.6066225,44.0582781 87.6066225,44.2622517 C87.6066225,44.4662252 87.5046358,44.5682119 87.3006623,44.5682119 L85.2609272,44.5682119 L85.2609272,46.4039735 L86.7907285,46.4039735 C86.994702,46.4039735 87.0966887,46.5059603 87.0966887,46.7099338 C87.0966887,46.9139073 86.994702,47.015894 86.7907285,47.015894 L85.2609272,47.015894 L85.2609272,49.3615894 L87.3006623,49.3615894 C87.5046358,49.3615894 87.6066225,49.4635762 87.6066225,49.6675497 C87.6066225,49.8715232 87.5046358,49.9735099 87.3006623,49.9735099 L84.9549669,49.9735099 C84.7509934,49.9735099 84.6490066,49.8715232 84.6490066,49.6675497" id="Path"></path>
                <path d="M96.8874172,48.4437086 C96.8874172,48.8516556 96.7854305,49.1576159 96.4794702,49.4635762 C96.1735099,49.7695364 95.8675497,49.8715232 95.4596026,49.8715232 C94.7456954,49.8715232 94.0317881,49.6675497 93.5218543,49.2596026 C93.4198675,49.1576159 93.4198675,49.1576159 93.4198675,49.0556291 C93.4198675,48.9536424 93.4198675,48.9536424 93.5218543,48.8516556 C93.6238411,48.7496689 93.6238411,48.7496689 93.7258278,48.7496689 C93.7258278,48.7496689 93.8278146,48.7496689 93.9298013,48.8516556 C94.1337748,48.9536424 94.3377483,49.0556291 94.7456954,49.2596026 C94.9496689,49.3615894 95.2556291,49.3615894 95.5615894,49.3615894 C95.7655629,49.3615894 95.9695364,49.2596026 96.1735099,49.0556291 C96.3774834,48.8516556 96.4794702,48.6476821 96.4794702,48.4437086 C96.4794702,48.0357616 96.2754967,47.8317881 95.9695364,47.6278146 L94.3377483,46.8119205 C93.8278146,46.5059603 93.5218543,46.0980132 93.5218543,45.4860927 C93.5218543,45.0781457 93.6238411,44.7721854 93.9298013,44.4662252 C94.2357616,44.1602649 94.5417219,44.0582781 94.9496689,44.0582781 C95.6635762,44.0582781 96.1735099,44.1602649 96.581457,44.3642384 C96.6834437,44.4662252 96.7854305,44.5682119 96.7854305,44.6701987 C96.7854305,44.7721854 96.7854305,44.7721854 96.6834437,44.8741722 C96.581457,44.9761589 96.581457,44.9761589 96.4794702,44.9761589 C96.4794702,44.9761589 96.3774834,44.9761589 96.3774834,44.9761589 C95.9695364,44.7721854 95.4596026,44.6701987 95.0516556,44.6701987 C94.8476821,44.6701987 94.6437086,44.7721854 94.4397351,44.9761589 C94.2357616,45.1801325 94.1337748,45.384106 94.1337748,45.5880795 C94.1337748,45.9960265 94.3377483,46.2 94.6437086,46.4039735 L96.2754967,47.2198675 C96.6834437,47.4238411 96.8874172,47.8317881 96.8874172,48.4437086" id="Path"></path>
                <path d="M105.046358,46.9139073 L105.046358,49.5655629 C105.046358,49.7695364 104.944371,49.8715232 104.740397,49.8715232 C104.536424,49.8715232 104.434437,49.7695364 104.434437,49.5655629 L104.434437,46.9139073 L102.700662,44.3642384 C102.700662,44.2622517 102.598675,44.2622517 102.598675,44.1602649 C102.598675,43.9562914 102.700662,43.8543046 102.904636,43.8543046 C103.006623,43.8543046 103.108609,43.8543046 103.108609,43.9562914 L104.638411,46.2 L106.168212,43.9562914 C106.270199,43.8543046 106.270199,43.8543046 106.372185,43.8543046 C106.576159,43.8543046 106.678146,43.9562914 106.678146,44.1602649 C106.678146,44.2622517 106.678146,44.2622517 106.576159,44.3642384 L105.046358,46.9139073 Z" id="Path"></path>
                <path d="M116.060927,48.4437086 C116.060927,48.8516556 115.95894,49.1576159 115.65298,49.4635762 C115.34702,49.7695364 115.04106,49.8715232 114.633113,49.8715232 C113.919205,49.8715232 113.205298,49.6675497 112.695364,49.2596026 C112.593377,49.1576159 112.593377,49.1576159 112.593377,49.0556291 C112.593377,48.9536424 112.593377,48.9536424 112.695364,48.8516556 C112.797351,48.7496689 112.797351,48.7496689 112.899338,48.7496689 C112.899338,48.7496689 113.001325,48.7496689 113.103311,48.8516556 C113.307285,48.9536424 113.511258,49.0556291 113.919205,49.2596026 C114.123179,49.3615894 114.429139,49.3615894 114.735099,49.3615894 C114.939073,49.3615894 115.143046,49.2596026 115.34702,49.0556291 C115.550993,48.8516556 115.65298,48.6476821 115.65298,48.4437086 C115.65298,48.0357616 115.449007,47.8317881 115.143046,47.6278146 L113.511258,46.8119205 C113.001325,46.5059603 112.695364,46.0980132 112.695364,45.4860927 C112.695364,45.0781457 112.797351,44.7721854 113.103311,44.4662252 C113.409272,44.1602649 113.715232,44.0582781 114.123179,44.0582781 C114.837086,44.0582781 115.34702,44.1602649 115.754967,44.3642384 C115.856954,44.4662252 115.95894,44.5682119 115.95894,44.6701987 C115.95894,44.7721854 115.95894,44.7721854 115.856954,44.8741722 C115.754967,44.9761589 115.754967,44.9761589 115.65298,44.9761589 C115.65298,44.9761589 115.550993,44.9761589 115.550993,44.9761589 C115.143046,44.7721854 114.633113,44.6701987 114.225166,44.6701987 C114.021192,44.6701987 113.817219,44.7721854 113.613245,44.9761589 C113.409272,45.1801325 113.307285,45.384106 113.307285,45.5880795 C113.307285,45.9960265 113.511258,46.2 113.817219,46.4039735 L115.449007,47.2198675 C115.856954,47.4238411 116.060927,47.8317881 116.060927,48.4437086" id="Path"></path>
                <path d="M121.772185,44.2622517 C121.772185,44.0582781 121.874172,43.9562914 122.078146,43.9562914 L125.035762,43.9562914 C125.239735,43.9562914 125.341722,44.0582781 125.341722,44.2622517 C125.341722,44.4662252 125.239735,44.5682119 125.035762,44.5682119 L123.811921,44.5682119 L123.811921,49.6675497 C123.811921,49.8715232 123.709934,49.9735099 123.50596,49.9735099 C123.301987,49.9735099 123.2,49.8715232 123.2,49.6675497 L123.2,44.5682119 L121.976159,44.5682119 C121.874172,44.5682119 121.772185,44.4662252 121.772185,44.2622517" id="Path"></path>
                <path d="M131.05298,49.6675497 L131.05298,44.2622517 C131.05298,44.0582781 131.154967,43.9562914 131.35894,43.9562914 L133.704636,43.9562914 C133.908609,43.9562914 134.010596,44.0582781 134.010596,44.2622517 C134.010596,44.4662252 133.908609,44.5682119 133.704636,44.5682119 L131.664901,44.5682119 L131.664901,46.4039735 L133.194702,46.4039735 C133.398675,46.4039735 133.500662,46.5059603 133.500662,46.7099338 C133.500662,46.9139073 133.398675,47.015894 133.194702,47.015894 L131.664901,47.015894 L131.664901,49.3615894 L133.704636,49.3615894 C133.908609,49.3615894 134.010596,49.4635762 134.010596,49.6675497 C134.010596,49.8715232 133.908609,49.9735099 133.704636,49.9735099 L131.35894,49.9735099 C131.154967,49.9735099 131.05298,49.8715232 131.05298,49.6675497" id="Path"></path>
                <path d="M143.699338,43.9562914 C143.903311,43.9562914 144.005298,44.0582781 144.005298,44.2622517 L144.005298,49.6675497 C144.005298,49.8715232 143.903311,49.9735099 143.699338,49.9735099 C143.495364,49.9735099 143.393377,49.8715232 143.393377,49.6675497 L143.393377,45.2821192 L142.169536,47.1178808 C142.06755,47.2198675 141.965563,47.3218543 141.863576,47.3218543 C141.761589,47.3218543 141.659603,47.2198675 141.557616,47.1178808 L140.333775,45.2821192 L140.333775,49.6675497 C140.333775,49.8715232 140.231788,49.9735099 140.027815,49.9735099 C139.823841,49.9735099 139.721854,49.8715232 139.721854,49.6675497 L139.721854,44.2622517 C139.721854,44.0582781 139.823841,43.9562914 140.027815,43.9562914 C140.129801,43.9562914 140.231788,43.9562914 140.333775,44.0582781 L141.863576,46.4039735 L143.393377,44.0582781 C143.495364,43.9562914 143.597351,43.9562914 143.699338,43.9562914" id="Path"></path>
                <path d="M153.286093,48.4437086 C153.286093,48.8516556 153.184106,49.1576159 152.878146,49.4635762 C152.572185,49.7695364 152.266225,49.8715232 151.858278,49.8715232 C151.144371,49.8715232 150.430464,49.6675497 149.92053,49.2596026 C149.818543,49.1576159 149.818543,49.1576159 149.818543,49.0556291 C149.818543,48.9536424 149.818543,48.9536424 149.92053,48.8516556 C150.022517,48.7496689 150.022517,48.7496689 150.124503,48.7496689 C150.124503,48.7496689 150.22649,48.7496689 150.328477,48.8516556 C150.53245,48.9536424 150.736424,49.0556291 151.144371,49.2596026 C151.348344,49.3615894 151.654305,49.3615894 151.960265,49.3615894 C152.164238,49.3615894 152.368212,49.2596026 152.572185,49.0556291 C152.776159,48.8516556 152.878146,48.6476821 152.878146,48.4437086 C152.878146,48.0357616 152.674172,47.8317881 152.368212,47.6278146 L150.736424,46.8119205 C150.22649,46.5059603 149.92053,46.0980132 149.92053,45.4860927 C149.92053,45.0781457 150.022517,44.7721854 150.328477,44.4662252 C150.634437,44.1602649 150.940397,44.0582781 151.348344,44.0582781 C152.062252,44.0582781 152.572185,44.1602649 152.980132,44.3642384 C153.082119,44.4662252 153.184106,44.5682119 153.184106,44.6701987 C153.184106,44.7721854 153.184106,44.7721854 153.082119,44.8741722 C152.980132,44.9761589 152.980132,44.9761589 152.878146,44.9761589 C152.878146,44.9761589 152.776159,44.9761589 152.776159,44.9761589 C152.368212,44.7721854 151.858278,44.6701987 151.450331,44.6701987 C151.246358,44.6701987 151.042384,44.7721854 150.838411,44.9761589 C150.634437,45.1801325 150.53245,45.384106 150.53245,45.5880795 C150.53245,45.9960265 150.736424,46.2 151.042384,46.4039735 L152.674172,47.2198675 C152.980132,47.4238411 153.286093,47.8317881 153.286093,48.4437086" id="Path"></path>
            </g>
        </g>
    </g>
</svg>