<?xml version="1.0" encoding="UTF-8"?>
<svg width="151px" height="50px" viewBox="0 0 151 50" version="1.1" xmlns="http://www.w3.org/2000/svg" xmlns:xlink="http://www.w3.org/1999/xlink">
    <!-- Generator: Sketch 52.6 (67491) - http://www.bohemiancoding.com/sketch -->
    <title>ESS LOGO VECTOR</title>
    <desc>Created with Sketch.</desc>
    <g id="Page-1" stroke="none" stroke-width="1" fill="none" fill-rule="evenodd">
        <g id="ESS-sunpower" transform="translate(-1273.000000, -9189.000000)" fill="#FFFFFF">
            <g id="ESS-LOGO-VECTOR" transform="translate(1273.000000, 9189.000000)">
                <path d="M7.8,7.5 C5.7,7.5 3.9,6.8 2.5,5.3 C1.1,3.8 0.3,2 0.3,0 L45.3,0 C45.3,2.1 44.6,3.9 43.1,5.3 C41.6,6.7 39.9,7.5 37.8,7.5 L7.8,7.5 Z M7.8,22.5 C5.7,22.5 3.9,21.8 2.5,20.3 C1.1,18.8 0.3,17 0.3,15 L45.3,15 C45.3,17.1 44.6,18.9 43.1,20.3 C41.6,21.7 39.9,22.5 37.8,22.5 L7.8,22.5 Z M7.8,37.5 C5.7,37.5 3.9,36.8 2.5,35.3 C1.1,33.8 0.3,32 0.3,30 L45.3,30 C45.3,32.1 44.6,33.9 43.1,35.3 C41.6,36.7 39.9,37.5 37.8,37.5 L7.8,37.5 Z" id="Shape" fill-rule="nonzero"></path>
                <path d="M52.7,37.5 C52.7,35.4 53.4,33.7 54.9,32.2 C56.4,30.7 58.2,30 60.2,30 L90.2,30 L90.2,22.5 L52.7,22.5 L52.7,0 L97.7,0 C97.7,2.1 97,3.9 95.5,5.3 C94,6.7 92.3,7.5 90.2,7.5 L60.2,7.5 L60.2,15 L97.7,15 L97.7,37.5 L52.7,37.5 Z" id="Path"></path>
                <path d="M105.2,37.5 C105.2,35.4 105.9,33.7 107.4,32.2 C108.9,30.7 110.7,30 112.7,30 L142.7,30 L142.7,22.5 L105.2,22.5 L105.2,0 L150.2,0 C150.2,2.1 149.5,3.9 148,5.3 C146.5,6.7 144.8,7.5 142.7,7.5 L112.7,7.5 L112.7,15 L150.2,15 L150.2,37.5 L105.2,37.5 Z" id="Path"></path>
                <path d="M1.1,48.7 L1.1,43.4 C1.1,43.2 1.2,43.1 1.4,43.1 L3.7,43.1 C3.9,43.1 4,43.2 4,43.4 C4,43.6 3.9,43.7 3.7,43.7 L1.7,43.7 L1.7,45.5 L3.2,45.5 C3.4,45.5 3.5,45.6 3.5,45.8 C3.5,46 3.4,46.1 3.2,46.1 L1.7,46.1 L1.7,48.4 L3.7,48.4 C3.9,48.4 4,48.5 4,48.7 C4,48.9 3.9,49 3.7,49 L1.4,49 C1.2,49 1.1,48.9 1.1,48.7" id="Path"></path>
                <path d="M12.5,47.5 L12.5,43.4 C12.5,43.2 12.6,43.1 12.8,43.1 C13,43.1 13.1,43.2 13.1,43.4 L13.1,48.7 C13.1,48.9 13,49 12.8,49 C12.7,49 12.6,49 12.5,48.9 L10.1,44.6 L10.1,48.8 C10.1,49 10,49.1 9.8,49.1 C9.6,49.1 9.5,49 9.5,48.8 L9.5,43.5 C9.5,43.3 9.6,43.2 9.8,43.2 C9.9,43.2 10,43.3 10.1,43.4 L12.5,47.5 Z" id="Path"></path>
                <path d="M18.7,48.7 L18.7,43.4 C18.7,43.2 18.8,43.1 19,43.1 L21.3,43.1 C21.5,43.1 21.6,43.2 21.6,43.4 C21.6,43.6 21.5,43.7 21.3,43.7 L19.3,43.7 L19.3,45.5 L20.8,45.5 C21,45.5 21.1,45.6 21.1,45.8 C21.1,46 21,46.1 20.8,46.1 L19.3,46.1 L19.3,48.4 L21.3,48.4 C21.5,48.4 21.6,48.5 21.6,48.7 C21.6,48.9 21.5,49 21.3,49 L19,49 C18.8,49 18.7,48.9 18.7,48.7" id="Path"></path>
                <path d="M29.7,46.5 L30.7,48.5 C30.7,48.5 30.7,48.6 30.7,48.6 C30.7,48.7 30.7,48.7 30.6,48.8 C30.5,48.9 30.5,48.9 30.4,48.9 C30.3,48.9 30.2,48.8 30.1,48.7 L29,46.5 C29,46.5 28.9,46.5 28.9,46.5 L27.7,46.5 L27.7,48.6 C27.7,48.8 27.6,48.9 27.4,48.9 C27.2,48.9 27.1,48.8 27.1,48.6 L27.1,43.3 C27.1,43.1 27.2,43 27.4,43 L28.9,43 C29.4,43 29.8,43.2 30.1,43.5 C30.4,43.8 30.6,44.3 30.6,44.7 C30.7,45.7 30.4,46.2 29.7,46.5 Z M27.8,43.7 L27.8,46 L29,46 C29.3,46 29.6,45.9 29.8,45.7 C30,45.5 30.1,45.2 30.1,44.9 C30.1,44.6 30,44.3 29.8,44.1 C29.6,43.9 29.3,43.8 29,43.8 L27.8,43.8 L27.8,43.7 Z" id="Shape" fill-rule="nonzero"></path>
                <path d="M37.8,48.4 L39.3,48.4 L39.3,46 L38.7,46 C38.5,46 38.4,45.9 38.4,45.7 C38.4,45.5 38.5,45.4 38.7,45.4 L39.6,45.4 C39.8,45.4 39.9,45.5 39.9,45.7 L39.9,48.6 C39.9,48.8 39.8,48.9 39.6,48.9 L37.8,48.9 C37.4,48.9 37,48.8 36.8,48.5 C36.5,48.2 36.4,47.9 36.4,47.5 L36.4,44.6 C36.4,44.2 36.5,43.8 36.8,43.6 C37.1,43.3 37.4,43.2 37.8,43.2 L39.6,43.2 C39.8,43.2 39.9,43.3 39.9,43.5 C39.9,43.7 39.8,43.8 39.6,43.8 L37.8,43.8 C37.6,43.8 37.3,43.9 37.2,44.1 C37,44.3 36.9,44.5 36.9,44.7 L36.9,47.6 C36.9,47.8 37,48.1 37.2,48.2 C37.3,48.3 37.5,48.4 37.8,48.4" id="Path"></path>
                <path d="M48.9,47.2 C48.9,47.7 48.7,48.1 48.4,48.4 C48.1,48.7 47.6,48.9 47.2,48.9 C46.7,48.9 46.3,48.7 46,48.4 C45.7,48.1 45.5,47.6 45.5,47.2 L45.5,44.9 C45.5,44.4 45.7,44 46,43.7 C46.3,43.4 46.8,43.2 47.2,43.2 C47.7,43.2 48.1,43.4 48.4,43.7 C48.7,44 48.9,44.5 48.9,44.9 L48.9,47.2 Z M48.3,47.2 L48.3,44.9 C48.3,44.6 48.2,44.3 48,44.1 C47.8,43.9 47.5,43.8 47.2,43.8 C46.9,43.8 46.6,43.9 46.4,44.1 C46.2,44.3 46.1,44.6 46.1,44.9 L46.1,47.2 C46.1,47.5 46.2,47.8 46.4,48 C46.6,48.2 46.9,48.3 47.2,48.3 C47.5,48.3 47.8,48.2 48,48 C48.2,47.8 48.3,47.5 48.3,47.2 Z" id="Shape" fill-rule="nonzero"></path>
                <path d="M58,47.5 C58,47.9 57.9,48.2 57.6,48.5 C57.3,48.8 57,48.9 56.6,48.9 C55.9,48.9 55.2,48.7 54.7,48.3 C54.6,48.2 54.6,48.2 54.6,48.1 C54.6,48 54.6,48 54.7,47.9 C54.8,47.8 54.8,47.8 54.9,47.8 C54.9,47.8 55,47.8 55.1,47.9 C55.3,48 55.5,48.1 55.9,48.3 C56.1,48.4 56.4,48.4 56.7,48.4 C56.9,48.4 57.1,48.3 57.3,48.1 C57.5,47.9 57.6,47.7 57.6,47.5 C57.6,47.1 57.4,46.9 57.1,46.7 L55.5,45.9 C55,45.6 54.7,45.2 54.7,44.6 C54.7,44.2 54.8,43.9 55.1,43.6 C55.4,43.3 55.7,43.2 56.1,43.2 C56.8,43.2 57.3,43.3 57.7,43.5 C57.8,43.6 57.9,43.7 57.9,43.8 C57.9,43.9 57.9,43.9 57.8,44 C57.7,44.1 57.7,44.1 57.6,44.1 C57.6,44.1 57.5,44.1 57.5,44.1 C57.1,43.9 56.6,43.8 56.2,43.8 C56,43.8 55.8,43.9 55.6,44.1 C55.4,44.3 55.3,44.5 55.3,44.7 C55.3,45.1 55.5,45.3 55.8,45.5 L57.4,46.3 C57.8,46.5 58,46.9 58,47.5" id="Path"></path>
                <path d="M67.7,48.7 C67.7,48.9 67.6,49 67.4,49 C67.3,49 67.2,48.9 67.1,48.8 L66.7,47.5 L64.6,47.5 L64.2,48.8 C64.2,48.9 64.1,49 63.9,49 C63.7,49 63.6,48.9 63.6,48.7 C63.6,48.7 63.6,48.6 63.6,48.6 L65.3,43.4 C65.4,43.2 65.5,43.2 65.6,43.2 C65.7,43.2 65.8,43.3 65.9,43.4 L67.7,48.7 C67.7,48.6 67.7,48.6 67.7,48.7 Z M65.7,44.3 L64.8,46.9 L66.5,46.9 L65.7,44.3 Z" id="Shape" fill-rule="nonzero"></path>
                <path d="M75.4,49 C75.3,49 75.2,48.9 75.1,48.8 L73.4,43.5 C73.4,43.5 73.4,43.4 73.4,43.4 C73.4,43.2 73.5,43.1 73.7,43.1 C73.8,43.1 73.9,43.2 74,43.3 L75.5,47.7 L77,43.3 C77,43.2 77.1,43.1 77.3,43.1 C77.5,43.1 77.6,43.2 77.6,43.4 C77.6,43.4 77.6,43.5 77.6,43.5 L75.9,48.8 C75.6,48.9 75.5,49 75.4,49" id="Path"></path>
                <path d="M83,48.7 L83,43.4 C83,43.2 83.1,43.1 83.3,43.1 L85.6,43.1 C85.8,43.1 85.9,43.2 85.9,43.4 C85.9,43.6 85.8,43.7 85.6,43.7 L83.6,43.7 L83.6,45.5 L85.1,45.5 C85.3,45.5 85.4,45.6 85.4,45.8 C85.4,46 85.3,46.1 85.1,46.1 L83.6,46.1 L83.6,48.4 L85.6,48.4 C85.8,48.4 85.9,48.5 85.9,48.7 C85.9,48.9 85.8,49 85.6,49 L83.3,49 C83.1,49 83,48.9 83,48.7" id="Path"></path>
                <path d="M95,47.5 C95,47.9 94.9,48.2 94.6,48.5 C94.3,48.8 94,48.9 93.6,48.9 C92.9,48.9 92.2,48.7 91.7,48.3 C91.6,48.2 91.6,48.2 91.6,48.1 C91.6,48 91.6,48 91.7,47.9 C91.8,47.8 91.8,47.8 91.9,47.8 C91.9,47.8 92,47.8 92.1,47.9 C92.3,48 92.5,48.1 92.9,48.3 C93.1,48.4 93.4,48.4 93.7,48.4 C93.9,48.4 94.1,48.3 94.3,48.1 C94.5,47.9 94.6,47.7 94.6,47.5 C94.6,47.1 94.4,46.9 94.1,46.7 L92.5,45.9 C92,45.6 91.7,45.2 91.7,44.6 C91.7,44.2 91.8,43.9 92.1,43.6 C92.4,43.3 92.7,43.2 93.1,43.2 C93.8,43.2 94.3,43.3 94.7,43.5 C94.8,43.6 94.9,43.7 94.9,43.8 C94.9,43.9 94.9,43.9 94.8,44 C94.7,44.1 94.7,44.1 94.6,44.1 C94.6,44.1 94.5,44.1 94.5,44.1 C94.1,43.9 93.6,43.8 93.2,43.8 C93,43.8 92.8,43.9 92.6,44.1 C92.4,44.3 92.3,44.5 92.3,44.7 C92.3,45.1 92.5,45.3 92.8,45.5 L94.4,46.3 C94.8,46.5 95,46.9 95,47.5" id="Path"></path>
                <path d="M103,46 L103,48.6 C103,48.8 102.9,48.9 102.7,48.9 C102.5,48.9 102.4,48.8 102.4,48.6 L102.4,46 L100.7,43.5 C100.7,43.4 100.6,43.4 100.6,43.3 C100.6,43.1 100.7,43 100.9,43 C101,43 101.1,43 101.1,43.1 L102.6,45.3 L104.1,43.1 C104.2,43 104.2,43 104.3,43 C104.5,43 104.6,43.1 104.6,43.3 C104.6,43.4 104.6,43.4 104.5,43.5 L103,46 Z" id="Path"></path>
                <path d="M113.8,47.5 C113.8,47.9 113.7,48.2 113.4,48.5 C113.1,48.8 112.8,48.9 112.4,48.9 C111.7,48.9 111,48.7 110.5,48.3 C110.4,48.2 110.4,48.2 110.4,48.1 C110.4,48 110.4,48 110.5,47.9 C110.6,47.8 110.6,47.8 110.7,47.8 C110.7,47.8 110.8,47.8 110.9,47.9 C111.1,48 111.3,48.1 111.7,48.3 C111.9,48.4 112.2,48.4 112.5,48.4 C112.7,48.4 112.9,48.3 113.1,48.1 C113.3,47.9 113.4,47.7 113.4,47.5 C113.4,47.1 113.2,46.9 112.9,46.7 L111.3,45.9 C110.8,45.6 110.5,45.2 110.5,44.6 C110.5,44.2 110.6,43.9 110.9,43.6 C111.2,43.3 111.5,43.2 111.9,43.2 C112.6,43.2 113.1,43.3 113.5,43.5 C113.6,43.6 113.7,43.7 113.7,43.8 C113.7,43.9 113.7,43.9 113.6,44 C113.5,44.1 113.5,44.1 113.4,44.1 C113.4,44.1 113.3,44.1 113.3,44.1 C112.9,43.9 112.4,43.8 112,43.8 C111.8,43.8 111.6,43.9 111.4,44.1 C111.2,44.3 111.1,44.5 111.1,44.7 C111.1,45.1 111.3,45.3 111.6,45.5 L113.2,46.3 C113.6,46.5 113.8,46.9 113.8,47.5" id="Path"></path>
                <path d="M119.4,43.4 C119.4,43.2 119.5,43.1 119.7,43.1 L122.6,43.1 C122.8,43.1 122.9,43.2 122.9,43.4 C122.9,43.6 122.8,43.7 122.6,43.7 L121.4,43.7 L121.4,48.7 C121.4,48.9 121.3,49 121.1,49 C120.9,49 120.8,48.9 120.8,48.7 L120.8,43.7 L119.6,43.7 C119.5,43.7 119.4,43.6 119.4,43.4" id="Path"></path>
                <path d="M128.5,48.7 L128.5,43.4 C128.5,43.2 128.6,43.1 128.8,43.1 L131.1,43.1 C131.3,43.1 131.4,43.2 131.4,43.4 C131.4,43.6 131.3,43.7 131.1,43.7 L129.1,43.7 L129.1,45.5 L130.6,45.5 C130.8,45.5 130.9,45.6 130.9,45.8 C130.9,46 130.8,46.1 130.6,46.1 L129.1,46.1 L129.1,48.4 L131.1,48.4 C131.3,48.4 131.4,48.5 131.4,48.7 C131.4,48.9 131.3,49 131.1,49 L128.8,49 C128.6,49 128.5,48.9 128.5,48.7" id="Path"></path>
                <path d="M140.9,43.1 C141.1,43.1 141.2,43.2 141.2,43.4 L141.2,48.7 C141.2,48.9 141.1,49 140.9,49 C140.7,49 140.6,48.9 140.6,48.7 L140.6,44.4 L139.4,46.2 C139.3,46.3 139.2,46.4 139.1,46.4 C139,46.4 138.9,46.3 138.8,46.2 L137.6,44.4 L137.6,48.7 C137.6,48.9 137.5,49 137.3,49 C137.1,49 137,48.9 137,48.7 L137,43.4 C137,43.2 137.1,43.1 137.3,43.1 C137.4,43.1 137.5,43.1 137.6,43.2 L139.1,45.5 L140.6,43.2 C140.7,43.1 140.8,43.1 140.9,43.1" id="Path"></path>
                <path d="M150.3,47.5 C150.3,47.9 150.2,48.2 149.9,48.5 C149.6,48.8 149.3,48.9 148.9,48.9 C148.2,48.9 147.5,48.7 147,48.3 C146.9,48.2 146.9,48.2 146.9,48.1 C146.9,48 146.9,48 147,47.9 C147.1,47.8 147.1,47.8 147.2,47.8 C147.2,47.8 147.3,47.8 147.4,47.9 C147.6,48 147.8,48.1 148.2,48.3 C148.4,48.4 148.7,48.4 149,48.4 C149.2,48.4 149.4,48.3 149.6,48.1 C149.8,47.9 149.9,47.7 149.9,47.5 C149.9,47.1 149.7,46.9 149.4,46.7 L147.8,45.9 C147.3,45.6 147,45.2 147,44.6 C147,44.2 147.1,43.9 147.4,43.6 C147.7,43.3 148,43.2 148.4,43.2 C149.1,43.2 149.6,43.3 150,43.5 C150.1,43.6 150.2,43.7 150.2,43.8 C150.2,43.9 150.2,43.9 150.1,44 C150,44.1 150,44.1 149.9,44.1 C149.9,44.1 149.8,44.1 149.8,44.1 C149.4,43.9 148.9,43.8 148.5,43.8 C148.3,43.8 148.1,43.9 147.9,44.1 C147.7,44.3 147.6,44.5 147.6,44.7 C147.6,45.1 147.8,45.3 148.1,45.5 L149.7,46.3 C150,46.5 150.3,46.9 150.3,47.5" id="Path"></path>
            </g>
        </g>
    </g>
</svg>