<?xml version="1.0" encoding="UTF-8"?>
<svg width="73px" height="20px" viewBox="0 0 73 20" version="1.1" xmlns="http://www.w3.org/2000/svg" xmlns:xlink="http://www.w3.org/1999/xlink">
    <!-- Generator: Sketch 52.6 (67491) - http://www.bohemiancoding.com/sketch -->
    <title>Group 8</title>
    <desc>Created with Sketch.</desc>
    <g id="Page-1" stroke="none" stroke-width="1" fill="none" fill-rule="evenodd">
        <g id="ESS-(1)" transform="translate(-24.000000, -1096.000000)">
            <g id="Group-8" transform="translate(24.000000, 1096.000000)">
                <g id="ESS-LOGO-VECTOR-black" transform="translate(1.212121, 1.818182)" fill="#000000">
                    <path d="M3.70860927,3.56597045 C2.71013754,3.56597045 1.85430463,3.23314655 1.18865682,2.51995245 C0.523008998,1.80675836 0.142638818,0.950925455 0.142638818,0 L21.5384615,0 C21.5384615,0.998471725 21.2056376,1.85430463 20.4924435,2.51995245 C19.7792495,3.18560027 18.9709628,3.56597045 17.9724911,3.56597045 L3.70860927,3.56597045 Z M3.70860927,10.6979114 C2.71013754,10.6979114 1.85430463,10.3650875 1.18865682,9.65189338 C0.523008998,8.93869925 0.142638818,8.08286634 0.142638818,7.13194089 L21.5384615,7.13194089 C21.5384615,8.13041263 21.2056376,8.98624555 20.4924435,9.65189338 C19.7792495,10.3175412 18.9709628,10.6979114 17.9724911,10.6979114 L3.70860927,10.6979114 Z M3.70860927,17.8298523 C2.71013754,17.8298523 1.85430463,17.4970283 1.18865682,16.7838343 C0.523008998,16.0706402 0.142638818,15.2148073 0.142638818,14.2638818 L21.5384615,14.2638818 C21.5384615,15.2623535 21.2056376,16.1181864 20.4924435,16.7838343 C19.7792495,17.4494821 18.9709628,17.8298523 17.9724911,17.8298523 L3.70860927,17.8298523 Z" id="Shape" fill-rule="nonzero"></path>
                    <path d="M25.0568857,17.8298523 C25.0568857,16.8313806 25.3897097,16.0230939 26.1029037,15.3098998 C26.8160978,14.5967057 27.6719307,14.2638818 28.6228562,14.2638818 L42.886738,14.2638818 L42.886738,10.6979114 L25.0568857,10.6979114 L25.0568857,0 L46.4527084,0 C46.4527084,0.998471725 46.1198845,1.85430463 45.4066904,2.51995245 C44.6934964,3.18560027 43.8852097,3.56597045 42.886738,3.56597045 L28.6228562,3.56597045 L28.6228562,7.13194089 L46.4527084,7.13194089 L46.4527084,17.8298523 L25.0568857,17.8298523 Z" id="Path"></path>
                    <path d="M50.0186788,17.8298523 C50.0186788,16.8313806 50.351503,16.0230939 51.064697,15.3098998 C51.7778909,14.5967057 52.633724,14.2638818 53.5846494,14.2638818 L67.848531,14.2638818 L67.848531,10.6979114 L50.0186788,10.6979114 L50.0186788,0 L71.4145016,0 C71.4145016,0.998471725 71.0816779,1.85430463 70.3684834,2.51995245 C69.6552895,3.18560027 68.8470028,3.56597045 67.848531,3.56597045 L53.5846494,3.56597045 L53.5846494,7.13194089 L71.4145016,7.13194089 L71.4145016,17.8298523 L50.0186788,17.8298523 Z" id="Path"></path>
                </g>
                <g id="ESS-LOGO-VECTOR-black" fill="#FFFFFF">
                    <path d="M3.70860927,3.56597045 C2.71013754,3.56597045 1.85430463,3.23314655 1.18865682,2.51995245 C0.523008998,1.80675836 0.142638818,0.950925455 0.142638818,0 L21.5384615,0 C21.5384615,0.998471725 21.2056376,1.85430463 20.4924435,2.51995245 C19.7792495,3.18560027 18.9709628,3.56597045 17.9724911,3.56597045 L3.70860927,3.56597045 Z M3.70860927,10.6979114 C2.71013754,10.6979114 1.85430463,10.3650875 1.18865682,9.65189338 C0.523008998,8.93869925 0.142638818,8.08286634 0.142638818,7.13194089 L21.5384615,7.13194089 C21.5384615,8.13041263 21.2056376,8.98624555 20.4924435,9.65189338 C19.7792495,10.3175412 18.9709628,10.6979114 17.9724911,10.6979114 L3.70860927,10.6979114 Z M3.70860927,17.8298523 C2.71013754,17.8298523 1.85430463,17.4970283 1.18865682,16.7838343 C0.523008998,16.0706402 0.142638818,15.2148073 0.142638818,14.2638818 L21.5384615,14.2638818 C21.5384615,15.2623535 21.2056376,16.1181864 20.4924435,16.7838343 C19.7792495,17.4494821 18.9709628,17.8298523 17.9724911,17.8298523 L3.70860927,17.8298523 Z" id="Shape" fill-rule="nonzero"></path>
                    <path d="M25.0568857,17.8298523 C25.0568857,16.8313806 25.3897097,16.0230939 26.1029037,15.3098998 C26.8160978,14.5967057 27.6719307,14.2638818 28.6228562,14.2638818 L42.886738,14.2638818 L42.886738,10.6979114 L25.0568857,10.6979114 L25.0568857,0 L46.4527084,0 C46.4527084,0.998471725 46.1198845,1.85430463 45.4066904,2.51995245 C44.6934964,3.18560027 43.8852097,3.56597045 42.886738,3.56597045 L28.6228562,3.56597045 L28.6228562,7.13194089 L46.4527084,7.13194089 L46.4527084,17.8298523 L25.0568857,17.8298523 Z" id="Path"></path>
                    <path d="M50.0186788,17.8298523 C50.0186788,16.8313806 50.351503,16.0230939 51.064697,15.3098998 C51.7778909,14.5967057 52.633724,14.2638818 53.5846494,14.2638818 L67.848531,14.2638818 L67.848531,10.6979114 L50.0186788,10.6979114 L50.0186788,0 L71.4145016,0 C71.4145016,0.998471725 71.0816779,1.85430463 70.3684834,2.51995245 C69.6552895,3.18560027 68.8470028,3.56597045 67.848531,3.56597045 L53.5846494,3.56597045 L53.5846494,7.13194089 L71.4145016,7.13194089 L71.4145016,17.8298523 L50.0186788,17.8298523 Z" id="Path"></path>
                </g>
            </g>
        </g>
    </g>
</svg>