<?xml version="1.0" encoding="UTF-8"?>
<svg width="37px" height="20px" viewBox="0 0 37 20" version="1.1" xmlns="http://www.w3.org/2000/svg" xmlns:xlink="http://www.w3.org/1999/xlink">
    <!-- Generator: Sketch 52.6 (67491) - http://www.bohemiancoding.com/sketch -->
    <title>eye (2)</title>
    <desc>Created with Sketch.</desc>
    <g id="Desktop" stroke="none" stroke-width="1" fill="none" fill-rule="evenodd">
        <g id="Bulanov_lead2" transform="translate(-941.000000, -1491.000000)" fill="#FFFFFF">
            <g id="eye-(2)" transform="translate(941.000000, 1491.000000)">
                <path d="M18.4321713,19.9424793 C14.2867258,19.9424793 9.82520962,18.3358678 5.52998497,15.2961983 C2.31907438,13.0239669 0.337253193,10.7728099 0.254441022,10.6779339 C-0.0848136739,10.2897521 -0.0848136739,9.71355372 0.254441022,9.32528926 C0.337253193,9.23057851 2.31899098,6.9792562 5.52998497,4.70702479 C9.82529301,1.66760331 14.2868092,0.0608264463 18.4321713,0.0608264463 C22.5776168,0.0608264463 27.0392164,1.66752066 31.3343576,4.70702479 C34.5452682,6.9792562 36.5270894,9.23049587 36.6099016,9.32528926 C36.9491563,9.71347107 36.9491563,10.2896694 36.6099016,10.6779339 C36.5270894,10.7726446 34.5453516,13.0239669 31.3343576,15.2961983 C27.0392164,18.3357851 22.5777002,19.9424793 18.4321713,19.9424793 Z M2.47168896,10.0017355 C3.27312397,10.8115702 4.78567618,12.2356198 6.78275883,13.6439669 C9.52064763,15.5746281 13.7641668,17.8763636 18.4321713,17.8763636 C23.1001758,17.8763636 27.3437784,15.5746281 30.0815838,13.6439669 C32.0784162,12.2358678 33.5910518,10.8116529 34.3926536,10.0017355 C33.591302,9.19190083 32.0786664,7.76785124 30.0815838,6.35950413 C27.3437784,4.42876033 23.1001758,2.12710744 18.4321713,2.12710744 C13.7641668,2.12710744 9.52064763,4.42876033 6.78275883,6.35950413 C4.78592637,7.76760331 3.27329076,9.19165289 2.47168896,10.0017355 Z" id="Shape" fill-rule="nonzero"></path>
                <path d="M18.4321713,16.4066942 C14.8683291,16.4066942 11.9689857,13.5333884 11.9689857,10.0017355 C11.9689857,6.47008264 14.8683291,3.59677686 18.4321713,3.59677686 C19.9995147,3.59677686 21.5114831,4.15991736 22.6893674,5.18256198 C23.1224425,5.5585124 23.1659752,6.21115702 22.7866071,6.64033058 C22.4072389,7.06950413 21.7485778,7.11256198 21.315586,6.73669421 C20.5179872,6.04421488 19.493885,5.66289256 18.4320879,5.66289256 C16.0178588,5.66289256 14.0538009,7.60933884 14.0538009,10.0017355 C14.0538009,12.3941322 16.0178588,14.3405785 18.4320879,14.3405785 C20.8464005,14.3405785 22.8103749,12.3941322 22.8103749,10.0017355 C22.8103749,9.43123967 23.277142,8.96867769 23.8528242,8.96867769 C24.4285064,8.96867769 24.8952735,9.43123967 24.8952735,10.0017355 C24.8954403,13.5333884 21.9960135,16.4066942 18.4321713,16.4066942 Z" id="Path"></path>
                <path d="M18.4321713,12.0678512 C17.2825582,12.0678512 16.3472727,11.1409917 16.3472727,10.0017355 C16.3472727,8.86247934 17.2825582,7.93561983 18.4321713,7.93561983 C19.5818678,7.93561983 20.5170699,8.86247934 20.5170699,10.0017355 C20.5170699,11.1409917 19.5818678,12.0678512 18.4321713,12.0678512 Z" id="Path"></path>
            </g>
        </g>
    </g>
</svg>