<?xml version="1.0" encoding="UTF-8"?>
<svg width="94px" height="35px" viewBox="0 0 94 35" version="1.1" xmlns="http://www.w3.org/2000/svg" xmlns:xlink="http://www.w3.org/1999/xlink">
    <!-- Generator: Sketch 52.6 (67491) - http://www.bohemiancoding.com/sketch -->
    <title>ford-logo-flat</title>
    <desc>Created with Sketch.</desc>
    <g id="Page-1" stroke="none" stroke-width="1" fill="none" fill-rule="evenodd">
        <g id="ESS-o-nas" transform="translate(-1505.000000, -3481.000000)" fill="#FFFFFF">
            <g id="ford-logo-flat" transform="translate(1505.000000, 3481.000000)">
                <path d="M46.641791,2.86940299 C22.8246269,2.86940299 3.52238806,9.45149254 3.52238806,17.5074627 C3.52238806,25.5597015 22.8246269,32.141791 46.641791,32.141791 C70.4589552,32.141791 89.761194,25.5597015 89.761194,17.5074627 C89.761194,9.45522388 70.4552239,2.86940299 46.641791,2.86940299 Z M24.4925373,27.1268657 C21.9477612,27.141791 19.7014925,25.5708955 19.4440299,22.8432836 C19.2947761,21.4253731 19.7052239,20.0037313 20.5820896,18.880597 C21.3395522,17.891791 22.6268657,17.0746269 23.7126866,16.8731343 C24.0634328,16.8059701 24.5373134,16.8470149 24.7350746,17.0820896 C25.0447761,17.4402985 24.9552239,17.8320896 24.6492537,17.9925373 C23.8208955,18.4141791 22.8208955,19.1380597 22.3283582,20.1268657 C21.8656716,20.9850746 21.9141791,22.0261194 22.4589552,22.8358209 C23.4813433,24.380597 26.3358209,24.4216418 28.9850746,21.9589552 C29.6455224,21.3544776 30.2276119,20.7723881 30.8246269,20.0895522 C31.9925373,18.7537313 32.380597,18.2649254 33.9328358,16.1119403 C33.9477612,16.0858209 33.9589552,16.0522388 33.9477612,16.0410448 C33.9365672,16.011194 33.9141791,16.0074627 33.869403,16 C32.8358209,16.0335821 31.9291045,16.3432836 31.0522388,16.9962687 C30.8022388,17.1791045 30.4365672,17.1529851 30.2761194,16.9141791 C30.1007463,16.6380597 30.2276119,16.2798507 30.5186567,16.0783582 C31.9291045,15.0932836 33.4738806,14.9179104 35.0485075,14.6529851 C35.0485075,14.6529851 35.1567164,14.6529851 35.25,14.5410448 C35.8955224,13.7052239 36.3843284,12.9589552 37.0746269,12.1231343 C37.7723881,11.2723881 38.6679104,10.488806 39.3507463,9.89925373 C40.3097015,9.07835821 40.9253731,8.80223881 41.5447761,8.45895522 C41.7126866,8.37686567 41.5223881,8.27238806 41.4738806,8.27238806 C37.988806,7.61567164 34.3731343,6.76865672 30.9141791,8.05223881 C28.5186567,8.94402985 27.4664179,10.8470149 27.9738806,12.1156716 C28.3320896,13.0186567 29.5186567,13.1604478 30.6268657,12.6156716 C31.5447761,12.1679104 32.3992537,11.4402985 33.0037313,10.5037313 C33.3358209,9.98134328 34.0522388,10.358209 33.6679104,11.261194 C32.6529851,13.6380597 30.7238806,15.5261194 28.369403,15.6044776 C26.3619403,15.6716418 25.0708955,14.1940299 25.0746269,12.3768657 C25.0820896,8.78731343 29.0783582,6.42910448 33.2723881,6.07462687 C38.3283582,5.65671642 43.119403,7.00373134 48.1380597,7.61567164 C51.9850746,8.07835821 55.6716418,8.08955224 59.5410448,7.19776119 C60,7.10074627 60.3171642,7.39552239 60.2910448,7.85447761 C60.25,8.52238806 59.7313433,9.1641791 58.4589552,9.85820896 C57.011194,10.6567164 55.4962687,10.8955224 53.9104478,10.9104478 C50.0895522,10.9440299 46.5261194,9.45149254 42.8358209,8.64925373 C42.8395522,8.81343284 42.8843284,9.00373134 42.7537313,9.10820896 C40.7089552,10.6119403 38.8619403,12.141791 37.6231343,14.2910448 C37.5820896,14.3395522 37.608209,14.391791 37.6791045,14.3843284 C38.7537313,14.3283582 39.7201493,14.3022388 40.7238806,14.2164179 C40.8955224,14.2052239 40.9029851,14.1604478 40.891791,14.0335821 C40.7835821,13.2276119 41.0708955,12.4216418 41.6679104,11.869403 C42.3358209,11.2723881 43.1716418,11.2014925 43.7238806,11.6343284 C44.3507463,12.1231343 44.2947761,13.0074627 43.9514925,13.6641791 C43.641791,14.25 43.1044776,14.6865672 42.4664179,14.869403 C42.4664179,14.869403 42.3507463,14.8955224 42.3656716,15 C42.3880597,15.1679104 43.1455224,15.5895522 43.2089552,15.7014925 C43.2723881,15.8097015 43.238806,15.9738806 43.1268657,16.0970149 C43.0373134,16.2052239 42.9029851,16.2723881 42.761194,16.2723881 C42.630597,16.2723881 42.5522388,16.2276119 42.3843284,16.1343284 C41.9850746,15.9216418 41.6343284,15.6343284 41.3395522,15.2910448 C41.238806,15.1716418 41.1902985,15.1641791 40.9514925,15.1828358 C39.8656716,15.2462687 38.1716418,15.4067164 37.0298507,15.5485075 C36.75,15.5820896 36.7089552,15.6343284 36.6529851,15.7313433 C34.8246269,18.7425373 32.8731343,21.9925373 30.7276119,24.1716418 C28.4328358,26.4962687 26.5223881,27.108209 24.4925373,27.1268657 Z M74.0410448,12.4850746 L74.0410448,12.4813433 C73.6828358,13.0932836 66.8544776,23.4962687 66.4216418,24.5671642 C66.2835821,24.9141791 66.2686567,25.1716418 66.4104478,25.358209 C66.7686567,25.8395522 67.5634328,25.5597015 68.0634328,25.2126866 C69.5410448,24.1902985 70.5671642,22.9589552 71.7052239,21.8768657 C71.7686567,21.8320896 71.880597,21.8097015 71.9552239,21.8768657 C72.1231343,22.0335821 72.369403,22.2350746 72.5335821,22.4104478 C72.6156716,22.4962687 72.5820896,22.5820896 72.5410448,22.630597 C71.4328358,23.9850746 70.2052239,25.2686567 69.0298507,26.1716418 C67.2014925,27.5858209 65.380597,27.9477612 64.4776119,27.0447761 C64.1455224,26.7014925 63.9589552,26.2238806 63.9365672,25.8134328 C63.9253731,25.5932836 63.8097015,25.5783582 63.7089552,25.6828358 C62.6268657,26.75 60.7537313,27.9291045 59.0522388,27.0932836 C57.6268657,26.3843284 57.2947761,24.6865672 57.5634328,23.2537313 C57.5708955,23.2238806 57.5373134,23.0186567 57.3619403,23.141791 C57.0708955,23.3544776 56.6791045,23.5895522 56.1940299,23.7686567 C55.75,23.9738806 55.2649254,24.0746269 54.7761194,24.0708955 C54.0597015,24.0783582 53.391791,23.7014925 53.0223881,23.0858209 C52.7723881,22.7126866 52.6753731,22.1529851 52.6455224,21.7425373 C52.6455224,21.6977612 52.5858209,21.6119403 52.5186567,21.7201493 C51.3544776,23.4925373 50.2686567,25.2126866 49.119403,27.0186567 C49.0597015,27.1007463 49.0074627,27.1567164 48.8843284,27.1641791 L46.608209,27.1641791 C46.4664179,27.1641791 46.3992537,27.0559701 46.4738806,26.9216418 C46.8843284,26.1380597 49.0932836,22.9179104 50.5970149,20.1716418 C51.011194,19.4179104 50.9253731,19.0298507 50.6679104,18.8619403 C50.3470149,18.6529851 49.7089552,18.9664179 49.1641791,19.380597 C47.6902985,20.4962687 46.4514925,22.2350746 45.8283582,23.0149254 C45.4552239,23.4701493 45.108209,24.1492537 44.141791,25.1940299 C42.6231343,26.8470149 40.608209,27.7947761 38.6679104,27.1380597 C37.630597,26.7835821 36.8358209,25.9402985 36.5485075,24.880597 C36.488806,24.6791045 36.3731343,24.6231343 36.2649254,24.7537313 C35.9514925,25.1455224 35.3097015,25.7201493 34.7761194,26.0858209 C34.7164179,26.1268657 34.5708955,26.2164179 34.4477612,26.1529851 C34.2164179,25.9253731 34.0149254,25.6641791 33.858209,25.3768657 C33.8097015,25.2723881 33.8358209,25.1455224 33.9216418,25.0671642 C34.6902985,24.3955224 35.108209,24.011194 35.4402985,23.5932836 C35.7238806,23.2201493 35.9477612,22.8059701 36.1044776,22.3656716 C36.5671642,21.1902985 37.630597,18.9962687 39.7462687,17.858209 C40.5559701,17.4291045 41.3731343,17.1156716 42.2835821,17.011194 C42.6716418,16.9701493 42.9925373,17.0149254 43.108209,17.3246269 L43.3283582,17.9328358 C43.369403,18.0597015 43.3358209,18.1529851 43.1902985,18.2089552 C41.9440299,18.6828358 40.6902985,19.4179104 39.8246269,20.5783582 C38.8432836,21.8955224 38.5820896,23.4776119 39.2350746,24.3880597 C39.7164179,25.0522388 40.4925373,25.1679104 41.2350746,24.9291045 C42.3656716,24.5746269 43.3246269,23.5186567 43.8208955,22.3507463 C44.358209,21.0746269 44.4477612,19.5634328 44.0485075,18.238806 C43.9813433,18.011194 44.0410448,17.8358209 44.1902985,17.7089552 C44.4925373,17.4626866 44.9029851,17.2761194 45.0261194,17.2126866 C45.2723881,17.0820896 45.5783582,17.1529851 45.7350746,17.3843284 C46.1679104,18.0970149 46.3955224,18.9141791 46.391791,19.75 C46.4216418,19.9365672 46.5,19.9402985 46.5895522,19.8432836 C47.3283582,19.0597015 48.0149254,18.2201493 48.8022388,17.5895522 C49.5186567,17.0186567 50.4402985,16.5522388 51.3022388,16.5708955 C52.4104478,16.5970149 52.9664179,17.3507463 52.9291045,18.6940299 C52.9253731,18.8619403 53.0447761,18.8507463 53.130597,18.7350746 C53.3880597,18.3470149 53.7014925,18 54.0634328,17.7089552 C54.8320896,17.0746269 55.619403,16.7910448 56.4365672,16.8507463 C56.4813433,16.8544776 56.5223881,16.858209 56.5671642,16.8656716 C57.5485075,17.0074627 58.2276119,17.9141791 58.0895522,18.8955224 C58.0074627,19.5708955 57.5970149,20.1604478 56.9962687,20.4738806 C56.4664179,20.7350746 55.8544776,20.6902985 55.4216418,20.3059701 C55.0820896,19.9850746 54.9365672,19.5074627 55.0447761,19.0559701 C55.0671642,18.9589552 54.9402985,18.869403 54.8358209,18.9776119 C53.8470149,20.0037313 53.7761194,21.3358209 54.4179104,21.9328358 C55.130597,22.5932836 56.1940299,22.1492537 56.9738806,21.6455224 C58.3992537,20.7126866 59.5037313,19.4514925 60.7798507,18.4776119 C61.630597,17.8358209 62.5932836,17.2649254 63.6791045,17.1119403 C64.2761194,17.0223881 64.8843284,17.0932836 65.4440299,17.3208955 C66.2201493,17.6343284 66.7126866,18.2873134 66.7761194,18.8544776 C66.7873134,19.0223881 66.9179104,19.0410448 67.0186567,18.8955224 C67.630597,17.9365672 70.9291045,13 71.1977612,12.4850746 C71.2761194,12.3208955 71.369403,12.2985075 71.5447761,12.2985075 L73.9029851,12.2985075 C74.0410448,12.2947761 74.1007463,12.3731343 74.0410448,12.4850746 Z" id="Shape" fill-rule="nonzero"></path>
                <path d="M64.8320896,18.9029851 C64.0223881,18.5149254 62.7835821,19.2313433 61.6604478,20.608209 C60.7425373,21.738806 60.2425373,22.8843284 60.2238806,24.0074627 C60.2201493,24.4029851 60.369403,24.8955224 60.7201493,25.0783582 C61.511194,25.4925373 62.4664179,24.8731343 63.1604478,24.3022388 C63.6156716,23.9253731 63.9962687,23.5373134 64.3283582,23.0373134 C64.6902985,22.4962687 64.9552239,22.1343284 65.2462687,21.5186567 C65.2873134,21.4328358 65.2723881,21.4067164 65.2313433,21.391791 C65.130597,21.3544776 65.0261194,21.2798507 65.0149254,21.1940299 C65,21.141791 65.0074627,21.0858209 65.0298507,21.0373134 C65.4067164,20.2798507 65.6753731,19.3097015 64.8320896,18.9029851 Z" id="Path"></path>
                <path d="M46.641791,0.00746268657 C20.7537313,0.00746268657 0,7.76865672 0,17.4962687 C0,27.1679104 20.9253731,34.988806 46.641791,34.988806 C72.3619403,34.988806 93.2835821,27.141791 93.2835821,17.4962687 C93.2835821,7.85074627 72.3619403,0.00746268657 46.641791,0.00746268657 Z M46.641791,33.4664179 C21.9552239,33.4664179 1.94776119,26.3208955 1.94776119,17.5074627 C1.94776119,8.68656716 21.9552239,1.54477612 46.641791,1.54477612 C71.3208955,1.54477612 91.3320896,8.68656716 91.3320896,17.5074627 C91.3320896,26.3208955 71.3208955,33.4664179 46.641791,33.4664179 Z" id="Shape" fill-rule="nonzero"></path>
                <path d="M41.9029851,13.738806 C41.9328358,13.891791 41.9962687,13.9216418 42.0671642,13.9067164 C42.4552239,13.8022388 42.7947761,13.5559701 43.0186567,13.2238806 C43.2276119,12.9216418 43.3246269,12.488806 43.119403,12.3134328 C42.9365672,12.1604478 42.6380597,12.2014925 42.4179104,12.3955224 C42.0335821,12.7313433 41.8432836,13.2350746 41.9029851,13.738806 Z" id="Path"></path>
            </g>
        </g>
    </g>
</svg>