<?xml version="1.0" encoding="UTF-8"?>
<svg width="100px" height="32px" viewBox="0 0 100 32" version="1.1" xmlns="http://www.w3.org/2000/svg" xmlns:xlink="http://www.w3.org/1999/xlink">
    <!-- Generator: Sketch 52.6 (67491) - http://www.bohemiancoding.com/sketch -->
    <title>google white</title>
    <desc>Created with Sketch.</desc>
    <g id="Page-1" stroke="none" stroke-width="1" fill="none" fill-rule="evenodd">
        <g id="ESS-o-nas" transform="translate(-1777.000000, -3483.000000)" fill="#FFFFFF">
            <g id="google-white" transform="translate(1777.000000, 3483.000000)">
                <path d="M12.5474684,11.3132911 L12.5474684,14.6677215 L20.585443,14.6677215 C20.3322785,16.5506329 19.7151899,17.9272152 18.75,18.9082278 C17.5791139,20.0791139 15.7436709,21.3607595 12.5474684,21.3607595 C7.61075949,21.3607595 3.73417722,17.3734177 3.73417722,12.4367089 C3.73417722,7.5 7.59493671,3.51265823 12.5474684,3.51265823 C15.2056962,3.51265823 17.1677215,4.55696203 18.5917722,5.91772152 L20.9493671,3.56012658 C18.9556962,1.61392405 16.2816456,0.142405063 12.5316456,0.142405063 C5.75949367,0.142405063 0.0632911392,5.66455696 0.0632911392,12.4367089 C0.0632911392,19.2088608 5.75949367,24.7310127 12.5316456,24.7310127 C16.1867089,24.7310127 18.9556962,23.528481 21.1075949,21.2974684 C23.3227848,19.0822785 24.0189873,15.9651899 24.0189873,13.4493671 C24.0189873,12.6740506 23.971519,11.9462025 23.8449367,11.3449367 L12.5474684,11.3132911 Z" id="Path"></path>
                <path d="M34.0822785,8.57594937 C29.6993671,8.57594937 26.1234177,11.914557 26.1234177,16.5031646 C26.1234177,21.0601266 29.6993671,24.4303797 34.0822785,24.4303797 C38.4651899,24.4303797 42.0411392,21.0759494 42.0411392,16.5031646 C42.0411392,11.914557 38.4651899,8.57594937 34.0822785,8.57594937 Z M34.0822785,21.3132911 C31.6772152,21.3132911 29.6044304,19.335443 29.6044304,16.5031646 C29.6044304,13.6550633 31.6772152,11.693038 34.0822785,11.693038 C36.4873418,11.693038 38.5601266,13.6392405 38.5601266,16.5031646 C38.5601266,19.335443 36.4873418,21.3132911 34.0822785,21.3132911 Z" id="Shape" fill-rule="nonzero"></path>
                <path d="M73.1012658,10.3481013 L72.9746835,10.3481013 C72.1993671,9.41455696 70.6962025,8.57594937 68.7974684,8.57594937 C64.8417722,8.57594937 61.3765823,12.0253165 61.3765823,16.5031646 C61.3765823,20.9493671 64.8259494,24.4303797 68.7974684,24.4303797 C70.6962025,24.4303797 72.1993671,23.5759494 72.9746835,22.6265823 L73.1012658,22.6265823 L73.1012658,23.7341772 C73.1012658,26.7721519 71.471519,28.3860759 68.8607595,28.3860759 C66.7246835,28.3860759 65.4113924,26.8512658 64.8575949,25.5537975 L61.8196203,26.8037975 C62.6898734,28.9082278 65,31.4873418 68.8449367,31.4873418 C72.9272152,31.4873418 76.3765823,29.0822785 76.3765823,23.2278481 L76.3765823,8.9556962 L73.1012658,8.9556962 L73.1012658,10.3481013 Z M69.0981013,21.3132911 C66.693038,21.3132911 64.8575949,19.2721519 64.8575949,16.5031646 C64.8575949,13.7025316 66.693038,11.693038 69.0981013,11.693038 C71.471519,11.693038 73.3386076,13.7341772 73.3386076,16.5348101 C73.3544304,19.3196203 71.4873418,21.3132911 69.0981013,21.3132911 Z" id="Shape" fill-rule="nonzero"></path>
                <path d="M51.835443,8.57594937 C47.4525316,8.57594937 43.8765823,11.914557 43.8765823,16.5031646 C43.8765823,21.0601266 47.4525316,24.4303797 51.835443,24.4303797 C56.2183544,24.4303797 59.7943038,21.0759494 59.7943038,16.5031646 C59.7943038,11.914557 56.2183544,8.57594937 51.835443,8.57594937 Z M51.835443,21.3132911 C49.4303797,21.3132911 47.3575949,19.335443 47.3575949,16.5031646 C47.3575949,13.6550633 49.4303797,11.693038 51.835443,11.693038 C54.2405063,11.693038 56.3132911,13.6392405 56.3132911,16.5031646 C56.3132911,19.335443 54.2405063,21.3132911 51.835443,21.3132911 Z" id="Shape" fill-rule="nonzero"></path>
                <polygon id="Path" points="79.1455696 0.458860759 82.5791139 0.458860759 82.5791139 24.4462025 79.1455696 24.4462025"></polygon>
                <path d="M93.1487342,21.3132911 C91.3765823,21.3132911 90.1107595,20.5063291 89.3037975,18.9082278 L99.9208861,14.5253165 L99.5727848,13.6234177 C98.9240506,11.8512658 96.8987342,8.57594937 92.7848101,8.57594937 C88.7025316,8.57594937 85.3006329,11.7879747 85.3006329,16.5031646 C85.3006329,20.9493671 88.6550633,24.4303797 93.164557,24.4303797 C96.8037975,24.4303797 98.8924051,22.1993671 99.778481,20.9177215 L97.0727848,19.1139241 C96.1550633,20.443038 94.9367089,21.3132911 93.1487342,21.3132911 Z M92.9113924,11.5506329 C94.3196203,11.5506329 95.5221519,12.278481 95.9177215,13.2911392 L88.75,16.25 C88.75,12.9272152 91.1075949,11.5506329 92.9113924,11.5506329 Z" id="Shape" fill-rule="nonzero"></path>
            </g>
        </g>
    </g>
</svg>