<?xml version="1.0" encoding="UTF-8"?>
<svg width="120px" height="120px" viewBox="0 0 120 120" version="1.1" xmlns="http://www.w3.org/2000/svg" xmlns:xlink="http://www.w3.org/1999/xlink">
    <!-- Generator: Sketch 52.6 (67491) - http://www.bohemiancoding.com/sketch -->
    <title>guarantee</title>
    <desc>Created with Sketch.</desc>
    <g id="Page-1" stroke="none" stroke-width="1" fill="none" fill-rule="evenodd" opacity="0.5">
        <g id="ESS-Частным-лицам2" transform="translate(-900.000000, -1438.000000)" fill="#FFFFFF">
            <g id="guarantee" transform="translate(900.000000, 1438.000000)">
                <path d="M114.83644,50.0365497 L113.29587,48.8843202 C111.37701,47.4479167 110.696272,44.9058844 111.639254,42.702851 L112.397661,40.9347588 C113.938231,37.3373539 113.699744,33.330592 111.743421,29.9424342 C109.786184,26.5533626 106.436404,24.3430189 102.550256,23.8797516 L100.640534,23.6513158 C98.2602339,23.3671418 96.3989401,21.505848 96.1147661,19.126462 L95.8872442,17.215826 C95.4230629,13.330592 93.2127193,9.97989754 89.8245614,8.0235745 C86.4354898,6.06633778 82.428728,5.82785076 78.8322367,7.36933474 L77.0632309,8.1268276 C74.8601974,9.07072374 72.3181651,8.38907158 70.8817616,6.47021193 L69.7295322,4.93055556 C67.3848683,1.79733193 63.7966009,0.00091374269 59.8830409,0.00091374269 C55.9694809,0.00091374269 52.3812136,1.79733193 50.0365497,4.93055556 L48.8834063,6.47021193 C47.447003,8.3899855 44.9058844,9.07072374 42.7019371,8.1268276 L40.9338451,7.36933474 C37.33644,5.82876468 33.3296784,6.06633778 29.9415205,8.0235745 C26.5524489,9.97989754 24.3421053,13.330592 23.8788377,17.215826 L23.6504021,19.1255483 C23.3662281,21.505848 21.5049343,23.3671418 19.1246344,23.6513158 L17.2149123,23.8797516 C13.3296784,24.3430189 9.97898386,26.5533626 8.02266082,29.9424342 C6.06542409,33.330592 5.82785076,37.3373539 7.36842105,40.9347588 L8.12591368,42.702851 C9.06981006,44.9058844 8.38815789,47.4479167 6.46929825,48.8843202 L4.92964187,50.0365497 C1.79733193,52.3812136 5.68434189e-14,55.9703949 5.68434189e-14,59.8830409 C5.68434189e-14,63.7966009 1.79733193,67.3857822 4.92964187,69.7304458 L6.47021193,70.8826756 C8.38907158,72.3190788 9.06981006,74.8611111 8.1268276,77.0641448 L7.36842105,78.8322367 C5.82785076,82.4296419 6.06633778,86.4364035 8.02266082,89.8245614 C9.97989754,93.213633 13.3296784,95.4239766 17.215826,95.8872442 L19.1255483,96.1156798 C21.505848,96.3998538 23.3671418,98.2611476 23.6513158,100.640534 L23.8788377,102.55117 C24.3430189,106.436404 26.5533626,109.787098 29.9415205,111.743421 C33.330592,113.699744 37.3373539,113.938231 40.9338451,112.397661 L42.702851,111.640168 C44.9058844,110.696272 47.4479167,111.377924 48.8843202,113.296784 L50.0365497,114.83644 C52.3812136,117.969664 55.9703949,119.766996 59.8839546,119.766996 C63.7966009,119.766996 67.3857822,117.969664 69.7304458,114.83644 L70.8826756,113.296784 C72.3190788,111.377924 74.8601974,110.696272 77.0650585,111.641082 L78.8331506,112.397661 C82.4296419,113.938231 86.4364035,113.700658 89.8254751,111.744335 C93.213633,109.787098 95.4239766,106.436404 95.8881579,102.55117 L96.1156798,100.641447 C96.3998538,98.2611476 98.2611476,96.3998538 100.641447,96.1156798 L102.55117,95.8881579 C106.436404,95.4239766 109.788012,93.213633 111.744335,89.8254751 C113.700658,86.4364035 113.939145,82.4296419 112.397661,78.8322367 L111.641082,77.0650585 C110.697186,74.8611111 111.377924,72.3190788 113.297697,70.8826756 L114.837354,69.7304458 C117.970578,67.3857822 119.766996,63.7966009 119.766996,59.8839546 C119.766082,55.9703949 117.96875,52.3812136 114.83644,50.0365497 Z M112.033077,65.9850147 L110.493421,67.1372442 C106.839364,69.8711623 105.541849,74.7112573 107.340095,78.9071637 L108.096674,80.674342 C109.051535,82.9029605 108.903509,85.3855995 107.691886,87.4853801 C106.479349,89.5860746 104.403326,90.9548611 101.995614,91.2426901 L100.085892,91.4702119 C95.5537282,92.0111476 92.0111476,95.5546419 91.4702119,100.086806 L91.2417764,101.996528 C90.9539474,104.40424 89.5851607,106.480263 87.4853801,107.6928 C85.3855995,108.904422 82.9029605,109.052449 80.674342,108.097588 L78.9062501,107.340095 C74.7103436,105.542763 69.8711623,106.840278 67.1363303,110.494335 L65.9841008,112.033991 C64.5312501,113.974781 62.3072002,115.088633 59.8830409,115.088633 C57.4579677,115.088633 55.2339181,113.974781 53.7810671,112.033991 L52.6288377,110.494335 C50.7182016,107.940424 47.7796051,106.537829 44.751462,106.537829 C43.4457237,106.537829 42.123538,106.799159 40.8598318,107.340095 L39.0917399,108.097588 C36.8622077,109.052449 34.3804823,108.904422 32.2797881,107.6928 C30.1800073,106.480263 28.8112208,104.40424 28.5233918,101.996528 L28.2958699,100.086806 C27.7540206,95.5546419 24.21144,92.0120613 19.6792763,91.4711256 L17.7695542,91.2426901 C15.3618421,90.9548611 13.2858187,89.5860746 12.0732821,87.4862938 C10.8616594,85.3865132 10.713633,82.9038742 11.668494,80.6752559 L12.4259869,78.9071637 C14.2233188,74.712171 12.925804,69.872076 9.27266082,67.1372442 L7.73209076,65.9850147 C5.79130105,64.5321637 4.67836257,62.3081142 4.67836257,59.8830409 C4.67836257,57.4588816 5.79130105,55.2348318 7.73300444,53.7819811 L9.27266082,52.6297516 C12.9267179,49.8949195 14.2242325,45.0548246 12.4259869,40.8598318 L11.669408,39.0917399 C10.7145469,36.8631214 10.8625731,34.3804823 12.074196,32.2807018 C13.2867324,30.1809212 15.3627558,28.8121345 17.7704678,28.5243055 L19.6801899,28.2958699 C24.2123537,27.7549343 27.7549343,24.2123537 28.2958699,19.6801899 L28.5243055,17.7704678 C28.8121345,15.3627558 30.1809212,13.2867324 32.2807018,12.074196 C34.3804823,10.8616594 36.8631214,10.7145469 39.0917399,11.669408 L40.8598318,12.4259869 C45.0548246,14.2233188 49.8949195,12.9267179 52.6297516,9.27266082 L53.7819811,7.73300444 C55.2348318,5.79221497 57.4588816,4.67836257 59.8830409,4.67836257 C62.3072002,4.67836257 64.5312501,5.79221497 65.9841008,7.73300444 L67.1372442,9.2735745 C69.8711623,12.9276316 74.712171,14.2242325 78.9062501,12.4269006 L80.674342,11.669408 C82.9029605,10.7145469 85.3855995,10.8625731 87.4853801,12.074196 C89.5851607,13.2867324 90.9548611,15.3627558 91.2417764,17.7704678 L91.4702119,19.6801899 C92.0111476,24.2123537 95.5546419,27.7549343 100.085892,28.2958699 L101.995614,28.5243055 C104.403326,28.8121345 106.479349,30.1809212 107.691886,32.2807018 C108.904422,34.3804823 109.051535,36.8631214 108.097588,39.0917399 L107.340095,40.8598318 C105.542763,45.0557382 106.839364,49.8949195 110.493421,52.6297516 L112.033077,53.7819811 C113.974781,55.2348318 115.087719,57.4588816 115.087719,59.8839546 C115.087719,62.3081142 113.974781,64.5321637 112.033077,65.9850147 Z" id="Shape" fill-rule="nonzero"></path>
                <path d="M59.8830409,13.5955775 C52.8262061,13.5955775 46.0498903,15.1434575 39.7432384,18.1962718 C38.580044,18.7591373 38.0939326,20.1580774 38.6558844,21.3203581 C39.2187499,22.4835527 40.6186037,22.9696636 41.7808844,22.4067981 C47.447003,19.6646564 53.537098,18.2739401 59.8830409,18.2739401 C82.8262061,18.2739401 101.492142,36.9398758 101.492142,59.8839546 C101.492142,82.82712 82.8262061,101.493055 59.8830409,101.493055 C36.9389619,101.493055 18.2730264,82.82712 18.2730264,59.8839546 C18.2730264,50.4861111 21.3294957,41.619152 27.1125731,34.2406798 C27.9093567,33.2236842 27.7311768,31.7534723 26.7141813,30.955775 C25.6971857,30.1589913 24.2269736,30.3380847 23.4301899,31.3541665 C16.9965277,39.5650585 13.5955775,49.4298246 13.5955775,59.8839546 C13.5955775,85.4066154 34.3603801,106.171418 59.8830409,106.171418 C85.4057018,106.171418 106.170504,85.4066154 106.170504,59.8839546 C106.170504,34.3603801 85.4057018,13.5955775 59.8830409,13.5955775 Z" id="Path"></path>
                <path d="M25.6816519,47.9733188 L23.8998538,50.244883 C23.1021565,51.2618786 23.2803364,52.7320908 24.2964182,53.5288744 C25.3134138,54.3265717 26.7836257,54.1493055 27.5804094,53.1323099 L28.5590278,51.8859649 L28.5590278,67.3565425 L26.9928727,67.3565425 C25.7008407,67.3565425 24.6536915,68.4036915 24.6536915,69.6957237 C24.6536915,70.9877558 25.7008407,72.034905 26.9928727,72.034905 L34.7231359,72.034905 C36.0142545,72.034905 37.0623172,70.9877558 37.0623172,69.6957237 C37.0623172,68.4036915 36.0142545,67.3565425 34.7231359,67.3565425 L33.2373904,67.3565425 L33.2373904,49.417032 C33.2373904,48.125 32.1893275,47.0778508 30.8982091,47.0778508 L27.5219298,47.0778508 C26.8037282,47.0778508 26.1248173,47.407712 25.6816519,47.9733188 Z" id="Path"></path>
                <path d="M44.4791668,72.034905 L45.6944444,72.034905 C49.5577485,72.034905 52.7001097,68.8925439 52.7001097,65.0292398 L52.7001097,53.6906068 C52.7001097,49.8273027 49.5568349,46.6840278 45.6944444,46.6840278 L44.4791668,46.6840278 C40.6158625,46.6840278 37.4735015,49.8273027 37.4735015,53.6906068 L37.4735015,65.0292398 C37.4735015,68.8925439 40.6158625,72.034905 44.4791668,72.034905 Z M42.1518641,53.6906068 C42.1518641,52.4067981 43.1962718,51.3623904 44.4791668,51.3623904 L45.6944444,51.3623904 C46.9773392,51.3623904 48.0217471,52.4067981 48.0217471,53.6906068 L48.0217471,65.0292398 C48.0217471,66.3121345 46.9773392,67.3565425 45.6944444,67.3565425 L44.4791668,67.3565425 C43.1962718,67.3565425 42.1518641,66.3121345 42.1518641,65.0292398 L42.1518641,53.6906068 Z" id="Shape" fill-rule="nonzero"></path>
                <path d="M63.330592,72.034905 C67.1938961,72.034905 70.3362573,68.8925439 70.3362573,65.0292398 L70.3362573,53.6906068 C70.3362573,49.8273027 67.1929825,46.6840278 63.330592,46.6840278 L62.1153144,46.6840278 C58.2520103,46.6840278 55.1096491,49.8273027 55.1096491,53.6906068 L55.1096491,65.0292398 C55.1096491,68.8925439 58.2520103,72.034905 62.1153144,72.034905 L63.330592,72.034905 Z M59.7880117,65.0292398 L59.7880117,53.6906068 C59.7880117,52.4067981 60.8324196,51.3623904 62.1153144,51.3623904 L63.330592,51.3623904 C64.6134868,51.3623904 65.6578947,52.4067981 65.6578947,53.6906068 L65.6578947,65.0292398 C65.6578947,66.3121345 64.6134868,67.3565425 63.330592,67.3565425 L62.1153144,67.3565425 C60.8324196,67.3565425 59.7880117,66.3130482 59.7880117,65.0292398 Z" id="Shape" fill-rule="nonzero"></path>
                <path d="M94.2224049,46.3998538 C93.1779972,45.6405336 91.715095,45.8717104 90.9548611,46.9161184 L76.0919226,67.3556285 C75.3316887,68.4009502 75.5628655,69.8638524 76.6081871,70.6231724 C77.0230264,70.9247076 77.5045687,71.0709064 77.9815425,71.0709064 C78.704313,71.0709064 79.417946,70.7364767 79.875731,70.1069078 L94.7386695,49.6673977 C95.4989034,48.6229897 95.2668129,47.1600877 94.2224049,46.3998538 Z" id="Path"></path>
                <path d="M38.8139621,37.4917764 C39.3594664,37.4917764 39.907712,37.3017179 40.3508772,36.9152047 C45.7584065,32.1929825 52.6946271,29.5924706 59.8830409,29.5924706 C66.6081871,29.5924706 72.9504751,31.7836257 78.2245979,35.9283626 C79.2406798,36.7269736 80.7108917,36.5506213 81.5095029,35.5345394 C82.3072002,34.5193712 82.130848,33.0482456 81.1156798,32.2505483 C75.0082236,27.4506578 67.6663013,24.9141081 59.8830409,24.9141081 C51.5634138,24.9141081 43.533443,27.9248903 37.2743055,33.3908992 C36.3011696,34.2406798 36.2006578,35.7182016 37.0504386,36.6913378 C37.5127925,37.2213085 38.1615497,37.4917764 38.8139621,37.4917764 Z" id="Path"></path>
                <path d="M38.3835892,86.3569078 C44.4892178,91.1558844 51.832054,93.6924342 59.6153144,93.6924342 C65.0155336,93.6924342 70.1854898,92.4753289 74.9826388,90.0758407 C76.1376096,89.4983553 76.6054458,88.0930189 76.0279605,86.9371345 C75.4495614,85.7821637 74.0451389,85.3143275 72.8892543,85.8918129 C68.7481726,87.9641813 64.2817984,89.0140716 59.6153144,89.0140716 C52.8910819,89.0140716 46.5478802,86.8238304 41.2737572,82.6781799 C40.2585892,81.8804823 38.7874634,82.0568349 37.9897661,83.0720028 C37.1911551,84.0880847 37.3675074,85.5582968 38.3835892,86.3569078 Z" id="Path"></path>
                <path d="M82.8536185,82.3556285 C82.33644,81.5807747 81.3678727,81.178728 80.4532164,81.3614765 C79.4828215,81.5561039 78.7189329,82.3675074 78.590095,83.3497806 C78.4639986,84.3037282 78.959247,85.2640716 79.8072002,85.717288 C80.6588084,86.1732456 81.7297149,86.0480629 82.4561404,85.4111841 C83.3296784,84.6427265 83.4850147,83.3214547 82.8536185,82.3556285 Z" id="Path"></path>
                <path d="M78.8824926,45.9530337 C75.8470395,45.9530337 73.377193,48.4219663 73.377193,51.4574196 C73.377193,54.4928727 75.8470395,56.9627193 78.8824926,56.9627193 C81.917032,56.9627193 84.3868786,54.4928727 84.3868786,51.4574196 C84.3868786,48.4219663 81.917032,45.9530337 78.8824926,45.9530337 Z M78.8824926,52.2843567 C78.4265352,52.2843567 78.0555556,51.9133773 78.0555556,51.4574196 C78.0555556,51.001462 78.4265352,50.6304823 78.8824926,50.6304823 C79.3384503,50.6304823 79.708516,51.001462 79.708516,51.4574196 C79.708516,51.9133773 79.3384503,52.2843567 78.8824926,52.2843567 Z" id="Shape" fill-rule="nonzero"></path>
                <path d="M86.3605628,65.713633 C86.3605628,68.7490863 88.8304094,71.2189329 91.8649488,71.2189329 C94.9004021,71.2189329 97.3702484,68.7490863 97.3702484,65.713633 C97.3702484,62.6781799 94.9004021,60.2083333 91.8649488,60.2083333 C88.8304094,60.2083333 86.3605628,62.6781799 86.3605628,65.713633 Z M92.6918858,65.713633 C92.6918858,66.1695906 92.3218201,66.5405703 91.8658625,66.5405703 C91.409905,66.5405703 91.0389254,66.1695906 91.0389254,65.713633 C91.0389254,65.2576753 91.409905,64.8866959 91.8658625,64.8866959 C92.3218201,64.8866959 92.6918858,65.2576753 92.6918858,65.713633 Z" id="Shape" fill-rule="nonzero"></path>
                <path d="M30.2860014,26.5387427 C30.6624634,27.4424342 31.5816887,28.0254021 32.5593932,27.9797149 C33.5243055,27.9340278 34.3722587,27.2743055 34.6701389,26.3587354 C34.9707602,25.4340278 34.6436402,24.3777413 33.8687864,23.7883771 C33.0783991,23.1871345 31.9745979,23.1524122 31.1467471,23.6997441 C30.2238669,24.3092105 29.8693347,25.5217471 30.2860014,26.5387427 Z" id="Path"></path>
            </g>
        </g>
    </g>
</svg>