<?xml version="1.0" encoding="UTF-8"?>
<svg width="191px" height="120px" viewBox="0 0 191 120" version="1.1" xmlns="http://www.w3.org/2000/svg" xmlns:xlink="http://www.w3.org/1999/xlink">
    <!-- Generator: Sketch 52.6 (67491) - http://www.bohemiancoding.com/sketch -->
    <title>Group</title>
    <desc>Created with Sketch.</desc>
    <g id="Page-1" stroke="none" stroke-width="1" fill="none" fill-rule="evenodd">
        <g id="ESS-предприятиям_new" transform="translate(-1030.000000, -4770.000000)" fill="#FFFFFF" fill-rule="nonzero">
            <g id="Group" transform="translate(1030.000000, 4770.000000)">
                <g id="energy-(1)" transform="translate(56.000000, 0.000000)">
                    <path d="M78.522179,50.0753307 L77.1503502,50.0753307 L77.1503502,43.2035798 C77.1503502,41.5257588 75.9657588,40.0899611 74.3248249,39.7674708 L51.1273152,33.3579767 L51.1273152,24.0066926 L57.8681712,24.0066926 C58.5128405,24.0066926 59.0354864,23.4842023 59.0354864,22.8393774 C59.0354864,22.1945525 58.5128405,21.6720623 57.8681712,21.6720623 L51.1273152,21.6720623 L51.1273152,15.9305837 L73.8546304,20.0084047 C74.4115175,20.1084825 74.8157198,20.5914397 74.8157198,21.1573541 L74.8157198,21.6720623 L62.5372763,21.6720623 C61.892607,21.6720623 61.3699611,22.1945525 61.3699611,22.8393774 C61.3699611,23.4842023 61.892607,24.0066926 62.5372763,24.0066926 L74.8157198,24.0066926 L74.8157198,28.0294163 L73.4437354,28.0294163 C72.7990661,28.0294163 72.2764202,28.5519066 72.2764202,29.1967315 C72.2764202,29.8415564 72.7990661,30.3640467 73.4437354,30.3640467 L78.522179,30.3640467 C79.1668482,30.3640467 79.6894942,29.8415564 79.6894942,29.1967315 C79.6894942,28.5519066 79.1668482,28.0294163 78.522179,28.0294163 L77.1503502,28.0294163 L77.1503502,21.1575097 C77.1503502,19.4600778 75.9375875,18.0102724 74.2669261,17.7106615 L51.1271595,13.5587549 L51.1271595,11.023035 C51.1271595,9.75984436 50.5735409,8.56793774 49.6085603,7.75284047 L41.2007782,0.65307393 C40.4152529,-0.0101167315 39.2750195,-0.0104280156 38.4894942,0.65307393 L30.0818677,7.75284047 C29.1165759,8.5677821 28.5631128,9.75984436 28.5631128,11.023035 L28.5631128,13.5587549 L5.42365759,17.7106615 C3.75284047,18.0102724 2.54007782,19.4599222 2.54007782,21.1575097 L2.54007782,28.0294163 L1.16809339,28.0294163 C0.523424125,28.0294163 0.000778210117,28.5519066 0.000778210117,29.1967315 C0.000778210117,29.8415564 0.523424125,30.3640467 1.16809339,30.3640467 L6.24653696,30.3640467 C6.89120623,30.3640467 7.41385214,29.8415564 7.41385214,29.1967315 C7.41385214,28.5519066 6.89120623,28.0294163 6.24653696,28.0294163 L4.87470817,28.0294163 L4.87470817,24.0066926 L28.5632685,24.0066926 L28.5632685,33.3579767 L5.36560311,39.7674708 C3.72466926,40.0899611 2.54007782,41.5257588 2.54007782,43.2035798 L2.54007782,50.0753307 L1.16809339,50.0753307 C0.523424125,50.0753307 0.000778210117,50.597821 0.000778210117,51.2426459 C0.000778210117,51.8874708 0.523424125,52.4099611 1.16809339,52.4099611 L6.24653696,52.4099611 C6.89120623,52.4099611 7.41385214,51.8874708 7.41385214,51.2426459 C7.41385214,50.597821 6.89120623,50.0753307 6.24653696,50.0753307 L4.87470817,50.0753307 L4.87470817,46.052607 L28.0809339,46.052607 L23.9210895,57.8429572 C23.7066148,58.4508949 24.0255253,59.1175097 24.6336187,59.3319844 C25.2266148,59.5411673 25.9069261,59.2345525 26.1228016,58.6196109 L28.1129961,52.978677 L37.7754086,59.3293385 L22.3070817,69.4343969 L24.717821,62.6014008 C24.9322957,61.993463 24.6133852,61.3268482 24.0054475,61.1123735 C23.3973541,60.8974319 22.7307393,61.2166537 22.5162646,61.8247471 L19.2331518,71.1299611 L18.677821,71.1299611 C17.1760311,71.1299611 15.9540856,72.3519066 15.9540856,73.8536965 L15.9540856,77.122179 C15.9540856,78.6239689 17.1760311,79.8459144 18.677821,79.8459144 L61.0124514,79.8459144 C62.5142412,79.8459144 63.7361868,78.6239689 63.7361868,77.122179 L63.7361868,73.8536965 C63.7361868,72.3519066 62.5142412,71.1299611 61.0124514,71.1299611 L60.4571206,71.1299611 L51.6094942,46.052607 L74.8157198,46.052607 L74.8157198,50.0753307 L73.4437354,50.0753307 C72.7990661,50.0753307 72.2764202,50.597821 72.2764202,51.2426459 C72.2764202,51.8874708 72.7990661,52.4099611 73.4437354,52.4099611 L78.522179,52.4099611 C79.1668482,52.4099611 79.6894942,51.8874708 79.6894942,51.2426459 C79.6894942,50.597821 79.1668482,50.0753307 78.522179,50.0753307 Z M28.5632685,43.7181323 L4.87470817,43.7181323 L4.87470817,43.2035798 C4.87470817,42.6376654 5.27891051,42.1545525 5.83579767,42.0544747 C5.8711284,42.048249 5.90599222,42.0401556 5.94054475,42.0308171 L28.5632685,35.7802335 L28.5632685,43.7181323 Z M28.5632685,21.6720623 L4.87470817,21.6720623 L4.87470817,21.1573541 C4.87470817,20.5914397 5.27891051,20.1084825 5.83595331,20.0084047 L28.5632685,15.9305837 L28.5632685,21.6720623 Z M30.8978988,11.023035 C30.8978988,10.4488716 31.149572,9.90708171 31.5883268,9.5366537 L39.8452918,2.56404669 L48.1024125,9.5366537 C48.5410117,9.90708171 48.7926848,10.448716 48.7926848,11.023035 L48.7926848,13.3677821 L30.8978988,13.3677821 L30.8978988,11.023035 Z M30.8978988,15.7025681 L48.7926848,15.7025681 L48.7926848,21.6720623 L30.8978988,21.6720623 L30.8978988,15.7025681 Z M45.5131518,33.0792218 L34.1772763,33.0792218 L39.8451362,29.8831128 L45.5131518,33.0792218 Z M34.1772763,24.0066926 L45.5131518,24.0066926 L39.8452918,27.2028016 L34.1772763,24.0066926 Z M42.2217899,28.543035 L48.7925292,24.837821 L48.7925292,32.2480934 L42.2217899,28.543035 Z M30.8978988,24.837821 L37.4686381,28.543035 L30.8978988,32.248249 L30.8978988,24.837821 Z M30.8978988,35.4138521 L48.7926848,35.4138521 L48.7926848,43.7179767 L30.8978988,43.7179767 L30.8978988,35.4138521 Z M28.9129961,50.7109728 L30.5564202,46.0527626 L49.1338521,46.0527626 L50.8130739,50.8122957 L39.9070817,57.9368093 L28.9129961,50.7109728 Z M39.9033463,60.7280934 L55.7298054,71.1301167 L23.9803891,71.1301167 L39.9033463,60.7280934 Z M61.0124514,73.4647471 C61.2269261,73.4647471 61.4015564,73.6392218 61.4015564,73.8538521 L61.4015564,77.1223346 C61.4015564,77.336965 61.2269261,77.5114397 61.0124514,77.5114397 L18.677821,77.5114397 C18.4633463,77.5114397 18.288716,77.336965 18.288716,77.1223346 L18.288716,73.8538521 C18.288716,73.6392218 18.4633463,73.4647471 18.677821,73.4647471 L61.0124514,73.4647471 Z M51.6127626,53.0785992 L57.3780545,69.4196109 L42.0350195,59.3354086 L51.6127626,53.0785992 Z M74.8157198,43.7181323 L51.1271595,43.7181323 L51.1271595,35.7802335 L73.7497276,42.0308171 C73.7842802,42.0403113 73.8192996,42.048249 73.8544747,42.0544747 C74.4113619,42.1545525 74.8155642,42.6376654 74.8155642,43.2035798 L74.8157198,43.7181323 Z" id="Shape"></path>
                </g>
                <g id="energy-(1)" transform="translate(-0.000000, 60.000000)">
                    <path d="M58.8916342,37.5564981 L57.8627626,37.5564981 L57.8627626,32.4026848 C57.8627626,31.1443191 56.9743191,30.0674708 55.7436187,29.8256031 L38.3454864,25.0184825 L38.3454864,18.0050195 L43.4011284,18.0050195 C43.8846304,18.0050195 44.2766148,17.6131518 44.2766148,17.1295331 C44.2766148,16.6459144 43.8846304,16.2540467 43.4011284,16.2540467 L38.3454864,16.2540467 L38.3454864,11.9479377 L55.3909728,15.0063035 C55.8086381,15.0813619 56.1117899,15.4435798 56.1117899,15.8680156 L56.1117899,16.2540467 L46.9029572,16.2540467 C46.4194553,16.2540467 46.0274708,16.6459144 46.0274708,17.1295331 C46.0274708,17.6131518 46.4194553,18.0050195 46.9029572,18.0050195 L56.1117899,18.0050195 L56.1117899,21.0220623 L55.0828016,21.0220623 C54.5992996,21.0220623 54.2073152,21.41393 54.2073152,21.8975486 C54.2073152,22.3811673 54.5992996,22.773035 55.0828016,22.773035 L58.8916342,22.773035 C59.3751362,22.773035 59.7671206,22.3811673 59.7671206,21.8975486 C59.7671206,21.41393 59.3751362,21.0220623 58.8916342,21.0220623 L57.8627626,21.0220623 L57.8627626,15.8681323 C57.8627626,14.5950584 56.9531907,13.5077043 55.7001946,13.2829961 L38.3453696,10.1690661 L38.3453696,8.26727626 C38.3453696,7.31988327 37.9301556,6.42595331 37.2064202,5.81463035 L30.9005837,0.489805447 C30.3114397,-0.00758754864 29.4562646,-0.00782101167 28.8671206,0.489805447 L22.5614008,5.81463035 C21.8374319,6.42583658 21.4223346,7.31988327 21.4223346,8.26727626 L21.4223346,10.1690661 L4.06774319,13.2829961 C2.81463035,13.5077043 1.90505837,14.5949416 1.90505837,15.8681323 L1.90505837,21.0220623 L0.876070039,21.0220623 C0.392568093,21.0220623 0.000583657588,21.41393 0.000583657588,21.8975486 C0.000583657588,22.3811673 0.392568093,22.773035 0.876070039,22.773035 L4.68490272,22.773035 C5.16840467,22.773035 5.56038911,22.3811673 5.56038911,21.8975486 C5.56038911,21.41393 5.16840467,21.0220623 4.68490272,21.0220623 L3.65603113,21.0220623 L3.65603113,18.0050195 L21.4224514,18.0050195 L21.4224514,25.0184825 L4.02420233,29.8256031 C2.79350195,30.0674708 1.90505837,31.1443191 1.90505837,32.4026848 L1.90505837,37.5564981 L0.876070039,37.5564981 C0.392568093,37.5564981 0.000583657588,37.9483658 0.000583657588,38.4319844 C0.000583657588,38.9156031 0.392568093,39.3074708 0.876070039,39.3074708 L4.68490272,39.3074708 C5.16840467,39.3074708 5.56038911,38.9156031 5.56038911,38.4319844 C5.56038911,37.9483658 5.16840467,37.5564981 4.68490272,37.5564981 L3.65603113,37.5564981 L3.65603113,34.5394553 L21.0607004,34.5394553 L17.9408171,43.3822179 C17.7799611,43.8381712 18.019144,44.3381323 18.475214,44.4989883 C18.9199611,44.6558755 19.4301946,44.4259144 19.5921012,43.9647082 L21.0847471,39.7340078 L28.3315564,44.4970039 L16.7303113,52.0757977 L18.5383658,46.9510506 C18.6992218,46.4950973 18.4600389,45.9951362 18.0040856,45.8342802 C17.5480156,45.6730739 17.0480545,45.9124903 16.8871984,46.3685603 L14.4248638,53.3474708 L14.0083658,53.3474708 C12.8820233,53.3474708 11.9655642,54.26393 11.9655642,55.3902724 L11.9655642,57.8416342 C11.9655642,58.9679767 12.8820233,59.8844358 14.0083658,59.8844358 L45.7593385,59.8844358 C46.8856809,59.8844358 47.8021401,58.9679767 47.8021401,57.8416342 L47.8021401,55.3902724 C47.8021401,54.26393 46.8856809,53.3474708 45.7593385,53.3474708 L45.3428405,53.3474708 L38.7071206,34.5394553 L56.1117899,34.5394553 L56.1117899,37.5564981 L55.0828016,37.5564981 C54.5992996,37.5564981 54.2073152,37.9483658 54.2073152,38.4319844 C54.2073152,38.9156031 54.5992996,39.3074708 55.0828016,39.3074708 L58.8916342,39.3074708 C59.3751362,39.3074708 59.7671206,38.9156031 59.7671206,38.4319844 C59.7671206,37.9483658 59.3751362,37.5564981 58.8916342,37.5564981 Z M21.4224514,32.7885992 L3.65603113,32.7885992 L3.65603113,32.4026848 C3.65603113,31.978249 3.95918288,31.6159144 4.37684825,31.540856 C4.4033463,31.5361868 4.42949416,31.5301167 4.45540856,31.5231128 L21.4224514,26.8351751 L21.4224514,32.7885992 Z M21.4224514,16.2540467 L3.65603113,16.2540467 L3.65603113,15.8680156 C3.65603113,15.4435798 3.95918288,15.0813619 4.37696498,15.0063035 L21.4224514,11.9479377 L21.4224514,16.2540467 Z M23.1734241,8.26727626 C23.1734241,7.8366537 23.362179,7.43031128 23.6912451,7.15249027 L29.8839689,1.92303502 L36.0768093,7.15249027 C36.4057588,7.43031128 36.5945136,7.83653696 36.5945136,8.26727626 L36.5945136,10.0258366 L23.1734241,10.0258366 L23.1734241,8.26727626 Z M23.1734241,11.7769261 L36.5945136,11.7769261 L36.5945136,16.2540467 L23.1734241,16.2540467 L23.1734241,11.7769261 Z M34.1348638,24.8094163 L25.6329572,24.8094163 L29.8838521,22.4123346 L34.1348638,24.8094163 Z M25.6329572,18.0050195 L34.1348638,18.0050195 L29.8839689,20.4021012 L25.6329572,18.0050195 Z M31.6663424,21.4072763 L36.5943969,18.6283658 L36.5943969,24.18607 L31.6663424,21.4072763 Z M23.1734241,18.6283658 L28.1014786,21.4072763 L23.1734241,24.1861868 L23.1734241,18.6283658 Z M23.1734241,26.5603891 L36.5945136,26.5603891 L36.5945136,32.7884825 L23.1734241,32.7884825 L23.1734241,26.5603891 Z M21.6847471,38.0332296 L22.9173152,34.539572 L36.8503891,34.539572 L38.1098054,38.1092218 L29.9303113,43.452607 L21.6847471,38.0332296 Z M29.9275097,45.54607 L41.7973541,53.3475875 L17.9852918,53.3475875 L29.9275097,45.54607 Z M45.7593385,55.0985603 C45.9201946,55.0985603 46.0511673,55.2294163 46.0511673,55.3903891 L46.0511673,57.841751 C46.0511673,58.0027237 45.9201946,58.1335798 45.7593385,58.1335798 L14.0083658,58.1335798 C13.8475097,58.1335798 13.716537,58.0027237 13.716537,57.841751 L13.716537,55.3903891 C13.716537,55.2294163 13.8475097,55.0985603 14.0083658,55.0985603 L45.7593385,55.0985603 Z M38.709572,39.8089494 L43.0335409,52.0647082 L31.5262646,44.5015564 L38.709572,39.8089494 Z M56.1117899,32.7885992 L38.3453696,32.7885992 L38.3453696,26.8351751 L55.3122957,31.5231128 C55.3382101,31.5302335 55.3644747,31.5361868 55.390856,31.540856 C55.8085214,31.6159144 56.1116732,31.978249 56.1116732,32.4026848 L56.1117899,32.7885992 Z" id="Shape"></path>
                </g>
                <g id="energy-(1)" transform="translate(131.000000, 60.000000)">
                    <path d="M58.8916342,37.5564981 L57.8627626,37.5564981 L57.8627626,32.4026848 C57.8627626,31.1443191 56.9743191,30.0674708 55.7436187,29.8256031 L38.3454864,25.0184825 L38.3454864,18.0050195 L43.4011284,18.0050195 C43.8846304,18.0050195 44.2766148,17.6131518 44.2766148,17.1295331 C44.2766148,16.6459144 43.8846304,16.2540467 43.4011284,16.2540467 L38.3454864,16.2540467 L38.3454864,11.9479377 L55.3909728,15.0063035 C55.8086381,15.0813619 56.1117899,15.4435798 56.1117899,15.8680156 L56.1117899,16.2540467 L46.9029572,16.2540467 C46.4194553,16.2540467 46.0274708,16.6459144 46.0274708,17.1295331 C46.0274708,17.6131518 46.4194553,18.0050195 46.9029572,18.0050195 L56.1117899,18.0050195 L56.1117899,21.0220623 L55.0828016,21.0220623 C54.5992996,21.0220623 54.2073152,21.41393 54.2073152,21.8975486 C54.2073152,22.3811673 54.5992996,22.773035 55.0828016,22.773035 L58.8916342,22.773035 C59.3751362,22.773035 59.7671206,22.3811673 59.7671206,21.8975486 C59.7671206,21.41393 59.3751362,21.0220623 58.8916342,21.0220623 L57.8627626,21.0220623 L57.8627626,15.8681323 C57.8627626,14.5950584 56.9531907,13.5077043 55.7001946,13.2829961 L38.3453696,10.1690661 L38.3453696,8.26727626 C38.3453696,7.31988327 37.9301556,6.42595331 37.2064202,5.81463035 L30.9005837,0.489805447 C30.3114397,-0.00758754864 29.4562646,-0.00782101167 28.8671206,0.489805447 L22.5614008,5.81463035 C21.8374319,6.42583658 21.4223346,7.31988327 21.4223346,8.26727626 L21.4223346,10.1690661 L4.06774319,13.2829961 C2.81463035,13.5077043 1.90505837,14.5949416 1.90505837,15.8681323 L1.90505837,21.0220623 L0.876070039,21.0220623 C0.392568093,21.0220623 0.000583657588,21.41393 0.000583657588,21.8975486 C0.000583657588,22.3811673 0.392568093,22.773035 0.876070039,22.773035 L4.68490272,22.773035 C5.16840467,22.773035 5.56038911,22.3811673 5.56038911,21.8975486 C5.56038911,21.41393 5.16840467,21.0220623 4.68490272,21.0220623 L3.65603113,21.0220623 L3.65603113,18.0050195 L21.4224514,18.0050195 L21.4224514,25.0184825 L4.02420233,29.8256031 C2.79350195,30.0674708 1.90505837,31.1443191 1.90505837,32.4026848 L1.90505837,37.5564981 L0.876070039,37.5564981 C0.392568093,37.5564981 0.000583657588,37.9483658 0.000583657588,38.4319844 C0.000583657588,38.9156031 0.392568093,39.3074708 0.876070039,39.3074708 L4.68490272,39.3074708 C5.16840467,39.3074708 5.56038911,38.9156031 5.56038911,38.4319844 C5.56038911,37.9483658 5.16840467,37.5564981 4.68490272,37.5564981 L3.65603113,37.5564981 L3.65603113,34.5394553 L21.0607004,34.5394553 L17.9408171,43.3822179 C17.7799611,43.8381712 18.019144,44.3381323 18.475214,44.4989883 C18.9199611,44.6558755 19.4301946,44.4259144 19.5921012,43.9647082 L21.0847471,39.7340078 L28.3315564,44.4970039 L16.7303113,52.0757977 L18.5383658,46.9510506 C18.6992218,46.4950973 18.4600389,45.9951362 18.0040856,45.8342802 C17.5480156,45.6730739 17.0480545,45.9124903 16.8871984,46.3685603 L14.4248638,53.3474708 L14.0083658,53.3474708 C12.8820233,53.3474708 11.9655642,54.26393 11.9655642,55.3902724 L11.9655642,57.8416342 C11.9655642,58.9679767 12.8820233,59.8844358 14.0083658,59.8844358 L45.7593385,59.8844358 C46.8856809,59.8844358 47.8021401,58.9679767 47.8021401,57.8416342 L47.8021401,55.3902724 C47.8021401,54.26393 46.8856809,53.3474708 45.7593385,53.3474708 L45.3428405,53.3474708 L38.7071206,34.5394553 L56.1117899,34.5394553 L56.1117899,37.5564981 L55.0828016,37.5564981 C54.5992996,37.5564981 54.2073152,37.9483658 54.2073152,38.4319844 C54.2073152,38.9156031 54.5992996,39.3074708 55.0828016,39.3074708 L58.8916342,39.3074708 C59.3751362,39.3074708 59.7671206,38.9156031 59.7671206,38.4319844 C59.7671206,37.9483658 59.3751362,37.5564981 58.8916342,37.5564981 Z M21.4224514,32.7885992 L3.65603113,32.7885992 L3.65603113,32.4026848 C3.65603113,31.978249 3.95918288,31.6159144 4.37684825,31.540856 C4.4033463,31.5361868 4.42949416,31.5301167 4.45540856,31.5231128 L21.4224514,26.8351751 L21.4224514,32.7885992 Z M21.4224514,16.2540467 L3.65603113,16.2540467 L3.65603113,15.8680156 C3.65603113,15.4435798 3.95918288,15.0813619 4.37696498,15.0063035 L21.4224514,11.9479377 L21.4224514,16.2540467 Z M23.1734241,8.26727626 C23.1734241,7.8366537 23.362179,7.43031128 23.6912451,7.15249027 L29.8839689,1.92303502 L36.0768093,7.15249027 C36.4057588,7.43031128 36.5945136,7.83653696 36.5945136,8.26727626 L36.5945136,10.0258366 L23.1734241,10.0258366 L23.1734241,8.26727626 Z M23.1734241,11.7769261 L36.5945136,11.7769261 L36.5945136,16.2540467 L23.1734241,16.2540467 L23.1734241,11.7769261 Z M34.1348638,24.8094163 L25.6329572,24.8094163 L29.8838521,22.4123346 L34.1348638,24.8094163 Z M25.6329572,18.0050195 L34.1348638,18.0050195 L29.8839689,20.4021012 L25.6329572,18.0050195 Z M31.6663424,21.4072763 L36.5943969,18.6283658 L36.5943969,24.18607 L31.6663424,21.4072763 Z M23.1734241,18.6283658 L28.1014786,21.4072763 L23.1734241,24.1861868 L23.1734241,18.6283658 Z M23.1734241,26.5603891 L36.5945136,26.5603891 L36.5945136,32.7884825 L23.1734241,32.7884825 L23.1734241,26.5603891 Z M21.6847471,38.0332296 L22.9173152,34.539572 L36.8503891,34.539572 L38.1098054,38.1092218 L29.9303113,43.452607 L21.6847471,38.0332296 Z M29.9275097,45.54607 L41.7973541,53.3475875 L17.9852918,53.3475875 L29.9275097,45.54607 Z M45.7593385,55.0985603 C45.9201946,55.0985603 46.0511673,55.2294163 46.0511673,55.3903891 L46.0511673,57.841751 C46.0511673,58.0027237 45.9201946,58.1335798 45.7593385,58.1335798 L14.0083658,58.1335798 C13.8475097,58.1335798 13.716537,58.0027237 13.716537,57.841751 L13.716537,55.3903891 C13.716537,55.2294163 13.8475097,55.0985603 14.0083658,55.0985603 L45.7593385,55.0985603 Z M38.709572,39.8089494 L43.0335409,52.0647082 L31.5262646,44.5015564 L38.709572,39.8089494 Z M56.1117899,32.7885992 L38.3453696,32.7885992 L38.3453696,26.8351751 L55.3122957,31.5231128 C55.3382101,31.5302335 55.3644747,31.5361868 55.390856,31.540856 C55.8085214,31.6159144 56.1116732,31.978249 56.1116732,32.4026848 L56.1117899,32.7885992 Z" id="Shape"></path>
                </g>
            </g>
        </g>
    </g>
</svg>