<?xml version="1.0" encoding="UTF-8"?>
<svg width="120px" height="120px" viewBox="0 0 120 120" version="1.1" xmlns="http://www.w3.org/2000/svg" xmlns:xlink="http://www.w3.org/1999/xlink">
    <!-- Generator: Sketch 52.6 (67491) - http://www.bohemiancoding.com/sketch -->
    <title>energy (1)</title>
    <desc>Created with Sketch.</desc>
    <g id="Page-1" stroke="none" stroke-width="1" fill="none" fill-rule="evenodd">
        <g id="ESS-предприятиям_new" transform="translate(-401.000000, -4770.000000)" fill="#FFFFFF" fill-rule="nonzero">
            <g id="energy-(1)" transform="translate(401.000000, 4770.000000)">
                <path d="M118.012865,75.1129961 L115.951111,75.1129961 L115.951111,64.8053696 C115.951111,62.2886381 114.17076,60.1349416 111.704561,59.6512062 L76.8404678,50.036965 L76.8404678,36.0100389 L86.971462,36.0100389 C87.9403509,36.0100389 88.725848,35.2263035 88.725848,34.2590661 C88.725848,33.2918288 87.9403509,32.5080934 86.971462,32.5080934 L76.8404678,32.5080934 L76.8404678,23.8958755 L110.997895,30.012607 C111.834854,30.1627237 112.442339,30.8871595 112.442339,31.7360311 L112.442339,32.5080934 L93.9887719,32.5080934 C93.019883,32.5080934 92.234386,33.2918288 92.234386,34.2590661 C92.234386,35.2263035 93.019883,36.0100389 93.9887719,36.0100389 L112.442339,36.0100389 L112.442339,42.0441245 L110.380351,42.0441245 C109.411462,42.0441245 108.625965,42.8278599 108.625965,43.7950973 C108.625965,44.7623346 109.411462,45.54607 110.380351,45.54607 L118.012865,45.54607 C118.981754,45.54607 119.767251,44.7623346 119.767251,43.7950973 C119.767251,42.8278599 118.981754,42.0441245 118.012865,42.0441245 L115.951111,42.0441245 L115.951111,31.7362646 C115.951111,29.1901167 114.128421,27.0154086 111.617544,26.5659922 L76.8402339,20.3381323 L76.8402339,16.5345525 C76.8402339,14.6397665 76.0081871,12.8519066 74.5578947,11.6292607 L61.9216374,0.979610895 C60.7410526,-0.0151750973 59.0273684,-0.0156420233 57.8467836,0.979610895 L45.2107602,11.6292607 C43.76,12.8516732 42.9281871,14.6397665 42.9281871,16.5345525 L42.9281871,20.3381323 L8.15134503,26.5659922 C5.64023392,27.0154086 3.81754386,29.1898833 3.81754386,31.7362646 L3.81754386,42.0441245 L1.75555556,42.0441245 C0.786666667,42.0441245 0.00116959064,42.8278599 0.00116959064,43.7950973 C0.00116959064,44.7623346 0.786666667,45.54607 1.75555556,45.54607 L9.38807018,45.54607 C10.3569591,45.54607 11.1424561,44.7623346 11.1424561,43.7950973 C11.1424561,42.8278599 10.3569591,42.0441245 9.38807018,42.0441245 L7.32631579,42.0441245 L7.32631579,36.0100389 L42.9284211,36.0100389 L42.9284211,50.036965 L8.06409357,59.6512062 C5.59789474,60.1349416 3.81754386,62.2886381 3.81754386,64.8053696 L3.81754386,75.1129961 L1.75555556,75.1129961 C0.786666667,75.1129961 0.00116959064,75.8967315 0.00116959064,76.8639689 C0.00116959064,77.8312062 0.786666667,78.6149416 1.75555556,78.6149416 L9.38807018,78.6149416 C10.3569591,78.6149416 11.1424561,77.8312062 11.1424561,76.8639689 C11.1424561,75.8967315 10.3569591,75.1129961 9.38807018,75.1129961 L7.32631579,75.1129961 L7.32631579,69.0789105 L42.2035088,69.0789105 L35.9515789,86.7644358 C35.6292398,87.6763424 36.108538,88.6762646 37.0224561,88.9979767 C37.9136842,89.311751 38.9361404,88.8518288 39.2605848,87.9294163 L42.2516959,79.4680156 L56.7735673,88.9940078 L33.525848,104.151595 L37.1490058,93.9021012 C37.471345,92.9901946 36.9920468,91.9902724 36.0783626,91.6685603 C35.1644444,91.3461479 34.1625731,91.8249805 33.8402339,92.7371206 L28.9059649,106.694942 L28.071345,106.694942 C25.814269,106.694942 23.9777778,108.52786 23.9777778,110.780545 L23.9777778,115.683268 C23.9777778,117.935953 25.814269,119.768872 28.071345,119.768872 L91.697076,119.768872 C93.954152,119.768872 95.7906433,117.935953 95.7906433,115.683268 L95.7906433,110.780545 C95.7906433,108.52786 93.954152,106.694942 91.697076,106.694942 L90.8624561,106.694942 L77.5651462,69.0789105 L112.442339,69.0789105 L112.442339,75.1129961 L110.380351,75.1129961 C109.411462,75.1129961 108.625965,75.8967315 108.625965,76.8639689 C108.625965,77.8312062 109.411462,78.6149416 110.380351,78.6149416 L118.012865,78.6149416 C118.981754,78.6149416 119.767251,77.8312062 119.767251,76.8639689 C119.767251,75.8967315 118.981754,75.1129961 118.012865,75.1129961 Z M42.9284211,65.5771984 L7.32631579,65.5771984 L7.32631579,64.8053696 C7.32631579,63.9564981 7.93380117,63.2318288 8.77076023,63.0817121 C8.82385965,63.0723735 8.87625731,63.0602335 8.92818713,63.0462257 L42.9284211,53.6703502 L42.9284211,65.5771984 Z M42.9284211,32.5080934 L7.32631579,32.5080934 L7.32631579,31.7360311 C7.32631579,30.8871595 7.93380117,30.1627237 8.77099415,30.012607 L42.9284211,23.8958755 L42.9284211,32.5080934 Z M46.437193,16.5345525 C46.437193,15.6733074 46.8154386,14.8606226 47.4748538,14.3049805 L59.8844444,3.84607004 L72.294269,14.3049805 C72.9534503,14.8606226 73.3316959,15.6730739 73.3316959,16.5345525 L73.3316959,20.0516732 L46.437193,20.0516732 L46.437193,16.5345525 Z M46.437193,23.5538521 L73.3316959,23.5538521 L73.3316959,32.5080934 L46.437193,32.5080934 L46.437193,23.5538521 Z M68.402807,49.6188327 L51.365848,49.6188327 L59.8842105,44.8246693 L68.402807,49.6188327 Z M51.365848,36.0100389 L68.402807,36.0100389 L59.8844444,40.8042023 L51.365848,36.0100389 Z M63.4561404,42.8145525 L73.331462,37.2567315 L73.331462,48.3721401 L63.4561404,42.8145525 Z M46.437193,37.2567315 L56.3125146,42.8145525 L46.437193,48.3723735 L46.437193,37.2567315 Z M46.437193,53.1207782 L73.3316959,53.1207782 L73.3316959,65.576965 L46.437193,65.576965 L46.437193,53.1207782 Z M43.4540351,76.0664591 L45.9239766,69.079144 L73.8444444,69.079144 L76.3681871,76.2184436 L59.9773099,86.905214 L43.4540351,76.0664591 Z M59.9716959,91.0921401 L83.7576608,106.695175 L36.0407018,106.695175 L59.9716959,91.0921401 Z M91.697076,110.197121 C92.0194152,110.197121 92.2818713,110.458833 92.2818713,110.780778 L92.2818713,115.683502 C92.2818713,116.005447 92.0194152,116.26716 91.697076,116.26716 L28.071345,116.26716 C27.7490058,116.26716 27.4865497,116.005447 27.4865497,115.683502 L27.4865497,110.780778 C27.4865497,110.458833 27.7490058,110.197121 28.071345,110.197121 L91.697076,110.197121 Z M77.5700585,79.6178988 L86.2348538,104.129416 L63.1754386,89.0031128 L77.5700585,79.6178988 Z M112.442339,65.5771984 L76.8402339,65.5771984 L76.8402339,53.6703502 L110.840234,63.0462257 C110.892164,63.0604669 110.944795,63.0723735 110.997661,63.0817121 C111.83462,63.2318288 112.442105,63.9564981 112.442105,64.8053696 L112.442339,65.5771984 Z" id="Shape"></path>
            </g>
        </g>
    </g>
</svg>