<?xml version="1.0" encoding="UTF-8"?>
<svg width="120px" height="108px" viewBox="0 0 120 108" version="1.1" xmlns="http://www.w3.org/2000/svg" xmlns:xlink="http://www.w3.org/1999/xlink">
    <!-- Generator: Sketch 52.6 (67491) - http://www.bohemiancoding.com/sketch -->
    <title>contract (2)</title>
    <desc>Created with Sketch.</desc>
    <g id="Page-1" stroke="none" stroke-width="1" fill="none" fill-rule="evenodd">
        <g id="ESS-предприятиям_new" transform="translate(-734.000000, -4776.000000)" fill="#FFFFFF">
            <g id="contract-(2)" transform="translate(734.000000, 4776.000000)">
                <path d="M107.345648,-2.15393224e-14 L29.7494939,-2.15393224e-14 C23.0152455,-2.15393224e-14 17.5363739,5.41059417 17.5363739,12.0395179 L17.0363106,80.1524664 L1.89302891,80.1524664 C0.819838057,80.1524664 0,81.0983744 0,82.1681965 L0,91.5421454 C0,100.317335 7.04453441,107.493939 15.5465587,107.887437 L15.5465587,108 L80.8906883,108 L80.8906883,107.873248 C81.3765182,107.893112 81.6706732,108 82.0046813,108 L82.0511767,108 C91.1187374,107.947029 98.428011,100.579351 98.3805668,91.5402537 L98.3805668,31.9641256 L118.106971,31.9641256 C119.180162,31.9641256 120,30.9955157 120,29.9266397 L120,12.7271932 C120.012335,5.73693239 114.35792,0.0501330673 107.345648,-2.15393224e-14 Z M16.3967611,104.125561 L16.3834766,104.125561 C9.47083749,104.125561 3.88663968,98.4302481 3.88663968,91.5402537 L3.88663968,84.0269058 L65.5870445,84.0269058 L65.5870445,91.5080927 C65.5718623,95.868729 67.2997849,100.055318 70.3884109,103.142762 C70.7167258,103.471938 71.0602227,103.641256 71.4113106,104.125561 L16.3967611,104.125561 Z M94.4939271,91.5383618 C94.4939271,98.4302481 88.9638158,104.125561 82.04833,104.125561 L82.0084766,104.125561 C75.0588311,104.075427 69.4575532,98.4368693 69.4736842,91.5090388 L69.4736842,82.1681965 C69.4793777,81.0832399 68.6187374,80.1903027 67.5303644,80.1524664 L20.9229503,80.1524664 L21.4230136,12.0527608 C21.4230136,7.54740057 25.1578314,3.87443946 29.7494939,3.87443946 L98.1708629,3.87443946 C95.9561614,6.29596413 94.4939271,9.35976043 94.4939271,12.7792182 L94.4939271,91.5383618 Z M116.11336,12.7612459 L116.113459,28.0896861 L98.3805668,28.0896861 L98.3805668,12.7754343 C98.3805668,7.92670964 102.426619,3.87443946 107.288715,3.87443946 L107.342801,3.87443946 C112.217232,3.92268083 116.136134,7.88698138 116.11336,12.7470572 L116.11336,12.7612459 Z" id="Shape" fill-rule="nonzero"></path>
                <path d="M45.6329074,47.6832258 L55.6522013,54.5117362 C56.3059844,54.9610426 57.1704199,54.9610426 57.824203,54.5117362 L67.8131325,47.6851177 C71.2832111,45.325077 73.8461538,40.3912205 73.8461538,36.2074693 L73.8461538,22.3915359 C73.8670295,21.6612948 73.4628036,20.9840247 72.8099696,20.6520109 L57.5547192,13.1717698 C57.0195471,12.9069156 56.391384,12.9069156 55.856212,13.1717698 L40.629428,20.631201 C39.976594,20.9632146 39.5733172,21.640485 39.5951417,22.3707258 L39.5951417,36.2074693 C39.5951417,40.3912205 42.1637779,45.325077 45.6329074,47.6832258 Z M43.4817814,23.5795964 L56.7206478,17.0679652 L69.9595142,23.5975687 L69.9595142,36.2074693 C69.9595142,39.1255956 68.0408653,42.8373389 65.6202556,44.4822729 L56.6978745,50.5654077 L47.8106021,44.483219 C45.3899925,42.8363931 43.4817814,39.1255956 43.4817814,36.2074693 L43.4817814,23.5795964 Z" id="Shape" fill-rule="nonzero"></path>
                <path d="M53.4337045,39.1322168 C53.7961793,39.5011211 54.291498,39.7101667 54.80959,39.7130045 L54.8143346,39.7130045 C55.3305289,39.7111128 55.8248988,39.5049047 56.1883224,39.1397841 L63.9189017,31.4306334 C64.6789601,30.673907 64.6789601,29.4461182 63.9198508,28.6893917 C63.1616903,27.9317194 61.9300353,27.9317194 61.170926,28.6884458 L54.8209768,35.0175168 L52.282705,32.4626192 C51.5264424,31.7021091 50.2957363,31.6964335 49.5328314,32.4503222 C48.7699266,33.2042111 48.7651822,34.4310538 49.520496,35.1915639 L53.4337045,39.1322168 Z" id="Path"></path>
                <path d="M80.8906883,60.0538117 L34.2510121,60.0538117 C33.1778213,60.0538117 32.3076923,60.9212093 32.3076923,61.9910314 C32.3076923,63.0608535 33.1778213,63.9282511 34.2510121,63.9282511 L80.8906883,63.9282511 C81.9638791,63.9282511 82.8340081,63.0608535 82.8340081,61.9910314 C82.8340081,60.9212093 81.9638791,60.0538117 80.8906883,60.0538117 Z" id="Path"></path>
                <path d="M80.8906883,69.0134529 L34.2510121,69.0134529 C33.1778213,69.0134529 32.3076923,69.8808506 32.3076923,70.9506726 C32.3076923,72.0204947 33.1778213,72.8878924 34.2510121,72.8878924 L80.8906883,72.8878924 C81.9638791,72.8878924 82.8340081,72.0204947 82.8340081,70.9506726 C82.8340081,69.8808506 81.9638791,69.0134529 80.8906883,69.0134529 Z" id="Path"></path>
            </g>
        </g>
    </g>
</svg>