<?xml version="1.0" encoding="UTF-8"?>
<svg width="120px" height="120px" viewBox="0 0 120 120" version="1.1" xmlns="http://www.w3.org/2000/svg" xmlns:xlink="http://www.w3.org/1999/xlink">
    <!-- Generator: Sketch 52.6 (67491) - http://www.bohemiancoding.com/sketch -->
    <title>price (1)</title>
    <desc>Created with Sketch.</desc>
    <g id="Page-1" stroke="none" stroke-width="1" fill="none" fill-rule="evenodd">
        <g id="ESS-предприятиям_new" transform="translate(-1400.000000, -4770.000000)" fill="#FFFFFF">
            <g id="price-(1)" transform="translate(1400.000000, 4770.000000)">
                <path d="M36.0237154,32.3003953 C36.4268775,32.3003953 36.8300395,32.1343874 37.1146245,31.8498024 C37.3992095,31.5652174 37.5652174,31.1620553 37.5652174,30.7588933 C37.5652174,30.3557312 37.3992095,29.9525692 37.1146245,29.6679842 C36.8300395,29.3833992 36.4268775,29.2173913 36.0237154,29.2173913 C35.6205534,29.2173913 35.2173913,29.3833992 34.9328063,29.6679842 C34.6482213,29.9525692 34.4822134,30.3557312 34.4822134,30.7588933 C34.4822134,31.1620553 34.6482213,31.5652174 34.9328063,31.8498024 C35.2173913,32.1343874 35.6205534,32.3003953 36.0237154,32.3003953 Z" id="Path"></path>
                <path d="M119.43083,9.7944664 L115.920949,6.26086957 L119.43083,2.75098814 C120.023715,2.15810277 120.023715,1.16205534 119.43083,0.56916996 C118.837945,-0.023715415 117.841897,-0.023715415 117.249012,0.56916996 L113.73913,4.07905138 L110.252964,0.616600791 C109.968379,0.33201581 109.565217,0.166007905 109.162055,0.166007905 L69.0355731,0.14229249 C66.0711462,0.14229249 63.3201581,1.28063241 61.2332016,3.36758893 L41.1936759,23.4071146 C40.9090909,23.6916996 40.743083,24.0948617 40.743083,24.4980237 C40.743083,24.9011858 40.9090909,25.3043478 41.1936759,25.5889328 C41.7865613,26.1818182 42.7826087,26.1818182 43.3754941,25.5889328 L63.4150198,5.54940711 C64.9090909,4.05533597 66.9249012,3.22529644 69.0355731,3.22529644 L108.545455,3.24901186 L111.581028,6.28458498 L101.715415,16.1264822 L101.16996,15.7944664 C97.6600791,13.7075099 93.201581,14.2529644 90.3320158,17.1225296 C88.6482213,18.8063241 87.7233202,21.0355731 87.7233202,23.4071146 C87.7233202,25.7786561 88.6482213,28.0079051 90.3320158,29.6916996 C92.0158103,31.3754941 94.2450593,32.3003953 96.6166008,32.3003953 C98.9881423,32.3003953 101.217391,31.3754941 102.901186,29.6916996 C105.770751,26.8221344 106.339921,22.3636364 104.252964,18.8537549 L103.920949,18.3083004 L113.762846,8.46640316 L116.822134,11.5256917 L116.798419,50.9644269 C116.798419,53.0988142 115.968379,55.0909091 114.474308,56.5849802 L56.6086957,114.450593 C55.1146245,115.944664 53.0988142,116.774704 50.9881423,116.774704 C48.8774704,116.774704 46.8616601,115.944664 45.3675889,114.450593 L5.5256917,74.6561265 C4.03162055,73.1620553 3.20158103,71.1462451 3.20158103,69.0355731 C3.20158103,66.9249012 4.03162055,64.9090909 5.5256917,63.4150198 L31.0909091,37.8498024 C31.3754941,37.5652174 31.541502,37.1620553 31.541502,36.7588933 C31.541502,36.3557312 31.3754941,35.9525692 31.0909091,35.6679842 C30.7826087,35.3596838 30.4031621,35.2173913 30,35.2173913 C29.5968379,35.2173913 29.2173913,35.3596838 28.9090909,35.6679842 L3.34387352,61.2332016 C1.256917,63.3201581 0.118577075,66.0948617 0.118577075,69.0355731 C0.118577075,71.9762846 1.256917,74.7509881 3.34387352,76.8379447 L43.1383399,116.632411 C45.2252964,118.719368 48,119.857708 50.9407115,119.857708 C53.8814229,119.857708 56.6561265,118.719368 58.743083,116.632411 L116.608696,58.7667984 C118.695652,56.6798419 119.833992,53.9051383 119.833992,50.9644269 L119.857708,10.8853755 C119.881423,10.4822134 119.715415,10.1027668 119.43083,9.7944664 Z M100.695652,27.5098814 C99.6047431,28.6007905 98.1343874,29.2173913 96.5928854,29.2173913 C95.0513834,29.2173913 93.5810277,28.6245059 92.4901186,27.5098814 C91.3992095,26.4189723 90.7826087,24.9486166 90.7826087,23.4071146 C90.7826087,21.8656126 91.3754941,20.3952569 92.4901186,19.3043478 C93.5810277,18.2134387 95.0513834,17.5968379 96.5928854,17.5968379 C97.1620553,17.5968379 97.7075099,17.6679842 98.2529644,17.8339921 L99.5810277,18.2371542 L95.8577075,21.9604743 C95.2648221,22.5533597 95.2648221,23.5494071 95.8577075,24.1422925 C96.1422925,24.4268775 96.5454545,24.5928854 96.9486166,24.5928854 C97.3517787,24.5928854 97.7549407,24.4268775 98.0395257,24.1422925 L101.762846,20.4189723 L102.166008,21.770751 C102.758893,23.8102767 102.189723,26.0158103 100.695652,27.5098814 Z" id="Shape" fill-rule="nonzero"></path>
                <path d="M14.0158103,69.770751 C14.0158103,72.0474308 14.916996,74.2055336 16.5296443,75.8181818 L44.1581028,103.44664 C45.770751,105.059289 47.9288538,105.960474 50.2055336,105.960474 C52.4822134,105.960474 54.6403162,105.059289 56.2529644,103.44664 L99.9841897,59.715415 C101.596838,58.1027668 102.498024,55.944664 102.498024,53.6679842 C102.498024,51.3913043 101.596838,49.2332016 99.9841897,47.6205534 L72.3557312,19.9920949 C70.743083,18.3794466 68.5849802,17.4782609 66.3083004,17.4782609 C64.0079051,17.4782609 61.8735178,18.3557312 60.2608696,19.9920949 L16.5296443,63.7233202 C14.916996,65.3359684 14.0158103,67.4940711 14.0158103,69.770751 Z M18.7114625,65.9051383 L62.4426877,22.173913 C63.486166,21.1304348 64.8616601,20.5612648 66.3083004,20.5612648 C67.7549407,20.5612648 69.1541502,21.1304348 70.173913,22.173913 L97.826087,49.8023715 C98.8695652,50.8458498 99.4387352,52.2213439 99.4387352,53.6679842 C99.4387352,55.1146245 98.8695652,56.513834 97.826087,57.5335968 L54.0948617,101.288538 C53.0513834,102.332016 51.6758893,102.901186 50.229249,102.901186 C48.7588933,102.901186 47.3833992,102.332016 46.3636364,101.288538 L18.7114625,73.6600791 C17.6679842,72.6166008 17.0988142,71.2411067 17.0988142,69.7944664 C17.0988142,68.3241107 17.6679842,66.9486166 18.7114625,65.9051383 Z" id="Shape" fill-rule="nonzero"></path>
                <path d="M50.3478261,71.1936759 C50.7509881,71.1936759 51.1541502,71.027668 51.4387352,70.743083 L53.5256917,68.6561265 L54.0948617,69.0118577 C55.541502,69.8893281 57.1541502,70.3636364 58.7905138,70.3636364 C60.9249012,70.3636364 62.8932806,69.5573123 64.3399209,68.1106719 C67.5177866,64.9328063 67.3043478,59.5731225 63.8656126,56.1343874 L63.8181818,56.0869565 C62.7272727,54.9960474 62.1106719,53.5968379 62.0395257,52.1501976 C61.9683794,50.7272727 62.4426877,49.4466403 63.3913043,48.5217391 C65.2885375,46.6245059 68.513834,46.743083 70.743083,48.7588933 L70.7667984,48.7588933 L71.0039526,48.9960474 C73.2332016,51.2252964 73.4466403,54.6403162 71.4782609,56.6086957 C70.8853755,57.201581 70.8853755,58.1976285 71.4782609,58.7905138 C71.7628458,59.0750988 72.1660079,59.2411067 72.56917,59.2411067 C72.972332,59.2411067 73.3754941,59.0750988 73.6600791,58.7905138 C76.2924901,56.1581028 76.6482213,51.9367589 74.5375494,48.5217391 L74.1818182,47.9525692 L76.0079051,46.1264822 C76.2924901,45.8418972 76.458498,45.4387352 76.458498,45.0355731 C76.458498,44.6324111 76.2924901,44.229249 76.0079051,43.944664 C75.4150198,43.3517787 74.4189723,43.3517787 73.826087,43.944664 L72,45.770751 L71.43083,45.4150198 C68.0158103,43.3043478 63.7944664,43.6837945 61.1620553,46.2924901 C59.5968379,47.8577075 58.8142292,49.9683794 58.9090909,52.2687747 C59.027668,54.4980237 59.9762846,56.6324111 61.6363636,58.2924901 C63.8656126,60.5217391 64.0790514,63.9367589 62.1106719,65.9051383 C60.1422925,67.8735178 56.7272727,67.6600791 54.4980237,65.43083 C52.2687747,63.201581 52.055336,59.7865613 54.0237154,57.8181818 C54.6166008,57.2252964 54.6166008,56.229249 54.0237154,55.6363636 C53.715415,55.3280632 53.3359684,55.1857708 52.9328063,55.1857708 C52.5296443,55.1857708 52.1501976,55.3280632 51.8418972,55.6363636 C49.2094862,58.2687747 48.8537549,62.4901186 50.9644269,65.9051383 L51.3201581,66.4743083 L49.2332016,68.5612648 C48.6403162,69.1541502 48.6403162,70.1501976 49.2332016,70.743083 C49.541502,71.0513834 49.9209486,71.1936759 50.3478261,71.1936759 Z" id="Path"></path>
                <path d="M49.8498024,88.8142292 C50.1343874,89.0988142 50.5375494,89.2648221 50.9407115,89.2648221 C51.3438735,89.2648221 51.7470356,89.0988142 52.0316206,88.8142292 C52.6245059,88.2213439 52.6245059,87.2252964 52.0316206,86.6324111 L39.8418972,74.4664032 C39.2490119,73.8735178 38.2529644,73.8735178 37.6600791,74.4664032 C37.0671937,75.0592885 37.0671937,76.055336 37.6600791,76.6482213 L49.8498024,88.8142292 Z" id="Path"></path>
                <path d="M32.2529644,70.6007905 C32.6561265,70.6007905 33.0592885,70.4347826 33.3438735,70.1501976 C33.6284585,69.8656126 33.7944664,69.4624506 33.7944664,69.0592885 C33.7944664,68.6561265 33.6284585,68.2529644 33.3438735,67.9683794 C33.0592885,67.6837945 32.6561265,67.5177866 32.2529644,67.5177866 C31.8498024,67.5177866 31.4466403,67.6837945 31.1620553,67.9683794 C30.8774704,68.2529644 30.7114625,68.6561265 30.7114625,69.0592885 C30.7114625,69.4624506 30.8774704,69.8656126 31.1620553,70.1501976 C31.4703557,70.4347826 31.8498024,70.6007905 32.2529644,70.6007905 Z" id="Path"></path>
            </g>
        </g>
    </g>
</svg>