<?xml version="1.0" encoding="UTF-8"?>
<svg width="192px" height="205px" viewBox="0 0 192 205" version="1.1" xmlns="http://www.w3.org/2000/svg" xmlns:xlink="http://www.w3.org/1999/xlink">
    <!-- Generator: Sketch 52.6 (67491) - http://www.bohemiancoding.com/sketch -->
    <title>icon_1</title>
    <desc>Created with Sketch.</desc>
    <g id="Page-1" stroke="none" stroke-width="1" fill="none" fill-rule="evenodd" opacity="0.5">
        <g id="ESS-Страхование" transform="translate(-420.000000, -3596.000000)" fill="#FFFFFF" fill-rule="nonzero">
            <g id="icon_1" transform="translate(420.000000, 3596.000000)">
                <path d="M140.163743,70.9614035 L140.088889,69.8011696 C138.74152,52.1356725 130.507602,41.0573099 123.246784,31.251462 C116.509942,22.194152 110.708772,14.3719298 110.708772,2.84444444 C110.708772,1.90877193 110.184795,1.08538012 109.361404,0.63625731 C108.538012,0.224561404 107.527485,0.261988304 106.778947,0.823391813 C95.8877193,8.64561404 86.7555556,21.7824561 83.6116959,34.3204678 C81.4035088,43.0409357 81.1040936,52.8842105 81.0666667,59.3590643 C70.9988304,57.225731 68.7157895,42.1426901 68.6783626,41.9929825 C68.5660819,41.2070175 68.0795322,40.5333333 67.405848,40.1590643 C66.6947368,39.7847953 65.871345,39.7473684 65.1602339,40.1216374 C64.6362573,40.3836257 52.2105263,46.7087719 51.4619883,71.9345029 C51.4245614,72.7578947 51.4245614,73.6187135 51.4245614,74.4421053 C51.4245614,98.9567251 71.3730994,118.905263 95.8877193,118.905263 C120.402339,118.905263 140.350877,98.994152 140.350877,74.4795322 C140.350877,73.2444444 140.238596,72.1216374 140.163743,70.9614035 Z M95.8877193,114.002339 C87.728655,114.002339 81.0666667,106.928655 81.0666667,98.2081871 C81.0666667,97.9087719 81.0666667,97.6093567 81.1040936,97.2350877 C81.2163743,93.5672515 81.8900585,91.0596491 82.6760234,89.3754386 C84.0982456,92.4444444 86.6807018,95.2888889 90.8350877,95.2888889 C92.1824561,95.2888889 93.3052632,94.1660819 93.3052632,92.8187135 C93.3052632,89.3005848 93.380117,85.2584795 94.2409357,81.5906433 C95.0269006,78.3345029 96.8982456,74.8912281 99.2561404,72.1216374 C100.304094,75.7146199 102.362573,78.6339181 104.346199,81.4783626 C107.190643,85.5578947 110.147368,89.7497076 110.671345,96.8982456 C110.708772,97.3099415 110.746199,97.7590643 110.746199,98.2081871 C110.708772,106.928655 104.046784,114.002339 95.8877193,114.002339 Z M111.494737,110.783626 C114.039766,107.302924 115.649123,102.961404 115.649123,98.2081871 C115.649123,97.6093567 115.611696,97.0853801 115.536842,96.0748538 C114.938012,88.0280702 111.45731,83.0128655 108.350877,78.6339181 C105.730994,74.8912281 103.447953,71.6725146 103.447953,67.0690058 C103.447953,66.1333333 102.923977,65.2725146 102.063158,64.8608187 C101.239766,64.4491228 100.22924,64.5239766 99.4807018,65.0853801 C94.7274854,68.6783626 90.7976608,74.7040936 89.4128655,80.4304094 C88.7017544,83.3871345 88.477193,86.5684211 88.3649123,89.1883041 C86.6432749,87.354386 86.1192982,83.948538 86.1192982,83.8736842 C86.0070175,83.0877193 85.5204678,82.3766082 84.8093567,82.0023392 C84.0982456,81.6280702 83.2748538,81.6280702 82.5263158,82.0023392 C81.8900585,82.3391813 76.425731,85.445614 76.1263158,96.9730994 C76.0888889,97.3473684 76.0888889,97.7590643 76.0888889,98.1333333 C76.0888889,102.88655 77.6608187,107.190643 80.2432749,110.708772 C66.2081871,104.645614 56.3274854,90.6853801 56.3274854,74.4046784 C56.3274854,73.6561404 56.3274854,72.9450292 56.3649123,72.1216374 C56.7766082,57.3005848 61.5298246,49.9649123 64.6362573,46.7461988 C66.8070175,54.4561404 72.4584795,64.5614035 83.4994152,64.5614035 C84.8467836,64.5614035 85.9695906,63.4385965 85.9695906,62.0912281 C85.9695906,53.819883 86.1567251,44.2760234 88.3649123,35.5181287 C90.8725146,25.6 97.7590643,14.8959064 106.030409,7.67251462 C107.415205,18.2643275 113.178947,26.0116959 119.242105,34.1707602 C126.42807,43.8643275 133.876023,53.8947368 135.148538,70.1005848 L135.223392,71.2982456 C135.298246,72.3087719 135.373099,73.3567251 135.373099,74.4421053 C135.410526,90.722807 125.529825,104.720468 111.494737,110.783626 Z" id="Shape"></path>
                <path d="M191.700585,137.880702 C191.700585,137.843275 191.663158,137.805848 191.663158,137.730994 C191.588304,137.506433 191.476023,137.281871 191.326316,137.094737 C191.326316,137.094737 191.326316,137.05731 191.288889,137.05731 L161.309942,96.7111111 C160.823392,96.0374269 160.037427,95.6631579 159.214035,95.6631579 L143.307602,95.6631579 C142.484211,97.4596491 141.585965,99.2187135 140.575439,100.902924 L157.866667,100.902924 L167.335673,113.62807 L134.175439,113.62807 L132.977778,110.783626 C129.946199,113.890058 126.540351,116.622222 122.797661,118.867836 L130.65731,118.867836 L137.805848,136.009357 L98.2830409,136.009357 L98.2830409,126.690058 L97.5719298,126.390643 C96.4491228,126.42807 95.3263158,126.42807 94.1660819,126.390643 L93.005848,126.877193 L93.005848,135.97193 L53.445614,135.97193 L60.594152,118.830409 L68.902924,118.830409 C65.0479532,116.472515 61.5298246,113.665497 58.4233918,110.409357 L57.1134503,113.590643 L24.6269006,113.590643 L34.0959064,100.865497 L51.1625731,100.865497 C50.1520468,99.1812865 49.2538012,97.4222222 48.4304094,95.625731 L32.748538,95.625731 C31.9251462,95.625731 31.1391813,96 30.6526316,96.6736842 L0.711111111,137.05731 C0.711111111,137.05731 0.711111111,137.094737 0.673684211,137.094737 C0.523976608,137.281871 0.411695906,137.506433 0.336842105,137.730994 C0.336842105,137.768421 0.299415205,137.805848 0.299415205,137.880702 C0.224561404,138.105263 0.187134503,138.367251 0.187134503,138.62924 L0.187134503,149.033918 C0.187134503,153.787135 4.04210526,157.642105 8.79532164,157.642105 L80.6549708,157.642105 L80.6549708,173.847953 L71.2233918,173.847953 C70.5871345,173.847953 69.9883041,174.072515 69.5391813,174.484211 L54.5684211,187.209357 C53.9695906,187.695906 53.6327485,188.444444 53.6327485,189.192982 L53.6327485,201.918129 C53.6327485,203.377778 54.7929825,204.538012 56.2526316,204.538012 L135.784795,204.538012 C137.244444,204.538012 138.404678,203.377778 138.404678,201.918129 L138.404678,189.192982 C138.404678,188.407018 138.067836,187.695906 137.469006,187.209357 L122.498246,174.484211 C122.011696,174.072515 121.412865,173.847953 120.814035,173.847953 L111.382456,173.847953 L111.382456,157.642105 L183.242105,157.642105 C187.995322,157.642105 191.850292,153.787135 191.850292,149.033918 L191.850292,138.62924 C191.812865,138.367251 191.775439,138.105263 191.700585,137.880702 Z M136.383626,118.867836 L171.265497,118.867836 L183.990643,136.009357 L143.569591,136.009357 L136.383626,118.867836 Z M20.7345029,118.867836 L54.9426901,118.867836 L47.794152,136.009357 L8.00935673,136.009357 L20.7345029,118.867836 Z M119.840936,179.087719 L133.164912,190.42807 L133.164912,199.335673 L58.8350877,199.335673 L58.8350877,190.42807 L72.1590643,179.087719 L119.840936,179.087719 Z M85.8947368,173.847953 L85.8947368,157.642105 L106.105263,157.642105 L106.105263,173.847953 L85.8947368,173.847953 Z M186.573099,149.033918 C186.573099,150.905263 185.076023,152.402339 183.204678,152.402339 L8.79532164,152.402339 C6.92397661,152.402339 5.42690058,150.905263 5.42690058,149.033918 L5.42690058,141.249123 L186.573099,141.249123 L186.573099,149.033918 Z" id="Shape"></path>
            </g>
        </g>
    </g>
</svg>