<?xml version="1.0" encoding="UTF-8"?>
<svg width="192px" height="205px" viewBox="0 0 192 205" version="1.1" xmlns="http://www.w3.org/2000/svg" xmlns:xlink="http://www.w3.org/1999/xlink">
    <!-- Generator: Sketch 52.6 (67491) - http://www.bohemiancoding.com/sketch -->
    <title>icon_2</title>
    <desc>Created with Sketch.</desc>
    <g id="Page-1" stroke="none" stroke-width="1" fill="none" fill-rule="evenodd" opacity="0.5">
        <g id="ESS-Страхование" transform="translate(-864.000000, -3596.000000)" fill="#FFFFFF" fill-rule="nonzero">
            <g id="icon_2" transform="translate(864.000000, 3596.000000)">
                <path d="M150.007018,123.134503 C149.520468,123.134503 149.033918,122.984795 148.622222,122.722807 L102.025731,91.8830409 L87.4292398,117.557895 C86.9052632,118.493567 85.7824561,118.980117 84.7345029,118.755556 C83.6491228,118.530994 82.8631579,117.632749 82.7508772,116.547368 L80.2432749,89.225731 L50.9005848,105.207018 C49.9274854,105.730994 48.6923977,105.54386 47.9064327,104.757895 C47.1204678,103.97193 46.9707602,102.736842 47.5321637,101.763743 L64.6736842,72.2339181 L49.328655,70.1754386 C48.2807018,70.025731 47.419883,69.2397661 47.1953216,68.1918129 C46.9707602,67.1438596 47.4573099,66.0959064 48.3555556,65.5345029 L61.380117,57.8245614 L40.5707602,41.7309942 C39.7099415,41.0573099 39.3730994,39.897076 39.7847953,38.8491228 C40.1964912,37.8011696 41.2070175,37.1649123 42.3298246,37.2397661 L68.4912281,39.2608187 L65.1602339,27.9953216 C64.8608187,27.0222222 65.1976608,26.0116959 65.9836257,25.3754386 C66.7695906,24.7391813 67.8175439,24.6269006 68.7157895,25.0760234 L78.9707602,30.3532164 L80.5052632,2.39532164 C80.580117,1.27251462 81.3660819,0.336842105 82.4888889,0.0748538012 C83.574269,-0.149707602 84.697076,0.374269006 85.2210526,1.34736842 L99.4807018,28.594152 L108.874854,19.8736842 C109.623392,19.2 110.708772,19.0128655 111.644444,19.4245614 C112.580117,19.8362573 113.14152,20.7719298 113.104094,21.819883 L112.654971,32.4865497 L143.94386,18.4140351 C144.991813,17.9649123 146.189474,18.2269006 146.900585,19.1251462 C147.611696,20.0233918 147.649123,21.2584795 146.975439,22.194152 L126.802339,50.0023392 L146.638596,53.2584795 C147.68655,53.445614 148.509942,54.2690058 148.697076,55.3169591 C148.884211,56.3649123 148.360234,57.4128655 147.424561,57.9368421 L123.284211,71.2233918 L152.140351,119.354386 C152.739181,120.364912 152.552047,121.637427 151.728655,122.460819 C151.279532,122.909942 150.643275,123.134503 150.007018,123.134503 Z M101.202339,85.819883 C101.688889,85.819883 102.175439,85.9695906 102.587135,86.2315789 L142.222222,112.467836 L117.707602,71.5602339 C117.37076,70.9614035 117.25848,70.2877193 117.445614,69.6140351 C117.632749,68.9403509 118.044444,68.4163743 118.643275,68.0795322 L138.704094,57.0385965 L122.011696,54.2690058 C121.150877,54.1192982 120.439766,53.5578947 120.102924,52.7345029 C119.766082,51.948538 119.878363,51.0128655 120.402339,50.3017544 L137.431579,26.8350877 L111.008187,38.7368421 C110.222222,39.1111111 109.28655,38.9988304 108.575439,38.5122807 C107.864327,38.025731 107.452632,37.2023392 107.490058,36.3415205 L107.826901,27.6959064 L100.491228,34.5076023 C99.9298246,35.0315789 99.1438596,35.2561404 98.3578947,35.1438596 C97.5719298,34.994152 96.9356725,34.5450292 96.5614035,33.8339181 L84.9964912,11.7146199 L83.7239766,34.4701754 C83.6865497,35.3309942 83.2,36.0795322 82.451462,36.4912281 C81.702924,36.902924 80.8046784,36.9403509 80.0561404,36.528655 L71.5602339,32.1497076 L74.2549708,41.2818713 C74.4795322,42.0678363 74.3298246,42.928655 73.805848,43.5649123 C73.2818713,44.2011696 72.4959064,44.5380117 71.6725146,44.5005848 L50.2269006,42.8538012 L67.3684211,56.1403509 C68.0421053,56.6643275 68.3789474,57.4502924 68.3415205,58.2736842 C68.3040936,59.097076 67.8175439,59.845614 67.1064327,60.2573099 L57.1134503,66.1707602 L69.0152047,67.7426901 C69.8385965,67.8549708 70.5497076,68.3789474 70.9239766,69.1274854 C71.2982456,69.8760234 71.2608187,70.774269 70.8491228,71.4853801 L56.2900585,96.5614035 L81.1415205,83.0128655 C81.8900585,82.6011696 82.7883041,82.6011696 83.4994152,83.0128655 C84.2479532,83.4245614 84.7345029,84.1356725 84.8093567,84.9964912 L86.9426901,108.163743 L98.9567251,87.0549708 C99.2935673,86.4561404 99.8923977,86.0070175 100.566082,85.8573099 C100.790643,85.819883 100.977778,85.819883 101.202339,85.819883 Z" id="Shape"></path>
                <path d="M191.812865,137.506433 C191.812865,137.469006 191.775439,137.431579 191.775439,137.356725 C191.700585,137.132164 191.588304,136.907602 191.438596,136.720468 C191.438596,136.720468 191.438596,136.683041 191.40117,136.683041 L161.422222,96.3368421 C160.935673,95.6631579 160.149708,95.2888889 159.326316,95.2888889 L146.414035,95.2888889 L149.557895,100.528655 L158.016374,100.528655 L167.48538,113.253801 L157.230409,113.253801 L158.577778,115.499415 C159.139181,116.435088 159.550877,117.445614 159.775439,118.493567 L171.377778,118.493567 L184.102924,135.635088 L143.681871,135.635088 L139.527485,125.679532 L131.667836,120.477193 L137.992982,135.635088 L98.4327485,135.635088 L98.4327485,118.493567 L128.711111,118.493567 L120.814035,113.253801 L98.5450292,113.253801 L93.9415205,121.263158 C93.7169591,121.674854 93.4549708,122.049123 93.1929825,122.385965 L93.1929825,135.597661 L53.5953216,135.597661 L60.7438596,118.45614 L75.4900585,118.45614 C75.4152047,118.044444 75.3403509,117.632749 75.302924,117.221053 L74.928655,113.216374 L62.9146199,113.216374 L66.1707602,105.356725 L58.8350877,109.361404 L57.225731,113.216374 L24.7391813,113.216374 L34.2081871,100.491228 L40.0093567,100.491228 C40.2339181,99.6304094 40.5707602,98.8070175 41.019883,98.0210526 L42.6292398,95.251462 L32.8982456,95.251462 C32.0748538,95.251462 31.2888889,95.625731 30.8023392,96.2994152 L0.823391813,136.683041 C0.823391813,136.683041 0.823391813,136.720468 0.785964912,136.720468 C0.63625731,136.907602 0.523976608,137.132164 0.449122807,137.356725 C0.449122807,137.394152 0.411695906,137.431579 0.411695906,137.506433 C0.336842105,137.730994 0.299415205,137.992982 0.299415205,138.254971 L0.299415205,148.659649 C0.299415205,153.412865 4.15438596,157.267836 8.90760234,157.267836 L80.7672515,157.267836 L80.7672515,173.473684 L71.3356725,173.473684 C70.6994152,173.473684 70.1005848,173.698246 69.651462,174.109942 L54.6807018,186.835088 C54.0818713,187.321637 53.7450292,188.070175 53.7450292,188.818713 L53.7450292,201.54386 C53.7450292,203.003509 54.9052632,204.163743 56.3649123,204.163743 L135.897076,204.163743 C137.356725,204.163743 138.516959,203.003509 138.516959,201.54386 L138.516959,188.818713 C138.516959,188.032749 138.180117,187.321637 137.581287,186.835088 L122.610526,174.109942 C122.123977,173.698246 121.525146,173.473684 120.926316,173.473684 L111.494737,173.473684 L111.494737,157.267836 L183.354386,157.267836 C188.107602,157.267836 191.962573,153.412865 191.962573,148.659649 L191.962573,138.254971 C191.925146,137.992982 191.887719,137.730994 191.812865,137.506433 Z M20.8842105,118.493567 L55.0923977,118.493567 L47.9064327,135.635088 L8.15906433,135.635088 L20.8842105,118.493567 Z M119.953216,178.71345 L133.277193,190.053801 L133.277193,198.961404 L58.9847953,198.961404 L58.9847953,190.053801 L72.3087719,178.71345 L119.953216,178.71345 Z M86.0444444,173.473684 L86.0444444,157.267836 L106.254971,157.267836 L106.254971,173.473684 L86.0444444,173.473684 Z M186.722807,148.659649 C186.722807,150.530994 185.225731,152.02807 183.354386,152.02807 L8.94502924,152.02807 C7.07368421,152.02807 5.57660819,150.530994 5.57660819,148.659649 L5.57660819,140.874854 L186.722807,140.874854 L186.722807,148.659649 Z" id="Shape"></path>
            </g>
        </g>
    </g>
</svg>