<?xml version="1.0" encoding="UTF-8"?>
<svg width="192px" height="204px" viewBox="0 0 192 204" version="1.1" xmlns="http://www.w3.org/2000/svg" xmlns:xlink="http://www.w3.org/1999/xlink">
    <!-- Generator: Sketch 52.6 (67491) - http://www.bohemiancoding.com/sketch -->
    <title>icon_3</title>
    <desc>Created with Sketch.</desc>
    <g id="Page-1" stroke="none" stroke-width="1" fill="none" fill-rule="evenodd" opacity="0.5">
        <g id="ESS-Страхование" transform="translate(-1307.000000, -3597.000000)" fill="#FFFFFF">
            <g id="icon_3" transform="translate(1307.000000, 3597.000000)">
                <g id="Group" transform="translate(50.900585, 0.000000)">
                    <path d="M39.522807,59.3590643 L24.8888889,62.2035088 C23.5040936,62.4654971 22.605848,63.8128655 22.8678363,65.1976608 C23.1298246,66.5824561 24.477193,67.4807018 25.8619883,67.2187135 L40.4959064,64.374269 C40.9824561,64.2994152 41.394152,64.0748538 41.7309942,63.7754386 C42.3672515,63.2140351 42.7040936,62.3157895 42.5169591,61.380117 C42.2549708,59.9953216 40.9076023,59.0596491 39.522807,59.3590643 Z" id="Path"></path>
                    <path d="M47.5321637,45.2865497 L32.8982456,48.1309942 C31.5134503,48.3929825 30.6152047,49.7403509 30.877193,51.1251462 C31.1391813,52.5099415 32.4865497,53.4081871 33.871345,53.1461988 L48.5052632,50.3017544 C48.9918129,50.2269006 49.4035088,50.0023392 49.7403509,49.702924 C50.3766082,49.1415205 50.7134503,48.2432749 50.5263158,47.3076023 C50.2643275,45.922807 48.9169591,45.0245614 47.5321637,45.2865497 Z" id="Path"></path>
                    <path d="M55.5040936,31.2140351 L40.8701754,34.0584795 C39.4853801,34.3204678 38.5871345,35.6678363 38.8491228,37.0526316 C39.1111111,38.4374269 40.4584795,39.3356725 41.8432749,39.0736842 L56.477193,36.2292398 C56.9637427,36.154386 57.3754386,35.9298246 57.7122807,35.6304094 C58.348538,35.0690058 58.6853801,34.1707602 58.4982456,33.2350877 C58.2362573,31.8502924 56.8888889,30.9520468 55.5040936,31.2140351 Z" id="Path"></path>
                    <path d="M63.5134503,17.1415205 L48.8795322,19.9859649 C47.4947368,20.2479532 46.5964912,21.5953216 46.8584795,22.980117 C47.1204678,24.3649123 48.4678363,25.2631579 49.8526316,25.0011696 L64.4865497,22.1567251 C64.9730994,22.0818713 65.3847953,21.8573099 65.7216374,21.5578947 C66.3578947,20.9964912 66.6947368,20.0982456 66.5076023,19.1625731 C66.2081871,17.7777778 64.8982456,16.8795322 63.5134503,17.1415205 Z" id="Path"></path>
                    <path d="M88.2900585,0.898245614 C88.102924,0.748538012 87.9157895,0.598830409 87.6912281,0.486549708 C87.5789474,0.411695906 87.4666667,0.374269006 87.3169591,0.336842105 C87.0923977,0.261988304 86.8678363,0.261988304 86.605848,0.224561404 C86.4935673,0.224561404 86.4187135,0.187134503 86.3438596,0.187134503 C86.3064327,0.187134503 86.2690058,0.224561404 86.2315789,0.224561404 C86.194152,0.224561404 86.1192982,0.224561404 86.0818713,0.224561404 L45.7730994,8.98245614 C45.0619883,9.13216374 44.4631579,9.54385965 44.1263158,10.180117 L0.374269006,83.9111111 C0.299415205,84.0233918 0.299415205,84.1356725 0.261988304,84.2479532 C0.224561404,84.322807 0.187134503,84.3602339 0.149707602,84.4350877 C0.149707602,84.5099415 0.149707602,84.5473684 0.149707602,84.6222222 C0.0748538012,84.9590643 0.0374269006,85.2959064 0.112280702,85.6327485 C0.112280702,85.7076023 0.112280702,85.7450292 0.112280702,85.819883 C0.187134503,86.194152 0.374269006,86.5684211 0.63625731,86.8678363 C0.673684211,86.9052632 0.63625731,86.9426901 0.673684211,86.9426901 L28.0327485,117.37076 C28.6315789,118.044444 29.5672515,118.34386 30.4654971,118.156725 L70.774269,109.436257 C71.2233918,109.323977 71.5976608,109.136842 71.9345029,108.837427 C72.1216374,108.687719 72.3087719,108.463158 72.4210526,108.238596 L116.173099,34.5076023 C116.734503,33.5345029 116.622222,32.3368421 115.873684,31.4760234 L88.5146199,1.04795322 C88.4397661,0.973099415 88.3649123,0.973099415 88.2900585,0.898245614 Z M65.3847953,105.356725 L30.8397661,112.842105 L7.41052632,86.7929825 L41.9555556,79.3076023 L65.3847953,105.356725 Z M41.2444444,74.2175439 L7.78479532,81.4783626 L47.9438596,13.7356725 L81.4035088,6.4748538 L41.2444444,74.2175439 Z M110.821053,33.497076 L69.8011696,102.624561 L46.0350877,76.1637427 L87.0549708,7.03625731 L110.821053,33.497076 Z" id="Shape" fill-rule="nonzero"></path>
                </g>
                <path d="M191.588304,137.132164 C191.588304,137.094737 191.550877,137.05731 191.550877,136.982456 C191.476023,136.757895 191.363743,136.533333 191.214035,136.346199 C191.214035,136.346199 191.214035,136.308772 191.176608,136.308772 L161.197661,95.9625731 C160.711111,95.2888889 159.925146,94.9146199 159.101754,94.9146199 L139.901754,94.9146199 L136.795322,100.154386 L157.791813,100.154386 L167.260819,112.879532 L134.100585,112.879532 L132.116959,108.088889 L129.796491,111.981287 C129.272515,112.879532 128.636257,113.665497 127.850292,114.376608 C126.540351,115.536842 124.968421,116.360234 123.246784,116.734503 L116.809357,118.119298 L130.619883,118.119298 L137.768421,135.260819 L98.1707602,135.260819 L98.1707602,122.161404 L92.9309942,123.284211 L92.9309942,135.260819 L53.3707602,135.260819 L60.5192982,118.119298 L69.5766082,118.119298 L64.8608187,112.879532 L62.7274854,112.879532 L63.4011696,111.232749 L59.5087719,106.928655 L57.0385965,112.879532 L24.5520468,112.879532 L34.0210526,100.154386 L53.4081871,100.154386 L48.6923977,94.9146199 L32.7111111,94.9146199 C31.8877193,94.9146199 31.1017544,95.2888889 30.6152047,95.9625731 L0.598830409,136.308772 C0.598830409,136.308772 0.598830409,136.346199 0.561403509,136.346199 C0.411695906,136.533333 0.299415205,136.757895 0.224561404,136.982456 C0.224561404,137.019883 0.187134503,137.05731 0.187134503,137.132164 C0.112280702,137.356725 0.0748538012,137.618713 0.0748538012,137.880702 L0.0748538012,148.28538 C0.0748538012,153.038596 3.92982456,156.893567 8.68304094,156.893567 L80.5426901,156.893567 L80.5426901,173.099415 L71.1111111,173.099415 C70.4748538,173.099415 69.8760234,173.323977 69.4269006,173.735673 L54.4561404,186.460819 C53.8573099,186.947368 53.5204678,187.695906 53.5204678,188.444444 L53.5204678,201.169591 C53.5204678,202.62924 54.6807018,203.789474 56.1403509,203.789474 L135.672515,203.789474 C137.132164,203.789474 138.292398,202.62924 138.292398,201.169591 L138.292398,188.444444 C138.292398,187.65848 137.955556,186.947368 137.356725,186.460819 L122.385965,173.735673 C121.899415,173.323977 121.300585,173.099415 120.701754,173.099415 L111.270175,173.099415 L111.270175,156.893567 L183.129825,156.893567 C187.883041,156.893567 191.738012,153.038596 191.738012,148.28538 L191.738012,137.880702 C191.700585,137.618713 191.663158,137.356725 191.588304,137.132164 Z M136.308772,118.119298 L171.190643,118.119298 L183.915789,135.260819 L143.494737,135.260819 L136.308772,118.119298 Z M20.6222222,118.119298 L54.8304094,118.119298 L47.6818713,135.260819 L7.89707602,135.260819 L20.6222222,118.119298 Z M119.728655,178.339181 L133.052632,189.679532 L133.052632,198.587135 L58.7602339,198.587135 L58.7602339,189.679532 L72.0842105,178.339181 L119.728655,178.339181 Z M85.7824561,173.099415 L85.7824561,156.893567 L105.992982,156.893567 L105.992982,173.099415 L85.7824561,173.099415 Z M186.460819,148.28538 C186.460819,150.156725 184.963743,151.653801 183.092398,151.653801 L8.68304094,151.653801 C6.81169591,151.653801 5.31461988,150.156725 5.31461988,148.28538 L5.31461988,140.500585 L186.460819,140.500585 L186.460819,148.28538 Z" id="Shape" fill-rule="nonzero"></path>
            </g>
        </g>
    </g>
</svg>