<?xml version="1.0" encoding="UTF-8"?>
<svg width="36px" height="35px" viewBox="0 0 36 35" version="1.1" xmlns="http://www.w3.org/2000/svg" xmlns:xlink="http://www.w3.org/1999/xlink">
    <!-- Generator: Sketch 52.6 (67491) - http://www.bohemiancoding.com/sketch -->
    <title>instagram (1)</title>
    <desc>Created with Sketch.</desc>
    <g id="Page-1" stroke="none" stroke-width="1" fill="none" fill-rule="evenodd">
        <g id="ESS-контакты" transform="translate(-529.000000, -963.000000)" fill="#FF702A">
            <g id="instagram-(1)" transform="translate(529.555556, 963.000000)">
                <path d="M34.8947907,10.2848816 C34.8096085,8.42208862 34.5137406,7.14996338 34.0811539,6.0369873 C33.6418914,4.86927034 32.9529572,3.81156918 32.0626831,2.93731689 C31.1886978,2.04704281 30.1307297,1.35784147 28.9630127,0.91831209 C27.8497696,0.485992432 26.5779114,0.190391523 24.7151184,0.105743408 C22.8488541,0.0202941895 22.2525788,0 17.5,0 C12.7474212,0 12.1511459,0.0202941895 10.2848816,0.105209316 C8.42208862,0.190391523 7.15023039,0.486259443 6.0369873,0.918846113 C4.86927034,1.35810855 3.81156918,2.04704281 2.93731689,2.93731689 C2.04704281,3.81130217 1.35784147,4.86900326 0.91831209,6.03672029 C0.485992432,7.14996338 0.190391523,8.42208862 0.105743408,10.2846146 C0.0202941895,12.1511459 0,12.7471542 0,17.499733 C0,22.2525788 0.0202941895,22.8488541 0.105743408,24.7151184 C0.190658535,26.5776444 0.486526523,27.8497696 0.919113125,28.9630127 C1.35837557,30.1304626 2.04730989,31.1884308 2.93758391,32.0624161 C3.81156918,32.9526901 4.86953735,33.6416244 6.03725432,34.0808869 C7.15023039,34.5137406 8.42235563,34.8093415 10.2851486,34.8945236 C12.15168,34.9797058 12.7476883,34.999733 17.500267,34.999733 C22.2528458,34.999733 22.8491211,34.9797058 24.7153854,34.8945236 C26.5781784,34.8093415 27.8500366,34.5137406 28.9632797,34.0808869 C31.3139343,33.1719207 33.1721878,31.3136673 34.0811539,28.9630127 C34.5140076,27.8497696 34.8096085,26.5776444 34.8947907,24.7151184 C34.9797058,22.8485871 35,22.2525788 35,17.5 C35,12.7471542 34.9797058,12.1511459 34.8947907,10.2848816 Z M31.7446518,24.571724 C31.6669464,26.278038 31.3817596,27.204628 31.1422348,27.8211975 C30.5534363,29.3475342 29.3472672,30.5537033 27.8209305,31.1425018 C27.204361,31.3820267 26.277771,31.6672135 24.5714569,31.7449188 C22.7265549,31.8293 22.1730042,31.8469238 17.5,31.8469238 C12.8267288,31.8469238 12.2734451,31.8293 10.428276,31.7449188 C8.722229,31.6672135 7.795639,31.3820267 7.17880249,31.1425018 C6.41883854,30.8618546 5.73123934,30.4145813 5.1667404,29.8332596 C4.5854187,29.2687607 4.13814543,28.5814285 3.8574982,27.8211975 C3.61797331,27.204628 3.33278654,26.278038 3.25508121,24.571724 C3.17096712,22.7265549 3.15307617,22.1730042 3.15307617,17.500267 C3.15307617,12.8272629 3.17096712,12.2739792 3.25508121,10.4285431 C3.33305355,8.722229 3.61797331,7.795639 3.8574982,7.1790695 C4.13814543,6.41883854 4.58568571,5.73123934 5.1667404,5.1667404 C5.73123934,4.5854187 6.41883854,4.13814543 7.1790695,3.85776521 C7.795639,3.61797331 8.722229,3.33305355 10.4285431,3.25508121 C12.2737122,3.17096712 12.8272629,3.15307617 17.5,3.15307617 L17.499733,3.15307617 C22.1724701,3.15307617 22.7260208,3.17096712 24.5714569,3.25534822 C26.277771,3.33305355 27.2040939,3.61824039 27.8209305,3.85776521 C28.5808945,4.13841244 29.2684937,4.58568571 29.8329925,5.1667404 C30.4143143,5.73123934 30.8615876,6.41883854 31.1419678,7.1790695 C31.3817596,7.795639 31.6669464,8.722229 31.7446518,10.4285431 C31.8287659,12.2737122 31.8466568,12.8272629 31.8466568,17.5 C31.8466568,22.1730042 31.8290329,22.7262878 31.7446518,24.571724 Z" id="Shape" fill-rule="nonzero"></path>
                <path d="M17.499733,8.51341244 C12.5367355,8.51341244 8.51341244,12.5370026 8.51341244,17.5 C8.51341244,22.4629974 12.5367355,26.4863205 17.499733,26.4863205 C22.4629974,26.4863205 26.4863205,22.4629974 26.4863205,17.5 C26.4863205,12.5370026 22.4629974,8.51341244 17.499733,8.51341244 Z M17.499733,23.3332443 C14.2782974,23.3329773 11.6664886,20.7214355 11.6667557,17.499733 C11.6667557,14.2782974 14.2782974,11.6664886 17.5,11.6664886 C20.7217026,11.6667557 23.3332443,14.2782974 23.3332443,17.499733 C23.3332443,20.7214355 20.7214355,23.3332443 17.499733,23.3332443 Z" id="Shape" fill-rule="nonzero"></path>
                <path d="M28.9413834,8.15853117 C28.9413834,9.3182373 28.001175,10.2584457 26.8414688,10.2584457 C25.6814957,10.2584457 24.7412873,9.3182373 24.7412873,8.15853117 C24.7412873,6.99855803 25.6814957,6.05834961 26.8414688,6.05834961 C28.001175,6.05834961 28.9413834,6.99855803 28.9413834,8.15853117 Z" id="Path"></path>
            </g>
        </g>
    </g>
</svg>