<?xml version="1.0" encoding="UTF-8"?>
<svg width="113px" height="120px" viewBox="0 0 113 120" version="1.1" xmlns="http://www.w3.org/2000/svg" xmlns:xlink="http://www.w3.org/1999/xlink">
    <!-- Generator: Sketch 52.6 (67491) - http://www.bohemiancoding.com/sketch -->
    <title>knowledge</title>
    <desc>Created with Sketch.</desc>
    <g id="Page-1" stroke="none" stroke-width="1" fill="none" fill-rule="evenodd">
        <g id="ESS-kness" transform="translate(-570.000000, -1449.000000)" fill="#FFFFFF">
            <g id="knowledge" transform="translate(570.000000, 1449.000000)">
                <path d="M80.1647896,69.275625 C89.7935667,61.8921094 95.3159708,50.7276563 95.3159708,38.6446875 C95.3159708,27.200625 90.2634583,16.4111719 81.4536958,9.04289063 C80.7071896,8.41851563 79.5936687,8.51507813 78.9662833,9.25828125 C78.3388979,10.0014844 78.4356542,11.1103125 79.1823958,11.7349219 C87.1912708,18.4335938 91.7847208,28.2417188 91.7847208,38.6446875 C91.7847208,49.6284375 86.7639896,59.7778125 78.0100208,66.4903125 C75.6106542,68.3301563 74.2344083,71.0927344 74.2344083,74.0695313 L74.2344083,77.6561719 L66.06545,77.6561719 L66.06545,73.5234375 C66.06545,71.5202344 64.4285979,69.890625 62.4164917,69.890625 L62.1655375,69.890625 L62.1655375,65.6407031 L64.299825,65.6407031 C67.4238042,65.6407031 69.9655979,63.1103906 69.9655979,60.0002344 C69.9655979,56.8900781 67.4238042,54.3597656 64.299825,54.3597656 C61.1756104,54.3597656 58.6342875,56.8900781 58.6342875,60.0002344 L58.6342875,62.1250781 L54.3654771,62.1250781 L54.3654771,60 C54.3654771,56.8898438 51.8239188,54.3595313 48.6999396,54.3595313 C45.5759604,54.3595313 43.0341667,56.8898438 43.0341667,60 C43.0341667,63.1101563 45.5759604,65.6404688 48.6999396,65.6404688 L50.8342271,65.6404688 L50.8342271,69.890625 L50.5832729,69.890625 C48.5711667,69.890625 46.9343146,71.5202344 46.9343146,73.5234375 L46.9343146,77.6561719 L38.7653563,77.6561719 L38.7653563,74.07 C38.7653563,71.0934375 37.3872271,68.3294531 34.9848,66.4865625 C26.1133583,59.6819531 21.0954521,49.39125 21.2173979,38.2535156 C21.3216875,28.6823438 25.1794604,19.7946094 32.0799938,13.2274219 C38.9901792,6.650625 48.095625,3.2071875 57.7279333,3.53671875 C63.2868271,3.72585938 68.5681646,5.1646875 73.4250458,7.813125 C74.28055,8.27929688 75.3533437,7.96734375 75.8218229,7.11585938 C76.2900667,6.264375 75.9764917,5.19609375 75.1212229,4.7296875 C69.7758521,1.81476563 63.9645917,0.231328125 57.8484667,0.023203125 C47.2702542,-0.333984375 37.2431521,3.44976563 29.6396646,10.6863281 C22.0463,17.9132813 17.8012667,27.6897656 17.6861479,38.2155469 C17.6188188,44.3955469 18.9738771,50.3142188 21.7136563,55.8075 C24.3234854,61.0396875 28.1673688,65.6955469 32.8297958,69.2716406 C34.35765,70.44375 35.2341062,72.1926563 35.2341062,74.0702344 L35.2341062,77.9383594 C32.9722229,78.6789844 31.3341937,80.8005469 31.3341937,83.2971094 C31.3341937,85.7936719 32.9722229,87.9152344 35.2341062,88.655625 L35.2341062,104.851641 C35.2341062,108.9225 38.5607792,112.234453 42.6497313,112.234453 L43.1565833,112.234453 C43.8757813,116.632031 47.7158979,120 52.333125,120 L60.666875,120 C65.2838667,120 69.1242187,116.632031 69.8434167,112.234453 L70.3502688,112.234453 C74.4392208,112.234453 77.7658938,108.9225 77.7658938,104.851641 L77.7658938,88.655625 C80.0277771,87.915 81.6658063,85.7934375 81.6658063,83.2971094 C81.6658063,80.8005469 80.0277771,78.6789844 77.7658938,77.9383594 L77.7658938,74.0697656 C77.7658938,72.1919531 78.6404667,70.4446875 80.1647896,69.275625 Z M62.1655375,60 C62.1655375,58.8283594 63.1229771,57.8751563 64.299825,57.8751563 C65.4769083,57.8751563 66.4343479,58.8283594 66.4343479,60 C66.4343479,61.1716406 65.4769083,62.1248437 64.299825,62.1248437 L62.1655375,62.1248437 L62.1655375,60 Z M48.6999396,62.1250781 C47.5228563,62.1250781 46.5654167,61.171875 46.5654167,60.0002344 C46.5654167,58.8285938 47.5228563,57.8753906 48.6999396,57.8753906 C49.8767875,57.8753906 50.8342271,58.8285938 50.8342271,60.0002344 L50.8342271,62.1250781 L48.6999396,62.1250781 Z M54.3654771,65.6407031 L58.6342875,65.6407031 L58.6342875,69.890625 L54.3654771,69.890625 L54.3654771,65.6407031 Z M50.4655646,73.5234375 C50.4655646,73.45875 50.5185333,73.40625 50.5832729,73.40625 L62.4167271,73.40625 C62.4814667,73.40625 62.5344354,73.45875 62.5344354,73.5234375 L62.5344354,77.6561719 L50.4655646,77.6561719 L50.4655646,73.5234375 Z M74.2346437,93.1875 L50.0964312,93.1875 C49.1211,93.1875 48.3308062,93.9745312 48.3308062,94.9453125 C48.3308062,95.9160938 49.1211,96.703125 50.0964312,96.703125 L74.2344083,96.703125 L74.2346438,100.953047 L38.7653562,100.953047 L38.7653562,96.703125 L43.0341667,96.703125 C44.0094979,96.703125 44.7997917,95.9160938 44.7997917,94.9453125 C44.7997917,93.9745312 44.0094979,93.1875 43.0341667,93.1875 L38.7653562,93.1875 L38.7653562,88.9375781 L74.2346438,88.9375781 L74.2346437,93.1875 Z M60.666875,116.484141 L52.333125,116.484141 C49.6710333,116.484141 47.4244521,114.679219 46.7629313,112.234219 L66.2373042,112.234219 C65.5753125,114.679453 63.3287313,116.484141 60.666875,116.484141 Z M70.3502687,108.718594 L68.2002083,108.718594 L44.7997917,108.718594 L42.6497313,108.718594 C40.507675,108.718594 38.7653562,106.98375 38.7653562,104.851406 L38.7653562,104.468672 L74.2346437,104.468672 L74.2346437,104.851406 C74.2346437,106.983984 72.4920896,108.718594 70.3502687,108.718594 Z M76.0002688,85.4219531 L36.9997312,85.4219531 C35.8228833,85.4219531 34.8654437,84.46875 34.8654437,83.2971094 C34.8654437,82.1252344 35.8228833,81.1720313 36.9997312,81.1720313 L48.6999396,81.1720313 L64.3000604,81.1720313 L76.0002688,81.1720313 C77.1771167,81.1720313 78.1345562,82.1252344 78.1345562,83.2971094 C78.1345562,84.4685156 77.1771167,85.4219531 76.0002688,85.4219531 Z" id="Shape" fill-rule="nonzero"></path>
                <path d="M11.4650271,38.6446875 C11.4650271,37.6739063 10.6747333,36.886875 9.69940208,36.886875 L1.89910625,36.886875 C0.923775,36.886875 0.13348125,37.6739063 0.13348125,38.6446875 C0.13348125,39.6154688 0.923775,40.4025 1.89910625,40.4025 L9.69940208,40.4025 C10.6744979,40.4025 11.4650271,39.6154688 11.4650271,38.6446875 Z" id="Path"></path>
                <path d="M15.0866771,60.4190625 L8.33139583,64.3019531 C7.48695625,64.7873438 7.19762917,65.8624219 7.68517708,66.703125 C8.01240625,67.2670313 8.60565625,67.5822656 9.21585625,67.5822656 C9.51530625,67.5822656 9.81922917,67.5063281 10.0970208,67.3464844 L16.8520667,63.4635937 C17.6965063,62.9782031 17.9858333,61.903125 17.4982854,61.0624219 C17.0105021,60.2217187 15.9306458,59.9334375 15.0866771,60.4190625 Z" id="Path"></path>
                <path d="M104.668369,64.3019531 L97.9133229,60.4190625 C97.0681771,59.9332031 95.9887917,60.2214844 95.5014792,61.0624219 C95.0139312,61.903125 95.3032583,62.9782031 96.1476979,63.4635938 L102.902744,67.3464844 C103.181006,67.5063281 103.484458,67.5822656 103.783908,67.5822656 C104.394108,67.5822656 104.987594,67.2670312 105.314587,66.703125 C105.802135,65.8624219 105.512808,64.7873438 104.668369,64.3019531 Z" id="Path"></path>
                <path d="M111.100658,36.886875 L103.300363,36.886875 C102.325267,36.886875 101.534738,37.6739063 101.534738,38.6446875 C101.534738,39.6154688 102.325267,40.4025 103.300363,40.4025 L111.100658,40.4025 C112.07599,40.4025 112.866283,39.6154688 112.866283,38.6446875 C112.866283,37.6739063 112.07599,36.886875 111.100658,36.886875 Z" id="Path"></path>
                <path d="M97.0321583,17.1060938 C97.3316083,17.1060938 97.6355313,17.0301563 97.9133229,16.8703125 L104.668369,12.9876563 C105.512808,12.5022656 105.802135,11.4271875 105.314588,10.5864844 C104.827275,9.74578125 103.746948,9.45773438 102.902744,9.943125 L96.1476979,13.8257813 C95.3032583,14.3111719 95.0139313,15.38625 95.5014792,16.2269531 C95.8282375,16.790625 96.4219583,17.1060938 97.0321583,17.1060938 Z" id="Path"></path>
                <path d="M8.33139583,12.9874219 L15.0864417,16.8700781 C15.3647042,17.0299219 15.6681563,17.1058594 15.9676063,17.1058594 C16.5778063,17.1058594 17.1712917,16.7903906 17.4982854,16.2264844 C17.9858333,15.3857813 17.6965063,14.3107031 16.8520667,13.8253125 L10.0970208,9.94289063 C9.251875,9.45726563 8.17248958,9.74554688 7.68517708,10.58625 C7.19762917,11.4269531 7.48695625,12.5020313 8.33139583,12.9874219 Z" id="Path"></path>
                <path d="M56.5,23.2971094 C53.3760208,23.2971094 50.8344625,25.8274219 50.8344625,28.9378125 C50.8344625,32.0479688 53.3760208,34.5782813 56.5,34.5782813 C59.6242146,34.5782813 62.1655375,32.0479688 62.1655375,28.9378125 C62.1655375,25.8274219 59.6239792,23.2971094 56.5,23.2971094 Z M56.5,31.0626562 C55.3231521,31.0626562 54.3657125,30.1094531 54.3657125,28.9378125 C54.3657125,27.7661719 55.3231521,26.8127344 56.5,26.8127344 C57.6768479,26.8127344 58.6342875,27.7659375 58.6342875,28.9378125 C58.6342875,30.1094531 57.6768479,31.0626562 56.5,31.0626562 Z" id="Shape" fill-rule="nonzero"></path>
                <path d="M72.5728375,22.3900781 C72.5540042,22.3439062 72.5351708,22.2979687 72.5158667,22.2525 L73.7772292,20.1595312 C74.6558042,18.70125 74.4260375,16.843125 73.21835,15.6407812 L69.8561292,12.2932031 C68.6482062,11.0910938 66.7820583,10.861875 65.3170604,11.7367969 L63.215025,12.9923437 C63.1691187,12.973125 63.1227417,12.954375 63.0766,12.935625 L62.4821729,10.5677344 C62.0678396,8.91796875 60.5854208,7.76578125 58.8777083,7.76578125 L54.1222917,7.76578125 C52.4143437,7.76578125 50.931925,8.91796875 50.5175917,10.5677344 L49.9231646,12.935625 C49.8770229,12.954375 49.8306458,12.9733594 49.7847396,12.9923437 L47.6827042,11.7367969 C46.2181771,10.861875 44.3517937,11.0908594 43.1436354,12.2932031 L39.7814146,15.6407812 C38.5737271,16.843125 38.3439604,18.70125 39.2227708,20.1597656 L40.4838979,22.2525 C40.4645937,22.2982031 40.4457604,22.3441406 40.4269271,22.3900781 L38.0482771,22.9821094 C36.3911792,23.3946094 35.2338708,24.8702344 35.2338708,26.5708594 L35.2338708,31.3047656 C35.2338708,33.0051562 36.3911792,34.4807812 38.0482771,34.8935156 L40.4269271,35.4855469 C40.445525,35.5314844 40.4645937,35.5774219 40.4838979,35.623125 L39.2225354,37.7160937 C38.3439604,39.1741406 38.5737271,41.0322656 39.7814146,42.2348437 L43.1436354,45.5821875 C44.3515583,46.7842969 46.2179417,47.0135156 47.6827042,46.1385937 L49.7847396,44.8830469 C49.8306458,44.9020312 49.8770229,44.9210156 49.9231646,44.9397656 L50.5175917,47.3074219 C50.931925,48.9574219 52.4143437,50.1096094 54.1222917,50.1096094 L58.8774729,50.1096094 C60.5854208,50.1096094 62.0678396,48.9574219 62.4819375,47.3074219 L63.0763646,44.9397656 C63.1225062,44.9210156 63.1688833,44.9020312 63.2147896,44.8830469 L65.316825,46.1385937 C66.7811167,47.0132812 68.6477354,46.7845312 69.8558937,45.5821875 L73.2181146,42.2346094 C74.4258021,41.0322656 74.6553333,39.1739063 73.7767583,37.715625 L72.5156312,35.6228906 C72.5349354,35.5771875 72.5540042,35.53125 72.5726021,35.4853125 L74.9512521,34.8932813 C76.6081146,34.4805469 77.7654229,33.0049219 77.7654229,31.3045312 L77.7654229,26.570625 C77.7654229,24.87 76.6081146,23.394375 74.9510167,22.981875 L72.5728375,22.3900781 Z M74.2346437,31.3047656 C74.2346437,31.3891406 74.1772021,31.4625 74.0948062,31.4828906 L70.8185125,32.2982813 C70.2393875,32.4424219 69.7727917,32.8682812 69.5778667,33.4300781 C69.3916521,33.9670312 69.1771875,34.4845312 68.9401229,34.9682812 C68.6781042,35.503125 68.7054125,36.1333594 69.0131021,36.6435937 L70.7493,39.5245312 C70.7930875,39.5969531 70.7815521,39.6892969 70.7215208,39.7490625 L67.3593,43.0964063 C67.2995042,43.1559375 67.2069854,43.1674219 67.1340063,43.1240625 L64.2402646,41.3953125 C63.7277625,41.0889844 63.0942563,41.0620313 62.5577417,41.3228906 C62.0718417,41.5589063 61.5520417,41.7724219 61.0129375,41.9575781 C60.4484083,42.1514062 60.0204208,42.6161719 59.8756396,43.1929687 L59.056625,46.4547656 C59.0361438,46.5365625 58.9626938,46.59375 58.8779438,46.59375 L54.1222917,46.59375 C54.0377771,46.59375 53.9640917,46.5365625 53.9436104,46.4545312 L53.1245958,43.1927344 C52.9798146,42.6159375 52.5518271,42.1511719 51.9872979,41.9573437 C51.4484292,41.7721875 50.9286292,41.5586719 50.4424938,41.3226562 C50.197425,41.2035937 49.9325813,41.1445312 49.6682083,41.1445312 C49.3529854,41.1445312 49.0384688,41.2284375 48.7599708,41.3950781 L45.8662292,43.1235937 C45.7930146,43.1674219 45.7007313,43.1557031 45.6409354,43.0961719 L42.2787146,39.7488281 C42.2186833,39.6890625 42.2071479,39.5967187 42.2507,39.5242969 L43.9871333,36.6433594 C44.2948229,36.133125 44.3221313,35.5028906 44.0601125,34.9680469 C43.8230479,34.4845312 43.6085833,33.9667969 43.4223688,33.4298437 C43.2274438,32.8680469 42.7606125,32.4421875 42.1814875,32.2980469 L38.9054292,31.4826562 C38.8227979,31.4622656 38.7653563,31.3889062 38.7653563,31.3045312 L38.7653563,26.570625 C38.7653563,26.48625 38.8227979,26.4128906 38.9051938,26.3925 L42.1814875,25.5771094 C42.7606125,25.4329687 43.2272083,25.0073437 43.4223688,24.4455469 C43.6085833,23.9083594 43.8232833,23.390625 44.0601125,22.9073437 C44.3221313,22.3725 44.2948229,21.7422656 43.9871333,21.2320312 L42.2509354,18.3510937 C42.2071479,18.2786719 42.2186833,18.1863281 42.2787146,18.1265625 L45.6409354,14.7789844 C45.7002604,14.7194531 45.7927792,14.7077344 45.8662292,14.7513281 L48.7599708,16.4798437 C49.2724729,16.7859375 49.9059792,16.813125 50.4424938,16.5522656 C50.9283938,16.31625 51.4484292,16.1027344 51.9872979,15.9175781 C52.5518271,15.72375 52.9798146,15.2589844 53.1245958,14.6821875 L53.9436104,11.4203906 C53.9640917,11.3385937 54.0375417,11.2814062 54.1222917,11.2814062 L58.8774729,11.2814062 C58.9619875,11.2814062 59.0356729,11.3385937 59.0561542,11.4203906 L59.8751688,14.6821875 C60.01995,15.2589844 60.4479375,15.72375 61.0124667,15.9175781 C61.5513354,16.1027344 62.0711354,16.31625 62.5572708,16.5522656 C63.0942563,16.813125 63.7275271,16.7859375 64.2397938,16.4798437 L67.1335354,14.7513281 C67.2069854,14.7075 67.2992688,14.7192187 67.3588292,14.77875 L70.72105,18.1263281 C70.7810812,18.1860937 70.7926167,18.2784375 70.7490646,18.350625 L69.0126313,21.2317969 C68.7049417,21.7420312 68.6776333,22.3722656 68.9396521,22.9071094 C69.1764813,23.390625 69.3911813,23.908125 69.5773958,24.4453125 C69.7723208,25.0071094 70.2389167,25.4327344 70.8180417,25.576875 L74.0943354,26.3922656 C74.1767313,26.4126562 74.2341729,26.4860156 74.2341729,26.5703906 L74.2341729,31.3047656 L74.2346437,31.3047656 Z" id="Shape" fill-rule="nonzero"></path>
            </g>
        </g>
    </g>
</svg>