<?xml version="1.0" encoding="UTF-8"?>
<svg width="36px" height="35px" viewBox="0 0 36 35" version="1.1" xmlns="http://www.w3.org/2000/svg" xmlns:xlink="http://www.w3.org/1999/xlink">
    <!-- Generator: Sketch 52.6 (67491) - http://www.bohemiancoding.com/sketch -->
    <title>lapki</title>
    <desc>Created with Sketch.</desc>
    <g id="Page-1" stroke="none" stroke-width="1" fill="none" fill-rule="evenodd">
        <g id="ESS-отзывы" transform="translate(-942.000000, -401.000000)" fill="#FFFFFF">
            <g id="lapki" transform="translate(942.000000, 401.000000)">
                <g id="Group-3">
                    <path d="M9.9,29.2 C9.1,31.2 7.8,32.7 5.9,33.4 C4,34.2 2,34.3 -7.06279479e-12,33.5 L12.6,0.9 C14.6,1.7 16.1,3 16.8,4.9 C17.6,6.8 17.7,8.8 16.9,10.8 L9.9,29.2 Z" id="Path"></path>
                    <path d="M28.2,29.2 C27.4,31.2 26.1,32.7 24.2,33.4 C22.3,34.2 20.3,34.3 18.3,33.5 L30.9,0.9 C32.9,1.7 34.4,3 35.1,4.9 C35.9,6.8 36,8.8 35.2,10.8 L28.2,29.2 Z" id="Path"></path>
                </g>
            </g>
        </g>
    </g>
</svg>