<?xml version="1.0" encoding="UTF-8"?>
<svg width="67px" height="90px" viewBox="0 0 67 90" version="1.1" xmlns="http://www.w3.org/2000/svg" xmlns:xlink="http://www.w3.org/1999/xlink">
    <!-- Generator: Sketch 52.6 (67491) - http://www.bohemiancoding.com/sketch -->
    <title>location-pin (3)</title>
    <desc>Created with Sketch.</desc>
    <g id="Page-1" stroke="none" stroke-width="1" fill="none" fill-rule="evenodd">
        <g id="ESS-контакты" transform="translate(-1017.000000, -281.000000)" fill="#FF702A" fill-rule="nonzero">
            <g id="location-pin-(3)" transform="translate(1017.000000, 281.000000)">
                <path d="M33.4488926,0 C15.0049329,0 0,15.0109732 0,33.4621812 C0,60.953255 30.1194966,87.795906 31.4021477,88.9254362 C31.9868456,89.4403691 32.7177181,89.6982886 33.4488926,89.6982886 C34.1800671,89.6982886 34.9109396,89.4406711 35.4959396,88.9254362 C36.7779866,87.7962081 66.8977852,60.953557 66.8977852,33.4621812 C66.8977852,15.0109732 51.8928523,0 33.4488926,0 Z M33.4488926,82.3557383 C26.7897987,75.9029195 6.1942953,54.2597315 6.1942953,33.4621812 C6.1942953,18.426745 18.4207047,6.1942953 33.4488926,6.1942953 C48.4770805,6.1942953 60.7034899,18.426745 60.7034899,33.4621812 C60.7034899,54.2594295 40.1079866,75.9026174 33.4488926,82.3557383 Z" id="Shape"></path>
                <path d="M33.4854362,18 C24.9466107,18 18,24.9928188 18,33.5881208 C18,42.1837248 24.9466107,49.1762416 33.4854362,49.1762416 C42.0242617,49.1762416 48.9708725,42.1837248 48.9708725,33.5881208 C48.9708725,24.9928188 42.0242617,18 33.4854362,18 Z M33.4854362,42.9819463 C28.3620805,42.9819463 24.1939933,38.767953 24.1939933,33.5881208 C24.1939933,28.4085906 28.3620805,24.1942953 33.4854362,24.1942953 C38.6087919,24.1942953 42.7768792,28.4082886 42.7768792,33.5881208 C42.7768792,38.767953 38.6087919,42.9819463 33.4854362,42.9819463 Z" id="Shape"></path>
            </g>
        </g>
    </g>
</svg>