<?xml version="1.0" encoding="UTF-8"?>
<svg width="182px" height="48px" viewBox="0 0 182 48" version="1.1" xmlns="http://www.w3.org/2000/svg" xmlns:xlink="http://www.w3.org/1999/xlink">
    <!-- Generator: Sketch 52.6 (67491) - http://www.bohemiancoding.com/sketch -->
    <title>ess new</title>
    <desc>Created with Sketch.</desc>
    <g id="Page-1" stroke="none" stroke-width="1" fill="none" fill-rule="evenodd">
        <g id="ESS" transform="translate(-49.000000, -25.000000)">
            <g id="ess-new" transform="translate(49.000000, 25.000000)">
                <path d="M89.8834356,32.0372093 L100.937423,33.8232558 C100.490798,35.0511628 99.8208589,36.1674419 99.1509202,37.2837209 C98.3693252,38.4 97.2527607,39.8511628 95.6895706,41.5255814 C94.1263804,43.2 92.004908,44.5395349 89.2134969,45.544186 C86.5337423,46.5488372 83.407362,47.1069767 79.9460123,47.1069767 C73.2466258,47.1069767 67.7754601,45.0976744 63.5325153,41.0790698 C59.0662577,36.8372093 56.8331288,31.255814 56.8331288,24.4465116 C56.8331288,17.6372093 58.9546012,12.055814 63.3092025,7.70232558 C67.4404908,3.68372093 72.8,1.6744186 79.3877301,1.6744186 C86.6453988,1.6744186 92.2282209,4.01860465 96.0245399,8.70697674 C99.4858896,12.8372093 101.160736,18.4186047 101.160736,25.4511628 L101.160736,26.455814 L69.1153374,26.455814 C69.1153374,29.3581395 69.7852761,31.7023256 71.2368098,33.7116279 C73.2466258,36.3906977 76.0380368,37.7302326 79.8343558,37.7302326 C84.4122699,37.6186047 87.7619632,35.7209302 89.8834356,32.0372093 Z M69.6736196,18.6418605 L89.8834356,18.6418605 C89.4368098,15.8511628 88.208589,13.7302326 86.3104294,12.2790698 C84.4122699,10.827907 82.1791411,10.0465116 79.7226994,10.0465116 C77.3779141,10.0465116 75.1447853,10.827907 73.2466258,12.2790698 C71.3484663,13.8418605 70.1202454,15.9627907 69.6736196,18.6418605 Z" id="Shape" fill="#FFFFFF" fill-rule="nonzero"></path>
                <path d="M139.793865,6.13953488 L133.876074,13.172093 C131.866258,11.2744186 129.521472,10.2697674 126.841718,10.2697674 C125.390184,10.2697674 124.27362,10.6046512 123.380368,11.1627907 C122.598773,11.8325581 122.152147,12.6139535 122.152147,13.7302326 C122.152147,15.4046512 123.492025,16.744186 126.060123,17.6372093 L128.96319,18.5302326 C134.546012,20.3162791 138.230675,22.3255814 139.793865,24.6697674 C141.245399,26.6790698 141.915337,29.0232558 141.915337,31.8139535 C141.915337,36.1674419 140.352147,39.7395349 137.225767,42.6418605 C133.98773,45.655814 129.633129,47.2186047 124.385276,47.2186047 C117.68589,47.2186047 112.214724,44.8744186 107.748466,40.0744186 L114.112883,32.8186047 C116.904294,36.055814 120.142331,37.7302326 123.603681,37.7302326 C125.278528,37.7302326 126.730061,37.2837209 127.846626,36.5023256 C128.96319,35.7209302 129.521472,34.4930233 129.521472,33.0418605 C129.521472,31.0325581 128.293252,29.5813953 125.725153,28.6883721 L122.933742,27.6837209 C118.690798,26.1209302 115.564417,24.4465116 113.777914,22.5488372 C111.656442,20.2046512 110.539877,17.5255814 110.539877,14.4 C110.539877,10.4930233 111.991411,7.25581395 115.006135,4.68837209 C117.574233,2.67906977 121.258896,1.6744186 126.171779,1.6744186 C131.307975,1.5627907 135.88589,3.1255814 139.793865,6.13953488 Z" id="Path" fill="#FFFFFF"></path>
                <path d="M179.766871,6.13953488 L173.84908,13.172093 C171.839264,11.2744186 169.494479,10.2697674 166.814724,10.2697674 C165.36319,10.2697674 164.246626,10.6046512 163.353374,11.1627907 C162.571779,11.8325581 162.125153,12.6139535 162.125153,13.7302326 C162.125153,15.4046512 163.465031,16.744186 166.033129,17.6372093 L168.936196,18.5302326 C174.519018,20.3162791 178.203681,22.3255814 179.766871,24.6697674 C181.218405,26.6790698 181.888344,29.0232558 181.888344,31.8139535 C181.888344,36.1674419 180.325153,39.7395349 177.198773,42.6418605 C173.960736,45.655814 169.606135,47.2186047 164.358282,47.2186047 C157.658896,47.2186047 152.18773,44.8744186 147.721472,40.0744186 L154.08589,32.8186047 C156.877301,36.055814 160.115337,37.7302326 163.576687,37.7302326 C165.251534,37.7302326 166.703067,37.2837209 167.819632,36.5023256 C168.936196,35.7209302 169.494479,34.4930233 169.494479,33.0418605 C169.494479,31.0325581 168.266258,29.5813953 165.69816,28.6883721 L162.906748,27.6837209 C158.663804,26.1209302 155.537423,24.4465116 153.75092,22.5488372 C151.629448,20.2046512 150.512883,17.5255814 150.512883,14.4 C150.512883,10.4930233 151.964417,7.25581395 154.979141,4.68837209 C157.547239,2.67906977 161.231902,1.6744186 166.144785,1.6744186 C171.169325,1.5627907 175.747239,3.1255814 179.766871,6.13953488 Z" id="Path" fill="#FFFFFF"></path>
                <ellipse id="Oval" fill="#FF702A" cx="24.006135" cy="23.7767442" rx="23.3361963" ry="23.3302326"></ellipse>
            </g>
        </g>
    </g>
</svg>