<?xml version="1.0" encoding="UTF-8"?>
<svg width="100px" height="22px" viewBox="0 0 100 22" version="1.1" xmlns="http://www.w3.org/2000/svg" xmlns:xlink="http://www.w3.org/1999/xlink">
    <!-- Generator: Sketch 52.6 (67491) - http://www.bohemiancoding.com/sketch -->
    <title>msft_logo_print</title>
    <desc>Created with Sketch.</desc>
    <g id="Page-1" stroke="none" stroke-width="1" fill="none" fill-rule="evenodd">
        <g id="ESS-o-nas" transform="translate(-1777.000000, -3431.000000)" fill="#FFFFFF">
            <g id="msft_logo_print" transform="translate(1777.000000, 3431.000000)">
                <path d="M0,0.0183038438 L10.1586333,0.0183038438 C10.1586333,3.40451495 10.1586333,6.79072605 10.1586333,10.1769372 C6.77242221,10.1769372 3.3862111,10.1769372 0,10.1769372 L0,0.0183038438 Z" id="Path"></path>
                <path d="M11.1958511,0.0183038438 L21.3544844,0.0183038438 C21.3544844,3.40451495 21.3544844,6.79072605 21.3544844,10.1769372 C17.9682733,10.1769372 14.5820622,10.1769372 11.1958511,10.1769372 C11.1958511,6.79072605 11.1958511,3.40451495 11.1958511,0.0183038438 Z" id="Path"></path>
                <path d="M91.604637,3.88651617 C92.5442343,3.27638804 93.752288,3.22147651 94.8078096,3.50823673 C94.8139109,4.1366687 94.8078096,4.76510067 94.8139109,5.39353264 C94.3136059,5.17388652 93.7217816,5.02745577 93.1970714,5.24710189 C92.776083,5.41183649 92.5320317,5.84502746 92.4649176,6.27211714 C92.385601,6.81513118 92.4405125,7.37034777 92.4222087,7.91946309 C93.4960342,7.91946309 94.5637584,7.91946309 95.6375839,7.91946309 C95.6436852,7.22391702 95.6314826,6.52837096 95.6497865,5.83282489 C96.3758389,5.62538133 97.1018914,5.39353264 97.8218426,5.17388652 C97.8279439,6.08907871 97.8157413,7.0042709 97.8279439,7.92556437 C98.5539963,7.91336181 99.2800488,7.92556437 100,7.91946309 L100,9.70103722 C99.2739475,9.67053081 98.5478951,9.69493594 97.8157413,9.68883466 C97.8218426,10.7138499 97.8157413,11.7388652 97.8157413,12.7638804 C97.8279439,13.3312996 97.7852349,13.90482 97.852349,14.4661379 C97.895058,14.8017084 98.0109823,15.1677852 98.3282489,15.3447224 C98.8529591,15.6375839 99.5179988,15.509457 100,15.1860891 L100,16.9859671 C99.371568,17.2605247 98.6699207,17.3398414 97.9926785,17.2910311 C97.3459426,17.2422209 96.680903,17.0103722 96.2599146,16.4978646 C95.7718121,15.9182428 95.6497865,15.1372788 95.6375839,14.3990238 C95.6314826,12.8248932 95.6375839,11.2507627 95.6375839,9.67663209 C94.5637584,9.67663209 93.4960342,9.67663209 92.4222087,9.67663209 C92.4222087,12.147651 92.4222087,14.6186699 92.4222087,17.0896888 C91.6900549,17.0896888 90.9579012,17.0896888 90.2257474,17.0896888 C90.2257474,14.6186699 90.2196461,12.147651 90.2257474,9.68273337 C89.7193411,9.67053081 89.2068334,9.68273337 88.6943258,9.67663209 C88.6943258,9.09090909 88.7004271,8.50518609 88.6943258,7.91336181 C89.2007322,7.90115924 89.7071385,7.90726052 90.2196461,7.90726052 C90.2562538,7.12629652 90.1403295,6.32702868 90.3721782,5.56436852 C90.5674192,4.89322758 91.0067114,4.27699817 91.604637,3.88651617 Z" id="Path"></path>
                <path d="M44.5698597,4.01464308 C45.0152532,3.94752898 45.4911531,4.10006101 45.7840146,4.44783405 C46.1256864,4.82611348 46.1928005,5.43014033 45.9365467,5.87553386 C45.6558877,6.37583893 45.0213545,6.60768761 44.4722392,6.48566199 C43.90482,6.38194021 43.4289201,5.85112874 43.4533252,5.25930445 C43.4350214,4.63697376 43.9597315,4.08785845 44.5698597,4.01464308 Z" id="Path"></path>
                <path d="M27.7303234,4.28920073 C28.7980476,4.28920073 29.8596705,4.28920073 30.9273948,4.28920073 C31.9219036,6.81513118 32.9225137,9.33496034 33.9170226,11.8608908 C34.1732764,12.495424 34.4112264,13.1299573 34.6735815,13.7583893 C35.9548505,10.6040268 37.2483221,7.45576571 38.5234899,4.29530201 C39.5485052,4.27699817 40.5735204,4.28920073 41.5985357,4.28920073 C41.5985357,8.56009762 41.5985357,12.8309945 41.5985357,17.1018914 C40.8602807,17.1018914 40.1220256,17.1079927 39.3837706,17.0957901 C39.3898719,13.947529 39.3837706,10.7931666 39.3898719,7.63880415 C39.3898719,7.49847468 39.3837706,7.35814521 39.3776693,7.21171446 C39.3349603,7.27882855 39.2983527,7.34594265 39.261745,7.41915802 C37.9926785,10.6467358 36.6992068,13.862111 35.4362416,17.0896888 C34.9115314,17.1079927 34.3868212,17.0896888 33.8560098,17.1018914 C32.5442343,13.8743136 31.2507627,10.6406345 29.9511897,7.41305674 C29.9145821,7.34594265 29.8779744,7.27882855 29.8413667,7.21781574 C29.8169616,8.59670531 29.8352654,9.98169616 29.8291641,11.3605857 C29.8291641,13.2702868 29.8291641,15.1860891 29.8291641,17.0957901 C29.1336181,17.0957901 28.4319707,17.0957901 27.7364246,17.0957901 C27.7303234,12.8309945 27.7303234,8.56009762 27.7303234,4.28920073 Z" id="Path"></path>
                <path d="M50.6162294,7.90726052 C51.6778523,7.60219646 52.8187919,7.61439902 53.8804149,7.91946309 C54.100061,7.9804759 54.3075046,8.06589384 54.5088469,8.18181818 C54.4966443,8.88346553 54.5088469,9.58511287 54.5027456,10.2806589 C53.7949969,9.73764491 52.8981086,9.39597315 51.995119,9.5118975 C51.2812691,9.57901159 50.5979256,9.94508847 50.1708359,10.5247102 C49.6217206,11.2385601 49.4935937,12.19036 49.5912142,13.0689445 C49.6644295,13.752288 49.9450885,14.4417328 50.4758999,14.8932276 C51.0311165,15.3874314 51.8059793,15.5582672 52.5320317,15.5033557 C53.2458816,15.4179378 53.9231239,15.118975 54.5027456,14.6918853 C54.5088469,15.356925 54.5027456,16.0158633 54.5088469,16.680903 C53.6119585,17.2178157 52.5320317,17.3520439 51.5070165,17.3032337 C50.4575961,17.2483221 49.4081757,16.8517389 48.6455156,16.1073826 C47.8157413,15.3081147 47.3703478,14.1732764 47.3154362,13.0323368 C47.2605247,11.8486882 47.504576,10.6101281 48.1818182,9.62172056 C48.7492373,8.78584503 49.6400244,8.18791946 50.6162294,7.90726052 Z" id="Path"></path>
                <path d="M74.6125686,7.76693106 C75.6253813,7.5899939 76.6931056,7.71812081 77.6510067,8.08419768 C77.6510067,8.75533862 77.6510067,9.43258084 77.6510067,10.1037218 C76.9798658,9.64002441 76.1561928,9.39597315 75.3447224,9.42037828 C74.9359365,9.43868212 74.4844417,9.609518 74.295302,10 C74.1488713,10.3843807 74.2464918,10.8907871 74.6125686,11.1226358 C75.2348993,11.5375229 75.9792556,11.71446 76.6259915,12.0927395 C77.1323978,12.3794997 77.6266016,12.7516779 77.8828554,13.2885906 C78.3648566,14.295302 78.1635143,15.6314826 77.309335,16.3819402 C76.4978646,17.1384991 75.3264185,17.3520439 74.252593,17.309335 C73.4899329,17.2605247 72.7211714,17.1079927 72.0195241,16.7968273 C72.0256254,16.0890787 72.0134228,15.3813301 72.0256254,14.6735815 C72.6174497,15.1006711 73.2946919,15.4118365 74.0207444,15.5338621 C74.5210494,15.6131788 75.0701647,15.61928 75.5399634,15.3935326 C75.9853569,15.1738865 76.0707749,14.533252 75.8023185,14.14277 C75.552166,13.8438072 75.1860891,13.6790726 74.8444173,13.514338 C74.1976815,13.2214765 73.514338,12.9774253 72.9469189,12.5442343 C72.5442343,12.2330689 72.2452715,11.7937767 72.1232459,11.2995729 C71.9463087,10.5674192 72.0012203,9.74374619 72.4283099,9.10921293 C72.9103112,8.3709579 73.752288,7.92556437 74.6125686,7.76693106 Z" id="Path"></path>
                <path d="M59.414277,8.05979256 C60.0183038,7.69371568 60.7931666,7.66320927 61.4521049,7.88895668 C61.4460037,8.62111043 61.4521049,9.35326419 61.4521049,10.0854179 C61.018914,9.804759 60.4758999,9.68273337 59.9694936,9.73764491 C59.3471629,9.81086028 58.8529591,10.2867602 58.5967053,10.8358755 C58.3160464,11.4154973 58.2672361,12.0744356 58.28554,12.7089689 C58.28554,14.1732764 58.28554,15.6375839 58.28554,17.1018914 C57.5655888,17.1018914 56.8395363,17.1018914 56.1195851,17.1018914 C56.1195851,14.0451495 56.1195851,10.9823063 56.1195851,7.92556437 C56.8395363,7.91336181 57.5655888,7.91946309 58.28554,7.92556437 C58.2794387,8.45027456 58.28554,8.97498475 58.28554,9.49969494 C58.5173887,8.9261745 58.8651617,8.3709579 59.414277,8.05979256 Z" id="Path"></path>
                <path d="M43.6546675,7.91946309 C44.38072,7.91946309 45.1128737,7.90726052 45.8389262,7.92556437 C45.8328249,10.9823063 45.8389262,14.0451495 45.8328249,17.1018914 C45.1067724,17.1018914 44.38072,17.1018914 43.6546675,17.1018914 C43.6546675,14.0390482 43.6546675,10.9823063 43.6546675,7.91946309 Z" id="Path"></path>
                <path d="M70.5613179,10.0610128 C70.1830384,9.21293472 69.4935937,8.50518609 68.6394143,8.12080537 C67.6632093,7.67541184 66.5466748,7.61439902 65.4972544,7.74862721 C64.3868212,7.88895668 63.3129957,8.40756559 62.6113484,9.29225137 C61.9707138,10.0793167 61.6595485,11.0921293 61.5985357,12.0988408 C61.5131178,13.2824893 61.7083588,14.5393533 62.4039048,15.5277608 C62.9957291,16.3819402 63.9292251,16.9676632 64.9420378,17.1812081 C65.7840146,17.3581452 66.6687004,17.3581452 67.5167785,17.1812081 C68.5051861,16.9798658 69.4264796,16.4307505 70.0366077,15.6253813 C70.6345333,14.8627212 70.933496,13.90482 71.0006101,12.9530201 C71.0677242,11.9768151 70.9701037,10.9640024 70.5613179,10.0610128 Z M68.4441733,14.2769982 C68.2367297,14.7467968 67.852349,15.1494814 67.3642465,15.3386211 C66.7968273,15.5582672 66.1561928,15.5704698 65.5704698,15.4179378 C64.9725442,15.2593045 64.4661379,14.8322148 64.1915802,14.2830995 C63.8377059,13.5753508 63.7827944,12.7577791 63.8560098,11.9829164 C63.9231239,11.2812691 64.1671751,10.5552166 64.7040879,10.0671141 C65.0945699,9.70103722 65.6253813,9.52410006 66.1500915,9.49359365 C66.8090299,9.45088469 67.5106772,9.64002441 67.9865772,10.1159243 C68.4929835,10.6162294 68.6882245,11.3361806 68.7431361,12.0317267 C68.7919463,12.7882855 68.7614399,13.5753508 68.4441733,14.2769982 Z" id="Shape" fill-rule="nonzero"></path>
                <path d="M88.1574131,10.3294692 C87.8218426,9.42037828 87.1446004,8.62721171 86.2721171,8.19402074 C85.271507,7.6876144 84.1061623,7.61439902 83.0140329,7.74862721 C82.1293472,7.86455156 81.2629652,8.20012203 80.585723,8.79194631 C79.76205,9.49969494 79.2800488,10.543014 79.1336181,11.6107383 C78.9993899,12.6784625 79.0420988,13.8010982 79.4813911,14.8017084 C79.8962782,15.7840146 80.7199512,16.5771812 81.71446,16.9676632 C82.690665,17.3520439 83.7766931,17.3947529 84.8078096,17.2300183 C85.85723,17.0591824 86.8578401,16.5039658 87.5106772,15.6497865 C88.2062233,14.771202 88.5051861,13.6302624 88.5051861,12.5198292 C88.5173887,11.7754728 88.4258694,11.0250153 88.1574131,10.3294692 Z M86.1744966,13.4411226 C86.0890787,13.9231239 85.9243441,14.4051251 85.6070775,14.7895058 C85.2898109,15.1738865 84.8139109,15.4057352 84.3258084,15.4789506 C83.8010982,15.5582672 83.2458816,15.5216595 82.7516779,15.3081147 C82.2208664,15.0823673 81.8120805,14.6247712 81.5924344,14.0939597 C81.3300793,13.4655278 81.2812691,12.7638804 81.3300793,12.0927395 C81.3788896,11.4399024 81.561928,10.7687614 81.995119,10.2623551 C82.385601,9.78645516 82.9896278,9.53020134 83.5997559,9.49359365 C84.2220866,9.45088469 84.881025,9.59121415 85.356925,10.0122026 C85.7962172,10.3782794 86.0402685,10.9212935 86.1500915,11.4765101 C86.2843197,12.1232459 86.2843197,12.7882855 86.1744966,13.4411226 Z" id="Shape" fill-rule="nonzero"></path>
                <path d="M0,11.214155 C3.3862111,11.214155 6.77242221,11.214155 10.1586333,11.214155 C10.1586333,14.6003661 10.1586333,17.9865772 10.1586333,21.3727883 L0,21.3727883 L0,11.214155 Z" id="Path"></path>
                <path d="M11.1958511,11.214155 C14.5820622,11.214155 17.9682733,11.214155 21.3544844,11.214155 C21.3544844,14.6003661 21.3544844,17.9865772 21.3544844,21.3727883 L11.1958511,21.3727883 C11.1958511,17.9865772 11.1958511,14.6003661 11.1958511,11.214155 Z" id="Path"></path>
            </g>
        </g>
    </g>
</svg>