<?xml version="1.0" encoding="UTF-8"?>
<svg width="94px" height="27px" viewBox="0 0 94 27" version="1.1" xmlns="http://www.w3.org/2000/svg" xmlns:xlink="http://www.w3.org/1999/xlink">
    <!-- Generator: Sketch 52.6 (67491) - http://www.bohemiancoding.com/sketch -->
    <title>NASA</title>
    <desc>Created with Sketch.</desc>
    <g id="Page-1" stroke="none" stroke-width="1" fill="none" fill-rule="evenodd">
        <g id="ESS-o-nas" transform="translate(-1642.000000, -3426.000000)" fill="#FFFFFF">
            <g id="NASA" transform="translate(1642.000000, 3426.000000)">
                <path d="M50.2,25.7 L62.1,25.7 L63.05,25.7 C64.95,25.7 66.55,24.9 67.8,23.35 C69.05,21.85 69.65,20 69.65,17.95 C69.65,13.75 64.3,10.8 62.2,10.8 L55.5,10.8 L55.2,10.8 C54.65,10.8 54.2,10.55 53.85,10.15 C53.5,9.7 53.3,9.2 53.3,8.65 C53.3,7.95 53.5,7.35 53.85,6.9 C54.25,6.4 54.75,6.1 55.35,6.1 L68.55,6.1 L68.55,0.85 L55.1,0.85 C52.7,0.85 50.8,1.6 49.5,3 C48.3,4.35 47.75,6.1 47.75,8.2 C47.75,10.25 48.35,12.1 49.5,13.55 C50.85,15.15 52.4,16 54.3,16 L61.6,16 L62.45,16 C62.95,16 63.35,16.15 63.65,16.55 C64,16.95 64.15,17.45 64.15,18 C64.15,18.65 63.9,19.25 63.5,19.7 C63.05,20.15 62.55,20.4 61.95,20.4 L48.95,20.4 L48.75,20.05 L43.9,4.4 L43.65,3.9 C42.45,1.5 40.5,0.3 37.8,0.3 C36.3,0.3 35,0.65 33.8,1.4 C32.55,2.15 31.8,3.2 31.35,4.6 L24.8,25.65 L30.75,25.7 L36.75,6.95 C36.9,6.35 37.25,6.05 37.7,6.05 C37.95,6.05 38.15,6.15 38.3,6.3 C38.45,6.5 38.55,6.7 38.6,6.95 L44.65,25.7 L50.2,25.7 Z" id="Path"></path>
                <path d="M5.95,8.5 L5.95,25.65 L0.45,25.65 L0.45,6.6 C0.45,4.15 1.05,2.4 2.3,1.4 C3.3,0.65 4.75,0.25 6.8,0.25 C8.45,0.25 9.9,0.75 11.2,1.7 C12.5,2.65 13.3,3.9 13.75,5.5 L17.35,18.15 L17.95,19.85 C18,20.2 18.2,20.45 18.4,20.65 C18.65,20.85 18.9,20.95 19.2,20.85 C19.7,20.8 19.95,20.5 19.95,20.05 L19.95,0.85 L25.6,0.85 L25.6,19.8 C25.6,21.9 25.1,23.5 24.1,24.6 C23.1,25.75 21.65,26.3 19.65,26.3 C17.95,26.3 16.5,25.95 15.35,25.35 C13.95,24.65 13.1,23.6 12.7,22.15 L8.55,7.75 L8.25,6.8 C8.15,6.45 7.95,6.2 7.7,5.95 C7.45,5.75 7.15,5.7 6.85,5.75 C6.55,5.8 6.35,5.95 6.15,6.25 C6,6.5 5.9,6.8 5.9,7.15 L5.9,8.5 L5.95,8.5 Z" id="Path"></path>
                <path d="M93.95,25.7 L87.55,4.4 L87.3,3.9 C86.1,1.5 84.15,0.3 81.45,0.3 C79.95,0.3 78.65,0.65 77.45,1.4 C76.2,2.15 75.45,3.2 75,4.6 L68.5,25.65 L74.45,25.7 L80.45,6.95 C80.6,6.35 80.95,6.05 81.4,6.05 C81.65,6.05 81.85,6.15 82,6.3 C82.15,6.5 82.25,6.7 82.3,6.95 L88.35,25.7 L93.95,25.7 Z" id="Path"></path>
            </g>
        </g>
    </g>
</svg>