<?xml version="1.0" encoding="UTF-8"?>
<svg width="17px" height="20px" viewBox="0 0 17 20" version="1.1" xmlns="http://www.w3.org/2000/svg" xmlns:xlink="http://www.w3.org/1999/xlink">
    <!-- Generator: Sketch 52.6 (67491) - http://www.bohemiancoding.com/sketch -->
    <title>pdf (1)</title>
    <desc>Created with Sketch.</desc>
    <g id="Page-1" stroke="none" stroke-width="1" fill="none" fill-rule="evenodd">
        <g id="ESS-sunpower" transform="translate(-401.000000, -10684.000000)" fill="#000" fill-rule="nonzero">
            <g id="pdf-(1)" transform="translate(401.000000, 10684.000000)">
                <path d="M14.7508672,11.4989139 C14.4921178,11.2366292 13.9182677,11.0977154 13.0450428,11.0859176 C12.4539379,11.0792135 11.7424861,11.1327715 10.9941585,11.2405618 C10.6590728,11.0416479 10.313758,10.8251685 10.0426317,10.5644944 C9.31337901,9.86385768 8.70465525,8.89134831 8.32534047,7.82194757 C8.35005782,7.72205993 8.3710985,7.63426966 8.39068308,7.54468165 C8.39068308,7.54468165 8.80144968,5.14419476 8.6927152,4.33258427 C8.67775375,4.22127341 8.6685439,4.18898876 8.63945824,4.10247191 L8.60378373,4.00816479 C8.49206424,3.74303371 8.27299358,3.46209738 7.92953533,3.47741573 L7.72811991,3.47082397 L7.72258672,3.47071161 C7.33959529,3.47071161 7.02744325,3.67224719 6.94550107,3.97348315 C6.69643469,4.91827715 6.95343683,6.33168539 7.41917131,8.1623221 L7.29995289,8.46048689 C6.96646895,9.29689139 6.54856745,10.1392509 6.17984582,10.882397 L6.13190364,10.9790637 C5.74399786,11.7601124 5.39202141,12.4231461 5.07295289,12.9848315 L4.74350964,13.1640449 C4.71952034,13.1770787 4.15491649,13.4843071 4.02248394,13.5667416 C2.89902784,14.2568914 2.15455889,15.0403745 2.03104497,15.6620974 C1.99173019,15.8604869 2.02099786,16.1143446 2.22088437,16.2319101 L2.53951606,16.3968914 C2.67773662,16.4681273 2.82349251,16.5042322 2.97281585,16.5042322 C3.77298073,16.5042322 4.7019379,15.4786891 5.98163383,13.1809363 C7.45914133,12.68603 9.14134047,12.2746816 10.6156445,12.0477903 C11.7391734,12.6986891 13.121015,13.1507491 13.9931842,13.1507491 C14.1480407,13.1507491 14.2815289,13.1355431 14.3900086,13.10603 C14.5572784,13.0604494 14.6982655,12.9622846 14.784212,12.8291011 C14.9534111,12.5671161 14.9877388,12.2062172 14.9417987,11.8367041 C14.9281113,11.7270787 14.8429657,11.5914981 14.7508672,11.4989139 Z M2.7993576,15.8795131 C2.9452591,15.4690262 3.52285867,14.6575281 4.37686296,13.9374906 C4.43055675,13.8926966 4.56280728,13.7651685 4.68391863,13.646779 C3.79085439,15.1122472 3.19279657,15.6963296 2.7993576,15.8795131 Z M7.85756745,3.89524345 C8.11478801,3.89524345 8.26108994,4.56228464 8.27324839,5.18764045 C8.28537045,5.81303371 8.14321842,6.25194757 7.96688437,6.57670412 C7.82083726,6.09588015 7.75025268,5.33801498 7.75025268,4.84247191 C7.75025268,4.84247191 7.73951392,3.89524345 7.85756745,3.89524345 Z M6.34868094,12.4355056 C6.52785439,12.1055056 6.71427195,11.7574906 6.9047666,11.388427 C7.36911777,10.4849438 7.66237687,9.77797753 7.88079229,9.19689139 C8.31518415,10.01 8.85616274,10.7012734 9.49211563,11.2551311 C9.57143683,11.3241948 9.65549036,11.393633 9.7437666,11.4628839 C8.45052891,11.7261423 7.33278801,12.0463296 6.34868094,12.4355056 Z M14.5023833,12.3605618 C14.4236081,12.411236 14.197985,12.4405243 14.052848,12.4405243 C13.5844561,12.4405243 13.0049272,12.2201873 12.1924946,11.8618352 C12.5046467,11.8380524 12.7908801,11.8259925 13.0475546,11.8259925 C13.5173662,11.8259925 13.6565332,11.8238951 14.1159336,11.9444569 C14.575334,12.0650187 14.5811221,12.3098876 14.5023833,12.3605618 Z M15.9153854,3.89026217 L13.206743,1.10348315 C12.6168394,0.496554307 11.451666,0 10.6174283,0 L1.51678587,0 C0.68254818,0 0,0.702247191 0,1.5605618 L0,18.4144944 C0,19.2727715 0.68254818,19.9750187 1.51678587,19.9750187 L15.4710921,19.9750187 C16.3052934,19.9750187 16.9878415,19.2727715 16.9878415,18.4144944 L16.9878415,6.55430712 C16.9878779,5.69599251 16.5052527,4.49715356 15.9153854,3.89026217 Z M15.0573769,4.77303371 C15.1167495,4.83411985 15.1758672,4.90910112 15.2333105,4.99374532 L12.1342141,4.99374532 L12.1342141,1.80524345 C12.2165203,1.86434457 12.2893983,1.92520599 12.3487345,1.98625468 L15.0573769,4.77303371 Z M15.7744711,18.4144944 C15.7744711,18.5836704 15.6355589,18.7265918 15.4711285,18.7265918 L1.51678587,18.7265918 C1.35235546,18.7265918 1.21344325,18.5836704 1.21344325,18.4144944 L1.21344325,1.5605618 C1.21344325,1.39138577 1.35239186,1.24846442 1.51678587,1.24846442 L10.6174283,1.24846442 C10.7090535,1.24846442 10.8118544,1.26037453 10.9208073,1.28168539 L10.9208073,6.24220974 L15.742182,6.24220974 C15.7628951,6.35430712 15.7744711,6.46003745 15.7744711,6.55430712 L15.7744711,18.4144944 Z" id="Shape"></path>
            </g>
        </g>
    </g>
</svg>