<?xml version="1.0" encoding="UTF-8"?>
<svg width="18px" height="20px" viewBox="0 0 18 20" version="1.1" xmlns="http://www.w3.org/2000/svg" xmlns:xlink="http://www.w3.org/1999/xlink">
    <!-- Generator: Sketch 52.6 (67491) - http://www.bohemiancoding.com/sketch -->
    <title>pdf (1)</title>
    <desc>Created with Sketch.</desc>
    <g id="Page-1" stroke="none" stroke-width="1" fill="none" fill-rule="evenodd">
        <g id="ESS-Частным-лицам3" transform="translate(-1561.000000, -4514.000000)" fill="#FFFFFF" fill-rule="nonzero">
            <g id="pdf-(1)" transform="translate(1561.000000, 4514.000000)">
                <path d="M15.1765918,11.4989139 C14.9103745,11.2366292 14.3199625,11.0977154 13.4215356,11.0859176 C12.8133708,11.0792135 12.0813858,11.1327715 11.3114607,11.2405618 C10.9667041,11.0416479 10.6114232,10.8251685 10.3324719,10.5644944 C9.58217228,9.86385768 8.95588015,8.89134831 8.56561798,7.82194757 C8.59104869,7.72205993 8.61269663,7.63426966 8.63284644,7.54468165 C8.63284644,7.54468165 9.05546816,5.14419476 8.94359551,4.33258427 C8.92820225,4.22127341 8.91872659,4.18898876 8.8888015,4.10247191 L8.85209738,4.00816479 C8.73715356,3.74303371 8.5117603,3.46209738 8.15838951,3.47741573 L7.95116105,3.47082397 L7.94546816,3.47071161 C7.55142322,3.47071161 7.23026217,3.67224719 7.14595506,3.97348315 C6.88970037,4.91827715 7.15411985,6.33168539 7.63329588,8.1623221 L7.5106367,8.46048689 C7.16752809,9.29689139 6.73756554,10.1392509 6.35820225,10.882397 L6.3088764,10.9790637 C5.90977528,11.7601124 5.54764045,12.4231461 5.2193633,12.9848315 L4.88041199,13.1640449 C4.85573034,13.1770787 4.27483146,13.4843071 4.13857678,13.5667416 C2.98269663,14.2568914 2.21674157,15.0403745 2.08966292,15.6620974 C2.04921348,15.8604869 2.07932584,16.1143446 2.28498127,16.2319101 L2.61280899,16.3968914 C2.75501873,16.4681273 2.90498127,16.5042322 3.05861423,16.5042322 C3.88187266,16.5042322 4.83764045,15.4786891 6.15426966,13.1809363 C7.67441948,12.68603 9.40516854,12.2746816 10.9220225,12.0477903 C12.0779775,12.6986891 13.4997004,13.1507491 14.3970412,13.1507491 C14.556367,13.1507491 14.6937079,13.1355431 14.8053184,13.10603 C14.9774157,13.0604494 15.1224719,12.9622846 15.2108989,12.8291011 C15.3849813,12.5671161 15.4202996,12.2062172 15.3730337,11.8367041 C15.3589513,11.7270787 15.2713483,11.5914981 15.1765918,11.4989139 Z M2.88014981,15.8795131 C3.03026217,15.4690262 3.62453184,14.6575281 4.50318352,13.9374906 C4.55842697,13.8926966 4.69449438,13.7651685 4.81910112,13.646779 C3.90026217,15.1122472 3.28494382,15.6963296 2.88014981,15.8795131 Z M8.08434457,3.89524345 C8.34898876,3.89524345 8.49951311,4.56228464 8.51202247,5.18764045 C8.52449438,5.81303371 8.3782397,6.25194757 8.19681648,6.57670412 C8.04655431,6.09588015 7.97393258,5.33801498 7.97393258,4.84247191 C7.97393258,4.84247191 7.9628839,3.89524345 8.08434457,3.89524345 Z M6.53191011,12.4355056 C6.71625468,12.1055056 6.90805243,11.7574906 7.10404494,11.388427 C7.58179775,10.4849438 7.8835206,9.77797753 8.1082397,9.19689139 C8.55516854,10.01 9.1117603,10.7012734 9.76606742,11.2551311 C9.8476779,11.3241948 9.9341573,11.393633 10.0249813,11.4628839 C8.69441948,11.7261423 7.54441948,12.0463296 6.53191011,12.4355056 Z M14.9209363,12.3605618 C14.8398876,12.411236 14.6077528,12.4405243 14.458427,12.4405243 C13.9765169,12.4405243 13.3802622,12.2201873 12.544382,11.8618352 C12.8655431,11.8380524 13.1600375,11.8259925 13.4241199,11.8259925 C13.9074906,11.8259925 14.0506742,11.8238951 14.5233333,11.9444569 C14.9959925,12.0650187 15.0019476,12.3098876 14.9209363,12.3605618 Z M16.3747191,3.89026217 L13.5879026,1.10348315 C12.9809738,0.496554307 11.7821723,0 10.9238577,0 L1.5605618,0 C0.702247191,0 0,0.702247191 0,1.5605618 L0,18.4144944 C0,19.2727715 0.702247191,19.9750187 1.5605618,19.9750187 L15.917603,19.9750187 C16.7758801,19.9750187 17.4781273,19.2727715 17.4781273,18.4144944 L17.4781273,6.55430712 C17.4781648,5.69599251 16.9816105,4.49715356 16.3747191,3.89026217 Z M15.4919476,4.77303371 C15.5530337,4.83411985 15.6138577,4.90910112 15.6729588,4.99374532 L12.4844195,4.99374532 L12.4844195,1.80524345 C12.5691011,1.86434457 12.6440824,1.92520599 12.7051311,1.98625468 L15.4919476,4.77303371 Z M16.2297378,18.4144944 C16.2297378,18.5836704 16.0868165,18.7265918 15.9176404,18.7265918 L1.5605618,18.7265918 C1.39138577,18.7265918 1.24846442,18.5836704 1.24846442,18.4144944 L1.24846442,1.5605618 C1.24846442,1.39138577 1.39142322,1.24846442 1.5605618,1.24846442 L10.9238577,1.24846442 C11.0181273,1.24846442 11.1238951,1.26037453 11.2359925,1.28168539 L11.2359925,6.24220974 L16.1965169,6.24220974 C16.2178277,6.35430712 16.2297378,6.46003745 16.2297378,6.55430712 L16.2297378,18.4144944 Z" id="Shape"></path>
            </g>
        </g>
    </g>
</svg>