<?xml version="1.0" encoding="UTF-8"?>
<svg width="35px" height="35px" viewBox="0 0 35 35" version="1.1" xmlns="http://www.w3.org/2000/svg" xmlns:xlink="http://www.w3.org/1999/xlink">
    <!-- Generator: Sketch 52.6 (67491) - http://www.bohemiancoding.com/sketch -->
    <title>percent</title>
    <desc>Created with Sketch.</desc>
    <g id="Page-1" stroke="none" stroke-width="1" fill="none" fill-rule="evenodd">
        <g id="ESS-кредитование" transform="translate(-42.000000, -1656.000000)" fill="#FFFFFF">
            <g id="percent" transform="translate(42.000000, 1656.000000)">
                <path d="M29.8744141,5.12558594 C26.5690332,1.8203418 22.1744141,0 17.5,0 C12.8255859,0 8.4309668,1.8203418 5.12558594,5.12558594 C1.8203418,8.4309668 0,12.8255859 0,17.5 C0,22.1744141 1.8203418,26.5690332 5.12558594,29.8744141 C8.4309668,33.1796582 12.8255859,35 17.5,35 C20.7001074,35 23.8312402,34.1278711 26.5550195,32.4780176 C27.2008105,32.0867285 27.4072559,31.2460449 27.0160352,30.6002539 C26.6247461,29.9543262 25.7841309,29.7480176 25.1382715,30.1392383 C22.841875,31.5303516 20.2005371,32.265625 17.5,32.265625 C9.35819336,32.265625 2.734375,25.6418066 2.734375,17.5 C2.734375,9.35819336 9.35819336,2.734375 17.5,2.734375 C25.6418066,2.734375 32.265625,9.35819336 32.265625,17.5 C32.265625,20.4113574 31.3998535,23.2451953 29.7618945,25.6951953 C29.3422363,26.3228711 29.5108789,27.1719629 30.1385547,27.5916211 C30.7663672,28.011416 31.6153906,27.8426367 32.0349805,27.2149609 C33.9747461,24.3136523 35,20.9541992 35,17.5 C35,12.8255859 33.1796582,8.4309668 29.8744141,5.12558594 Z" id="Path"></path>
                <path d="M13.2822266,25.5386523 C13.4889453,25.6504199 13.7115918,25.7033984 13.9311621,25.7033984 C14.4171289,25.7033984 14.8877832,25.4435645 15.1350391,24.9861035 L22.5252344,11.3142285 C22.8843262,10.6499121 22.6369336,9.82037109 21.9726855,9.46141602 C21.3083008,9.10232422 20.4787598,9.34978516 20.119873,10.0139648 L12.7296777,23.6858398 C12.3705859,24.3500879 12.6179785,25.1796289 13.2822266,25.5386523 Z" id="Path"></path>
                <path d="M15.2441406,12.7148438 C15.2441406,10.8301758 13.7108398,9.296875 11.8261719,9.296875 C9.94150391,9.296875 8.40820312,10.8301758 8.40820312,12.7148438 C8.40820312,14.5995117 9.94150391,16.1328125 11.8261719,16.1328125 C13.7108398,16.1328125 15.2441406,14.5995117 15.2441406,12.7148438 Z M11.8261719,13.3984375 C11.4492383,13.3984375 11.1425781,13.0917773 11.1425781,12.7148438 C11.1425781,12.3379102 11.4492383,12.03125 11.8261719,12.03125 C12.2031055,12.03125 12.5097656,12.3379102 12.5097656,12.7148438 C12.5097656,13.0917773 12.2031055,13.3984375 11.8261719,13.3984375 Z" id="Shape" fill-rule="nonzero"></path>
                <path d="M23.1054688,25.703125 C24.9901367,25.703125 26.5234375,24.1698242 26.5234375,22.2851562 C26.5234375,20.4004883 24.9901367,18.8671875 23.1054688,18.8671875 C21.2208008,18.8671875 19.6875,20.4004883 19.6875,22.2851562 C19.6875,24.1698242 21.2208008,25.703125 23.1054688,25.703125 Z M23.1054688,21.6015625 C23.4824023,21.6015625 23.7890625,21.9082227 23.7890625,22.2851562 C23.7890625,22.6620898 23.4824023,22.96875 23.1054688,22.96875 C22.7285352,22.96875 22.421875,22.6620898 22.421875,22.2851562 C22.421875,21.9082227 22.7285352,21.6015625 23.1054688,21.6015625 Z" id="Shape" fill-rule="nonzero"></path>
            </g>
        </g>
    </g>
</svg>