<?xml version="1.0" encoding="UTF-8"?>
<svg width="80px" height="80px" viewBox="0 0 80 80" version="1.1" xmlns="http://www.w3.org/2000/svg" xmlns:xlink="http://www.w3.org/1999/xlink">
    <!-- Generator: Sketch 52.6 (67491) - http://www.bohemiancoding.com/sketch -->
    <title>play-button</title>
    <desc>Created with Sketch.</desc>
    <g id="Page-1" stroke="none" stroke-width="1" fill="none" fill-rule="evenodd">
        <g id="ESS-sunport" transform="translate(-1416.000000, -4205.000000)" fill="#FF702A">
            <g id="play-button" transform="translate(1416.000000, 4205.000000)">
                <path d="M79.6704895,38.5454545 C79.001958,17.6111888 62.08,0.68979021 41.1462937,0.0212587413 C29.7555245,-0.34013986 19.0987413,3.99552448 11.2229371,12.126993 C3.65146853,19.9440559 -0.326713287,30.2495105 0.0212587413,41.1462937 C0.689230769,62.08 17.6111888,79.001958 38.5448951,79.6699301 C38.9806993,79.6839161 39.4125874,79.6906294 39.8455944,79.6906294 C50.728951,79.6906294 60.893986,75.3840559 68.4682517,67.5641958 C76.0397203,59.7476923 80.0184615,49.4416783 79.6704895,38.5454545 Z M62.4408392,61.7264336 C56.4615385,67.8998601 48.4369231,71.2995804 39.8455944,71.2995804 C39.5020979,71.2995804 39.1586014,71.293986 38.8123077,71.2833566 C22.2909091,70.7558042 8.93594406,57.4008392 8.40783217,40.8788811 C8.13314685,32.2735664 11.2732867,24.1359441 17.2503497,17.9653147 C23.2296503,11.7918881 31.2542657,8.39216783 39.8455944,8.39216783 C40.1890909,8.39216783 40.5325874,8.39776224 40.8788811,8.40839161 C57.4002797,8.93594406 70.7552448,22.2909091 71.2833566,38.8128671 C71.558042,47.4181818 68.4173427,55.5558042 62.4408392,61.7264336 Z" id="Shape" fill-rule="nonzero"></path>
                <path d="M52.9146853,37.5306294 L35.2453147,24.8615385 C33.3605594,23.5099301 30.7367832,24.8570629 30.7367832,27.1765035 L30.7367832,52.5152448 C30.7367832,54.8346853 33.3605594,56.1818182 35.2453147,54.8302098 L52.9141259,42.1605594 C54.4995804,41.0243357 54.4995804,38.6674126 52.9146853,37.5306294 Z" id="Path"></path>
            </g>
        </g>
    </g>
</svg>