<?xml version="1.0" encoding="UTF-8"?>
<svg width="300px" height="38px" viewBox="0 0 300 38" version="1.1" xmlns="http://www.w3.org/2000/svg" xmlns:xlink="http://www.w3.org/1999/xlink">
    <!-- Generator: Sketch 52.6 (67491) - http://www.bohemiancoding.com/sketch -->
    <title>sunpower-seeklogo.com</title>
    <desc>Created with Sketch.</desc>
    <g id="Page-1" stroke="none" stroke-width="1" fill="none" fill-rule="evenodd">
        <g id="ESS-sunpower" transform="translate(-810.000000, -546.000000)">
            <g id="sunpower-seeklogo.com" transform="translate(810.000000, 546.000000)">
                <path d="M17.3076923,8.74 C15.9615385,6.4125 14.2788462,5.035 11.3942308,5.035 C8.31730769,5.035 5.67307692,7.22 5.67307692,10.3075 C5.67307692,13.2525 8.75,14.5825 11.0576923,15.6275 L13.3173077,16.625 C17.7884615,18.525 21.5865385,20.7575 21.5865385,26.1725 C21.5865385,32.11 16.7307692,36.67 10.7692308,36.67 C5.24038462,36.67 1.15384615,33.155 0.0480769231,27.8825 L3.79807692,26.8375 C4.27884615,30.305 6.97115385,33.155 10.6730769,33.155 C14.375,33.155 17.7403846,30.3525 17.7403846,26.5525 C17.7403846,22.5625 14.5673077,21.2325 11.3942308,19.8075 L9.27884615,18.905 C5.24038462,17.1 1.77884615,15.0575 1.77884615,10.2125 C1.77884615,4.94 6.29807692,1.5675 11.3942308,1.5675 C15.2403846,1.5675 18.4615385,3.515 20.2884615,6.84 L17.3076923,8.74 Z" id="XMLID_24_" fill="#FFFFFF"></path>
                <path d="M38.2211538,22.325 C38.2211538,24.8425 38.125,27.74 39.7115385,29.8775 C41.2019231,31.9675 44.1346154,33.1075 46.6346154,33.1075 C49.0865385,33.1075 51.7788462,31.9675 53.3653846,30.0675 C55.1923077,27.8825 55.0480769,24.9375 55.0480769,22.2775 L55.0480769,2.09 L58.8942308,2.09 L58.8942308,23.37 C58.8942308,27.075 58.6057692,30.02 55.8653846,32.775 C53.5096154,35.2925 50.0480769,36.67 46.5865385,36.67 C43.3653846,36.67 40,35.435 37.6923077,33.2025 C34.6634615,30.3525 34.3269231,27.265 34.3269231,23.37 L34.3269231,2.09 L38.1730769,2.09 L38.1730769,22.325 L38.2211538,22.325 Z" id="XMLID_23_" fill="#FFFFFF"></path>
                <polygon id="XMLID_22_" fill="#FFFFFF" points="72.3557692 0.665 99.1826923 28.405 99.1826923 2.09 103.028846 2.09 103.028846 37.62 76.2019231 9.88 76.2019231 36.1 72.3557692 36.1"></polygon>
                <path d="M121.346154,5.605 L122.740385,5.605 C127.211538,5.605 131.730769,6.0325 131.730769,11.5425 C131.730769,16.435 128.125,17.67 123.894231,17.67 L121.346154,17.67 L121.346154,5.605 Z M121.346154,21.185 L124.134615,21.185 C127.019231,21.185 130,20.805 132.307692,18.9525 C134.471154,17.195 135.576923,14.3925 135.576923,11.6375 C135.576923,8.5975 134.230769,5.6525 131.682692,3.895 C129.182692,2.185 126.105769,2.09 123.173077,2.09 L117.5,2.09 L117.5,36.1 L121.346154,36.1 L121.346154,21.185 Z" id="Shape" fill="#FFFFFF" fill-rule="nonzero"></path>
                <polygon id="XMLID_19_" fill="#FFFFFF" points="197.403846 27.55 208.557692 0.3325 219.663462 27.55 228.701923 2.09 232.836538 2.09 219.663462 37.8575 208.557692 10.4975 197.403846 37.8575 184.230769 2.09 188.365385 2.09"></polygon>
                <polygon id="XMLID_18_" fill="#FFFFFF" points="241.442308 2.09 259.278846 2.09 259.278846 5.605 245.288462 5.605 245.288462 15.7225 258.846154 15.7225 258.846154 19.2375 245.288462 19.2375 245.288462 32.585 259.278846 32.585 259.278846 36.1 241.442308 36.1"></polygon>
                <path d="M276.009615,5.605 L277.163462,5.605 C281.778846,5.605 285.913462,6.1275 285.913462,11.7325 C285.913462,17.005 281.538462,17.8125 277.211538,17.8125 L276.009615,17.8125 L276.009615,5.605 Z M276.009615,21.1375 L276.971154,21.1375 L287.403846,36.1 L292.115385,36.1 L281.153846,20.8525 C286.442308,20.425 289.759615,16.72 289.759615,11.495 C289.759615,3.8475 283.701923,2.1375 277.163462,2.1375 L272.211538,2.1375 L272.211538,36.1 L276.057692,36.1 L276.057692,21.1375 L276.009615,21.1375 Z" id="Shape" fill="#FFFFFF" fill-rule="nonzero"></path>
                <path d="M17.3076923,8.74 C15.9615385,6.4125 14.2788462,5.035 11.3942308,5.035 C8.31730769,5.035 5.67307692,7.22 5.67307692,10.3075 C5.67307692,13.2525 8.75,14.5825 11.0576923,15.6275 L13.3173077,16.625 C17.7884615,18.525 21.5865385,20.7575 21.5865385,26.1725 C21.5865385,32.11 16.7307692,36.67 10.7692308,36.67 C5.24038462,36.67 1.15384615,33.155 0.0480769231,27.8825 L3.79807692,26.8375 C4.27884615,30.305 6.97115385,33.155 10.6730769,33.155 C14.375,33.155 17.7403846,30.3525 17.7403846,26.5525 C17.7403846,22.5625 14.5673077,21.2325 11.3942308,19.8075 L9.27884615,18.905 C5.24038462,17.1 1.77884615,15.0575 1.77884615,10.2125 C1.77884615,4.94 6.29807692,1.5675 11.3942308,1.5675 C15.2403846,1.5675 18.4615385,3.515 20.2884615,6.84 L17.3076923,8.74 Z" id="XMLID_15_" fill="#FFFFFF"></path>
                <path d="M38.2211538,22.325 C38.2211538,24.8425 38.125,27.74 39.7115385,29.8775 C41.2019231,31.9675 44.1346154,33.1075 46.6346154,33.1075 C49.0865385,33.1075 51.7788462,31.9675 53.3653846,30.0675 C55.1923077,27.8825 55.0480769,24.9375 55.0480769,22.2775 L55.0480769,2.09 L58.8942308,2.09 L58.8942308,23.37 C58.8942308,27.075 58.6057692,30.02 55.8653846,32.775 C53.5096154,35.2925 50.0480769,36.67 46.5865385,36.67 C43.3653846,36.67 40,35.435 37.6923077,33.2025 C34.6634615,30.3525 34.3269231,27.265 34.3269231,23.37 L34.3269231,2.09 L38.1730769,2.09 L38.1730769,22.325 L38.2211538,22.325 Z" id="XMLID_14_" fill="#FFFFFF"></path>
                <polygon id="XMLID_13_" fill="#FFFFFF" points="72.3557692 0.665 99.1826923 28.405 99.1826923 2.09 103.028846 2.09 103.028846 37.62 76.2019231 9.88 76.2019231 36.1 72.3557692 36.1"></polygon>
                <path d="M121.346154,5.605 L122.740385,5.605 C127.211538,5.605 131.730769,6.0325 131.730769,11.5425 C131.730769,16.435 128.125,17.67 123.894231,17.67 L121.346154,17.67 L121.346154,5.605 Z M121.346154,21.185 L124.134615,21.185 C127.019231,21.185 130,20.805 132.307692,18.9525 C134.471154,17.195 135.576923,14.3925 135.576923,11.6375 C135.576923,8.5975 134.230769,5.6525 131.682692,3.895 C129.182692,2.185 126.105769,2.09 123.173077,2.09 L117.5,2.09 L117.5,36.1 L121.346154,36.1 L121.346154,21.185 Z" id="Shape" fill="#FFFFFF" fill-rule="nonzero"></path>
                <polygon id="XMLID_10_" fill="#FFFFFF" points="197.403846 27.55 208.557692 0.3325 219.663462 27.55 228.701923 2.09 232.836538 2.09 219.663462 37.8575 208.557692 10.4975 197.403846 37.8575 184.230769 2.09 188.365385 2.09"></polygon>
                <polygon id="XMLID_9_" fill="#FFFFFF" points="241.442308 2.09 259.278846 2.09 259.278846 5.605 245.288462 5.605 245.288462 15.7225 258.846154 15.7225 258.846154 19.2375 245.288462 19.2375 245.288462 32.585 259.278846 32.585 259.278846 36.1 241.442308 36.1"></polygon>
                <path d="M276.009615,5.605 L277.163462,5.605 C281.778846,5.605 285.913462,6.1275 285.913462,11.7325 C285.913462,17.005 281.538462,17.8125 277.211538,17.8125 L276.009615,17.8125 L276.009615,5.605 Z M276.009615,21.1375 L276.971154,21.1375 L287.403846,36.1 L292.115385,36.1 L281.153846,20.8525 C286.442308,20.425 289.759615,16.72 289.759615,11.495 C289.759615,3.8475 283.701923,2.1375 277.163462,2.1375 L272.211538,2.1375 L272.211538,36.1 L276.057692,36.1 L276.057692,21.1375 L276.009615,21.1375 Z" id="Shape" fill="#FFFFFF" fill-rule="nonzero"></path>
                <path d="M292.836538,5.5575 C292.836538,3.61 294.375,2.09 296.346154,2.09 C298.317308,2.09 299.855769,3.61 299.855769,5.5575 C299.855769,7.505 298.317308,9.025 296.346154,9.025 C294.375,9.025 292.836538,7.505 292.836538,5.5575 Z M293.413462,5.5575 C293.413462,7.1725 294.759615,8.455 296.346154,8.455 C297.932692,8.455 299.278846,7.1725 299.278846,5.5575 C299.278846,3.895 297.932692,2.66 296.346154,2.66 C294.759615,2.66 293.413462,3.895 293.413462,5.5575 Z M297.932692,7.5525 L297.259615,7.5525 L296.25,5.7475 L295.528846,5.7475 L295.528846,7.5525 L294.951923,7.5525 L294.951923,3.6575 L296.586538,3.6575 C297.307692,3.6575 297.932692,3.8475 297.932692,4.7025 C297.932692,5.4625 297.403846,5.7475 296.875,5.7475 L297.932692,7.5525 Z M295.576923,4.18 L295.576923,5.13 L296.201923,5.13 C296.730769,5.13 297.451923,5.225 297.451923,4.7025 C297.451923,4.2275 297.019231,4.18 296.538462,4.18 L295.576923,4.18 Z" id="Shape" fill="#FFFFFF" fill-rule="nonzero"></path>
                <path d="M178.942308,19.1425 C178.942308,29.07 171.009615,36.575 160.913462,36.575 C151.057692,36.575 143.076923,28.69 143.076923,19.19 C143.076923,9.5475 150.961538,1.6625 160.913462,1.6625 C171.009615,1.71 178.942308,9.215 178.942308,19.1425 M147.115385,19.19 C147.115385,26.41 152.980769,32.8225 160.673077,32.8225 C168.653846,32.8225 174.855769,26.885 174.855769,19.19 C174.855769,11.3525 168.701923,5.415 160.673077,5.415 C152.884615,5.4625 147.115385,11.8275 147.115385,19.19" id="Shape" fill="#F7921E" fill-rule="nonzero"></path>
            </g>
        </g>
    </g>
</svg>