<?xml version="1.0" encoding="UTF-8"?>
<svg width="120px" height="120px" viewBox="0 0 120 120" version="1.1" xmlns="http://www.w3.org/2000/svg" xmlns:xlink="http://www.w3.org/1999/xlink">
    <!-- Generator: Sketch 52.6 (67491) - http://www.bohemiancoding.com/sketch -->
    <title>support (22)</title>
    <desc>Created with Sketch.</desc>
    <g id="Page-1" stroke="none" stroke-width="1" fill="none" fill-rule="evenodd" opacity="0.5">
        <g id="ESS-Частным-лицам2" transform="translate(-1343.000000, -1438.000000)" fill="#FFFFFF">
            <g id="support-(22)" transform="translate(1343.000000, 1438.000000)">
                <path d="M20.9630931,93.1208406 C19.3391916,93.1208406 17.7363796,93.5201401 16.3233743,94.2977233 L16.1757469,94.3817863 L16.0702988,94.234676 C8.47803163,84.5043783 4.30228471,72.3362522 4.30228471,59.9789842 C4.30228471,29.2539405 29.2934974,4.26619965 60.0210896,4.26619965 C63.7539543,4.26619965 67.486819,4.64448336 71.1142355,5.38003503 C71.6836555,5.48511384 72.2530756,5.38003503 72.7170475,5.0647986 C73.202109,4.74956217 73.5184534,4.26619965 73.6239016,3.69877408 C73.8558875,2.54290718 73.0966608,1.40805604 71.9578207,1.17688266 C68.0351494,0.399299475 64.0070299,0 60,0 C43.9718805,0 28.913884,6.24168126 17.5676626,17.5691769 C6.24253076,28.8966725 0,43.9649737 0,60 C0,73.4500876 4.57644991,86.647986 12.9068541,97.1768827 L13.0123023,97.3029772 L12.9279438,97.4290718 C11.8734622,99.0052539 11.3040422,100.875657 11.3040422,102.788091 C11.3040422,105.37303 12.3163445,107.789842 14.1300527,109.618214 C15.9648506,111.446585 18.3901582,112.455342 20.9630931,112.455342 C23.5360281,112.455342 25.9824253,111.446585 27.7961336,109.618214 C29.6309315,107.789842 30.6221441,105.37303 30.6221441,102.788091 C30.6221441,100.203152 29.6098418,97.7863398 27.7961336,95.9579685 C25.9824253,94.1295972 23.5571178,93.1208406 20.9630931,93.1208406 Z M24.7803163,106.591944 C23.7680141,107.600701 22.4182777,108.168126 20.9630931,108.168126 C19.5289982,108.168126 18.1792619,107.600701 17.1458699,106.591944 C16.1335677,105.583187 15.5641476,104.217163 15.5641476,102.788091 C15.5641476,101.359019 16.1335677,99.9929947 17.1458699,98.9842382 C18.1581722,97.9754816 19.5079086,97.408056 20.9630931,97.408056 C22.397188,97.408056 23.7469244,97.9754816 24.7803163,98.9842382 C25.7926186,99.9929947 26.3620387,101.359019 26.3620387,102.788091 C26.3620387,104.238179 25.7926186,105.583187 24.7803163,106.591944 Z" id="Shape" fill-rule="nonzero"></path>
                <path d="M107.093146,22.8021016 L106.987698,22.676007 L107.072056,22.5499124 C109.623902,18.7250438 109.11775,13.5971979 105.869947,10.3607706 C104.035149,8.5323993 101.609842,7.52364273 99.0369069,7.52364273 C96.4639719,7.52364273 94.0175747,8.5323993 92.2038664,10.3607706 C90.3690685,12.1891419 89.3778559,14.6059545 89.3778559,17.1908932 C89.3778559,19.7758319 90.3901582,22.1926445 92.2038664,24.0210158 C94.0386643,25.849387 96.4639719,26.8581436 99.0369069,26.8581436 C100.660808,26.8581436 102.26362,26.4588441 103.676626,25.6812609 L103.824253,25.5971979 L103.929701,25.7443082 C111.521968,35.474606 115.697715,47.642732 115.697715,60 C115.697715,90.7250438 90.7065026,115.712785 59.9789104,115.712785 C56.288225,115.712785 52.5764499,115.355517 48.9912127,114.619965 C48.8435852,114.598949 48.7170475,114.577933 48.56942,114.577933 C47.5571178,114.577933 46.6713533,115.292469 46.4604569,116.301226 C46.228471,117.457093 46.9876977,118.591944 48.1476274,118.823117 C52.0281195,119.600701 55.9929701,119.978984 59.9789104,119.978984 C76.0070299,119.978984 91.0650264,113.737303 102.411248,102.409807 C113.73638,91.0823117 119.97891,76.0140105 119.97891,59.9789842 C120,46.5499124 115.40246,33.352014 107.093146,22.8021016 Z M99.0369069,22.591944 C97.602812,22.591944 96.2530756,22.0245184 95.2196837,21.0157618 C94.2073814,20.0070053 93.6379613,18.6409807 93.6379613,17.2119089 C93.6379613,15.7828371 94.2073814,14.4168126 95.2196837,13.408056 C96.2319859,12.3992995 97.5817223,11.8318739 99.0369069,11.8318739 C100.471002,11.8318739 101.820738,12.3992995 102.85413,13.408056 C104.963093,15.5096322 104.963093,18.9352014 102.85413,21.0157618 C101.820738,22.0245184 100.471002,22.591944 99.0369069,22.591944 Z" id="Shape" fill-rule="nonzero"></path>
                <path d="M50.5096661,95.7267951 L50.5096661,100.455342 C50.5096661,101.632224 51.4797891,102.598949 52.6608084,102.598949 L67.3602812,102.598949 C68.5413005,102.598949 69.5114236,101.632224 69.5114236,100.455342 L69.5114236,95.7267951 L69.659051,95.6847636 C72.7170475,94.8651489 75.6695958,93.6252189 78.4323374,92.0490368 L78.5799649,91.9649737 L81.9121265,95.3064799 C82.3128295,95.7057793 82.8611599,95.9369527 83.43058,95.9369527 C84,95.9369527 84.5483304,95.7057793 84.9490334,95.3064799 L95.3251318,84.9036778 C96.168717,84.0630473 96.168717,82.7180385 95.3251318,81.8774081 L91.9929701,78.5569177 L92.0773286,78.4098074 C93.659051,75.6567426 94.8822496,72.6935201 95.7047452,69.6252189 L95.7469244,69.4781086 L100.449912,69.4781086 C101.630931,69.4781086 102.601054,68.5113835 102.601054,67.3345009 L102.601054,52.6234676 C102.601054,51.4465849 101.630931,50.4798599 100.449912,50.4798599 L95.7469244,50.4798599 L95.7047452,50.3327496 C94.8822496,47.2644483 93.659051,44.3012259 92.0773286,41.5481611 L91.9929701,41.4010508 L95.3040422,38.0805604 C95.7047452,37.6812609 95.9367311,37.1348511 95.9367311,36.5674256 C95.9367311,36 95.7047452,35.4535902 95.3040422,35.0542907 L84.9068541,24.6514886 C84.5061511,24.2521891 83.9578207,24.0210158 83.3884007,24.0210158 C82.8189807,24.0210158 82.2706503,24.2521891 81.8699473,24.6514886 L78.5588752,27.9509632 L78.4112478,27.8669002 C75.6485062,26.2697023 72.6959578,25.0507881 69.6379613,24.2311734 L69.4903339,24.1891419 L69.4903339,19.5446585 C69.4903339,18.3677758 68.5202109,17.4010508 67.3391916,17.4010508 L52.6397188,17.4010508 C51.4586995,17.4010508 50.4885764,18.3677758 50.4885764,19.5446585 L50.4885764,24.2311734 L50.340949,24.2732049 C47.2829525,25.0928196 44.3304042,26.3117338 41.5676626,27.9089317 L41.4200351,27.9929947 L38.1089631,24.6935201 C37.7082601,24.2942207 37.1599297,24.0630473 36.5905097,24.0630473 C36.5905097,24.0630473 36.5905097,24.0630473 36.5905097,24.0630473 C36.0210896,24.0630473 35.4727592,24.2942207 35.0720562,24.6935201 L24.6748682,35.0963222 C24.2741652,35.4956217 24.0421793,36.0420315 24.0421793,36.6094571 C24.0421793,37.1768827 24.2741652,37.7232925 24.6748682,38.1225919 L27.9859402,41.4430823 L27.9015817,41.5901926 C26.3198594,44.3432574 25.0966608,47.3064799 24.2741652,50.3747811 L24.2319859,50.5218914 L19.5500879,50.5218914 C18.3690685,50.5218914 17.3989455,51.4886165 17.3989455,52.6654991 L17.3989455,67.3765324 C17.3989455,67.943958 17.6309315,68.4903678 18.0316344,68.8896673 C18.4323374,69.2889667 18.9806678,69.5201401 19.5500879,69.5201401 L24.2530756,69.5201401 L24.2952548,69.6672504 C25.1177504,72.7355517 26.340949,75.6777583 27.9226714,78.4518389 L28.0070299,78.5989492 L24.6748682,81.8774081 C23.831283,82.7180385 23.831283,84.0630473 24.6748682,84.9036778 L35.0720562,95.3064799 C35.4727592,95.7057793 36.0210896,95.9369527 36.5905097,95.9369527 C37.1599297,95.9369527 37.7082601,95.7057793 38.1089631,95.3064799 L41.4411248,91.9649737 L41.5887522,92.0490368 C44.3514938,93.6462347 47.3040422,94.8651489 50.3620387,95.6847636 L50.5096661,95.7267951 Z M32.2249561,80.385289 C32.9420035,79.6707531 33.0474517,78.5569177 32.4991213,77.7162872 C30.3479789,74.3957968 28.8506151,70.7600701 28.0070299,66.8931699 C27.7961336,65.9054291 26.9103691,65.2119089 25.9191564,65.2119089 L21.659051,65.2119089 L21.659051,54.7880911 L25.940246,54.7880911 C26.9525483,54.7880911 27.8172232,54.0735552 28.0281195,53.1068301 C28.8506151,49.2399299 30.3690685,45.6042032 32.5202109,42.2837128 C33.0685413,41.4430823 32.9420035,40.3082312 32.2460457,39.614711 L29.2513181,36.6304729 L36.6326889,29.2539405 L39.6274165,32.2381786 C40.344464,32.9527145 41.4622144,33.0577933 42.3057996,32.5323993 C45.6168717,30.3887916 49.2653779,28.8756567 53.1247803,28.056042 C54.0949033,27.8458844 54.8119508,26.9632224 54.8119508,25.9544658 L54.8119508,21.7302977 L65.2302285,21.7302977 L65.2302285,25.9544658 C65.2302285,26.9632224 65.9472759,27.8458844 66.9173989,28.056042 C70.7768014,28.8756567 74.4253076,30.3887916 77.7363796,32.5323993 C78.5799649,33.0788091 79.6977153,32.9527145 80.4147627,32.2381786 L83.4094903,29.2539405 L90.7908612,36.6304729 L87.7961336,39.614711 C87.0790861,40.3292469 86.973638,41.4430823 87.5219684,42.2837128 C89.6731107,45.6042032 91.1704745,49.2399299 92.0140598,53.1068301 C92.2249561,54.0945709 93.1107206,54.7880911 94.1019332,54.7880911 L98.3620387,54.7880911 L98.3620387,65.2119089 L94.059754,65.2119089 C93.0474517,65.2119089 92.1827768,65.9264448 91.9718805,66.8931699 C91.1493849,70.7600701 89.6309315,74.3957968 87.4797891,77.7162872 C86.9314587,78.5569177 87.0579965,79.6917688 87.7539543,80.385289 L90.7697715,83.3905429 L83.4094903,90.7670753 L80.3936731,87.7618214 C79.6766257,87.0472855 78.5588752,86.9422067 77.71529,87.4676007 C74.4042179,89.6112084 70.7557118,91.1243433 66.8963093,91.943958 C65.9261863,92.1541156 65.2091388,93.0367776 65.2091388,94.0455342 L65.2091388,98.3117338 L54.7908612,98.3117338 L54.7908612,94.0455342 C54.7908612,93.0367776 54.0738137,92.1541156 53.1036907,91.943958 C49.2442882,91.1243433 45.5957821,89.6112084 42.28471,87.4676007 C41.4411248,86.9211909 40.3233743,87.0472855 39.6063269,87.7618214 L36.5905097,90.7670753 L29.2302285,83.3905429 L32.2249561,80.385289 Z" id="Shape" fill-rule="nonzero"></path>
                <path d="M60.0210896,72.5464098 C58.2706503,72.5464098 56.8365554,73.9754816 56.8365554,75.7197898 C56.8365554,77.4640981 58.2706503,78.8931699 60.0210896,78.8931699 C61.771529,78.8931699 63.2056239,77.4640981 63.2056239,75.7197898 C63.2056239,73.9754816 61.771529,72.5464098 60.0210896,72.5464098 Z" id="Path"></path>
                <path d="M40.3866432,53.3590193 C45.5536028,47.8318739 52.5764499,44.7845884 60.1054482,44.7845884 C67.655536,44.7845884 74.6572935,47.8318739 79.8242531,53.3590193 C80.2038664,53.7583187 80.7311072,53.9894921 81.3005272,53.9894921 C81.8066784,53.9894921 82.2917399,53.8003503 82.6713533,53.4430823 C83.4727592,52.6865149 83.5360281,51.4255692 82.7768014,50.6059545 C76.8295255,44.2591944 68.7943761,40.7495622 60.1054482,40.7495622 C51.4376098,40.7495622 43.3813708,44.2591944 37.4340949,50.6059545 C36.6748682,51.4045534 36.7170475,52.6865149 37.5395431,53.4430823 C38.3620387,54.2206655 39.6274165,54.178634 40.3866432,53.3590193 Z" id="Path"></path>
                <path d="M60.1054482,51.17338 C54.1581722,51.17338 48.4428822,53.6112084 44.0351494,58.0245184 C43.254833,58.8021016 43.254833,60.084063 44.056239,60.8616462 C44.8365554,61.6392294 46.1230228,61.6392294 46.9033392,60.8406305 C50.5518453,57.1838879 55.2337434,55.1663748 60.1265378,55.1663748 C64.9982425,55.1663748 69.7012302,57.1838879 73.3497364,60.8406305 C73.7293497,61.2189142 74.2355009,61.4290718 74.7838313,61.4290718 C75.3110721,61.4290718 75.8172232,61.2189142 76.1968366,60.8406305 C76.9771529,60.0630473 76.9771529,58.8021016 76.2179262,58.0035026 C71.7680141,53.6112084 66.0738137,51.17338 60.1054482,51.17338 Z" id="Path"></path>
                <path d="M60.0843585,61.6392294 L59.9578207,61.6392294 C56.857645,61.6392294 53.4411248,63.089317 51.0579965,65.4430823 C50.6783831,65.821366 50.4674868,66.3257443 50.4674868,66.8511384 C50.4674868,67.3765324 50.6783831,67.8809107 51.0579965,68.2591944 C51.4376098,68.6374781 51.943761,68.8476357 52.4920914,68.8476357 C53.0193322,68.8476357 53.5254833,68.6374781 53.9050967,68.2591944 C55.5289982,66.6619965 57.9121265,65.6112084 59.9789104,65.6112084 L60.1054482,65.6112084 C62.172232,65.6112084 64.5342707,66.6409807 66.1792619,68.2591944 C66.5588752,68.6374781 67.0650264,68.8476357 67.5922671,68.8476357 C67.5922671,68.8476357 67.5922671,68.8476357 67.5922671,68.8476357 C68.1195079,68.8476357 68.6256591,68.6374781 69.0052724,68.2591944 C69.3848858,67.8809107 69.5957821,67.3765324 69.5957821,66.8511384 C69.5957821,66.3257443 69.3848858,65.821366 69.0052724,65.4430823 C66.6010545,63.089317 63.2056239,61.6392294 60.0843585,61.6392294 Z" id="Path"></path>
                <path d="M80.5413005,8.07005254 C80.9209139,8.9737303 81.827768,9.56217163 82.8189807,9.49912434 C83.7891037,9.45709282 84.6326889,8.8056042 84.9279438,7.88091068 C85.2231986,6.95621716 84.9068541,5.90542907 84.1265378,5.31698774 C83.3251318,4.70753065 82.228471,4.68651489 81.4059754,5.23292469 C80.4780316,5.84238179 80.1195079,7.04028021 80.5413005,8.07005254 Z" id="Path"></path>
                <path d="M35.43058,113.968476 C35.8101933,114.872154 36.7170475,115.460595 37.7082601,115.397548 C38.6783831,115.355517 39.5219684,114.704028 39.8172232,113.779335 C40.112478,112.854641 39.7961336,111.803853 39.0158172,111.215412 C38.2144112,110.605954 37.1177504,110.584939 36.2952548,111.131349 C35.3673111,111.740806 35.029877,112.95972 35.43058,113.968476 Z" id="Path"></path>
            </g>
        </g>
    </g>
</svg>