<?xml version="1.0" encoding="UTF-8"?>
<svg width="45px" height="41px" viewBox="0 0 45 41" version="1.1" xmlns="http://www.w3.org/2000/svg" xmlns:xlink="http://www.w3.org/1999/xlink">
    <!-- Generator: Sketch 52.6 (67491) - http://www.bohemiancoding.com/sketch -->
    <title>telegram-logo</title>
    <desc>Created with Sketch.</desc>
    <g id="Page-1" stroke="none" stroke-width="1" fill="none" fill-rule="evenodd">
        <g id="ESS-контакты" transform="translate(-466.000000, -957.000000)" fill="#FF702A" fill-rule="nonzero">
            <g id="telegram-logo" transform="translate(466.000000, 957.000000)">
                <path d="M36.1257632,40.3758947 C35.7752368,40.3758947 35.4270789,40.2721579 35.1284211,40.0696579 L23.8450263,32.4158684 L17.7932368,36.7704474 C17.3186053,37.1117368 16.7068421,37.1977105 16.1557105,37.0006579 C15.6052895,36.8031316 15.1872632,36.3472105 15.0380526,35.7818684 L11.9993684,24.2661316 L1.14181579,20.1145263 C0.458289474,19.8530526 0.00497368421,19.1991316 1.33018732e-15,18.4672895 C-0.00497368421,17.7354474 0.439342105,17.0753684 1.11955263,16.8046579 L42.4039737,0.377289474 C42.5913158,0.297710526 42.7895526,0.251763158 42.9894474,0.239447368 C43.0609737,0.235184211 43.1327368,0.235184211 43.2040263,0.239210526 C43.6180263,0.263842105 44.0246842,0.432473684 44.3420526,0.743684211 C44.3749737,0.775894737 44.4062368,0.808815789 44.4358421,0.843157895 C44.6987368,1.14347368 44.8432105,1.50963158 44.8704474,1.88265789 C44.8770789,1.97644737 44.8766053,2.07142105 44.8683158,2.16639474 C44.8626316,2.23413158 44.8529211,2.30163158 44.8391842,2.36865789 L37.8705789,38.9321053 C37.7585526,39.5194737 37.3587632,40.0111579 36.8064474,40.2401842 C36.5873684,40.3311316 36.3559737,40.3758947 36.1257632,40.3758947 Z M24.8357368,28.7950263 L34.8866053,35.6125263 L40.3088684,7.16210526 L20.7251053,26.0066842 L24.7883684,28.7630526 C24.8047105,28.7732368 24.8203421,28.7841316 24.8357368,28.7950263 Z M16.4688158,27.279 L17.8145526,32.3782105 L20.7139737,30.2918684 L16.9173947,27.7164474 C16.7409474,27.5970789 16.5898421,27.4483421 16.4688158,27.279 Z M6.66378947,18.4220526 L14.1191053,21.2724474 C14.6531842,21.4766053 15.0562895,21.9256579 15.2021842,22.4784474 L16.1476579,26.0616316 C16.191,25.6483421 16.3783421,25.2594474 16.6826842,24.9664737 L35.3432368,7.01052632 L6.66378947,18.4220526 Z" id="Shape"></path>
            </g>
        </g>
    </g>
</svg>