<?xml version="1.0" encoding="UTF-8"?>
<svg width="55px" height="35px" viewBox="0 0 55 35" version="1.1" xmlns="http://www.w3.org/2000/svg" xmlns:xlink="http://www.w3.org/1999/xlink">
    <!-- Generator: Sketch 52.6 (67491) - http://www.bohemiancoding.com/sketch -->
    <title>toyota-seeklogo.com</title>
    <desc>Created with Sketch.</desc>
    <g id="Page-1" stroke="none" stroke-width="1" fill="none" fill-rule="evenodd">
        <g id="ESS-o-nas" transform="translate(-1662.000000, -3481.000000)" fill="#FFFFFF">
            <g id="toyota-seeklogo.com" transform="translate(1662.000000, 3481.000000)">
                <path d="M27.4293478,0.0253623188 C12.2753623,0.0253623188 0,7.84963768 0,17.5 C0,27.1503623 12.2753623,34.9746377 27.4293478,34.9746377 C42.5833333,34.9746377 54.8586957,27.1503623 54.8586957,17.5 C54.8586957,7.84963768 42.5833333,0.0253623188 27.4293478,0.0253623188 Z M7.10144928,10.5887681 C7.86231884,13.7463768 13.3532609,16.3586957 20.7844203,17.3605072 C20.7844203,17.5126812 20.7844203,17.6521739 20.7844203,17.8043478 C20.7844203,25.298913 22.9402174,31.576087 25.8442029,33.2880435 C13.7844203,32.7173913 4.28623188,26.0597826 4.28623188,17.9438406 C4.27355072,15.2807971 5.30072464,12.7699275 7.10144928,10.5887681 Z M23.5108696,17.6394928 C24.7789855,17.740942 26.0851449,17.7916667 27.4293478,17.7916667 C28.7735507,17.7916667 30.0797101,17.740942 31.3478261,17.6394928 C31.1702899,23.1938406 29.4836957,27.5434783 27.4293478,27.5434783 C25.375,27.5434783 23.6884058,23.1938406 23.5108696,17.6394928 Z M34.0742754,17.3605072 C41.6702899,16.3460145 47.2373188,13.6195652 47.7952899,10.3731884 C49.7101449,12.6050725 50.8007246,15.192029 50.8007246,17.9438406 C50.8007246,26.1105072 41.1630435,32.8061594 28.9891304,33.3007246 C31.9057971,31.6141304 34.0615942,25.3115942 34.0615942,17.817029 C34.0742754,17.6521739 34.0742754,17.5126812 34.0742754,17.3605072 Z M29.8007246,2.91666667 C37.3967391,3.29710145 43.2173913,5.51630435 43.2173913,8.17934783 C43.2173913,10.3605072 39.3369565,12.2373188 33.7699275,13.0615942 C33.173913,8.39492754 31.7028986,4.65398551 29.8007246,2.91666667 Z M31.182971,13.365942 C29.9782609,13.4673913 28.7228261,13.5181159 27.4293478,13.5181159 C26.1358696,13.5181159 24.8804348,13.4673913 23.6757246,13.365942 C24.182971,8.96557971 25.6666667,5.76992754 27.4293478,5.76992754 C29.192029,5.76992754 30.6757246,8.95289855 31.182971,13.365942 Z M21.076087,13.0615942 C15.509058,12.2373188 11.6286232,10.3605072 11.6286232,8.17934783 C11.6286232,7.27898551 12.2880435,6.42934783 13.4673913,5.68115942 C14.8369565,4.98369565 16.3333333,4.40036232 17.9184783,3.91847826 C19.9601449,3.39855072 22.3949275,3.04347826 25.0452899,2.90398551 C23.1557971,4.65398551 21.6847826,8.39492754 21.076087,13.0615942 Z" id="Shape"></path>
            </g>
        </g>
    </g>
</svg>