<?xml version="1.0" encoding="UTF-8"?>
<svg width="45px" height="37px" viewBox="0 0 45 37" version="1.1" xmlns="http://www.w3.org/2000/svg" xmlns:xlink="http://www.w3.org/1999/xlink">
    <!-- Generator: Sketch 52.6 (67491) - http://www.bohemiancoding.com/sketch -->
    <title>Path</title>
    <desc>Created with Sketch.</desc>
    <g id="Page-1" stroke="none" stroke-width="1" fill="none" fill-rule="evenodd">
        <g id="ESS-контакты" transform="translate(-534.000000, -959.000000)" fill="#FF702A">
            <path d="M578.911879,963.355444 C577.252573,964.084788 575.480772,964.581642 573.615224,964.808508 C575.516395,963.662931 576.978834,961.857381 577.67068,959.703096 C575.88763,960.743677 573.911462,961.501146 571.8078,961.923003 C570.12787,960.124953 567.733594,959 565.074955,959 C559.980792,959 555.85034,963.130453 555.85034,968.218991 C555.85034,968.95021 555.934711,969.653306 556.088455,970.326403 C548.420024,969.964543 541.623432,966.282197 537.074872,960.715554 C536.27428,962.069247 535.826174,963.642307 535.826174,965.355985 C535.826174,968.562102 537.457356,971.380109 539.928503,973.035665 C538.415441,972.986917 536.992375,972.570685 535.751177,971.880713 L535.751177,971.995084 C535.751177,976.466772 538.92542,980.195992 543.149619,981.045331 C542.375276,981.253448 541.55781,981.365943 540.71972,981.365943 C540.130995,981.365943 539.566643,981.309695 539.002292,981.2047 C540.185367,984.866422 543.586476,987.536311 547.634432,987.611308 C544.484563,990.08433 540.492854,991.558018 536.193659,991.558018 C535.462439,991.558018 534.733094,991.514895 534,991.432399 C538.104204,994.04604 542.939628,995.574101 548.168785,995.574101 C565.144327,995.574101 574.415816,981.519687 574.415816,969.351444 C574.415816,968.959585 574.415816,968.563977 574.387692,968.170243 C576.189492,966.878422 577.762552,965.245365 579,963.392942 L578.911879,963.355444 Z" id="Path"></path>
        </g>
    </g>
</svg>