<?xml version="1.0" encoding="UTF-8"?>
<svg width="44px" height="45px" viewBox="0 0 44 45" version="1.1" xmlns="http://www.w3.org/2000/svg" xmlns:xlink="http://www.w3.org/1999/xlink">
    <!-- Generator: Sketch 52.6 (67491) - http://www.bohemiancoding.com/sketch -->
    <title>viber</title>
    <desc>Created with Sketch.</desc>
    <g id="Page-1" stroke="none" stroke-width="1" fill="none" fill-rule="evenodd">
        <g id="ESS-контакты" transform="translate(-396.000000, -955.000000)" fill="#FF702A">
            <g id="viber" transform="translate(396.000000, 955.000000)">
                <path d="M42.4121406,10.9121406 L42.3977636,10.8546326 C41.3482428,6.62779553 36.6325879,2.08466454 32.3051118,1.13578275 L32.2619808,1.12140575 C25.2460064,-0.215654952 18.14377,-0.215654952 11.1421725,1.12140575 L11.0846645,1.13578275 C6.7571885,2.08466454 2.04153355,6.62779553 0.99201278,10.8546326 L0.977635783,10.9121406 C-0.31629393,16.8210863 -0.31629393,22.8162939 0.977635783,28.7252396 L0.99201278,28.7827476 C1.99840256,32.8370607 6.36900958,37.1645367 10.5383387,38.3578275 L10.5383387,43.0878594 C10.5383387,44.798722 12.6230032,45.6325879 13.8019169,44.3961661 L18.5894569,39.4217252 C19.6246006,39.4792332 20.6597444,39.5079872 21.7092652,39.5079872 C25.2316294,39.5079872 28.7683706,39.1773163 32.2763578,38.5015974 L32.3194888,38.4872204 C36.6469649,37.5383387 41.3769968,33.0095847 42.4121406,28.7683706 L42.4265176,28.7108626 C43.7060703,22.8162939 43.7060703,16.8210863 42.4121406,10.9121406 Z M38.6309904,27.8626198 C37.9265176,30.6230032 34.3466454,34.0591054 31.5,34.6916933 C27.7763578,35.3961661 24.0239617,35.6980831 20.2715655,35.5974441 C20.1996805,35.5974441 20.1277955,35.6261981 20.0702875,35.6837061 C19.5383387,36.2300319 16.5766773,39.2635783 16.5766773,39.2635783 L12.8530351,43.0734824 C12.5798722,43.3610224 12.1054313,43.1597444 12.1054313,42.7715655 L12.1054313,34.9504792 C12.1054313,34.8210863 12.0191693,34.7060703 11.8897764,34.6916933 C11.8897764,34.6916933 11.8897764,34.6916933 11.8897764,34.6916933 C9.04313099,34.0591054 5.46325879,30.6230032 4.75878594,27.8626198 C3.5942492,22.514377 3.5942492,17.1086262 4.75878594,11.7603834 C5.46325879,9 9.04313099,5.56389776 11.8897764,4.9313099 C18.4025559,3.69488818 25.0015974,3.69488818 31.5,4.9313099 C34.3466454,5.56389776 37.9265176,9 38.6309904,11.7603834 C39.7955272,17.1086262 39.7955272,22.528754 38.6309904,27.8626198 Z" id="Shape" fill-rule="nonzero"></path>
                <path d="M27.8769968,31.471246 C27.4456869,31.341853 27.028754,31.2555911 26.6405751,31.0830671 C22.629393,29.4153355 18.9345048,27.2731629 16.0015974,23.9808307 C14.3338658,22.1118211 13.0399361,19.9984026 11.9329073,17.7555911 C11.4153355,16.6916933 10.9696486,15.5990415 10.5239617,14.4920128 C10.1214058,13.5 10.7108626,12.4648562 11.3578275,11.7028754 C11.9472843,10.9984026 12.7236422,10.4520767 13.543131,10.0638978 C14.1900958,9.74760383 14.8226837,9.93450479 15.2971246,10.4808307 C16.3178914,11.6597444 17.2523962,12.9105431 18.014377,14.2907348 C18.4888179,15.1389776 18.3594249,16.1741214 17.5111821,16.7492013 C17.3099042,16.8929712 17.1230032,17.0511182 16.9217252,17.2092652 C16.7492013,17.3530351 16.5910543,17.4824281 16.4760383,17.6693291 C16.2603834,18.014377 16.2603834,18.4169329 16.3897764,18.7907348 C17.4392971,21.6661342 19.1932907,23.8945687 22.0830671,25.1022364 C22.543131,25.2891374 23.0031949,25.5191693 23.5495208,25.4616613 C24.4408946,25.3610224 24.7284345,24.3833866 25.3610224,23.8658147 C25.9648562,23.3626198 26.7555911,23.3626198 27.4169329,23.7795527 C28.0782748,24.1964856 28.7108626,24.6421725 29.3434505,25.1022364 C29.9616613,25.5479233 30.5798722,25.9792332 31.1549521,26.4824281 C31.701278,26.971246 31.9025559,27.6038339 31.586262,28.2651757 C31.0111821,29.4728435 30.1916933,30.4792332 28.9984026,31.1261981 C28.6677316,31.298722 28.2651757,31.35623 27.8769968,31.471246 C27.4456869,31.341853 28.2651757,31.35623 27.8769968,31.471246 Z" id="Path"></path>
                <path d="M21.6948882,8.69808307 C26.942492,8.84185304 31.2555911,12.3354633 32.1757188,17.5255591 C32.3338658,18.4169329 32.3913738,19.3083067 32.4632588,20.2140575 C32.4920128,20.5878594 32.2763578,20.9472843 31.8738019,20.9616613 C31.456869,20.9616613 31.2699681,20.6166134 31.2412141,20.2428115 C31.1837061,19.4952077 31.1549521,18.7476038 31.0399361,18 C30.4936102,14.0894569 27.3738019,10.8546326 23.4920128,10.1645367 C22.9025559,10.0638978 22.313099,10.0351438 21.7092652,9.96325879 C21.3354633,9.9201278 20.8466454,9.9057508 20.7603834,9.4313099 C20.6884984,9.04313099 21.0191693,8.72683706 21.3929712,8.71246006 C21.4936102,8.68370607 21.5942492,8.69808307 21.6948882,8.69808307 C26.956869,8.84185304 21.5942492,8.69808307 21.6948882,8.69808307 Z" id="Path"></path>
                <path d="M29.6741214,19.0351438 C29.6597444,19.1070288 29.6597444,19.2507987 29.6166134,19.3945687 C29.4728435,19.9265176 28.6821086,19.9840256 28.4952077,19.4520767 C28.4376997,19.2939297 28.4376997,19.1214058 28.4376997,18.9488818 C28.4376997,17.841853 28.1932907,16.7204473 27.6325879,15.7571885 C27.057508,14.7651757 26.1805112,13.9313099 25.1453674,13.428115 C24.5271565,13.1261981 23.8514377,12.9392971 23.1613419,12.8242812 C22.8594249,12.7811502 22.557508,12.7380192 22.2555911,12.7092652 C21.8961661,12.6517572 21.6948882,12.4217252 21.7092652,12.0623003 C21.7236422,11.7316294 21.9680511,11.4872204 22.341853,11.5015974 C23.5495208,11.5734824 24.7140575,11.8322684 25.7779553,12.3929712 C27.9488818,13.543131 29.1996805,15.3690096 29.5591054,17.798722 C29.5734824,17.913738 29.6022364,18.014377 29.6166134,18.129393 C29.6453674,18.4025559 29.6597444,18.6757188 29.6741214,19.0351438 C29.6741214,19.1070288 29.6597444,18.6757188 29.6741214,19.0351438 Z" id="Path"></path>
                <path d="M26.4105431,18.9057508 C25.9648562,18.9201278 25.7348243,18.6757188 25.6916933,18.2731629 C25.6629393,17.985623 25.6341853,17.7124601 25.5623003,17.4392971 C25.4329073,16.9073482 25.1453674,16.4041534 24.6853035,16.0734824 C24.4696486,15.9153355 24.2252396,15.8003195 23.9808307,15.7284345 C23.6645367,15.6421725 23.3194888,15.6565495 23.0031949,15.5846645 C22.658147,15.4984026 22.456869,15.2108626 22.514377,14.8945687 C22.557508,14.5926518 22.8594249,14.3626198 23.1757188,14.3913738 C25.2172524,14.5351438 26.6693291,15.5846645 26.870607,17.985623 C26.884984,18.158147 26.899361,18.3306709 26.870607,18.4888179 C26.813099,18.7619808 26.6118211,18.8913738 26.4105431,18.9057508 C25.9792332,18.9201278 26.6118211,18.8913738 26.4105431,18.9057508 Z" id="Path"></path>
            </g>
        </g>
    </g>
</svg>