<?xml version="1.0" encoding="UTF-8"?>
<svg width="35px" height="31px" viewBox="0 0 35 31" version="1.1" xmlns="http://www.w3.org/2000/svg" xmlns:xlink="http://www.w3.org/1999/xlink">
    <!-- Generator: Sketch 52.6 (67491) - http://www.bohemiancoding.com/sketch -->
    <title>wallet (3)</title>
    <desc>Created with Sketch.</desc>
    <g id="Page-1" stroke="none" stroke-width="1" fill="none" fill-rule="evenodd">
        <g id="ESS-кредитование" transform="translate(-42.000000, -1545.000000)" fill="#FFFFFF">
            <g id="wallet-(3)" transform="translate(42.000000, 1545.000000)">
                <path d="M24.3359984,0.0627914894 L4.09917212,0.0627914894 C1.8390371,0.0627914894 0,1.87780851 0,4.1084234 C0,6.3390383 1.8390371,8.15405532 4.09917212,8.15405532 L4.09917212,5.59892979 C3.26639935,5.59892979 2.58894026,4.93031915 2.58894026,4.1084234 C2.58894026,3.28652766 3.26639935,2.61791702 4.09917212,2.61791702 L23.0415616,2.61791702 L23.0415616,6.87645957 L25.6305019,6.87645957 L25.6305019,1.34038723 C25.6305019,0.634708511 25.0510161,0.0627914894 24.3359984,0.0627914894 Z" id="Path"></path>
                <path d="M32.9226268,5.59892979 L4.09917212,5.59892979 C3.26639935,5.59892979 2.58894026,4.93031915 2.58894026,4.1084234 C2.58894026,3.40281064 2.00945445,2.83089362 1.29450355,2.83089362 C0.579552646,2.83089362 0,3.40274468 0,4.1084234 L0,26.8915766 C0,29.1221915 1.8390371,30.9372085 4.09917212,30.9372085 L32.9226268,30.9372085 C33.6375777,30.9372085 34.2171304,30.3652915 34.2171304,29.6596128 L34.2171304,6.87645957 C34.2171304,6.17084681 33.6376446,5.59892979 32.9226268,5.59892979 Z M31.6281901,28.382083 L4.09917212,28.382083 C3.26639935,28.382083 2.58894026,27.7134723 2.58894026,26.8915766 L2.58894026,7.86958085 C3.05621795,8.05314043 3.56626705,8.15405532 4.09917212,8.15405532 L31.6281901,8.15405532 L31.6281901,28.382083 Z" id="Shape" fill-rule="nonzero"></path>
                <path d="M27.1406669,20.5889468 C25.9980687,20.5889468 25.0690603,19.6720723 25.0690603,18.5448596 C25.0690603,17.4176468 25.9984697,16.5007723 27.1406669,16.5007723 L32.8794544,16.5007723 L32.8794544,13.9456468 L27.1406669,13.9456468 C24.5707065,13.9456468 22.48012,16.0089277 22.48012,18.5448596 C22.48012,21.0807915 24.5707065,23.1440723 27.1406669,23.1440723 L32.9226268,23.1440723 L32.9226268,20.5889468 L27.1406669,20.5889468 Z" id="Path"></path>
            </g>
        </g>
    </g>
</svg>