<?xml version="1.0" standalone="no"?>
<!DOCTYPE svg PUBLIC "-//W3C//DTD SVG 1.1//EN" "http://www.w3.org/Graphics/SVG/1.1/DTD/svg11.dtd" >
<svg xmlns="http://www.w3.org/2000/svg">
<metadata>Generated by IcoMoon</metadata>
<defs>
<font id="icomoon" horiz-adv-x="1024">
<font-face units-per-em="1024" ascent="960" descent="-64" />
<missing-glyph horiz-adv-x="1024" />
<glyph unicode="&#x20;" horiz-adv-x="512" d="" />
<glyph unicode="&#xe900;" glyph-name="lang" d="M512 960c-282.332 0-512-229.669-512-512s229.668-512 512-512c282.332 0 512 229.669 512 512s-229.668 512-512 512zM936.438 490.632h-206.681c-4.389 137.091-30.72 271.047-77.741 360.49 153.809-53.708 267.912-192.888 284.422-360.49zM512 21.264c-51.409 0-124.552 148.167-132.702 384.104h265.195c-7.941-235.729-81.084-384.104-132.493-384.104zM379.298 490.632c7.941 235.729 81.293 384.104 132.702 384.104s124.552-148.167 132.702-384.104h-265.404zM371.984 851.122c-47.021-89.443-73.352-223.19-77.95-360.281h-206.472c16.51 167.393 130.612 306.573 284.422 360.281zM87.562 405.368h206.681c4.598-137.091 30.929-271.047 77.95-360.281-154.018 53.499-268.121 192.679-284.63 360.281zM652.016 44.878c47.021 89.443 73.352 223.19 77.95 360.281h206.681c-16.719-167.393-130.821-306.573-284.63-360.281z" />
<glyph unicode="&#xe901;" glyph-name="phone-call" d="M810.314 335.868c-22.638 23.484-49.931 35.967-79.127 35.967-28.985 0-56.489-12.271-79.762-35.755l-61.355-61.144c-1.269 0.635-2.75 1.481-4.020 2.116-1.904 0.846-3.597 1.904-5.501 2.75-7.405 3.597-14.387 7.193-20.099 10.579-61.779 39.14-117.845 90.34-171.583 156.35-23.696 30.043-40.198 55.431-52.469 81.031 13.752 12.906 26.658 26.023 39.14 38.717l4.443 4.655c2.962 2.962 5.924 6.136 8.886 9.098s5.924 5.924 8.886 8.886c23.907 23.907 36.39 51.623 36.39 80.608s-12.694 56.912-36.39 80.608l-57.759 57.759c-6.559 6.559-13.117 13.117-19.464 19.888-12.483 12.906-26.023 26.658-39.987 39.564-22.426 22.638-49.507 34.486-78.069 34.486s-56.066-11.848-79.339-34.063l-72.569-73.203c-28.774-28.774-45.276-64.106-48.873-104.939-5.289-63.683 13.329-122.711 27.716-161.428 34.909-93.937 86.744-180.681 163.755-273.137 93.726-111.921 206.493-200.145 335.127-262.347 49.719-23.696 116.364-51.2 190.202-56.066 5.078-0.212 9.521-0.423 13.752-0.423 52.046 0 95.63 18.83 129.904 55.855l1.269 1.269c0.212 0.212 0.212 0.423 0.423 0.635 9.732 11.636 20.945 22.638 33.005 34.063l2.962 2.75c11.002 10.579 19.888 19.253 27.927 27.716 22.85 23.696 34.909 51.623 34.909 80.608 0 29.197-12.271 56.912-35.755 79.974l-116.575 116.575zM873.785 116.258h-3.597l-1.481-5.501c-5.924-6.347-12.271-12.271-18.618-18.618l-4.655-4.655c-13.54-12.906-27.927-27.081-41.468-42.949-19.464-20.734-41.679-30.043-71.722-30.043-2.962 0-6.136 0-9.098 0.212-61.144 3.808-118.268 27.927-161.005 48.45-118.479 57.336-222.36 138.79-308.681 241.825-71.299 85.898-119.114 165.448-150.638 250.711-19.041 50.988-26.235 90.34-23.061 127.788 1.904 22.215 10.367 40.621 26.235 56.278l71.934 71.934c8.463 7.828 16.926 12.060 24.754 12.060 9.732 0 17.983-6.347 23.484-11.636l0.846-0.846c12.060-11.425 23.907-23.273 37.66-37.448 3.385-3.385 6.77-6.77 10.155-10.367 3.385-3.385 6.77-6.77 10.155-10.367l57.759-57.759c18.195-18.195 18.195-32.37 0-50.565-2.116-2.116-4.020-4.231-6.136-6.136-4.020-4.020-7.828-8.040-11.848-11.848l-0.212-0.212c-18.83-19.253-34.909-35.332-52.681-51.2l-0.212-0.212c-0.423-0.423-1.058-1.058-1.904-1.904-21.157-21.792-17.56-43.583-12.906-58.182l0.846-2.539c15.233-36.813 36.813-71.934 69.818-114.036l0.635-0.846c59.24-72.78 121.23-129.269 189.99-172.853 9.098-5.712 18.195-10.367 27.081-14.81 7.405-3.597 14.387-7.193 19.888-10.579l0.846-0.423c0.212 0 0.212-0.212 0.423-0.212 0.635-0.423 1.481-0.846 2.116-1.269 8.674-4.231 16.926-6.347 25.6-6.347 14.598 0 27.927 5.924 39.564 17.772l72.357 72.357c5.924 5.924 14.81 12.694 24.542 12.694 10.155 0 18.618-7.617 22.638-12.060l117.421-117.421c16.926-16.714 17.983-31.312 3.174-48.238zM550.506 700.615c53.104-8.886 101.554-34.063 140.271-72.78 38.506-38.506 63.683-86.955 72.78-140.271 3.174-18.83 19.464-32.582 38.506-32.582 2.116 0 4.020 0.212 5.712 0.423l0.846 0.212c21.157 3.385 35.755 23.696 32.159 45.276-11.848 69.183-44.43 132.231-94.572 182.374s-113.19 82.724-182.374 94.572c-21.58 3.597-41.256-10.579-45.064-31.947-1.904-10.367 0.423-20.945 6.559-29.62 6.136-8.463 15.021-14.175 25.177-15.656zM1022.307 508.932c-19.253 112.767-72.357 215.379-153.812 296.621-81.455 81.455-184.066 134.559-296.621 153.812-21.157 3.808-41.256-10.579-45.064-31.947-3.597-21.58 10.579-41.256 32.159-45.064 96.264-16.291 184.278-61.99 254.307-131.808 69.818-69.818 115.517-157.831 131.808-254.307 3.174-18.83 19.464-32.582 38.506-32.582 2.116 0 4.020 0.212 5.712 0.423h0.846c10.367 1.481 19.253 7.193 25.388 15.656 6.136 8.674 8.463 19.041 6.77 29.197z" />
<glyph unicode="&#xe902;" glyph-name="home" horiz-adv-x="1188" d="M1144.663 555.176l-547.34 397.296c-10.555 7.66-24.893 7.66-35.444 0l-547.345-397.296c-13.369-9.706-16.274-28.317-6.484-41.57s28.565-16.129 41.932-6.428l529.616 384.434 529.616-384.432c5.34-3.879 11.547-5.746 17.699-5.746 9.238 0 18.353 4.214 24.23 12.174 9.792 13.252 6.888 31.862-6.482 41.568zM999.63 500.445c-16.567 0-30.002-13.316-30.002-29.743v-473.43h-240.008v258.428c0 82.009-67.301 148.726-150.019 148.726s-150.019-66.721-150.019-148.726v-258.43h-240.010v473.43c0 16.426-13.435 29.743-30.002 29.743s-30.002-13.316-30.002-29.743v-503.175c0-16.426 13.435-29.743 30.002-29.743h300.014c15.778 0 28.689 12.085 29.884 27.427 0.072 0.695 0.117 1.456 0.117 2.316v288.173c0 49.208 40.38 89.24 90.016 89.24s90.016-40.034 90.016-89.24v-288.173c0-0.856 0.045-1.603 0.117-2.289 1.182-15.353 14.098-27.453 29.884-27.453h300.014c16.569 0 30.002 13.316 30.002 29.743v503.175c-0.002 16.429-13.435 29.745-30.004 29.745z" />
<glyph unicode="&#xe91a;" glyph-name="gvozd" d="M1016.657 612.082c-12.899 51.603-48.422 91.313-97.439 109.455 2.381 38.904-7.144 77.808-27.783 112.479-20.242 34.268-49.414 62.085-84.54 80.63-34.133 18.142-72.236 26.205-110.338 23.786-37.904-2.419-73.823-15.521-104.384-37.694-34.927 40.517-87.715 62.287-141.693 58.457-50.009-3.628-93.867-29.228-120.26-70.35-58.344 17.94-121.65 5.644-174.040-33.663-54.772-41.121-87.318-104.819-87.516-170.129-37.705-29.833-61.916-74.381-66.282-122.356-3.969-44.145 9.327-86.072 37.507-118.526-25.997-34.671-35.721-79.017-26.989-124.976 10.716-56.038 47.231-108.649 95.851-137.474 7.938-42.331 30.363-79.824 63.305-105.827 33.736-26.406 74.816-37.896 116.093-31.849 10.915-32.050 32.149-59.061 61.916-78.211 27.783-18.142 62.313-28.422 97.042-29.43 1.786 0 3.374 0 4.961 0 70.45 0 135.938 37.493 168.484 96.957 55.169-35.074 126.809-31.043 183.367 10.482 55.566 40.92 80.174 105.625 64.496 168.92 80.967 38.702 102.202 137.877 80.967 212.661 57.352 38.702 85.135 115.099 67.274 186.658zM842.022 238.765c-4.167-1.411-7.74-4.636-9.724-8.869-1.984-4.031-2.183-8.869-0.595-13.102 11.709-33.26 9.129-68.535-6.747-99.578-15.678-30.438-42.468-53.619-75.609-65.713-34.53-12.498-69.457-10.28-100.812 6.45-28.974 15.32-53.184 42.331-68.465 76.195 3.969 5.039 7.541 10.482 10.915 15.924 33.538-12.699 69.656-12.699 104.583 0.202 36.515 13.506 69.457 40.113 93.073 75.187 25.6 38.098 37.507 83.049 33.935 126.589-3.771 46.765-25.6 90.507-62.71 126.992 4.763 16.529 5.557 34.268 2.381 51.805 64.496-0.605 139.312-34.671 157.966-128.806 16.471-83.25-26.791-145.134-78.189-163.276zM75.212 433.083c2.977 3.225 4.763 7.861 4.564 12.296s-1.984 8.869-5.358 12.094c-24.409 23.383-38.301 54.828-38.896 88.693-0.595 35.074 13.098 70.148 37.705 96.756 10.319-49.386 38.301-94.942 83.15-135.66-5.557-12.498-9.526-25.802-11.709-39.912-6.747-41.323 0.794-88.088 21.036-128.202 25.997-51.805 70.45-89.096 122.245-102.4 0.198-6.652 0.595-13.304 1.588-19.754-57.352-34.066-146.059-45.354-209.364 34.671-52.788 66.318-42.468 141.506-4.961 181.417zM438.772 317.984c4.366 1.008 8.136 3.83 10.319 7.861 2.381 3.83 2.977 8.466 1.984 12.901-2.183 9.272-11.312 14.715-20.44 12.498-36.713-9.272-87.119-0.605-108.353 53.82-18.059 46.362 1.191 82.847 26.394 97.159 3.969 2.217 6.747 6.047 7.938 10.28 1.191 4.435 0.595 9.071-1.588 13.102-9.526 17.134-11.51 36.888-5.358 55.635 6.549 20.359 21.829 37.090 41.873 46.161 43.262 19.351 82.357-9.474 102.003-46.765 4.366-8.265 14.685-11.49 22.822-7.055s11.312 14.917 6.946 23.181c-8.732 16.529-19.25 30.639-31.157 41.726 22.623 21.972 60.527 29.43 93.47 17.94 27.188-9.474 44.453-30.236 47.429-56.844 0.595-4.435 2.778-8.668 6.35-11.49s7.938-4.031 12.502-3.628c38.499 4.636 63.107-22.173 72.434-46.765 10.121-26.809 7.144-63.093-21.829-85.065-6.35 9.474-14.288 18.545-23.219 26.809-6.946 6.249-17.662 5.644-23.814-1.411-2.977-3.427-4.564-7.861-4.366-12.296 0.198-4.636 2.183-8.869 5.557-11.893 28.18-25.6 49.612-72.769 17.265-121.348-27.584-41.121-68.068-45.757-94.065-32.454-3.969 2.016-8.732 2.419-12.899 0.806-4.167-1.411-7.74-4.636-9.724-8.668-13.495-27.817-42.865-42.331-75.212-36.888-32.149 5.443-55.764 28.422-60.527 58.86 5.755 1.209 11.51 2.419 17.265 3.83zM448.298 109.354c-32.546 2.016-63.504 15.521-86.921 38.098-23.616 22.576-37.705 52.208-39.69 84.057 31.355-2.016 64.695 3.628 99.225 16.932 23.616-21.165 56.36-31.647 87.913-27.616 29.371 3.628 54.375 18.948 70.648 42.935 37.309-11.893 75.411-1.209 105.178 29.43 33.736 34.872 47.033 86.476 33.141 128.806 10.121 6.854 18.853 15.118 25.798 24.592 23.219-25.802 38.698-56.844 43.857-88.088 6.35-39.106-2.58-77.203-26.989-113.688-47.033-70.35-120.856-82.243-169.476-57.449-3.969 2.016-8.732 2.419-12.899 0.806-4.167-1.411-7.74-4.636-9.724-8.668-22.623-46.564-68.465-73.373-120.062-70.148zM716.205 693.72c0.595-4.435 2.778-8.668 6.35-11.49s7.938-4.031 12.502-3.628c38.102 4.636 74.22-8.063 101.805-35.88 28.577-29.027 43.262-70.551 39.491-112.076-31.95 22.576-71.243 34.268-114.307 34.268-3.771 0-7.74 0-11.709-0.202-17.662 33.058-50.605 53.82-86.326 54.627-7.343 26.406-25.402 48.58-51.2 62.085-30.76 16.328-69.656 19.15-102.202 7.458-15.281 27.414-33.538 49.991-54.375 67.124 39.095 43.54 110.933 60.876 171.857 41.524 50.406-15.924 82.555-53.82 88.112-103.811zM531.647 837.039c-41.079-8.668-77.991-30.438-103.988-61.48-47.628 25.802-105.178 24.592-154.195-3.225-3.969-2.217-6.747-5.846-7.938-10.28s-0.794-9.071 1.588-13.102c2.381-4.031 5.755-6.854 10.121-8.063s8.93-0.806 12.899 1.613c31.355 17.739 66.084 21.367 100.416 10.482 38.301-12.094 71.243-40.92 90.493-79.219-6.152-4.435-11.907-9.676-17.067-15.32-38.102 18.142-83.944 9.676-116.887-21.569-32.347-30.841-43.064-74.18-27.783-113.487-32.943-26.406-45.247-68.535-33.141-112.882 13.891-50.595 55.367-89.701 101.408-95.95 1.389-13.304 5.358-26.003 11.51-37.694-42.468-14.312-83.15-14.917-117.681-2.016-36.118 13.506-66.679 41.928-85.532 80.025-31.95 63.899-27.981 150.98 34.133 186.255 3.969 2.217 6.747 6.047 7.938 10.28 1.191 4.435 0.595 9.071-1.588 13.102-26.195 46.564-21.829 99.578 11.709 141.909 5.755 7.458 4.763 18.142-2.58 24.189-3.175 2.62-6.946 3.83-10.518 3.83-4.961 0-9.922-2.217-13.098-6.45-39.095-49.386-47.033-109.657-22.028-165.694-9.327-7.055-17.86-15.32-25.203-24.794-71.243 66.721-90.89 157.228-50.406 231.005 19.845 36.283 51.597 64.907 89.302 80.831 38.896 16.529 80.967 17.537 118.276 2.822 7.938-3.024 16.868 0.202 21.036 7.861 19.448 36.687 54.375 60.271 96.050 64.907 44.453 4.838 88.112-12.296 117.482-46.161-12.502-12.094-24.012-26.205-34.729-41.726zM297.674 182.526c18.059-48.58 60.329-86.274 113.513-100.989 51.398-14.312 104.781-4.233 143.479 26.809 10.716-20.964 23.814-38.904 38.698-53.619-23.814-46.967-70.45-78.211-125.42-83.25-83.349-7.861-139.312 42.331-151.616 96.151-0.992 4.435-3.771 8.265-7.541 10.683-2.778 1.613-5.755 2.62-8.93 2.62-1.389 0-2.58-0.202-3.969-0.403-62.909-15.118-124.428 19.956-147.845 83.654 48.025-14.917 100.812-8.466 149.631 18.343zM876.155 649.776c-31.157 42.935-76.8 65.713-129.191 64.302-8.136 37.694-30.164 69.946-63.901 93.329-30.164 20.964-67.473 32.857-105.575 33.865 23.814 27.011 53.78 46.564 87.119 56.441 35.522 10.482 72.434 9.071 106.567-4.233 75.808-29.228 123.237-105.625 112.719-181.619-1.191-8.466 4.167-16.731 12.304-18.948 43.064-11.893 75.609-46.362 87.119-91.918 12.105-48.58-1.588-99.578-36.118-133.039-3.374-3.225-7.144-6.45-10.915-9.474-8.136 16.932-18.456 32.454-30.76 45.959 11.907 49.386 0.794 103.811-29.371 145.335z" />
<glyph unicode="&#xe91b;" glyph-name="hris" horiz-adv-x="887" d="M198.127 171.118l15.626 4.016 2.204-15.862c0.2-1.405 0.401-2.811 0.601-4.016 5.81-34.736 18.631-54.212 19.232-55.015l4.407-6.626 8.013-0.602c0.2 0 1.402 0 3.406 0 7.412 0 27.445 1.004 53.689 10.842 1.202 0.402 2.604 1.004 3.806 1.405l14.824 6.024 4.407-15.46c32.854-117.459 105.975-154.202 108.98-155.809l7.212-3.413 7.212 3.413c3.005 1.606 76.126 38.35 108.98 155.809l4.407 15.46 14.825-6.024c1.202-0.602 2.604-1.004 3.806-1.405 26.043-9.838 46.276-10.842 53.689-10.842 2.003 0 3.205 0 3.606 0l8.013 0.602 4.407 6.626c0.601 0.803 13.422 20.279 19.232 55.015 0.2 1.405 0.401 2.61 0.601 4.016l2.204 15.862 15.425-4.016c26.844-6.827 53.088-10.441 78.329-10.441 69.916 0 108.98 26.102 110.583 27.106l6.611 4.417 0.601 8.031c0.2 3.413 5.008 85.333-79.932 172.474l-11.219 11.445 12.621 10.039c1.002 0.803 2.204 1.807 3.205 2.61 27.045 22.287 37.462 43.369 37.863 44.173l3.406 7.228-3.406 7.228c-0.401 0.803-10.818 21.885-37.863 44.173-1.002 0.803-2.003 1.606-3.205 2.61l-12.621 9.838 11.219 11.445c84.94 87.14 80.333 169.060 79.932 172.474l-0.601 8.031-6.611 4.417c-2.805 2.008-71.318 46.984-189.113 16.866l-15.425-4.016-2.404 15.862c-0.2 1.405-0.401 2.811-0.601 4.016-5.81 34.736-18.831 54.212-19.232 55.015l-4.407 6.626-8.013 0.602c-1.002 0-24.24 1.606-57.094-10.842-1.202-0.402-2.604-1.004-3.806-1.405l-14.824-6.024-4.407 15.46c-32.854 117.459-105.975 154.202-108.98 155.809l-7.212 3.413-7.212-3.413c-3.005-1.606-76.126-38.35-108.98-155.809l-4.407-15.46-14.824 6.024c-1.202 0.602-2.604 1.004-3.806 1.405-32.854 12.248-56.093 10.842-57.094 10.842l-8.013-0.602-4.407-6.626c-0.601-0.803-13.422-20.279-19.232-55.015-0.2-1.405-0.401-2.61-0.601-4.016l-2.204-15.862-15.425 4.016c-117.795 30.118-186.308-14.858-189.113-16.866l-6.611-4.417-0.601-8.031c-0.2-3.413-5.008-85.333 79.932-172.474l11.219-11.445-12.621-10.039c-1.002-0.803-2.204-1.606-3.205-2.61-27.045-22.287-37.462-43.369-37.863-44.173l-3.406-7.228 3.406-7.228c0.401-0.803 10.818-21.885 37.863-44.173 1.002-0.803 2.003-1.606 3.205-2.61l12.621-10.039-11.219-11.445c-84.94-87.14-80.333-169.060-79.932-172.474l0.601-8.031 6.611-4.417c1.603-1.205 40.868-27.106 110.583-27.106 25.442 0.201 51.886 3.815 78.53 10.642zM271.248 127.95l-12.421-2.409-4.007 12.047c-7.212 21.484-16.026 66.861 6.21 130.51l3.005 8.835 9.416 0.803c22.838 1.807 46.477 8.232 70.517 18.874l18.030 8.031 2.204-19.677c2.805-26.102 9.215-49.995 19.031-70.676l4.007-8.433-6.010-7.027c-44.273-51.401-87.945-66.46-109.982-70.877zM533.482 120.32c-18.631-81.318-57.896-122.478-79.531-139.746l-9.015-7.228-9.015 7.228c-21.836 17.468-61.101 59.031-79.531 139.746l-2.003 9.035 7.412 5.622c12.020 9.236 23.839 19.677 34.858 31.523l9.816 10.441 10.417-9.838c11.619-11.043 20.834-15.46 20.834-15.46l7.212-3.413 7.212 3.413c0 0 9.215 4.618 20.834 15.46l10.417 9.838 9.816-10.441c11.018-11.645 22.838-22.287 34.858-31.523l7.412-5.622-2.003-9.035zM634.849 137.387l-4.007-12.047-12.421 2.409c-22.036 4.417-65.709 19.476-109.781 70.877l-6.010 7.027 4.007 8.433c9.816 20.681 16.227 44.373 19.031 70.676l2.204 19.677 18.030-8.031c24.040-10.642 47.679-17.067 70.517-18.874l9.416-0.803 3.005-8.835c22.237-63.849 13.222-109.227 6.010-130.51zM853.611 222.118l1.603-11.244-10.618-4.216c-15.025-6.024-40.066-13.051-74.122-13.051-24.44 0-53.288 3.614-86.543 13.854l-8.815 2.811-1.202 9.236c-1.803 15.059-5.209 30.519-9.816 45.779l-4.007 13.653 13.623 4.216c14.824 4.618 23.038 9.838 23.839 10.441l6.611 4.417 0.601 8.031c0 0 0.601 10.24-3.005 25.901l-3.205 14.055 14.023 3.213c15.626 3.614 30.651 8.634 44.674 14.456l8.614 3.614 6.811-6.425c60.901-56.42 76.727-111.235 80.934-138.742zM808.536 457.838l8.414-9.638-8.414-9.437c-15.025-17.067-49.882-47.385-115.992-59.834l-9.215-1.807-5.409 7.63c-13.022 18.874-30.25 36.141-51.485 51.802l-16.026 11.645 16.026 11.645c21.235 15.46 38.664 32.929 51.485 51.802l5.409 7.63 9.215-1.807c66.31-12.248 101.167-42.566 115.992-59.633zM664.098 631.316c4.608 15.46 7.813 30.921 9.816 45.779l1.202 9.236 8.815 2.811c79.531 24.496 134.823 11.043 160.465 0.803l10.618-4.216-1.803-11.445c-4.207-27.708-20.434-82.522-80.934-138.943l-6.811-6.425-8.614 3.614c-14.023 5.823-29.048 10.842-44.674 14.456l-14.023 3.213 3.205 14.055c3.606 15.661 3.005 25.7 3.005 25.901l-0.601 8.031-6.611 4.417c-0.801 0.602-9.015 6.024-23.839 10.441l-13.623 4.216 4.407 14.055zM618.422 768.853l12.421 2.409 4.007-12.047c7.212-21.484 16.026-66.861-6.21-130.51l-3.005-8.835-9.416-0.803c-22.838-1.807-46.477-8.232-70.517-18.874l-18.030-8.031-2.204 19.677c-2.805 26.102-9.215 49.995-19.031 70.676l-4.007 8.433 6.010 7.027c44.273 51.401 87.945 66.46 109.982 70.877zM356.189 776.282c18.631 81.518 57.896 122.679 79.531 139.947l9.015 7.027 9.015-7.027c21.836-17.267 60.901-58.428 79.531-139.947l2.003-9.035-7.412-5.622c-12.020-9.236-23.839-19.677-34.858-31.523l-9.816-10.441-10.417 9.838c-11.619 11.043-20.834 15.46-20.834 15.46l-7.212 3.413-7.212-3.413c0 0-9.215-4.618-20.834-15.46l-10.417-9.838-9.816 10.441c-11.018 11.645-22.838 22.287-34.858 31.523l-7.412 5.622 2.003 9.035zM254.821 759.216l4.007 12.047 12.421-2.61c22.237-4.417 65.909-19.677 109.781-70.877l6.010-7.027-4.007-8.433c-9.816-20.681-16.227-44.373-19.031-70.676l-2.204-19.677-18.030 8.031c-24.040 10.642-47.679 17.067-70.517 18.874l-9.416 0.803-3.005 8.835c-22.237 64.050-13.422 109.427-6.010 130.711zM259.228 586.541c30.25 0 62.704-10.039 96.96-29.716 4.808-2.811 9.616-5.823 14.424-8.835l27.445-18.271-2.003 32.929c-0.401 5.622-0.601 11.244-0.601 16.866 0 65.857 21.235 102.4 39.065 121.274l10.417 11.244 10.417-11.244c17.629-18.874 38.864-55.216 38.864-121.274 0-5.622-0.2-11.244-0.601-16.866l-2.003-32.929 27.445 18.271c4.608 3.012 9.616 6.024 14.424 8.835 34.056 19.677 66.71 29.716 96.96 29.716 9.416 0 18.631-1.004 27.245-3.012l15.025-3.413-4.407-14.657c-7.412-24.897-28.247-61.44-85.141-94.168-4.808-2.811-9.816-5.421-14.824-8.031l-29.449-14.858 29.449-14.858c5.008-2.409 10.017-5.22 14.824-8.031 56.894-32.929 77.728-69.471 85.141-94.168l4.407-14.657-15.025-3.413c-8.614-2.008-17.629-3.012-27.245-3.012-30.25 0-62.904 10.039-96.96 29.716-4.808 2.811-9.616 5.823-14.424 8.835l-27.445 18.271 2.003-32.929c0.401-5.622 0.601-11.244 0.601-16.866 0-65.857-21.235-102.4-38.864-121.274l-10.417-11.244-10.417 11.244c-17.629 18.874-38.864 55.216-38.864 121.274 0 5.622 0.2 11.244 0.601 16.866l2.003 32.929-27.445-18.271c-4.608-3.012-9.416-6.024-14.424-8.835-34.056-19.677-66.71-29.716-96.96-29.716-9.416 0-18.631 1.004-27.245 3.012l-15.025 3.413 4.407 14.657c7.412 24.897 28.247 61.44 85.141 94.168 4.808 2.811 9.816 5.421 14.824 8.031l29.449 14.858-29.449 14.858c-5.008 2.409-10.017 5.22-14.824 8.031-56.894 32.929-77.728 69.471-85.141 94.168l-4.407 14.657 15.025 3.413c8.414 2.008 17.429 3.012 27.045 3.012zM36.060 674.485l-1.603 11.244 10.618 4.216c25.843 10.24 80.934 23.693 160.666-0.803l8.815-2.811 1.202-9.236c1.803-15.059 5.209-30.519 9.816-45.779l4.007-13.653-13.623-4.216c-14.824-4.618-23.038-9.838-23.839-10.441l-6.611-4.417-0.601-8.031c0 0-0.601-10.24 3.005-25.901l3.205-14.055-14.023-3.213c-15.626-3.614-30.651-8.634-44.674-14.456l-8.614-3.614-6.811 6.425c-60.901 56.621-76.727 111.235-80.934 138.742zM81.134 438.764l-8.414 9.638 8.414 9.437c15.025 17.067 49.882 47.385 115.992 59.834l9.215 1.807 5.409-7.63c13.022-18.874 30.25-36.141 51.485-51.802l16.026-11.645-16.026-11.645c-21.235-15.46-38.464-32.929-51.485-51.802l-5.409-7.63-9.215 1.807c-66.31 12.248-101.167 42.767-115.992 59.633zM45.275 206.657l-10.618 4.216 1.803 11.445c4.207 27.708 20.434 82.522 80.934 138.943l6.811 6.425 8.614-3.614c14.023-5.823 29.048-10.842 44.674-14.456l14.023-3.213-3.205-14.055c-3.606-15.661-3.005-25.7-3.005-25.901l0.601-8.031 6.611-4.417c0.801-0.602 9.015-6.024 23.839-10.441l13.623-4.216-4.007-13.653c-4.608-15.46-7.813-30.921-9.816-45.779l-1.202-9.236-8.815-2.811c-33.255-10.24-62.303-13.854-86.543-13.854-34.457-0.402-59.298 6.626-74.323 12.649zM361.197 448.402l2.604-14.256c3.406-19.075 13.422-36.342 28.247-48.791l11.219-9.437 13.623-5.020c18.030-6.626 38.263-6.626 56.293 0l13.623 5.020 11.219 9.437c14.824 12.449 24.841 29.917 28.247 48.791l2.604 14.256-2.604 14.256c-3.406 19.075-13.422 36.342-28.247 48.791l-11.219 9.437-13.623 5.020c-18.030 6.626-38.263 6.626-56.293 0l-13.623-5.020-11.219-9.437c-14.824-12.449-24.841-29.917-28.247-48.791l-2.604-14.256zM444.735 497.795c27.245 0 49.482-22.287 49.482-49.594s-22.237-49.594-49.482-49.594c-27.245 0-49.482 22.287-49.482 49.594s22.437 49.594 49.482 49.594z" />
<glyph unicode="&#xe91c;" glyph-name="lili" d="M155.714 43.241c95.414-36.401 222.081-56.439 356.47-56.439s261.056 20.039 356.47 56.439c100.194 38.239 155.347 91.002 155.347 148.544 0 49.637-42.651 97.069-120.049 133.469l-15.443 7.17 8.824 14.524c85.303 142.294 61.955 323.194 60.852 330.732l-1.838 13.972-14.156-0.552c-1.655 0-40.629-1.655-93.759-13.42l-15.627-3.493-2.941 15.627c-11.766 64.712-30.334 109.57-31.253 111.592l-5.515 13.053-13.42-4.228c-2.206-0.735-53.866-16.913-115.453-53.682l-13.42-7.905-7.354 13.604c-52.946 91.921-118.027 151.67-120.784 154.060l-10.479 9.56-10.479-9.56c-2.758-2.574-68.022-62.139-120.784-154.060l-7.721-13.604-13.42 7.905c-61.771 36.768-113.247 52.946-115.453 53.498l-13.42 4.228-5.515-13.053c-0.735-1.838-19.487-46.696-31.253-111.592l-2.941-15.627-15.627 3.493c-53.13 11.766-92.105 13.42-93.759 13.42l-14.156 0.552-1.838-13.972c-1.103-7.538-24.451-188.438 61.036-330.732l8.824-14.524-15.443-7.17c-77.397-36.401-120.049-83.832-120.049-133.469 0-57.543 55.336-110.121 155.53-148.361zM912.776 657.090l16.546 2.022 0.735-16.546c2.941-61.219 0.552-214.727-87.876-319.885-37.688-44.857-90.45-80.707-157.185-106.445-54.233-20.958-106.077-30.702-139.904-35.298l-17.465-2.39v113.982c6.802 63.242 27.025 153.14 85.119 222.449 88.244 104.974 239.178 134.389 300.030 142.11zM676.906 727.869c32.908 19.855 63.425 33.827 83.28 41.916l15.443 6.251 5.148-15.81c5.699-18.017 13.972-46.88 19.855-81.074l2.206-13.053-12.685-4.045c-25.922-8.457-50.557-18.384-73.353-29.599l-16.546-8.089-4.964 17.833c-6.251 21.877-14.34 44.306-24.267 66.551l-5.515 12.317 11.398 6.802zM500.969 871.449l11.214 11.95 11.214-11.95c42.651-45.409 118.21-138.985 145.971-254.070l2.574-10.295-8.824-5.883c-28.496-19.303-53.314-41.732-73.904-66.183-25.738-30.702-46.696-67.654-62.506-109.754l-14.34-38.423-14.34 38.423c-15.81 42.1-36.768 79.052-62.69 109.754-20.59 24.451-45.409 46.696-73.904 66.183l-8.824 6.067 2.574 10.295c27.392 114.717 103.135 208.293 145.787 253.886zM223.736 679.151c5.883 34.195 13.972 63.058 19.855 81.074l5.148 15.81 15.443-6.251c19.671-8.089 50.189-21.877 83.28-41.916l11.582-6.986-5.515-12.317c-9.927-22.245-18.017-44.674-24.267-66.551l-4.964-17.833-16.546 8.089c-22.796 11.214-47.431 21.142-73.353 29.599l-12.685 4.045 2.022 13.237zM94.311 642.566l0.735 16.546 16.546-2.022c60.852-7.721 211.786-37.136 299.846-142.11 58.094-69.308 78.317-159.023 85.119-222.081v-114.166l-17.281 2.206c-60.116 7.905-209.58 37.32-297.273 141.742-87.876 104.974-90.634 258.666-87.693 319.885zM144.5 302.091l10.295 4.596 7.354-8.457c97.804-112.327 256.46-141.558 320.437-148.912l29.599-2.39 29.047 2.574c64.161 7.538 223 37.136 320.437 148.912l7.354 8.457 10.295-4.596c72.985-31.989 113.247-71.147 113.247-110.489 0-43.019-49.27-86.59-135.308-119.497-91.553-35.298-214.36-54.601-345.071-54.601s-253.518 19.303-345.439 54.417c-86.038 32.908-135.308 76.294-135.308 119.497-0.184 39.342 40.078 78.501 113.063 110.489z" />
<glyph unicode="&#xe91d;" glyph-name="orchid" d="M650.565 95.2l14.222-11c28.648-22.4 64.813-34.8 101.384-34.8 9.752 0 19.708 0.8 29.46 2.6l193.219 34.6-45.511 188c-6.502 27-20.114 52-39.213 72.2l-11.378 12.2 13.613 9.6c34.133 24 58.514 59.6 68.267 100l48.559 201-206.425 37c-28.851 5.2-58.717 3.2-86.349-6l-15.848-5.2-3.251 16c-6.908 33.2-22.959 63.8-46.73 88.4l-152.381 158.4-152.381-158.4c-23.771-24.6-40.025-55.2-46.73-88.4l-3.251-16-15.848 5.2c-27.632 9-57.498 11-86.349 6l-206.425-37 48.559-201c9.752-40.4 33.93-76 68.267-100l13.613-9.6-11.378-12.2c-19.098-20.2-32.508-45.2-39.213-72.2l-45.511-188 193.219-34.6c9.752-1.8 19.708-2.6 29.46-2.6 36.775 0 72.737 12.4 101.384 34.8l14.019 11 8.33-15.8c5.689-11 13.003-21 21.74-30l108.698-112.8 108.698 112.8c8.737 9 16.051 19.2 21.74 30l7.721 15.8zM721.27 660.4c27.429 13.8 59.124 18.6 89.6 13l171.276-30.8-40.432-166.6c-9.956-40.8-37.587-74.8-75.987-92.8-15.238-7.2-31.695-11.6-48.762-13l-202.565-17.2-0.203 15.6c-0.406 26.8-11.378 52-30.883 70.6l-8.127 7.8 86.959 156.6c3.454 6.4 7.517 12.4 11.987 18 12.597 16 28.851 29.4 47.137 38.8zM580.47 367.2c0-37.2-30.679-67.4-68.47-67.4s-68.47 30.2-68.47 67.4c0 37.2 30.679 67.4 68.47 67.4s68.47-30.2 68.47-67.4zM343.162 682.8c1.829 35 16.457 68.4 41.041 94l128 132.8 128-132.8c24.584-25.6 39.213-58.8 41.041-94l0.406-7.4-5.892-4.6c-17.676-14-32.102-31.2-43.073-51l-86.959-156.8-10.971 2.4c-14.629 3.2-30.273 3.2-44.902 0l-10.971-2.4-86.959 156.8c-10.971 19.8-25.6 37-43.073 51l-5.892 4.6 0.203 7.4zM82.489 476l-40.432 166.8 171.276 30.8c30.476 5.4 62.171 0.8 89.6-13 18.286-9.2 34.54-22.6 47.137-38.8 4.267-5.6 8.33-11.6 11.987-18l86.959-156.6-8.127-7.8c-19.505-18.8-30.476-43.8-30.883-70.6l-0.203-15.6-202.565 17.2c-17.067 1.4-33.321 5.8-48.762 13-38.4 18-66.032 51.8-75.987 92.6zM367.543 145.6l-0.203-4-2.235-3.4c-24.381-35.2-64.61-55.8-107.073-55.8-7.721 0-15.441 0.6-23.162 2l-158.070 28.4 37.181 153.8c7.111 29.2 24.381 55 48.762 72.8l5.689 4.2 6.908-1.8c9.549-2.4 19.302-4.2 29.257-5l218.21-18.6 3.86-6c1.422-2.2 3.048-4.4 4.47-6.2l5.892-7.4-53.841-98.8c-9.346-16.8-14.629-35-15.644-54.2zM622.527 128.4c-2.235-21-11.581-41-26.413-56.2l-84.114-87.2-84.114 87.2c-14.832 15.4-24.178 35.2-26.413 56.2-2.032 19.4 1.829 38.6 11.175 55.8l50.997 93.6 12.19-4.6c11.581-4.2 23.568-6.4 36.165-6.4 12.394 0 24.584 2.2 36.165 6.4l12.19 4.6 50.997-93.6c9.346-17.2 13.206-36.6 11.175-55.8zM587.378 298.8l5.892 7.4c1.422 2 3.048 4 4.47 6.2l3.86 6 218.21 18.6c9.956 0.8 19.708 2.6 29.257 5l6.908 1.8 5.689-4.2c24.381-17.8 41.651-43.6 48.762-72.8l37.181-153.8-158.070-28.4c-7.721-1.4-15.441-2-23.162-2-42.463 0-82.692 20.6-107.073 55.8l-2.235 3.4-0.203 4c-1.016 19-6.298 37.2-15.441 54.2l-54.044 98.8z" />
<glyph unicode="&#xe91e;" glyph-name="rose" d="M929.461 449.814c6.155 13.983 12.363 27.897 18.015 40.565 32.349 72.49 32.196 73.112 30.343 80.722-24.942 102.36-130.35 150.396-156.941 161.017-14.007 33.015-40.199 70.345-89.081 98.534-80.704 46.539-111.887 116.134-112.179 116.796-2.227 5.149-6.91 8.821-12.442 9.752-1.788 0.3-44.365 7.274-94.36-1.986-43.591-8.077-79.307-26.030-105.796-52.791-28.442 22.943-67.090 31.367-94.572 34.379-27.277 2.99-54.080 1.71-60.546-0.483-5.398-1.834-9.664-6.426-10.975-11.977-3.968-16.788-16.327-35.683-28.279-53.959-18.898-28.886-38.389-58.701-34.143-90.626-67.107-35.416-138.236-102.285-148.882-112.457-1.916-1.83-3.363-4.092-4.222-6.596-0.558-1.622-13.709-40.329-20.434-91.878-9.187-70.462-2.074-128.492 21.142-172.473 0.691-1.311 1.437-2.569 2.156-3.851-21.228-38.848-13.025-74.266-5.773-105.534 5.65-24.355 10.527-45.387 2.569-66.494-1.814-4.824-1.249-10.302 1.476-14.674 5.932-9.507 83.162-64.68 164.458-73.126 1.362-5.502 3.11-11.063 5.4-16.649 18.5-45.080 63.349-81.026 133.303-106.84 35.796-13.208 61.089-25.743 83.403-36.8 27.63-13.689 51.489-25.514 82.774-31.631 8.726-1.706 17.618-2.551 26.624-2.551 42.441 0 87.386 18.748 129.108 54.34 8.358 7.13 20.317 14.111 32.975 21.5 43.487 25.382 102.769 60.047 99.388 148.615 7.612 4.195 15.075 8.7 22.354 13.67 1.064-1.097 2.286-2.070 3.681-2.867 6.61-3.769 13.184-5.458 19.727-5.458 29.224 0 57.796 33.715 85.59 66.511 20.838 24.589 44.456 52.458 63.667 60.136 4.924 1.971 13.425 7.528 14.989 22.621 3.211 30.872-24.686 100.959-64.516 132.544zM944.66 567.124c-3.531-9.735-16.146-38.009-27.414-63.254-16.788-37.623-31.431-70.727-41.794-96.252-1.816 5.656-3.688 11.348-5.575 17.075-9.218 27.997-18.75 56.947-22.442 85.645-3.48 27.057-10.88 50.357-22.056 69.793 12.334 32.3 15.281 72.055 8.271 109.473 35.827-18.895 93.502-58.295 111.009-122.481zM729.719 172.663c-33.554-15.775-71.585-33.655-110.217-67.573-49.832-43.747-112.922-28.734-154.024 4.924 11.096 8.055 21.539 17.805 31.17 29.182 38.81 4.879 78.594 18.798 116.087 41.284 68.182 40.885 120.177 105.282 142.656 176.675 28.999 92.103-1.885 193.013-50.695 257.326 17.357-0.419 43.121-4.284 65.364-20.665 24.382-17.958 39.369-47.464 44.544-87.702 4.092-31.832 14.126-62.305 23.832-91.776 15.040-45.681 29.25-88.828 15.307-124.034-28.877-72.907-70.866-92.646-124.025-117.641zM202.887 267.023c-14.106 30.627-31.649 50.805-47.126 68.606-21.308 24.508-38.14 43.866-43.613 84.401-12.674 93.884 46.378 184.505 108.37 222.106 17.066 10.35 33.148 15.868 46.424 16.329-36.052-40.23-76.169-106.692-74.849-171.937 0.794-39.298 16.49-71.676 46.647-96.236 7.956-6.479 16.179-12.18 24.616-17.114-9.437-29.222-5.089-72.338 11.999-111.854 14.396-33.295 50.522-92.628 130.712-115.878 13.411-3.889 27.354-6.356 41.635-7.495-23.676-17.841-50.668-25.34-79.528-21.826-62.601 7.618-125.934 65.441-165.288 150.899zM290.105 797.442c26.648 20.175 81.741 47.91 151.287 6.991 50.346-29.623 99.156-40.867 138.372-49.9 53.992-12.436 82.681-20.458 93.734-53.363 7.367-21.941-7.102-36.372-13.855-41.679-34.156 24.675-70.74 32.022-103.142 20.246-16.684 15.371-36.544 27.661-59.136 36.281-67.584 25.792-145.187 14.005-201.066-29.696-20.582 8.719-46.455 6.643-74.211-5.948 1.331 40.501 33.496 90.935 68.017 117.067zM415.285 177.236c-67.158 19.474-97.461 69.272-109.548 97.223-14.398 33.3-16.772 65.309-12.006 84.668 7.309-2.549 14.733-4.566 22.25-6.036 17.404-43.24 62.065-78.020 113.768-87.762 10.079-1.9 20.147-2.836 30.144-2.836 52.597 0 103.177 25.913 142.175 73.799 45.135 55.422 86.93 131.564 11.518 230.636-4.482 32.071-15.658 60.785-32.594 84.855 30.365 3.688 58.306-16.783 73.472-30.764 56.876-52.44 98.368-161.754 69.352-253.919-20.083-63.777-66.774-121.45-128.106-158.228-59.97-35.966-125.734-47.49-180.425-31.636zM309.186 654.042c46.488 41.092 117.372 53.566 176.38 31.049 23.605-9.009 59.966-29.436 80.9-73.448-26.342 17.666-56.783 28.692-88.49 31.49-41.781 3.679-81.097-7.918-107.897-31.839-48.653-43.425-66.483-96.797-48.918-146.428 12.44-35.156 41.852-63.25 74.127-72.883-33.373-12.085-84.209-17.916-135.645 23.969-22.274 18.138-33.867 42.108-34.454 71.236-0.892 44.107 28.244 117.57 83.997 166.852zM426.589 417.843c-9.856 8.024-15.993 19.407-17.287 32.049s2.414 25.033 10.439 34.887c8.024 9.854 19.407 15.993 32.049 17.287 1.649 0.17 3.293 0.252 4.93 0.252 10.9 0 21.385-3.714 29.954-10.692 20.343-16.567 23.413-46.594 6.848-66.937-8.026-9.854-19.407-15.993-32.049-17.287-12.634-1.293-25.033 2.419-34.884 10.443zM456.483 374.042c2.772 0 5.564 0.141 8.36 0.428 21.44 2.194 40.742 12.604 54.349 29.314 28.092 34.496 22.883 85.416-11.61 113.51-16.711 13.608-37.725 19.9-59.16 17.702-21.44-2.194-40.742-12.604-54.349-29.314-13.61-16.711-19.897-37.72-17.704-59.16 0.254-2.485 0.631-4.939 1.103-7.362-10.97 9.609-20.039 22.44-25.103 36.754-13.043 36.855 1.075 76.164 39.755 110.689 20.008 17.858 50.231 26.443 82.942 23.559 42.684-3.769 82.666-25.655 109.692-60.050 60.628-77.149 40.505-132.917-8.355-192.916-52.716-64.73-110.66-64.962-140.52-59.337-34.458 6.493-64.759 26.527-81.359 52.431 5.162 0.245 10.346 0.711 15.548 1.448 16.516 2.335 41.79 8.459 68.771 24.271 5.749-1.295 11.657-1.966 17.642-1.966zM517.939 922.492c32.344 6.126 61.831 4.451 75.58 3.070 11.652-22.109 47.903-81.009 121.741-123.586 54.603-31.488 75.613-76.147 83.622-108.067 7.614-30.354 6.31-59.48 1.359-82.15-3.354 3.079-6.859 5.996-10.549 8.713-34.633 25.51-74.679 27.88-95.857 26.962 11.65 15.164 20.081 37.365 11.041 64.276-17.463 51.997-63.905 62.694-117.681 75.081-38.934 8.969-83.063 19.134-129.015 46.173-16.552 9.739-32.448 16.302-47.578 20.414 21.745 36.498 57.75 59.725 107.337 69.116zM240.351 852.259c11.2 17.123 22.716 34.728 29.35 53.021 23.124 1.057 82.11-0.887 116.487-28.579-3.743-5.685-7.188-11.633-10.306-17.854-47.066 1.986-83.99-18.542-105.752-35.012-8.799-6.66-17.077-14.142-24.733-22.215-10.494-0.393-21.926-2.973-33.874-7.164 2.489 17.485 15.342 37.186 28.829 57.803zM55.503 646.193c9.284 8.638 38.938 35.683 74.138 62.184 37.802 28.46 65.245 43.818 84.829 51.886-19.185-32.978-28.732-68.999-24.254-98.481-67.324-47.839-124.701-143.788-110.877-246.184 2.518-18.657 7.223-33.977 13.261-47.166-15.448 11.169-27.778 25.518-37.177 43.299-43.772 82.812-7.241 210.926 0.079 234.461zM54.744 294.442c-5.506 23.744-10.397 44.866-3.851 66.882 20.394-21.844 46.822-37.385 78.987-46.38 0.3-0.344 0.6-0.691 0.898-1.035 14.707-16.916 29.917-34.406 42.039-60.734 7.4-16.068 15.667-31.347 24.638-45.709-0.223-0.391-0.441-0.783-0.636-1.196-4.846-10.333-8.561-24.174-9.24-39.839-56.322 7.905-108.557 40.15-127.943 54.069 6.221 26.015 0.583 50.328-4.893 73.942zM667.904 42.628c-13.972-8.154-27.171-15.859-37.773-24.905-42.739-36.458-88.154-52.262-127.896-44.487-26.922 5.263-47.887 15.651-74.43 28.804-23.055 11.425-49.19 24.375-86.641 38.195-60.045 22.157-99.513 52.707-114.138 88.351-7.232 17.624-7.373 33.366-5.621 44.886 11.207-14.060 23.177-26.792 35.745-37.952 33.496-29.745 70.502-47.815 107.021-52.262 5.908-0.719 11.772-1.075 17.578-1.075 18.458 0 36.345 3.61 53.23 10.626 0.205-0.214 0.399-0.435 0.618-0.64 25.942-24.241 59.983-40.92 93.394-45.758 7.086-1.026 14.087-1.536 20.999-1.536 33.54 0 64.794 12.019 91.352 35.335 35.114 30.828 69.352 46.925 102.462 62.493 2.313 1.088 4.619 2.174 6.921 3.262-3.994-57.322-44.006-80.682-82.82-103.338zM890.074 255.914c-14.87-17.549-35.251-41.604-49.993-50.79 16.819 18.068 31.894 41.324 44.434 72.991 9.448 23.85 9.779 48.316 5.575 73.468 1.165 1.695 2.061 3.61 2.538 5.742 2.401 10.748 11.672 34.050 23.016 60.659 27.833-27.149 45.729-78.68 45.623-95.038-24.841-12.339-48.38-40.113-71.192-67.032z" />
<glyph unicode="&#xe91f;" glyph-name="Shape" d="M1010.813 424.114l-47.553 23.986 47.553 23.986c8.192 3.998 12.987 12.193 12.787 21.387-0.2 8.995-5.595 16.79-13.986 20.388-32.168 13.792-81.12 27.584-147.855 27.983 57.743 33.78 93.109 70.158 114.088 98.141 0 0 0 0.2 0.2 0.2 5.395 7.196 5.994 16.59 1.798 24.585-4.396 7.995-12.588 12.792-21.779 12.193l-53.148-2.998 29.171 44.573c4.995 7.595 4.995 17.19 0.2 24.785s-13.187 11.793-21.978 10.794c0 0-0.2 0-0.2 0-34.766-4.198-83.918-16.79-142.060-49.77 33.167 57.965 45.555 107.336 49.751 142.115 0 0 0 0.2 0 0.2 0.999 8.995-2.997 17.39-10.789 22.187s-17.183 4.597-24.776-0.2l-44.556-29.183 2.997 53.168c0.599 8.995-4.196 17.39-12.188 21.787-7.992 4.198-17.383 3.598-24.576-1.999-15.784-11.793-31.169-25.984-45.755-42.175-5.594-6.196-4.995-15.591 0.999-21.187 6.194-5.597 15.585-4.997 21.179 0.999 9.591 10.594 19.381 20.188 29.571 28.783l-3.796-67.36c-0.4-5.597 2.597-10.993 7.393-13.792 4.995-2.798 10.989-2.598 15.784 0.4l56.345 36.978c-7.992-44.573-30.57-108.935-90.311-183.89l-96.305-109.734c-14.186 13.192-31.169 23.386-50.351 29.183l46.954 138.117c12.388 31.781 27.173 60.964 43.557 86.948 4.396 6.996 2.398 16.19-4.596 20.588s-16.184 2.399-20.58-4.597c-2.797-4.397-5.594-9.195-8.392-13.792-0.4 66.96-14.186 115.931-27.973 148.111 0 0 0 0.2 0 0.2-3.596 8.195-11.389 13.592-20.38 13.792s-17.383-4.597-21.379-12.792l-23.976-47.572-23.976 47.572c-3.996 8.195-12.388 12.992-21.379 12.792s-16.783-5.597-20.38-13.792c0 0 0-0.2 0-0.2-13.786-32.181-27.573-81.152-27.973-147.912-33.767 57.765-70.131 93.144-98.303 114.332-7.193 5.397-16.584 5.996-24.576 1.799-7.992-4.397-12.787-12.593-12.188-21.787l2.997-53.168-44.556 29.183c-7.593 4.997-17.183 4.997-24.776 0.4-7.593-4.797-11.788-13.192-10.789-22.187 0 0 0-0.2 0-0.2 4.196-34.779 16.584-83.95 49.751-142.115-58.143 33.18-107.295 45.573-142.26 49.77-8.991 0.999-17.383-2.998-22.178-10.794s-4.595-17.19 0.2-24.785l29.171-44.573-53.148 2.998c-8.991 0.6-17.383-4.198-21.779-12.193-4.196-7.995-3.596-17.39 1.798-24.585 0 0 0-0.2 0.2-0.2 20.979-27.983 56.345-64.362 114.088-98.141-66.934-0.4-115.686-14.192-147.855-27.983 0 0-0.2 0-0.2-0.2-8.192-3.598-13.587-11.393-13.786-20.388-0.2-9.195 4.595-17.39 12.787-21.387l47.553-23.986-47.553-23.986c-8.192-3.998-12.987-12.193-12.787-21.387 0.2-8.995 5.594-16.79 13.986-20.388 32.168-13.792 81.12-27.584 148.055-27.983-57.743-33.78-93.109-70.158-114.088-98.141 0 0 0-0.2-0.2-0.2-5.395-7.196-5.994-16.59-1.798-24.585 4.396-7.995 12.588-12.792 21.779-12.193l53.148 2.998-29.171-44.573c-4.995-7.595-4.995-17.19-0.2-24.785 4.196-6.796 11.589-10.794 19.381-10.794 0.799 0 1.798 0 2.797 0.2 0 0 0.2 0 0.2 0 34.766 4.198 83.918 16.59 142.060 49.77-32.968-57.965-45.555-107.336-49.751-142.115 0 0 0-0.2 0-0.2-0.999-8.995 2.997-17.39 10.789-22.187s17.183-4.597 24.776 0.2l44.556 29.183-2.997-53.168c-0.599-8.995 4.196-17.39 12.188-21.787 3.397-1.799 7.193-2.798 10.789-2.798 4.795 0 9.591 1.599 13.786 4.597 27.973 20.987 64.537 56.366 98.303 114.332 0-7.795 0.2-15.391 0.599-22.986 0.4-8.195 7.593-14.591 15.784-14.192s14.586 7.595 14.186 15.791c-1.598 28.983-0.2 59.764 3.796 91.545 0.999 2.199 38.163 111.333 52.149 152.109 2.398-0.2 11.788-0.2 14.186 0 15.385-44.973 51.15-149.91 52.149-152.109 11.389-88.547-0.799-151.709-15.385-192.285l-30.37 60.364c-2.597 4.997-7.792 8.195-13.387 8.195s-10.789-3.198-13.387-8.195l-30.37-60.164c-3.996 10.794-7.193 22.387-9.99 34.379-1.798 7.995-9.99 12.992-17.982 11.193s-12.987-9.994-11.189-17.989c4.396-19.189 10.19-37.178 17.183-53.568 0 0 0-0.2 0-0.2 3.596-8.195 11.389-13.592 20.38-13.792s17.383 4.597 21.379 12.792l23.976 47.572 23.976-47.572c3.996-7.795 11.788-12.792 20.58-12.792 0.2 0 0.4 0 0.799 0 8.991 0.2 16.784 5.597 20.38 13.792 0 0 0 0.2 0 0.2 13.786 32.181 27.573 81.152 27.973 147.912 33.767-57.765 70.131-93.144 98.303-114.332 3.996-2.998 8.791-4.597 13.587-4.597 3.796 0 7.393 0.999 10.989 2.798 7.992 4.397 12.787 12.593 12.188 21.787l-2.997 53.168 44.556-29.183c7.593-4.997 17.183-4.997 24.776-0.2s11.788 13.192 10.789 22.187c0 0 0 0.2 0 0.2-4.196 34.779-16.584 83.95-49.751 142.115 58.143-33.18 107.295-45.573 142.26-49.77 0.999-0.2 1.798-0.2 2.797-0.2 7.792 0 15.185 3.998 19.381 10.794 4.795 7.795 4.595 17.19-0.2 24.785l-29.171 44.573 53.148-2.998c8.991-0.6 17.383 4.198 21.779 12.193 4.196 7.995 3.596 17.39-1.798 24.585 0 0 0 0.2-0.2 0.2-20.979 27.983-56.345 64.362-114.088 98.141 66.934 0.4 115.686 14.192 147.855 27.983 0 0 0.2 0 0.2 0.2 8.192 3.598 13.587 11.393 13.786 20.388-0.2 8.995-4.995 17.19-13.187 21.387zM724.294 638.986c70.731 54.168 131.671 75.155 174.229 82.751l-36.964-56.366c-3.197-4.797-3.197-10.794-0.4-15.791s8.192-7.795 13.786-7.396l67.334 3.798c-27.973-33.18-76.525-75.355-158.844-109.535-2.597-0.4-125.077-24.385-157.845-30.782-2.198 4.197-4.396 8.195-6.993 12.193 32.368 36.978 104.298 119.329 105.696 121.128zM468.346 919.818l30.37-60.364c2.597-4.997 7.792-8.195 13.387-8.195s10.789 3.198 13.387 8.195l30.37 60.364c14.785-40.776 26.973-103.938 15.385-192.485-0.999-2.199-37.763-110.334-52.149-152.109-2.398 0.2-11.788 0.2-14.186 0-14.386 41.975-51.15 149.91-52.149 152.109-11.389 88.547 0.799 151.709 15.585 192.485zM238.372 834.669l56.345-36.978c4.795-3.198 10.789-3.198 15.784-0.4s7.792 8.195 7.393 13.792l-3.796 67.36c34.566-29.183 79.122-80.952 114.088-170.098l46.954-138.117c-18.981-5.797-36.164-15.791-50.351-29.183l-96.305 109.734c-59.542 74.955-82.119 139.317-90.111 183.89zM81.926 645.982l67.334-3.798c5.595-0.4 10.989 2.598 13.786 7.396 2.797 4.997 2.597 10.993-0.4 15.791l-36.964 56.366c42.758-7.595 103.498-28.783 174.229-82.751 1.598-1.999 76.725-88.147 105.696-121.328-2.597-3.998-4.995-7.995-6.993-12.193-35.165 6.996-155.247 30.582-157.845 30.981-82.319 34.18-130.871 76.354-158.844 109.535zM40.566 404.326l60.141 30.382c4.995 2.598 8.192 7.795 8.192 13.392s-3.197 10.794-8.192 13.392l-60.341 30.382c42.558 15.391 109.692 27.983 204.399 13.792l143.059-28.383c-2.198-9.394-3.397-18.989-3.397-28.983s1.199-19.788 3.397-28.983l-143.059-28.383c-94.507-14.591-161.441-1.999-204.199 13.392zM125.683 174.264l36.964 56.366c3.197 4.797 3.197 10.794 0.4 15.791-2.597 4.597-7.593 7.396-12.987 7.396-0.2 0-0.599 0-0.799 0l-67.334-3.798c27.973 33.18 76.525 75.355 158.844 109.535 2.398 0.4 108.493 21.187 157.845 30.981 2.198-4.197 4.396-8.195 6.993-12.193-29.371-33.78-104.098-119.329-105.696-121.328-70.93-54.168-131.671-75.155-174.229-82.751zM428.385 187.855c-34.966-89.147-79.322-140.916-114.088-170.098l3.796 67.36c0.4 5.597-2.597 10.993-7.393 13.792-2.398 1.399-4.995 1.999-7.393 1.999-2.797 0-5.794-0.8-8.192-2.399l-56.345-36.978c7.992 44.573 30.57 108.935 90.311 183.89l96.305 109.734c14.186-13.192 31.169-23.386 50.351-29.183l-47.353-138.117zM414.599 448.1c0 53.768 43.757 97.542 97.504 97.542s97.504-43.774 97.504-97.542c0-53.768-43.757-97.542-97.504-97.542s-97.504 43.774-97.504 97.542zM785.834 61.331l-56.345 36.978c-4.795 3.198-10.789 3.198-15.784 0.4s-7.792-8.195-7.393-13.792l3.796-67.36c-34.566 29.183-79.122 80.952-114.088 170.098l-46.954 138.117c18.981 5.797 36.164 15.791 50.351 29.183l96.305-109.734c59.542-74.955 82.119-139.317 90.111-183.89zM942.28 250.018l-67.334 3.798c-5.594 0.4-10.989-2.598-13.786-7.396-2.797-4.997-2.597-10.993 0.4-15.791l36.964-56.366c-42.758 7.595-103.498 28.783-174.229 82.751-1.598 1.999-81.52 93.544-105.696 121.328 2.597 3.998 4.995 7.995 6.993 12.193 43.357-8.595 155.447-30.582 157.845-30.981 82.319-34.18 130.871-76.154 158.844-109.535zM779.24 390.534l-143.059 28.383c2.198 9.394 3.397 18.989 3.397 28.983s-1.199 19.788-3.397 28.983l143.059 28.383c94.707 14.192 161.641 1.599 204.399-13.792l-60.141-30.382c-4.995-2.598-8.192-7.795-8.192-13.392s3.197-10.794 8.192-13.392l60.341-30.382c-42.758-14.991-109.892-27.584-204.599-13.392z" />
<glyph unicode="&#xe920;" glyph-name="tul" horiz-adv-x="922" d="M805.346 864.025l-13.252 22.086c-3.413 5.823-10.039 8.835-16.866 7.63-6.626-1.205-11.846-6.224-13.252-12.85l-14.256-70.275-19.275 24.696c-19.476 24.897-42.566 46.381-68.869 63.849l-37.547 25.098c-6.425 4.417-15.059 3.413-20.681-2.008l-62.444-62.444-78.707 94.369c-3.213 3.815-7.63 5.823-12.649 5.823-4.819 0-9.437-2.209-12.649-5.823l-78.707-94.369-62.444 62.444c-5.421 5.421-14.256 6.425-20.681 2.008l-37.747-25.098c-26.102-17.468-49.393-38.952-68.668-63.849l-19.275-24.696-14.256 70.275c-1.405 6.626-6.626 11.645-13.252 12.85-1.004 0.201-1.807 0.201-2.811 0.201-5.823 0-11.043-3.012-14.055-8.031l-13.252-21.885c-57.826-96.176-88.345-206.406-88.345-318.645v-163.438c0-119.065 46.381-231.103 130.51-315.231s196.166-130.51 315.231-130.51c119.065 0 231.103 46.381 315.231 130.51s130.51 196.166 130.51 315.231v163.438c0.803 112.238-29.716 222.469-87.542 318.645zM327.078 824.27c-36.141-43.369-64.251-92.16-83.526-145.167l-8.232-22.689-16.063 18.071c-22.689 25.299-40.96 53.81-54.212 84.731l-2.61 6.224 3.012 6.024c20.279 40.558 50.999 75.093 88.747 100.191l26.504 17.669 55.015-55.015-8.634-10.039zM431.485 222.921v-253.992l-15.661 1.205c-103.404 8.031-199.379 54.413-270.456 130.711-71.479 76.7-110.632 176.489-110.632 281.098v163.438c0 86.337 19.476 173.277 56.621 251.382l16.866 35.74 10.24-38.149c17.067-64.050 52.204-121.675 101.396-166.651l55.617-50.798c99.187-90.755 156.009-219.658 156.009-353.983zM262.425 632.922l7.429 22.086c18.271 54.613 45.98 104.609 82.924 148.781l95.172 114.246 95.172-114.246c36.744-44.173 64.653-94.168 82.924-148.781l7.429-22.287-34.936-31.925c-61.239-56.019-108.624-127.096-136.734-205.804l-13.653-38.149-13.653 38.149c-28.11 78.707-75.495 149.785-136.734 205.804l-35.338 32.125zM730.654 759.416c-13.252-30.921-31.523-59.432-54.212-84.731l-16.063-18.071-8.232 22.689c-19.476 52.806-47.586 101.798-83.526 145.167l-8.433 10.24 55.015 55.015 26.504-17.669c37.747-25.098 68.267-59.834 88.747-100.191l3.012-6.024-2.811-6.425zM464.213 222.921c0 134.325 56.822 263.429 156.009 353.983l55.617 50.798c49.192 44.976 84.329 102.601 101.396 166.651l10.24 38.149 16.866-35.74c36.944-78.105 56.621-165.045 56.621-251.382v-163.438c0-104.609-39.354-204.398-110.632-281.098-71.078-76.298-167.053-122.679-270.456-130.711l-15.661-1.205v253.992z" />
<glyph unicode="&#xe936;" glyph-name="arrow1" horiz-adv-x="1396" d="M12.92 416.726c-8.621 8.655-12.92 19.974-12.92 31.315 0 11.319 4.299 22.638 12.92 31.315l465.886 467.678c17.241 17.287 45.165 17.287 62.384 0 17.219-17.309 17.219-45.343 0-62.63l-390.582-392.077h1201.643c24.348 0 44.112-19.798 44.112-44.286s-19.742-44.286-44.112-44.286h-1201.643l390.582-392.165c17.219-17.287 17.219-45.321 0-62.608-17.219-17.309-45.143-17.309-62.384 0l-465.886 467.744z" />
<glyph unicode="&#xe937;" glyph-name="arrow2" horiz-adv-x="614" d="M588.632 386.073l-436.039-424.753c-34.625-33.76-91.395-33.76-126.020 0-16.91 16.488-26.17 38.079-26.17 61.632s9.26 45.145 26.17 61.632l372.827 363.513-373.23 363.121c-16.91 16.488-26.17 38.079-26.17 61.632 0 23.161 9.26 45.145 26.17 61.632 17.313 16.88 40.262 25.517 63.212 25.517s45.899-8.636 63.212-25.517l436.039-425.146c16.507-16.488 25.768-38.079 25.768-61.632 0-23.161-9.26-45.145-25.768-61.632z" />
<glyph unicode="&#xe938;" glyph-name="basket" horiz-adv-x="1147" d="M42.428 876.522c-23.336 0-42.428 18.783-42.428 41.739s19.093 41.739 42.428 41.739h153.45c19.093 0 36.064-12.522 41.013-30.609l173.247-616.347h472.368l156.985 354.782h-523.282c-23.335 0-42.428 18.783-42.428 41.739s19.093 41.739 42.428 41.739h588.335c14.143 0 27.578-6.956 35.357-18.783s9.195-26.436 3.537-39.652l-193.755-438.261c-7.071-15.304-21.92-25.043-38.892-25.043h-532.475c-19.093 0-36.064 12.522-41.013 30.609l-173.249 616.347h-121.627zM338.011-64c-53.035 0-96.17 42.436-96.17 94.61s43.135 94.605 96.17 94.605c53.035 0 96.17-42.434 96.17-94.608s-43.135-94.608-96.17-94.608zM939.079-64c-50.208 0-91.929 38.957-95.463 88.349-3.536 51.477 36.064 97.39 89.099 100.869s98.997-36.173 102.534-87.652c1.415-25.738-6.364-50.087-23.336-68.87-16.971-19.48-40.307-30.609-65.764-32.696-2.121 0-4.949 0-7.071 0z" />
<glyph unicode="&#xe939;" glyph-name="chat" d="M921.6 960h-819.2c-56.32 0-102.4-46.080-102.4-102.4v-921.6l204.8 204.8h716.8c56.32 0 102.4 46.080 102.4 102.4v614.4c0 56.32-46.080 102.4-102.4 102.4z" />
<glyph unicode="&#xe93a;" glyph-name="Check" horiz-adv-x="1422" d="M1404.68 942.226c-23.331 23.698-61.227 23.698-84.558 0l-846.071-860.194-371.994 375.34c-23.331 23.698-61.227 23.698-84.559 0s-23.331-62.061 0-85.699l414.449-418.127c23.095-23.396 61.522-23.396 84.617 0l888.111 902.981c23.395 23.637 23.395 62.061 0.005 85.699-23.331 23.698 23.39-23.637 0 0z" />
<glyph unicode="&#xe93b;" glyph-name="cross1" d="M633.701 447.998l365.094 365.094c33.607 33.607 33.607 88.095 0 121.698-33.608 33.607-88.091 33.607-121.698 0l-365.098-365.099-365.099 365.104c-33.607 33.607-88.091 33.607-121.698 0-33.602-33.607-33.602-88.095 0-121.698l365.099-365.094-365.099-365.099c-33.602-33.607-33.602-88.095 0-121.698 33.608-33.607 88.091-33.607 121.698 0l365.099 365.099 365.098-365.099c33.603-33.607 88.091-33.607 121.698 0s33.607 88.091 0 121.698l-365.094 365.094z" />
<glyph unicode="&#xe93c;" glyph-name="delivery" horiz-adv-x="1577" d="M1576.279 177.084c-6.154 31.199-60.504 305.981-73.93 346.099-32.28 96.454-109.833 206.258-207.449 293.724-101.494 90.937-206.65 143.093-288.51 143.093h-796.291c-41.268 0-74.843-33.4-74.843-74.452v-116.987h-55.136c-20.22 0-36.613-16.307-36.613-36.422s16.393-36.422 36.613-36.422h55.133v-86.88h-98.639c-20.22 0-36.613-16.307-36.613-36.422s16.393-36.422 36.613-36.422h98.639v-365.918c0-41.052 33.576-74.449 74.843-74.449h91.284c13.649-90.225 92.093-159.626 186.535-159.626s172.887 69.401 186.532 159.626h335.833c13.646-90.225 92.093-159.626 186.535-159.626s172.887 69.401 186.532 159.626h118.766c41.271 0 74.847 33.397 74.847 74.449 0 2.35-0.229 4.697-0.681 7.009zM1428.681 511.917h-377.279v368.728c133.657-35.709 318.912-212.605 377.279-368.728zM487.918 8.84c-63.643 0-115.423 51.507-115.423 114.821 0 63.31 51.78 114.817 115.423 114.817s115.42-51.507 115.42-114.817c-0.003-63.314-51.777-114.821-115.42-114.821zM1196.818 8.84c-63.643 0.003-115.423 51.51-115.423 114.821s51.78 114.817 115.423 114.817c63.643 0 115.42-51.507 115.42-114.817 0-63.314-51.777-114.821-115.42-114.821zM1500.305 168.466c-30.532 0-120.317 0-120.317 0-20.252 81.905-94.672 142.853-183.17 142.853s-162.921-60.948-183.173-142.853h-342.558c-20.252 81.905-94.672 142.853-183.17 142.853s-162.921-60.948-183.173-142.853h-94.646c-0.891 0-1.617 0.722-1.617 1.606v365.919h448.697c20.22 0 36.613 16.307 36.613 36.422s-16.393 36.422-36.613 36.422h-448.7v86.88h206.529c20.22 0 36.613 16.307 36.613 36.422s-16.393 36.422-36.613 36.422h-206.529v116.987c0 0.887 0.726 1.609 1.617 1.609h768.080v-411.655c0-20.114 16.39-36.422 36.613-36.422l432.845-0.003c15.613-70.82 37.027-184.332 55.257-268.362 0.369-1.691-0.694-2.245-2.585-2.245z" />
<glyph unicode="&#xe93d;" glyph-name="exit1" d="M960 960h-896c-35.344 0-64-28.656-64-64v-128c0-35.344 28.656-64 64-64s64 28.656 64 64v64h768v-768h-768v64c0 35.344-28.656 64-64 64s-64-28.656-64-64v-128c0-35.344 28.656-64 64-64h896c35.344 0 64 28.656 64 64v896c0 35.344-28.656 64-64 64zM286.188 632.422c-20.782 11.14-46.062 9.938-65.688-3.172l-192-128c-17.812-11.876-28.5-31.844-28.5-53.25s10.688-41.376 28.5-53.25l192-128c10.718-7.14 23.094-10.75 35.5-10.75 10.344 0 20.75 2.516 30.188 7.578 20.812 11.126 33.812 32.812 33.812 56.422v64h384c35.344 0 64 28.656 64 64s-28.656 64-64 64h-384v64c0 23.61-13 45.296-33.812 56.422z" />
<glyph unicode="&#xe93e;" glyph-name="heart" horiz-adv-x="1113" d="M788.54 958.869c-51.866 0-101.436-11.763-147.335-34.837-31.211-15.835-59.898-36.647-84.683-61.53-24.556 24.884-53.472 45.695-84.683 61.53-45.899 23.074-95.469 34.837-147.335 34.837-179.005 0-324.504-143.647-324.504-319.868 0-124.871 67.012-257.659 198.971-394.293 110.157-114.239 245.099-209.249 338.962-269.196l18.589-11.989 18.589 11.989c93.863 59.721 228.805 154.957 338.962 269.196 131.959 136.634 198.971 269.422 198.971 394.293 0 176.222-145.499 319.868-324.504 319.868z" />
<glyph unicode="&#xe93f;" glyph-name="like1" horiz-adv-x="1138" d="M806.089 960c-53.049 0-103.754-12.067-150.698-35.868-31.956-16.199-61.313-37.721-86.501-63.256-25.191 25.535-54.545 47.057-86.501 63.256-46.947 23.801-97.65 35.868-150.701 35.868-182.891 0-331.687-147.641-331.687-329.115 0-128.535 68.415-265.049 203.341-405.756 112.656-117.483 250.583-215.415 346.45-276.883l19.098-12.246 19.098 12.246c95.867 61.466 233.793 159.4 346.452 276.883 134.926 140.706 203.338 277.221 203.338 405.756 0 181.474-148.796 329.115-331.689 329.115zM883.453 273.267c-100.683-104.994-223.323-194.254-314.564-253.992-91.24 59.741-213.881 148.998-314.561 253.992-122.062 127.285-183.949 247.605-183.949 357.618 0 142.969 117.224 259.283 261.311 259.283 82.955 0 159.158-37.809 209.065-103.731l28.135-37.162 28.135 37.162c49.907 65.921 126.11 103.731 209.065 103.731 144.087 0 261.311-116.314 261.311-259.283 0-110.013-61.891-230.333-183.947-357.618z" />
<glyph unicode="&#xe940;" glyph-name="like2" d="M993.268 263.842c21.588 26.767 31.941 55.462 30.62 85.012-1.322 32.549-16.301 58.031-28.637 73.663 14.319 34.69 19.826 89.295-27.976 131.693-35.025 31.050-94.503 44.969-176.889 41.114-57.935-2.57-106.398-13.062-108.381-13.49h-0.22c-11.014-1.927-22.689-4.283-34.585-6.853-0.881 13.705 1.542 47.753 27.536 124.413 30.84 91.222 29.078 161.031-5.727 207.712-36.567 49.037-94.943 52.892-112.125 52.892-16.521 0-31.721-6.638-42.515-18.844-24.452-27.623-21.588-78.588-18.504-102.143-29.078-75.805-110.583-261.675-179.533-313.282-1.322-0.856-2.423-1.927-3.525-2.998-20.266-20.771-33.924-43.256-43.176-62.956-12.997 6.853-27.756 10.707-43.617 10.707h-134.374c-50.666 0-91.639-40.043-91.639-89.080v-347.972c0-49.252 41.193-89.081 91.639-89.081h134.374c19.605 0 37.889 5.996 52.869 16.275l51.767-5.996c7.93-1.071 148.913-18.416 293.641-15.632 26.214-1.927 50.886-2.998 73.796-2.998 39.431 0 73.796 2.998 102.433 8.993 67.407 13.919 113.447 41.757 136.797 82.657 17.843 31.264 17.843 62.314 14.979 82.014 43.837 38.545 51.547 81.158 50.005 111.137-0.881 17.345-4.846 32.121-9.032 43.041zM91.639 2.168c-17.843 0-32.162 14.133-32.162 31.264v348.185c0 17.345 14.539 31.264 32.162 31.264h134.374c17.843 0 32.162-14.133 32.162-31.264v-347.972c0-17.345-14.539-31.263-32.162-31.263h-134.374v-0.214zM936.875 288.897c-9.252-9.422-11.014-23.77-3.965-34.905 0-0.214 9.032-15.204 10.133-35.761 1.542-28.051-12.336-52.892-41.414-74.091-10.353-7.709-14.539-20.985-10.133-32.977 0-0.214 9.472-28.48-5.948-55.247-14.759-25.696-47.582-44.113-97.366-54.391-39.872-8.351-94.062-9.85-160.588-4.711-0.881 0-1.983 0-3.084 0-141.644-2.998-284.829 14.989-286.371 15.204h-0.22l-22.249 2.57c1.322 5.996 1.983 12.42 1.983 18.844v348.185c0 9.208-1.542 18.202-4.185 26.553 3.965 14.348 14.979 46.253 40.973 73.449 98.908 76.233 195.614 333.41 199.799 344.545 1.762 4.497 2.203 9.422 1.322 14.348-3.745 23.983-2.423 53.32 2.864 62.099 11.675-0.214 43.176-3.426 62.121-28.909 22.469-30.193 21.588-84.155-2.643-155.677-37.008-108.995-40.092-166.384-10.794-191.652 14.539-12.634 33.924-13.277 48.022-8.352 13.437 2.998 26.214 5.568 38.33 7.495 0.881 0.214 1.983 0.428 2.864 0.642 67.628 14.347 188.785 23.127 230.859-14.133 35.686-31.692 10.353-73.662 7.49-78.16-8.151-11.992-5.727-27.623 5.287-37.259 0.22-0.214 23.35-21.414 24.452-49.894 0.881-19.058-8.371-38.545-27.536-57.816z" />
<glyph unicode="&#xe941;" glyph-name="login" d="M951.599 223.898c-30.224 30.216-80.8 56.592-160.528 96.473-40.192 20.096-107.088 53.528-123.304 68.841 67.912 83.473 107.327 177.753 107.327 260.282 0 56 0 125.689-31.344 187.841-28.256 55.976-91.4 122.665-231.735 122.665-140.367 0-203.511-66.689-231.735-122.657-31.384-62.16-31.384-131.841-31.384-187.841 0-82.561 39.384-176.817 107.336-260.282-16.256-15.344-83.143-48.784-123.335-68.841-79.704-39.872-130.279-66.249-160.528-96.473-66.952-67.001-72.015-179.409-72.36-201.282-0.344-22.816 8.472-44.872 24.536-61.184 16-16.248 37.944-25.44 60.76-25.44h853.349c22.88 0 44.768 9.184 60.8 25.44 16.032 16.312 24.88 38.376 24.536 61.216-0.344 21.832-5.448 134.241-72.391 201.242zM953.879 6.369c-4.064-4.096-9.472-6.376-15.224-6.376h-853.349c-5.656 0-11.184 2.312-15.16 6.376-3.968 4.032-6.216 9.592-6.16 15.28 0.184 10.72 3.128 106.441 53.64 156.969 23.32 23.312 72.136 48.592 143.904 84.505 76.608 38.28 119.088 61.096 138.656 79.593l43.192 40.84-37.504 46.064c-59.072 72.561-92.984 152.721-92.984 219.874 0 51.784 0 110.441 24.504 159.001 29.344 58.064 88.040 87.505 174.624 87.505 86.512 0 145.272-29.44 174.592-87.473 24.504-48.592 24.504-107.249 24.504-159.033 0-67.129-33.88-147.281-93.024-219.874l-37.504-46.096 43.2-40.816c19.56-18.472 62.008-41.28 138.648-79.593 71.768-35.872 120.584-61.16 143.904-84.505 41.104-41.096 53.072-118.001 53.632-156.969 0.104-5.68-2.12-11.24-6.088-15.272z" />
<glyph unicode="&#xe942;" glyph-name="menu-burger" horiz-adv-x="1536" d="M0-62.332h1530.997v170.111h-1530.997v-170.111zM0 362.945h1530.997v170.111h-1530.997v-170.111zM0 958.332v-170.111h1530.997v170.111h-1530.997z" />
<glyph unicode="&#xe943;" glyph-name="pay" horiz-adv-x="1247" d="M1185.341 608.239v162.005c0 103.945-81.491 185.613-185.21 185.613h-814.922c-103.719-0.004-185.21-81.673-185.21-185.617v-645.935c0-103.945 81.491-185.613 185.21-185.613h814.922c103.719 0 185.21 81.668 185.21 185.613v154.577c34.894 23.091 59.267 62.588 59.267 105.28v118.793c0 42.769-24.374 82.193-59.267 105.284zM1170.525 384.166c0-29.696-22.224-51.972-51.859-51.972h-377.827c-29.632 0-51.859 22.272-51.859 51.972v118.793c0 29.696 22.224 51.972 51.859 51.972h377.827c29.632 0 51.859-22.272 51.859-51.972v-118.793zM1000.131 12.941h-814.922c-59.267 0-111.127 51.972-111.127 111.369v645.931c0 59.396 51.859 111.369 111.127 111.369h814.922c59.267 0 111.127-51.972 111.127-111.369v-141.065h-370.419c-66.675 0-125.942-59.396-125.942-126.217v-118.793c0-66.82 59.267-126.217 125.942-126.217h370.419v-133.641c0-59.396-51.859-111.369-111.127-111.369zM748.247 473.263c-7.408-7.424-7.408-22.272-7.408-29.696s0-14.848 7.408-22.272c7.408-7.424 22.224-14.848 29.632-14.848s14.816 7.424 22.224 14.848c7.408 0 14.816 14.848 14.816 22.272 0 14.848-7.408 22.272-14.816 29.696-14.811 14.848-37.039 14.848-51.855 0z" />
<glyph unicode="&#xe944;" glyph-name="plus" d="M64 405.333c-35.346 0-64 28.654-64 64s28.654 64 64 64h857.589c35.346 0 64-28.654 64-64s-28.654-64-64-64h-857.589zM428.795 898.128c0 35.346 28.654 64 64 64s64-28.654 64-64v-857.589c0-35.346-28.654-64-64-64s-64 28.654-64 64v857.589z" />
<glyph unicode="&#xe945;" glyph-name="present" d="M994.455 738.077h-228.973c38.946 18.466 66.14 58.418 66.14 104.414 0 63.79-51.704 115.494-115.494 115.494-44.653 0-154.775-58.083-203.121-113.144-48.682 55.397-158.804 113.479-203.457 113.479-30.888 0-59.761-12.087-81.92-33.91-21.823-21.823-33.574-50.696-33.574-81.584s11.751-59.761 33.574-81.584c9.401-9.401 20.48-17.123 32.231-22.83h-228.637c-16.115 0-29.209-13.094-29.209-29.209v-200.771c0-16.115 13.094-29.209 29.209-29.209h21.151v-513.343c0-16.115 13.094-29.209 29.209-29.209h861.839c16.115 0 29.209 13.094 29.209 29.209v513.007h21.151c16.115 0 29.209 13.094 29.209 29.209v200.771c0.671 16.115-12.422 29.209-28.538 29.209zM336.409 785.416c-10.408 0.336-19.809 0.671-26.859 0.671-31.224 0-56.74 25.516-56.74 56.74s25.516 56.74 56.74 56.74c18.801 0 59.426-18.466 101.393-45.66s63.79-49.353 68.155-59.090c-6.715-3.693-34.245-12.758-142.689-9.401zM546.917 794.817c1.343 3.022 4.7 8.393 13.094 16.787 35.252 35.588 123.551 87.963 156.118 87.963 31.224 0 56.74-25.516 56.74-56.74s-25.516-56.74-56.74-56.74c-7.386 0-16.451-0.336-26.859-0.671-108.443-3.022-135.974 5.708-142.353 9.401zM532.144 738.077h-38.61c7.386 2.686 13.765 5.708 19.473 9.401 5.372-3.357 11.751-6.715 19.137-9.401zM914.55 478.888v-483.798h-292.092v483.798h292.092zM965.246 537.642h-343.124v141.681h343.124v-141.681zM563.704 478.888v-484.134h-101.393v484.134h101.393zM563.704 679.323v-142.017h-101.393v142.017h101.393zM403.557 478.888v-484.134h-292.092v484.134h292.092zM403.557 679.323v-142.017h-343.124v142.017h343.124z" />
<glyph unicode="&#xe946;" glyph-name="search" d="M1013.066-5.486l-305.452 306.543c58.524 70.069 94.091 159.742 94.091 256.658 0 219.429-182.206 402.285-400.855 402.285s-400.85-182.86-400.85-402.29c0-219.429 182.206-402.285 400.855-402.285 94.745 0 182.499 34.379 251.736 91.136l302.168-303.247c7.288-7.314 14.576-7.314 29.151-7.314s21.863 0 29.151 7.314c14.584 14.627 14.584 36.569 0.004 51.2zM400.855 228.567c-182.206 0-327.969 146.283-327.969 329.14s145.763 329.14 327.969 329.14c182.206 0 327.969-146.283 327.969-329.14s-145.763-329.14-327.969-329.14z" />
<glyph unicode="&#xe947;" glyph-name="security" horiz-adv-x="856" d="M851.355 697.232c-0.52 27.553-1.017 53.581-1.017 78.762 0 19.727-15.884 35.721-35.488 35.721-151.769 0-267.322 43.903-363.64 138.169-13.779 13.488-35.705 13.483-49.479 0-96.309-94.265-211.843-138.169-363.602-138.169-19.599 0-35.488-15.993-35.488-35.721 0-25.186-0.492-51.224-1.017-78.781-4.864-256.41-11.526-607.575 413.223-755.769 3.766-1.315 7.694-1.972 11.621-1.972s7.859 0.657 11.621 1.972c424.783 148.199 418.13 499.374 413.266 755.788zM426.472 13.1c-364.279 133.201-358.771 424.993-353.883 682.751 0.293 15.47 0.577 30.463 0.776 45.161 142.14 6.039 255.805 49.395 353.107 134.716 97.312-85.321 210.996-128.681 353.145-134.716 0.199-14.693 0.483-29.677 0.776-45.137 4.883-257.767 10.386-549.569-353.921-682.775zM548.678 573.823l-171.283-172.399-73.090 73.571c-13.859 13.945-36.33 13.945-50.184 0-13.859-13.955-13.859-36.569 0-50.519l98.183-98.828c6.927-6.973 16.012-10.459 25.092-10.459s18.165 3.486 25.092 10.459l196.37 197.656c13.864 13.95 13.864 36.569 0.005 50.514-13.854 13.95-36.325 13.955-50.184 0.005z" />
<glyph unicode="&#xe948;" glyph-name="star1" d="M1020.365 581.778c-7.693 20.554-26.558 34.83-48.413 36.696l-289.285 34.323-118.414 272.785c-8.982 20.859-29.476 34.388-52.17 34.419h-0.085c-22.663 0-43.168-13.445-52.196-34.254l-118.468-272.949-289.285-34.323c-21.912-1.888-40.78-16.198-48.444-36.779-7.693-20.585-2.861-43.748 12.443-59.531l222.888-210.699-67.354-308.351c-3.97-21.775 5.061-43.916 23.167-56.697 9.78-6.915 21.283-10.416 32.81-10.416 9.779 0 19.558 2.498 28.358 7.582l256.090 163.084 256.086-163.084c8.807-5.084 18.579-7.582 28.358-7.582 11.5 0 22.942 3.471 32.722 10.363 18.113 12.724 27.164 34.781 23.277 56.556l-67.377 308.546 222.987 210.813c15.222 15.771 20.029 38.938 12.305 59.5z" />
</font>
</defs>
</svg>
