<svg width="27" height="26" viewBox="0 0 27 26" xmlns="http://www.w3.org/2000/svg"><title>Z_logo</title><path d="M26.964 2.454l-11.4 15.892a1.6 1.6 0 0 1-1.316.67l-2.644-.024L23.572 2.734l-.042-.082H4.028a1.6 1.6 0 0 1-1.43-.874L1.846.314A.16.16 0 0 1 1.988.08L25.74.064a.16.16 0 0 1 .144.088l1.094 2.128a.16.16 0 0 1-.014.174z"/><path d="M.034 23.546l11.484-16a1.6 1.6 0 0 1 1.308-.67h2.664L3.426 23.262l.042.082H22.97a1.6 1.6 0 0 1 1.43.874l.752 1.464a.16.16 0 0 1-.142.234l-23.752.016a.16.16 0 0 1-.144-.088L.02 23.716a.16.16 0 0 1 .014-.17z"/></svg>