<svg id="Layer_1" xmlns="http://www.w3.org/2000/svg" viewBox="0 0 22 13"><style>.st0{fill:#fff}</style><title>Group</title><path class="st0" d="M18.5 0h-15C1.6 0 0 1.6 0 3.5v6C0 11.4 1.6 13 3.5 13h15c1.9 0 3.5-1.6 3.5-3.5v-6C22 1.6 20.4 0 18.5 0zM21 9.5c0 1.4-1.1 2.5-2.5 2.5h-15C2.1 12 1 10.9 1 9.5v-6C1 2.1 2.1 1 3.5 1h15C19.9 1 21 2.1 21 3.5v6z"/><path class="st0" d="M10 2c-.2 0-.5.2-.5.5s.3.5.5.5h10c.3 0 .5-.2.5-.5S20.2 2 20 2H10zm4 4h6c.3 0 .5-.2.5-.5S20.2 5 20 5h-6c-.3 0-.5.2-.5.5s.3.5.5.5zm0 3h6c.3 0 .5-.2.5-.5S20.2 8 20 8h-6c-.3 0-.5.2-.5.5s.3.5.5.5zm6 1h-8c-.3 0-.5.2-.5.5s.3.5.5.5h8c.3 0 .5-.2.5-.5s-.3-.5-.5-.5zM5.5 6.5c1.1 0 2-.9 2-2s-.9-2-2-2-2 .9-2 2 .9 2 2 2zm0-3c.6 0 1 .4 1 1s-.4 1-1 1-1-.4-1-1 .4-1 1-1zm0 3.5C3.6 7 2 8.6 2 10.5v.5h7v-.5C9 8.6 7.4 7 5.5 7zm-2.4 3c.2-1.1 1.2-2 2.4-2s2.2.9 2.4 2H3.1z"/></svg>