<svg width="17" height="17" viewBox="0 0 17 17" xmlns="http://www.w3.org/2000/svg"><title></title><path d="M8.849 10.974L10.79 9.03H.531a.51.51 0 0 1-.373-.157A.51.51 0 0 1 0 8.5a.525.525 0 0 1 .531-.531h10.227l-1.91-1.926a.482.482 0 0 1-.165-.374.48.48 0 0 1 .166-.373c.1-.11.221-.166.365-.166s.271.055.382.166l3.137 3.22-3.137 3.221a.757.757 0 0 1-.183.108.514.514 0 0 1-.2.042.514.514 0 0 1-.198-.042.507.507 0 0 1-.166-.108.525.525 0 0 1 0-.763zM15.937 0c.3 0 .551.102.756.307.205.205.307.457.307.756v14.874c0 .3-.102.551-.307.756a1.027 1.027 0 0 1-.756.307H6.376c-.288 0-.537-.102-.747-.307a1.013 1.013 0 0 1-.316-.756V11.14h1.08v4.15c0 .177.06.33.182.457s.271.19.448.19h8.268c.177 0 .33-.063.457-.19a.623.623 0 0 0 .19-.457l-.016-13.58a.623.623 0 0 0-.191-.457.623.623 0 0 0-.457-.19h-8.25a.596.596 0 0 0-.449.19.637.637 0 0 0-.182.457v4.134h-1.08V1.062c0-.298.106-.55.316-.755.21-.205.46-.307.747-.307h9.563z" fill="#E60000" fill-rule="evenodd"/></svg>