<svg width="6" height="13" viewBox="0 0 6 13" xmlns="http://www.w3.org/2000/svg"><title>info-sign</title><path d="M4.586 0c.874 0 1.31.594 1.31 1.273 0 .847-.758 1.632-1.746 1.632-.828 0-1.31-.488-1.288-1.293C2.862.932 3.437 0 4.586 0zm-2.69 13c-.689 0-1.194-.424-.712-2.29l.792-3.31c.138-.53.16-.741 0-.741-.207 0-1.102.366-1.632.726L0 6.813c1.678-1.42 3.608-2.254 4.435-2.254.69 0 .805.827.46 2.1l-.906 3.478c-.161.615-.092.827.068.827.207 0 .886-.255 1.552-.785l.391.53C4.368 12.363 2.587 13 1.897 13z" fill="#030104"/></svg>