<svg width="74" height="60" viewBox="0 0 74 60" xmlns="http://www.w3.org/2000/svg"><title>like_icon</title><path d="M33.222 58.423l29.897-.02c6 0 6.062-7.536 2.11-8.191l1.085.04c3.788-.409 5.386-7.146.532-8.375l.901-.02c3.625-.39 5.284-6.84.246-8.273l1.208-.123c5.386-.082 5.734-8.007.656-8.028H49.154c.798-3.174 2.273-9.296 2.273-13.27 0-3.972-.717-9.255-2.724-11.14-2.007-1.883-5.959-.634-6.43.554-.471 1.188.287 7.351.082 9.727-.45 5.406-8.928 16.218-11.099 18.082-1.147.983-3.236 2.334-4.915 3.379v23.262h1.352c1.495-.02 3.42 2.396 5.529 2.396zM.123 31.659h19.024V60H.123z" fill="#FFF" fill-rule="evenodd"/></svg>