<svg width="12" height="15" viewBox="0 0 12 15" xmlns="http://www.w3.org/2000/svg"><title>Shape</title><path d="M11.708 7.116A.954.954 0 0 0 11 6.818h-.333V4.773c0-1.307-.459-2.43-1.375-3.367C8.375.47 7.278 0 6 0S3.625.469 2.708 1.406c-.917.938-1.375 2.06-1.375 3.367v2.045H1c-.278 0-.514.1-.708.298A.997.997 0 0 0 0 7.841v6.136c0 .284.097.526.292.725C.486 14.9.722 15 1 15h10c.278 0 .514-.1.708-.298a.999.999 0 0 0 .292-.725V7.841a.997.997 0 0 0-.292-.725zm-3.041-.298H3.333V4.773c0-.753.26-1.396.782-1.929A2.541 2.541 0 0 1 6 2.046a2.54 2.54 0 0 1 1.885.798 2.66 2.66 0 0 1 .782 1.929v2.045z" fill="#FFF"/></svg>