<svg width="43" height="50" viewBox="0 0 43 50" xmlns="http://www.w3.org/2000/svg"><title>message-on-phone</title><g fill="#E60000"><path d="M28.906 27.344a.781.781 0 0 0-.781.781v14.063H1.562V7.812h8.594a.781.781 0 0 0 0-1.562H1.562v-.781A3.91 3.91 0 0 1 5.47 1.562h18.75a.781.781 0 0 0 0-1.562H5.469A5.475 5.475 0 0 0 0 5.469V44.53A5.475 5.475 0 0 0 5.469 50h18.75a5.475 5.475 0 0 0 5.468-5.469V28.125a.781.781 0 0 0-.78-.781zM24.22 48.437H5.469a3.91 3.91 0 0 1-3.907-3.906v-.781h26.563v.781a3.91 3.91 0 0 1-3.906 3.907z"/><path d="M16.406 45.313h-3.125a.781.781 0 0 0 0 1.562h3.125a.781.781 0 0 0 0-1.563zM9.604 3.354a.788.788 0 0 0-.229.552c0 .205.083.407.229.553a.786.786 0 0 0 1.105 0 .786.786 0 0 0 0-1.105.786.786 0 0 0-1.105 0zm7.584 9.927h4.687a.781.781 0 0 0 0-1.562h-4.688a.781.781 0 0 0 0 1.562zM37.5 11.719H25a.781.781 0 0 0 0 1.562h12.5a.781.781 0 0 0 0-1.562zm0 3.906h-4.688a.781.781 0 0 0 0 1.563H37.5a.781.781 0 0 0 0-1.563zm-20.312 1.563h12.5a.781.781 0 0 0 0-1.563h-12.5a.781.781 0 0 0 0 1.563zM37.5 7.813H17.187a.781.781 0 0 0 0 1.562H37.5a.781.781 0 0 0 0-1.563zm0 11.718H17.187a.781.781 0 0 0 0 1.563H37.5a.781.781 0 0 0 0-1.563z"/><path d="M37.5 3.125H17.187a5.475 5.475 0 0 0-5.468 5.469v11.719c0 2.75 2.04 5.032 4.687 5.413v2.857a1.558 1.558 0 0 0 1.564 1.563 1.56 1.56 0 0 0 1.104-.459l3.906-3.906H37.5a5.475 5.475 0 0 0 5.469-5.468V8.592A5.475 5.475 0 0 0 37.5 3.126zm3.906 17.188a3.91 3.91 0 0 1-3.906 3.906H22.656a.781.781 0 0 0-.552.229l-4.135 4.134V25a.781.781 0 0 0-.782-.781 3.91 3.91 0 0 1-3.906-3.907V8.595a3.91 3.91 0 0 1 3.906-3.906H37.5a3.91 3.91 0 0 1 3.906 3.906v11.719z"/></g></svg>