<svg width="43" height="34" viewBox="0 0 43 34" xmlns="http://www.w3.org/2000/svg"><title>pic</title><g fill="#0D0D0F" fill-rule="evenodd"><path d="M40.035 0c.632 0 1.18.231 1.642.693.462.463.693 1.01.693 1.643v26.86c0 .632-.23 1.18-.693 1.642-.462.462-1.01.693-1.642.693h-32.7c-.632 0-1.18-.23-1.642-.693-.462-.462-.693-1.01-.693-1.642V2.336c0-.633.231-1.18.693-1.643C6.156.231 6.703 0 7.336 0h32.699zm0 29.196v-2.154l-.055-.054c-.012-.012-.03-.019-.055-.019l-7.664-7.919-4.27 3.869a1.54 1.54 0 0 1-.857.31.868.868 0 0 1-.748-.347l-9.671-9.634-9.38 9.087v6.86h32.7zm0-5.475V2.336h-32.7V19.05l8.54-8.284a1.03 1.03 0 0 1 .402-.256 1.51 1.51 0 0 1 .474-.073c.146 0 .292.037.438.11.146.073.28.182.402.328l9.634 9.562 4.416-3.832a1.07 1.07 0 0 1 .785-.255c.28.024.529.133.748.328l6.86 7.043zM31.86 11.678c-.633 0-1.18-.225-1.642-.675a2.227 2.227 0 0 1-.694-1.66c0-.633.231-1.18.694-1.643.462-.462 1.01-.693 1.642-.693.633 0 1.18.231 1.642.693.462.463.694 1.01.694 1.643 0 .656-.232 1.21-.694 1.66-.462.45-1.01.675-1.642.675z" opacity=".1"/><path d="M35.035 2c.632 0 1.18.231 1.642.693.462.463.693 1.01.693 1.643v26.86c0 .632-.23 1.18-.693 1.642-.462.462-1.01.693-1.642.693h-32.7c-.632 0-1.18-.23-1.642-.693C.231 32.376 0 31.828 0 31.196V4.336c0-.633.231-1.18.693-1.643C1.156 2.231 1.703 2 2.336 2h32.699zm0 29.196v-2.154l-.055-.054c-.012-.012-.03-.019-.055-.019l-7.664-7.919-4.27 3.869a1.54 1.54 0 0 1-.857.31.868.868 0 0 1-.748-.347l-9.671-9.634-9.38 9.087v6.86h32.7zm0-5.475V4.336h-32.7V21.05l8.54-8.284a1.03 1.03 0 0 1 .402-.256 1.51 1.51 0 0 1 .474-.073c.146 0 .292.037.438.11.146.073.28.182.402.328l9.634 9.562 4.416-3.832a1.07 1.07 0 0 1 .785-.255c.28.024.529.133.748.328l6.86 7.043zM26.86 13.678c-.633 0-1.18-.225-1.642-.675a2.227 2.227 0 0 1-.694-1.66c0-.633.231-1.18.694-1.643.462-.462 1.01-.693 1.642-.693.633 0 1.18.231 1.642.693.462.463.694 1.01.694 1.643 0 .656-.232 1.21-.694 1.66-.462.45-1.01.675-1.642.675z" opacity=".7"/></g></svg>