<svg width="150" height="150" viewBox="0 0 150 150" xmlns="http://www.w3.org/2000/svg"><title>wink</title><path d="M75 150c41.421 0 75-33.579 75-75S116.421 0 75 0 0 33.579 0 75s33.579 75 75 75zm0-135.938c33.655 0 60.938 27.283 60.938 60.938S108.654 135.938 75 135.938 14.062 108.654 14.062 75 41.346 14.062 75 14.062zm4.503 90.092c20.544-4.058 36.49-13.409 42.254-25.868-3.172 24.603-23.66 43.589-48.464 43.589-17.468 0-32.792-9.416-41.44-23.577 10.314 8.066 28.497 9.64 47.65 5.856zM93.75 51.563c0 7.766 4.197 14.062 9.375 14.062s9.375-6.296 9.375-14.063c0-7.766-4.197-14.062-9.375-14.062s-9.375 6.296-9.375 14.063zm-42.188 2.856c-6.122 0-11.328 2.293-13.259 5.493-.518-.86-.803-4.713-.803-5.676 0-4.55 6.296-8.24 14.063-8.24 7.766 0 14.062 3.69 14.062 8.24 0 .963-.285 4.817-.803 5.676-1.931-3.2-7.137-5.493-13.26-5.493z" fill="#E91616"/></svg>