<?xml version="1.0" encoding="UTF-8"?>
<svg width="119px" height="25px" viewBox="0 0 119 25" version="1.1" xmlns="http://www.w3.org/2000/svg" xmlns:xlink="http://www.w3.org/1999/xlink">
    <!-- Generator: Sketch 50.2 (55047) - http://www.bohemiancoding.com/sketch -->
    <title>FB</title>
    <desc>Created with Sketch.</desc>
    <defs></defs>
    <g id="front" stroke="none" stroke-width="1" fill="none" fill-rule="evenodd">
        <g id="login" transform="translate(-1102.000000, -436.000000)" fill="#FFFFFF">
            <g id="FB" transform="translate(1102.000000, 436.000000)">
                <path d="M55.875,1.3125 C57.5625,1.0625 59.1875,0.75 60.875,0.5 C60.875,3.125 60.875,5.6875 60.875,8.25 C61.5625,8.125 62.1875,7.9375 62.875,7.8125 C64.5,7.625 66.125,7.625 67.6875,8.125 C69.1875,8.625 70,9.6875 70.25,11.1875 C70.375,12 70.4375,12.875 70.4375,13.75 C70.4375,15.4375 70.4375,17.125 70.375,18.75 C70.3125,20.375 69.8125,21.8125 68.5,22.875 C67.625,23.5625 66.5625,23.9375 65.4375,24.0625 C63.25,24.4375 61.0625,24.375 58.875,24.0625 C58,23.9375 57.0625,23.8125 56.1875,23.6875 C55.9375,23.6875 55.875,23.5625 55.875,23.3125 C55.875,23.1875 55.875,23 55.875,22.875 C55.875,15.8125 55.875,8.8125 55.875,1.75 C55.8125,1.6875 55.875,1.5 55.875,1.3125 Z M60.875,20.125 C61.875,20.25 62.8125,20.3125 63.75,20.125 C64.75,19.9375 65.25,19.375 65.3125,18.375 C65.375,16.8125 65.375,15.25 65.375,13.6875 C65.375,12.625 64.875,12.1875 63.8125,12 C62.8125,11.8125 61.9375,12.125 61.0625,12.5625 C61,12.625 60.875,12.8125 60.875,12.875 C60.875,14.25 60.875,15.6875 60.875,17.0625 C60.875,18.0625 60.875,19.0625 60.875,20.125 Z" id="Shape"></path>
                <path d="M118.5625,24.125 C118.1875,24.125 117.9375,24.125 117.625,24.125 C116.25,24.125 114.875,24.125 113.5,24.125 C113.1875,24.125 113.0625,24 112.875,23.75 C111.5,21.5 110.1875,19.1875 108.8125,16.9375 C108.75,16.875 108.75,16.8125 108.625,16.6875 C108.625,19.1875 108.625,21.625 108.625,24.0625 C108.4375,24.0625 108.3125,24.0625 108.1875,24.0625 C106.75,24.0625 105.375,24.0625 103.9375,24.0625 C103.625,24.0625 103.5,24 103.5,23.625 C103.5,22.0625 103.5,20.4375 103.5,18.875 C103.5,13.1875 103.5,7.4375 103.5,1.75 C103.5,1.25 103.5,1.25 104,1.1875 C105.375,0.9375 106.75,0.75 108.125,0.5 C108.25,0.5 108.375,0.5 108.5,0.4375 C108.5,5.25 108.5,10 108.5,14.8125 C108.5,14.8125 108.5625,14.8125 108.5625,14.8125 C108.6875,14.625 108.8125,14.4375 108.9375,14.25 C110.1875,12.25 111.5,10.25 112.75,8.1875 C112.9375,7.9375 113.0625,7.8125 113.375,7.8125 C114.875,7.8125 116.375,7.8125 117.8125,7.8125 C118,7.8125 118.125,7.8125 118.375,7.8125 C118.3125,8 118.25,8.0625 118.1875,8.1875 C116.6875,10.5625 115.1875,12.9375 113.625,15.375 C113.4375,15.625 113.4375,15.8125 113.625,16.125 C115.1875,18.6875 116.6875,21.25 118.25,23.8125 C118.4375,23.9375 118.5,24 118.5625,24.125 Z" id="Shape"></path>
                <path d="M53.8125,19.6875 C53.8125,19.8125 53.8125,19.9375 53.8125,20 C53.8125,21.125 53.8125,22.25 53.8125,23.4375 C53.8125,23.6875 53.75,23.75 53.5,23.8125 C51.25,24.3125 48.9375,24.4375 46.625,24.375 C45.5625,24.3125 44.5,24.125 43.5,23.625 C41.6875,22.75 40.625,21.3125 40.3125,19.375 C40.1875,18.6875 40.1875,17.9375 40.1875,17.25 C40.1875,16 40.125,14.75 40.1875,13.5 C40.25,12.125 40.625,10.8125 41.5625,9.75 C42.375,8.8125 43.4375,8.3125 44.625,8.0625 C46.625,7.625 48.6875,7.625 50.625,8.3125 C52.6875,9 53.875,10.4375 54.125,12.5625 C54.3125,14.1875 54.3125,15.875 54.375,17.625 C54.125,17.625 54,17.625 53.875,17.625 C51.125,17.625 48.375,17.625 45.625,17.625 C45.3125,17.625 45.1875,17.75 45.25,18 C45.25,18.25 45.25,18.5 45.3125,18.75 C45.5,19.625 45.9375,20.0625 46.8125,20.125 C47.875,20.1875 48.875,20.25 49.9375,20.1875 C51.1875,20.125 52.4375,19.875 53.6875,19.75 C53.625,19.625 53.75,19.6875 53.8125,19.6875 Z M47.1875,14.125 C47.5,14.125 47.875,14.125 48.1875,14.125 C49.25,14.125 49.25,14.125 49.1875,13.0625 C49.125,12.3125 48.6875,11.8125 48,11.6875 C47.5,11.625 47,11.625 46.5,11.6875 C45.875,11.75 45.4375,12.1875 45.3125,12.8125 C45.25,13.1875 45.25,13.5625 45.1875,13.9375 C45.1875,14.1875 45.25,14.25 45.5,14.25 C46.0625,14.125 46.625,14.125 47.1875,14.125 Z" id="Shape"></path>
                <path d="M102.3125,16 C102.25,17.125 102.25,18.25 102.125,19.3125 C101.75,21.875 100.25,23.4375 97.8125,24 C95.75,24.5 93.6875,24.5 91.6875,23.8125 C89.5,23.125 88.25,21.5625 87.875,19.375 C87.75,18.5625 87.75,17.6875 87.75,16.875 C87.75,15.625 87.6875,14.4375 87.8125,13.1875 C88.0625,10.3125 89.6875,8.5 92.5,7.9375 C94.5,7.5 96.4375,7.5625 98.375,8.1875 C100.5,8.875 101.75,10.375 102.125,12.5625 C102.25,13.75 102.1875,14.875 102.3125,16 Z M97.1875,16.0625 C97.1875,16.0625 97.1875,16.0625 97.1875,16.0625 C97.1875,15.25 97.1875,14.5 97.1875,13.6875 C97.1875,12.9375 96.6875,12.3125 95.9375,12.0625 C95.3125,11.875 94.75,11.875 94.125,12 C93.3125,12.1875 92.75,12.8125 92.75,13.5625 C92.75,15.1875 92.75,16.8125 92.75,18.4375 C92.75,19.1875 93.25,19.8125 94,20 C94.4375,20.125 94.9375,20.125 95.375,20.125 C96.5,20.0625 97.125,19.3125 97.1875,18.1875 C97.1875,17.5 97.1875,16.75 97.1875,16.0625 Z" id="Shape"></path>
                <path d="M86.375,16.1875 C86.3125,17.25 86.3125,18.4375 86.0625,19.625 C85.625,22.0625 84.0625,23.5 81.6875,24.0625 C79.75,24.5 77.8125,24.5 75.875,23.9375 C73.625,23.3125 72.25,21.8125 71.8125,19.5 C71.6875,18.9375 71.6875,18.375 71.6875,17.8125 C71.6875,16.5 71.625,15.125 71.6875,13.8125 C71.75,12.125 72.25,10.5625 73.625,9.375 C74.5625,8.5625 75.625,8.1875 76.8125,8 C78.75,7.6875 80.6875,7.6875 82.5625,8.375 C84.625,9.125 85.8125,10.625 86.125,12.8125 C86.3125,13.8125 86.3125,14.9375 86.375,16.1875 Z M76.8125,16 C76.8125,16 76.8125,16 76.8125,16 C76.8125,16.75 76.8125,17.4375 76.8125,18.1875 C76.8125,18.3125 76.8125,18.375 76.8125,18.5 C76.875,19.25 77.25,19.8125 78,20 C78.5,20.125 79,20.1875 79.5,20.125 C80.5625,20.0625 81.25,19.3125 81.25,18.3125 C81.25,16.75 81.25,15.25 81.25,13.6875 C81.25,12.875 80.75,12.25 80,12 C79.375,11.8125 78.75,11.8125 78.125,12 C77.375,12.1875 76.875,12.75 76.875,13.5625 C76.8125,14.4375 76.8125,15.25 76.8125,16 Z" id="Shape"></path>
                <path d="M20.25,23.3125 C19.3125,23.625 18.375,23.9375 17.4375,24.1875 C16.3125,24.4375 15.1875,24.5 14.0625,24.1875 C12.3125,23.6875 11.3125,22.5 11,20.75 C10.8125,19.875 10.8125,19 11,18.125 C11.3125,16.5 12.375,15.5625 13.9375,15.25 C14.6875,15.125 15.4375,15.0625 16.1875,15 C17.1875,14.9375 18.1875,15 19.1875,15 C19.5,15 19.5625,14.875 19.5625,14.625 C19.5625,14.375 19.5625,14.125 19.5625,13.875 C19.5625,12.5625 18.9375,12.3125 17.9375,12.25 C16.3125,12.1875 14.6875,12.1875 13.0625,12.1875 C12.9375,12.1875 12.75,12.1875 12.5625,12.1875 C12.5625,11.8125 12.625,11.4375 12.625,11.0625 C12.6875,10.125 12.8125,9.1875 12.9375,8.1875 C12.9375,8.125 13.125,7.9375 13.1875,7.9375 C15.3125,7.9375 17.375,7.9375 19.5,8 C20.1875,8 20.875,8.1875 21.5,8.375 C23.3125,8.875 24.1875,10.1875 24.4375,11.9375 C24.5625,12.6875 24.5625,13.4375 24.5625,14.1875 C24.5625,17.375 24.5625,20.5625 24.5625,23.6875 C24.5625,24 24.5,24.125 24.125,24.125 C23,24.125 21.875,24.125 20.75,24.125 C20.4375,24.125 20.3125,24 20.25,23.6875 C20.3125,23.625 20.3125,23.4375 20.25,23.3125 Z M18.125,18.375 C17.75,18.375 17.375,18.375 17,18.375 C16.25,18.375 15.9375,18.75 16,19.4375 C16,20.25 16.375,20.625 17.25,20.6875 C18.0625,20.75 18.8125,20.5 19.5,20.125 C19.625,20.0625 19.6875,19.875 19.6875,19.8125 C19.6875,19.4375 19.6875,19.0625 19.6875,18.6875 C19.6875,18.4375 19.5625,18.375 19.375,18.375 C18.875,18.375 18.5,18.375 18.125,18.375 Z" id="Shape"></path>
                <path d="M11.4375,0.0625 C11.4375,1.0625 11.4375,1.9375 11.4375,2.875 C11.4375,3.25 11.4375,3.625 11.4375,4 C11.4375,4.25 11.375,4.3125 11.125,4.3125 C10.4375,4.3125 9.8125,4.3125 9.125,4.3125 C8.875,4.3125 8.6875,4.375 8.4375,4.375 C8,4.5 7.75,4.75 7.75,5.1875 C7.75,6.0625 7.75,6.9375 7.75,7.875 C8.9375,7.875 10.1875,7.875 11.4375,7.875 C11.375,8.5625 11.3125,9.1875 11.25,9.8125 C11.1875,10.4375 11.125,11.0625 11.0625,11.6875 C11.0625,12 10.9375,12.125 10.625,12.125 C9.6875,12.125 8.6875,12.125 7.6875,12.125 C7.6875,16.125 7.6875,20.125 7.6875,24.125 C6,24.125 4.375,24.125 2.6875,24.125 C2.6875,23.9375 2.625,23.8125 2.625,23.625 C2.625,19.9375 2.625,16.25 2.625,12.5625 C2.625,12.25 2.5625,12.125 2.1875,12.125 C1.5,12.1875 0.875,12.125 0.125,12.125 C0.125,11.9375 0.125,11.8125 0.125,11.6875 C0.125,10.625 0.125,9.5 0.125,8.4375 C0.125,7.8125 0.0625,7.875 0.625,7.875 C1.1875,7.875 1.6875,7.875 2.25,7.875 C2.5,7.875 2.5625,7.8125 2.5625,7.5625 C2.5625,6.5625 2.5625,5.5625 2.625,4.5625 C2.6875,3.3125 3.0625,2.1875 4,1.25 C4.6875,0.5625 5.5625,0.1875 6.5,0.125 C8.125,0.0625 9.75,0.0625 11.4375,0.0625 Z" id="Shape"></path>
                <path d="M38.75,12.4375 C37.9375,12.3125 37.1875,12.1875 36.4375,12.0625 C35.1875,11.875 33.875,11.75 32.625,12 C31.8125,12.1875 31.375,12.6875 31.3125,13.5 C31.25,15.1875 31.3125,16.8125 31.3125,18.5 C31.3125,19.25 31.75,19.8125 32.5,19.9375 C33.4375,20.0625 34.375,20.125 35.25,20.0625 C36.3125,20 37.3125,19.75 38.375,19.625 C38.4375,19.625 38.5,19.625 38.625,19.625 C38.625,19.6875 38.6875,19.8125 38.6875,19.875 C38.6875,21.0625 38.6875,22.1875 38.6875,23.375 C38.6875,23.625 38.625,23.6875 38.375,23.75 C36.5,24.1875 34.625,24.4375 32.6875,24.3125 C31,24.1875 29.375,23.8125 28.0625,22.625 C26.9375,21.625 26.3125,20.375 26.25,18.9375 C26.125,17.1875 26.0625,15.375 26.1875,13.625 C26.3125,11.625 27.125,9.875 28.9375,8.8125 C29.9375,8.1875 31.0625,7.9375 32.1875,7.8125 C34.25,7.5625 36.3125,7.875 38.3125,8.3125 C38.4375,8.3125 38.625,8.5 38.625,8.5625 C38.75,9.8125 38.75,11.125 38.75,12.4375 Z" id="Shape"></path>
            </g>
        </g>
    </g>
</svg>