<?xml version="1.0" encoding="UTF-8"?>
<svg width="134px" height="50px" viewBox="0 0 134 50" version="1.1" xmlns="http://www.w3.org/2000/svg" xmlns:xlink="http://www.w3.org/1999/xlink">
    <!-- Generator: Sketch 50.2 (55047) - http://www.bohemiancoding.com/sketch -->
    <title>Glory story</title>
    <desc>Created with Sketch.</desc>
    <defs></defs>
    <g id="Page-1" stroke="none" stroke-width="1" fill="none" fill-rule="evenodd">
        <g id="following" transform="translate(-310.000000, -6.000000)" fill="#FFFFFF">
            <path d="M336.016,7.56 C337.984,8.184 339.904,9.528 339.904,12.12 C339.904,13.08 339.424,15.48 337.936,15.48 C337.6,15.48 337.072,15.192 337.072,14.76 C337.072,14.28 337.552,13.464 337.552,12.648 C337.552,10.392 335.728,9.48 333.232,9.48 C323.968,9.48 313.696,23.016 313.696,33.288 C313.696,36.504 315.904,37.752 318.352,37.752 C322.96,37.752 330.352,32.232 332.848,28.248 C330.16,28.92 327.232,29.496 324.496,29.496 C323.68,29.496 322.576,29.208 322.576,28.296 C322.576,27.672 323.296,27.24 323.92,27.192 C328.096,26.904 332.32,26.232 336.112,24.648 C336.448,24.504 336.832,24.36 337.264,24.36 C338.032,24.36 338.704,24.936 338.704,25.656 C338.704,26.424 337.936,26.808 337.264,26.952 C335.296,28.776 332.752,36.36 332.752,39.768 C332.752,39.912 332.8,40.056 332.8,40.2 C332.8,41.496 331.936,42.6 330.88,42.6 C330.112,42.6 329.344,42.072 329.344,41.352 C329.344,39.288 330.16,36.888 330.736,34.728 C327.424,37.272 322.624,40.344 318.16,40.344 C313.84,40.344 310.72,37.416 310.72,33.288 C310.72,25.368 319.6,7.176 333.136,7.176 C334.096,7.176 335.056,7.272 336.016,7.56 Z M349.408,6.696 C349.888,6.696 350.464,7.608 350.224,8.184 C348.208,13.512 341.536,32.76 339.04,46.152 C338.848,47.112 338.848,48.408 337.504,48.408 C336.832,48.408 336.064,48.072 336.064,47.304 C336.064,46.392 336.4,45.336 336.592,44.328 C338.608,34.824 342.064,23.832 347.2,10.296 C347.68,9.048 348.256,6.696 349.408,6.696 Z M360.448,30.552 C360.832,30.312 361.072,31.272 360.784,31.56 C359.968,32.376 356.512,34.392 353.584,34.392 C353.056,34.392 352.48,34.296 352,34.104 C351.376,36.12 349.6,39.432 347.248,39.432 C345.664,39.432 344.464,38.472 344.608,36.744 C344.848,34.104 347.632,29.736 350.704,29.736 C353.824,29.736 351.28,32.616 353.488,32.616 C356.176,32.616 359.584,31.08 360.448,30.552 Z M349.36,35.064 C349.648,34.44 351.04,31.656 350.224,31.32 C348.736,30.696 345.616,37.608 347.2,37.608 C348.256,37.608 348.976,35.88 349.36,35.064 Z M361.984,26.856 C361.6,27.672 361.504,27.864 361.456,28.728 C361.456,29.256 361.504,30.312 362.224,30.312 C363.136,30.312 363.952,29.352 364.768,29.352 C365.584,29.352 365.92,29.784 365.824,30.312 C365.776,30.456 363.136,36.84 365.632,36.84 C367.168,36.84 370.384,35.16 371.632,33.72 C371.824,33.528 372.688,33.96 372.16,34.824 C370.864,36.984 367.744,38.568 365.536,38.568 C361.504,38.568 362.416,34.344 363.376,31.896 C363.088,31.944 362.512,31.992 362.224,31.992 C360.496,31.992 359.392,30.648 359.392,29.016 C359.392,28.488 359.68,26.184 361.072,26.184 C361.552,26.184 361.984,26.424 361.984,26.856 Z M381.232,41.256 C382,41.88 381.28,43.608 380.464,43.128 C379.792,42.744 378.976,42.36 378.016,42.12 C377.632,43.56 376.432,46.92 375.568,49.032 C374.656,51.24 372.448,55.272 369.52,55.272 C367.36,55.272 366.16,53.976 366.16,51.816 C366.16,46.968 370.96,40.584 376.048,40.056 L376.96,36.792 C375.952,38.04 374.752,39.24 373.024,39.24 C371.536,39.24 370.336,38.568 370.576,36.36 C370.72,34.968 372.832,28.44 374.752,28.44 C375.856,28.44 375.472,29.16 375.136,29.736 C374.704,30.6 371.728,37.416 373.12,37.416 C375.856,37.416 378.544,28.008 380.128,28.008 C380.656,28.008 381.232,28.344 381.232,28.92 C381.184,29.832 380.8,30.888 378.496,40.104 C379.504,40.248 380.464,40.584 381.232,41.256 Z M369.424,53.112 C371.92,53.112 375.088,43.416 375.616,42.12 C370.144,43.08 366.64,53.112 369.424,53.112 Z M400.768,32.184 C401.2,32.184 402.4,33.192 401.92,33.384 C400.576,33.864 398.992,34.488 397.792,35.352 C398.08,36.072 398.272,36.888 398.272,37.608 C398.272,39.576 396.112,43.848 393.04,44.088 C391.36,44.088 390.64,42.888 390.64,41.352 C390.688,38.616 393.664,35.736 394.96,34.68 C394.432,34.056 393.28,32.136 393.28,30.552 C393.28,29.016 394.576,26.808 396.496,26.808 C397.12,26.808 398.32,27.24 398.32,28.152 C398.32,28.776 398.176,30.504 397.264,30.504 C396.928,30.504 396.352,30.216 396.352,29.928 C396.352,29.688 396.832,28.536 396.496,28.536 C396.016,28.536 395.392,29.832 395.392,30.312 C395.392,31.416 396.16,32.664 396.832,33.624 C397.84,32.904 399.424,32.184 400.768,32.184 Z M393.088,41.976 C394.432,41.976 396.4,38.616 395.776,36.456 C394.384,37.368 391.504,41.976 393.088,41.976 Z M416.848,20.952 C418.768,20.952 419.536,22.776 416.848,22.776 C416.176,22.776 410.176,22.872 408.208,22.824 C407.104,27.048 405.616,31.464 404.416,35.688 L402.16,43.752 C402.016,44.088 402.16,43.992 402.352,44.232 C402.448,44.424 402.448,44.616 402.4,44.76 C402.064,45.576 401.584,46.152 400.72,46.296 C400.24,46.344 399.76,46.248 399.472,45.912 C399.136,45.528 399.28,45.048 399.376,44.616 C399.616,43.656 399.904,42.696 400.192,41.736 L402.064,35.4 C403.312,31.176 404.608,26.952 405.904,22.776 C403.936,22.776 401.872,22.68 399.856,22.68 C399.376,22.68 398.896,22.728 398.512,22.392 C398.176,22.056 398.176,21.528 398.512,21.192 C398.896,20.904 399.376,20.904 399.856,20.904 C406.096,20.904 406.48,20.952 406.48,20.952 L408.064,16.344 C408.352,15.528 408.784,14.232 409.984,14.904 C410.464,15.192 410.464,15.576 410.32,16.056 L408.832,20.952 C411.376,21 415.744,20.952 416.848,20.952 Z M422.896,30.552 C423.28,30.312 423.52,31.272 423.232,31.56 C422.416,32.376 418.96,34.392 416.032,34.392 C415.504,34.392 414.928,34.296 414.448,34.104 C413.824,36.12 412.048,39.432 409.696,39.432 C408.112,39.432 406.912,38.472 407.056,36.744 C407.296,34.104 410.08,29.736 413.152,29.736 C416.272,29.736 413.728,32.616 415.936,32.616 C418.624,32.616 422.032,31.08 422.896,30.552 Z M411.808,35.064 C412.096,34.44 413.488,31.656 412.672,31.32 C411.184,30.696 408.064,37.608 409.648,37.608 C410.704,37.608 411.424,35.88 411.808,35.064 Z M424.432,26.856 C424.048,27.672 423.952,27.864 423.904,28.728 C423.904,29.256 423.952,30.312 424.672,30.312 C425.584,30.312 426.4,29.352 427.216,29.352 C428.032,29.352 428.368,29.784 428.272,30.312 C428.224,30.456 425.584,36.84 428.08,36.84 C429.616,36.84 432.832,35.16 434.08,33.72 C434.272,33.528 435.136,33.96 434.608,34.824 C433.312,36.984 430.192,38.568 427.984,38.568 C423.952,38.568 424.864,34.344 425.824,31.896 C425.536,31.944 424.96,31.992 424.672,31.992 C422.944,31.992 421.84,30.648 421.84,29.016 C421.84,28.488 422.128,26.184 423.52,26.184 C424,26.184 424.432,26.424 424.432,26.856 Z M443.68,41.256 C444.448,41.88 443.728,43.608 442.912,43.128 C442.24,42.744 441.424,42.36 440.464,42.12 C440.08,43.56 438.88,46.92 438.016,49.032 C437.104,51.24 434.896,55.272 431.968,55.272 C429.808,55.272 428.608,53.976 428.608,51.816 C428.608,46.968 433.408,40.584 438.496,40.056 L439.408,36.792 C438.4,38.04 437.2,39.24 435.472,39.24 C433.984,39.24 432.784,38.568 433.024,36.36 C433.168,34.968 435.28,28.44 437.2,28.44 C438.304,28.44 437.92,29.16 437.584,29.736 C437.152,30.6 434.176,37.416 435.568,37.416 C438.304,37.416 440.992,28.008 442.576,28.008 C443.104,28.008 443.68,28.344 443.68,28.92 C443.632,29.832 443.248,30.888 440.944,40.104 C441.952,40.248 442.912,40.584 443.68,41.256 Z M431.872,53.112 C434.368,53.112 437.536,43.416 438.064,42.12 C432.592,43.08 429.088,53.112 431.872,53.112 Z" id="Glory-story"></path>
        </g>
    </g>
</svg>