<svg width="10" height="16" viewBox="0 0 10 16" fill="none" xmlns="http://www.w3.org/2000/svg"><path d="M1.217 8.522h1.754v7.22c0 .142.115.258.258.258h2.974a.258.258 0 0 0 .258-.258V8.556h2.016a.258.258 0 0 0 .256-.229l.307-2.658a.258.258 0 0 0-.257-.288H6.461V3.715c0-.502.27-.757.804-.757h1.518a.258.258 0 0 0 .258-.258V.26a.258.258 0 0 0-.258-.258H6.691L6.595 0C6.232 0 4.97.071 3.973.988c-1.105 1.017-.951 2.234-.915 2.445V5.38h-1.84a.258.258 0 0 0-.259.258v2.625c0 .142.116.258.258.258z" fill="#385C8E"/></svg>