<svg width="60" height="22" viewBox="0 0 60 22" fill="none" xmlns="http://www.w3.org/2000/svg"><path d="M57.84 5.263a6.28 6.28 0 0 0-3.54-4.045C52.501.41 50.202 0 47.47 0c-3.746 0-7.738.759-8.675 1.176l-.133.054a7.21 7.21 0 0 0-3.977 3.646c-3.833-1.518-7.636-.497-9.134.023a7.21 7.21 0 0 0-3.996-3.673l-.148-.053C20.492.759 16.497 0 12.747 0c-2.736 0-5.04.41-6.83 1.218a6.307 6.307 0 0 0-3.553 4.053C1.518 5.225 0 5.211 0 5.692c0 .482 1.226.65 2.099.76v.056c-.22 1.8-.03 3.625.557 5.34v.163l.061.258c2.216 5.487 6.31 8.75 11.187 8.75H14c.091 0 9.055-.216 11.616-8.894.555-1.724.72-3.549.482-5.344 1.203-.425 4.66-1.43 8.022-.053a12.268 12.268 0 0 0 .478 5.415c2.562 8.68 11.521 8.88 11.613 8.88h.087c4.876 0 8.956-3.263 11.195-8.75l.06-.202v-.19c.583-1.718.77-3.545.55-5.346V6.44C58.95 6.31 60 6.06 60 5.68c0-.379-1.29-.455-2.16-.417zM24.447 11.46c-2.121 7.112-9.183 7.59-10.44 7.59-1.255 0-6.99.095-10.158-7.59 0 0-2.47-6.735 2.47-8.925 4.941-2.19 13.757-.41 14.675 0 .918.41 5.57 1.837 3.442 8.925h.011zm31.937 0c-3.168 7.677-8.902 7.59-10.158 7.59-1.256 0-8.319-.47-10.44-7.59-2.121-7.119 2.543-8.519 3.442-8.925.9-.406 9.726-2.193 14.66 0 4.933 2.193 2.485 8.925 2.485 8.925h.011z" fill="#000"/></svg>