<svg width="32" height="32" viewBox="0 0 32 32" fill="none" xmlns="http://www.w3.org/2000/svg"><path d="M16.023 0C7.173 0 0 7.156 0 15.985c0 6.77 4.224 12.552 10.186 14.88-.142-1.266-.267-3.203.052-4.583.293-1.25 1.88-7.943 1.88-7.943s-.48-.964-.48-2.375c0-2.22 1.294-3.88 2.897-3.88 1.369 0 2.031 1.02 2.031 2.25 0 1.37-.872 3.422-1.326 5.323-.38 1.589.8 2.885 2.37 2.885 2.847 0 5.04-2.995 5.04-7.319 0-3.813-2.758-6.49-6.694-6.49-4.558 0-7.232 3.417-7.232 6.932 0 1.376.528 2.855 1.191 3.652.13.16.147.302.11.464-.12.5-.393 1.599-.445 1.818-.073.297-.23.359-.537.219-1.995-.922-3.253-3.84-3.253-6.194 0-5.036 3.676-9.672 10.589-9.672 5.555 0 9.878 3.958 9.878 9.23 0 5.516-3.483 9.953-8.327 9.953-1.624 0-3.149-.84-3.686-1.84l-1.003 3.798c-.36 1.39-1.342 3.135-2.005 4.193 1.504.458 3.086.714 4.746.714C24.817 32 32 24.849 32 16.015 32 7.188 24.816.037 15.982.037L16.023 0z" fill="#fff"/></svg>