<svg width="60" height="23" viewBox="0 0 60 23" fill="none" xmlns="http://www.w3.org/2000/svg"><path d="M60 9.989c0-.714-1.534-.683-2.431-.603C56.749 4.08 51.932 0 46.154 0c-5.195 0-9.586 3.298-11.043 7.818a11.166 11.166 0 0 0-10.138 0C23.528 3.301 19.126 0 13.926 0 8.148 0 3.344 4.084 2.508 9.394 1.61 9.306 0 9.252 0 9.99c0 .736 1.469.8 2.385.793v.265c0 6.089 5.18 11.043 11.545 11.043s11.55-4.954 11.55-11.043a10.472 10.472 0 0 0-.208-2.067 9.586 9.586 0 0 1 2.742-1.005 10.265 10.265 0 0 1 6.802.99 10.35 10.35 0 0 0-.21 2.082c0 6.089 5.18 11.043 11.548 11.043 6.369 0 11.545-4.954 11.545-11.043v-.265c.913 0 2.301-.111 2.301-.793zm-46.074 10.95c-5.732 0-10.395-4.451-10.395-9.892S8.194 1.15 13.926 1.15c5.733 0 10.395 4.437 10.395 9.893s-4.662 9.896-10.395 9.896zm32.228 0c-5.751 0-10.395-4.44-10.395-9.892 0-5.453 4.663-9.897 10.395-9.897 5.732 0 10.395 4.437 10.395 9.893s-4.663 9.896-10.395 9.896z" fill="#000"/></svg>