<svg width="28" height="28" viewBox="0 0 28 28" fill="none" xmlns="http://www.w3.org/2000/svg"><path d="M0 9.968v12.01a3.323 3.323 0 0 0 3.323 3.323h21.354A3.323 3.323 0 0 0 28 21.978V9.21H0v.759zm21.11 1.735c0-.178.145-.322.323-.322h2.905c.178 0 .323.144.323.322v2.337a.323.323 0 0 1-.323.323h-2.905a.323.323 0 0 1-.322-.323v-2.337zm0 4.248c0-.178.145-.323.323-.323h2.905c.178 0 .323.145.323.323v2.337a.323.323 0 0 1-.323.323h-2.905a.323.323 0 0 1-.322-.323V15.95zm0 4.248c0-.178.145-.323.323-.323h2.905c.178 0 .323.145.323.323v2.336a.323.323 0 0 1-.323.323h-2.905a.323.323 0 0 1-.322-.323V20.2zm-5.923-8.496c0-.178.144-.322.323-.322h2.904c.179 0 .323.144.323.322v2.337a.323.323 0 0 1-.323.323H15.51a.323.323 0 0 1-.323-.323v-2.337zm0 4.248c0-.178.144-.323.323-.323h2.904c.179 0 .323.145.323.323v2.337a.323.323 0 0 1-.323.323H15.51a.323.323 0 0 1-.323-.323V15.95zm0 4.248c0-.178.144-.323.323-.323h2.904c.179 0 .323.145.323.323v2.336a.323.323 0 0 1-.323.323H15.51a.323.323 0 0 1-.323-.323V20.2zm-5.924-8.496c0-.178.144-.322.323-.322h2.904c.179 0 .323.144.323.322v2.337a.323.323 0 0 1-.323.323H9.586a.323.323 0 0 1-.323-.323v-2.337zm0 4.248c0-.178.144-.323.323-.323h2.904c.179 0 .323.145.323.323v2.337a.323.323 0 0 1-.323.323H9.586a.323.323 0 0 1-.323-.323V15.95zm0 4.248c0-.178.144-.323.323-.323h2.904c.179 0 .323.145.323.323v2.336a.323.323 0 0 1-.323.323H9.586a.323.323 0 0 1-.323-.323V20.2zm-5.924-8.496c0-.178.145-.322.323-.322h2.904c.179 0 .323.144.323.322v2.337a.323.323 0 0 1-.323.323H3.662a.323.323 0 0 1-.323-.323v-2.337zm0 4.248c0-.178.145-.323.323-.323h2.904c.179 0 .323.145.323.323v2.337a.323.323 0 0 1-.323.323H3.662a.323.323 0 0 1-.323-.323V15.95zm0 4.248c0-.178.145-.323.323-.323h2.904c.179 0 .323.145.323.323v2.336a.323.323 0 0 1-.323.323H3.662a.323.323 0 0 1-.323-.323V20.2zM27.983 5.682A3.324 3.324 0 0 0 24.677 2.7H23.54v1.7a1.164 1.164 0 1 1-1.143 0V2.7H17.56v1.7a1.164 1.164 0 1 1-1.143 0V2.7h-4.836v1.7a1.164 1.164 0 1 1-1.143 0V2.7H5.602v1.7a1.164 1.164 0 1 1-1.143 0V2.7H3.323A3.324 3.324 0 0 0 0 6.022v2.044h28V6.022a3.47 3.47 0 0 0-.017-.34z" fill="#FFCA43"/></svg>