<svg width="28" height="32" viewBox="0 0 28 32" fill="none" xmlns="http://www.w3.org/2000/svg"><path d="M3.773 20.257l.08.218c-.01-.024-.04-.1-.08-.218zm3.243-4.968c.145-1.18.635-1.838 1.554-2.515 1.32-.914 2.964-.398 2.964-.398V9.302c.4-.01.8.014 1.194.07v3.956s-1.644-.516-2.963.398c-.92.677-1.41 1.335-1.554 2.515-.005.64.115 1.477.674 2.197a5.704 5.704 0 0 1-.425-.241c-1.224-.815-1.449-2.042-1.444-2.908zM19.53 3.619c-.904-.981-1.249-1.976-1.374-2.672h1.14s-.225 1.828 1.429 3.623l.025.024a6.268 6.268 0 0 1-1.22-.976zm5.492 2.784v3.875s-1.454-.057-2.533-.327c-1.505-.38-2.469-.962-2.469-.962s-.67-.417-.72-.445v8.005c0 .445-.125 1.558-.5 2.486-.489 1.213-1.249 2.013-1.389 2.174 0 0-.924 1.08-2.548 1.805-1.464.653-2.754.64-3.138.653 0 0-2.224.086-4.228-1.198a8.305 8.305 0 0 1-1.21-.961l.01.009c2.005 1.288 4.228 1.198 4.228 1.198.385-.014 1.674 0 3.139-.653 1.624-.725 2.548-1.805 2.548-1.805.14-.16.9-.961 1.39-2.174.374-.928.5-2.041.5-2.486v-8c.054.028.719.445.719.445s.964.582 2.468.961c1.08.27 2.534.327 2.534.327V6.294c.5.11.925.138 1.2.11z" fill="#fff"/><path d="M23.83 6.29v3.037s-1.45-.056-2.528-.326c-1.5-.38-2.462-.962-2.462-.962s-.668-.417-.718-.445V15.6c0 .445-.125 1.559-.498 2.487-.489 1.213-1.247 2.014-1.386 2.175 0 0-.922 1.08-2.543 1.805-1.46.654-2.746.64-3.13.654 0 0-2.218.085-4.217-1.199l-.01-.01a8.174 8.174 0 0 1-.593-.639c-.638-.772-1.027-1.682-1.127-1.942v-.005c-.16-.45-.489-1.54-.444-2.587.08-1.852.738-2.994.913-3.278a7.83 7.83 0 0 1 1.77-2.056A7.518 7.518 0 0 1 8.96 9.82a7.34 7.34 0 0 1 2.612-.52v3.074s-1.64-.517-2.956.398c-.917.677-1.406 1.336-1.55 2.515-.005.867.219 2.094 1.445 2.914.145.09.284.17.424.242.214.274.473.516.773.715 1.2.753 2.203.805 3.489.317.857-.327 1.5-1.06 1.8-1.88.189-.512.184-1.024.184-1.554V.947h2.99c.126.696.465 1.691 1.372 2.672.364.37.772.7 1.216.976.13.137.803.8 1.67 1.212.444.214.917.375 1.4.484zM3.409 18.051l.074.204a2.376 2.376 0 0 1-.074-.204z" fill="#fff"/><path d="M8.94 9.86a7.442 7.442 0 0 0-2.103 1.187 7.776 7.776 0 0 0-1.769 2.067c-.174.285-.832 1.426-.912 3.288-.045 1.055.29 2.143.444 2.595V19c.1.257.488 1.174 1.126 1.948a7.8 7.8 0 0 0 .593.642 8.249 8.249 0 0 1-1.79-1.597c-.632-.764-1.02-1.672-1.12-1.938v-.01c-.16-.451-.494-1.544-.444-2.599.08-1.858.738-3.003.912-3.288a7.774 7.774 0 0 1 1.769-2.067A7.51 7.51 0 0 1 7.75 8.904a7.69 7.69 0 0 1 1.485-.418 7.765 7.765 0 0 1 2.322-.033v.884a7.32 7.32 0 0 0-2.616.522z" fill="#fff"/><path d="M18.154.955h-2.99v15.138c0 .533 0 1.046-.184 1.559-.304.817-.947 1.558-1.8 1.886-1.285.494-2.292.438-3.488-.318a3.174 3.174 0 0 1-.772-.713c1.022.518 1.934.509 3.065.076.857-.328 1.5-1.069 1.799-1.886.189-.513.184-1.026.184-1.559V0H18.1c-.005 0-.05.375.055.955zm5.65 4.519v.84a6.566 6.566 0 0 1-1.4-.484c-.861-.409-1.534-1.078-1.669-1.216.155.095.31.18.474.261 1.056.499 2.088.651 2.596.599zm-5.536 24.173a1 1 0 0 0 .047.312c0 .009.005.014.005.023.155.493.615.828 1.136.828V32c-.587 0-1.005.018-1.643-.354a2.329 2.329 0 0 1-1.132-2.013c0-.832.455-1.67 1.235-2.074.564-.293.99-.293 1.545-.293v1.19a1.18 1.18 0 0 0-1.188 1.177l-.005.014zm2.471 0c0 .107-.015.21-.05.312 0 .009-.005.014-.005.023-.166.493-.66.828-1.218.828V32c.624 0 1.077.018 1.756-.354a2.295 2.295 0 0 0 1.218-2.013c0-.832-.488-1.67-1.324-2.074-.603-.293-1.061-.293-1.655-.293v1.19c.704 0 1.273.526 1.273 1.177v.014h.005z" fill="#fff"/><path d="M0 26.13h4.677l-.435 1.213H3.02v4.638H1.517v-4.638H0V26.13zm12.398 0v1.213h1.517v4.638h1.508v-4.638h1.222l.434-1.213h-4.681zm-6.703 1.377c.404 0 .729-.305.729-.686 0-.38-.325-.686-.73-.686-.403 0-.728.305-.728.686 0 .38.325.686.729.686zm-.729 4.47h1.477V27.99H4.966v3.986zm6.788-4.503h-1.727l-1.487 1.4V26.13H7.072l-.005 5.842H8.55v-1.523l.459-.395 1.437 1.918h1.582l-2.08-2.801 1.806-1.697zm14.165 1.701l1.806-1.7H26l-1.488 1.4V26.13h-1.467l-.01 5.847h1.482v-1.523l.464-.395 1.438 1.918H28l-2.081-2.802zm-3.799.433c0 1.32-1.152 2.392-2.575 2.392-1.422 0-2.575-1.072-2.575-2.392 0-1.32 1.153-2.392 2.575-2.392 1.423 0 2.575 1.071 2.575 2.392zm-1.312 0c0-.658-.564-1.19-1.263-1.19s-1.263.532-1.263 1.19c0 .658.564 1.189 1.263 1.189s1.263-.531 1.263-1.19z" fill="#fff"/></svg>