<?xml version="1.0" encoding="UTF-8"?>
<svg width="50px" height="50px" viewBox="0 0 50 50" version="1.1" xmlns="http://www.w3.org/2000/svg" xmlns:xlink="http://www.w3.org/1999/xlink">
    <!-- Generator: Sketch 52.6 (67491) - http://www.bohemiancoding.com/sketch -->
    <title>tick-inside-circle</title>
    <desc>Created with Sketch.</desc>
    <g id="Page-1" stroke="none" stroke-width="1" fill="none" fill-rule="evenodd">
        <g id="Landing_shop2" transform="translate(-738.000000, -6946.000000)" fill="#42B72A" fill-rule="nonzero">
            <g id="tick-inside-circle" transform="translate(738.000000, 6946.000000)">
                <path d="M14.75,20.25 L11.25,23.75 L22.5,35 L47.5,10 L44,6.5 L22.5,28 L14.75,20.25 Z M45,25 C45,36 36,45 25,45 C14,45 5,36 5,25 C5,14 14,5 25,5 C27,5 28.75,5.25 30.5,5.75 L34.500098,1.75 C31.5,0.75 28.25,0 25,0 C11.25,0 0,11.25 0,25 C0,38.75 11.25,50 25,50 C38.75,50 50,38.75 50,25 L45,25 Z" id="Shape"></path>
            </g>
        </g>
    </g>
</svg>