<?xml version="1.0" encoding="UTF-8"?>
<svg width="66px" height="70px" viewBox="0 0 66 70" version="1.1" xmlns="http://www.w3.org/2000/svg" xmlns:xlink="http://www.w3.org/1999/xlink">
    <!-- Generator: Sketch 52.6 (67491) - http://www.bohemiancoding.com/sketch -->
    <title>professions-and-jobs</title>
    <desc>Created with Sketch.</desc>
    <g id="Page-1" stroke="none" stroke-width="1" fill="none" fill-rule="evenodd">
        <g id="Landing_shop2" transform="translate(-927.000000, -4551.000000)" fill="#00C4FC">
            <g id="professions-and-jobs" transform="translate(927.000000, 4551.000000)">
                <path d="M22.7757273,19.4947266 L21.5949545,19.92375 C19.7725909,20.5862891 18.4130455,22.1845313 18.0466364,24.0959961 L17.646,26.200918 C17.4460909,27.2435352 17.7182727,28.3113086 18.3931364,29.1301172 C19.0682727,29.9497461 20.0637273,30.4197852 21.1238182,30.4197852 L31.3588636,30.4197852 C32.4107727,30.4197852 33.4011818,29.9558984 34.0761818,29.1470703 C34.7506364,28.3389258 35.0312727,27.2808594 34.8460909,26.2441211 L34.4724545,24.1502734 C34.1262273,22.2087305 32.7621818,20.5845117 30.9122727,19.9114453 L29.6604545,19.456582 L29.6604545,17.6067773 C29.6604545,17.5548242 29.6554091,17.5042383 29.6479091,17.4543359 C30.5611364,16.5221875 31.0842273,15.2511133 31.0842273,13.9506445 L31.0842273,11.1945313 C31.0842273,8.50417969 28.9010455,6.31544922 26.2175455,6.31544922 C23.5340455,6.31544922 21.3504545,8.50417969 21.3504545,11.1945313 L21.3504545,14.0365039 C21.3504545,15.3733398 21.9002727,16.5938281 22.7843182,17.4801758 C22.7791364,17.5217383 22.7757273,17.5637109 22.7757273,17.6066406 L22.7757273,19.4947266 Z M32.4586364,24.5112109 L32.8322727,26.605332 C32.9105455,27.0429688 32.7920455,27.4896289 32.5071818,27.8308789 C32.2219091,28.1726758 31.8032727,28.3688672 31.3585909,28.3688672 L21.1235455,28.3688672 C20.6755909,28.3688672 20.2550455,28.1703516 19.9697727,27.824043 C19.6850455,27.478418 19.5700909,27.0279297 19.6546364,26.5867383 L20.0552727,24.4818164 C20.2861364,23.2770508 21.1433182,22.2692969 22.2916364,21.8518945 L23.0650909,21.5709375 C23.0844545,21.5908984 23.1039545,21.6109961 23.1249545,21.6294531 C24.0062727,22.4020508 25.1117727,22.788418 26.2179545,22.7882813 C27.3227727,22.7882813 28.428,22.4027344 29.3094545,21.6316406 C29.3412273,21.6038867 29.3704091,21.5739453 29.3982273,21.5427734 L30.2140909,21.8393164 C31.3805455,22.263418 32.2404545,23.287168 32.4586364,24.5112109 Z M23.3959091,11.1945313 C23.3959091,9.63511719 24.6615,8.36623047 26.2171364,8.36623047 C27.5300455,8.36623047 28.6332273,9.27130859 28.9464545,10.4908398 C28.815,10.5552344 28.6801364,10.6160742 28.542,10.6714453 C27.2844545,11.1762109 26.2686818,11.1092188 25.9783636,10.9052344 C25.5158182,10.5801172 24.8781818,10.6922266 24.5537727,11.1559766 C24.2295,11.6197266 24.3414545,12.2590234 24.8038636,12.5842773 C25.3033636,12.9355078 25.9813636,13.1110547 26.7550909,13.1110547 C27.4580455,13.1110547 28.2400909,12.9646289 29.0385,12.6749219 L29.0385,13.9503711 C29.0385,14.7341797 28.7151818,15.5017188 28.1513182,16.0561133 C27.8903182,16.3128711 27.5912727,16.5117969 27.2701364,16.6490625 C27.2476364,16.6576758 27.2255455,16.6669727 27.2038636,16.6770898 C26.874,16.8079297 26.5216364,16.8736914 26.1615,16.8642578 C24.6364091,16.8348633 23.3959091,15.56625 23.3959091,14.0363672 L23.3959091,11.1945313 Z M26.1222273,18.9149023 C26.1534545,18.9154492 26.1844091,18.9157227 26.2156364,18.9157227 C26.6955,18.9157227 27.1656818,18.8433984 27.6148636,18.7046289 L27.6148636,20.3451172 C26.7624545,20.8720312 25.6727727,20.8717578 24.8214545,20.3442969 L24.8214545,18.7076367 C25.2351818,18.8332812 25.6711364,18.9061523 26.1222273,18.9149023 Z" id="Shape" fill-rule="nonzero"></path>
                <path d="M10.1269091,47.9751562 L41.9773636,47.9751562 C42.5423182,47.9751562 43.0000909,47.5161914 43.0000909,46.9497656 C43.0000909,46.3833398 42.5423182,45.924375 41.9773636,45.924375 L10.1269091,45.924375 C9.56195455,45.924375 9.10418182,46.3833398 9.10418182,46.9497656 C9.10418182,47.5161914 9.56195455,47.9751562 10.1269091,47.9751562 Z" id="Path"></path>
                <path d="M10.1269091,53.5041992 L41.9773636,53.5041992 C42.5423182,53.5041992 43.0000909,53.0452344 43.0000909,52.4788086 C43.0000909,51.9123828 42.5423182,51.453418 41.9773636,51.453418 L10.1269091,51.453418 C9.56195455,51.453418 9.10418182,51.9123828 9.10418182,52.4788086 C9.10418182,53.0452344 9.56195455,53.5041992 10.1269091,53.5041992 Z" id="Path"></path>
                <path d="M10.1269091,59.0329688 L41.9773636,59.0329688 C42.5423182,59.0329688 43.0000909,58.5740039 43.0000909,58.0075781 C43.0000909,57.4411523 42.5423182,56.9821875 41.9773636,56.9821875 L10.1269091,56.9821875 C9.56195455,56.9821875 9.10418182,57.4411523 9.10418182,58.0075781 C9.10418182,58.5740039 9.56195455,59.0329688 10.1269091,59.0329688 Z" id="Path"></path>
                <path d="M10.1269091,64.5620117 L41.9773636,64.5620117 C42.5423182,64.5620117 43.0000909,64.1030469 43.0000909,63.5366211 C43.0000909,62.9701953 42.5423182,62.5112305 41.9773636,62.5112305 L10.1269091,62.5112305 C9.56195455,62.5112305 9.10418182,62.9701953 9.10418182,63.5366211 C9.10418182,64.1030469 9.56195455,64.5620117 10.1269091,64.5620117 Z" id="Path"></path>
                <path d="M9.10418182,35.8919531 C9.10418182,36.4583789 9.56195455,36.9173438 10.1269091,36.9173438 L41.9773636,36.9173438 C42.5423182,36.9173438 43.0000909,36.4583789 43.0000909,35.8919531 C43.0000909,35.3255273 42.5423182,34.8665625 41.9773636,34.8665625 L10.1269091,34.8665625 C9.56195455,34.8665625 9.10418182,35.3256641 9.10418182,35.8919531 Z" id="Path"></path>
                <path d="M10.1269091,42.44625 L41.9773636,42.44625 C42.5423182,42.44625 43.0000909,41.9872852 43.0000909,41.4208594 C43.0000909,40.8544336 42.5423182,40.3954687 41.9773636,40.3954687 L10.1269091,40.3954687 C9.56195455,40.3954687 9.10418182,40.8544336 9.10418182,41.4208594 C9.10418182,41.9872852 9.56195455,42.44625 10.1269091,42.44625 Z" id="Path"></path>
                <path d="M6.35031818,47.9789844 C6.91731818,47.9789844 7.377,47.5182422 7.377,46.9497656 C7.377,46.3814258 6.91731818,45.9205469 6.35031818,45.9205469 C5.78331818,45.9205469 5.32377273,46.3812891 5.32377273,46.9497656 C5.32377273,47.5182422 5.78345455,47.9789844 6.35031818,47.9789844 Z" id="Path"></path>
                <path d="M6.35031818,36.9211719 C6.91731818,36.9211719 7.377,36.4604297 7.377,35.8919531 C7.377,35.3234766 6.91731818,34.8627344 6.35031818,34.8627344 C5.78331818,34.8627344 5.32377273,35.3234766 5.32377273,35.8919531 C5.32377273,36.4604297 5.78345455,36.9211719 6.35031818,36.9211719 Z" id="Path"></path>
                <path d="M6.35031818,42.4500781 C6.91731818,42.4500781 7.377,41.9893359 7.377,41.4208594 C7.377,40.8523828 6.91731818,40.3916406 6.35031818,40.3916406 C5.78331818,40.3916406 5.32377273,40.8523828 5.32377273,41.4208594 C5.32377273,41.9893359 5.78345455,42.4500781 6.35031818,42.4500781 Z" id="Path"></path>
                <path d="M6.35031818,53.5078906 C6.91731818,53.5078906 7.377,53.0471484 7.377,52.4786719 C7.377,51.9101953 6.91731818,51.4494531 6.35031818,51.4494531 C5.78331818,51.4494531 5.32377273,51.9101953 5.32377273,52.4786719 C5.32377273,53.0471484 5.78345455,53.5078906 6.35031818,53.5078906 Z" id="Path"></path>
                <path d="M6.35031818,59.0369336 C6.91731818,59.0369336 7.377,58.5761914 7.377,58.0077148 C7.377,57.4392383 6.91731818,56.9784961 6.35031818,56.9784961 C5.78331818,56.9784961 5.32377273,57.4392383 5.32377273,58.0077148 C5.32377273,58.5760547 5.78345455,59.0369336 6.35031818,59.0369336 Z" id="Path"></path>
                <path d="M6.35031818,64.5658398 C6.91731818,64.5658398 7.377,64.1050977 7.377,63.5366211 C7.377,62.9682812 6.91731818,62.5074023 6.35031818,62.5074023 C5.78331818,62.5074023 5.32377273,62.9681445 5.32377273,63.5366211 C5.32377273,64.1049609 5.78345455,64.5658398 6.35031818,64.5658398 Z" id="Path"></path>
                <path d="M64.3131818,16.1493555 C63.9005455,15.6257227 63.5105455,15.1309375 63.3219545,14.6751172 C63.1185,14.1830664 63.0383182,13.5329688 62.9535,12.8444531 C62.8047273,11.6383203 62.6361818,10.2712695 61.6846364,9.31738281 C60.7330909,8.36349609 59.3694545,8.19451172 58.1664545,8.04535156 C57.4795909,7.9603125 56.8309091,7.87992187 56.3401364,7.6759375 C55.8853636,7.48685547 55.392,7.09611328 54.8695909,6.68226562 C54.1508182,6.11283203 53.3603182,5.48761719 52.4256818,5.20392578 L52.4256818,4.89371094 C52.4258182,2.19542969 50.2359545,0 47.5442727,0 L4.93827273,0 C2.24659091,0 0.0567272727,2.19542969 0.0567272727,4.89384766 L0.0567272727,8.85171875 C0.0567272727,9.41814453 0.5145,9.87710937 1.07945455,9.87710937 C1.64440909,9.87710937 2.10218182,9.41814453 2.10218182,8.85171875 L2.10218182,4.89384766 C2.10218182,3.32609375 3.37445455,2.05078125 4.93827273,2.05078125 L47.5442727,2.05078125 C49.1080909,2.05078125 50.3803636,3.32609375 50.3803636,4.89384766 L50.3803636,5.20419922 C49.446,5.48802734 48.6557727,6.11296875 47.937,6.68240234 C47.4145909,7.09611328 46.9212273,7.48699219 46.4665909,7.67607422 C45.9758182,7.87992188 45.3271364,7.9603125 44.6402727,8.04548828 C43.4372727,8.19451172 42.0737727,8.36349609 41.1220909,9.31738281 C40.1704091,10.2714063 40.0018636,11.638457 39.8530909,12.8445898 C39.7682727,13.5329688 39.6880909,14.1832031 39.4846364,14.6752539 C39.2960455,15.1310742 38.9061818,15.6258594 38.4934091,16.1494922 C37.7292273,17.1189648 36.8633182,18.2177734 36.8633182,19.6244727 C36.8633182,21.0311719 37.7293636,22.1299805 38.4934091,23.0994531 C38.9060455,23.6230859 39.2960455,24.1178711 39.4846364,24.5736914 C39.6880909,25.0657422 39.7682727,25.7158398 39.8530909,26.4044922 C40.0018636,27.6104883 40.1704091,28.9775391 41.1219545,29.9314258 C42.0735,30.8854492 43.4371364,31.0542969 44.6401364,31.203457 C44.9987727,31.2478906 45.3463636,31.2915039 45.6672273,31.3516602 L45.6672273,46.8510547 C45.6672273,47.4584961 46.0054091,48.0009961 46.5499091,48.2667773 C47.0942727,48.5329688 47.7287727,48.4654297 48.2061818,48.0906836 L50.3802273,46.3840234 L50.3802273,65.1062891 C50.3802273,66.674043 49.1079545,67.9493555 47.5441364,67.9493555 L4.93827273,67.9493555 C3.37445455,67.9493555 2.10218182,66.674043 2.10218182,65.1062891 L2.10218182,13.3671289 C2.10218182,12.8007031 1.64440909,12.3417383 1.07945455,12.3417383 C0.5145,12.3417383 0.0567272727,12.8007031 0.0567272727,13.3671289 L0.0567272727,65.1061523 C0.0567272727,67.8045703 2.24659091,70 4.93827273,70 L47.5442727,70 C50.2359545,70 52.4258182,67.8045703 52.4258182,65.1061523 L52.4258182,46.3838867 L54.5998636,48.0904102 C54.8836364,48.3132617 55.2231818,48.4275586 55.5665455,48.4275586 C55.8005455,48.4275586 56.0361818,48.374375 56.2570909,48.2665039 C56.8017273,48.0007227 57.1401818,47.4582227 57.1401818,46.850918 L57.1401818,35.4079687 C57.1401818,34.841543 56.6824091,34.3825781 56.1174545,34.3825781 C55.5525,34.3825781 55.0947273,34.841543 55.0947273,35.4079687 L55.0947273,45.8744727 L52.3760455,43.7404297 C52.1012727,43.5223633 51.7557273,43.4021875 51.4029545,43.4021875 C51.0501818,43.4021875 50.7046364,43.5223633 50.4342273,43.736875 L47.7125455,45.8733789 L47.7125455,32.3894922 C47.7867273,32.4477344 47.8613182,32.5066602 47.9368636,32.5664062 C48.9039545,33.3325781 50.0000455,34.2006055 51.4032273,34.2006055 C52.8062727,34.2006055 53.9023636,33.3324414 54.8694545,32.566543 C55.3918636,32.152832 55.8853636,31.7618164 56.34,31.5727344 C56.8307727,31.3688867 57.4794545,31.2884961 58.1663182,31.2033203 C59.3693182,31.0542969 60.7328182,30.8853125 61.6846364,29.9314258 C62.6360455,28.9774023 62.8045909,27.6103516 62.9533636,26.4043555 C63.0383182,25.7158398 63.1185,25.0656055 63.3219545,24.5735547 C63.5105455,24.1177344 63.9004091,23.6229492 64.3131818,23.0993164 C65.0773636,22.1298438 65.9432727,21.0310352 65.9432727,19.6243359 C65.9432727,18.2176367 65.0772273,17.1188281 64.3131818,16.1493555 Z M62.7083182,21.827832 C62.2272273,22.4382812 61.7297727,23.069375 61.4326364,23.7879687 C61.1226818,24.5371875 61.0213636,25.358457 60.9234545,26.1526562 C60.8046818,27.1159766 60.6925909,28.0258398 60.2385,28.4811133 C59.7842727,28.9363867 58.8766364,29.0487695 57.9156818,29.1678516 C57.1234091,29.2660156 56.3044091,29.3674609 55.5568636,29.6782227 C54.8401364,29.9761328 54.2106818,30.4747461 53.6018182,30.9570898 C52.8274091,31.5702734 52.0960909,32.1496875 51.4035,32.1496875 C50.7109091,32.1496875 49.9795909,31.5704102 49.2051818,30.9570898 C48.5963182,30.4748828 47.9668636,29.9761328 47.2501364,29.6782227 C47.2007727,29.6577148 47.0295,29.5923633 46.9925455,29.5808789 C46.3165909,29.3451758 45.5934545,29.2548047 44.8911818,29.1678516 C43.9302273,29.0487695 43.0225909,28.93625 42.5683636,28.4809766 C42.1144091,28.0258398 42.0021818,27.1159766 41.8834091,26.152793 C41.7855,25.358457 41.6843182,24.5374609 41.3743636,23.7879687 C41.0770909,23.069375 40.5797727,22.4382812 40.0986818,21.827832 C39.4870909,21.051543 38.9091818,20.318457 38.9091818,19.6243359 C38.9091818,18.9302148 39.4869545,18.1971289 40.0986818,17.4208398 C40.5797727,16.8103906 41.0772273,16.1792969 41.3743636,15.4607031 C41.6843182,14.7114844 41.7856364,13.8902148 41.8834091,13.0960156 C42.0021818,12.1326953 42.1144091,11.222832 42.5685,10.7675586 C43.0227273,10.3122852 43.9303636,10.1999023 44.8913182,10.0808203 C45.6835909,9.98265625 46.5025909,9.88121094 47.2501364,9.57044922 C47.9668636,9.27253906 48.5963182,8.77392578 49.2051818,8.29158203 C49.9779545,7.67949219 50.7080455,7.10144531 51.3994091,7.09925781 C51.4006364,7.09925781 51.402,7.09939453 51.4032273,7.09939453 C51.4045909,7.09939453 51.4059545,7.09925781 51.4073182,7.09925781 C52.0988182,7.10130859 52.8289091,7.67949219 53.6018182,8.29158203 C54.2106818,8.77378906 54.8401364,9.27253906 55.5568636,9.57044922 C56.3042727,9.88121094 57.1235455,9.98279297 57.9158182,10.0808203 C58.8767727,10.1999023 59.7844091,10.3124219 60.2385,10.7676953 C60.6925909,11.2229688 60.8048182,12.1326953 60.9235909,13.0960156 C61.0215,13.8902148 61.1226818,14.7113477 61.4326364,15.4607031 C61.7299091,16.1792969 62.2272273,16.8103906 62.7083182,17.4208398 C63.3199091,18.1971289 63.8978182,18.9302148 63.8978182,19.6243359 C63.8978182,20.318457 63.3200455,21.0516797 62.7083182,21.827832 Z" id="Shape" fill-rule="nonzero"></path>
                <path d="M57.9694091,16.3657813 L54.4891364,15.3785352 L52.4768182,12.3652539 C52.2364091,12.0054102 51.8352273,11.7907617 51.4033636,11.7907617 C50.9715,11.7907617 50.5701818,12.0055469 50.3299091,12.3652539 L48.3175909,15.3785352 L44.8370455,16.365918 C44.4214091,16.4839062 44.0935909,16.8004102 43.9602273,17.212207 C43.8268636,17.6240039 43.9067727,18.073125 44.1737727,18.4130078 L46.4105455,21.2626367 L46.2717273,24.8852734 C46.2549545,25.318125 46.4535,25.7285547 46.803,25.9832617 C47.0273182,26.1466406 47.2930909,26.2311328 47.5618636,26.2311328 C47.7121364,26.2311328 47.8632273,26.2047461 48.0083182,26.1511523 L51.4030909,24.899082 L54.7975909,26.1510156 C55.203,26.3008594 55.6534091,26.2379688 56.0029091,25.9835352 C56.3524091,25.7291016 56.5512273,25.3188086 56.5345909,24.8858203 L56.3957727,21.2625 L58.6326818,18.4128711 C58.8996818,18.0725781 58.9794545,17.6237305 58.8459545,17.2119336 C58.713,16.8001367 58.3851818,16.4837695 57.9694091,16.3657813 Z M54.6166364,20.213457 C54.4276364,20.4546289 54.3298636,20.7562305 54.3414545,21.0637109 L54.4475455,23.8369141 L51.8494091,22.8786523 C51.5615455,22.7724219 51.2445,22.7725586 50.9571818,22.8785156 L48.3587727,23.8369141 L48.465,21.0627539 C48.4764545,20.7563672 48.3785455,20.4547656 48.1891364,20.2127734 L46.4772273,18.0318359 L49.1416364,17.2761914 C49.4363182,17.1923828 49.6925455,17.005625 49.8628636,16.7505078 L51.4030909,14.4440625 L52.9431818,16.7502344 C53.1136364,17.0054883 53.3698636,17.1922461 53.6650909,17.2763281 L56.3289545,18.0318359 L54.6166364,20.213457 Z" id="Shape" fill-rule="nonzero"></path>
            </g>
        </g>
    </g>
</svg>