<?xml version="1.0" encoding="UTF-8"?>
<svg width="166px" height="70px" viewBox="0 0 166 70" version="1.1" xmlns="http://www.w3.org/2000/svg" xmlns:xlink="http://www.w3.org/1999/xlink">
    <!-- Generator: Sketch 52.6 (67491) - http://www.bohemiancoding.com/sketch -->
    <title>zengi logo new2</title>
    <desc>Created with Sketch.</desc>
    <g id="Page-1" stroke="none" stroke-width="1" fill="none" fill-rule="evenodd">
        <g id="Landing_shop2" transform="translate(-308.000000, -15.000000)">
            <g id="zengi-logo-new2" transform="translate(308.000000, 15.000000)">
                <path d="M114.198718,69.8653846 L91.8076923,69.8653846 C83.6858974,69.8653846 77.0897436,63.2692308 77.0897436,55.1474359 C77.0897436,47.025641 83.6858974,40.4294872 91.8076923,40.4294872 L114.198718,40.4294872 C122.320513,40.4294872 128.916667,47.025641 128.916667,55.1474359 C128.961538,63.2692308 122.365385,69.8653846 114.198718,69.8653846 Z" id="Path" fill="#00C4FC"></path>
                <path d="M29.525641,29.75 L2.06410256,29.75 C1.25641026,29.75 0.493589744,29.2564103 0.179487179,28.4935897 C-0.134615385,27.7307692 0.0448717949,26.8782051 0.628205128,26.2948718 L22.6153846,4.30769231 L0.0448717949,4.30769231 L0.0448717949,0.269230769 L27.5064103,0.269230769 C28.3141026,0.269230769 29.0769231,0.762820513 29.3910256,1.52564103 C29.7051282,2.28846154 29.525641,3.14102564 28.9423077,3.72435897 L6.95512821,25.7115385 L29.525641,25.7115385 L29.525641,29.75 Z" id="Path" fill="#FFFFFF"></path>
                <path d="M69.9551282,29.75 L42.4935897,29.75 C41.3717949,29.75 40.474359,28.8525641 40.474359,27.7307692 L40.4294872,15.0320513 C40.4294872,14.4935897 40.6538462,14 41.0128205,13.5961538 C41.3717949,13.2371795 41.9102564,13.0128205 42.4487179,13.0128205 L69.9102564,13.0128205 L69.9102564,17.0512821 L44.4679487,17.0512821 L44.5128205,25.7115385 L70,25.7115385 L70,29.75 L69.9551282,29.75 Z" id="Path" fill="#FFFFFF"></path>
                <rect id="Rectangle" fill="#FFFFFF" x="40.3846154" y="0.269230769" width="29.525641" height="4.03846154"></rect>
                <path d="M108.320513,29.75 C107.782051,29.75 107.288462,29.525641 106.884615,29.1666667 L84.8974359,7.17948718 L84.8974359,29.75 L80.8589744,29.75 L80.8589744,2.28846154 C80.8589744,1.48076923 81.3525641,0.717948718 82.1153846,0.403846154 C82.8782051,0.0897435897 83.7307692,0.269230769 84.3141026,0.852564103 L106.301282,22.8397436 L106.301282,0.269230769 L110.339744,0.269230769 L110.339744,27.7307692 C110.339744,28.5384615 109.846154,29.3012821 109.083333,29.6153846 C108.814103,29.7051282 108.589744,29.75 108.320513,29.75 Z" id="Path" fill="#FFFFFF"></path>
                <path d="M148.705128,29.75 L123.262821,29.75 C122.141026,29.75 121.24359,28.8525641 121.24359,27.7307692 L121.24359,2.28846154 C121.24359,1.16666667 122.141026,0.269230769 123.262821,0.269230769 L150.589744,0.269230769 L150.589744,4.30769231 L125.282051,4.30769231 L125.282051,25.7115385 L146.685897,25.7115385 L146.641026,17.0512821 L135.961538,17.0512821 L135.961538,13.0128205 L148.660256,13.0128205 C149.782051,13.0128205 150.679487,13.9102564 150.679487,15.0320513 L150.724359,27.7307692 C150.724359,28.2692308 150.5,28.7628205 150.141026,29.1666667 C149.782051,29.5705128 149.24359,29.75 148.705128,29.75 Z" id="Path" fill="#FFFFFF"></path>
                <rect id="Rectangle" fill="#FFFFFF" x="161.673077" y="0.269230769" width="4.03846154" height="29.4807692"></rect>
                <path d="M29.4807692,57.1217949 L2.01923077,57.1217949 C0.897435897,57.1217949 -1.42108547e-14,56.224359 -1.42108547e-14,55.1025641 L-1.42108547e-14,42.4038462 C-1.42108547e-14,41.2820513 0.897435897,40.3846154 2.01923077,40.3846154 L29.4807692,40.3846154 L29.4807692,44.4230769 L4.03846154,44.4230769 L4.03846154,53.0833333 L29.4807692,53.0833333 L29.4807692,57.1217949 Z" id="Path" fill="#FFFFFF"></path>
                <rect id="Rectangle" fill="#FFFFFF" x="0.0448717949" y="65.8269231" width="29.4358974" height="4.03846154"></rect>
                <polygon id="Path" fill="#FFFFFF" points="65.8269231 40.3846154 65.8269231 53.0833333 44.4230769 53.0833333 44.4230769 40.3846154 40.3846154 40.3846154 40.3846154 69.8653846 44.4230769 69.8653846 44.4230769 57.1217949 65.8269231 57.1217949 65.8269231 69.8653846 69.8653846 69.8653846 69.8653846 40.3846154"></polygon>
                <path d="M163.692308,40.3846154 L136.230769,40.3846154 L136.230769,69.8653846 L140.269231,69.8653846 L140.269231,57.1666667 L163.692308,57.1666667 C164.814103,57.1666667 165.711538,56.2692308 165.711538,55.1474359 L165.711538,42.4487179 C165.711538,41.2820513 164.814103,40.3846154 163.692308,40.3846154 Z M161.673077,53.0833333 L140.269231,53.0833333 L140.269231,44.4230769 L161.673077,44.4230769 L161.673077,53.0833333 Z" id="Shape" fill="#FFFFFF" fill-rule="nonzero"></path>
                <circle id="Oval" fill="#FFFFFF" cx="114.198718" cy="55.1025641" r="10.6346154"></circle>
            </g>
        </g>
    </g>
</svg>