<?xml version="1.0" encoding="UTF-8"?>
<svg width="31px" height="34px" viewBox="0 0 31 34" version="1.1" xmlns="http://www.w3.org/2000/svg" xmlns:xlink="http://www.w3.org/1999/xlink">
    <!-- Generator: Sketch 52.6 (67491) - http://www.bohemiancoding.com/sketch -->
    <title>multimedia-option</title>
    <desc>Created with Sketch.</desc>
    <g id="Page-1" stroke="none" stroke-width="1" fill="none" fill-rule="evenodd">
        <g id="Landing_shop" transform="translate(-549.000000, -613.000000)" fill="#FFFFFF">
            <g id="multimedia-option" transform="translate(564.500000, 630.000000) rotate(-90.000000) translate(-564.500000, -630.000000) translate(548.000000, 615.000000)">
                <path d="M32.5747884,13.0601559 C32.2968374,12.7822049 31.8449666,12.7822049 31.5670156,13.0601559 L16.3923608,28.2348107 L1.21623608,13.0601559 C0.938285078,12.7822049 0.486414254,12.7822049 0.208463252,13.0601559 C-0.0694877506,13.3381069 -0.0694877506,13.7899777 0.208463252,14.0679287 L15.8877728,29.7472383 C16.0274833,29.8854788 16.2098886,29.9553675 16.3923608,29.9553675 C16.574833,29.9553675 16.7572383,29.8855457 16.8955457,29.7472383 L32.5748552,14.0679287 C32.8527394,13.7899109 32.8527394,13.3381069 32.5747884,13.0601559 Z" id="Path"></path>
                <path d="M32.5747884,0.230178174 C32.2968374,-0.0477728285 31.8449666,-0.0477728285 31.5670156,0.230178174 L16.3923608,15.4063029 L1.21623608,0.231648107 C0.938285078,-0.0463028953 0.486414254,-0.0463028953 0.208463252,0.231648107 C-0.0694877506,0.509599109 -0.0694877506,0.961469933 0.208463252,1.23942094 L15.8877728,16.9187305 C16.0274833,17.056971 16.2098886,17.1268597 16.3923608,17.1268597 C16.574833,17.1268597 16.7572383,17.0570379 16.8955457,16.9173274 L32.5747884,1.237951 C32.8527394,0.96 32.8527394,0.508129176 32.5747884,0.230178174 Z" id="Path"></path>
            </g>
        </g>
    </g>
</svg>