<?xml version="1.0" encoding="UTF-8"?>
<svg width="70px" height="70px" viewBox="0 0 70 70" version="1.1" xmlns="http://www.w3.org/2000/svg" xmlns:xlink="http://www.w3.org/1999/xlink">
    <!-- Generator: Sketch 52.6 (67491) - http://www.bohemiancoding.com/sketch -->
    <title>switch</title>
    <desc>Created with Sketch.</desc>
    <g id="Page-1" stroke="none" stroke-width="1" fill="none" fill-rule="evenodd">
        <g id="Landing_shop2" transform="translate(-481.000000, -4551.000000)" fill="#00C4FC">
            <g id="switch" transform="translate(481.000000, 4551.000000)">
                <path d="M24.0058984,34.5646875 C23.5035938,34.2904297 22.8748242,34.4754102 22.6007031,34.9773047 L19.3241016,40.9785742 L15.3368359,33.675332 C15.1552734,33.342832 14.8067773,33.1359766 14.4279297,33.1359766 C14.0492188,33.1359766 13.7005859,33.342832 13.5191602,33.6751953 L7.46675781,44.7604883 C7.46580078,44.7622656 7.46484375,44.7639062 7.46388672,44.7656836 L5.60068359,48.1781836 C5.3265625,48.6802148 5.51140625,49.3092578 6.01330078,49.5832422 C6.1709375,49.669375 6.34087891,49.7101172 6.50863281,49.7101172 C6.87517578,49.7101172 7.23037109,49.5150195 7.41835938,49.170625 L8.62777344,46.9556445 L9.82994141,48.1578125 C10.2343555,48.5622266 10.8899219,48.5622266 11.2943359,48.1578125 L11.942793,47.5093555 L13.6958008,49.2623633 C13.8980078,49.4645703 14.1629687,49.5656055 14.4279297,49.5656055 C14.502168,49.5656055 14.5761328,49.5568555 14.6490039,49.5409961 L7.85832031,61.9785742 C7.58433594,62.4806055 7.76904297,63.1096484 8.2709375,63.3836328 C8.42857422,63.4697656 8.59851563,63.5105078 8.76626953,63.5105078 C9.1328125,63.5105078 9.48800781,63.3154102 9.67599609,62.9710156 L24.4183789,35.9694727 C24.6926367,35.4678516 24.507793,34.8388086 24.0058984,34.5646875 Z M16.1810742,45.3131055 L14.4280664,47.0661133 L12.6750586,45.3131055 C12.2706445,44.9086914 11.6150781,44.9086914 11.2106641,45.3131055 L10.562207,45.9615625 L9.6621875,45.061543 L14.4280664,36.3324609 L18.1443555,43.1395508 L17.1126758,45.0292773 C16.785918,44.965293 16.4342773,45.0599023 16.1810742,45.3131055 Z" id="Shape" fill-rule="nonzero"></path>
                <path d="M4.68740234,52.0121875 C4.18537109,51.7380664 3.55632812,51.9229102 3.28234375,52.4248047 L0.126875,58.2041797 C-0.147246094,58.7062109 0.0375976562,59.3352539 0.539492187,59.6092383 C0.696992187,59.6953711 0.867070312,59.7361133 1.03482422,59.7361133 C1.40136719,59.7361133 1.7565625,59.5410156 1.94455078,59.1966211 L5.10001953,53.4172461 C5.37414063,52.9153516 5.18929688,52.2863086 4.68740234,52.0121875 Z" id="Path"></path>
                <path d="M69.873125,52.5434766 L62.5357031,39.104707 C62.5350195,39.1034766 62.5343359,39.1022461 62.5336523,39.1008789 L60.4350195,35.257168 C60.1608984,34.7551367 59.5318555,34.570293 59.0299609,34.8445508 C58.5279297,35.1185352 58.3432227,35.7475781 58.617207,36.2496094 L60.3376758,39.4007031 L59.4376563,40.3007227 L58.7891992,39.6522656 C58.3846484,39.2478516 57.7292188,39.2478516 57.324668,39.6522656 L55.5717969,41.4052734 L53.8189258,39.6522656 C53.414375,39.2478516 52.7589453,39.2478516 52.3543945,39.6522656 L51.7059375,40.3007227 L50.8055078,39.4001563 L55.5716602,30.6714844 L56.2944922,31.995332 C56.5684766,32.4972266 57.1973828,32.6819336 57.6995508,32.4080859 C58.201582,32.1341016 58.3862891,31.5049219 58.1123047,31.0030273 L56.4807031,28.0146289 C56.2992773,27.6821289 55.9506445,27.4752734 55.5717969,27.4752734 C55.1930859,27.4752734 54.8445898,27.6821289 54.6628906,28.0144922 L49.1298828,38.1472656 L36.0353711,14.1636523 L36.0353711,10.63125 L46.8736133,10.63125 C47.2569727,10.63125 47.6088867,10.4196094 47.7883984,10.080957 C47.9680469,9.74230469 47.9458984,9.33228516 47.7308398,9.01496094 L45.2249219,5.315625 L47.7308398,1.61628906 C47.9458984,1.29896484 47.9680469,0.888945313 47.7883984,0.550292969 C47.60875,0.211777344 47.2568359,2.84217094e-14 46.8736133,2.84217094e-14 L35,2.84217094e-14 C34.4281055,2.84217094e-14 33.9644922,0.463613281 33.9644922,1.03550781 L33.9644922,14.1636523 L24.9163086,30.7360156 C24.6423242,31.2380469 24.8270312,31.8670898 25.3289258,32.1410742 C25.8312305,32.4154688 26.46,32.2304883 26.7339844,31.728457 L29.199707,27.2123633 L30.401875,28.4145313 C30.8062891,28.8189453 31.4618555,28.8189453 31.8662695,28.4145313 L32.5147266,27.7660742 L34.2677344,29.519082 C34.4699414,29.7212891 34.7349023,29.8223242 34.9998633,29.8223242 C35.2648242,29.8223242 35.5299219,29.7211523 35.7321289,29.519082 L37.485,27.7660742 L38.133457,28.4145313 C38.5380078,28.8189453 39.1934375,28.8189453 39.5979883,28.4145313 L40.8001562,27.2123633 L60.3235937,62.9712891 C60.5117187,63.3156836 60.8667773,63.5107813 61.233457,63.5107813 C61.4010742,63.5107813 61.5711523,63.4699023 61.7286523,63.3839063 C62.2306836,63.1099219 62.4153906,62.4808789 62.1414062,61.9788477 L51.6695703,42.7988477 C51.9465625,42.8085547 52.2266992,42.70875 52.4382031,42.4972461 L53.0866602,41.8487891 L54.8395312,43.6017969 C55.0417383,43.8040039 55.3068359,43.9050391 55.5717969,43.9050391 C55.8367578,43.9050391 56.1018555,43.8038672 56.3040625,43.6017969 L58.0569336,41.8487891 L58.7053906,42.4972461 C59.1099414,42.9016602 59.7653711,42.9016602 60.1699219,42.4972461 L61.3720898,41.2950781 L68.0553125,53.5357813 C68.2434375,53.8801758 68.5984961,54.0752734 68.9651758,54.0752734 C69.132793,54.0752734 69.3028711,54.0343945 69.4603711,53.9483984 C69.9624023,53.6745508 70.1471094,53.0455078 69.873125,52.5434766 Z M43.1169922,5.89654297 L44.9214063,8.56037109 L36.0353711,8.56037109 L36.0353711,2.07115234 L44.9214063,2.07115234 L43.1169922,4.73498047 C42.879375,5.08566406 42.879375,5.54572266 43.1169922,5.89654297 Z M38.8658594,26.2180078 L38.2174023,25.5695508 C37.8128516,25.1651367 37.1574219,25.1651367 36.7528711,25.5695508 L35,27.3225586 L33.2469922,25.5695508 C32.8425781,25.1651367 32.1870117,25.1651367 31.7825977,25.5695508 L31.1341406,26.2180078 L30.2341211,25.3179883 L35,16.5889063 L39.7658789,25.3179883 L38.8658594,26.2180078 Z" id="Shape" fill-rule="nonzero"></path>
                <path d="M41.2384766,45.5620703 L43.8362695,45.5620703 C44.2378125,45.5620703 44.603125,45.3299219 44.77375,44.9663867 C44.944375,44.6028516 44.8892773,44.1735547 44.6325195,43.864707 L35.79625,33.2335937 C35.5995117,32.9969336 35.3077539,32.8599414 35,32.8599414 C34.6922461,32.8599414 34.4003516,32.9967969 34.20375,33.2335937 L25.3674805,43.864707 C25.1107227,44.1735547 25.0557617,44.6028516 25.22625,44.9663867 C25.3967383,45.3299219 25.7621875,45.5620703 26.1637305,45.5620703 L28.7615234,45.5620703 L21.5851562,68.6570117 C21.4875391,68.9713281 21.5450977,69.3132617 21.7401953,69.5783594 C21.935293,69.843457 22.2448242,69.9998633 22.574043,69.9998633 L47.425957,69.9998633 C47.7550391,69.9998633 48.064707,69.843457 48.2598047,69.5783594 C48.4550391,69.3133984 48.5124609,68.9713281 48.4148437,68.6570117 L41.2384766,45.5620703 Z M23.9800586,67.9288477 L31.1564258,44.8339062 C31.254043,44.5195898 31.1964844,44.1776562 31.0013867,43.9125586 C30.8062891,43.6474609 30.4967578,43.4910547 30.1675391,43.4910547 L28.3707813,43.4910547 L35,35.5154297 L41.629082,43.4910547 L39.8323242,43.4910547 C39.5032422,43.4910547 39.1935742,43.6474609 38.9984766,43.9125586 C38.8032422,44.1775195 38.7458203,44.5195898 38.8434375,44.8339062 L46.0198047,67.9288477 L23.9800586,67.9288477 Z" id="Shape" fill-rule="nonzero"></path>
            </g>
        </g>
    </g>
</svg>