<?xml version="1.0" encoding="UTF-8"?>
<svg width="20px" height="20px" viewBox="0 0 20 20" version="1.1" xmlns="http://www.w3.org/2000/svg" xmlns:xlink="http://www.w3.org/1999/xlink">
    <!-- Generator: Sketch 52.6 (67491) - http://www.bohemiancoding.com/sketch -->
    <title>phone-call (1)</title>
    <desc>Created with Sketch.</desc>
    <g id="Page-1" stroke="none" stroke-width="1" fill="none" fill-rule="evenodd">
        <g id="Landing_shop" transform="translate(-1195.000000, -39.000000)" fill="#FFFFFF">
            <g id="phone-call-(1)" transform="translate(1195.000000, 39.000000)">
                <path d="M15.8264463,12.1900826 C15.3842975,11.731405 14.8512397,11.4876033 14.2809917,11.4876033 C13.714876,11.4876033 13.177686,11.7272727 12.7231405,12.1859504 L11.5247934,13.3801653 C11.5,13.3677686 11.4710744,13.3512397 11.446281,13.338843 C11.4090909,13.322314 11.3760331,13.3016529 11.338843,13.285124 C11.1942149,13.214876 11.0578512,13.1446281 10.946281,13.0785124 C9.73966942,12.3140496 8.6446281,11.3140496 7.59504132,10.0247934 C7.1322314,9.43801653 6.80991736,8.94214876 6.57024793,8.44214876 C6.83884298,8.19008264 7.09090909,7.9338843 7.33471074,7.68595041 L7.4214876,7.59504132 C7.47933884,7.53719008 7.53719008,7.47520661 7.59504132,7.41735537 C7.65289256,7.35950413 7.7107438,7.30165289 7.76859504,7.24380165 C8.23553719,6.7768595 8.47933884,6.23553719 8.47933884,5.66942149 C8.47933884,5.10330579 8.23140496,4.55785124 7.76859504,4.09504132 L6.64049587,2.96694215 C6.51239669,2.83884298 6.38429752,2.7107438 6.26033058,2.5785124 C6.01652893,2.32644628 5.75206612,2.05785124 5.47933884,1.80578512 C5.04132231,1.36363636 4.51239669,1.1322314 3.95454545,1.1322314 C3.39669421,1.1322314 2.85950413,1.36363636 2.40495868,1.79752066 L0.987603306,3.22727273 C0.425619835,3.7892562 0.103305785,4.47933884 0.0330578512,5.2768595 C-0.0702479339,6.52066116 0.29338843,7.67355372 0.574380165,8.42975207 C1.25619835,10.2644628 2.26859504,11.9586777 3.77272727,13.7644628 C5.60330579,15.9504132 7.80578512,17.6735537 10.3181818,18.8884298 C11.2892562,19.3512397 12.5909091,19.8884298 14.0330579,19.9834711 C14.1322314,19.9876033 14.2190083,19.9917355 14.3016529,19.9917355 C15.3181818,19.9917355 16.1694215,19.6239669 16.838843,18.9008264 L16.8595041,18.8801653 L16.8636364,18.8760331 C16.8677686,18.8719008 16.8677686,18.8677686 16.8719008,18.8636364 C17.0619835,18.6363636 17.2809917,18.4214876 17.5165289,18.1983471 L17.5743802,18.1446281 C17.7892562,17.9380165 17.9628099,17.768595 18.1198347,17.6033058 C18.5661157,17.1404959 18.8016529,16.5950413 18.8016529,16.0289256 C18.8016529,15.4586777 18.5619835,14.9173554 18.1033058,14.4669421 L15.8264463,12.1900826 Z M17.0661157,16.4793388 L16.9958678,16.4793388 L16.9669421,16.5867769 C16.8512397,16.7107438 16.7272727,16.8264463 16.6033058,16.9504132 L16.5123967,17.0413223 C16.2479339,17.2933884 15.9669421,17.5702479 15.7024793,17.8801653 C15.322314,18.285124 14.8884298,18.4669421 14.3016529,18.4669421 C14.2438017,18.4669421 14.1818182,18.4669421 14.1239669,18.4628099 C12.9297521,18.3884298 11.8140496,17.9173554 10.9793388,17.5165289 C8.66528926,16.3966942 6.63636364,14.8057851 4.95041322,12.7933884 C3.55785124,11.1157025 2.62396694,9.56198347 2.00826446,7.89669421 C1.63636364,6.90082645 1.49586777,6.1322314 1.55785124,5.40082645 C1.59504132,4.96694215 1.76033058,4.60743802 2.07024793,4.30165289 L3.47520661,2.89669421 C3.64049587,2.74380165 3.80578512,2.66115702 3.95867769,2.66115702 C4.14876033,2.66115702 4.30991736,2.78512397 4.41735537,2.88842975 L4.4338843,2.90495868 C4.66942149,3.12809917 4.90082645,3.35950413 5.16942149,3.63636364 C5.23553719,3.70247934 5.30165289,3.76859504 5.3677686,3.83884298 C5.4338843,3.90495868 5.5,3.97107438 5.5661157,4.04132231 L6.69421488,5.16942149 C7.04958678,5.52479339 7.04958678,5.80165289 6.69421488,6.15702479 C6.65289256,6.19834711 6.61570248,6.23966942 6.57438017,6.2768595 C6.49586777,6.3553719 6.4214876,6.4338843 6.34297521,6.50826446 L6.33884298,6.51239669 C5.97107438,6.88842975 5.65702479,7.20247934 5.30991736,7.51239669 L5.30578512,7.51652893 C5.29752066,7.52479339 5.28512397,7.53719008 5.26859504,7.55371901 C4.8553719,7.97933884 4.92561983,8.40495868 5.01652893,8.69008264 L5.02892562,8.72727273 L5.03305785,8.73966942 C5.33057851,9.45867769 5.75206612,10.1446281 6.39669421,10.9669421 L6.40909091,10.9834711 C7.5661157,12.4049587 8.7768595,13.5082645 10.1198347,14.3595041 C10.2975207,14.4710744 10.4752066,14.5619835 10.6487603,14.6487603 C10.7933884,14.7190083 10.9297521,14.7892562 11.0371901,14.8553719 L11.053719,14.8636364 C11.0578512,14.8636364 11.0578512,14.8677686 11.0619835,14.8677686 C11.0743802,14.8760331 11.0909091,14.8842975 11.1033058,14.892562 C11.2727273,14.9752066 11.4338843,15.0165289 11.6033058,15.0165289 C11.8884298,15.0165289 12.1487603,14.9008264 12.3760331,14.6694215 L13.7892562,13.2561983 C13.9049587,13.1404959 14.0785124,13.0082645 14.268595,13.0082645 C14.4669421,13.0082645 14.6322314,13.1570248 14.7107438,13.2438017 L17.0041322,15.5371901 C17.3347107,15.8636364 17.3553719,16.1487603 17.0661157,16.4793388 Z" id="Shape" fill-rule="nonzero"></path>
                <path d="M10.7520661,5.0661157 C11.7892562,5.23966942 12.7355372,5.73140496 13.4917355,6.48760331 C14.2438017,7.23966942 14.7355372,8.18595041 14.9132231,9.22727273 C14.9752066,9.59504132 15.2933884,9.86363636 15.6652893,9.86363636 C15.7066116,9.86363636 15.7438017,9.85950413 15.7768595,9.8553719 L15.7933884,9.85123967 C16.2066116,9.78512397 16.4917355,9.38842975 16.4214876,8.96694215 C16.1900826,7.61570248 15.553719,6.38429752 14.5743802,5.40495868 C13.5950413,4.42561983 12.3636364,3.7892562 11.0123967,3.55785124 C10.5909091,3.48760331 10.2066116,3.76446281 10.1322314,4.18181818 C10.0950413,4.38429752 10.1404959,4.59090909 10.2603306,4.76033058 C10.3801653,4.92561983 10.553719,5.03719008 10.7520661,5.0661157 Z" id="Path"></path>
                <path d="M19.9669421,8.80991736 C19.5909091,6.60743802 18.553719,4.60330579 16.9628099,3.01652893 C15.3719008,1.42561983 13.3677686,0.388429752 11.1694215,0.0123966942 C10.7561983,-0.0619834711 10.3636364,0.219008264 10.2892562,0.636363636 C10.2190083,1.05785124 10.4958678,1.44214876 10.9173554,1.51652893 C12.7975207,1.83471074 14.5165289,2.72727273 15.8842975,4.09090909 C17.2479339,5.45454545 18.1404959,7.17355372 18.4586777,9.05785124 C18.5206612,9.42561983 18.838843,9.69421488 19.2107438,9.69421488 C19.2520661,9.69421488 19.2892562,9.69008264 19.322314,9.68595041 L19.338843,9.68595041 C19.5413223,9.65702479 19.714876,9.54545455 19.8347107,9.38016529 C19.9545455,9.2107438 20,9.00826446 19.9669421,8.80991736 Z" id="Path"></path>
            </g>
        </g>
    </g>
</svg>