<?xml version="1.0" encoding="UTF-8"?>
<svg width="54px" height="70px" viewBox="0 0 54 70" version="1.1" xmlns="http://www.w3.org/2000/svg" xmlns:xlink="http://www.w3.org/1999/xlink">
    <!-- Generator: Sketch 52.6 (67491) - http://www.bohemiancoding.com/sketch -->
    <title>person</title>
    <desc>Created with Sketch.</desc>
    <g id="Page-1" stroke="none" stroke-width="1" fill="none" fill-rule="evenodd">
        <g id="Landing_shop2" transform="translate(-1376.000000, -4959.000000)" fill="#00C4FC" fill-rule="nonzero">
            <g id="person" transform="translate(1376.000000, 4959.000000)">
                <path d="M38.25,18.0645161 C38.25,11.8390323 33.20325,6.77419355 27,6.77419355 C20.79675,6.77419355 15.75,11.8390323 15.75,18.0645161 C15.75,24.29 20.79675,29.3548387 27,29.3548387 C33.20325,29.3548387 38.25,24.29 38.25,18.0645161 Z M18,18.0645161 C18,13.0843548 22.037625,9.03225806 27,9.03225806 C31.962375,9.03225806 36,13.0843548 36,18.0645161 C36,23.0446774 31.962375,27.0967742 27,27.0967742 C22.037625,27.0967742 18,23.0446774 18,18.0645161 Z" id="Shape"></path>
                <path d="M47.23875,39.8243548 L37.283625,38.3972581 L31.5,37.4308065 L31.5,35 L31.5,33.4396774 L34.471125,31.9493548 L35.751375,33.2330645 C36.19125,33.6745161 36.90225,33.6745161 37.342125,33.2330645 L42.114375,28.4425806 C42.55425,28.001129 42.55425,27.2875806 42.114375,26.846129 L40.83525,25.5624194 L42.32025,22.5806452 L43.875,22.5806452 C44.497125,22.5806452 45,22.0748387 45,21.4516129 L45,14.6774194 C45,14.0541935 44.497125,13.5483871 43.875,13.5483871 L42.32025,13.5483871 L40.83525,10.5666129 L42.114375,9.28290323 C42.55425,8.84145161 42.55425,8.12790323 42.114375,7.68645161 L37.342125,2.89596774 C36.90225,2.45451613 36.19125,2.45451613 35.751375,2.89596774 L34.471125,4.17967742 L31.5,2.68935484 L31.5,1.12903226 C31.5,0.505806452 30.997125,0 30.375,0 L23.625,0 C23.002875,0 22.5,0.505806452 22.5,1.12903226 L22.5,2.68935484 L19.528875,4.17967742 L18.248625,2.89596774 C17.80875,2.45451613 17.09775,2.45451613 16.657875,2.89596774 L11.885625,7.68645161 C11.44575,8.12790323 11.44575,8.84145161 11.885625,9.28290323 L13.16475,10.5666129 L11.67975,13.5483871 L10.125,13.5483871 C9.502875,13.5483871 9,14.0541935 9,14.6774194 L9,21.4516129 C9,22.0748387 9.502875,22.5806452 10.125,22.5806452 L11.67975,22.5806452 L13.16475,25.5624194 L11.885625,26.846129 C11.44575,27.2875806 11.44575,28.001129 11.885625,28.4425806 L16.657875,33.2330645 C17.09775,33.6745161 17.80875,33.6745161 18.248625,33.2330645 L19.528875,31.9493548 L22.5,33.4396774 L22.5,35 L22.5,37.4308065 L16.71525,38.3983871 L6.760125,39.8254839 C2.907,40.3787097 0,43.7420968 0,47.6496774 L0,68.8709677 C0,69.4953226 0.502875,70 1.125,70 L52.875,70 C53.497125,70 54,69.4953226 54,68.8709677 L54,47.6496774 C54,43.7420968 51.093,40.3787097 47.23875,39.8243548 Z M30.994875,54.9579032 L30.414375,46.796129 L32.50575,48.895 L30.994875,54.9579032 Z M29.230875,61.8687097 L27,66.3464516 L24.769125,61.8687097 L25.65675,49.3940323 C26.0685,49.5746774 26.521875,49.6774194 27,49.6774194 C27.478125,49.6774194 27.9315,49.5746774 28.34325,49.3940323 L29.230875,61.8687097 Z M21.495375,48.895 L23.58675,46.796129 L23.00625,54.9579032 L21.495375,48.895 Z M24.75,36.1290323 L29.25,36.1290323 L29.25,37.9196774 L27,40.1777419 L24.75,37.9196774 L24.75,36.1290323 Z M25.875,44.4996774 L27,43.3706452 L28.125,44.4996774 L28.125,46.2903226 C28.125,46.9135484 27.621,47.4193548 27,47.4193548 C26.379,47.4193548 25.875,46.9135484 25.875,46.2903226 L25.875,44.4996774 Z M33.310125,46.5093548 L28.59075,41.7741935 L30.760875,39.5962903 L35.591625,40.4046774 L33.310125,46.5093548 Z M19.810125,29.5659677 C19.377,29.3491935 18.855,29.4327419 18.511875,29.7782258 L17.454375,30.8395161 L14.272875,27.6454839 L15.32925,26.5841935 C15.672375,26.2409677 15.75675,25.7159677 15.54075,25.2812903 L13.381875,20.9480645 C13.190625,20.5641935 12.801375,20.3225806 12.375,20.3225806 L11.25,20.3225806 L11.25,15.8064516 L12.375,15.8064516 C12.801375,15.8064516 13.190625,15.5648387 13.381875,15.1820968 L15.54075,10.848871 C15.75675,10.4141935 15.672375,9.88919355 15.32925,9.54596774 L14.272875,8.48467742 L17.454375,5.29064516 L18.511875,6.35193548 C18.856125,6.69629032 19.37925,6.78096774 19.810125,6.56419355 L24.127875,4.39758065 C24.50925,4.20564516 24.75,3.815 24.75,3.38709677 L24.75,2.25806452 L29.25,2.25806452 L29.25,3.38709677 C29.25,3.815 29.49075,4.20564516 29.872125,4.39758065 L34.189875,6.56419355 C34.621875,6.77983871 35.145,6.69629032 35.488125,6.35193548 L36.545625,5.29064516 L39.727125,8.48467742 L38.67075,9.54596774 C38.327625,9.88919355 38.24325,10.4141935 38.45925,10.848871 L40.618125,15.1820968 C40.809375,15.5648387 41.198625,15.8064516 41.625,15.8064516 L42.75,15.8064516 L42.75,20.3225806 L41.625,20.3225806 C41.198625,20.3225806 40.809375,20.5641935 40.618125,20.9469355 L38.45925,25.2801613 C38.24325,25.7148387 38.327625,26.2398387 38.67075,26.5830645 L39.727125,27.6443548 L36.545625,30.8383871 L35.488125,29.7770968 C35.145,29.433871 34.623,29.3503226 34.189875,29.5648387 L29.872125,31.7314516 C29.49075,31.9233871 29.25,32.3140323 29.25,32.7419355 L29.25,33.8709677 L24.75,33.8709677 L24.75,32.7419355 C24.75,32.3140323 24.50925,31.9233871 24.127875,31.7314516 L19.810125,29.5659677 Z M23.239125,39.5962903 L25.40925,41.7741935 L20.689875,46.5093548 L18.4095,40.4046774 L23.239125,39.5962903 Z M2.25,47.6496774 C2.25,44.8587097 4.32675,42.455 7.079625,42.0609677 L16.13925,40.7625806 L19.17675,48.8927419 L22.53375,62.371129 L22.539375,62.37 C22.559625,62.4501613 22.582125,62.5291935 22.618125,62.6025806 L25.17975,67.7419355 L11.25,67.7419355 L11.25,50.8064516 L9,50.8064516 L9,67.7419355 L2.25,67.7419355 L2.25,47.6496774 Z M51.75,67.7419355 L43.875,67.7419355 L43.875,50.8064516 L41.625,50.8064516 L41.625,67.7419355 L28.82025,67.7419355 L31.38075,62.6014516 C31.417875,62.5280645 31.440375,62.4479032 31.4595,62.368871 L31.465125,62.37 L34.822125,48.8916129 L37.859625,40.7614516 L46.91925,42.0598387 C49.672125,42.455 51.748875,44.8587097 51.748875,47.6485484 L51.748875,67.7419355 L51.75,67.7419355 Z" id="Shape"></path>
            </g>
        </g>
    </g>
</svg>