<?xml version="1.0" encoding="UTF-8"?>
<svg width="70px" height="70px" viewBox="0 0 70 70" version="1.1" xmlns="http://www.w3.org/2000/svg" xmlns:xlink="http://www.w3.org/1999/xlink">
    <!-- Generator: Sketch 52.6 (67491) - http://www.bohemiancoding.com/sketch -->
    <title>business</title>
    <desc>Created with Sketch.</desc>
    <g id="Page-1" stroke="none" stroke-width="1" fill="none" fill-rule="evenodd">
        <g id="Landing_shop2" transform="translate(-925.000000, -4959.000000)" fill="#00C4FC">
            <g id="business" transform="translate(925.000000, 4959.000000)">
                <polygon id="Path" points="6.77419355 58.7096774 4.51612903 58.7096774 4.51612903 65.483871 15.8064516 65.483871 15.8064516 63.2258065 6.77419355 63.2258065"></polygon>
                <polygon id="Path" points="18.0645161 63.2258065 20.3225806 63.2258065 20.3225806 65.483871 18.0645161 65.483871"></polygon>
                <path d="M67.7419355,28.2258065 C67.7419355,37.0853226 63.2924194,45.2470968 55.8396774,50.0579032 L57.0635484,51.9558065 C65.1643548,46.726129 70,37.8553226 70,28.2258065 L67.7419355,28.2258065 Z" id="Path"></path>
                <path d="M51.5120968,52.3069355 L52.358871,54.4001613 C53.1570968,54.0772581 53.9485484,53.7137097 54.7117742,53.3196774 L53.6753226,51.3133871 C52.9730645,51.6746774 52.2448387,52.008871 51.5120968,52.3069355 Z" id="Path"></path>
                <path d="M47.1856452,53.6290323 L47.6530645,55.8385484 C48.4422581,55.6714516 49.2337097,55.4670968 50.0070968,55.231129 L49.3477419,53.0712903 C48.6375806,53.2880645 47.9104839,53.4754839 47.1856452,53.6290323 Z" id="Path"></path>
                <path d="M15.8290323,27.1430645 C16.2659677,16.4816129 23.0514516,7.29354839 33.1179032,3.73596774 L32.3659677,1.6066129 C21.4245161,5.47354839 14.0462903,15.4609677 13.5720968,27.0854839 L13.5483871,29.3435484 L15.8064516,29.3672581 L15.8290323,27.1430645 Z" id="Path"></path>
                <path d="M37.4443548,2.61709677 L37.0717742,0.389516129 C36.2870968,0.521612903 35.4956452,0.688709677 34.718871,0.888548387 L35.281129,3.07548387 C35.9958065,2.89258065 36.7229032,2.73790323 37.4443548,2.61709677 Z" id="Path"></path>
                <path d="M41.7741935,2.25806452 L41.7741935,0 C40.9929032,0 40.2014516,0.0327419355 39.4235484,0.0959677419 L39.6087097,2.34612903 C40.3256452,2.28741935 41.053871,2.25806452 41.7741935,2.25806452 Z" id="Path"></path>
                <path d="M65.483871,28.2258065 C65.483871,15.1516129 54.8472581,4.51612903 41.7741935,4.51612903 C28.701129,4.51612903 18.0645161,15.1516129 18.0645161,28.2258065 C18.0645161,30.1406452 18.3004839,32.0317742 18.7498387,33.8709677 L16.9354839,33.8709677 C13.8227419,33.8709677 11.2903226,36.4033871 11.2903226,39.516129 L11.2903226,40.6451613 L3.38709677,40.6451613 C1.51967742,40.6451613 0,42.1648387 0,44.0322581 L0,66.6129032 C0,68.4803226 1.51967742,70 3.38709677,70 L39.516129,70 C41.3835484,70 42.9032258,68.4803226 42.9032258,66.6129032 L42.9032258,51.8779032 C55.4501613,51.2829032 65.483871,40.9183871 65.483871,28.2258065 Z M47.5503226,48.8645161 C47.4712903,48.3824194 47.4193548,47.8991935 47.4193548,47.4193548 C47.4193548,42.4391935 51.4714516,38.3870968 56.4516129,38.3870968 C57.7353226,38.3870968 58.9987097,38.6727419 60.1683871,39.2056452 C57.3796774,43.8595161 52.8883871,47.3685484 47.5503226,48.8645161 Z M63.2258065,28.2258065 C63.2258065,29.3808065 63.1083871,30.5064516 62.931129,31.6129032 L42.9032258,31.6129032 C42.28,31.6129032 41.7741935,31.1059677 41.7741935,30.483871 C41.7741935,29.8617742 42.28,29.3548387 42.9032258,29.3548387 L56.4516129,29.3548387 C58.3190323,29.3548387 59.8387097,27.8351613 59.8387097,25.9677419 C59.8387097,24.1003226 58.3190323,22.5806452 56.4516129,22.5806452 L47.4193548,22.5806452 C46.796129,22.5806452 46.2903226,22.0737097 46.2903226,21.4516129 C46.2903226,20.8295161 46.796129,20.3225806 47.4193548,20.3225806 L49.6774194,20.3225806 C51.5448387,20.3225806 53.0645161,18.8029032 53.0645161,16.9354839 C53.0645161,15.0680645 51.5448387,13.5483871 49.6774194,13.5483871 L44.0322581,13.5483871 C43.4090323,13.5483871 42.9032258,13.0414516 42.9032258,12.4193548 C42.9032258,11.7972581 43.4090323,11.2903226 44.0322581,11.2903226 L54.8924194,11.2903226 C59.9516129,15.2182258 63.2258065,21.3398387 63.2258065,28.2258065 Z M22.888871,18.0645161 L36.1290323,18.0645161 C36.7522581,18.0645161 37.2580645,18.5714516 37.2580645,19.1935484 C37.2580645,19.8156452 36.7522581,20.3225806 36.1290323,20.3225806 L31.6129032,20.3225806 C29.7454839,20.3225806 28.2258065,21.8422581 28.2258065,23.7096774 C28.2258065,25.5770968 29.7454839,27.0967742 31.6129032,27.0967742 L33.8709677,27.0967742 C34.4941935,27.0967742 35,27.6037097 35,28.2258065 C35,28.8479032 34.4941935,29.3548387 33.8709677,29.3548387 L20.3654839,29.3548387 C20.3451613,28.978871 20.3225806,28.6040323 20.3225806,28.2258065 C20.3225806,24.5508065 21.2540323,21.0914516 22.888871,18.0645161 Z M20.5924194,31.6129032 L33.8709677,31.6129032 C35.7383871,31.6129032 37.2580645,30.0932258 37.2580645,28.2258065 C37.2580645,26.3583871 35.7383871,24.8387097 33.8709677,24.8387097 L31.6129032,24.8387097 C30.9896774,24.8387097 30.483871,24.3317742 30.483871,23.7096774 C30.483871,23.0875806 30.9896774,22.5806452 31.6129032,22.5806452 L36.1290323,22.5806452 C37.9964516,22.5806452 39.516129,21.0609677 39.516129,19.1935484 C39.516129,17.326129 37.9964516,15.8064516 36.1290323,15.8064516 L24.3159677,15.8064516 C28.208871,10.3498387 34.5754839,6.77419355 41.7741935,6.77419355 C45.1962903,6.77419355 48.4230645,7.60064516 51.2964516,9.03225806 L44.0322581,9.03225806 C42.1648387,9.03225806 40.6451613,10.5519355 40.6451613,12.4193548 C40.6451613,14.2867742 42.1648387,15.8064516 44.0322581,15.8064516 L49.6774194,15.8064516 C50.3006452,15.8064516 50.8064516,16.3133871 50.8064516,16.9354839 C50.8064516,17.5575806 50.3006452,18.0645161 49.6774194,18.0645161 L47.4193548,18.0645161 C45.5519355,18.0645161 44.0322581,19.5841935 44.0322581,21.4516129 C44.0322581,23.3190323 45.5519355,24.8387097 47.4193548,24.8387097 L56.4516129,24.8387097 C57.0748387,24.8387097 57.5806452,25.3456452 57.5806452,25.9677419 C57.5806452,26.5898387 57.0748387,27.0967742 56.4516129,27.0967742 L42.9032258,27.0967742 C41.0358065,27.0967742 39.516129,28.6164516 39.516129,30.483871 C39.516129,32.3512903 41.0358065,33.8709677 42.9032258,33.8709677 L62.4467742,33.8709677 C62.1306452,35.0282258 61.7219355,36.1448387 61.2240323,37.2162903 C59.7280645,36.5129032 58.1045161,36.1290323 56.4516129,36.1290323 C50.226129,36.1290323 45.1612903,41.193871 45.1612903,47.4193548 C45.1612903,48.0629032 45.2380645,48.7098387 45.3520968,49.3545161 C44.5493548,49.49 43.7330645,49.5769355 42.9032258,49.6209677 L42.9032258,44.0322581 C42.9032258,42.1648387 41.3835484,40.6451613 39.516129,40.6451613 L31.6129032,40.6451613 L31.6129032,39.516129 C31.6129032,36.4033871 29.0804839,33.8709677 25.9677419,33.8709677 L21.0891935,33.8709677 C20.8870968,33.1269355 20.7143548,32.376129 20.5924194,31.6129032 Z M13.5483871,39.516129 C13.5483871,37.6487097 15.0680645,36.1290323 16.9354839,36.1290323 L25.9677419,36.1290323 C27.8351613,36.1290323 29.3548387,37.6487097 29.3548387,39.516129 L29.3548387,40.6451613 L13.5483871,40.6451613 L13.5483871,39.516129 Z M2.25806452,44.0322581 C2.25806452,43.4101613 2.76387097,42.9032258 3.38709677,42.9032258 L39.516129,42.9032258 C40.1393548,42.9032258 40.6451613,43.4101613 40.6451613,44.0322581 L40.6451613,46.2903226 C40.6451613,49.4030645 38.1127419,51.9354839 35,51.9354839 L27.0967742,51.9354839 C27.0967742,50.6901613 26.0840323,49.6774194 24.8387097,49.6774194 L18.0645161,49.6774194 C16.8191935,49.6774194 15.8064516,50.6901613 15.8064516,51.9354839 L7.90322581,51.9354839 C4.79048387,51.9354839 2.25806452,49.4030645 2.25806452,46.2903226 L2.25806452,44.0322581 Z M24.8398387,56.4516129 L18.0645161,56.4516129 L18.0645161,51.9354839 L24.8387097,51.9354839 L24.8398387,56.4516129 Z M39.516129,67.7419355 L3.38709677,67.7419355 C2.76387097,67.7419355 2.25806452,67.235 2.25806452,66.6129032 L2.25806452,51.8101613 C3.69419355,53.2790323 5.69258065,54.1935484 7.90322581,54.1935484 L15.8064516,54.1935484 L15.8064516,56.4516129 C15.8064516,57.6969355 16.8191935,58.7096774 18.0645161,58.7096774 L24.8387097,58.7096774 C26.0840323,58.7096774 27.0967742,57.6969355 27.0967742,56.4516129 L27.0967742,54.1935484 L35,54.1935484 C37.2106452,54.1935484 39.2090323,53.2790323 40.6451613,51.8101613 L40.6451613,66.6129032 C40.6451613,67.235 40.1393548,67.7419355 39.516129,67.7419355 Z" id="Shape" fill-rule="nonzero"></path>
            </g>
        </g>
    </g>
</svg>