<?xml version="1.0" encoding="UTF-8"?>
<svg width="20px" height="18px" viewBox="0 0 20 18" version="1.1" xmlns="http://www.w3.org/2000/svg" xmlns:xlink="http://www.w3.org/1999/xlink">
    <!-- Generator: Sketch 52.6 (67491) - http://www.bohemiancoding.com/sketch -->
    <title>Path</title>
    <desc>Created with Sketch.</desc>
    <g id="Page-1" stroke="none" stroke-width="1" fill="none" fill-rule="evenodd">
        <g id="iPhone-SE" transform="translate(-291.000000, -476.000000)" fill="#cecece">
            <g id="Group-2" transform="translate(176.000000, 476.000000)">
                <path d="M124.05479,0.406725805 C124.179177,0.157809612 124.435339,0 124.715312,0 C124.995285,0 125.251858,0.157809612 125.375834,0.406725805 L127.744929,5.16338409 C127.852073,5.37854204 128.059795,5.52781041 128.299948,5.56238211 L133.598082,6.32499299 C133.876002,6.36485212 134.105892,6.55764015 134.192511,6.8216052 C134.27913,7.08557025 134.206879,7.37597247 134.006136,7.56957396 L130.172727,11.2724057 C129.999078,11.4399767 129.919848,11.6815718 129.96049,11.9182863 L130.865269,17.1467465 C130.912068,17.4208797 130.799176,17.6974532 130.57175,17.860957 C130.344734,18.0236473 130.044646,18.0452038 129.795872,17.9166784 L125.056862,15.4478528 C124.842572,15.3360032 124.585999,15.3360032 124.371299,15.4478528 L119.632289,17.9162717 C119.384336,18.0452038 119.083427,18.024054 118.856411,17.860957 C118.629395,17.69786 118.516093,17.4208797 118.563302,17.1467465 L119.468082,11.9182863 C119.509134,11.6815718 119.429493,11.4399767 119.255845,11.2724057 L115.422435,7.56957396 C115.221693,7.37556575 115.149442,7.08557025 115.236061,6.8216052 C115.32268,6.55764015 115.55298,6.36485212 115.8309,6.32499299 L121.129855,5.56238211 C121.369597,5.52781041 121.577319,5.37854204 121.684464,5.16297737 L124.05479,0.406725805 Z" id="Path"></path>
            </g>
        </g>
    </g>
</svg>