<?xml version="1.0" encoding="UTF-8"?>
<svg width="70px" height="70px" viewBox="0 0 70 70" version="1.1" xmlns="http://www.w3.org/2000/svg" xmlns:xlink="http://www.w3.org/1999/xlink">
    <!-- Generator: Sketch 52.6 (67491) - http://www.bohemiancoding.com/sketch -->
    <title>multimedia</title>
    <desc>Created with Sketch.</desc>
    <g id="Page-1" stroke="none" stroke-width="1" fill="none" fill-rule="evenodd">
        <g id="Landing_shop2" transform="translate(-1368.000000, -4551.000000)" fill="#00C4FC">
            <g id="multimedia" transform="translate(1368.000000, 4551.000000)">
                <path d="M66.5,14 L53.6666667,14 L53.6666667,1.16666667 C53.6666667,0.522334459 53.1443322,0 52.5,0 L17.5,0 C16.8556678,0 16.3333333,0.522334459 16.3333333,1.16666667 L16.3333333,14 L3.5,14 C1.56939673,14.0057659 0.00576590195,15.5693967 0,17.5 L0,54.8333333 C0.00576590195,56.7639366 1.56939673,58.3275674 3.5,58.3333333 L26.6233333,58.3333333 L25.8416667,63 L24.5,63 C24.1333842,63.0025266 23.7886574,63.17489 23.5666667,63.4666667 L20.0666667,68.1333333 C19.8015262,68.4868539 19.7588776,68.9598345 19.9565016,69.3550825 C20.1541256,69.7503306 20.5580993,70 21,70 L49,70 C49.4419007,70 49.8458744,69.7503306 50.0434984,69.3550825 C50.2411224,68.9598345 50.1984738,68.4868539 49.9333333,68.1333333 L46.4333333,63.4666667 C46.2113426,63.17489 45.8666158,63.0025266 45.5,63 L44.1583333,63 L43.3766667,58.3333333 L66.5,58.3333333 C68.4306033,58.3275674 69.9942341,56.7639366 70,54.8333333 L70,17.5 C69.9942341,15.5693967 68.4306033,14.0057659 66.5,14 Z M18.6666667,2.33333333 L51.3333333,2.33333333 L51.3333333,25.6666667 L18.6666667,25.6666667 L18.6666667,2.33333333 Z M44.9166667,65.3333333 L46.6666667,67.6666667 L23.3333333,67.6666667 L25.0833333,65.3333333 L44.9166667,65.3333333 Z M28.21,63 L28.9916667,58.3333333 L41.0083333,58.3333333 L41.79,63 L28.21,63 Z M67.6666667,54.8333333 C67.6666667,55.4776655 67.1443322,56 66.5,56 L3.5,56 C2.85566779,56 2.33333333,55.4776655 2.33333333,54.8333333 L2.33333333,51.3333333 L67.6666667,51.3333333 L67.6666667,54.8333333 Z M67.6666667,49 L2.33333333,49 L2.33333333,17.5 C2.33333333,16.8556678 2.85566779,16.3333333 3.5,16.3333333 L16.3333333,16.3333333 L16.3333333,26.8333333 C16.3333333,27.4776655 16.8556678,28 17.5,28 L52.5,28 C53.1443322,28 53.6666667,27.4776655 53.6666667,26.8333333 L53.6666667,16.3333333 L66.5,16.3333333 C67.1443322,16.3333333 67.6666667,16.8556678 67.6666667,17.5 L67.6666667,49 Z" id="Shape" fill-rule="nonzero"></path>
                <path d="M64.1666667,30.3333333 L50.1666667,30.3333333 C49.5223345,30.3333333 49,30.8556678 49,31.5 L49,32.6666667 L39.6666667,32.6666667 L39.6666667,31.5 C39.6666667,30.8556678 39.1443322,30.3333333 38.5,30.3333333 L31.5,30.3333333 C30.8556678,30.3333333 30.3333333,30.8556678 30.3333333,31.5 L30.3333333,32.6666667 L21,32.6666667 L21,31.5 C21,30.8556678 20.4776655,30.3333333 19.8333333,30.3333333 L5.83333333,30.3333333 C5.18900113,30.3333333 4.66666667,30.8556678 4.66666667,31.5 L4.66666667,36.1666667 C4.66666667,36.8109989 5.18900113,37.3333333 5.83333333,37.3333333 L19.8333333,37.3333333 C20.4776655,37.3333333 21,36.8109989 21,36.1666667 L21,35 L30.3333333,35 L30.3333333,36.1666667 C30.3333333,36.8109989 30.8556678,37.3333333 31.5,37.3333333 L33.8333333,37.3333333 L33.8333333,39.6666667 L31.5,39.6666667 C30.8556678,39.6666667 30.3333333,40.1890011 30.3333333,40.8333333 L30.3333333,45.5 C30.3333333,46.1443322 30.8556678,46.6666667 31.5,46.6666667 L38.5,46.6666667 C39.1443322,46.6666667 39.6666667,46.1443322 39.6666667,45.5 L39.6666667,40.8333333 C39.6666667,40.1890011 39.1443322,39.6666667 38.5,39.6666667 L36.1666667,39.6666667 L36.1666667,37.3333333 L38.5,37.3333333 C39.1443322,37.3333333 39.6666667,36.8109989 39.6666667,36.1666667 L39.6666667,35 L49,35 L49,36.1666667 C49,36.8109989 49.5223345,37.3333333 50.1666667,37.3333333 L64.1666667,37.3333333 C64.8109989,37.3333333 65.3333333,36.8109989 65.3333333,36.1666667 L65.3333333,31.5 C65.3333333,30.8556678 64.8109989,30.3333333 64.1666667,30.3333333 Z M18.6666667,35 L7,35 L7,32.6666667 L18.6666667,32.6666667 L18.6666667,35 Z M37.3333333,42 L37.3333333,44.3333333 L32.6666667,44.3333333 L32.6666667,42 L37.3333333,42 Z M37.3333333,35 L32.6666667,35 L32.6666667,32.6666667 L37.3333333,32.6666667 L37.3333333,35 Z M63,35 L51.3333333,35 L51.3333333,32.6666667 L63,32.6666667 L63,35 Z" id="Shape" fill-rule="nonzero"></path>
                <path d="M28.3418333,6.17516667 L21.3418333,13.1751667 C20.8863877,13.6307498 20.8863877,14.3692502 21.3418333,14.8248333 L28.3418333,21.8248333 L29.9915,20.1751667 L23.8163333,14 L29.9915,7.82483333 L28.3418333,6.17516667 Z" id="Path"></path>
                <path d="M41.6581667,6.17516667 L40.0085,7.82483333 L46.1836667,14 L40.0085,20.1751667 L41.6581667,21.8248333 L48.6581667,14.8248333 C49.1136123,14.3692502 49.1136123,13.6307498 48.6581667,13.1751667 L41.6581667,6.17516667 Z" id="Path"></path>
                <polygon id="Rectangle" transform="translate(34.999474, 13.999462) rotate(-71.547000) translate(-34.999474, -13.999462) " points="23.9313069 12.8333785 46.0676402 12.8333785 46.0676402 15.1655452 23.9313069 15.1655452"></polygon>
            </g>
        </g>
    </g>
</svg>