<?xml version="1.0" encoding="UTF-8"?>
<svg width="25px" height="25px" viewBox="0 0 25 25" version="1.1" xmlns="http://www.w3.org/2000/svg" xmlns:xlink="http://www.w3.org/1999/xlink">
    <!-- Generator: Sketch 52.6 (67491) - http://www.bohemiancoding.com/sketch -->
    <title>Shape</title>
    <desc>Created with Sketch.</desc>
    <g id="Письма" stroke="none" stroke-width="1" fill="none" fill-rule="evenodd">
        <g id="Mirroz_list_desktop" transform="translate(-503.000000, -23.000000)" fill="#FFFFFF" fill-rule="nonzero">
            <path d="M526.232387,40.9712342 C525.494499,40.2335331 524.259737,39.5895827 522.313259,38.6159423 C521.332012,38.1253135 519.698815,37.3090962 519.302918,36.9352651 C520.96092,34.8973586 521.923221,32.5955828 521.923221,30.5807233 C521.923221,29.2135251 521.923221,27.5121446 521.15799,25.99475 C520.468148,24.6281377 518.926552,23 515.500391,23 C512.073449,23 510.531853,24.6281377 509.842792,25.9945546 C509.076584,27.5121446 509.076584,29.2133298 509.076584,30.580528 C509.076584,32.5961687 510.038104,34.8973586 511.697083,36.9350698 C511.30021,37.3096821 509.667207,38.1260947 508.68596,38.615747 C506.740068,39.5891921 505.505307,40.2331424 504.766833,40.9710388 C503.132268,42.6067938 503.008635,45.3511512 503.000237,45.8851397 C502.991838,46.4421753 503.207072,46.9806561 503.599258,47.3789014 C503.989882,47.7755842 504.525622,48 505.082652,48 L525.916372,48 C526.474964,48 527.009338,47.7757795 527.400742,47.3789014 C527.792147,46.9806561 528.008162,46.44198 527.999764,45.8843585 C527.991366,45.3513465 527.866757,42.6069891 526.232387,40.9712342 Z M526.288051,46.2820178 C526.188832,46.3820186 526.056802,46.4376831 525.916372,46.4376831 L505.082652,46.4376831 C504.944566,46.4376831 504.809606,46.3812374 504.712536,46.2820178 C504.615661,46.1835796 504.560779,46.0478363 504.562146,45.908968 C504.566638,45.6472472 504.638513,43.3103149 505.871712,42.0767115 C506.441046,41.5075665 507.632839,40.8903741 509.384981,40.0136095 C511.255288,39.0790319 512.292394,38.5219963 512.770127,38.0704302 L513.824615,37.0733521 L512.908993,35.948734 C511.466811,34.1772358 510.638884,32.2201892 510.638884,30.5807233 C510.638884,29.3164556 510.638884,27.8844132 511.237124,26.698857 C511.953528,25.2812678 513.386531,24.5625122 515.500391,24.5625122 C517.612493,24.5625122 519.047059,25.2812678 519.762877,26.6980758 C520.361117,27.8844132 520.361117,29.3164556 520.361117,30.5807233 C520.361117,32.2196033 519.533972,34.1764545 518.090031,35.948734 L517.174409,37.0741334 L518.229093,38.0706256 C518.70663,38.5216056 519.742955,39.0784459 521.614043,40.0138048 C523.366185,40.8895929 524.557978,41.5069805 525.127312,42.0769069 C526.130825,43.080235 526.423011,44.9577887 526.436683,45.9091634 C526.439222,46.0478363 526.384926,46.1835796 526.288051,46.2820178 Z" id="Shape"></path>
        </g>
    </g>
</svg>