<?xml version="1.0" encoding="UTF-8"?>
<svg width="220px" height="40px" viewBox="0 0 220 40" version="1.1" xmlns="http://www.w3.org/2000/svg" xmlns:xlink="http://www.w3.org/1999/xlink">
    <!-- Generator: sketchtool 52.6 (67491) - http://www.bohemiancoding.com/sketch -->
    <title>A7C6499E-852E-4ADA-83A1-5D67D0EBBFAB</title>
    <desc>Created with sketchtool.</desc>
    <g id="Письма" stroke="none" stroke-width="1" fill="none" fill-rule="evenodd">
        <g id="VseVsem_list_desktop" transform="translate(-20.000000, -16.000000)">
            <g id="все-всем-лого" transform="translate(20.000000, 16.000000)">
                <path d="M24.3,13.4 L24.3,11.2 L22.1,11.2 L22.1,9 L0.1,9 L0.1,39.75 L22.1,39.75 L22.1,37.55 L24.3,37.55 L24.3,35.35 L26.5,35.35 L26.5,26.55 L24.3,26.55 L24.3,22.15 L26.5,22.15 L26.5,13.35 L24.3,13.35 L24.3,13.4 Z M22.1,33.2 L19.9,33.2 L19.9,35.4 L4.5,35.4 L4.5,26.6 L19.9,26.6 L19.9,28.8 L22.1,28.8 L22.1,33.2 Z M22.1,20 L19.9,20 L19.9,22.2 L4.5,22.2 L4.5,13.4 L19.9,13.4 L19.9,15.6 L22.1,15.6 L22.1,20 Z" id="Shape" fill="#FFFFFF" fill-rule="nonzero"></path>
                <polygon id="Path" fill="#FFFFFF" points="57.25 17.8 57.25 13.4 55.05 13.4 55.05 11.2 52.85 11.2 52.85 9 35.3 9 35.3 11.2 33.1 11.2 33.1 13.4 30.9 13.4 30.9 35.4 33.1 35.4 33.1 37.6 35.3 37.6 35.3 39.8 52.85 39.8 52.85 37.6 55.05 37.6 55.05 35.4 57.25 35.4 57.25 31 52.85 31 52.85 33.2 50.65 33.2 50.65 35.4 37.5 35.4 37.5 33.2 35.3 33.2 35.3 15.6 37.5 15.6 37.5 13.4 50.65 13.4 50.65 15.6 52.85 15.6 52.85 17.8"></polygon>
                <polygon id="Path" fill="#FFFFFF" points="215.45 9 215.45 13.4 213.25 13.4 213.25 15.6 211.05 15.6 211.05 17.8 208.85 17.8 208.85 20 206.7 20 206.7 22.2 204.5 22.2 204.5 22.2 202.3 22.2 202.3 20 200.1 20 200.1 17.8 197.9 17.8 197.9 15.6 195.7 15.6 195.7 13.4 193.5 13.4 193.5 9.05 189.1 9.05 189.1 39.8 193.5 39.8 193.5 20 195.7 20 195.7 22.2 197.9 22.2 197.9 24.4 200.1 24.4 200.1 26.6 202.3 26.6 202.3 31 206.7 31 206.7 26.6 208.85 26.6 208.85 24.4 211.05 24.4 211.05 22.2 213.25 22.2 213.25 20 215.45 20 215.45 39.8 219.85 39.8 219.85 9"></polygon>
                <g id="Group" transform="translate(61.500000, 0.000000)" fill="#FFFFFF">
                    <polygon id="Path" points="4.55 9 4.55 11.2 2.35 11.2 2.35 13.4 0.15 13.4 0.15 35.4 2.35 35.4 2.35 37.6 4.55 37.6 4.55 39.8 22.15 39.8 22.15 35.4 6.75 35.4 6.75 33.2 4.55 33.2 4.55 26.6 22.15 26.6 22.15 22.2 4.55 22.2 4.55 15.6 6.75 15.6 6.75 13.4 22.15 13.4 22.15 9"></polygon>
                    <rect id="Rectangle" x="17.75" y="0.2" width="4.4" height="4.4"></rect>
                    <rect id="Rectangle" x="4.55" y="0.2" width="4.4" height="4.4"></rect>
                </g>
                <path d="M125.35,13.4 L125.35,11.2 L123.15,11.2 L123.15,9 L101.15,9 L101.15,39.75 L123.15,39.75 L123.15,37.55 L125.35,37.55 L125.35,35.35 L127.55,35.35 L127.55,26.55 L125.35,26.55 L125.35,22.15 L127.55,22.15 L127.55,13.35 L125.35,13.35 L125.35,13.4 Z M123.15,33.2 L120.95,33.2 L120.95,35.4 L118.75,35.4 L114.35,35.4 L109.95,35.4 L105.55,35.4 L105.55,31 L105.55,26.6 L109.95,26.6 L114.35,26.6 L118.75,26.6 L120.95,26.6 L120.95,28.8 L123.15,28.8 L123.15,31 L123.15,33.2 Z M123.15,20 L120.95,20 L120.95,22.2 L118.75,22.2 L114.35,22.2 L109.95,22.2 L105.55,22.2 L105.55,17.8 L105.55,13.4 L109.95,13.4 L114.35,13.4 L118.75,13.4 L120.95,13.4 L120.95,15.6 L123.15,15.6 L123.15,17.8 L123.15,20 Z" id="Shape" fill="#FFFFFF" fill-rule="nonzero"></path>
                <polygon id="Path" fill="#FFFFFF" points="158.3 17.8 158.3 13.4 156.1 13.4 156.1 11.2 153.95 11.2 153.95 9 136.35 9 136.35 11.2 134.15 11.2 134.15 13.4 131.95 13.4 131.95 35.4 134.15 35.4 134.15 37.6 136.35 37.6 136.35 39.8 153.95 39.8 153.95 37.6 156.1 37.6 156.1 35.4 158.3 35.4 158.3 31 153.95 31 153.95 33.2 151.75 33.2 151.75 35.4 138.55 35.4 138.55 33.2 136.35 33.2 136.35 15.6 138.55 15.6 138.55 13.4 151.75 13.4 151.75 15.6 153.95 15.6 153.95 17.8"></polygon>
                <polygon id="Path" fill="#FFFFFF" points="167.1 15.6 169.3 15.6 169.3 13.4 184.7 13.4 184.7 9 167.1 9 167.1 11.2 164.9 11.2 164.9 13.4 162.7 13.4 162.7 35.4 164.9 35.4 164.9 37.6 167.1 37.6 167.1 39.8 184.7 39.8 184.7 35.4 169.3 35.4 169.3 33.2 167.1 33.2 167.1 26.6 184.7 26.6 184.7 22.2 167.1 22.2"></polygon>
                <rect id="Rectangle" fill="#42B02B" x="6.45" y="28.05" width="2.8" height="5.95"></rect>
                <rect id="Rectangle" fill="#42B02B" x="15.55" y="28.05" width="2.8" height="5.95"></rect>
                <rect id="Rectangle" fill="#42B02B" x="11.05" y="28.05" width="2.8" height="5.95"></rect>
                <rect id="Rectangle" fill="#42B02B" x="6.4" y="14.85" width="2.8" height="5.95"></rect>
                <rect id="Rectangle" fill="#42B02B" x="15.5" y="14.85" width="2.8" height="5.95"></rect>
                <rect id="Rectangle" fill="#42B02B" x="11" y="14.85" width="2.8" height="5.95"></rect>
            </g>
        </g>
    </g>
</svg>