<?xml version="1.0" encoding="UTF-8"?>
<svg width="30px" height="30px" viewBox="0 0 30 30" version="1.1" xmlns="http://www.w3.org/2000/svg" xmlns:xlink="http://www.w3.org/1999/xlink">
    <!-- Generator: Sketch 52.6 (67491) - http://www.bohemiancoding.com/sketch -->
    <title>gvozd</title>
    <desc>Created with Sketch.</desc>
    <g id="Мир-роз" stroke="none" stroke-width="1" fill="none" fill-rule="evenodd">
        <g id="Главная" transform="translate(-1428.000000, -578.000000)" fill="#0AB1B0" fill-rule="nonzero">
            <g id="gvozd" transform="translate(1428.000000, 578.000000)">
                <path d="M29.7848837,10.1929134 C29.4069767,8.68110236 28.3662791,7.51771654 26.9302326,6.98622047 C27,5.84645669 26.7209302,4.70669291 26.1162791,3.69094488 C25.5232558,2.68700787 24.6686047,1.87204724 23.6395349,1.32874016 C22.6395349,0.797244094 21.5232558,0.561023622 20.4069767,0.631889764 C19.2965116,0.702755906 18.244186,1.08661417 17.3488372,1.73622047 C16.3255814,0.549212598 14.7790698,-0.0885826772 13.1976744,0.0236220472 C11.7325581,0.12992126 10.4476744,0.87992126 9.6744186,2.08464567 C7.96511628,1.55905512 6.11046512,1.91929134 4.5755814,3.07086614 C2.97093023,4.27559055 2.01744186,6.14173228 2.01162791,8.05511811 C0.906976744,8.92913386 0.197674419,10.234252 0.0697674419,11.6397638 C-0.0465116279,12.9330709 0.343023256,14.1614173 1.16860465,15.1122047 C0.406976744,16.1279528 0.122093023,17.4271654 0.377906977,18.773622 C0.691860465,20.4153543 1.76162791,21.9566929 3.18604651,22.8011811 C3.41860465,24.0413386 4.0755814,25.1397638 5.04069767,25.9015748 C6.02906977,26.6751969 7.23255814,27.011811 8.44186047,26.8346457 C8.76162791,27.773622 9.38372093,28.5649606 10.255814,29.1259843 C11.0697674,29.6574803 12.0813953,29.9586614 13.0988372,29.988189 C13.1511628,29.988189 13.1976744,29.988189 13.244186,29.988189 C15.3081395,29.988189 17.2267442,28.8897638 18.1802326,27.1476378 C19.7965116,28.1751969 21.8953488,28.0570866 23.5523256,26.8405512 C25.1802326,25.6417323 25.9011628,23.746063 25.4418605,21.8917323 C27.8139535,20.757874 28.4360465,17.8523622 27.8139535,15.6614173 C29.494186,14.5275591 30.3081395,12.2893701 29.7848837,10.1929134 Z M24.6686047,21.1299213 C24.5465116,21.1712598 24.4418605,21.265748 24.3837209,21.3897638 C24.3255814,21.507874 24.3197674,21.6496063 24.3662791,21.773622 C24.7093023,22.7480315 24.6337209,23.7814961 24.1686047,24.6909449 C23.7093023,25.5826772 22.9244186,26.261811 21.9534884,26.6161417 C20.9418605,26.9822835 19.9186047,26.9173228 19,26.4271654 C18.1511628,25.9783465 17.4418605,25.1870079 16.994186,24.1948819 C17.1104651,24.0472441 17.2151163,23.8877953 17.3139535,23.7283465 C18.2965116,24.1003937 19.3546512,24.1003937 20.377907,23.7224409 C21.4476744,23.3267717 22.4127907,22.5472441 23.1046512,21.519685 C23.8546512,20.4035433 24.2034884,19.0866142 24.0988372,17.8110236 C23.9883721,16.4409449 23.3488372,15.1594488 22.2616279,14.0905512 C22.4011628,13.6062992 22.4244186,13.0866142 22.3313953,12.5728346 C24.2209302,12.5905512 26.4127907,13.5885827 26.9593023,16.3464567 C27.4418605,18.7854331 26.1744186,20.5984252 24.6686047,21.1299213 Z M2.20348837,15.4370079 C2.29069767,15.3425197 2.34302326,15.2066929 2.3372093,15.0767717 C2.33139535,14.9468504 2.27906977,14.8169291 2.18023256,14.7224409 C1.46511628,14.0374016 1.05813953,13.1161417 1.04069767,12.1240157 C1.02325581,11.0964567 1.4244186,10.0688976 2.14534884,9.28937008 C2.44767442,10.7362205 3.26744186,12.0708661 4.58139535,13.2637795 C4.41860465,13.6299213 4.30232558,14.019685 4.23837209,14.4330709 C4.04069767,15.6437008 4.26162791,17.0137795 4.85465116,18.1889764 C5.61627907,19.7066929 6.91860465,20.7992126 8.43604651,21.1889764 C8.44186047,21.3838583 8.45348837,21.5787402 8.48255814,21.7677165 C6.80232558,22.765748 4.20348837,23.0964567 2.34883721,20.7519685 C0.802325581,18.8090551 1.10465116,16.6062992 2.20348837,15.4370079 Z M12.8546512,18.8090551 C12.9825581,18.7795276 13.0930233,18.6968504 13.1569767,18.5787402 C13.2267442,18.4665354 13.244186,18.3307087 13.2151163,18.2007874 C13.1511628,17.9291339 12.8837209,17.769685 12.6162791,17.8346457 C11.5406977,18.1062992 10.0639535,17.8523622 9.44186047,16.257874 C8.9127907,14.8996063 9.47674419,13.8307087 10.2151163,13.4114173 C10.3313953,13.3464567 10.4127907,13.234252 10.4476744,13.1102362 C10.4825581,12.980315 10.4651163,12.8444882 10.4011628,12.726378 C10.122093,12.2244094 10.0639535,11.6456693 10.244186,11.0964567 C10.4360465,10.5 10.8837209,10.0098425 11.4709302,9.74409449 C12.7383721,9.17716535 13.8837209,10.0216535 14.4593023,11.1141732 C14.5872093,11.3562992 14.8895349,11.4507874 15.127907,11.3208661 C15.3662791,11.1909449 15.4593023,10.8838583 15.3313953,10.6417323 C15.0755814,10.1574803 14.7674419,9.74409449 14.4186047,9.41929134 C15.0813953,8.77559055 16.1918605,8.55708661 17.1569767,8.89370079 C17.9534884,9.17125984 18.4593023,9.77952756 18.5465116,10.5590551 C18.5639535,10.6889764 18.627907,10.8129921 18.7325581,10.8956693 C18.8372093,10.9783465 18.9651163,11.0137795 19.0988372,11.0019685 C20.2267442,10.8661417 20.9476744,11.6515748 21.2209302,12.3720472 C21.5174419,13.1574803 21.4302326,14.2204724 20.5813953,14.8641732 C20.3953488,14.5866142 20.1627907,14.3208661 19.9011628,14.0787402 C19.6976744,13.8956693 19.3837209,13.9133858 19.2034884,14.1200787 C19.1162791,14.2204724 19.0697674,14.3503937 19.0755814,14.480315 C19.0813953,14.6161417 19.1395349,14.7401575 19.2383721,14.8287402 C20.0639535,15.5787402 20.6918605,16.9606299 19.744186,18.3838583 C18.9360465,19.5885827 17.75,19.7244094 16.9883721,19.3346457 C16.872093,19.2755906 16.7325581,19.2637795 16.6104651,19.3110236 C16.4883721,19.3523622 16.3837209,19.4468504 16.3255814,19.5649606 C15.9302326,20.3799213 15.0697674,20.8051181 14.122093,20.6456693 C13.1802326,20.4862205 12.4883721,19.8129921 12.3488372,18.9212598 C12.5174419,18.8858268 12.6860465,18.8503937 12.8546512,18.8090551 Z M13.1337209,24.9212598 C12.1802326,24.8622047 11.2732558,24.4665354 10.5872093,23.8051181 C9.89534884,23.1437008 9.48255814,22.2755906 9.4244186,21.3425197 C10.3430233,21.4015748 11.3197674,21.2362205 12.3313953,20.8464567 C13.0232558,21.4665354 13.9825581,21.773622 14.9069767,21.6555118 C15.7674419,21.5492126 16.5,21.1003937 16.9767442,20.3976378 C18.0697674,20.746063 19.1860465,20.4330709 20.0581395,19.5354331 C21.0465116,18.5137795 21.4360465,17.0019685 21.0290698,15.761811 C21.3255814,15.5610236 21.5813953,15.3188976 21.7848837,15.0413386 C22.4651163,15.7972441 22.9186047,16.7066929 23.0697674,17.6220472 C23.255814,18.7677165 22.994186,19.8838583 22.2790698,20.9527559 C20.9011628,23.0137795 18.7383721,23.3622047 17.3139535,22.6358268 C17.1976744,22.5767717 17.0581395,22.5649606 16.9360465,22.6122047 C16.8139535,22.6535433 16.7093023,22.7480315 16.6511628,22.8661417 C15.9883721,24.230315 14.6453488,25.015748 13.1337209,24.9212598 Z M20.9825581,7.8011811 C21,7.93110236 21.0639535,8.05511811 21.1686047,8.13779528 C21.2732558,8.22047244 21.4011628,8.25590551 21.5348837,8.24409449 C22.6511628,8.10826772 23.7093023,8.48031496 24.5174419,9.29527559 C25.3546512,10.1456693 25.7848837,11.3622047 25.6744186,12.5787402 C24.7383721,11.9173228 23.5872093,11.5748031 22.3255814,11.5748031 C22.2151163,11.5748031 22.0988372,11.5748031 21.9825581,11.5807087 C21.4651163,10.6122047 20.5,10.003937 19.4534884,9.98031496 C19.2383721,9.20669291 18.7093023,8.55708661 17.9534884,8.16141732 C17.0523256,7.68307087 15.9127907,7.6003937 14.9593023,7.94291339 C14.5116279,7.13976378 13.9767442,6.47834646 13.3662791,5.97637795 C14.5116279,4.7007874 16.6162791,4.19291339 18.4011628,4.75984252 C19.877907,5.22637795 20.8197674,6.33661417 20.9825581,7.8011811 Z M15.5755814,3.6023622 C14.372093,3.85629921 13.2906977,4.49409449 12.5290698,5.40354331 C11.1337209,4.6476378 9.44767442,4.68307087 8.01162791,5.4980315 C7.89534884,5.56299213 7.81395349,5.66929134 7.77906977,5.7992126 C7.74418605,5.92913386 7.75581395,6.06496063 7.8255814,6.18307087 C7.89534884,6.3011811 7.99418605,6.38385827 8.12209302,6.41929134 C8.25,6.45472441 8.38372093,6.44291339 8.5,6.37204724 C9.41860465,5.8523622 10.4360465,5.74606299 11.4418605,6.06496063 C12.5639535,6.41929134 13.5290698,7.26377953 14.0930233,8.38582677 C13.9127907,8.51574803 13.744186,8.66929134 13.5930233,8.83464567 C12.4767442,8.30314961 11.1337209,8.5511811 10.1686047,9.46653543 C9.22093023,10.3700787 8.90697674,11.6397638 9.35465116,12.7913386 C8.38953488,13.5649606 8.02906977,14.7992126 8.38372093,16.0984252 C8.79069767,17.5807087 10.005814,18.726378 11.3546512,18.9094488 C11.3953488,19.2992126 11.5116279,19.6712598 11.6918605,20.0137795 C10.4476744,20.4330709 9.25581395,20.4507874 8.24418605,20.0728346 C7.18604651,19.6771654 6.29069767,18.8444882 5.73837209,17.7283465 C4.80232558,15.8562992 4.91860465,13.3051181 6.73837209,12.2716535 C6.85465116,12.2066929 6.93604651,12.0944882 6.97093023,11.9704724 C7.00581395,11.8405512 6.98837209,11.7047244 6.9244186,11.5866142 C6.15697674,10.2224409 6.28488372,8.66929134 7.26744186,7.42913386 C7.43604651,7.21062992 7.40697674,6.8976378 7.19186047,6.72047244 C7.09883721,6.64370079 6.98837209,6.60826772 6.88372093,6.60826772 C6.73837209,6.60826772 6.59302326,6.67322835 6.5,6.79724409 C5.35465116,8.24409449 5.12209302,10.0098425 5.85465116,11.6515748 C5.58139535,11.8582677 5.33139535,12.1003937 5.11627907,12.3779528 C3.02906977,10.4232283 2.45348837,7.77165354 3.63953488,5.61023622 C4.22093023,4.54724409 5.15116279,3.70866142 6.25581395,3.24212598 C7.39534884,2.75787402 8.62790698,2.72834646 9.72093023,3.15944882 C9.95348837,3.2480315 10.2151163,3.15354331 10.3372093,2.92913386 C10.9069767,1.85433071 11.9302326,1.16338583 13.1511628,1.02755906 C14.4534884,0.885826772 15.7325581,1.38779528 16.5930233,2.37992126 C16.2267442,2.73425197 15.8895349,3.1476378 15.5755814,3.6023622 Z M8.72093023,22.7775591 C9.25,24.2007874 10.4883721,25.3051181 12.0465116,25.7362205 C13.5523256,26.1555118 15.1162791,25.8602362 16.25,24.9507874 C16.5639535,25.5649606 16.9476744,26.0905512 17.3837209,26.5216535 C16.6860465,27.8976378 15.3197674,28.8129921 13.7093023,28.9606299 C11.2674419,29.1909449 9.62790698,27.7204724 9.26744186,26.1437008 C9.23837209,26.0137795 9.15697674,25.9015748 9.04651163,25.8307087 C8.96511628,25.7834646 8.87790698,25.753937 8.78488372,25.753937 C8.74418605,25.753937 8.70930233,25.7598425 8.66860465,25.765748 C6.8255814,26.2086614 5.02325581,25.1811024 4.3372093,23.3149606 C5.74418605,23.7519685 7.29069767,23.5629921 8.72093023,22.7775591 Z M25.6686047,9.08858268 C24.755814,7.83070866 23.4186047,7.16338583 21.8837209,7.20472441 C21.6453488,6.1003937 21,5.15551181 20.0116279,4.47047244 C19.127907,3.85629921 18.0348837,3.50787402 16.9186047,3.47834646 C17.6162791,2.68700787 18.494186,2.11417323 19.4709302,1.82480315 C20.5116279,1.51771654 21.5930233,1.55905512 22.5930233,1.9488189 C24.8139535,2.80511811 26.2034884,5.04330709 25.8953488,7.26968504 C25.8604651,7.51771654 26.0174419,7.75984252 26.255814,7.82480315 C27.5174419,8.17322835 28.4709302,9.18307087 28.8081395,10.5177165 C29.1627907,11.9409449 28.7616279,13.4350394 27.75,14.4153543 C27.6511628,14.5098425 27.5406977,14.6043307 27.4302326,14.6929134 C27.1918605,14.1968504 26.8895349,13.742126 26.5290698,13.3464567 C26.877907,11.8996063 26.5523256,10.3051181 25.6686047,9.08858268 Z" id="Shape"></path>
            </g>
        </g>
    </g>
</svg>