<?xml version="1.0" encoding="UTF-8"?>
<svg width="26px" height="30px" viewBox="0 0 26 30" version="1.1" xmlns="http://www.w3.org/2000/svg" xmlns:xlink="http://www.w3.org/1999/xlink">
    <!-- Generator: Sketch 52.6 (67491) - http://www.bohemiancoding.com/sketch -->
    <title>hris</title>
    <desc>Created with Sketch.</desc>
    <g id="Мир-роз" stroke="none" stroke-width="1" fill="none" fill-rule="evenodd">
        <g id="Главная" transform="translate(-1043.000000, -578.000000)" fill="#0AB1B0" fill-rule="nonzero">
            <g id="hris" transform="translate(1043.000000, 578.000000)">
                <path d="M5.80451467,23.1117647 L6.26230248,22.9941176 L6.3268623,23.4588235 C6.33273138,23.5 6.33860045,23.5411765 6.34446953,23.5764706 C6.51467269,24.5941176 6.89029345,25.1647059 6.90790068,25.1882353 L7.03702032,25.3823529 L7.2717833,25.4 C7.27765237,25.4 7.31286682,25.4 7.37155756,25.4 C7.58871332,25.4 8.17562077,25.3705882 8.94446953,25.0823529 C8.97968397,25.0705882 9.02076749,25.0529412 9.05598194,25.0411765 L9.49029345,24.8647059 L9.61941309,25.3176471 C10.5819413,28.7588235 12.7241535,29.8352941 12.8121896,29.8823529 L13.0234763,29.9823529 L13.234763,29.8823529 C13.3227991,29.8352941 15.4650113,28.7588235 16.4275395,25.3176471 L16.5566591,24.8647059 L16.9909707,25.0411765 C17.0261851,25.0588235 17.0672686,25.0705882 17.1024831,25.0823529 C17.8654628,25.3705882 18.4582393,25.4 18.675395,25.4 C18.7340858,25.4 18.7693002,25.4 18.7810384,25.4 L19.0158014,25.3823529 L19.144921,25.1882353 C19.1625282,25.1647059 19.538149,24.5941176 19.7083521,23.5764706 C19.7142212,23.5352941 19.7200903,23.5 19.7259594,23.4588235 L19.7905192,22.9941176 L20.2424379,23.1117647 C21.0288939,23.3117647 21.7977427,23.4176471 22.537246,23.4176471 C24.585553,23.4176471 25.7300226,22.6529412 25.7769752,22.6235294 L25.9706546,22.4941176 L25.9882619,22.2588235 C25.9941309,22.1588235 26.1349887,19.7588235 23.6465011,17.2058824 L23.317833,16.8705882 L23.6875847,16.5764706 C23.71693,16.5529412 23.7521445,16.5235294 23.7814898,16.5 C24.5738149,15.8470588 24.8790068,15.2294118 24.8907449,15.2058824 L24.9905192,14.9941176 L24.8907449,14.7823529 C24.8790068,14.7588235 24.5738149,14.1411765 23.7814898,13.4882353 C23.7521445,13.4647059 23.7227991,13.4411765 23.6875847,13.4117647 L23.317833,13.1235294 L23.6465011,12.7882353 C26.1349887,10.2352941 26,7.83529412 25.9882619,7.73529412 L25.9706546,7.5 L25.7769752,7.37058824 C25.6948081,7.31176471 23.6875847,5.99411765 20.2365688,6.87647059 L19.7846501,6.99411765 L19.7142212,6.52941176 C19.7083521,6.48823529 19.7024831,6.44705882 19.696614,6.41176471 C19.5264108,5.39411765 19.144921,4.82352941 19.1331828,4.8 L19.0040632,4.60588235 L18.7693002,4.58823529 C18.7399549,4.58823529 18.0591422,4.54117647 17.096614,4.90588235 C17.0613995,4.91764706 17.020316,4.93529412 16.9851016,4.94705882 L16.5507901,5.12352941 L16.4216704,4.67058824 C15.4591422,1.22941176 13.31693,0.152941176 13.2288939,0.105882353 L13.0176072,0.00588235294 L12.8063205,0.105882353 C12.7182844,0.152941176 10.5760722,1.22941176 9.61354402,4.67058824 L9.48442438,5.12352941 L9.05011287,4.94705882 C9.01489842,4.92941176 8.9738149,4.91764706 8.93860045,4.90588235 C7.97607223,4.54705882 7.29525959,4.58823529 7.26591422,4.58823529 L7.03115124,4.60588235 L6.9020316,4.8 C6.88442438,4.82352941 6.50880361,5.39411765 6.33860045,6.41176471 C6.33273138,6.45294118 6.3268623,6.48823529 6.32099323,6.52941176 L6.25643341,6.99411765 L5.80451467,6.87647059 C2.35349887,5.99411765 0.346275395,7.31176471 0.264108352,7.37058824 L0.0704288939,7.5 L0.0528216704,7.73529412 C0.0469525959,7.83529412 -0.0939051919,10.2352941 2.39458239,12.7882353 L2.72325056,13.1235294 L2.35349887,13.4176471 C2.3241535,13.4411765 2.28893905,13.4647059 2.25959368,13.4941176 C1.46726862,14.1470588 1.16207675,14.7647059 1.1503386,14.7882353 L1.05056433,15 L1.1503386,15.2117647 C1.16207675,15.2352941 1.46726862,15.8529412 2.25959368,16.5058824 C2.28893905,16.5294118 2.31828442,16.5529412 2.35349887,16.5823529 L2.72325056,16.8764706 L2.39458239,17.2117647 C-0.0939051919,19.7647059 0.0410835214,22.1647059 0.0528216704,22.2647059 L0.0704288939,22.5 L0.264108352,22.6294118 C0.311060948,22.6647059 1.46139955,23.4235294 3.50383747,23.4235294 C4.24920993,23.4176471 5.02392777,23.3117647 5.80451467,23.1117647 Z M7.94672686,24.3764706 L7.58284424,24.4470588 L7.46546275,24.0941176 C7.25417607,23.4647059 6.99593679,22.1352941 7.64740406,20.2705882 L7.73544018,20.0117647 L8.01128668,19.9882353 C8.68036117,19.9352941 9.37291196,19.7470588 10.0772009,19.4352941 L10.6054176,19.2 L10.6699774,19.7764706 C10.7521445,20.5411765 10.9399549,21.2411765 11.2275395,21.8470588 L11.344921,22.0941176 L11.1688488,22.3 C9.8717833,23.8058824 8.59232506,24.2470588 7.94672686,24.3764706 Z M15.6293454,24.6 C15.0835214,26.9823529 13.9331828,28.1882353 13.2993228,28.6941176 L13.0352144,28.9058824 L12.7711061,28.6941176 C12.131377,28.1823529 10.9810384,26.9647059 10.4410835,24.6 L10.3823928,24.3352941 L10.5995485,24.1705882 C10.951693,23.9 11.2979684,23.5941176 11.6207675,23.2470588 L11.9083521,22.9411765 L12.213544,23.2294118 C12.5539503,23.5529412 12.8239278,23.6823529 12.8239278,23.6823529 L13.0352144,23.7823529 L13.2465011,23.6823529 C13.2465011,23.6823529 13.5164786,23.5470588 13.8568849,23.2294118 L14.1620767,22.9411765 L14.4496614,23.2470588 C14.7724605,23.5882353 15.1187359,23.9 15.4708804,24.1705882 L15.6880361,24.3352941 L15.6293454,24.6 Z M18.5990971,24.1 L18.4817156,24.4529412 L18.117833,24.3823529 C17.4722348,24.2529412 16.1927765,23.8117647 14.9015801,22.3058824 L14.7255079,22.1 L14.8428894,21.8529412 C15.130474,21.2470588 15.3182844,20.5529412 15.4004515,19.7823529 L15.4650113,19.2058824 L15.993228,19.4411765 C16.6975169,19.7529412 17.3900677,19.9411765 18.0591422,19.9941176 L18.3349887,20.0176471 L18.4230248,20.2764706 C19.0744921,22.1470588 18.8103837,23.4764706 18.5990971,24.1 Z M25.0081264,21.6176471 L25.055079,21.9470588 L24.7440181,22.0705882 C24.3038375,22.2470588 23.5702032,22.4529412 22.5724605,22.4529412 C21.8564334,22.4529412 21.0112867,22.3470588 20.0370203,22.0470588 L19.778781,21.9647059 L19.7435666,21.6941176 C19.6907449,21.2529412 19.5909707,20.8 19.4559819,20.3529412 L19.3386005,19.9529412 L19.7376975,19.8294118 C20.172009,19.6941176 20.4126411,19.5411765 20.4361174,19.5235294 L20.6297968,19.3941176 L20.6474041,19.1588235 C20.6474041,19.1588235 20.6650113,18.8588235 20.5593679,18.4 L20.4654628,17.9882353 L20.876298,17.8941176 C21.3340858,17.7882353 21.7742664,17.6411765 22.1851016,17.4705882 L22.4374718,17.3647059 L22.6370203,17.5529412 C24.421219,19.2058824 24.8848758,20.8117647 25.0081264,21.6176471 Z M23.6875847,14.7117647 L23.9340858,14.9941176 L23.6875847,15.2705882 C23.2474041,15.7705882 22.2261851,16.6588235 20.2893905,17.0235294 L20.0194131,17.0764706 L19.8609481,16.8529412 C19.4794582,16.3 18.9747178,15.7941176 18.3525959,15.3352941 L17.88307,14.9941176 L18.3525959,14.6529412 C18.9747178,14.2 19.4853273,13.6882353 19.8609481,13.1352941 L20.0194131,12.9117647 L20.2893905,12.9647059 C22.2320542,13.3235294 23.2532731,14.2117647 23.6875847,14.7117647 Z M19.4559819,9.62941176 C19.5909707,9.17647059 19.6848758,8.72352941 19.7435666,8.28823529 L19.778781,8.01764706 L20.0370203,7.93529412 C22.3670429,7.21764706 23.9869074,7.61176471 24.738149,7.91176471 L25.0492099,8.03529412 L24.9963883,8.37058824 C24.8731377,9.18235294 24.3977427,10.7882353 22.6252822,12.4411765 L22.4257336,12.6294118 L22.1733634,12.5235294 C21.7625282,12.3529412 21.3223476,12.2058824 20.8645598,12.1 L20.4537246,12.0058824 L20.5476298,11.5941176 C20.6532731,11.1352941 20.6356659,10.8411765 20.6356659,10.8352941 L20.6180587,10.6 L20.4243792,10.4705882 C20.4009029,10.4529412 20.1602709,10.2941176 19.7259594,10.1647059 L19.3268623,10.0411765 L19.4559819,9.62941176 Z M18.117833,5.6 L18.4817156,5.52941176 L18.5990971,5.88235294 C18.8103837,6.51176471 19.068623,7.84117647 18.4171558,9.70588235 L18.3291196,9.96470588 L18.0532731,9.98823529 C17.3841986,10.0411765 16.6916479,10.2294118 15.9873589,10.5411765 L15.4591422,10.7764706 L15.3945824,10.2 C15.3124153,9.43529412 15.124605,8.73529412 14.8370203,8.12941176 L14.7196388,7.88235294 L14.8957111,7.67647059 C16.1927765,6.17058824 17.4722348,5.72941176 18.117833,5.6 Z M10.4352144,5.38235294 C10.9810384,2.99411765 12.131377,1.78823529 12.765237,1.28235294 L13.0293454,1.07647059 L13.2934537,1.28235294 C13.9331828,1.78823529 15.0776524,2.99411765 15.6234763,5.38235294 L15.682167,5.64705882 L15.4650113,5.81176471 C15.1128668,6.08235294 14.7665914,6.38823529 14.4437923,6.73529412 L14.1562077,7.04117647 L13.8510158,6.75294118 C13.5106095,6.42941176 13.2406321,6.3 13.2406321,6.3 L13.0293454,6.2 L12.8180587,6.3 C12.8180587,6.3 12.5480813,6.43529412 12.2076749,6.75294118 L11.9024831,7.04117647 L11.6148984,6.73529412 C11.2920993,6.39411765 10.9458239,6.08235294 10.5936795,5.81176471 L10.3765237,5.64705882 L10.4352144,5.38235294 Z M7.46546275,5.88235294 L7.58284424,5.52941176 L7.94672686,5.60588235 C8.59819413,5.73529412 9.87765237,6.18235294 11.1629797,7.68235294 L11.3390519,7.88823529 L11.2216704,8.13529412 C10.9340858,8.74117647 10.7462754,9.43529412 10.6641084,10.2058824 L10.5995485,10.7823529 L10.0713318,10.5470588 C9.36704289,10.2352941 8.6744921,10.0470588 8.00541761,9.99411765 L7.72957111,9.97058824 L7.64153499,9.71176471 C6.99006772,7.83529412 7.248307,6.50588235 7.46546275,5.88235294 Z M7.59458239,10.9411765 C8.48081264,10.9411765 9.43160271,11.2352941 10.4352144,11.8117647 C10.5760722,11.8941176 10.71693,11.9823529 10.8577878,12.0705882 L11.661851,12.6058824 L11.6031603,11.6411765 C11.5914221,11.4764706 11.585553,11.3117647 11.585553,11.1470588 C11.585553,9.21764706 12.2076749,8.14705882 12.7300226,7.59411765 L13.0352144,7.26470588 L13.3404063,7.59411765 C13.8568849,8.14705882 14.4790068,9.21176471 14.4790068,11.1470588 C14.4790068,11.3117647 14.4731377,11.4764706 14.4613995,11.6411765 L14.4027088,12.6058824 L15.206772,12.0705882 C15.3417607,11.9823529 15.4884876,11.8941176 15.6293454,11.8117647 C16.627088,11.2352941 17.5837472,10.9411765 18.4699774,10.9411765 C18.7458239,10.9411765 19.0158014,10.9705882 19.2681716,11.0294118 L19.7083521,11.1294118 L19.5792325,11.5588235 C19.3620767,12.2882353 18.751693,13.3588235 17.0848758,14.3176471 C16.9440181,14.4 16.7972912,14.4764706 16.6505643,14.5529412 L15.7878104,14.9882353 L16.6505643,15.4235294 C16.7972912,15.4941176 16.9440181,15.5764706 17.0848758,15.6588235 C18.751693,16.6235294 19.3620767,17.6941176 19.5792325,18.4176471 L19.7083521,18.8470588 L19.2681716,18.9470588 C19.0158014,19.0058824 18.751693,19.0352941 18.4699774,19.0352941 C17.5837472,19.0352941 16.627088,18.7411765 15.6293454,18.1647059 C15.4884876,18.0823529 15.3476298,17.9941176 15.206772,17.9058824 L14.4027088,17.3705882 L14.4613995,18.3352941 C14.4731377,18.5 14.4790068,18.6647059 14.4790068,18.8294118 C14.4790068,20.7588235 13.8568849,21.8294118 13.3404063,22.3823529 L13.0352144,22.7117647 L12.7300226,22.3823529 C12.213544,21.8294118 11.5914221,20.7647059 11.5914221,18.8294118 C11.5914221,18.6647059 11.5972912,18.5 11.6090293,18.3352941 L11.6677201,17.3705882 L10.8636569,17.9058824 C10.7286682,17.9941176 10.5878104,18.0823529 10.4410835,18.1647059 C9.44334086,18.7411765 8.48668172,19.0352941 7.60045147,19.0352941 C7.32460497,19.0352941 7.05462754,19.0058824 6.80225734,18.9470588 L6.36207675,18.8470588 L6.49119639,18.4176471 C6.70835214,17.6882353 7.31873589,16.6176471 8.98555305,15.6588235 C9.12641084,15.5764706 9.2731377,15.5 9.41986456,15.4235294 L10.2826185,14.9882353 L9.41986456,14.5529412 C9.2731377,14.4823529 9.12641084,14.4 8.98555305,14.3176471 C7.31873589,13.3529412 6.70835214,12.2823529 6.49119639,11.5588235 L6.36207675,11.1294118 L6.80225734,11.0294118 C7.04875847,10.9705882 7.31286682,10.9411765 7.59458239,10.9411765 Z M1.05643341,8.36470588 L1.00948081,8.03529412 L1.32054176,7.91176471 C2.07765237,7.61176471 3.69164786,7.21764706 6.0275395,7.93529412 L6.28577878,8.01764706 L6.32099323,8.28823529 C6.3738149,8.72941176 6.47358916,9.18235294 6.60857788,9.62941176 L6.72595937,10.0294118 L6.3268623,10.1529412 C5.89255079,10.2882353 5.65191874,10.4411765 5.62844244,10.4588235 L5.43476298,10.5882353 L5.41715576,10.8235294 C5.41715576,10.8235294 5.39954853,11.1235294 5.50519187,11.5823529 L5.59909707,11.9941176 L5.18826185,12.0882353 C4.73047404,12.1941176 4.29029345,12.3411765 3.87945824,12.5117647 L3.62708804,12.6176471 L3.4275395,12.4294118 C1.64334086,10.7705882 1.17968397,9.17058824 1.05643341,8.36470588 Z M2.37697517,15.2705882 L2.13047404,14.9882353 L2.37697517,14.7117647 C2.81715576,14.2117647 3.83837472,13.3235294 5.7751693,12.9588235 L6.04514673,12.9058824 L6.20361174,13.1294118 C6.58510158,13.6823529 7.08984199,14.1882353 7.71196388,14.6470588 L8.18148984,14.9882353 L7.71196388,15.3294118 C7.08984199,15.7823529 6.58510158,16.2941176 6.20361174,16.8470588 L6.04514673,17.0705882 L5.7751693,17.0176471 C3.83250564,16.6588235 2.81128668,15.7647059 2.37697517,15.2705882 Z M1.32641084,22.0705882 L1.01534989,21.9470588 L1.06817156,21.6117647 C1.19142212,20.8 1.66681716,19.1941176 3.43927765,17.5411765 L3.63882619,17.3529412 L3.89119639,17.4588235 C4.3020316,17.6294118 4.74221219,17.7764706 5.2,17.8823529 L5.61083521,17.9764706 L5.51693002,18.3882353 C5.41128668,18.8470588 5.42889391,19.1411765 5.42889391,19.1470588 L5.44650113,19.3823529 L5.64018059,19.5117647 C5.66365688,19.5294118 5.90428894,19.6882353 6.33860045,19.8176471 L6.73769752,19.9411765 L6.62031603,20.3411765 C6.48532731,20.7941176 6.39142212,21.2470588 6.33273138,21.6823529 L6.29751693,21.9529412 L6.03927765,22.0352941 C5.06501129,22.3352941 4.21399549,22.4411765 3.50383747,22.4411765 C2.49435666,22.4529412 1.76659142,22.2470588 1.32641084,22.0705882 Z" id="Shape"></path>
                <path d="M10.5819413,14.9882353 L10.6582393,15.4058824 C10.7580135,15.9647059 11.0514673,16.4705882 11.4857788,16.8352941 L11.814447,17.1117647 L12.213544,17.2588235 C12.7417607,17.4529412 13.3345372,17.4529412 13.862754,17.2588235 L14.261851,17.1117647 L14.5905192,16.8352941 C15.0248307,16.4705882 15.3182844,15.9588235 15.4180587,15.4058824 L15.4943567,14.9882353 L15.4180587,14.5705882 C15.3182844,14.0117647 15.0248307,13.5058824 14.5905192,13.1411765 L14.261851,12.8647059 L13.862754,12.7176471 C13.3345372,12.5235294 12.7417607,12.5235294 12.213544,12.7176471 L11.814447,12.8647059 L11.4857788,13.1411765 C11.0514673,13.5058824 10.7580135,14.0176471 10.6582393,14.5705882 L10.5819413,14.9882353 Z M13.0293454,13.5411765 C13.8275395,13.5411765 14.4790068,14.1941176 14.4790068,14.9941176 C14.4790068,15.7941176 13.8275395,16.4470588 13.0293454,16.4470588 C12.2311512,16.4470588 11.579684,15.7941176 11.579684,14.9941176 C11.579684,14.1941176 12.2370203,13.5411765 13.0293454,13.5411765 Z" id="Shape"></path>
            </g>
        </g>
    </g>
</svg>