<?xml version="1.0" encoding="UTF-8"?>
<svg width="30px" height="28px" viewBox="0 0 30 28" version="1.1" xmlns="http://www.w3.org/2000/svg" xmlns:xlink="http://www.w3.org/1999/xlink">
    <!-- Generator: Sketch 52.6 (67491) - http://www.bohemiancoding.com/sketch -->
    <title>lili</title>
    <desc>Created with Sketch.</desc>
    <g id="Мир-роз" stroke="none" stroke-width="1" fill="none" fill-rule="evenodd">
        <g id="Главная" transform="translate(-1235.000000, -578.000000)" fill="#0AB1B0" fill-rule="nonzero">
            <g id="lili" transform="translate(1235.000000, 578.000000)">
                <path d="M4.56193896,25.8581688 C7.3572711,26.9245961 11.0682226,27.5116697 15.005386,27.5116697 C18.9425494,27.5116697 22.6535009,26.9245961 25.448833,25.8581688 C28.3842011,24.7378815 30,23.1921005 30,21.5062837 C30,20.0520646 28.7504488,18.6624776 26.4829443,17.5960503 L26.0305206,17.3859964 L26.2890485,16.9605027 C28.7881508,12.7917415 28.1041293,7.49192101 28.0718133,7.27109515 L28.0179533,6.86175943 L27.6032316,6.87791741 C27.5547576,6.87791741 26.4129264,6.92639138 24.8563734,7.27109515 L24.3985637,7.37342908 L24.3123878,6.91561939 C23.967684,5.01974865 23.4236984,3.70556553 23.3967684,3.64631957 L23.2351885,3.26391382 L22.8420108,3.38779174 C22.7773788,3.40933573 21.2639138,3.88330341 19.459605,4.96050269 L19.0664273,5.19210054 L18.8509874,4.7935368 C17.2998205,2.1005386 15.3931777,0.350089767 15.3123878,0.280071813 L15.005386,0 L14.6983842,0.280071813 C14.6175943,0.355475763 12.7055655,2.1005386 11.1597846,4.7935368 L10.9335727,5.19210054 L10.540395,4.96050269 C8.73070018,3.88330341 7.22262118,3.40933573 7.15798923,3.39317774 L6.76481149,3.26929982 L6.6032316,3.65170557 C6.58168761,3.70556553 6.03231598,5.01974865 5.68761221,6.92100539 L5.60143627,7.37881508 L5.14362657,7.27648115 C3.58707361,6.93177738 2.44524237,6.88330341 2.3967684,6.88330341 L1.98204668,6.86714542 L1.92818671,7.27648115 C1.89587074,7.497307 1.21184919,12.7971275 3.71633752,16.9658887 L3.97486535,17.3913824 L3.52244165,17.6014363 C1.25493716,18.6678636 0.00538599641,20.0574506 0.00538599641,21.5116697 C0.00538599641,23.1974865 1.62657092,24.7378815 4.56193896,25.8581688 Z M26.7414722,7.87432675 L27.2262118,7.81508079 L27.2477558,8.29982047 C27.3339318,10.0933573 27.2639138,14.5906643 24.6732496,17.6714542 C23.5691203,18.9856373 22.0233393,20.0359066 20.0682226,20.7899461 C18.4793537,21.4039497 16.9605027,21.6894075 15.9694794,21.8240575 L15.4578097,21.8940754 L15.4578097,18.5547576 C15.6570916,16.7019749 16.2495512,14.0682226 17.951526,12.037702 C20.5368043,8.96229803 24.9587074,8.1005386 26.7414722,7.87432675 Z M19.8312388,5.80071813 C20.7953321,5.21903052 21.6894075,4.80969479 22.2710952,4.57271095 L22.7235189,4.38958707 L22.8743268,4.85278276 C23.0412926,5.38061041 23.2836625,6.22621185 23.4560144,7.22800718 L23.5206463,7.61041293 L23.1490126,7.72890485 C22.3895871,7.97666068 21.6678636,8.26750449 21,8.59605027 L20.5152603,8.83303411 L20.3698384,8.31059246 C20.1867145,7.66965889 19.9497307,7.01256732 19.6588869,6.36086176 L19.497307,6 L19.8312388,5.80071813 Z M14.6768402,1.59425494 L15.005386,1.24416517 L15.3339318,1.59425494 C16.5834829,2.92459605 18.7971275,5.66606822 19.6104129,9.03770197 L19.6858169,9.33931777 L19.427289,9.51166966 C18.5924596,10.0771993 17.8653501,10.7342908 17.2621185,11.4506284 C16.508079,12.3500898 15.8940754,13.432675 15.4308797,14.6660682 L15.010772,15.7917415 L14.5906643,14.6660682 C14.1274686,13.432675 13.513465,12.3500898 12.7540395,11.4506284 C12.1508079,10.7342908 11.4236984,10.0825853 10.5888689,9.51166966 L10.3303411,9.33393178 L10.4057451,9.03231598 C11.2082585,5.67145422 13.427289,2.92998205 14.6768402,1.59425494 Z M6.55475763,7.22800718 C6.72710952,6.22621185 6.96409336,5.38061041 7.13644524,4.85278276 L7.28725314,4.38958707 L7.73967684,4.57271095 C8.31597846,4.80969479 9.21005386,5.21364452 10.1795332,5.80071813 L10.518851,6.005386 L10.3572711,6.36624776 C10.0664273,7.01795332 9.82944345,7.67504488 9.64631957,8.31597846 L9.50089767,8.83842011 L9.01615799,8.60143627 C8.34829443,8.27289048 7.62657092,7.98204668 6.86714542,7.73429084 L6.49551167,7.61579892 L6.55475763,7.22800718 Z M2.76301616,8.29982047 L2.78456014,7.81508079 L3.26929982,7.87432675 C5.05206463,8.1005386 9.47396768,8.96229803 12.05386,12.037702 C13.7558348,14.0682226 14.3482944,16.6965889 14.5475763,18.5439856 L14.5475763,18.5924596 L14.5475763,21.8886894 L14.0412926,21.8240575 C12.2800718,21.5924596 7.90125673,20.7307002 5.33213645,17.6714542 C2.75763016,14.5960503 2.67684022,10.0933573 2.76301616,8.29982047 Z M4.23339318,18.2746858 L4.53500898,18.1400359 L4.75044883,18.3877917 C7.61579892,21.6786355 12.2639138,22.535009 14.1382406,22.7504488 L15.005386,22.8204668 L15.8563734,22.7450628 C17.7360862,22.524237 22.3895871,21.6570916 25.2441652,18.3824057 L25.459605,18.1346499 L25.7612208,18.2692998 C27.8994614,19.2064632 29.0789946,20.3536804 29.0789946,21.5062837 C29.0789946,22.7666068 27.6355476,24.043088 25.1149013,25.0071813 C22.432675,26.0412926 18.8348294,26.6068223 15.005386,26.6068223 C11.1759425,26.6068223 7.57809695,26.0412926 4.88509874,25.0125673 C2.36445242,24.048474 0.921005386,22.7773788 0.921005386,21.5116697 C0.91561939,20.3590664 2.0951526,19.2118492 4.23339318,18.2746858 Z" id="Shape"></path>
            </g>
        </g>
    </g>
</svg>