<?xml version="1.0" encoding="UTF-8"?>
<svg width="30px" height="30px" viewBox="0 0 30 30" version="1.1" xmlns="http://www.w3.org/2000/svg" xmlns:xlink="http://www.w3.org/1999/xlink">
    <!-- Generator: Sketch 52.6 (67491) - http://www.bohemiancoding.com/sketch -->
    <title>orchid</title>
    <desc>Created with Sketch.</desc>
    <g id="Мир-роз" stroke="none" stroke-width="1" fill="none" fill-rule="evenodd">
        <g id="Главная" transform="translate(-657.000000, -578.000000)" fill="#0AB1B0" fill-rule="nonzero">
            <g id="orchid" transform="translate(657.000000, 578.000000)">
                <path d="M19.0595238,25.3359375 L19.4761905,25.6582031 C20.3154762,26.3144531 21.375,26.6777344 22.4464286,26.6777344 C22.7321429,26.6777344 23.0238095,26.6542969 23.3095238,26.6015625 L28.9702381,25.5878906 L27.6369048,20.0800781 C27.4464286,19.2890625 27.047619,18.5566406 26.4880952,17.9648438 L26.1547619,17.6074219 L26.5535714,17.3261719 C27.5535714,16.6230469 28.2678571,15.5800781 28.5535714,14.3964844 L29.9761905,8.5078125 L23.9285714,7.42382813 C23.0833333,7.27148438 22.2083333,7.33007812 21.3988095,7.59960938 L20.9345238,7.75195313 L20.8392857,7.28320313 C20.6369048,6.31054688 20.1666667,5.4140625 19.4702381,4.69335938 L15.0059524,0.052734375 L10.5416667,4.69335938 C9.8452381,5.4140625 9.36904762,6.31054688 9.17261905,7.28320313 L9.07738095,7.75195313 L8.61309524,7.59960938 C7.80357143,7.3359375 6.92857143,7.27734375 6.08333333,7.42382813 L0.0357142857,8.5078125 L1.45833333,14.3964844 C1.74404762,15.5800781 2.45238095,16.6230469 3.45833333,17.3261719 L3.85714286,17.6074219 L3.52380952,17.9648438 C2.96428571,18.5566406 2.57142857,19.2890625 2.375,20.0800781 L1.04166667,25.5878906 L6.70238095,26.6015625 C6.98809524,26.6542969 7.2797619,26.6777344 7.56547619,26.6777344 C8.64285714,26.6777344 9.69642857,26.3144531 10.5357143,25.6582031 L10.9464286,25.3359375 L11.1904762,25.7988281 C11.3571429,26.1210937 11.5714286,26.4140625 11.827381,26.6777344 L15.0119048,29.9824219 L18.1964286,26.6777344 C18.452381,26.4140625 18.6666667,26.1152344 18.8333333,25.7988281 L19.0595238,25.3359375 Z M21.1309524,8.77734375 C21.9345238,8.37304687 22.8630952,8.23242188 23.7559524,8.39648437 L28.7738095,9.29882812 L27.5892857,14.1796875 C27.297619,15.375 26.4880952,16.3710938 25.3630952,16.8984375 C24.9166667,17.109375 24.4345238,17.2382812 23.9345238,17.2792969 L18,17.7832031 L17.9940476,17.3261719 C17.9821429,16.5410156 17.6607143,15.8027344 17.0892857,15.2578125 L16.8511905,15.0292969 L19.3988095,10.4414063 C19.5,10.2539063 19.6190476,10.078125 19.75,9.9140625 C20.1190476,9.4453125 20.5952381,9.05273438 21.1309524,8.77734375 Z M17.0059524,17.3671875 C17.0059524,18.4570313 16.1071429,19.3417969 15,19.3417969 C13.8928571,19.3417969 12.9940476,18.4570313 12.9940476,17.3671875 C12.9940476,16.2773438 13.8928571,15.3925781 15,15.3925781 C16.1071429,15.3925781 17.0059524,16.2773438 17.0059524,17.3671875 Z M10.0535714,8.12109375 C10.1071429,7.09570313 10.5357143,6.1171875 11.2559524,5.3671875 L15.0059524,1.4765625 L18.7559524,5.3671875 C19.4761905,6.1171875 19.9047619,7.08984375 19.9583333,8.12109375 L19.9702381,8.33789063 L19.797619,8.47265625 C19.2797619,8.8828125 18.8571429,9.38671875 18.5357143,9.96679688 L15.9880952,14.5605469 L15.6666667,14.4902344 C15.2380952,14.3964844 14.7797619,14.3964844 14.3511905,14.4902344 L14.0297619,14.5605469 L11.4821429,9.96679688 C11.1607143,9.38671875 10.7321429,8.8828125 10.2202381,8.47265625 L10.047619,8.33789063 L10.0535714,8.12109375 Z M2.41666667,14.1796875 L1.23214286,9.29296875 L6.25,8.390625 C7.14285714,8.23242187 8.07142857,8.3671875 8.875,8.77148438 C9.41071429,9.04101563 9.88690476,9.43359375 10.2559524,9.90820312 C10.3809524,10.0722656 10.5,10.2480469 10.6071429,10.4355469 L13.1547619,15.0234375 L12.9166667,15.2519531 C12.3452381,15.8027344 12.0238095,16.5351562 12.0119048,17.3203125 L12.0059524,17.7773437 L6.07142857,17.2734375 C5.57142857,17.2324219 5.0952381,17.1035156 4.64285714,16.8925781 C3.51785714,16.3652344 2.70833333,15.375 2.41666667,14.1796875 Z M10.7678571,23.859375 L10.7619048,23.9765625 L10.6964286,24.0761719 C9.98214286,25.1074219 8.80357143,25.7109375 7.55952381,25.7109375 C7.33333333,25.7109375 7.10714286,25.6933594 6.88095238,25.6523438 L2.25,24.8203125 L3.33928571,20.3144531 C3.54761905,19.4589844 4.05357143,18.703125 4.76785714,18.1816406 L4.93452381,18.0585938 L5.13690476,18.1113281 C5.41666667,18.1816406 5.70238095,18.234375 5.99404762,18.2578125 L12.3869048,18.8027344 L12.5,18.9785156 C12.5416667,19.0429687 12.5892857,19.1074219 12.6309524,19.1601562 L12.8035714,19.3769531 L11.2261905,22.2714844 C10.952381,22.7636719 10.797619,23.296875 10.7678571,23.859375 Z M18.2380952,24.3632812 C18.172619,24.9785156 17.8988095,25.5644531 17.4642857,26.0097656 L15,28.5644531 L12.5357143,26.0097656 C12.1011905,25.5585937 11.827381,24.9785156 11.7619048,24.3632812 C11.702381,23.7949219 11.8154762,23.2324219 12.0892857,22.7285156 L13.5833333,19.9863281 L13.9404762,20.1210937 C14.2797619,20.2441406 14.6309524,20.3085938 15,20.3085938 C15.3630952,20.3085938 15.7202381,20.2441406 16.0595238,20.1210937 L16.4166667,19.9863281 L17.9107143,22.7285156 C18.1845238,23.2324219 18.297619,23.8007812 18.2380952,24.3632812 Z M17.2083333,19.3710938 L17.3809524,19.1542969 C17.422619,19.0957031 17.4702381,19.0371094 17.5119048,18.9726562 L17.625,18.796875 L24.0178571,18.2519531 C24.3095238,18.2285156 24.5952381,18.1757812 24.875,18.1054688 L25.077381,18.0527344 L25.2440476,18.1757812 C25.9583333,18.6972656 26.4642857,19.453125 26.672619,20.3085938 L27.7619048,24.8144531 L23.1309524,25.6464844 C22.9047619,25.6875 22.6785714,25.7050781 22.452381,25.7050781 C21.2083333,25.7050781 20.0297619,25.1015625 19.3154762,24.0703125 L19.25,23.9707031 L19.2440476,23.8535156 C19.2142857,23.296875 19.0595238,22.7636719 18.7916667,22.265625 L17.2083333,19.3710938 Z" id="Shape"></path>
            </g>
        </g>
    </g>
</svg>