<?xml version="1.0" encoding="UTF-8"?>
<svg width="30px" height="30px" viewBox="0 0 30 30" version="1.1" xmlns="http://www.w3.org/2000/svg" xmlns:xlink="http://www.w3.org/1999/xlink">
    <!-- Generator: Sketch 52.6 (67491) - http://www.bohemiancoding.com/sketch -->
    <title>rose</title>
    <desc>Created with Sketch.</desc>
    <g id="Мир-роз" stroke="none" stroke-width="1" fill="none" fill-rule="evenodd">
        <g id="Главная" transform="translate(-272.000000, -578.000000)" fill="#0AB1B0" fill-rule="nonzero">
            <g id="rose" transform="translate(272.000000, 578.000000)">
                <path d="M27.2303017,14.9468534 C27.410625,14.5371983 27.5925,14.1295474 27.7580819,13.7584267 C28.7057974,11.6346983 28.7013362,11.6164655 28.6470259,11.3935345 C27.9162931,8.39469828 24.8281681,6.98741379 24.0491379,6.67622845 C23.6387716,5.70898707 22.871444,4.61534483 21.4393319,3.78950431 C19.0749569,2.42605603 18.1613793,0.387155172 18.1528448,0.367758621 C18.0876078,0.216918103 17.9504095,0.109331897 17.788319,0.0820474138 C17.7359483,0.0732543103 16.488556,-0.131056034 15.0238578,0.140237069 C13.7467888,0.376875 12.7004095,0.902844828 11.9243534,1.68685345 C11.0910776,1.01469828 9.95883621,0.767909483 9.15368534,0.679655172 C8.35454741,0.592047414 7.56931034,0.629547414 7.37987069,0.693814655 C7.22172414,0.747543103 7.09674569,0.882090517 7.05834052,1.04469828 C6.94209052,1.53653017 6.58002155,2.09010776 6.22984914,2.62551724 C5.6762069,3.47178879 5.10517241,4.34528017 5.22956897,5.2805819 C3.26353448,6.3181681 1.17969828,8.27721983 0.867801724,8.57521552 C0.811681034,8.62881466 0.769267241,8.69508621 0.744116379,8.76846983 C0.727758621,8.81599138 0.342478448,9.94997845 0.145474138,11.460194 C-0.123685345,13.5245043 0.0846982759,15.2246121 0.76487069,16.513125 C0.785107759,16.5515302 0.806961207,16.5883836 0.828038793,16.6259483 C0.20612069,17.7640733 0.446443966,18.8017241 0.658900862,19.7177586 C0.824418103,20.4312931 0.967306034,21.0474569 0.734159483,21.665819 C0.681012931,21.8071552 0.697564655,21.9676293 0.777413793,22.0957112 C0.951206897,22.3742457 3.21381466,23.990625 5.59551724,24.2380603 C5.63540948,24.3992457 5.68661638,24.5621767 5.75372845,24.725819 C6.29573276,26.0465302 7.60965517,27.0996336 9.65909483,27.8559052 C10.7078017,28.2428664 11.4488147,28.6101078 12.1025431,28.9340302 C12.9120259,29.3350862 13.6110129,29.6815086 14.5275647,29.8607328 C14.7832112,29.9107112 15.0437069,29.9354741 15.3075647,29.9354741 C16.5509483,29.9354741 17.8677155,29.3862284 19.0900216,28.3434698 C19.3348707,28.134569 19.6852371,27.9300647 20.0560991,27.7135991 C21.3301293,26.97 23.0668966,25.9543966 22.9678448,23.3596552 C23.1908405,23.2367457 23.4095043,23.1047845 23.6227371,22.959181 C23.6539009,22.9913147 23.6897198,23.0198276 23.7305819,23.0431681 C23.9242241,23.1535991 24.1168319,23.2030603 24.3085345,23.2030603 C25.1646983,23.2030603 26.0017888,22.2153233 26.816056,21.2544828 C27.4265302,20.5340948 28.1184698,19.7176293 28.6812931,19.492694 C28.8255388,19.4349569 29.0745905,19.2721552 29.120431,18.8299784 C29.2145043,17.9255172 28.3971983,15.8721983 27.2303017,14.9468534 Z M27.6755819,11.5100431 C27.5721336,11.7952371 27.2025647,12.6235991 26.8724353,13.3631897 C26.3806034,14.465431 25.9516164,15.4352586 25.6479957,16.1830603 C25.5947845,16.0173491 25.5399569,15.8506034 25.4846767,15.6828233 C25.2146121,14.8626078 24.9353664,14.0144612 24.8271983,13.1736853 C24.7252371,12.3810129 24.5084483,11.6983836 24.1810345,11.1289655 C24.5423922,10.1826724 24.6287069,9.01797414 24.4233621,7.92174569 C25.4729741,8.47532328 27.1626724,9.62961207 27.6755819,11.5100431 Z M21.3784914,23.0665086 C20.3954741,23.5286638 19.2812716,24.0525 18.1494828,25.0461853 C16.689569,26.3278448 14.8412069,25.8879957 13.637069,24.9019397 C13.9621552,24.6659483 14.2681034,24.3803017 14.5502586,24.0470043 C15.6872845,23.9040517 16.8528233,23.4962716 17.95125,22.8375 C19.9487716,21.6396983 21.4720474,19.7530603 22.130625,17.6614655 C22.980194,14.9631466 22.0754095,12.0067888 20.645431,10.1226078 C21.153944,10.1348922 21.9087284,10.2481034 22.5603879,10.7280388 C23.2746983,11.2541379 23.7137716,12.1185776 23.8653879,13.2974353 C23.9852586,14.2300216 24.2792457,15.1227802 24.5635991,15.9861853 C25.0042241,17.3244828 25.4205388,18.588556 25.0120474,19.62 C24.1660345,21.7559483 22.9359052,22.3342241 21.3784914,23.0665086 Z M5.94394397,20.3020474 C5.5306681,19.4047629 5.01672414,18.8136207 4.56329741,18.2921121 C3.93905172,17.5741164 3.44592672,17.0069612 3.2855819,15.8194397 C2.91426724,13.068944 4.64431034,10.4140086 6.46047414,9.31241379 C6.96045259,9.00918103 7.43159483,8.8475431 7.82056034,8.83403017 C6.76435345,10.0126293 5.58905172,11.9597845 5.62771552,13.87125 C5.65099138,15.0225647 6.11081897,15.9711207 6.9943319,16.6906681 C7.22741379,16.8804957 7.46831897,17.0475 7.71549569,17.192069 C7.43903017,18.0481681 7.56640086,19.3113362 8.06702586,20.4690517 C8.48877155,21.4445043 9.54717672,23.1827586 11.8964871,23.8639009 C12.2893966,23.9778233 12.6978879,24.0501078 13.1162716,24.0834698 C12.4226509,24.6061422 11.6318534,24.8258405 10.7863578,24.7229095 C8.95234914,24.4997198 7.096875,22.8056897 5.94394397,20.3020474 Z M8.49918103,4.76243534 C9.27989224,4.17135776 10.893944,3.35883621 12.9314224,4.55760776 C14.4064009,5.42547414 15.8363793,5.75489224 16.9853017,6.01952586 C18.5670905,6.38385776 19.4076078,6.61887931 19.7314009,7.58288793 C19.9472198,8.22568966 19.5233405,8.64846983 19.3254957,8.80396552 C18.3248276,8.08105603 17.2530388,7.86581897 16.3037716,8.21081897 C15.8149784,7.76049569 15.2331466,7.40043103 14.5712716,7.14788793 C12.5912716,6.39226293 10.3177371,6.73758621 8.6806681,8.01788793 C8.07769397,7.76243534 7.31967672,7.82327586 6.50650862,8.19213362 C6.54549569,7.0055819 7.48784483,5.52801724 8.49918103,4.76243534 Z M12.1665517,22.9325431 C10.1990302,22.3620259 9.31125,20.9030819 8.95713362,20.0842241 C8.53532328,19.1086422 8.46575431,18.1708836 8.60540948,17.6037284 C8.81954741,17.6784052 9.03704741,17.7375 9.25726293,17.7805603 C9.76713362,19.0473491 11.0755603,20.0663147 12.5903017,20.3517026 C12.8855819,20.4073707 13.1805388,20.4347845 13.4734267,20.4347845 C15.0143534,20.4347845 16.4961853,19.6756034 17.6387069,18.2727155 C18.9610345,16.6490302 20.1854741,14.4182974 17.9761422,11.5157974 C17.8448276,10.5762284 17.5174138,9.735 17.02125,9.02980603 C17.9108405,8.92176724 18.7294397,9.52150862 19.17375,9.93109914 C20.8400431,11.4674353 22.055625,14.67 21.2055388,17.3701293 C20.6171767,19.2385991 19.2492672,20.9282328 17.4524353,22.0057112 C15.6954957,23.0593966 13.7688362,23.3970259 12.1665517,22.9325431 Z M9.05818966,8.96359914 C10.4201509,7.75971983 12.4968103,7.39428879 14.2255603,8.05396552 C14.9171121,8.31788793 15.9823707,8.91633621 16.5956897,10.2057543 C15.8239655,9.68818966 14.9321121,9.36517241 14.0032112,9.28318966 C12.7791595,9.17540948 11.6273276,9.51517241 10.8421552,10.2159698 C9.41676724,11.4881897 8.8944181,13.0518103 9.40900862,14.5058405 C9.77346983,15.5357974 10.6351293,16.3588578 11.5807112,16.6410776 C10.6029957,16.9951293 9.11366379,17.1659483 7.60674569,15.9388578 C6.95418103,15.4074569 6.61454741,14.7052371 6.59734914,13.8518534 C6.57122845,12.5596552 7.42480603,10.4074138 9.05818966,8.96359914 Z M12.4977155,15.8835129 C12.2089655,15.6484267 12.0291595,15.3149353 11.9912716,14.9445905 C11.9533836,14.5742457 12.0620043,14.2112069 12.2970905,13.9225216 C12.5321767,13.6338362 12.8656681,13.4539655 13.2360129,13.4160776 C13.2843103,13.4110991 13.3324784,13.4087069 13.3804526,13.4087069 C13.6997845,13.4087069 14.0069612,13.5175216 14.2580172,13.7219612 C14.8540086,14.2073276 14.943944,15.0870259 14.4586422,15.6830172 C14.2234914,15.9717026 13.8900647,16.1515733 13.5197198,16.1894612 C13.149569,16.2273491 12.7863362,16.1185991 12.4977155,15.8835129 Z M13.3735345,17.1667241 C13.4547414,17.1667241 13.5365302,17.1625862 13.6184483,17.154181 C14.2465733,17.0899138 14.8120474,16.7849353 15.2107112,16.2953664 C16.0337069,15.2847414 15.8811207,13.7929526 14.8705603,12.9698922 C14.3809914,12.5712284 13.7653448,12.3868966 13.1373491,12.4512931 C12.5092241,12.5155603 11.94375,12.8205388 11.5450862,13.3101078 C11.1463578,13.7996767 10.9621552,14.415194 11.0264224,15.043319 C11.0338578,15.1161207 11.0449138,15.1880172 11.05875,15.2590086 C10.7373491,14.9775 10.471681,14.6015948 10.3232974,14.1822414 C9.94118534,13.1025 10.3547845,11.9508621 11.4879957,10.9393966 C12.0741595,10.4162069 12.9596121,10.1646983 13.917931,10.2492026 C15.1684267,10.3596336 16.3397845,11.000819 17.1315517,12.0084698 C18.9077586,14.2686853 18.3182328,15.9025216 16.8867672,17.6603017 C15.3423491,19.5567026 13.6447629,19.5634914 12.7699784,19.3986853 C11.7604526,19.2084698 10.8727371,18.6215302 10.3864009,17.8626078 C10.5376293,17.855431 10.6895043,17.8417888 10.8418966,17.820194 C11.3257759,17.7517888 12.0662069,17.5723707 12.856681,17.1091164 C13.0251078,17.147069 13.1981897,17.1667241 13.3735345,17.1667241 Z M15.1739871,1.09887931 C16.1215733,0.919396552 16.985431,0.968469828 17.3882328,1.00894397 C17.7296121,1.65665948 18.7916379,3.38224138 20.9548707,4.62963362 C22.554569,5.55213362 23.1700862,6.86049569 23.4047198,7.7956681 C23.6277802,8.68493534 23.589569,9.53825431 23.4445474,10.2023922 C23.3462716,10.1121983 23.2435991,10.0267241 23.1354957,9.94713362 C22.1208621,9.19978448 20.9476293,9.13034483 20.3271983,9.15724138 C20.6685129,8.71299569 20.9154957,8.06256466 20.6506681,7.27415948 C20.1390517,5.75081897 18.7784483,5.43743534 17.2029957,5.07452586 C16.0623491,4.81176724 14.7695043,4.51396552 13.4232543,3.72181034 C12.9383405,3.43648707 12.4726293,3.24420259 12.0293534,3.12375 C12.6664009,2.05448276 13.72125,1.37398707 15.1739871,1.09887931 Z M7.04153017,3.15646552 C7.36965517,2.65480603 7.70702586,2.13905172 7.90137931,1.603125 C8.57883621,1.57215517 10.3069397,1.62911638 11.3140733,2.44040948 C11.2044181,2.60696121 11.1034914,2.7812069 11.0121336,2.96346983 C9.63323276,2.90528017 8.55148707,3.50670259 7.91392241,3.98922414 C7.65614224,4.18435345 7.41362069,4.40353448 7.1893319,4.6400431 C6.88189655,4.65155172 6.54698276,4.72713362 6.19693966,4.84991379 C6.26987069,4.33765086 6.64642241,3.76047414 7.04153017,3.15646552 Z M1.62607759,9.19357759 C1.8980819,8.94051724 2.76685345,8.1481681 3.79810345,7.37178879 C4.9055819,6.53799569 5.70956897,6.08806034 6.28331897,5.85168103 C5.72127155,6.81782328 5.44157328,7.873125 5.57275862,8.73685345 C3.60038793,10.1383836 1.9194181,12.9493966 2.3244181,15.9492672 C2.39818966,16.4958621 2.53603448,16.9446983 2.71293103,17.3310776 C2.26034483,17.0038578 1.89911638,16.5834698 1.62375,16.0625431 C0.34137931,13.6364224 1.41161638,9.88306034 1.62607759,9.19357759 Z M1.60383621,19.4987716 C1.44252155,18.8031466 1.29924569,18.1843319 1.49101293,17.5393319 C2.08849138,18.1792888 2.86273707,18.6345905 3.80508621,18.898125 C3.81387931,18.9082112 3.82267241,18.9183621 3.83140086,18.9284483 C4.26226293,19.4240302 4.70786638,19.9364224 5.06301724,20.7077586 C5.27980603,21.1785129 5.52200431,21.6261207 5.78482759,22.0468966 C5.77829741,22.0583405 5.77189655,22.0698491 5.7662069,22.0819397 C5.62422414,22.3846552 5.51540948,22.7901724 5.49549569,23.2490948 C3.84543103,23.0175 2.31510776,22.0728233 1.74717672,21.6650431 C1.92943966,20.9028879 1.76424569,20.1905819 1.60383621,19.4987716 Z M19.5675,26.8761207 C19.1581681,27.1150216 18.7714655,27.3407328 18.4608621,27.6057543 C17.20875,28.6738578 15.8782112,29.1368534 14.7139009,28.9090733 C13.9251724,28.7548707 13.3109483,28.4505388 12.5333405,28.065194 C11.8578879,27.7304741 11.0922414,27.3510776 9.9950431,26.9462069 C8.23590517,26.297069 7.07961207,25.4020474 6.65114224,24.3578017 C6.43926724,23.8414655 6.43512931,23.3802802 6.48646552,23.0427802 C6.81478448,23.4546983 7.16547414,23.827694 7.53368534,24.1546552 C8.51502155,25.0260776 9.59915948,25.5554741 10.6690733,25.6857543 C10.8421552,25.7068319 11.013944,25.7172414 11.1840517,25.7172414 C11.7248276,25.7172414 12.2488578,25.6114655 12.7435345,25.4059267 C12.7495474,25.4121983 12.7552371,25.4186638 12.7616379,25.4246767 C13.5216595,26.1348491 14.5189655,26.6235129 15.4977802,26.7652371 C15.7053879,26.7953017 15.9104741,26.8102371 16.1129741,26.8102371 C17.0956034,26.8102371 18.01125,26.458125 18.7893103,25.7750431 C19.8180388,24.871875 20.8210991,24.4002802 21.7911207,23.9442026 C21.8588793,23.9123276 21.926444,23.8805172 21.9938793,23.8486422 C21.8768534,25.5279957 20.7046552,26.2123707 19.5675,26.8761207 Z M26.0764009,20.6275216 C25.6407543,21.1416595 25.0436638,21.8464009 24.6117672,22.1154957 C25.1045043,21.5861638 25.5461638,20.9048276 25.9135345,19.9770905 C26.1903233,19.2783621 26.2000216,18.5615948 26.0768534,17.8247198 C26.1109914,17.7750647 26.1372414,17.718944 26.1512069,17.6564871 C26.2215517,17.3416164 26.4931681,16.6589224 26.8254957,15.879375 C27.6409267,16.6747629 28.1652155,18.1844612 28.1621121,18.6636853 C27.4343534,19.0251724 26.7447414,19.8388578 26.0764009,20.6275216 Z" id="Shape"></path>
            </g>
        </g>
    </g>
</svg>