<?xml version="1.0" encoding="UTF-8"?>
<svg width="30px" height="30px" viewBox="0 0 30 30" version="1.1" xmlns="http://www.w3.org/2000/svg" xmlns:xlink="http://www.w3.org/1999/xlink">
    <!-- Generator: Sketch 52.6 (67491) - http://www.bohemiancoding.com/sketch -->
    <title>Shape</title>
    <desc>Created with Sketch.</desc>
    <g id="Мир-роз" stroke="none" stroke-width="1" fill="none" fill-rule="evenodd">
        <g id="Главная" transform="translate(-849.000000, -578.000000)" fill="#0AB1B0" fill-rule="nonzero">
            <path d="M878.613661,593.699777 L877.220498,592.997072 L878.613661,592.294367 C878.853659,592.17725 878.994146,591.937159 878.988293,591.667788 C878.982439,591.404274 878.824391,591.175895 878.578539,591.070489 C877.636106,590.666434 876.201968,590.262378 874.246857,590.250667 C875.938555,589.261024 876.974646,588.195255 877.589277,587.375432 C877.589277,587.375432 877.589277,587.369576 877.59513,587.369576 C877.753178,587.158765 877.770739,586.883539 877.647813,586.649304 C877.519033,586.415069 877.279034,586.274528 877.009768,586.292095 L875.452704,586.379933 L876.307333,585.074073 C876.453673,584.85155 876.453673,584.570468 876.313186,584.347945 C876.1727,584.125421 875.926847,584.002448 875.669288,584.031727 C875.669288,584.031727 875.663434,584.031727 875.663434,584.031727 C874.644904,584.154701 873.204912,584.523621 871.501507,585.48984 C872.473209,583.791636 872.836134,582.345235 872.95906,581.326313 C872.95906,581.326313 872.95906,581.320457 872.95906,581.320457 C872.988328,581.056943 872.871255,580.810996 872.642964,580.670455 C872.414673,580.529914 872.139552,580.53577 871.917115,580.676311 L870.611757,581.531269 L870.699561,579.973606 C870.717122,579.710092 870.576635,579.464145 870.34249,579.335316 C870.108345,579.212342 869.833225,579.22991 869.622494,579.393874 C869.160058,579.739371 868.709329,580.155138 868.282014,580.629464 C868.118113,580.810996 868.135673,581.086222 868.311282,581.250187 C868.492745,581.414151 868.767865,581.396584 868.931766,581.220907 C869.21274,580.910546 869.499568,580.629464 869.798103,580.377661 L869.686884,582.351091 C869.675177,582.515056 869.762981,582.673164 869.903468,582.755147 C870.049809,582.837129 870.225417,582.831273 870.365904,582.743435 L872.016626,581.660098 C871.782481,582.965958 871.121022,584.85155 869.370788,587.047503 L866.549341,590.262378 C866.133734,589.875891 865.636176,589.577241 865.074228,589.407421 L866.44983,585.361011 C866.812754,584.429927 867.245923,583.574969 867.72592,582.813705 C867.8547,582.60875 867.796163,582.339379 867.591286,582.21055 C867.38641,582.081721 867.117143,582.14028 866.988363,582.345235 C866.906412,582.474065 866.824462,582.614606 866.742511,582.749291 C866.730804,580.787573 866.326904,579.352883 865.923004,578.410087 C865.923004,578.410087 865.923004,578.404231 865.923004,578.404231 C865.817638,578.164141 865.589347,578.006032 865.325934,578.000176 C865.062521,577.99432 864.816669,578.134861 864.699596,578.374952 L863.997161,579.76865 L863.294726,578.374952 C863.177654,578.134861 862.931802,577.99432 862.668388,578.000176 C862.404975,578.006032 862.176684,578.164141 862.071319,578.404231 C862.071319,578.404231 862.071319,578.410087 862.071319,578.410087 C861.667419,579.352883 861.263519,580.787573 861.251811,582.743435 C860.262549,581.051087 859.197189,580.014597 858.371828,579.393874 C858.161098,579.235766 857.885978,579.218198 857.651833,579.341171 C857.417688,579.470001 857.277201,579.710092 857.294761,579.979462 L857.382566,581.537125 L856.077208,580.682167 C855.85477,580.53577 855.573796,580.53577 855.351358,580.670455 C855.128921,580.810996 855.005994,581.056943 855.035263,581.320457 C855.035263,581.320457 855.035263,581.326313 855.035263,581.326313 C855.158189,582.345235 855.521113,583.785781 856.492815,585.48984 C854.78941,584.517765 853.349419,584.154701 852.325035,584.031727 C852.061621,584.002448 851.815769,584.119565 851.675282,584.347945 C851.534795,584.576324 851.540649,584.85155 851.681136,585.074073 L852.535765,586.379933 L850.978701,586.292095 C850.715288,586.274528 850.469436,586.415069 850.340656,586.649304 C850.21773,586.883539 850.235291,587.158765 850.393339,587.369576 C850.393339,587.369576 850.393339,587.375432 850.399192,587.375432 C851.013823,588.195255 852.049914,589.261024 853.741612,590.250667 C851.780647,590.262378 850.352363,590.666434 849.40993,591.070489 C849.40993,591.070489 849.404076,591.070489 849.404076,591.076345 C849.164077,591.181751 849.00603,591.41013 849.000176,591.673644 C848.994322,591.943015 849.134809,592.183105 849.374808,592.300223 L850.76797,593.002928 L849.374808,593.705633 C849.134809,593.82275 848.994322,594.062841 849.000176,594.332212 C849.00603,594.595726 849.164077,594.824105 849.40993,594.929511 C850.352363,595.333566 851.786501,595.737622 853.747465,595.749333 C852.055768,596.738976 851.019676,597.804745 850.405046,598.624568 C850.405046,598.624568 850.405046,598.630424 850.399192,598.630424 C850.241144,598.841235 850.223583,599.116461 850.34651,599.350696 C850.475289,599.584931 850.715288,599.725472 850.984555,599.707905 L852.541619,599.620067 L851.686989,600.925927 C851.540649,601.14845 851.540649,601.429532 851.681136,601.652055 C851.804062,601.851155 852.020646,601.968273 852.248937,601.968273 C852.272352,601.968273 852.30162,601.968273 852.330888,601.962417 C852.330888,601.962417 852.336742,601.962417 852.336742,601.962417 C853.355272,601.839443 854.795264,601.476379 856.498669,600.504304 C855.532821,602.202508 855.164042,603.648909 855.041116,604.667831 C855.041116,604.667831 855.041116,604.673687 855.041116,604.673687 C855.011848,604.937201 855.128921,605.183148 855.357212,605.323689 C855.585503,605.46423 855.860624,605.458374 856.083061,605.317833 L857.388419,604.462875 L857.300615,606.020538 C857.283054,606.284053 857.423541,606.529999 857.657686,606.658829 C857.757198,606.711531 857.868417,606.740811 857.973782,606.740811 C858.114269,606.740811 858.254756,606.693964 858.377682,606.606126 C859.197189,605.991259 860.268403,604.954769 861.257665,603.256565 C861.257665,603.484944 861.263519,603.707468 861.275226,603.929991 C861.286933,604.170082 861.497664,604.35747 861.737662,604.345758 C861.977661,604.334046 862.164977,604.123235 862.15327,603.883144 C862.106441,603.034042 862.147416,602.132237 862.264488,601.201153 C862.293757,601.136738 863.382531,597.939431 863.792284,596.744832 C863.862528,596.750688 864.137648,596.750688 864.207892,596.744832 C864.658621,598.062404 865.706419,601.136738 865.735688,601.201153 C866.069344,603.795306 865.712273,605.645762 865.284959,606.834505 L864.395208,605.066031 C864.319111,604.919634 864.166916,604.82594 864.003015,604.82594 C863.839113,604.82594 863.686919,604.919634 863.610822,605.066031 L862.721071,606.828649 C862.603999,606.512432 862.510341,606.172791 862.42839,605.821438 C862.375707,605.587203 862.135709,605.440807 861.901564,605.493509 C861.667419,605.546212 861.521078,605.786303 861.573761,606.020538 C861.70254,606.582702 861.872296,607.109731 862.077172,607.589913 C862.077172,607.589913 862.077172,607.595769 862.077172,607.595769 C862.182538,607.835859 862.410829,607.993968 862.674242,607.999824 C862.937655,608.00568 863.183507,607.865139 863.30058,607.625048 L864.003015,606.23135 L864.70545,607.625048 C864.822522,607.853427 865.050814,607.999824 865.308373,607.999824 C865.314227,607.999824 865.32008,607.999824 865.331787,607.999824 C865.595201,607.993968 865.823492,607.835859 865.928857,607.595769 C865.928857,607.595769 865.928857,607.589913 865.928857,607.589913 C866.332757,606.647117 866.736657,605.212427 866.748365,603.256565 C867.737627,604.948913 868.802987,605.985403 869.628348,606.606126 C869.74542,606.693964 869.885907,606.740811 870.026394,606.740811 C870.137613,606.740811 870.242978,606.711531 870.348343,606.658829 C870.582488,606.529999 870.722975,606.289908 870.705415,606.020538 L870.61761,604.462875 L871.922968,605.317833 C872.145406,605.46423 872.42638,605.46423 872.648818,605.323689 C872.871255,605.183148 872.994182,604.937201 872.964913,604.673687 C872.964913,604.673687 872.964913,604.667831 872.964913,604.667831 C872.841987,603.648909 872.479063,602.208364 871.507361,600.504304 C873.210766,601.476379 874.650757,601.839443 875.675141,601.962417 C875.70441,601.968273 875.727824,601.968273 875.757092,601.968273 C875.985384,601.968273 876.201968,601.851155 876.324894,601.652055 C876.465381,601.423676 876.459527,601.14845 876.31904,600.925927 L875.464411,599.620067 L877.021475,599.707905 C877.284888,599.725472 877.53074,599.584931 877.65952,599.350696 C877.782446,599.116461 877.764885,598.841235 877.606837,598.630424 C877.606837,598.630424 877.606837,598.624568 877.600984,598.624568 C876.986353,597.804745 875.950262,596.738976 874.258564,595.749333 C876.219529,595.737622 877.647813,595.333566 878.590246,594.929511 C878.590246,594.929511 878.5961,594.929511 878.5961,594.923655 C878.836099,594.818249 878.994146,594.58987 879,594.326356 C878.994146,594.062841 878.853659,593.82275 878.613661,593.699777 Z M870.219564,587.404711 C872.291747,585.817769 874.077102,585.202902 875.323924,584.980379 L874.241004,586.631736 C874.147346,586.772277 874.147346,586.947953 874.229296,587.09435 C874.311247,587.240747 874.469295,587.322729 874.633196,587.311017 L876.605868,587.199756 C875.78636,588.171831 874.36393,589.407421 871.952236,590.408775 C871.876139,590.420487 868.287868,591.123192 867.327873,591.31058 C867.263483,591.187607 867.199094,591.070489 867.122997,590.953372 C868.071284,589.870035 870.178588,587.457414 870.219564,587.404711 Z M862.721071,579.177207 L863.610822,580.945681 C863.686919,581.092078 863.839113,581.185772 864.003015,581.185772 C864.166916,581.185772 864.319111,581.092078 864.395208,580.945681 L865.284959,579.177207 C865.718127,580.371805 866.075198,582.222262 865.735688,584.816415 C865.706419,584.880829 864.629353,588.048858 864.207892,589.272736 C864.137648,589.26688 863.862528,589.26688 863.792284,589.272736 C863.370823,588.043002 862.293757,584.880829 862.264488,584.816415 C861.930832,582.222262 862.287903,580.371805 862.721071,579.177207 Z M855.98355,581.67181 L857.634272,582.755147 C857.774759,582.848841 857.950367,582.848841 858.096708,582.766858 C858.243049,582.684876 858.324999,582.526767 858.313292,582.362803 L858.202073,580.389373 C859.21475,581.244331 860.520108,582.761002 861.544493,585.372723 L862.920094,589.419132 C862.364,589.588953 861.860588,589.881747 861.444981,590.27409 L858.623534,587.059215 C856.879154,584.863262 856.217695,582.97767 855.98355,581.67181 Z M851.400162,587.199756 L853.372833,587.311017 C853.536735,587.322729 853.694783,587.234891 853.776733,587.09435 C853.858684,586.947953 853.85283,586.772277 853.765026,586.631736 L852.682106,584.980379 C853.934781,585.202902 855.714283,585.823625 857.786466,587.404711 C857.833295,587.46327 860.034258,589.987152 860.883033,590.959228 C860.806936,591.076345 860.736693,591.193463 860.678156,591.316436 C859.647918,591.11148 856.12989,590.420487 856.053793,590.408775 C853.6421,589.407421 852.219669,588.171831 851.400162,587.199756 Z M850.188462,594.279509 L851.950403,593.389416 C852.096743,593.313289 852.190401,593.161037 852.190401,592.997072 C852.190401,592.833108 852.096743,592.680855 851.950403,592.604728 L850.182608,591.714635 C851.42943,591.263733 853.396248,590.894813 856.170866,591.31058 L860.362061,592.142114 C860.297671,592.41734 860.262549,592.698422 860.262549,592.991216 C860.262549,593.28401 860.297671,593.570948 860.362061,593.840318 L856.170866,594.671852 C853.402101,595.099331 851.441137,594.730411 850.188462,594.279509 Z M852.682106,601.019621 L853.765026,599.368264 C853.858684,599.227723 853.858684,599.052047 853.776733,598.90565 C853.700636,598.770965 853.554296,598.688983 853.396248,598.688983 C853.390394,598.688983 853.378687,598.688983 853.372833,598.688983 L851.400162,598.800244 C852.219669,597.828169 853.6421,596.592579 856.053793,595.591225 C856.124037,595.579513 859.232311,594.970502 860.678156,594.683564 C860.742546,594.806537 860.806936,594.923655 860.883033,595.040772 C860.02255,596.030415 857.833295,598.53673 857.786466,598.595289 C855.708429,600.182231 853.928928,600.797098 852.682106,601.019621 Z M861.550346,600.621421 C860.525962,603.233142 859.226457,604.749813 858.207927,605.604771 L858.319146,603.631341 C858.330853,603.467377 858.243049,603.309268 858.102562,603.227286 C858.032318,603.186295 857.956221,603.168727 857.885978,603.168727 C857.804027,603.168727 857.716222,603.192151 857.645979,603.238998 L855.995257,604.322334 C856.229402,603.016474 856.890861,601.130883 858.641095,598.934929 L861.462542,595.720054 C861.878149,596.106542 862.375707,596.405191 862.937655,596.575012 L861.550346,600.621421 Z M861.146446,592.997072 C861.146446,591.421842 862.42839,590.139405 864.003015,590.139405 C865.57764,590.139405 866.859583,591.421842 866.859583,592.997072 C866.859583,594.572302 865.57764,595.854739 864.003015,595.854739 C862.42839,595.854739 861.146446,594.572302 861.146446,592.997072 Z M872.02248,604.32819 L870.371758,603.244853 C870.231271,603.151159 870.055662,603.151159 869.909322,603.233142 C869.762981,603.315124 869.68103,603.473233 869.692738,603.637197 L869.803956,605.610627 C868.791279,604.755669 867.485921,603.238998 866.461537,600.627277 L865.085935,596.580868 C865.64203,596.411047 866.145441,596.118253 866.561049,595.72591 L869.382495,598.940785 C871.126875,601.136738 871.788335,603.02233 872.02248,604.32819 Z M876.605868,598.800244 L874.633196,598.688983 C874.469295,598.677271 874.311247,598.765109 874.229296,598.90565 C874.147346,599.052047 874.153199,599.227723 874.241004,599.368264 L875.323924,601.019621 C874.071248,600.797098 872.291747,600.176375 870.219564,598.595289 C870.172735,598.53673 867.831285,595.854739 867.122997,595.040772 C867.199094,594.923655 867.269337,594.806537 867.327873,594.683564 C868.59811,594.935367 871.881993,595.579513 871.952236,595.591225 C874.36393,596.592579 875.78636,597.822313 876.605868,598.800244 Z M871.82931,594.683564 L867.638115,593.85203 C867.702505,593.576804 867.737627,593.295722 867.737627,593.002928 C867.737627,592.710134 867.702505,592.423196 867.638115,592.153826 L871.82931,591.322292 C874.603928,590.906525 876.564892,591.275445 877.817568,591.726347 L876.055627,592.61644 C875.909286,592.692567 875.815628,592.844819 875.815628,593.008784 C875.815628,593.172748 875.909286,593.325001 876.055627,593.401127 L877.823422,594.29122 C876.570746,594.730411 874.603928,595.099331 871.82931,594.683564 Z" id="Shape"></path>
        </g>
    </g>
</svg>