<?xml version="1.0" encoding="UTF-8"?>
<svg width="27px" height="30px" viewBox="0 0 27 30" version="1.1" xmlns="http://www.w3.org/2000/svg" xmlns:xlink="http://www.w3.org/1999/xlink">
    <!-- Generator: Sketch 52.6 (67491) - http://www.bohemiancoding.com/sketch -->
    <title>tul</title>
    <desc>Created with Sketch.</desc>
    <g id="Мир-роз" stroke="none" stroke-width="1" fill="none" fill-rule="evenodd">
        <g id="Главная" transform="translate(-466.000000, -578.000000)" fill="#0AB1B0" fill-rule="nonzero">
            <g id="tul" transform="translate(466.000000, 578.000000)">
                <path d="M23.5941176,2.81176471 L23.2058824,2.16470588 C23.1058824,1.99411765 22.9117647,1.90588235 22.7117647,1.94117647 C22.5176471,1.97647059 22.3647059,2.12352941 22.3235294,2.31764706 L21.9058824,4.37647059 L21.3411765,3.65294118 C20.7705882,2.92352941 20.0941176,2.29411765 19.3235294,1.78235294 L18.2235294,1.04705882 C18.0352941,0.917647059 17.7823529,0.947058824 17.6176471,1.10588235 L15.7882353,2.93529412 L13.4823529,0.170588235 C13.3882353,0.0588235294 13.2588235,0 13.1117647,0 C12.9705882,0 12.8352941,0.0647058824 12.7411765,0.170588235 L10.4352941,2.93529412 L8.60588235,1.10588235 C8.44705882,0.947058824 8.18823529,0.917647059 8,1.04705882 L6.89411765,1.78235294 C6.12941176,2.29411765 5.44705882,2.92352941 4.88235294,3.65294118 L4.31764706,4.37647059 L3.9,2.31764706 C3.85882353,2.12352941 3.70588235,1.97647059 3.51176471,1.94117647 C3.48235294,1.93529412 3.45882353,1.93529412 3.42941176,1.93529412 C3.25882353,1.93529412 3.10588235,2.02352941 3.01764706,2.17058824 L2.62941176,2.81176471 C0.935294118,5.62941176 0.0411764706,8.85882353 0.0411764706,12.1470588 L0.0411764706,16.9352941 C0.0411764706,20.4235294 1.4,23.7058824 3.86470588,26.1705882 C6.32941176,28.6352941 9.61176471,29.9941176 13.1,29.9941176 C16.5882353,29.9941176 19.8705882,28.6352941 22.3352941,26.1705882 C24.8,23.7058824 26.1588235,20.4235294 26.1588235,16.9352941 L26.1588235,12.1470588 C26.1823529,8.85882353 25.2882353,5.62941176 23.5941176,2.81176471 Z M9.58235294,3.97647059 C8.52352941,5.24705882 7.7,6.67647059 7.13529412,8.22941176 L6.89411765,8.89411765 L6.42352941,8.36470588 C5.75882353,7.62352941 5.22352941,6.78823529 4.83529412,5.88235294 L4.75882353,5.7 L4.84705882,5.52352941 C5.44117647,4.33529412 6.34117647,3.32352941 7.44705882,2.58823529 L8.22352941,2.07058824 L9.83529412,3.68235294 L9.58235294,3.97647059 Z M12.6411765,21.5941176 L12.6411765,29.0352941 L12.1823529,29 C9.15294118,28.7647059 6.34117647,27.4058824 4.25882353,25.1705882 C2.16470588,22.9235294 1.01764706,20 1.01764706,16.9352941 L1.01764706,12.1470588 C1.01764706,9.61764706 1.58823529,7.07058824 2.67647059,4.78235294 L3.17058824,3.73529412 L3.47058824,4.85294118 C3.97058824,6.72941176 5,8.41764706 6.44117647,9.73529412 L8.07058824,11.2235294 C10.9764706,13.8823529 12.6411765,17.6588235 12.6411765,21.5941176 Z M7.68823529,9.58235294 L7.90588235,8.93529412 C8.44117647,7.33529412 9.25294118,5.87058824 10.3352941,4.57647059 L13.1235294,1.22941176 L15.9117647,4.57647059 C16.9882353,5.87058824 17.8058824,7.33529412 18.3411765,8.93529412 L18.5588235,9.58823529 L17.5352941,10.5235294 C15.7411765,12.1647059 14.3529412,14.2470588 13.5294118,16.5529412 L13.1294118,17.6705882 L12.7294118,16.5529412 C11.9058824,14.2470588 10.5176471,12.1647059 8.72352941,10.5235294 L7.68823529,9.58235294 Z M21.4058824,5.87647059 C21.0176471,6.78235294 20.4823529,7.61764706 19.8176471,8.35882353 L19.3470588,8.88823529 L19.1058824,8.22352941 C18.5352941,6.67647059 17.7117647,5.24117647 16.6588235,3.97058824 L16.4117647,3.67058824 L18.0235294,2.05882353 L18.8,2.57647059 C19.9058824,3.31176471 20.8,4.32941176 21.4,5.51176471 L21.4882353,5.68823529 L21.4058824,5.87647059 Z M13.6,21.5941176 C13.6,17.6588235 15.2647059,13.8764706 18.1705882,11.2235294 L19.8,9.73529412 C21.2411765,8.41764706 22.2705882,6.72941176 22.7705882,4.85294118 L23.0705882,3.73529412 L23.5647059,4.78235294 C24.6470588,7.07058824 25.2235294,9.61764706 25.2235294,12.1470588 L25.2235294,16.9352941 C25.2235294,20 24.0705882,22.9235294 21.9823529,25.1705882 C19.9,27.4058824 17.0882353,28.7647059 14.0588235,29 L13.6,29.0352941 L13.6,21.5941176 Z" id="Shape"></path>
            </g>
        </g>
    </g>
</svg>