<svg width="23" height="23" viewBox="0 0 23 23" version="1.1" xmlns="http://www.w3.org/2000/svg" xmlns:xlink="http://www.w3.org/1999/xlink">
<title>logo_z</title>
<desc>Created using Figma</desc>
<g id="Canvas" transform="translate(2640 -6702)">
<g id="logo_z">
<g id="Fill-4">
<use xlink:href="#path0_fill" transform="translate(-2640 6708)" fill="#FFFFFF"/>
</g>
<g id="Fill-4">
<use xlink:href="#path1_fill" transform="matrix(-1 1.22465e-16 -1.22465e-16 -1 -2617 6719)" fill="#FFFFFF"/>
</g>
</g>
</g>
<defs>
<path id="path0_fill" d="M 0.0275142 14.8746L 10.5222 0.598238C 10.7986 0.222244 11.2438 -0.000356305 11.7177 4.28118e-07L 14.1528 0.00267591L 3.12791 14.617L 3.16665 14.6903L 20.9897 14.6934C 21.5404 14.6934 22.0448 14.9941 22.2963 15.4721L 22.9835 16.7774C 23.0338 16.8728 22.9629 16.9863 22.853 16.9864L 1.14646 17C 1.09126 17 1.04081 16.9699 1.01559 16.9221L 0.0161822 15.0237C -0.00885779 14.9757 -0.004654 14.9183 0.0275142 14.8746Z"/>
<path id="path1_fill" d="M 0.0275142 14.8746L 10.5222 0.598238C 10.7986 0.222244 11.2438 -0.000356303 11.7177 4.28112e-07L 14.1528 0.00267591L 3.12791 14.617L 3.16665 14.6903L 20.9897 14.6934C 21.5404 14.6934 22.0448 14.9941 22.2963 15.4721L 22.9835 16.7774C 23.0338 16.8728 22.9629 16.9863 22.853 16.9864L 1.14646 17C 1.09126 17 1.04081 16.9699 1.01559 16.9221L 0.0161822 15.0237C -0.00885779 14.9757 -0.004654 14.9183 0.0275142 14.8746Z"/>
</defs>
</svg>
