<svg width="201" height="54" viewBox="0 0 201 54" xmlns="http://www.w3.org/2000/svg"><title>лого Капитал 2021</title><g fill="#FFF" fill-rule="evenodd"><path d="M78.4 26.3h-6.7c-.3-.9-.6-1.7-.9-2.6-.3-.9-.6-1.6-.9-2.4-.2-.5-.5-1-.7-1.4-.2-.4-.5-.7-.9-1-.3-.2-.7-.5-1.1-.6-.4-.1-1-.2-1.6-.2v5.5c0 .3.1.5.2.7.1.2.3.4.6.5.2.1.4.1.8.2s.7.1.9.1v1h-9.5v-1c.2 0 .5 0 .9-.1.4 0 .7-.1.9-.2.3-.1.5-.3.6-.5.1-.2.2-.5.2-.8V11c0-.3 0-.5-.1-.7-.1-.2-.3-.4-.6-.5-.2-.1-.6-.2-1-.3-.4-.1-.7-.1-.9-.1v-1h9.5v1c-.2 0-.6.1-.9.1-.4.1-.6.1-.8.2-.3.1-.5.3-.6.5-.1.2-.1.5-.1.7v5.9h.8c.3 0 .7 0 1-.1.4-.1.7-.3 1-.6.6-.6 1-1.2 1.3-1.8.3-.6.6-1.2.7-1.9.2-.7.5-1.3.7-1.8.2-.5.6-1 1.2-1.6.3-.3.6-.5 1.1-.7.4-.2.9-.2 1.4-.2.8 0 1.5.2 2 .6.5.4.7 1 .7 1.6 0 .7-.2 1.3-.6 1.7-.4.4-.9.6-1.5.6-.4 0-.8-.1-1.2-.4-.4-.2-.8-.7-1.4-1.3-.2.2-.5.6-.6 1.2-.2.5-.4 1-.5 1.4-.3.8-.6 1.4-.9 1.9-.3.4-.6.8-1.1 1.1v.2c1.2.3 2.1.8 2.9 1.5.7.7 1.4 1.6 1.9 2.6.2.4.4.9.6 1.4.2.5.4.9.6 1.2.2.5.5.9.7 1.1.2.2.4.3.6.3.2 0 .4.1.7.1.3 0 .5.1.7.1l-.1 1.3zm19.7 0v-1c-.2 0-.5-.1-.8-.1-.3-.1-.6-.2-.8-.3-.3-.2-.5-.4-.7-.6-.2-.2-.3-.4-.4-.7-.6-1.5-1.4-3.4-2.4-5.7-1-2.3-2.2-5.5-3.8-9.5h-2.4c-1.2 2.8-2.2 5.4-3.2 7.7-1 2.4-1.9 4.7-2.9 7-.1.4-.4.7-.6 1-.2.3-.5.5-.9.7-.2.1-.5.2-.8.3-.4.1-.6.1-.9.1v1h7.2v-1c-.9-.1-1.6-.2-2-.4-.4-.2-.6-.4-.6-.7v-.4c0-.2.1-.5.3-1 .1-.4.3-.7.4-1.2.2-.5.3-.9.5-1.2h6.1l1.5 3.7c.1.1.1.2.1.3v.2c0 .2-.3.4-.9.5-.6.1-1.1.2-1.6.2v1h9.6v.1zm-9.2-7.1h-5.1l2.5-6.5 2.6 6.5zm30.6 7.1H110v-1c.2 0 .5 0 .9-.1s.6-.1.8-.1c.3-.1.5-.3.6-.5.1-.2.2-.5.2-.8V10h-7.2v13.7c0 .3.1.5.2.7.1.2.3.4.6.5.1.1.4.1.8.2s.6.1.9.1v1h-9.5v-1c.2 0 .5 0 .9-.1.4 0 .7-.1.9-.2.3-.1.5-.3.6-.5.1-.2.2-.5.2-.8V11.1c0-.3 0-.5-.1-.7-.1-.2-.3-.4-.6-.5-.2-.1-.6-.2-1-.3-.4-.1-.7-.1-.9-.1v-1h21.2v1c-.2 0-.6 0-.9.1-.3.1-.6.1-.9.2-.3.1-.5.3-.6.5-.1.2-.2.5-.2.7v12.5c0 .3.1.5.2.7.1.2.3.4.6.5.2.1.5.1.9.2s.7.1.9.1v1.3zm11.3 0h-9.7v-1c.2 0 .5 0 1-.1.4 0 .7-.1.9-.1.3-.1.5-.3.6-.5.1-.2.2-.5.2-.8V11.3c0-.3-.1-.5-.2-.7-.1-.2-.3-.4-.6-.5-.2-.1-.5-.2-.9-.2-.4-.1-.7-.1-1-.2v-1h9.7v1c-.2 0-.6.1-.9.1-.4 0-.7.1-.9.2-.3.1-.5.3-.6.5-.1.2-.2.5-.2.8v12.5c0 .3.1.5.2.7.1.2.3.4.6.5.2.1.5.1.9.2s.7.1 1 .1v1h-.1zm18-12.6h-1c-.2-.7-.7-1.5-1.2-2.4-.6-.9-1.1-1.3-1.6-1.4-.2 0-.6-.1-1-.1h-1.6v13.8c0 .3.1.6.2.8.1.2.3.4.6.5.2.1.5.1.9.2s.7.1 1 .2v1h-9.8v-1c.2 0 .6-.1 1-.1s.7-.1.9-.2c.3-.1.5-.3.6-.5.1-.2.2-.5.2-.8V9.8h-1.6c-.4 0-.7 0-1 .1-.5.1-1 .5-1.6 1.4-.6.9-1 1.6-1.2 2.4h-1v-5h17v5h.2zM169 26.3v-1c-.2 0-.5-.1-.8-.1-.3-.1-.6-.2-.8-.3-.3-.2-.5-.4-.7-.6-.2-.2-.3-.4-.4-.7-.6-1.5-1.4-3.4-2.4-5.7-1-2.3-2.2-5.5-3.8-9.5h-2.5c-1.2 2.8-2.2 5.4-3.2 7.7-1 2.4-1.9 4.7-2.9 7-.1.4-.4.7-.6 1-.2.3-.5.5-.9.7-.2.1-.5.2-.8.3-.4.1-.6.1-.9.1v1h7.2v-1c-.9-.1-1.6-.2-2-.4-.4-.2-.6-.4-.6-.7v-.4c0-.2.1-.5.3-1 .1-.4.3-.7.4-1.2.2-.5.3-.9.5-1.2h6.1l1.5 3.7c.1.1.1.2.1.3v.2c0 .2-.3.4-.9.5-.6.1-1.1.2-1.6.2v1h9.6v.1h.1zm-9.2-7.1h-5.1l2.5-6.5 2.6 6.5zm15-9.1c-.2-.1-.6-.2-1-.3-.4-.1-.7-.1-.9-.1v-1h15.8v1c-.2 0-.6 0-.9.1-.3.1-.6.1-.9.2-.3.1-.5.3-.6.5-.1.2-.2.5-.2.7v12.5c0 .3.1.5.2.7.1.2.3.4.6.5.2.1.5.1.9.2s.7.1.9.1v1h-9.6v-1c.2 0 .5 0 .9-.1.4 0 .7-.1.9-.1.3-.1.5-.3.6-.5.1-.2.2-.5.2-.8v-14h-4.2c-.1 3-.4 5.5-.9 7.7-.5 2.1-1.1 3.9-1.7 5.2-.7 1.4-1.5 2.4-2.3 3-.8.6-1.5.9-2.2.9-.6 0-1-.1-1.4-.2-.4-.1-.6-.4-.8-.6-.2-.2-.3-.5-.4-.8-.1-.3-.1-.6-.1-.8 0-.8.2-1.4.7-1.8.5-.4 1-.6 1.7-.6.5 0 .9.1 1.3.4.4.3.9.7 1.2 1.1.3-.5.6-1.1 1-2 .4-.8.7-1.7 1-2.6.3-1.1.6-2.1.7-3.2.2-1 .3-2.2.3-3.5 0-.5 0-1-.1-1.4-.1 0-.3-.3-.7-.4z" fill-rule="nonzero"/><path d="M45.2 45.4c-.5.7-1.1 1.3-1.7 1.9h157v-1.9H45.2z"/><path d="M27 .8C12.4.8.5 12.7.5 27.3S12.4 53.8 27 53.8s26.5-11.9 26.5-26.5S41.6.8 27 .8zm0 51.6c-13.8 0-25-11.2-25-25s11.2-25 25-25 25 11.2 25 25-11.2 25-25 25z" fill-rule="nonzero"/><circle cx="48.1" cy="27.3" r="1"/><circle cx="5.8" cy="27.3" r="1"/><path d="M38.7 37.9h-8.2c-.4-1-.7-2.1-1.1-3.1-.4-1-.7-2-1.1-2.9l-.8-1.6c-.3-.5-.6-.9-1-1.2-.4-.3-.9-.6-1.4-.7-.5-.1-1.2-.2-1.9-.2v6.6c0 .3.1.6.2.9.1.3.4.5.7.6.2.1.5.2 1 .2.5.1.9.1 1.1.2v1.2H14.7v-1.2c.2 0 .6 0 1.1-.1.5-.1.9-.1 1.1-.2.4-.1.6-.3.7-.6.1-.2.2-.6.2-.9V19.8c0-.4-.1-.6-.2-.9-.1-.2-.4-.5-.8-.6-.3-.1-.7-.2-1.1-.4-.5-.1-.8-.2-1-.2v-1.2h11.6v1.2c-.3 0-.7.1-1.1.1-.4.1-.7.1-1 .2-.4.1-.6.4-.8.6-.1.3-.2.6-.2.9v7.1h1c.4 0 .8-.1 1.2-.2.4-.1.8-.4 1.2-.7.7-.7 1.2-1.4 1.6-2.2.4-.7.7-1.5.9-2.2.3-.9.6-1.6.8-2.1.2-.6.7-1.2 1.4-1.9.4-.4.8-.6 1.3-.8.5-.2 1.1-.3 1.7-.3 1 0 1.8.2 2.4.7.6.5.9 1.2.9 2 0 .9-.2 1.5-.7 2-.5.5-1.1.7-1.9.7-.5 0-1-.1-1.4-.4-.5-.3-1-.8-1.6-1.6-.3.3-.6.8-.8 1.4-.2.6-.4 1.2-.6 1.7-.4 1-.8 1.7-1.1 2.2-.4.5-.8.9-1.3 1.3v.2c1.4.4 2.6 1 3.5 1.9.9.9 1.7 1.9 2.2 3.1.2.5.5 1.1.8 1.7.2.6.5 1.1.7 1.5.3.6.6 1.1.9 1.3.3.2.5.3.7.4.2 0 .5.1.9.1s.6.1.8.1v1.4z"/><path d="M7.3 23.3c0-.1-.1-.2-.1-.2-.1-.1-.2-.1-.3-.1h-.3c-.1 0-.1.1-.2.1 0 .1-.1.1-.2.2 0 .1-.1.2-.1.2v-.2c0-.1 0-.1-.1-.2 0-.1-.1-.1-.1-.2-.1 0-.1-.1-.2-.1-.2 0-.3 0-.4.1-.1.1-.2.4-.2.7l-.2 1.3H5v-.1s0-.1.1-.1c0 0 0-.1.1-.1h.1l1.7.3h.1v.3h.1l.2-1.2v-.5c0 .1 0-.1-.1-.2zm-1.3.9l-.9-.1v-.2c0-.1.1-.2.2-.3.1-.1.2-.1.3-.1.1 0 .2.1.3.2.1.2.2.3.1.5zm1.2-.1c0 .1 0 .1-.1.2l-.1.1-.9-.1v-.2c0-.2.1-.3.2-.4.1-.1.2-.1.4-.1s.3.1.4.1c.1.2.1.3.1.4zm.7-2.4l.4-1.2h-.1v.1s0 .1-.1.1l-.1.1h-.1c-.2 0-.5.1-.9.1s-.8.1-1.4.1l-.1.3c.3.2.6.5.9.7.3.2.5.4.8.6l.1.1s0 .1.1.1v.2h.1l.3-1h-.1c0 .1-.1.2-.1.2l-.1.1h-.1s-.1 0-.1-.1l-.1-.1c-.1 0-.1-.1-.1-.1l.2-.8.5-.1v.3l.1.3zm-1.1.4l-.8-.6 1-.1-.2.7z" fill-rule="nonzero"/><path d="M10.1 16.7l-2 3.8-.1-.1v-.3l-.1-.1-1.5-.8h-.2l-.1.1-.1.1-.1-.1.6-1.1.1.1v.3l.1.1 1.5.8h.1s.1 0 .1-.1c0 0 0-.1.1-.1 0 0 0-.1.1-.1 0 0 0-.1.1-.1 0 0 0-.1.1-.1v-.1s0-.1-.1-.1L7.2 18H7l-.1.1s0 .1-.1.1l-.1-.1.6-1.1.1.1v.3l.1.1 1.5.8h.1s.1 0 .1-.1c0 0 0-.1.1-.1 0 0 0-.1.1-.1 0 0 0-.1.1-.1 0 0 0-.1.1-.1v-.1s0-.1-.1-.1L8 16.8h-.2l-.1.1c-.1.1 0 .1-.1.1l-.1-.1.6-1.1.1.1v.3l.1.1 1.5.8h.2l.1-.1v-.3z"/><path d="M11.6 14.4c0 .1 0 .1 0 0-.1.1-.1.1-.2.1h-.2c-.2 0-.5-.1-.8-.2-.3-.1-.8-.2-1.4-.3l-.2.3c.2.4.4.7.6 1l.6.9.1.1v.2s0 .1-.1.1l.1.1.6-.8-.1-.1c-.1.1-.1.2-.2.2h-.1s0-.1-.1-.1l-.1-.1c0-.1-.1-.1-.1-.1l.5-.7.5.1v.1c0 .1-.1.1-.1.2l.1.1.8-1-.2-.1zm-1.8 1.2l-.5-.8.9.2-.4.6zm4.1-3.3l-.1.1c-.1 0-.1.1-.1.1h-.1l-.1-.1c.1-.1.2-.2.3-.4.1-.1.1-.2.1-.4 0-.1 0-.2-.1-.4 0-.1-.1-.2-.2-.4l-.2-.2h-.3c-.1 0-.2 0-.4.1-.1.1-.3.2-.4.3l-.1-.1v-.1s0-.1.1-.1l.1-.1-.1-.1-.9.9.1.1s.1 0 .1-.1l.1-.1h.1s.1 0 .1.1c-.2.1-.3.3-.4.4-.1.1-.1.3-.1.4v.4c0 .1.1.2.2.3.1.1.2.2.3.2h.4c.1 0 .2-.1.4-.1.1-.1.2-.2.4-.3v.2s0 .1-.1.1c0 .1 0 .1-.1.1l.1.1.9-.9zm-1.2.5h-.3c-.1 0-.2-.1-.2-.1 0-.1-.1-.1-.1-.1 0-.1-.1-.1-.1-.2-.1-.1-.1-.1-.1-.2V12c0-.1 0-.1.1-.2l1 1c-.2-.1-.3 0-.3 0zm-.4-1.6c.1-.1.2-.1.2-.1h.2c.1 0 .1.1.2.1.1.1.1.1.2.1l.1.1c.1 0 .1.1.1.2v.3c0 .1-.1.2-.1.2l-.9-.9z" fill-rule="nonzero"/><path d="M15.7 11l-.1-.1s-.1 0-.1.1h-.2s-.1 0-.1-.1l-1-1.4v-.2s0-.1.1-.1l.1-.1-.1-.1-1.1.8.1.1s.1 0 .1-.1h.2s.1 0 .1.1l1 1.4v.2l-.1.1-.1.1.1.1 1.1-.8zm2.6-1.5l-1.1.6-.2-.1s.1 0 .1-.1l.1-.1v-.2l-.4-.7-.9.5.4.7s0 .1.1.1h.3l.1.1-1.1.6-.1-.1s.1 0 .1-.1l.1-.1v-.2l-.9-1.5s0-.1-.1-.1h-.3l-.1-.1 1.1-.6.1.1s-.1 0-.1.1l-.1.1v.2l.4.6.9-.5-.4-.6s0-.1-.1-.1h-.3l-.1-.1 1.1-.6.1.1s-.1 0-.1.1l-.1.1v.2l.9 1.5s0 .1.1.1h.2c.1 0 .2 0 .3.1z"/><path d="M20.7 8.3h-.3s-.1 0-.1-.1c-.1-.2-.4-.4-.6-.6l-1-1-.3.1V9s0 .1-.1.1l-.1.1s-.1 0-.1.1v.1L19 9v-.1h-.3c-.1 0-.1 0-.1-.1v-.6l.8-.3.4.4s0 .1-.1.1-.1.1-.2.1v.1l1.2-.5v.2zm-2.1-.1v-1l.6.7-.6.3z" fill-rule="nonzero"/><path d="M23.5 7.8l-1.3.3V8h.2l.1-.1v-.1l-.2-.8-1 .2.2.8v.1h.3v.1l-1.3.3v-.1h.2s.1 0 .1-.1v-.1l-.4-1.7v-.1h-.3v-.1l1.3-.3v.1h-.2l-.1.1v.1l.2.7 1-.2-.1-.7V6h-.3v-.1l1.3-.3v.1h-.1s-.1 0-.1.1l-.1.1V6l.4 1.7v.1h.3-.1zm1.4-.1c.1 0 .3 0 .4-.1.1 0 .2-.1.3-.2l.2-.2c0-.1.1-.2.1-.3l-.1-.1c-.1.2-.2.3-.3.4-.1.1-.2.2-.4.2h-.3c-.1 0-.2-.1-.2-.1-.1-.1-.1-.2-.2-.3-.1-.1-.1-.3-.1-.5 0-.3 0-.6.1-.8.1-.2.2-.3.5-.4.2 0 .3 0 .5.1.1.1.2.3.4.5h.1l-.1-.9h-.1l-.1.1c-.1 0-.2-.1-.3-.1h-.4c-.2 0-.4.1-.5.1-.1.1-.3.2-.4.3-.1.1-.2.3-.2.5s-.1.4 0 .5c.1.1.1.4.2.5.1.1.2.3.3.4.1.1.3.1.4.2-.2.2 0 .2.2.2z"/><path d="M28.5 5.7c-.1-.1-.2-.3-.3-.4-.1-.1-.2-.2-.4-.2-.1-.1-.3-.1-.5-.1s-.3 0-.5.1-.3.1-.4.2c-.1.1-.2.2-.3.4-.1.1-.1.3-.1.5s0 .4.1.5c.1.1.2.3.3.4.1.1.2.2.4.2.1.1.3.1.5.1s.4 0 .6-.1c.2-.1.3-.2.4-.3.1-.1.2-.2.2-.4s.1-.3.1-.5c0 0 0-.2-.1-.4zm-.6 1c0 .1 0 .2-.1.4l-.2.2c-.1 0-.2.1-.3.1-.1 0-.2 0-.3-.1l-.2-.2c0-.1-.1-.2-.1-.4v-.4c0-.4.1-.6.2-.8.1-.2.2-.3.5-.3.1 0 .2 0 .3.1l.2.2c.1.1.1.2.1.4v.4c-.1.2-.1.3-.1.4zm2.8-.3c.1 0 .1 0 .2-.1.1 0 .1-.1.2-.1 0-.1.1-.1.1-.2 0-.2 0-.3-.2-.4-.1-.1-.4-.2-.7-.2L29 5.2v.1h.2s.1 0 .1.1v.1l-.2 1.7v.1l-.1.1h-.2v.1l1.2.1h.5c.2 0 .2 0 .4-.1.1 0 .2-.1.2-.2s.1-.2.1-.3v-.3c0-.1-.1-.1-.1-.2-.1-.1-.1-.1-.2-.1-.1-.1-.2-.1-.2-.1-.2.2-.1.2 0 .1zm-.3.7c0 .1-.1.3-.2.4-.1.1-.2.1-.4.1-.1 0-.1 0-.2-.1l-.1-.1.1-.9h.2c.2 0 .4.1.4.2.2.1.3.2.2.4zm-.1-.8c-.1.1-.2.1-.4.1h-.1l.1-.9h.2c.1 0 .2.1.3.1.1.1.1.2.1.3-.1.2-.1.3-.2.4zm3.3 2.1s-.1 0-.1-.1l-.1-.1v-.1c0-.2-.1-.5-.1-.9s-.1-.8-.1-1.4l-.3-.1c-.2.3-.5.6-.7.9-.2.3-.4.5-.6.8l-.1.1s-.1 0-.1.1h-.2v.1l1 .3v-.1c-.1 0-.2-.1-.2-.1l-.1-.1v-.1s0-.1.1-.1l.1-.1c0-.1.1-.1.1-.1l.8.2.1.5h-.3v.1l1.2.4v-.1c-.4.1-.4 0-.4 0zM32 7.1l.6-.7.1.9-.7-.2zm4-.2l-.1.1s.1 0 .1.1c.1 0 .1.1.1.1v.2c-.1.2-.3.5-.6.7-.3.3-.5.5-.8.6l-.2-.1-.4.7.1.1c.1-.1.2-.2.4-.2.1-.1.3-.1.4-.1h.1s.1 0 .1.1l.9.4s.1 0 .1.1c0 0 .1 0 .1.1.1.1.1.2.1.3v.4l.1.1.4-.7-.1-.1c-.1 0-.1-.1-.1-.1v-.1l.8-1.5.1-.1h.3l.1-.1-2-1zm.1 2.4c0 .1 0 .1 0 0-.1.1-.1.1-.2.1l-1-.5c.3-.1.6-.4.8-.7.2-.3.5-.6.6-.9l.6.3-.8 1.7zm3.8.2c0-.1-.1-.3-.2-.4l-.4-.4c-.1-.1-.3-.2-.5-.2h-.5c-.2 0-.3.1-.5.2-.1.1-.3.2-.4.4-.1.1-.2.3-.2.5v.5c0 .1.1.3.2.4l.4.4c.2.1.4.2.5.2h.5c.1 0 .3-.1.4-.2l.4-.4c.1-.2.2-.3.2-.5.2-.2.2-.3.1-.5zm-.5.3c0 .1-.1.2-.2.4-.1.1-.2.2-.3.4-.1.1-.2.2-.3.2-.1.1-.2.1-.3.1-.1 0-.2 0-.3-.1-.1 0-.2-.1-.2-.2v-.3c0-.1.1-.2.1-.4.1-.1.1-.2.2-.4.2-.3.4-.5.6-.6.2-.1.4-.1.6 0 .1.1.2.1.2.2v.3c0 .1-.1.3-.1.4z" fill-rule="nonzero"/><path d="M41.4 13.5l-1-.9.1-.1s.1 0 .1.1c0 0 .1 0 .1.1h.1s.1 0 .1-.1l1.2-1.4-.7-.6-1.2 1.4v.2l.1.1.1.1-.1.1-1-.9.1-.1s.1 0 .1.1c0 0 .1 0 .1.1h.1s.1 0 .1-.1l1.1-1.3v-.2s0-.1-.1-.1l-.1-.1.1-.1 2.2 1.9-.1.1s-.1 0-.1-.1c0 0-.1 0-.1-.1h-.1s-.1 0-.1.1L41.4 13v.2s0 .1.1.1c-.1.1-.1.1-.1.2z"/><path d="M44.5 13.9c0 .2 0 .3-.1.5-.1.1-.2.3-.3.4-.1.1-.3.2-.4.2-.1.1-.3.1-.5.1s-.3-.1-.5-.1c-.1-.1-.3-.2-.4-.4-.1-.1-.2-.3-.2-.4-.1-.1-.1-.3-.1-.5 0-.1 0-.3.1-.5.1-.1.2-.3.3-.4.1-.1.3-.2.5-.3.2-.1.3-.1.5-.1s.3.1.5.1c.1.1.3.2.4.3.1.1.2.3.2.4-.1.4 0 .6 0 .7zm-1.6.8c.1 0 .2-.1.4-.1.1-.1.2-.1.4-.2l.3-.3c.1-.1.1-.2.2-.3 0-.1.1-.2.1-.3 0-.1 0-.2-.1-.3-.1-.1-.3-.2-.5-.2s-.5.2-.7.4l-.3.3c-.1.1-.1.2-.2.3 0 .1-.1.2 0 .3 0 .1 0 .2.1.3l.2.2c-.2 0-.1 0 .1-.1zm1.9 3.9l.1-.1v-.3l.1-.1 1.5-.9h.2l.1.1s0 .1.1.1l.1-.1-.5-.9h-.3l-1.4.2 1.1-1.3-.6-1-.1.1s0 .1.1.1v.1s0 .1-.1.1l-.1.1-1 .6c-.1.1-.2.1-.3.1h-.2l-.1-.1-.1-.1-.1.1.5.9.1-.1v-.3s0-.1.1-.1.1-.1.2-.2l1.3-.7-1.1 1.4c0 .1-.1.1-.2.2s-.1.1-.1.2l.1.2 2.2-.4-1.6.9h-.2l-.1-.1-.1-.1-.1.1.5 1.3zm2.9 1.3c-.1.1-.1.3-.2.4-.1.1-.3.2-.5.3-.2.1-.3.1-.5.1s-.3 0-.5-.1c-.1-.1-.3-.1-.4-.3-.1-.1-.2-.3-.3-.5-.1-.2-.1-.3-.1-.5s0-.3.1-.5c.1-.1.1-.3.2-.4.1-.1.2-.2.4-.3.2-.1.4-.1.5-.1.2 0 .3 0 .5.1.1.1.3.2.4.3.1.1.2.3.3.4.1.2.1.3.1.5.1.3.1.5 0 .6zm-1.8.3h.4c.1 0 .3-.1.4-.1.1 0 .2-.1.4-.2.1-.1.2-.1.3-.2.1-.1.1-.2.2-.3v-.3c-.1-.2-.2-.3-.4-.3s-.5 0-.8.1c-.1.1-.3.1-.4.2-.1.1-.2.1-.3.2-.1.1-.1.2-.1.3v.3c0 .1.1.2.2.2-.1 0 0 .1.1.1zm2.2 2.6l.7-.2-.6-2.1h-.1v.3H48l-1.6.5h-.1s-.1 0-.1-.1l-.1-.1V21H46l.4 1.3h.1V22s.1 0 .1-.1l1.9-.5.1.3v.3s-.1.1-.1.2l-.1.1-.1.1-.2.4zm-1.3 3.1l-.2-1.3h.1c0 .1 0 .1.1.2 0 .1.1.1.1.1l.5-.3-.1-.8h-.6s-.1 0-.1.1v.3h-.1l-.1-1h.1v.1s0 .1.1.1l.1.1s.1 0 .1.1c.3.1.7.2 1 .3.3.1.7.2 1.1.3v.3c-.5.3-.9.5-1.2.7-.3.2-.5.3-.7.4 0 0-.1 0-.1.1 0 0 0 .1-.1.1v.1s.1-.1 0 0zm.8-1.4l.8-.5-.9-.2.1.7z" fill-rule="nonzero"/><path d="M8.6 32.5v-.4l.2-.1 1 2.7-.2.1s0-.1-.1-.1c0-.1-.1-.1-.1-.1l-.1-.1h-.1l-2.2.7s-.1 0-.1.1v.5l-.2.1-.6-1.7.2-.1s0 .1.1.1c0 .1.1.1.1.1l.1.1h.1l2.4-.9-.2-.7c-.5.2-1 .2-1.4.3h-1c-.3 0-.5-.1-.7-.2l-.3-.3v-.4l.1-.1s.1 0 .1-.1h.4c.1.1.2.1.2.2v.2c0 .1-.1.2-.1.3.1 0 .2 0 .4.1h.5c.2 0 .4 0 .6-.1.2 0 .4-.1.6-.2.1 0 .2-.1.2-.1 0 .2.1.1.1.1z"/><path d="M10.9 37.2c0-.2-.1-.4-.2-.6-.1-.2-.3-.4-.5-.5l-.6-.3c-.2-.1-.4-.1-.7 0-.2 0-.5.1-.7.2-.2.1-.4.3-.5.5l-.3.6v.6c0 .2.1.4.2.6.1.2.3.5.5.6l.6.3c.2 0 .4.1.6 0 .2 0 .4-.1.6-.2.2-.1.4-.3.5-.5l.3-.6c.2-.3.2-.5.2-.7zm-.5.3l-.4.4c-.1.1-.3.2-.5.3-.2.1-.4.2-.5.2-.1 0-.3 0-.5.1-.1 0-.3 0-.4-.1-.1-.1-.2-.1-.3-.3-.1-.1-.1-.2-.1-.4s.1-.2.1-.4.2-.2.3-.4c.1-.1.3-.2.5-.3.4-.2.8-.4 1.1-.4.3 0 .5.1.6.4.1.1.1.3.1.4.1.2 0 .4 0 .5z" fill-rule="nonzero"/><path d="M12 43.8l-1.1-1.4.1-.1.1.1c.1 0 .1.1.1.1h.1s.1 0 .1-.1l1.9-1.6-2.9 1-.2-.2s.1-.1.2-.3c.1-.1.1-.2.2-.3l1.2-2.1-1.5 1.3-.3.3c-.1.1-.1.2-.1.2s0 .1.1.2c0 .1.1.1.1.2l-.1.1-.9-1.1.1-.1.1.1c.1.1.1.1.2.1h.2c.1 0 .2-.1.4-.2l1.2-1.1.2-.2v-.4c0-.1-.1-.1-.1-.2l.1-.1 1 1.1-1.1 2 1.7-.6c.1 0 .1-.1.2-.1s.1-.1.1-.1l.9 1.1-.1.1-.1-.1-.1-.1h-.1s-.1 0-.1.1l-1.7 1.5-.1.1v.1s0 .1.1.1c0 .1.1.1.1.1l-.2.5z"/><path d="M14.5 41.6l-.1.1.1.1c0 .1.1.1.1.1v.1s0 .1-.1.1L13.2 44l-.1.1H13s-.1 0-.1-.1c-.1 0-.1-.1-.1-.1l-.1.1 1.7 1.1c.1.1.2.2.4.2.1 0 .3.1.4.1.1 0 .3 0 .4-.1.1-.1.2-.1.3-.3.1-.1.1-.3.1-.4 0-.1 0-.3-.1-.4-.1-.1-.1-.3-.3-.4l-.4-.4c-.1 0-.1-.1-.2-.1s-.1-.1-.2-.1l.7-1 .4.3c.1 0 .1.1.1.1l.1.1c.1.1.1.2.1.4s0 .4-.1.5l.1.1.5-.7-2.2-1.4zm.4 2.2c.2.1.3.3.4.5 0 .2 0 .4-.1.6-.1.2-.3.3-.5.3-.1 0-.3 0-.5-.1l-.2-.2c0-.1-.1-.1 0-.2l.7-1s.1 0 .1.1c0-.1 0 0 .1 0zm4.2 3.9l-.1-.1-.1-.1v-1.2c0-.5 0-1.1.1-1.9l-.4-.2c-.4.4-.8.7-1.1 1.1-.3.3-.7.6-1 1-.1.1-.1.1-.2.1s-.1.1-.2.1h-.3l-.1.2 1.2.5.1-.2c-.2-.1-.2-.1-.3-.2 0 0-.1-.1 0-.1v-.1s0-.1.1-.1l.2-.2.2-.2 1 .5v.8H18c-.1 0-.2 0-.3-.1l-.1.2 1.6.7.1-.3c-.1-.1-.1-.2-.2-.2zm-.9-1.6l-.9-.4.9-.9v1.3zm4.9-.1c-.2-.2-.5-.4-.9-.5l-1.7-.5v.2s.1 0 .1.1c.1 0 .1.1.1.1l.1.1v.1l-.6 2.2c0 .1 0 .1-.1.1l-.1.1h-.3v.2l1.7.5v-.2c-.1 0-.1 0-.2-.1-.1 0-.1 0-.1-.1s-.1-.1-.1-.1v-.1l.2-.9.2.1c.2.1.4.1.6.1h.5c.1 0 .3-.1.4-.2.1-.1.2-.2.2-.4.2-.4.2-.6 0-.8zm-.7.6c-.1.2-.2.4-.3.5-.2.1-.4.1-.6 0h-.1l.4-1.4h.2c.2.1.4.2.5.3.1.1-.1.3-.1.6zm1.6-.5v.2h.2c.1 0 .1 0 .2.1.1 0 .1.1.1.1v.2c0 .4-.1.7-.4 1.2-.2.5-.4.9-.6 1.1h-.3l-.1 1h.2c.1-.2.2-.3.3-.5.1-.1.3-.2.4-.2h.2c.1-.1.1-.1.2 0l1.2.1h.4c.1 0 .2.1.4.3.1.2.2.4.2.5h.2l.1-1h-.2c-.1 0-.2 0-.2-.1 0 0-.1-.1-.1-.2l.2-2.3v-.1l.1-.1h.4v-.2l-3.1-.1zm1.5 2.8c0 .1 0 .1-.1.1h-.1l-1.5-.1c.3-.4.5-.8.7-1.3.2-.5.3-1 .4-1.4l.9.1-.3 2.6z" fill-rule="nonzero"/><path d="M34.3 48.3l-1.2.3c-.1-.1-.2-.3-.2-.4-.1-.1-.2-.3-.2-.4l-.2-.2c-.1-.1-.1-.1-.2-.1s-.1 0-.2-.1h-.3l.2 1s0 .1.1.1l.1.1h.3v.2l-1.7.4V49h.2c.1 0 .1 0 .1-.1s.1-.1.1-.1v-.1l-.5-2.2s0-.1-.1-.1l-.1-.1h-.3v-.2l1.7-.4v.2s-.1 0-.2.1c-.1 0-.1 0-.1.1l-.1.1v.1l.2 1.1h.1c.1 0 .1 0 .2-.1.1 0 .1-.1.1-.1.1-.1.1-.2.2-.4 0-.1 0-.2.1-.4V46c0-.1.1-.2.1-.3 0-.1.1-.1.2-.2.1 0 .1-.1.2-.1h.4c.1.1.2.1.2.2v.3l-.2.2h-.2c-.1 0-.2-.1-.3-.2 0 .1-.1.1-.1.2v.3c0 .2-.1.3-.1.4 0 .1-.1.2-.1.2.2 0 .4.1.6.1.2.1.3.2.4.4l.2.2c.1.1.1.1.1.2l.2.2h.2c0 .2.1.2.1.2z"/><path d="M37.9 46.4h-.4s-.1 0-.1-.1l-.8-.8c-.3-.3-.8-.8-1.4-1.3l-.4.2v3.1c0 .1 0 .1-.1.2l-.1.1-.1.1.1.2 1.2-.5-.1-.2c-.1 0-.3.1-.4.1-.1 0-.1 0-.1-.1v-.7l1-.5.5.5s0 .1-.1.1c-.1.1-.2.1-.2.2l.1.2 1.6-.7-.2-.1zm-2.9.1l-.1-1.3.9.9-.8.4z" fill-rule="nonzero"/><path d="M41.6 44l-.1-.1s-.1 0-.1.1c-.1 0-.1 0-.1.1h-.1s-.1 0-.1-.1l-1.3-1.9s0-.1-.1-.1v-.1l.1-.1.1-.1-.1-.1-3.2 2.2.1.1s.1 0 .1-.1c.1 0 .1 0 .2-.1h.1s.1 0 .1.1l1.3 1.9s0 .1.1.1v.1l-.1.1c-.1 0-.1.1-.1.1l.1.1 1.4-1-.1-.1s-.1 0-.1.1h-.2s-.1 0-.1-.1L37.9 43l1.1-.7 1.5 2.1s0 .1.1.1v.1s0 .1-.1.1l-.1.1.1.1 1.1-.9zm1.8-1.9l-1.2 1.3-.1-.1.1-.1.1-.1V43s0-.1-.1-.1l-1.7-1.6-.1-.1h-.1s-.1 0-.1.1c-.1 0-.1.1-.1.1l-.1-.1 1.2-1.3.1.1-.1.1c0 .1-.1.1-.1.1v.1s0 .1.1.1l1.7 1.6.1.1h.1s.1 0 .1-.1c.1 0 .1-.1.1-.1l.1.1zm.4-4.3l-.7-.5-1.8 2.6.7.5.1-.1c-.1-.1-.2-.2-.2-.4-.1-.2-.1-.3 0-.4l.1-.1c0-.1.1-.1.1-.1l.1-.1 2.1 1.5.1.1v.1s0 .1-.1.1c0 .1-.1.1-.1.2l.1.1 1-1.5-.1-.1-.1.1c-.1 0-.1.1-.1.1h-.1s-.1 0-.1-.1l-2.1-1.5.1-.1.1-.1c0-.1.1-.1.1-.1.1-.1.2-.1.4-.1s.4 0 .5.1l-.1-.2z"/><path d="M47.6 35.4c0 .1-.1.1-.1.1l-.1.1-.1.1h-.1c-.3 0-.7-.1-1.1-.1-.5-.1-1.1-.1-1.9-.2l-.2.4c.4.4.7.8 1 1.2.3.4.6.7.9 1.1 0 .1.1.1.1.2v.3c0 .1 0 .1-.1.2l.1.1.6-1.2-.1-.1c-.1.1-.2.2-.2.3-.1 0-.1.1-.2 0H46l-.1-.1-.2-.2c0-.1-.1-.1-.1-.2l.5-1 .7.1h.1v.2c0 .1-.1.2-.1.3l.1.1.7-1.7zm-2.4 1.8l-.9-1 1.3.1-.4.9z" fill-rule="nonzero"/><path d="M45.2 33.1s-.1.1-.1.2-.1.1-.1.1h-.2l.8-2.8h.2v.4c0 .1 0 .1.1.1 0 0 .1 0 .1.1l2.2.6h.1s.1 0 .1-.1 0-.1.1-.1c0-.1 0-.1.1-.1h.2l-.5 1.7h-.2v-.3c0-.1 0-.1-.1-.1l-.1-.1-2.5-.7-.2.7c.5.2 1 .4 1.3.5.4.2.6.4.8.6.2.2.4.4.4.6 0 .2.1.3 0 .4 0 .1-.1.2-.1.2 0 .1-.1.1-.1.1h-.2c-.1 0-.2-.1-.3-.2 0-.1-.1-.2 0-.3 0-.1.1-.1.1-.2.1-.1.2-.1.3-.2l-.3-.3c-.1-.1-.3-.2-.4-.3-.2-.1-.4-.2-.5-.3-.2-.1-.4-.1-.6-.2h-.2c-.1-.1-.2-.1-.2 0z"/><path d="M100.2 31.3c-.1-.1-.4-.1-.7-.2-.3 0-.5-.1-.6-.1v-.6h10.2v.6c-.2 0-.4 0-.6.1-.2.1-.4.1-.6.1-.2.1-.3.2-.4.3-.1.1-.1.3-.1.5v8c0 .2 0 .4.1.5.1.1.2.2.4.3.1 0 .3.1.6.1.2 0 .4.1.6.1v.6H103V41h.6c.2 0 .4 0 .5-.1.2-.1.3-.2.4-.3.1-.1.1-.3.1-.5v-9h-2.7c-.1 1.9-.2 3.6-.6 4.9-.3 1.4-.7 2.5-1.1 3.4-.5.9-1 1.6-1.5 2-.5.4-1 .6-1.5.6-.4 0-.6 0-.9-.1-.3-.1-.4-.2-.5-.4-.1-.1-.2-.3-.2-.5s-.1-.4-.1-.5c0-.5.1-.9.5-1.2.3-.3.7-.4 1.1-.4.3 0 .6.1.9.3.3.2.5.4.8.7.2-.3.4-.7.6-1.2.2-.5.4-1.1.6-1.7.2-.7.4-1.4.5-2 .1-.7.2-1.4.2-2.2 0-.4 0-.6-.1-.9-.1-.4-.2-.5-.4-.6zm20.5.3c.6.5 1 1.1 1.3 1.9.3.7.5 1.5.5 2.5 0 .8-.1 1.6-.4 2.4-.3.8-.7 1.4-1.2 1.9-.5.6-1.2 1-1.9 1.3-.7.3-1.6.5-2.6.5-.8 0-1.6-.1-2.4-.4-.7-.3-1.4-.7-1.9-1.2-.6-.5-1-1.1-1.3-1.9-.3-.7-.5-1.5-.5-2.4 0-.9.1-1.8.5-2.5s.7-1.4 1.3-1.9c.5-.5 1.2-.9 2-1.2.7-.3 1.6-.4 2.4-.4.8 0 1.6.1 2.4.4.6.1 1.2.5 1.8 1zm-2.1 8.2c.2-.5.4-1 .5-1.6.1-.6.2-1.3.2-2.1 0-.6 0-1.3-.1-1.9-.1-.6-.2-1.2-.5-1.7-.2-.5-.5-.9-.9-1.2-.4-.3-.9-.4-1.4-.4-1 0-1.7.5-2.2 1.4-.5.9-.7 2.2-.7 3.9 0 .7.1 1.4.2 2 .1.6.3 1.2.5 1.6.2.5.5.9.9 1.1.4.2.8.4 1.4.4.6 0 1-.1 1.4-.4.2-.3.5-.7.7-1.1zm20.7 1.9h-6.1v-.6c.2 0 .4 0 .7-.1.2 0 .4-.1.5-.1.2-.1.3-.2.4-.3.1-.1.1-.3.1-.5v-8.5l-3.9 10h-1c0-.2-.2-.5-.4-1s-.4-.9-.5-1.2l-2.9-7.8v6.9c0 .7 0 1.2.1 1.5.1.4.2.6.4.7.1.1.4.2.7.3.4.1.6.2.7.2v.6h-4.9v-.6c.1 0 .4 0 .6-.1.3-.1.5-.1.7-.3.2-.1.4-.4.4-.7.1-.4.1-.9.1-1.5V33c0-.4 0-.6-.1-.9-.1-.2-.2-.4-.4-.5-.2-.2-.4-.3-.6-.3-.2 0-.5-.1-.7-.1v-.6h5.2l2.8 7.5 2.4-6.1c.1-.2.1-.5.2-.8.1-.3.1-.5.1-.6h5v.6c-.2 0-.4 0-.5.1-.2 0-.4.1-.5.1-.2.1-.4.2-.4.3 0 .1-.1.3-.1.5v8c0 .2 0 .4.1.5l.4.4c.1 0 .3.1.5.1s.4.1.6.1l.3.4zm9.1-3.3c0-.8-.2-1.5-.7-1.9-.5-.4-1.1-.6-2-.6h-.8v4.4c0 .2.2.4.4.5.2.1.5.2.9.2.6 0 1.1-.2 1.5-.7.5-.4.7-1.1.7-1.9zm3.2-.1c0 .6-.1 1.1-.4 1.5-.2.4-.6.8-1 1.1-.4.3-.9.5-1.4.6-.5.1-1 .2-1.6.2h-6.9v-.6c.1 0 .4 0 .6-.1.2 0 .4-.1.5-.1.2-.1.3-.2.4-.3.1-.1.1-.3.1-.5v-8c0-.2 0-.4-.1-.5-.1-.1-.2-.2-.4-.3-.1-.1-.4-.1-.6-.2-.2 0-.4-.1-.6-.1v-.6h10.2v3.2h-.6c-.2-.6-.5-1.2-.9-1.6-.4-.5-.7-.7-1-.8-.2 0-.4-.1-.6-.1h-2.6v4h1.7c.7 0 1.4.1 1.9.2s1.1.3 1.6.6c.5.2.8.6 1.1 1 .4.3.6.8.6 1.4zm13.4 3.4h-6.2v-.6c.3 0 .6-.1 1-.1.4-.1.6-.2.6-.3v-.1c0-.1 0-.1-.1-.2l-1-2.4h-3.9c-.1.2-.2.5-.3.8-.1.3-.2.6-.3.8-.1.3-.2.5-.2.6v.3c0 .2.1.3.4.4.3.1.7.2 1.3.2v.6h-4.6v-.6c.2 0 .4 0 .6-.1.2 0 .4-.1.5-.2.2-.1.4-.3.6-.5.1-.2.3-.4.4-.7.6-1.5 1.2-3 1.9-4.5.6-1.5 1.3-3.2 2.1-5h1.6c1 2.6 1.9 4.6 2.5 6.1.6 1.5 1.1 2.7 1.5 3.7.1.2.1.3.2.4.1.1.2.2.5.4.1.1.3.1.5.2.2 0 .4.1.5.1v.6h-.1v.1zm-6-4.6l-1.6-4.1-1.6 4.1h3.2zm16.7-3.9c0 .6-.1 1.2-.4 1.6-.2.5-.6.8-1.1 1.1-.5.3-1 .5-1.6.6-.6.1-1.3.2-2.1.2h-.9v3.2c0 .2 0 .4.1.5.1.1.2.2.4.3.1 0 .3.1.5.1s.5.1.6.1v.6H165v-.6c.1 0 .4 0 .6-.1.2 0 .4-.1.5-.1.2-.1.4-.2.4-.3.1-.1.1-.3.1-.5v-8c0-.2 0-.4-.1-.5-.1-.1-.2-.2-.4-.3-.1-.1-.4-.1-.6-.2-.2 0-.4-.1-.6-.1v-.6h6.3c1.5 0 2.6.2 3.3.7.9.6 1.2 1.3 1.2 2.3zm-3.1.4c0-.9-.2-1.5-.5-1.9-.4-.4-1-.6-1.9-.6h-.7v5h.3c.9 0 1.5-.2 2-.6.6-.4.8-1.1.8-1.9zm11.5 6.6v-9.1h-3c-.1 1.6-.3 3.3-.8 5.1-.5 1.8-1.1 3.3-2 4.7h5.1c.2 0 .4-.1.5-.2.2-.1.2-.3.2-.5zm-3.9 1.5h-.7c-.2 0-.5 0-.7.1-.4.1-.9.4-1.3 1-.5.6-.8 1.2-1 1.8h-.5V41h1.1c.7-1.1 1.4-2.5 2-4.2.6-1.7.9-3.1.9-4.4 0-.3 0-.6-.1-.7-.1-.2-.2-.3-.4-.4-.1-.1-.4-.1-.6-.2-.3 0-.5-.1-.7-.1v-.6h10.4v.6c-.2 0-.4 0-.6.1-.2 0-.4.1-.6.1-.2.1-.3.2-.4.3-.1.1-.1.3-.1.5v8.1c0 .3.1.5.3.6.2.1.4.2.8.2h.7v3.6h-.6c-.2-.6-.5-1.2-1-1.8-.5-.6-.9-.9-1.3-1-.2 0-.4-.1-.7-.1h-.7l-4.2.1z" fill-rule="nonzero"/></g></svg>