<svg width="131" height="25" viewBox="0 0 131 25" xmlns="http://www.w3.org/2000/svg"><title>Group</title><g fill="none" fill-rule="evenodd"><path d="M13.964 10.877V6.212c0-.493.417-.913.912-.913H15.9c.502 0 .915.412.915.913v4.665h-2.852zM12.4 19.782c-3.867 0-7.06-3.136-7.06-7.008v-.473l.003-.218H19.46l.004.24v.451c0 3.87-3.196 7.008-7.062 7.008zm1.126 2.932c5.25-.564 9.259-5.007 9.259-10.308 0-5.726-4.65-10.369-10.385-10.369-5.735 0-10.384 4.643-10.384 10.37 0 4.58 3.015 8.622 7.4 9.933l.16.047v2.072l-.278-.071A12.376 12.376 0 0 1 .01 12.406C.01 5.573 5.558.034 12.401.034c6.844 0 12.392 5.539 12.392 12.372 0 6.834-5.548 12.373-12.392 12.373-.307 0-.613-.011-.92-.034l-.205-.015v-3.808l.242.022a9.787 9.787 0 0 0 1.767 0l.242-.022v1.792zm-2.773-11.837H7.902V6.212c0-.493.418-.913.912-.913H9.84c.502 0 .915.411.915.913v4.665z" fill="#FFED00"/><path d="M114.287 2.502a5.869 5.869 0 0 0-5.873 5.864 5.869 5.869 0 0 0 5.873 5.865 5.869 5.869 0 0 0 5.874-5.865 5.869 5.869 0 0 0-5.874-5.864zm-19.765 8.57l-.02.01a2.926 2.926 0 0 1-1.395.351c-1.686 0-3.002-1.402-3.002-3.067 0-1.664 1.316-3.067 3.002-3.067.521 0 1.023.137 1.474.397l.004.002.004.002c.032.022.065.041.099.06l.006.004c.197.105.413.16.637.16.764 0 1.36-.634 1.36-1.389 0-.434-.198-.845-.544-1.11l-.072-.056a5.612 5.612 0 0 0-2.968-.848c-3.214 0-5.723 2.673-5.723 5.845 0 3.173 2.509 5.846 5.723 5.846.936 0 1.85-.231 2.672-.676l.051-.028.01.003a1.39 1.39 0 0 0 .85-1.288c0-.755-.595-1.39-1.36-1.39-.23 0-.455.059-.656.172l-.143.081-.009-.014zM71.078 2.67c-.735 0-1.338.602-1.338 1.336v3.122h-4.619V4.007c0-.734-.603-1.336-1.338-1.336-.735 0-1.338.601-1.338 1.336v8.72c0 .734.603 1.335 1.338 1.335.735 0 1.338-.602 1.338-1.336V9.288h.258c1.346 0 2.692.002 4.038 0h.323v3.438c0 .734.603 1.336 1.338 1.336.735 0 1.338-.602 1.338-1.336v-8.72c0-.733-.603-1.335-1.338-1.335zM32.235 5.343h2.49c.734 0 1.337-.602 1.337-1.336 0-.734-.603-1.336-1.338-1.336H27.07c-.734 0-1.338.603-1.338 1.336 0 .734.604 1.336 1.338 1.336h2.49v7.383c0 .734.603 1.336 1.338 1.336.736 0 1.338-.602 1.338-1.336V5.343zm47.733-2.841a5.869 5.869 0 0 0-5.874 5.864 5.869 5.869 0 0 0 5.874 5.865 5.869 5.869 0 0 0 5.873-5.865 5.869 5.869 0 0 0-5.873-5.864zm0 2.696a3.17 3.17 0 0 1 3.172 3.168 3.17 3.17 0 0 1-3.172 3.169 3.17 3.17 0 0 1-3.173-3.169 3.17 3.17 0 0 1 3.173-3.168zM48.065 7.035a4.72 4.72 0 0 0-.822-1.967 5.408 5.408 0 0 0-1.925-1.677c-2.269-1.194-5.427-.936-7.195 1.026C37.058 5.6 36.57 6.997 36.57 8.58c0 1.589.507 2.977 1.621 4.124 1.112 1.145 2.701 1.667 4.276 1.667.86 0 1.706-.139 2.521-.41.773-.257 1.538-.667 2.038-1.328.916-1.213-.541-2.422-1.784-1.639-.346.218-.655.416-1.04.567-.562.22-1.155.299-1.756.303-.798.007-1.567-.243-2.147-.804-.437-.423-.752-1.023-.767-1.638l-.003-.132h6.534c1.532.016 2.247-.718 2.002-2.254zm-8.444-.072c.565-2.475 5.142-2.526 5.594.015l.027.151h-5.68l.06-.166zm64.711-1.62h2.49c.735 0 1.338-.602 1.338-1.336 0-.734-.603-1.336-1.338-1.336h-7.655c-.735 0-1.338.602-1.338 1.336 0 .734.603 1.336 1.338 1.336h2.49v7.383c0 .734.602 1.336 1.338 1.336.735 0 1.337-.602 1.337-1.336V5.343zM54.847 6.37l-3.204-3.274a1.361 1.361 0 0 0-1.948 0 1.432 1.432 0 0 0 0 1.987l3.213 3.282-3.213 3.282a1.432 1.432 0 0 0 0 1.988 1.361 1.361 0 0 0 1.948 0l3.204-3.274 3.205 3.274a1.361 1.361 0 0 0 1.947 0 1.432 1.432 0 0 0 0-1.988l-3.213-3.282L60 5.084a1.432 1.432 0 0 0 0-1.987 1.361 1.361 0 0 0-1.947 0l-3.205 3.274zm68.078-3.683c-.754 0-1.349.633-1.349 1.377v8.603c0 .744.595 1.377 1.349 1.377.753 0 1.349-.633 1.349-1.377V9.192l4.35 4.444a1.361 1.361 0 0 0 1.947 0 1.432 1.432 0 0 0 0-1.988l-3.212-3.282 3.212-3.282a1.432 1.432 0 0 0 0-1.987 1.361 1.361 0 0 0-1.947 0l-4.35 4.444V4.065c0-.744-.595-1.377-1.35-1.377zm-8.638 2.51a3.17 3.17 0 0 1 3.173 3.168 3.17 3.17 0 0 1-3.173 3.169 3.17 3.17 0 0 1-3.172-3.169 3.17 3.17 0 0 1 3.172-3.168z" fill="#FFFFFE"/><path d="M89.762 18.006c0 .2-.032.389-.096.565a1.189 1.189 0 0 1-.308.467c-.142.133-.33.239-.564.317a2.713 2.713 0 0 1-.856.118c-.329 0-.608-.036-.84-.108a1.517 1.517 0 0 1-.564-.298 1.112 1.112 0 0 1-.319-.463 1.73 1.73 0 0 1-.1-.598c0-.052.008-.093.026-.125a.207.207 0 0 1 .093-.08.641.641 0 0 1 .178-.043 2.603 2.603 0 0 1 .552.004c.07.01.123.026.159.048a.188.188 0 0 1 .079.082.26.26 0 0 1 .022.114c0 .09.015.175.048.253a.557.557 0 0 0 .14.201c.064.056.14.1.232.132a.88.88 0 0 0 .301.049.91.91 0 0 0 .293-.045.64.64 0 0 0 .226-.134.56.56 0 0 0 .14-.204.692.692 0 0 0 .048-.262c0-.042.007-.077.02-.108a.16.16 0 0 1 .078-.078.441.441 0 0 1 .154-.048 2.845 2.845 0 0 1 .546-.003.71.71 0 0 1 .187.042.206.206 0 0 1 .098.08.242.242 0 0 1 .027.125zm.37 6.72a.128.128 0 0 1-.028.085.2.2 0 0 1-.097.06.9.9 0 0 1-.19.032 3.54 3.54 0 0 1-.3.01 3.75 3.75 0 0 1-.305-.01 1.012 1.012 0 0 1-.2-.033.237.237 0 0 1-.111-.059.116.116 0 0 1-.033-.085v-2.023a8.137 8.137 0 0 1 .05-.891c-.08.144-.167.282-.26.42-.095.138-.189.273-.287.408l-1.51 2.081c-.03.036-.058.068-.086.094a.271.271 0 0 1-.102.06.588.588 0 0 1-.158.031 3.162 3.162 0 0 1-.247.007c-.12 0-.217-.003-.292-.01a.785.785 0 0 1-.18-.033.18.18 0 0 1-.096-.06.147.147 0 0 1-.028-.089V20.17a.14.14 0 0 1 .028-.083.2.2 0 0 1 .1-.065.96.96 0 0 1 .19-.038 2.81 2.81 0 0 1 .3-.012c.237 0 .403.018.5.05.098.035.146.084.146.148v2.013a7.839 7.839 0 0 1-.055.865c.081-.135.161-.27.245-.404.084-.134.173-.264.268-.388l1.524-2.086a.63.63 0 0 1 .085-.094.389.389 0 0 1 .113-.06.78.78 0 0 1 .167-.033 3.39 3.39 0 0 1 .548 0 .71.71 0 0 1 .183.036.172.172 0 0 1 .092.066.165.165 0 0 1 .026.092v4.55zm-5.956 0a.13.13 0 0 1-.027.085.2.2 0 0 1-.098.06.89.89 0 0 1-.19.032c-.079.007-.178.01-.3.01-.12 0-.223-.003-.304-.01a1.006 1.006 0 0 1-.2-.033.239.239 0 0 1-.112-.059.118.118 0 0 1-.033-.085v-2.023a7.739 7.739 0 0 1 .05-.891c-.08.144-.166.282-.26.42-.095.138-.19.273-.286.408l-1.51 2.081a1.295 1.295 0 0 1-.086.094.271.271 0 0 1-.103.06.591.591 0 0 1-.158.031 3.162 3.162 0 0 1-.246.007c-.12 0-.218-.003-.293-.01a.785.785 0 0 1-.18-.033.184.184 0 0 1-.096-.06.144.144 0 0 1-.027-.089V20.17c0-.03.008-.057.027-.083a.2.2 0 0 1 .101-.065.953.953 0 0 1 .19-.038c.079-.008.178-.012.298-.012.238 0 .404.018.502.05.098.035.145.084.145.148v2.013a8.267 8.267 0 0 1-.055.865c.081-.135.162-.27.246-.404a5.32 5.32 0 0 1 .267-.388l1.524-2.086a.653.653 0 0 1 .085-.094.397.397 0 0 1 .113-.06.78.78 0 0 1 .166-.033 3.38 3.38 0 0 1 .548 0 .727.727 0 0 1 .184.036.17.17 0 0 1 .092.066.166.166 0 0 1 .026.092v4.55zm-5.963-.015a.14.14 0 0 1-.03.088.21.21 0 0 1-.1.064.969.969 0 0 1-.195.038 2.981 2.981 0 0 1-.303.012 2.98 2.98 0 0 1-.31-.012.974.974 0 0 1-.195-.038.215.215 0 0 1-.1-.064.14.14 0 0 1-.03-.088v-1.784h-1.81v1.784a.14.14 0 0 1-.03.088.21.21 0 0 1-.104.064.979.979 0 0 1-.191.038c-.08.009-.183.012-.307.012-.123 0-.226-.003-.306-.012a.979.979 0 0 1-.192-.038.205.205 0 0 1-.103-.064.138.138 0 0 1-.031-.088v-4.536c0-.033.01-.062.031-.088a.213.213 0 0 1 .103-.065.973.973 0 0 1 .192-.038c.08-.008.183-.012.306-.012.124 0 .226.004.307.012a.973.973 0 0 1 .191.038c.05.018.084.039.103.065a.14.14 0 0 1 .031.088v1.7h1.808v-1.7a.14.14 0 0 1 .031-.088.214.214 0 0 1 .1-.065.968.968 0 0 1 .195-.038c.082-.008.185-.012.31-.012.12 0 .22.004.303.012a.963.963 0 0 1 .195.038.21.21 0 0 1 .1.065.14.14 0 0 1 .03.088v4.536zm-6.202-6.705c0 .2-.033.389-.096.565a1.189 1.189 0 0 1-.308.467 1.52 1.52 0 0 1-.564.317 2.713 2.713 0 0 1-.856.118c-.329 0-.608-.036-.84-.108-.23-.07-.419-.17-.564-.298a1.105 1.105 0 0 1-.319-.463 1.72 1.72 0 0 1-.1-.598c0-.052.008-.093.027-.125a.203.203 0 0 1 .092-.08.641.641 0 0 1 .178-.043 2.603 2.603 0 0 1 .551.004c.07.01.124.026.16.048a.18.18 0 0 1 .079.082.26.26 0 0 1 .022.114c0 .09.015.175.048.253a.557.557 0 0 0 .14.201c.064.056.14.1.231.132a.88.88 0 0 0 .302.049.91.91 0 0 0 .293-.045.645.645 0 0 0 .226-.134.564.564 0 0 0 .14-.204.692.692 0 0 0 .048-.262c0-.042.007-.077.02-.108A.162.162 0 0 1 71 17.81a.441.441 0 0 1 .154-.048 2.845 2.845 0 0 1 .546-.003.71.71 0 0 1 .187.042.198.198 0 0 1 .097.08.242.242 0 0 1 .028.125zm.37 6.72a.13.13 0 0 1-.027.085.203.203 0 0 1-.098.06.9.9 0 0 1-.19.032 3.54 3.54 0 0 1-.3.01 3.75 3.75 0 0 1-.305-.01 1.012 1.012 0 0 1-.2-.033.237.237 0 0 1-.111-.059.116.116 0 0 1-.033-.085v-2.023a8.128 8.128 0 0 1 .05-.891 6.09 6.09 0 0 1-.26.42c-.095.138-.189.273-.287.408l-1.51 2.081c-.031.036-.058.068-.086.094a.271.271 0 0 1-.103.06.588.588 0 0 1-.157.031 3.162 3.162 0 0 1-.247.007c-.12 0-.217-.003-.293-.01a.785.785 0 0 1-.18-.033.185.185 0 0 1-.095-.06.147.147 0 0 1-.028-.089V20.17a.14.14 0 0 1 .028-.083.202.202 0 0 1 .1-.065.96.96 0 0 1 .19-.038c.08-.008.179-.012.299-.012.238 0 .404.018.501.05.098.035.146.084.146.148v2.013a7.847 7.847 0 0 1-.054.865c.08-.135.16-.27.244-.404.084-.134.173-.264.268-.388l1.524-2.086a.653.653 0 0 1 .085-.094.386.386 0 0 1 .113-.06.78.78 0 0 1 .166-.033 3.387 3.387 0 0 1 .548 0 .71.71 0 0 1 .184.036.17.17 0 0 1 .092.066.165.165 0 0 1 .026.092v4.55zm-5.853-6.09c0 .258-.052.435-.156.533-.104.1-.296.148-.579.148-.284 0-.478-.047-.575-.142-.1-.096-.15-.267-.15-.514 0-.258.052-.436.155-.537.1-.099.294-.15.58-.15.281 0 .473.05.574.146.101.096.151.267.151.515zm-.103 6.075a.14.14 0 0 1-.03.088.214.214 0 0 1-.104.064.985.985 0 0 1-.191.038c-.081.009-.184.012-.307.012s-.226-.003-.306-.012a.979.979 0 0 1-.192-.038.205.205 0 0 1-.103-.064.14.14 0 0 1-.03-.088v-4.526a.14.14 0 0 1 .03-.088.209.209 0 0 1 .103-.066.828.828 0 0 1 .192-.043c.08-.01.183-.016.306-.016s.226.005.307.016c.078.01.144.024.191.043.05.017.084.04.103.066.02.026.03.056.03.088v4.526zm-2.42-.723c0 .088 0 .16-.006.221-.005.06-.012.11-.02.151a.515.515 0 0 1-.031.1.393.393 0 0 1-.078.096c-.04.038-.11.087-.205.142a2.12 2.12 0 0 1-.333.151 2.552 2.552 0 0 1-.852.148c-.344 0-.65-.054-.915-.163a1.715 1.715 0 0 1-.671-.48 2.117 2.117 0 0 1-.408-.777 3.616 3.616 0 0 1-.138-1.048c0-.454.056-.847.167-1.177.113-.33.27-.605.47-.822.2-.216.438-.377.712-.483a2.489 2.489 0 0 1 1.298-.122 2.022 2.022 0 0 1 .661.232.906.906 0 0 1 .189.134.484.484 0 0 1 .078.094.377.377 0 0 1 .035.099c.008.041.015.092.02.15.005.061.007.132.007.217 0 .198-.015.337-.05.416-.034.08-.077.12-.13.12a.315.315 0 0 1-.181-.071 4.778 4.778 0 0 0-.226-.158 1.619 1.619 0 0 0-.31-.158 1.184 1.184 0 0 0-.432-.07c-.329 0-.579.128-.753.382-.173.257-.26.632-.26 1.126 0 .242.021.457.064.645.045.185.108.341.194.466.086.125.192.22.32.283.13.062.28.093.45.093.174 0 .324-.026.449-.08a1.83 1.83 0 0 0 .329-.175c.093-.064.171-.123.237-.175.063-.054.116-.08.159-.08.03 0 .054.01.075.026.02.018.036.049.048.094.012.047.02.106.027.177.007.071.01.163.01.276zm-4.773-5.353c0 .259-.052.436-.156.534-.105.1-.297.148-.58.148s-.477-.047-.574-.142c-.1-.096-.15-.267-.15-.514 0-.258.052-.436.155-.537.1-.099.294-.15.58-.15.28 0 .473.05.574.146.1.096.15.267.15.515zm-.103 6.076a.14.14 0 0 1-.03.088.21.21 0 0 1-.104.064.99.99 0 0 1-.192.038c-.08.009-.183.012-.306.012s-.226-.003-.307-.012a.985.985 0 0 1-.192-.038c-.049-.017-.084-.038-.102-.064a.138.138 0 0 1-.031-.088v-4.526c0-.032.01-.062.03-.088a.21.21 0 0 1 .103-.066.833.833 0 0 1 .192-.043c.08-.01.184-.016.307-.016s.226.005.306.016a.81.81 0 0 1 .192.043c.05.017.084.04.103.066a.14.14 0 0 1 .03.088v4.526zm-2.526-.026c.007.085-.032.143-.115.178-.084.033-.234.05-.448.05-.13 0-.235-.001-.314-.005a.72.72 0 0 1-.181-.026.148.148 0 0 1-.086-.057.23.23 0 0 1-.027-.099l-.266-2.436c-.008-.088-.018-.185-.027-.294l-.024-.33a25.95 25.95 0 0 1-.022-.333 5.666 5.666 0 0 0-.026-.298l.005-.127-.077.3c-.03.108-.06.219-.092.33-.035.113-.066.223-.096.333-.03.11-.059.21-.086.298l-.784 2.51a.326.326 0 0 1-.06.108.303.303 0 0 1-.113.073.765.765 0 0 1-.187.041 2.48 2.48 0 0 1-.282.012c-.103 0-.192-.003-.264-.012a.733.733 0 0 1-.18-.041.305.305 0 0 1-.113-.073.266.266 0 0 1-.055-.113l-.769-2.505a32.93 32.93 0 0 0-.087-.295c-.033-.109-.063-.218-.096-.331a12.226 12.226 0 0 1-.163-.635l.006.127-.021.298c-.007.11-.014.22-.024.333l-.031.33c-.01.109-.017.206-.024.294l-.255 2.405a.32.32 0 0 1-.036.11c-.016.029-.048.051-.094.069a.799.799 0 0 1-.192.032 5.2 5.2 0 0 1-.598-.003.504.504 0 0 1-.164-.038c-.038-.02-.063-.042-.076-.071a.266.266 0 0 1-.012-.11l.442-4.244a.518.518 0 0 1 .14-.327c.078-.073.194-.11.352-.11h.637c.135 0 .248.01.342.032a.624.624 0 0 1 .245.105c.072.05.13.12.177.208.046.089.089.2.125.332l.503 1.555c.03.102.06.208.09.317.03.111.061.22.09.331a12.117 12.117 0 0 1 .15.612h.006c.02-.092.043-.19.07-.3l.082-.33c.03-.112.059-.223.091-.33.03-.11.062-.21.093-.305l.5-1.55c.032-.122.07-.228.11-.312a.616.616 0 0 1 .155-.21.634.634 0 0 1 .237-.116c.092-.026.208-.039.345-.039h.63c.162 0 .281.037.36.11a.5.5 0 0 1 .137.327l.447 4.245zm-8.838-2.237c0-.224-.017-.43-.053-.617a1.437 1.437 0 0 0-.18-.49.904.904 0 0 0-.334-.327 1.072 1.072 0 0 0-.527-.116 1.12 1.12 0 0 0-.495.104.894.894 0 0 0-.348.305c-.09.134-.159.295-.203.482a2.693 2.693 0 0 0-.069.643c0 .224.019.43.055.618.037.189.097.352.18.49a.851.851 0 0 0 .335.323c.14.076.315.114.524.114.192 0 .358-.034.5-.104a.91.91 0 0 0 .348-.301c.09-.134.157-.293.202-.48.043-.19.065-.403.065-.644zm1.295-.05c0 .385-.05.737-.15 1.056a2.23 2.23 0 0 1-.458.821 2.026 2.026 0 0 1-.767.534 2.863 2.863 0 0 1-1.08.188c-.398 0-.744-.056-1.039-.169a1.852 1.852 0 0 1-.733-.487 2.023 2.023 0 0 1-.431-.787 3.683 3.683 0 0 1-.14-1.066c0-.385.05-.739.152-1.058a2.23 2.23 0 0 1 .46-.823c.204-.227.46-.404.766-.53a2.831 2.831 0 0 1 1.075-.188c.403 0 .75.055 1.045.165.295.11.538.272.73.485.193.213.335.475.43.787.094.31.14.668.14 1.072zm-5.461 2.363c0 .028-.008.05-.028.07a.232.232 0 0 1-.097.044 1.23 1.23 0 0 1-.194.028 4.686 4.686 0 0 1-.653 0 1.604 1.604 0 0 1-.215-.028.232.232 0 0 1-.115-.053.26.26 0 0 1-.054-.087l-.417-1.082a2.056 2.056 0 0 0-.164-.366.939.939 0 0 0-.194-.237.643.643 0 0 0-.24-.127 1.119 1.119 0 0 0-.311-.038h-.257v1.85c0 .024-.012.047-.034.07a.314.314 0 0 1-.112.058 1.02 1.02 0 0 1-.195.038c-.08.009-.178.012-.29.012-.117 0-.217-.003-.297-.012a1.032 1.032 0 0 1-.195-.038.283.283 0 0 1-.108-.059.096.096 0 0 1-.033-.07v-4.588c0-.025.01-.047.033-.07a.26.26 0 0 1 .108-.055c.05-.016.114-.028.195-.037.08-.008.18-.012.296-.012.113 0 .211.004.291.012.081.009.146.021.195.037.05.015.088.033.112.055.022.023.034.045.034.07v1.761h.255a.955.955 0 0 0 .283-.038.644.644 0 0 0 .228-.127.958.958 0 0 0 .19-.235c.058-.1.114-.22.168-.366l.376-.976a.255.255 0 0 1 .05-.089.25.25 0 0 1 .108-.06.957.957 0 0 1 .202-.033 4.31 4.31 0 0 1 .337-.01c.126 0 .227.003.305.01.079.007.14.017.185.03a.216.216 0 0 1 .093.048.1.1 0 0 1 .025.069.45.45 0 0 1-.02.121 1.749 1.749 0 0 1-.07.195l-.357.863a2.63 2.63 0 0 1-.222.439c-.08.12-.16.22-.242.298-.082.078-.164.14-.248.187a1.465 1.465 0 0 1-.24.113v.01c.103.044.2.09.29.142.09.05.176.116.258.198.082.081.161.182.237.303.073.12.149.266.222.434l.435 1.018a1.389 1.389 0 0 1 .075.2.411.411 0 0 1 .014.065c.002.015.002.031.002.045zm87.281-.051a.14.14 0 0 1-.03.089.212.212 0 0 1-.1.064.975.975 0 0 1-.195.038 2.981 2.981 0 0 1-.303.012 2.98 2.98 0 0 1-.31-.012.975.975 0 0 1-.195-.038.212.212 0 0 1-.1-.064.14.14 0 0 1-.03-.088v-1.784h-1.809v1.784a.14.14 0 0 1-.03.088.215.215 0 0 1-.103.064.985.985 0 0 1-.192.038c-.08.009-.183.012-.307.012-.123 0-.226-.003-.306-.012a.99.99 0 0 1-.192-.038.207.207 0 0 1-.102-.064.138.138 0 0 1-.032-.088v-4.536c0-.033.01-.062.032-.088a.206.206 0 0 1 .102-.065.984.984 0 0 1 .192-.038c.08-.008.183-.012.306-.012.124 0 .226.004.307.012a.98.98 0 0 1 .192.038c.05.018.084.039.102.065a.14.14 0 0 1 .031.088v1.7h1.809v-1.7a.14.14 0 0 1 .03-.088.212.212 0 0 1 .1-.065.969.969 0 0 1 .195-.038c.082-.008.185-.012.31-.012.12 0 .221.004.303.012a.969.969 0 0 1 .195.038.217.217 0 0 1 .1.065.14.14 0 0 1 .03.088v4.536zm-5.832.016a.128.128 0 0 1-.027.085.2.2 0 0 1-.098.06.89.89 0 0 1-.19.032c-.079.007-.178.01-.3.01a3.71 3.71 0 0 1-.304-.01 1.012 1.012 0 0 1-.2-.033.239.239 0 0 1-.112-.059.118.118 0 0 1-.033-.085v-2.023a7.738 7.738 0 0 1 .05-.891c-.08.144-.166.282-.26.42-.095.138-.189.273-.286.408l-1.51 2.081c-.032.036-.059.068-.086.094a.271.271 0 0 1-.103.06.591.591 0 0 1-.158.031 3.162 3.162 0 0 1-.246.007c-.12 0-.218-.003-.293-.01a.79.79 0 0 1-.18-.033.184.184 0 0 1-.096-.06.147.147 0 0 1-.027-.089V20.17a.14.14 0 0 1 .027-.083.2.2 0 0 1 .101-.065.953.953 0 0 1 .19-.038c.079-.008.178-.012.298-.012.238 0 .404.018.502.05.098.035.145.084.145.148v2.013a8.267 8.267 0 0 1-.055.865c.081-.135.162-.27.246-.404a5.32 5.32 0 0 1 .267-.388l1.524-2.086a.628.628 0 0 1 .085-.094.397.397 0 0 1 .113-.06.78.78 0 0 1 .167-.033 3.38 3.38 0 0 1 .548 0 .727.727 0 0 1 .183.036.17.17 0 0 1 .092.066.162.162 0 0 1 .026.092v4.55zm-5.67-1.272c0 .25-.051.471-.156.662-.102.19-.248.352-.435.485-.188.132-.414.23-.68.297a3.735 3.735 0 0 1-1.387.06 3.437 3.437 0 0 1-.433-.097 1.985 1.985 0 0 1-.329-.12 1.017 1.017 0 0 1-.188-.112.351.351 0 0 1-.127-.205.839.839 0 0 1-.02-.149 3.939 3.939 0 0 1-.005-.215c0-.078.003-.14.01-.187a.533.533 0 0 1 .027-.116.135.135 0 0 1 .043-.064.098.098 0 0 1 .06-.017c.043 0 .1.02.168.064a2.626 2.626 0 0 0 .647.276c.153.043.336.065.55.065.147 0 .277-.015.389-.045a.855.855 0 0 0 .282-.13.525.525 0 0 0 .17-.206.611.611 0 0 0 .058-.274.575.575 0 0 0-.055-.253.47.47 0 0 0-.183-.19 1.05 1.05 0 0 0-.338-.12 2.8 2.8 0 0 0-.508-.04h-.483a.204.204 0 0 1-.105-.023.17.17 0 0 1-.066-.075.442.442 0 0 1-.033-.138 2.487 2.487 0 0 1 .003-.406.414.414 0 0 1 .033-.125.14.14 0 0 1 .06-.066.182.182 0 0 1 .092-.02h.465c.181 0 .335-.014.465-.04a1 1 0 0 0 .32-.12.489.489 0 0 0 .182-.194.571.571 0 0 0 .059-.267.469.469 0 0 0-.21-.41.697.697 0 0 0-.244-.102 1.823 1.823 0 0 0-.822.031 2.943 2.943 0 0 0-.662.28.377.377 0 0 1-.162.062.11.11 0 0 1-.055-.012.129.129 0 0 1-.048-.057.375.375 0 0 1-.036-.12 1.26 1.26 0 0 1-.012-.203c0-.131.009-.239.028-.319a.362.362 0 0 1 .09-.182.808.808 0 0 1 .221-.142c.105-.052.23-.1.372-.142a3.404 3.404 0 0 1 .986-.144c.274 0 .526.028.754.081.227.054.42.136.579.247.159.109.28.246.366.409.086.163.129.35.129.563 0 .129-.021.252-.06.371a1.165 1.165 0 0 1-.439.58 1.224 1.224 0 0 1-.365.171l-.005.01a1.213 1.213 0 0 1 .735.366 1.09 1.09 0 0 1 .308.767zm-6.15-.673h-.482c-.204 0-.377.016-.52.045a.98.98 0 0 0-.352.139.543.543 0 0 0-.197.22.66.66 0 0 0-.063.296c0 .191.06.34.178.448.118.109.283.163.493.163.177 0 .34-.045.489-.137.148-.092.299-.226.453-.403v-.771zm1.243 1.945a.139.139 0 0 1-.05.111.346.346 0 0 1-.16.06 2.096 2.096 0 0 1-.32.016c-.15 0-.26-.005-.328-.017-.069-.012-.118-.031-.146-.059a.146.146 0 0 1-.043-.11v-.361a2.026 2.026 0 0 1-.63.464 1.813 1.813 0 0 1-.784.167 2.18 2.18 0 0 1-.655-.094 1.468 1.468 0 0 1-.515-.279 1.279 1.279 0 0 1-.34-.46 1.587 1.587 0 0 1-.119-.64c0-.265.052-.493.152-.688.103-.196.256-.355.458-.483.202-.127.452-.22.753-.281.3-.06.649-.092 1.047-.092h.436v-.274c0-.142-.013-.267-.043-.375a.62.62 0 0 0-.14-.267.576.576 0 0 0-.26-.157 1.393 1.393 0 0 0-.403-.05c-.21 0-.399.024-.563.07a3.12 3.12 0 0 0-.438.158 4.702 4.702 0 0 0-.319.158.469.469 0 0 1-.208.071.15.15 0 0 1-.097-.035.25.25 0 0 1-.07-.102.687.687 0 0 1-.043-.163 1.333 1.333 0 0 1 .01-.461.382.382 0 0 1 .094-.165.954.954 0 0 1 .247-.161 3.496 3.496 0 0 1 .925-.29 3.3 3.3 0 0 1 .575-.048c.351 0 .65.035.901.104.249.07.454.177.613.32.161.145.28.33.353.557.074.226.11.496.11.807v3.05zm-4.728-4.16c0 .103-.005.192-.016.264a.82.82 0 0 1-.04.176.235.235 0 0 1-.06.093.133.133 0 0 1-.085.028h-1.454v3.584a.14.14 0 0 1-.03.088.215.215 0 0 1-.103.064.992.992 0 0 1-.192.038 2.99 2.99 0 0 1-.307.012c-.123 0-.226-.003-.306-.012a.992.992 0 0 1-.192-.038.205.205 0 0 1-.103-.064.14.14 0 0 1-.03-.088v-4.297c0-.135.029-.237.085-.307.057-.069.146-.104.265-.104h2.367a.14.14 0 0 1 .086.028c.022.02.043.05.06.094a.82.82 0 0 1 .04.175c.01.073.015.161.015.265zm-5.658 2.215h-.481c-.204 0-.377.016-.521.045a.983.983 0 0 0-.351.139.545.545 0 0 0-.197.22.66.66 0 0 0-.063.296c0 .191.06.34.178.448.118.109.282.163.493.163a.91.91 0 0 0 .488-.137c.15-.092.3-.226.454-.403v-.771zm1.243 1.945a.139.139 0 0 1-.05.111.348.348 0 0 1-.159.06 2.096 2.096 0 0 1-.32.016c-.15 0-.26-.005-.329-.017-.068-.012-.118-.031-.145-.059a.145.145 0 0 1-.043-.11v-.361a2.037 2.037 0 0 1-.63.464 1.816 1.816 0 0 1-.785.167c-.236 0-.455-.032-.654-.094a1.472 1.472 0 0 1-.515-.279 1.273 1.273 0 0 1-.34-.46 1.58 1.58 0 0 1-.12-.64c0-.265.052-.493.153-.688.103-.196.255-.355.457-.483.202-.127.453-.22.754-.281.3-.06.649-.092 1.046-.092h.437v-.274a1.46 1.46 0 0 0-.043-.375.625.625 0 0 0-.14-.267.58.58 0 0 0-.26-.157 1.398 1.398 0 0 0-.403-.05c-.21 0-.4.024-.564.07a3.14 3.14 0 0 0-.438.158 4.701 4.701 0 0 0-.319.158.467.467 0 0 1-.207.071.15.15 0 0 1-.097-.035.255.255 0 0 1-.07-.102.707.707 0 0 1-.044-.163 1.384 1.384 0 0 1 .01-.461.382.382 0 0 1 .095-.165.958.958 0 0 1 .247-.161 3.49 3.49 0 0 1 .924-.29 3.3 3.3 0 0 1 .576-.048c.35 0 .65.035.9.104.249.07.454.177.614.32.16.145.28.33.353.557.073.226.11.496.11.807v3.05zm-5.073-.041c.006.085-.033.143-.115.178-.084.033-.235.05-.449.05-.13 0-.235-.001-.314-.005a.72.72 0 0 1-.18-.026.148.148 0 0 1-.087-.057.23.23 0 0 1-.027-.099l-.265-2.436a7.282 7.282 0 0 1-.028-.294 25.844 25.844 0 0 0-.024-.33c-.009-.113-.015-.224-.022-.333a5.665 5.665 0 0 0-.026-.298l.005-.127-.077.3c-.029.108-.06.219-.092.33-.035.113-.065.223-.096.333-.03.11-.058.21-.086.298l-.784 2.51a.326.326 0 0 1-.06.108.307.307 0 0 1-.113.073.77.77 0 0 1-.187.041 2.47 2.47 0 0 1-.282.012 2.29 2.29 0 0 1-.264-.012.73.73 0 0 1-.18-.041.307.307 0 0 1-.113-.073.266.266 0 0 1-.055-.113l-.768-2.505a32.93 32.93 0 0 0-.088-.295c-.033-.109-.063-.218-.096-.331a12.226 12.226 0 0 1-.162-.635l.005.127c-.007.088-.014.187-.02.298-.008.11-.015.22-.025.333l-.03.33c-.011.109-.018.206-.025.294l-.255 2.405a.31.31 0 0 1-.036.11c-.015.029-.048.051-.094.069a.803.803 0 0 1-.192.032 5.176 5.176 0 0 1-.598-.003.501.501 0 0 1-.164-.038c-.038-.02-.063-.042-.075-.071a.266.266 0 0 1-.012-.11l.441-4.244a.52.52 0 0 1 .14-.327c.078-.073.194-.11.352-.11h.637c.136 0 .248.01.343.032a.63.63 0 0 1 .245.105c.072.05.13.12.176.208.046.089.089.2.125.332l.503 1.555c.03.102.06.208.09.317l.09.331a14.468 14.468 0 0 1 .151.612h.005c.02-.092.043-.19.07-.3l.083-.33a9.264 9.264 0 0 1 .183-.635l.5-1.55c.032-.122.07-.228.11-.312a.617.617 0 0 1 .155-.21.635.635 0 0 1 .236-.116 1.31 1.31 0 0 1 .346-.039h.63c.162 0 .282.037.36.11a.5.5 0 0 1 .137.327l.448 4.245z" fill="#FFED00"/></g></svg>