<svg width="30" height="28" viewBox="0 0 30 28" xmlns="http://www.w3.org/2000/svg"><title>print</title><g fill="#9B9B9B" fill-rule="evenodd"><path d="M27.778 6.513h-3.347V.99a.908.908 0 0 0-.904-.913H6.36a.908.908 0 0 0-.904.913v5.523H2.108C.946 6.513 0 7.468 0 8.643v11.715c0 1.174.946 2.13 2.108 2.13h3.348v4.53c0 .503.405.912.904.912h17.167a.908.908 0 0 0 .903-.913v-4.529h3.348c1.163 0 2.109-.956 2.109-2.13V8.643c0-1.174-.946-2.13-2.109-2.13zM7.263 1.903h15.36v4.61H7.263v-4.61zm15.36 24.201H7.263v-9.058h15.36v9.058zm5.456-5.746a.307.307 0 0 1-.3.304H24.43v-4.529a.908.908 0 0 0-.904-.913H6.36a.908.908 0 0 0-.904.913v4.529H2.108a.307.307 0 0 1-.3-.304V8.643c0-.165.137-.304.3-.304h25.67c.163 0 .301.14.301.304v11.715z" fill-rule="nonzero"/><ellipse cx="23.527" cy="11.779" rx="1.285" ry="1.299"/><path d="M19.054 18.848h-8.222a.908.908 0 0 0-.903.913c0 .504.404.913.903.913h8.222a.908.908 0 0 0 .904-.913.908.908 0 0 0-.904-.913zm0 3.628h-8.222a.908.908 0 0 0-.903.913c0 .504.404.913.903.913h8.222a.908.908 0 0 0 .904-.913.908.908 0 0 0-.904-.913z"/></g></svg>