<svg width="20" height="15" viewBox="0 0 20 15" xmlns="http://www.w3.org/2000/svg"><title>tag (2)</title><path d="M5.171 14.566a1.473 1.473 0 0 0 2.083 0l7.13-7.13a2.08 2.08 0 0 0 .464-.709c.717.2 1.414.307 2.028.303 1.52-.008 2.024-.673 2.189-1.07.165-.394.283-1.221-.784-2.308l-.035-.035c-.661-.662-1.622-1.272-2.713-1.725a14.2 14.2 0 0 0-.598-.228v-.012a1.612 1.612 0 0 0-1.59-1.59L9.072.002a2.077 2.077 0 0 0-1.508.615L.431 7.747a1.473 1.473 0 0 0 0 2.082l4.74 4.737zm5.496-12.012a1.219 1.219 0 0 1 2.067 1.04c.469.33 1.028.637 1.626.885.213.087.418.165.614.232l-.023-1.716c.035.016.067.027.102.043.933.39 1.772.917 2.311 1.457l.024.023c.512.524.567.859.523.961-.133.319-1.57.602-3.752-.307a8.42 8.42 0 0 1-1.72-.957l-.051.06a1.219 1.219 0 0 1-1.725 0 1.218 1.218 0 0 1 .004-1.721z" fill="#FF001F"/></svg>