<svg width="20" height="19" viewBox="0 0 20 19" xmlns="http://www.w3.org/2000/svg"><title>Action_icon</title><g transform="translate(-.308 -.308)" fill="#323232" fill-rule="evenodd"><path d="M10.746 19.292a1.67 1.67 0 0 1-1.184-.507L.508 9.815a.646.646 0 0 1-.17-.423V2.285c0-.847.677-1.608 1.608-1.608h8.039c.169 0 .338.085.423.17l8.546 8.46c.338.34.508.678.508 1.185 0 .423-.17.846-.508 1.185l-7.108 7.108c-.254.338-.677.507-1.1.507zM1.692 9.138l8.8 8.8c.17.17.339.17.508 0l7.108-7.107c.084-.085.084-.17.084-.254 0-.085 0-.17-.084-.254L9.73 2.031H1.946a.363.363 0 0 0-.338.338v6.77h.084z" fill-rule="nonzero"/><circle cx="5.077" cy="5.415" r="1.015"/></g></svg>