<svg width="88" height="55" viewBox="0 0 88 55" xmlns="http://www.w3.org/2000/svg"><title>bike</title><g fill="#FFED00"><path d="M31.76 29.158a1.418 1.418 0 0 0-2.444 1.434c.379.646.709 1.327.98 2.024a1.418 1.418 0 1 0 2.642-1.029 17.024 17.024 0 0 0-1.177-2.43zm.371 12.963a1.417 1.417 0 0 0-1.835.807c-2.143 5.501-7.343 9.056-13.249 9.056-7.836 0-14.212-6.375-14.212-14.212S9.211 23.56 17.047 23.56c1.427 0 2.835.21 4.185.626a1.418 1.418 0 1 0 .834-2.71 17.056 17.056 0 0 0-5.019-.751C7.647 20.725 0 28.372 0 37.772s7.647 17.047 17.047 17.047c3.502 0 6.867-1.054 9.73-3.048a17.022 17.022 0 0 0 6.16-7.814 1.417 1.417 0 0 0-.806-1.836zm39.65-21.371a1.417 1.417 0 1 0-.154 2.83c7.528.412 13.425 6.645 13.425 14.192 0 7.837-6.376 14.212-14.213 14.212-7.836 0-14.212-6.375-14.212-14.212 0-4.27 1.895-8.274 5.198-10.988a1.417 1.417 0 1 0-1.8-2.19 16.999 16.999 0 0 0-6.233 13.178c0 9.4 7.647 17.047 17.047 17.047s17.047-7.647 17.047-17.047c0-9.052-7.074-16.53-16.105-17.022z"/><path d="M69.492 38.212a1.418 1.418 0 0 0 2.695-.88l-7.788-23.828V3.01a1.416 1.416 0 0 0-.095-2.83h-7.8a5.488 5.488 0 0 0-5.482 5.482 1.417 1.417 0 1 0 2.835 0 2.65 2.65 0 0 1 2.647-2.647h5.06v10.22L44.356 34.967l-9.94-25.075h5.81a1.417 1.417 0 1 0 0-2.835H29.283a1.417 1.417 0 1 0 0 2.835h2.083l1.988 5.014-2.542 3.21-3.582-2.761a1.417 1.417 0 0 0-.865-.295H9.232a1.417 1.417 0 1 0 0 2.835h16.65l3.169 2.443-13.115 16.554a1.418 1.418 0 0 0 1.111 2.297h26.897c.05 0 .1-.003.151-.008l.034-.005a1.441 1.441 0 0 0 .253-.058l.055-.019.029-.01c.018-.007.035-.016.053-.024.02-.009.039-.017.058-.027.03-.015.06-.031.088-.048l.042-.025a1.24 1.24 0 0 0 .12-.085l.002-.001c.04-.033.08-.068.116-.105l.016-.017c.029-.03.057-.062.084-.094l.01-.012 17.4-21.973 7.037 21.534zm-49.513-1.858L34.56 17.95l7.297 18.405H19.979z"/></g></svg>