<svg width="66" height="60" viewBox="0 0 66 60" xmlns="http://www.w3.org/2000/svg"><title>drill</title><g fill="#FFED00"><path d="M64.145 10.526h-5.491a3.097 3.097 0 0 0-2.93-2.105h-5.329v-2.17a3.096 3.096 0 0 0-3.092-3.093h-8.487v-.066A3.096 3.096 0 0 0 35.724 0h-24.21C8.344 0 5.28 1.327 3.112 3.641.912 5.987-.184 9.055.025 12.278c.39 6.027 5.595 10.748 11.85 10.748h1.456c1.017 0 1.953.465 2.568 1.276.615.81.81 1.837.536 2.817l-4.93 17.607a2.185 2.185 0 0 1-2.097 1.59.987.987 0 0 0-.987.987v10.526c0 1.125.915 2.04 2.04 2.04h16.842c1.125 0 2.04-.915 2.04-2.04v-9.474c0-1.124-.915-2.04-2.04-2.04h-1.14a1.11 1.11 0 0 1-.891-.442 1.11 1.11 0 0 1-.186-.977l4.355-15.554h4.178a.987.987 0 0 0 .904-1.382c-.01-.023-.913-2.146-.175-4.934h1.376a3.096 3.096 0 0 0 3.092-3.092v-.065h8.487a3.096 3.096 0 0 0 3.092-3.093v-2.17h5.329c1.36 0 2.517-.883 2.93-2.106h5.491a.987.987 0 0 0 0-1.974zM32.305 27.37h-2.311l1.215-4.343h1.11a10.564 10.564 0 0 0-.015 4.343zm4.538-7.435a1.12 1.12 0 0 1-1.119 1.119h-5.263a.987.987 0 0 0-.95.72l-6.326 22.59a3.068 3.068 0 0 0 .514 2.703 3.068 3.068 0 0 0 2.464 1.224h1.14c.036 0 .066.03.066.066v9.473c0 .036-.03.066-.066.066H10.461a.066.066 0 0 1-.066-.066v-9.54h10.592a.987.987 0 0 0 0-1.973H12.94c.2-.324.36-.679.466-1.058l4.93-17.606a5.157 5.157 0 0 0-.864-4.543l-.067-.082h8.845a.987.987 0 0 0 0-1.974H13.62a.975.975 0 0 0-.103.005c-.061-.002-.123-.005-.185-.005h-1.457c-5.217 0-9.556-3.91-9.88-8.903a9.468 9.468 0 0 1 2.558-7.159 9.45 9.45 0 0 1 6.962-3.017h24.21a1.12 1.12 0 0 1 1.119 1.118v16.842zm11.578-3.158a1.12 1.12 0 0 1-1.118 1.119h-.066V9.408a.987.987 0 0 0-1.973 0v8.487h-6.448V5.132h6.448V6.25a.987.987 0 0 0 1.973 0V5.132h.066a1.12 1.12 0 0 1 1.118 1.118v10.526zm7.303-4.144h-5.329v-2.237h5.33a1.12 1.12 0 0 1 1.117 1.118 1.12 1.12 0 0 1-1.118 1.119z"/><path d="M15.724 10.526H6.25a.987.987 0 0 0 0 1.974h9.474a.987.987 0 0 0 0-1.974zM8.356 9.342h5.263a.987.987 0 0 0 0-1.973H8.356a.987.987 0 0 0 0 1.973zm5.263 4.342H8.356a.987.987 0 0 0 0 1.974h5.263a.987.987 0 0 0 0-1.974z"/></g></svg>