<svg width="63" height="60" viewBox="0 0 63 60" xmlns="http://www.w3.org/2000/svg"><title>headphones</title><g fill="#FFED00"><path d="M52.276 35.801c-.446-3.077-3.1-5.45-6.298-5.45a6.372 6.372 0 0 0-6.365 6.365v16.915a6.372 6.372 0 0 0 6.365 6.365c3.198 0 5.852-2.373 6.298-5.45a4.543 4.543 0 0 0 3.586-4.434v-9.876a4.543 4.543 0 0 0-3.586-4.435zm1.554 14.31a2.506 2.506 0 0 1-1.488 2.287v-8.91a1.016 1.016 0 1 0-2.031 0v10.143a4.338 4.338 0 0 1-4.333 4.333 4.338 4.338 0 0 1-4.334-4.333V36.716a4.338 4.338 0 0 1 4.334-4.333 4.338 4.338 0 0 1 4.333 4.333v2.71a1.016 1.016 0 1 0 2.031 0V37.95a2.506 2.506 0 0 1 1.488 2.286v9.876zM17.002 30.352c-3.199 0-5.853 2.372-6.298 5.45a4.543 4.543 0 0 0-3.586 4.434v9.876a4.542 4.542 0 0 0 3.586 4.434c.445 3.077 3.1 5.45 6.298 5.45a6.372 6.372 0 0 0 6.365-6.365V36.716a6.372 6.372 0 0 0-6.365-6.364zm4.333 23.28a4.338 4.338 0 0 1-4.333 4.332 4.338 4.338 0 0 1-4.333-4.333V43.488a1.016 1.016 0 1 0-2.032 0v8.91a2.506 2.506 0 0 1-1.487-2.286v-9.876c0-1.019.612-1.896 1.487-2.286v1.475a1.016 1.016 0 1 0 2.032 0v-2.709a4.338 4.338 0 0 1 4.333-4.333 4.338 4.338 0 0 1 4.333 4.333v16.915z"/><path d="M53.757 9.227C47.809 3.28 39.9.004 31.49.004S15.17 3.28 9.223 9.227C3.275 15.175 0 23.083 0 31.494c0 .561.455 1.016 1.016 1.016h.7a1.016 1.016 0 0 0 .33-1.977c.24-7.508 3.277-14.532 8.614-19.869C16.224 5.1 23.62 2.036 31.49 2.036c7.868 0 15.266 3.064 20.83 8.628 5.337 5.337 8.374 12.361 8.613 19.87a1.016 1.016 0 0 0 .33 1.976h.7c.562 0 1.017-.455 1.017-1.016 0-8.411-3.276-16.319-9.223-22.267z"/><path d="M31.49 3.414c-15.484 0-28.08 12.597-28.08 28.08 0 2.171.248 4.333.74 6.428v7.252a1.016 1.016 0 1 0 2.031 0v-7.37c0-.08-.01-.16-.028-.237a26.158 26.158 0 0 1-.712-6.073c0-14.363 11.685-26.049 26.049-26.049 14.363 0 26.049 11.686 26.049 26.05 0 2.052-.24 4.095-.713 6.072a1.018 1.018 0 0 0-.027.237v7.37a1.016 1.016 0 1 0 2.031 0v-7.252c.491-2.095.74-4.257.74-6.428 0-15.483-12.597-28.08-28.08-28.08z"/></g></svg>