<svg width="18" height="17" viewBox="0 0 18 17" xmlns="http://www.w3.org/2000/svg"><title>home_icon</title><path d="M17.546 7.362L15.77 5.838V1.1c-.169-.338-.507-.508-.846-.423a1.02 1.02 0 0 0-.423.423v3.554L10.27.93C9.591.338 8.661.338 7.984.93L.708 7.446c-.17.339 0 .762.338.93a.54.54 0 0 0 .508 0l.93-.845v7.53c0 .931.762 1.693 1.693 1.693h9.9c.93 0 1.692-.762 1.692-1.692V7.53l.931.846.423.17.508-.255c.254-.254.254-.592 0-.846l-.085-.084zM14.5 14.977c0 .254-.17.423-.423.423H4.262c-.254 0-.424-.17-.424-.423v-8.63l5.077-4.485c.17-.17.423-.17.593 0l5.077 4.484-.085 8.63z" fill="#323232"/></svg>