<svg width="67" height="60" viewBox="0 0 67 60" xmlns="http://www.w3.org/2000/svg"><title>devices</title><path d="M64.002 20.906V4.704A4.71 4.71 0 0 0 59.298 0H4.704A4.71 4.71 0 0 0 0 4.704V37.71a4.71 4.71 0 0 0 4.704 4.704h15.472l-1.771 1.907h-2.654a1.092 1.092 0 0 0 0 2.184H30.95V57.04a2.763 2.763 0 0 0 2.76 2.76h11.74a2.763 2.763 0 0 0 2.76-2.76v-2.219h14.7a3.746 3.746 0 0 0 3.741-3.743V24.486a3.749 3.749 0 0 0-2.65-3.58zm.466 3.58v.299h-25.12v-.299c0-.859.7-1.558 1.558-1.558h22.005c.859 0 1.557.7 1.557 1.558zm-19.017 9.228h-6.103V26.97h25.12v21.626H48.211v-12.12a2.763 2.763 0 0 0-2.76-2.76zm.576 4.196H33.134v-1.436c0-.317.258-.575.576-.575h11.74c.318 0 .576.258.576.575v1.436zm15.79-32.114v14.947h-20.91a3.747 3.747 0 0 0-3.744 3.743v9.228H33.71a2.763 2.763 0 0 0-2.76 2.757H2.185V5.796h59.633zM33.134 40.095h12.892V53.42H33.134V40.095zM4.704 2.185h54.594a2.52 2.52 0 0 1 2.267 1.427H2.437a2.52 2.52 0 0 1 2.267-1.427zM2.37 38.655h28.58v1.575H4.704a2.522 2.522 0 0 1-2.334-1.574zm19.017 5.666l1.771-1.907h7.792v1.907h-9.563zM45.45 57.616H33.71a.576.576 0 0 1-.575-.576v-1.435h12.892v1.435a.576.576 0 0 1-.575.576zm17.46-4.98h-14.7V50.78h16.257v.299a1.56 1.56 0 0 1-1.557 1.558z" fill="#FFED00"/></svg>