<svg width="18" height="15" viewBox="0 0 18 15" xmlns="http://www.w3.org/2000/svg"><title>Shape</title><path d="M15.753.212H1.636C.834.212.177.87.177 1.672v8.572c0 .802.657 1.459 1.46 1.459h9.775l4.377 2.955-1.094-2.955h1.022c.802 0 1.459-.657 1.459-1.46v-8.57c.036-.803-.62-1.46-1.423-1.46zM5.43 8.055c-.62 0-1.131-.51-1.131-1.13 0-.62.51-1.131 1.13-1.131.621 0 1.132.51 1.132 1.13 0 .62-.511 1.131-1.131 1.131zm3.283 0c-.62 0-1.131-.51-1.131-1.13 0-.62.51-1.131 1.13-1.131.621 0 1.132.51 1.132 1.13 0 .62-.511 1.131-1.131 1.131zm3.283 0c-.62 0-1.131-.51-1.131-1.13 0-.62.51-1.131 1.13-1.131.62 0 1.132.51 1.132 1.13 0 .62-.511 1.131-1.131 1.131z" fill="#1F30A7"/></svg>