<svg width="40" height="60" viewBox="0 0 40 60" xmlns="http://www.w3.org/2000/svg"><title>microscope</title><path d="M17.702 48.486h2.324c10.86 0 19.697-8.836 19.697-19.696 0-4.238-1.331-8.279-3.85-11.685a19.633 19.633 0 0 0-9.517-6.962 4.457 4.457 0 0 0-1-.78l2.154-5.948L18.077 0 6.079 33.129l2.349.85-1.343 3.707 4.731 1.714 1.343-3.707 2.353.853 6.874-18.984a4.4 4.4 0 0 0 2.517-.284 12.513 12.513 0 0 1 5.376 4.361 12.409 12.409 0 0 1 2.252 7.151c0 6.895-5.61 12.504-12.505 12.504H.094v7.192h11.033v4.082H.093v7.336h38.703v-7.336H17.702v-4.082zM10.628 36.86l-1.004-.363.668-1.843 1.003.363-.667 1.843zm3.695-2.854L8.618 31.94 19.266 2.539l5.705 2.065-1.518 4.19a4.43 4.43 0 0 0-4.71 4.415 4.42 4.42 0 0 0 1.818 3.571l-6.238 17.227zm6.403-20.799a2.445 2.445 0 0 1 2.443-2.442 2.445 2.445 0 0 1 2.442 2.442 2.445 2.445 0 0 1-2.442 2.443 2.445 2.445 0 0 1-2.443-2.443zM2.076 46.503v-3.227h17.95c7.988 0 14.488-6.498 14.488-14.486 0-2.982-.903-5.847-2.611-8.288a14.5 14.5 0 0 0-5.239-4.586 4.401 4.401 0 0 0 .907-3.149 17.688 17.688 0 0 1 6.708 5.516A17.549 17.549 0 0 1 37.74 28.79c0 9.767-7.947 17.713-17.714 17.713H2.076zm11.034 1.983h2.61v4.082h-2.61v-4.082zm23.704 9.436H2.076V54.55h34.738v3.372z" fill="#FFED00"/></svg>