<svg width="22" height="26" viewBox="0 0 22 26" xmlns="http://www.w3.org/2000/svg"><title>Money_icon</title><g fill="#323232" fill-rule="evenodd"><path d="M20.477 14.685c-.677-1.523-1.523-2.877-2.623-4.231a21.115 21.115 0 0 0-3.385-3.216l2.623-4.823c.17-.253.085-.507-.084-.761-.677-.677-1.354-1.016-2.2-1.016-.762 0-1.439.254-1.946.508-.424.17-.931.339-1.27.339-.084 0-.169 0-.254-.085C10.154.977 9.223.638 8.292.638c-1.184 0-2.115.424-3.046 1.439-.17.17-.254.508-.084.761L7.954 7.07a21.115 21.115 0 0 0-3.385 3.216c-1.1 1.353-2.03 2.792-2.623 4.23C1.1 16.377.762 18.323.762 20.27A4.73 4.73 0 0 0 5.5 25.008h11.423a4.73 4.73 0 0 0 4.739-4.739c0-1.777-.339-3.723-1.185-5.584zM6.347 2.754c.591-.508 1.184-.762 1.86-.762.762 0 1.524.254 2.624.677.254.085.423.085.677.085.592 0 1.184-.254 1.692-.423.508-.254 1.015-.423 1.523-.423.254 0 .592 0 1.015.338l-2.453 4.57H9.054L6.346 2.753zm10.576 21.238H5.331c-1.946 0-3.554-1.607-3.554-3.554 0-3.3 1.185-6.346 3.554-9.223C6.854 9.438 8.377 8.254 8.8 8h4.57c.422.338 1.945 1.438 3.468 3.215 2.37 2.877 3.554 5.923 3.554 9.223.085 2.031-1.523 3.554-3.469 3.554z" fill-rule="nonzero"/><path d="M7.785 16.123c.084.085.169.17.338.17h6.008c.169 0 .254-.085.338-.17.085-.085.085-.17.085-.338 0-.17 0-.254-.085-.339-.084-.084-.169-.17-.338-.17h-.423c.338-.338.507-.845.507-1.353s-.169-.93-.338-1.27c-.254-.338-.592-.676-1.015-.845-.424-.17-.931-.339-1.524-.339-.676 0-1.184.17-1.692.423-.508.254-.846.677-1.184 1.1-.085.085-.085.254-.085.339 0 .169.085.338.254.423a.727.727 0 0 0 .592 0l.254-.254c.423-.677 1.015-1.015 1.946-1.015.592 0 1.015.084 1.354.338.338.254.423.592.423 1.015 0 .593-.254 1.016-.846 1.185H8.377c-.17 0-.254.085-.339.17-.084.084-.084.169-.084.338-.254.423-.254.507-.17.592zm2.03 1.947h4.316c.169 0 .254-.085.338-.17.085-.085.085-.17.085-.338 0-.085 0-.254-.085-.339-.084-.085-.169-.17-.338-.17H8.123c-.17 0-.254.085-.338.17-.085.085-.085.17-.085.339s0 .253.085.338c.084.085.169.17.338.17h.339c-.17.253-.339.507-.339.93 0 .762.254 1.438.846 1.862.593.423 1.354.676 2.285.676.761 0 1.438-.169 1.946-.507.592-.339.93-.762 1.27-1.354 0-.085.084-.17.084-.254 0-.085-.085-.254-.17-.338-.084-.085-.169-.17-.338-.17h-.17c-.084 0-.253 0-.338.085l-.253.254c-.17.338-.423.592-.762.846-.338.17-.761.338-1.27.338-.591 0-1.1-.169-1.438-.423-.338-.253-.507-.592-.507-1.1.084-.423.254-.677.507-.846z"/></g></svg>