<svg width="62" height="60" viewBox="0 0 62 60" xmlns="http://www.w3.org/2000/svg"><title>new-sticker</title><g fill="#FFED00"><path d="M32.084 24.724a1.28 1.28 0 1 0 0-2.561H26.23a1.28 1.28 0 0 0-1.28 1.28v13.112c0 .707.573 1.28 1.28 1.28h5.854a1.28 1.28 0 1 0 0-2.56h-4.573v-4.068h4.573a1.28 1.28 0 1 0 0-2.561h-4.573v-3.922h4.573zm-11.646-2.561a1.28 1.28 0 0 0-1.28 1.28v8.272L14.09 22.81a1.28 1.28 0 0 0-2.393.633v13.112a1.28 1.28 0 1 0 2.56 0v-8.271l5.067 8.904a1.28 1.28 0 0 0 2.393-.633V23.443a1.28 1.28 0 0 0-1.28-1.28zm27.8-.001a1.28 1.28 0 0 0-1.28 1.28v8.788l-2.99-4.606a1.28 1.28 0 0 0-2.148 0l-2.989 4.606v-8.788a1.28 1.28 0 1 0-2.561 0v13.113a1.28 1.28 0 0 0 2.355.697l4.27-6.58 4.27 6.58a1.28 1.28 0 0 0 2.354-.697V23.442a1.28 1.28 0 0 0-1.281-1.28z"/><path d="M58.283 34.036c1.375-1.08 2.934-2.304 2.934-4.037 0-1.734-1.559-2.958-2.934-4.038-.745-.584-1.764-1.384-1.87-1.853-.118-.516.47-1.715.898-2.591.792-1.617 1.61-3.288.88-4.803-.743-1.538-2.662-1.96-4.355-2.332-.938-.207-2.224-.49-2.537-.882-.319-.399-.31-1.721-.303-2.687.012-1.727.026-3.685-1.302-4.745-.547-.437-1.262-.658-2.126-.658-.887 0-1.846.225-2.773.442-.789.185-1.604.376-2.202.376-.298 0-.442-.048-.501-.077-.445-.214-1.003-1.396-1.41-2.259-.744-1.575-1.587-3.36-3.264-3.74a2.736 2.736 0 0 0-.607-.068c-1.392 0-2.64 1.01-3.848 1.986-.765.62-1.812 1.467-2.355 1.467-.542 0-1.59-.848-2.355-1.467-1.207-.976-2.455-1.986-3.848-1.986-.206 0-.41.022-.607.067-1.677.381-2.52 2.166-3.263 3.74-.408.864-.966 2.046-1.41 2.26-.06.029-.204.077-.502.077-.597 0-1.413-.191-2.202-.376-.926-.218-1.885-.442-2.772-.442-.864 0-1.58.221-2.127.658-1.327 1.06-1.313 3.018-1.302 4.745.007.966.016 2.288-.302 2.687-.314.393-1.599.675-2.538.881-1.693.373-3.612.794-4.354 2.332-.73 1.515.088 3.187.879 4.804.429.876 1.016 2.075.899 2.59-.107.47-1.126 1.27-1.87 1.854C1.559 27.04 0 28.265 0 29.999c0 1.733 1.559 2.957 2.934 4.037.745.584 1.764 1.385 1.87 1.853.117.516-.47 1.715-.899 2.591-.791 1.617-1.61 3.289-.879 4.804.742 1.537 2.661 1.96 4.355 2.331.938.207 2.223.49 2.537.882.319.399.31 1.721.303 2.687-.012 1.727-.026 3.685 1.301 4.745.548.437 1.263.658 2.127.658.887 0 1.846-.225 2.773-.442.788-.185 1.604-.376 2.201-.376.298 0 .443.048.502.077.445.214 1.003 1.396 1.41 2.26.744 1.574 1.586 3.359 3.264 3.74.196.044.4.067.606.067 1.393 0 2.641-1.01 3.849-1.986.765-.619 1.812-1.466 2.355-1.466.542 0 1.59.847 2.355 1.466 1.207.977 2.455 1.986 3.848 1.986.206 0 .41-.022.607-.067 1.677-.381 2.52-2.166 3.263-3.74.408-.864.966-2.046 1.41-2.26.06-.029.204-.077.502-.077.597 0 1.413.191 2.201.376.927.218 1.886.443 2.774.442.863 0 1.579-.221 2.126-.658 1.327-1.06 1.314-3.018 1.302-4.745-.007-.966-.016-2.288.302-2.687.314-.393 1.6-.675 2.538-.881 1.693-.373 3.612-.795 4.354-2.332.73-1.515-.088-3.187-.879-4.804-.429-.876-1.016-2.075-.899-2.59.106-.47 1.125-1.27 1.87-1.854zM13.12 8.07c.03-.024.154-.1.529-.1.591 0 1.403.191 2.188.375.93.218 1.893.444 2.787.444.624 0 1.152-.109 1.614-.331 1.26-.608 1.948-2.065 2.613-3.473.394-.835 1.054-2.232 1.515-2.337a.177.177 0 0 1 .039-.003c.487 0 1.499.819 2.238 1.416 1.237 1.001 2.517 2.037 3.965 2.037 1.449 0 2.728-1.036 3.966-2.037.74-.597 1.751-1.416 2.238-1.416.015 0 .028.001.038.004.462.104 1.122 1.501 1.516 2.336.665 1.409 1.353 2.865 2.613 3.473.462.223.99.331 1.615.331.893 0 1.855-.226 2.786-.444.785-.184 1.597-.374 2.188-.374.376 0 .5.075.529.099.355.284.345 1.812.338 2.726-.004.666-.008 1.341.055 1.984H12.727c.063-.642.06-1.318.055-1.984-.007-.914-.017-2.442.338-2.726zm34.976 43.858c-.029.023-.152.099-.528.099-.591 0-1.403-.19-2.188-.375-.931-.218-1.893-.443-2.787-.443-.624 0-1.152.108-1.614.33-1.26.609-1.948 2.065-2.613 3.473-.394.835-1.054 2.232-1.515 2.337a.177.177 0 0 1-.04.004c-.486 0-1.498-.82-2.237-1.417-1.237-1-2.517-2.036-3.966-2.036-1.448 0-2.728 1.035-3.965 2.036-.74.598-1.751 1.416-2.238 1.416a.176.176 0 0 1-.039-.003c-.461-.105-1.121-1.502-1.515-2.337-.665-1.408-1.353-2.864-2.613-3.472-.462-.223-.99-.332-1.615-.332-.893 0-1.856.226-2.786.444-.785.184-1.597.375-2.188.375-.376 0-.5-.076-.529-.1-.355-.283-.345-1.812-.338-2.725.004-.614.007-1.235-.042-1.83h35.736c-.049.595-.045 1.216-.04 1.83.006.913.016 2.442-.34 2.726zm6.915-12.322c.398.812 1.063 2.17.873 2.565-.201.417-1.701.746-2.598.943-1.485.327-3.018.667-3.91 1.696H11.841c-.893-1.03-2.426-1.37-3.912-1.696-.896-.197-2.396-.526-2.597-.943-.19-.394.475-1.753.872-2.565.695-1.42 1.414-2.887 1.096-4.285-.307-1.354-1.567-2.343-2.785-3.3-.779-.61-1.955-1.534-1.955-2.022 0-.489 1.176-1.413 1.955-2.024 1.218-.956 2.478-1.945 2.785-3.3.318-1.397-.4-2.865-1.096-4.285-.397-.811-1.062-2.17-.872-2.564.201-.417 1.701-.746 2.598-.943 1.41-.31 2.862-.631 3.77-1.543h37.816c.907.912 2.36 1.233 3.77 1.543.896.197 2.396.526 2.597.943.19.394-.475 1.753-.872 2.564-.695 1.42-1.414 2.888-1.096 4.285.307 1.355 1.567 2.344 2.785 3.3.779.612 1.955 1.535 1.955 2.024 0 .488-1.176 1.412-1.955 2.023-1.218.956-2.477 1.946-2.785 3.3-.318 1.397.4 2.865 1.095 4.284z"/></g></svg>