<svg width="17" height="17" viewBox="0 0 17 17" xmlns="http://www.w3.org/2000/svg"><title>New_icon</title><g fill="#323232" fill-rule="evenodd"><path d="M14.515.492H1.738c-.93 0-1.692.762-1.692 1.693v12.777c0 .93.762 1.692 1.692 1.692h12.777c.931 0 1.693-.762 1.693-1.692V2.185c.084-.931-.762-1.693-1.693-1.693zm.423 14.554c0 .254-.169.423-.423.423H1.738c-.253 0-.423-.169-.423-.423V2.27c0-.254.17-.423.423-.423h12.777c.254 0 .423.17.423.423v12.777z" fill-rule="nonzero"/><path d="M11.046 8.023h-2.2v-2.2a.667.667 0 0 0-.677-.677c-.423 0-.677.254-.677.677v2.2h-2.2a.667.667 0 0 0-.677.677c0 .423.254.677.677.677h2.2v2.2c0 .338.254.677.677.677.423 0 .677-.254.677-.677v-2.2h2.2a.667.667 0 0 0 .677-.677.667.667 0 0 0-.677-.677z"/></g></svg>