<svg width="59" height="60" viewBox="0 0 59 60" xmlns="http://www.w3.org/2000/svg"><title>percentage</title><g fill="#FF0201"><path d="M20.02 30.89a5.23 5.23 0 0 0 3.71 1.533 5.23 5.23 0 0 0 3.708-1.534 5.21 5.21 0 0 0 1.537-3.709 5.211 5.211 0 0 0-1.537-3.71 5.211 5.211 0 0 0-3.709-1.536 5.211 5.211 0 0 0-3.71 1.537 5.252 5.252 0 0 0 .001 7.418zm1.446-5.973a3.18 3.18 0 0 1 2.263-.937c.855 0 1.659.332 2.263.937.605.604.938 1.408.938 2.263s-.333 1.658-.938 2.263a3.204 3.204 0 0 1-4.526 0 3.204 3.204 0 0 1 0-4.526zm-.863 15.136a5.252 5.252 0 0 0 0 7.419 5.23 5.23 0 0 0 3.709 1.534 5.23 5.23 0 0 0 3.71-1.534 5.252 5.252 0 0 0 0-7.419 5.252 5.252 0 0 0-7.42 0zm5.972 5.973a3.204 3.204 0 0 1-4.526 0 3.204 3.204 0 0 1 0-4.526 3.204 3.204 0 0 1 4.526 0 3.204 3.204 0 0 1 0 4.526zm5.955-16.071l-17.954 9.213a1.023 1.023 0 1 0 .934 1.82l17.955-9.213a1.023 1.023 0 1 0-.934-1.82z"/><path d="M58.461 6.615A6.623 6.623 0 0 0 51.846 0h-7.135a6.623 6.623 0 0 0-6.615 6.615v4.654l-9.611-.946a4.11 4.11 0 0 0-3.322 1.19L.91 35.762a2.973 2.973 0 0 0 0 4.2l19.035 19.035c.561.56 1.307.87 2.1.87a2.95 2.95 0 0 0 2.1-.87l24.251-24.251a4.113 4.113 0 0 0 1.189-3.323l-1.182-12.012 8.12-8.119a6.573 6.573 0 0 0 1.937-4.678zM46.951 33.3L22.699 57.552a.918.918 0 0 1-.653.27.918.918 0 0 1-.653-.27L2.358 38.517a.925.925 0 0 1 0-1.307l24.251-24.252a2.072 2.072 0 0 1 1.676-.6l9.81.966v3.101a4.452 4.452 0 0 0-2.147 1.196 4.454 4.454 0 0 0-1.313 3.17 4.45 4.45 0 0 0 1.313 3.17 4.454 4.454 0 0 0 3.17 1.313 4.454 4.454 0 0 0 3.17-1.313 4.453 4.453 0 0 0 1.314-3.17 4.454 4.454 0 0 0-1.313-3.17 4.46 4.46 0 0 0-2.148-1.196v-2.9l3.984.392c.985.097 1.77.882 1.867 1.867l1.558 15.84a2.074 2.074 0 0 1-.6 1.676zm-8.697-14.787a4.495 4.495 0 0 0 3.143 3.142 2.43 2.43 0 0 1-.555.86c-.46.46-1.072.714-1.724.714a2.422 2.422 0 0 1-1.724-.714 2.422 2.422 0 0 1-.714-1.724 2.43 2.43 0 0 1 1.574-2.278zm16.823-8.666l-6.932 6.931-.117-1.194a4.137 4.137 0 0 0-3.703-3.703l-4.184-.411V6.615c0-2.52 2.05-4.57 4.57-4.57h7.135c2.52 0 4.57 2.05 4.57 4.57a4.54 4.54 0 0 1-1.339 3.232z"/></g></svg>