<svg width="13" height="21" viewBox="0 0 13 21" xmlns="http://www.w3.org/2000/svg"><title>Shape</title><path d="M10.573 0H1.427C.622 0 0 .659 0 1.427v18.11C0 20.34.659 21 1.463 21h9.11c.805 0 1.464-.659 1.464-1.463V1.463C12.073.66 11.415 0 10.573 0zM6.037 20.415a.812.812 0 0 1-.805-.805c0-.44.366-.805.805-.805.439 0 .804.366.804.805-.036.475-.365.805-.804.805zm5.158-2.708a.563.563 0 0 1-.549.55H1.39a.563.563 0 0 1-.549-.55V2.378c0-.293.257-.549.55-.549h9.255c.293 0 .55.256.55.549v15.33z" fill="#1F30A7"/></svg>