<svg width="50" height="50" viewBox="0 0 50 50" xmlns="http://www.w3.org/2000/svg"><title>add-square-outlined-interface-button</title><path d="M34.375 23.438h-7.813v-7.813a1.563 1.563 0 0 0-3.125 0v7.813h-7.812a1.563 1.563 0 0 0 0 3.125h7.813v7.812a1.563 1.563 0 0 0 3.125 0v-7.813h7.812a1.563 1.563 0 0 0 0-3.125zM43.75 0H6.25A6.25 6.25 0 0 0 0 6.25v37.5A6.25 6.25 0 0 0 6.25 50h37.5A6.25 6.25 0 0 0 50 43.75V6.25A6.25 6.25 0 0 0 43.75 0zm3.125 43.75c0 1.727-1.4 3.125-3.125 3.125H6.25a3.124 3.124 0 0 1-3.125-3.125V6.25A3.124 3.124 0 0 1 6.25 3.125h37.5c1.725 0 3.125 1.4 3.125 3.125v37.5z" fill="#24CB99"/></svg>