<svg width="17" height="18" viewBox="0 0 17 18" xmlns="http://www.w3.org/2000/svg"><title>Sales_icon</title><g transform="translate(-.462 .538)" fill="#323232" fill-rule="evenodd"><path d="M14.977 16.585H2.2c-.93 0-1.692-.762-1.692-1.693V2.115c0-.93.761-1.692 1.692-1.692h12.777c.93 0 1.692.762 1.692 1.692v12.777c.085.931-.761 1.693-1.692 1.693zM2.2 1.608c-.254 0-.423.169-.423.423v12.777c0 .254.17.423.423.423h12.777c.254 0 .423-.17.423-.423V2.03c0-.254-.17-.423-.423-.423H2.2z" fill-rule="nonzero"/><path d="M5.923 11.762a.646.646 0 0 1-.423-.17.664.664 0 0 1 0-.93l5.33-5.331a.664.664 0 0 1 .932 0 .664.664 0 0 1 0 .93L6.43 11.593c-.17.085-.339.17-.508.17z"/><circle cx="6.092" cy="5.923" r="1.015"/><circle cx="11.085" cy="11" r="1.015"/></g></svg>