<svg width="16" height="26" viewBox="0 0 16 26" xmlns="http://www.w3.org/2000/svg"><title>Shops_icon</title><g fill="#323232"><path d="M12.23 8.392a4.153 4.153 0 0 0-4.145-4.146 4.153 4.153 0 0 0-4.147 4.146 4.153 4.153 0 0 0 4.147 4.146 4.153 4.153 0 0 0 4.146-4.146zM8.086 11.27a2.853 2.853 0 0 1-2.877-2.877 2.853 2.853 0 0 1 2.877-2.877 2.853 2.853 0 0 1 2.877 2.877 2.853 2.853 0 0 1-2.877 2.877z"/><path d="M8.592 20.662c.339-.339 7.023-7.108 7.023-12.27 0-4.146-3.384-7.53-7.53-7.53C3.938.862.554 4.246.554 8.392c0 5.162 6.684 11.931 7.023 12.27-2.2.084-4.23.846-4.23 2.369C3.346 24.554 5.714 25.4 8 25.4c2.285 0 4.654-.846 4.654-2.37.17-1.438-1.862-2.2-4.062-2.368zM8.085 2.13a6.247 6.247 0 0 1 6.261 6.261c0 3.977-4.738 9.393-6.261 11-1.523-1.607-6.262-7.023-6.262-11 .085-3.383 2.877-6.26 6.262-6.26zm0 22c-2.116 0-3.385-.762-3.385-1.1 0-.339 1.185-1.1 3.385-1.1 2.2 0 3.384.761 3.384 1.1.085.423-1.269 1.1-3.384 1.1z"/></g></svg>