<svg width="50" height="60" viewBox="0 0 50 60" xmlns="http://www.w3.org/2000/svg"><title>stove</title><g fill="#FFED00"><path d="M19.633 13.348a3.049 3.049 0 0 0 3.045-3.046 3.05 3.05 0 0 0-2.073-2.885v-.225a.972.972 0 0 0-1.944 0v.225a3.05 3.05 0 0 0-2.074 2.885 3.049 3.049 0 0 0 3.046 3.046zm0-4.147a1.103 1.103 0 0 1 0 2.203 1.103 1.103 0 0 1 0-2.203zM9.266 13.348a3.049 3.049 0 0 0 3.045-3.046 3.05 3.05 0 0 0-2.073-2.885v-.225a.972.972 0 0 0-1.944 0v.225a3.05 3.05 0 0 0-2.074 2.885 3.049 3.049 0 0 0 3.046 3.046zm0-4.147a1.103 1.103 0 0 1 0 2.203 1.103 1.103 0 0 1 0-2.203zm31.101 4.147a3.049 3.049 0 0 0 3.046-3.046 3.05 3.05 0 0 0-2.074-2.885v-.225a.972.972 0 0 0-1.944 0v.225a3.05 3.05 0 0 0-2.073 2.885 3.049 3.049 0 0 0 3.045 3.046zm0-4.147a1.103 1.103 0 0 1 0 2.203 1.103 1.103 0 0 1 0-2.203zM30 13.348a3.049 3.049 0 0 0 3.045-3.046 3.05 3.05 0 0 0-2.073-2.885v-.225a.972.972 0 0 0-1.944 0v.225a3.05 3.05 0 0 0-2.073 2.885A3.049 3.049 0 0 0 30 13.348zM30 9.2a1.103 1.103 0 0 1 0 2.203A1.103 1.103 0 0 1 30 9.2zm10.367 14.644H9.266a.972.972 0 0 0 0 1.944h31.101a.972.972 0 0 0 0-1.944z"/><path d="M43.477 19.698H6.156a2.01 2.01 0 0 0-2.01 2.008v29.028a2.01 2.01 0 0 0 2.01 2.009h37.321a2.01 2.01 0 0 0 2.009-2.009V21.706a2.01 2.01 0 0 0-2.009-2.008zm.065 31.036a.065.065 0 0 1-.065.065H6.156a.065.065 0 0 1-.065-.065V21.706c0-.036.029-.065.065-.065h37.321c.036 0 .065.03.065.065v29.028z"/><path d="M40.367 27.991H9.266a.972.972 0 0 0-.972.972v18.661c0 .537.435.972.972.972h31.101a.972.972 0 0 0 .972-.972v-18.66a.972.972 0 0 0-.972-.973zm-.972 18.661H10.238V29.935h29.157v16.717z"/><path d="M47.624 3.11h-2.138v-1.1A2.01 2.01 0 0 0 43.477 0H28.963a2.01 2.01 0 0 0-2.008 2.009V3.11h-4.277v-1.1A2.01 2.01 0 0 0 20.67 0H6.156a2.01 2.01 0 0 0-2.01 2.009V3.11H2.01A2.01 2.01 0 0 0 0 5.12v52.87A2.01 2.01 0 0 0 2.009 60h2.073a2.01 2.01 0 0 0 2.009-2.009V56.89h37.451v1.101A2.01 2.01 0 0 0 45.551 60h2.073a2.01 2.01 0 0 0 2.009-2.009V5.12a2.01 2.01 0 0 0-2.009-2.009zm-18.726-1.1c0-.036.03-.065.065-.065h14.514c.036 0 .065.029.065.065v1.1H28.898v-1.1zm-22.807 0c0-.036.029-.065.065-.065H20.67c.035 0 .064.029.064.065v1.1H6.091v-1.1zM2.009 5.054h45.615c.036 0 .065.029.065.065V15.55H1.944V5.119c0-.036.029-.065.065-.065zm45.615 53.002h-2.073a.065.065 0 0 1-.065-.065v-2.073a.972.972 0 0 0-.972-.972H5.119a.972.972 0 0 0-.972.972v2.073a.065.065 0 0 1-.065.065H2.01a.065.065 0 0 1-.065-.065V17.495H47.69V57.99a.065.065 0 0 1-.065.065z"/></g></svg>