<svg width="37" height="60" viewBox="0 0 37 60" xmlns="http://www.w3.org/2000/svg"><title>telephone-contact</title><g fill="#FFED00"><path d="M18.129 50.191a2.907 2.907 0 0 0-2.903 2.903 2.906 2.906 0 0 0 2.903 2.903c1.6 0 2.903-1.302 2.903-2.903 0-1.6-1.302-2.903-2.903-2.903zm0 3.87a.969.969 0 0 1 0-1.935.969.969 0 0 1 0 1.936zM14.047 7.874h8.164a.968.968 0 1 0 0-1.936h-8.164a.968.968 0 1 0 0 1.936z"/><path d="M30.006 0H6.252A6.253 6.253 0 0 0 .006 6.246v47.508A6.253 6.253 0 0 0 6.252 60h23.754a6.253 6.253 0 0 0 6.246-6.246V6.246A6.253 6.253 0 0 0 30.006 0zM1.94 13.812h32.376v32.376H1.94V13.812zM6.252 1.935h23.754a4.316 4.316 0 0 1 4.31 4.311v5.63H1.942v-5.63a4.316 4.316 0 0 1 4.311-4.31zm23.754 56.13H6.252a4.316 4.316 0 0 1-4.31-4.311v-5.63h32.375v5.63a4.316 4.316 0 0 1-4.311 4.31z"/></g></svg>