<svg width="17" height="17" viewBox="0 0 17 17" xmlns="http://www.w3.org/2000/svg"><title>Tovars_icon</title><path d="M3.6 7.485C1.654 7.485.046 5.877.046 3.93.046 1.985 1.654.377 3.6.377c1.946 0 3.554 1.608 3.554 3.554 0 1.946-1.608 3.554-3.554 3.554zm0-5.839a2.275 2.275 0 0 0-2.285 2.285A2.275 2.275 0 0 0 3.6 6.215a2.275 2.275 0 0 0 2.285-2.284c.084-1.27-.931-2.285-2.2-2.37H3.6v.085zm9.054 5.839C10.708 7.485 9.1 5.877 9.1 3.93c0-1.946 1.608-3.554 3.554-3.554 1.946 0 3.554 1.608 3.554 3.554 0 1.946-1.608 3.554-3.554 3.554zm0-5.839a2.275 2.275 0 0 0-2.285 2.285 2.275 2.275 0 0 0 2.285 2.284 2.275 2.275 0 0 0 2.284-2.284c.085-1.27-.93-2.285-2.2-2.37h-.084v.085zM3.6 16.623c-1.946 0-3.554-1.608-3.554-3.554 0-1.946 1.608-3.554 3.554-3.554 1.946 0 3.554 1.608 3.554 3.554 0 1.946-1.608 3.554-3.554 3.554zm0-5.838a2.275 2.275 0 0 0-2.285 2.284A2.275 2.275 0 0 0 3.6 15.354a2.275 2.275 0 0 0 2.285-2.285c.084-1.269-.931-2.284-2.2-2.369H3.6v.085zm9.054 5.838c-1.946 0-3.554-1.608-3.554-3.554 0-1.946 1.608-3.554 3.554-3.554 1.946 0 3.554 1.608 3.554 3.554 0 1.946-1.608 3.554-3.554 3.554zm0-5.838a2.275 2.275 0 0 0-2.285 2.284 2.275 2.275 0 0 0 2.285 2.285 2.275 2.275 0 0 0 2.284-2.285c.085-1.269-.93-2.284-2.2-2.369h-.084v.085z" fill="#323232"/></svg>