<svg width="86" height="55" viewBox="0 0 86 55" xmlns="http://www.w3.org/2000/svg"><title>watch</title><g fill="#FFED00"><path d="M84.257 38.483h-16.26a27.55 27.55 0 0 0 2.29-10.983c0-3.78-.787-7.537-2.29-10.984h4.453l.034.002.034-.002h11.74a1.318 1.318 0 1 0 0-2.636H73.801v-2.195c0-.529-.316-1.006-.803-1.213L54.464 2.603A27.416 27.416 0 0 0 42.788 0a27.42 27.42 0 0 0-11.677 2.603l-18.535 7.87a1.317 1.317 0 0 0-.803 1.212v2.196H1.318a1.318 1.318 0 1 0 0 2.636h16.26a27.548 27.548 0 0 0-2.29 10.983c0 3.779.787 7.535 2.29 10.982H1.318a1.318 1.318 0 1 0 0 2.636h10.455v2.197c0 .529.316 1.006.803 1.213l18.535 7.869A27.414 27.414 0 0 0 42.788 55c4.093 0 8.067-.907 11.676-2.603l18.535-7.87c.487-.206.803-.683.803-1.212v-2.196h10.455a1.318 1.318 0 1 0 0-2.636zm-13.09 3.96l-7.846 3.33c.197-.222.393-.446.584-.675a1.318 1.318 0 1 0-2.023-1.689A24.94 24.94 0 0 1 53.364 50l-.014.006-.054.027a24.785 24.785 0 0 1-10.508 2.331c-3.683 0-7.26-.812-10.51-2.332l-.053-.026-.013-.005a24.944 24.944 0 0 1-8.519-6.592 1.318 1.318 0 0 0-2.023 1.689c.191.229.387.453.584.675l-7.845-3.33v-1.325h5.27a1.318 1.318 0 0 0 1.162-1.939A24.858 24.858 0 0 1 17.923 27.5c0-4.07 1.01-8.108 2.918-11.68a1.318 1.318 0 0 0-1.162-1.94h-5.27v-1.323l7.845-3.33a28.01 28.01 0 0 0-.584.675 1.318 1.318 0 1 0 2.023 1.69 24.942 24.942 0 0 1 8.518-6.593l.014-.005.053-.026a24.786 24.786 0 0 1 10.51-2.332c3.682 0 7.26.812 10.51 2.332l.052.026.014.005a24.942 24.942 0 0 1 8.517 6.592 1.318 1.318 0 1 0 2.024-1.689 27.98 27.98 0 0 0-.584-.675l7.845 3.33v1.323h-5.27a1.318 1.318 0 0 0-1.163 1.94 24.862 24.862 0 0 1 2.919 11.68c0 4.07-1.01 8.108-2.918 11.68a1.318 1.318 0 0 0 1.162 1.94h5.27v1.322z"/><path d="M57.264 14.905a1.318 1.318 0 0 0-.254 1.846A17.66 17.66 0 0 1 60.623 27.5c0 9.835-8.001 17.835-17.835 17.835-9.835 0-17.836-8-17.836-17.835S32.953 9.665 42.788 9.665c3.912 0 7.629 1.249 10.748 3.613a1.318 1.318 0 1 0 1.592-2.1 20.275 20.275 0 0 0-12.34-4.15c-11.288 0-20.472 9.184-20.472 20.472 0 11.288 9.184 20.471 20.472 20.471 11.287 0 20.47-9.183 20.47-20.471 0-4.492-1.434-8.76-4.148-12.34a1.318 1.318 0 0 0-1.846-.255z"/><path d="M42.788 15.815c-.728 0-1.318.59-1.318 1.318v8.053a2.666 2.666 0 0 0-1.348 2.314 2.669 2.669 0 0 0 2.666 2.666c.99 0 1.854-.544 2.314-1.348h11.567a1.318 1.318 0 1 0 0-2.636H45.102a2.681 2.681 0 0 0-.997-.996v-8.053c0-.728-.59-1.318-1.317-1.318z"/></g></svg>