<svg width="31" height="34" viewBox="0 0 31 34" xmlns="http://www.w3.org/2000/svg"><title>multimedia-option</title><g fill="#FFF" fill-rule="evenodd"><path d="M31.575 15.06a.713.713 0 0 0-1.008 0L15.392 30.235.216 15.06a.713.713 0 0 0-1.008 1.008l15.68 15.68a.716.716 0 0 0 1.008 0l15.679-15.68a.713.713 0 0 0 0-1.008z"/><path d="M31.575 2.23a.713.713 0 0 0-1.008 0L15.392 17.406.216 2.232A.713.713 0 0 0-.792 3.239l15.68 15.68a.716.716 0 0 0 1.008-.002L31.575 3.238a.713.713 0 0 0 0-1.008z"/></g></svg>