<svg width="66" height="70" viewBox="0 0 66 70" xmlns="http://www.w3.org/2000/svg"><title>professions-and-jobs</title><g fill="#00C4FC" fill-rule="evenodd"><path d="M22.776 19.495l-1.181.429a5.573 5.573 0 0 0-3.548 4.172l-.401 2.105c-.2 1.043.072 2.11.747 2.93a3.527 3.527 0 0 0 2.73 1.289H31.36a3.547 3.547 0 0 0 3.487-4.176l-.374-2.094a5.561 5.561 0 0 0-3.56-4.239l-1.252-.454v-1.85c0-.052-.005-.103-.012-.153a5.039 5.039 0 0 0 1.436-3.503v-2.756c0-2.69-2.183-4.88-4.866-4.88-2.684 0-4.868 2.19-4.868 4.88v2.842c0 1.336.55 2.557 1.434 3.443a1.019 1.019 0 0 0-.008.127v1.888zm9.683 5.016l.373 2.094a1.497 1.497 0 0 1-1.473 1.764H21.124a1.496 1.496 0 0 1-1.469-1.782l.4-2.105a3.513 3.513 0 0 1 2.237-2.63l.773-.281c.02.02.039.04.06.058a4.681 4.681 0 0 0 3.093 1.16c1.105 0 2.21-.386 3.091-1.157a1.01 1.01 0 0 0 .09-.09l.815.297a3.504 3.504 0 0 1 2.245 2.672zm-9.063-13.316a2.828 2.828 0 0 1 2.821-2.829c1.313 0 2.416.905 2.73 2.125a5.967 5.967 0 0 1-.405.18c-1.258.505-2.273.438-2.564.234a1.021 1.021 0 0 0-1.424.251 1.027 1.027 0 0 0 .25 1.428c.5.352 1.177.527 1.951.527.703 0 1.485-.146 2.284-.436v1.275c0 .784-.324 1.552-.888 2.106a2.858 2.858 0 0 1-.947.621 2.64 2.64 0 0 1-1.043.187 2.839 2.839 0 0 1-2.765-2.828v-2.841zm2.726 7.72h.094c.48 0 .95-.072 1.399-.21v1.64a2.665 2.665 0 0 1-2.794 0v-1.637c.414.125.85.198 1.301.207z" fill-rule="nonzero"/><path d="M10.127 47.975h31.85c.565 0 1.023-.459 1.023-1.025 0-.567-.458-1.026-1.023-1.026h-31.85a1.025 1.025 0 0 0 0 2.051zm0 5.529h31.85c.565 0 1.023-.459 1.023-1.025 0-.567-.458-1.026-1.023-1.026h-31.85a1.025 1.025 0 0 0 0 2.051zm0 5.529h31.85c.565 0 1.023-.459 1.023-1.025 0-.567-.458-1.026-1.023-1.026h-31.85a1.025 1.025 0 0 0 0 2.051zm0 5.529h31.85c.565 0 1.023-.459 1.023-1.025 0-.567-.458-1.026-1.023-1.026h-31.85a1.025 1.025 0 0 0 0 2.051zm-1.023-28.67c0 .566.458 1.025 1.023 1.025h31.85a1.024 1.024 0 0 0 0-2.05h-31.85c-.565 0-1.023.459-1.023 1.025zm1.023 6.554h31.85c.565 0 1.023-.459 1.023-1.025 0-.567-.458-1.026-1.023-1.026h-31.85a1.025 1.025 0 0 0 0 2.051zM6.35 47.979c.567 0 1.027-.46 1.027-1.03a1.028 1.028 0 0 0-2.053 0c0 .57.46 1.03 1.026 1.03zm0-11.058a1.029 1.029 0 1 0 0-2.059c-.567 0-1.026.461-1.026 1.03 0 .568.46 1.03 1.026 1.03zm0 5.529c.567 0 1.027-.46 1.027-1.03a1.028 1.028 0 0 0-2.053 0c0 .57.46 1.03 1.026 1.03zm0 11.058c.567 0 1.027-.46 1.027-1.03a1.028 1.028 0 0 0-2.053 0c0 .57.46 1.03 1.026 1.03zm0 5.529c.567 0 1.027-.46 1.027-1.03a1.028 1.028 0 0 0-2.053 0c0 .57.46 1.03 1.026 1.03zm0 5.529c.567 0 1.027-.46 1.027-1.03a1.028 1.028 0 0 0-2.053 0c0 .569.46 1.03 1.026 1.03z"/><path d="M64.313 16.15c-.412-.524-.802-1.02-.991-1.475-.204-.492-.284-1.142-.369-1.83-.148-1.207-.317-2.574-1.268-3.528-.952-.954-2.316-1.122-3.519-1.272-.686-.085-1.335-.165-1.826-.37-.455-.188-.948-.579-1.47-.993-.72-.57-1.51-1.194-2.444-1.478v-.31c0-2.699-2.19-4.894-4.882-4.894H4.938C2.247 0 .057 2.195.057 4.894v3.958a1.024 1.024 0 1 0 2.045 0V4.894A2.843 2.843 0 0 1 4.938 2.05h42.606a2.843 2.843 0 0 1 2.836 2.843v.31c-.934.284-1.724.909-2.443 1.478-.522.414-1.016.805-1.47.994-.491.204-1.14.284-1.827.37-1.203.149-2.566.317-3.518 1.271s-1.12 2.321-1.269 3.528c-.085.688-.165 1.338-.368 1.83-.189.456-.579.95-.992 1.474-.764.97-1.63 2.069-1.63 3.475 0 1.407.866 2.506 1.63 3.475.413.524.803 1.019.992 1.475.203.492.283 1.142.368 1.83.149 1.206.317 2.574 1.269 3.527.952.954 2.315 1.123 3.518 1.272.359.045.706.089 1.027.149v15.5c0 .606.338 1.149.883 1.415a1.556 1.556 0 0 0 1.656-.176l2.174-1.707v18.722a2.843 2.843 0 0 1-2.836 2.843H4.938a2.843 2.843 0 0 1-2.836-2.843V13.367a1.024 1.024 0 1 0-2.045 0v51.74C.057 67.804 2.247 70 4.938 70h42.606c2.692 0 4.882-2.195 4.882-4.894V46.384L54.6 48.09a1.562 1.562 0 0 0 1.657.177c.545-.266.883-.809.883-1.416V35.408a1.024 1.024 0 1 0-2.045 0v10.466l-2.719-2.134a1.571 1.571 0 0 0-1.942-.003l-2.721 2.136V32.39l.224.177c.967.767 2.063 1.635 3.466 1.635s2.5-.869 3.466-1.634c.523-.414 1.016-.805 1.471-.994.49-.204 1.14-.285 1.826-.37 1.203-.149 2.567-.318 3.519-1.272.951-.954 1.12-2.32 1.268-3.527.085-.688.165-1.338.369-1.83.189-.456.578-.951.991-1.475.764-.97 1.63-2.068 1.63-3.475 0-1.406-.866-2.505-1.63-3.475zm-1.605 5.678c-.48.61-.978 1.241-1.275 1.96-.31.75-.412 1.57-.51 2.365-.118.963-.23 1.873-.684 2.328-.455.455-1.362.568-2.323.687-.793.098-1.612.2-2.36.51-.716.298-1.345.797-1.954 1.28-.775.612-1.506 1.192-2.198 1.192-.693 0-1.424-.58-2.199-1.193-.609-.482-1.238-.98-1.955-1.279-.05-.02-.22-.086-.257-.097-.676-.236-1.4-.326-2.102-.413-.96-.12-1.868-.232-2.323-.687-.454-.455-.566-1.365-.685-2.328-.098-.795-.199-1.616-.509-2.365-.297-.719-.794-1.35-1.275-1.96-.612-.776-1.19-1.51-1.19-2.204 0-.694.578-1.427 1.19-2.203.48-.61.978-1.242 1.275-1.96.31-.75.412-1.57.51-2.365.118-.963.23-1.873.684-2.328.455-.456 1.362-.568 2.323-.687.793-.098 1.612-.2 2.36-.51.716-.298 1.345-.797 1.954-1.28.773-.612 1.503-1.19 2.194-1.192h.008c.692.002 1.422.58 2.195 1.193.609.482 1.238.98 1.955 1.278.747.311 1.567.413 2.359.51.96.12 1.868.232 2.323.688.454.455.566 1.365.685 2.328.098.794.199 1.615.509 2.365.297.718.794 1.35 1.275 1.96.612.776 1.19 1.51 1.19 2.203 0 .694-.578 1.428-1.19 2.204z" fill-rule="nonzero"/><path d="M57.97 16.366l-3.48-.987-2.013-3.014a1.289 1.289 0 0 0-2.147 0l-2.012 3.014-3.481.987a1.295 1.295 0 0 0-.663 2.047l2.237 2.85-.14 3.622a1.294 1.294 0 0 0 1.737 1.266l3.395-1.252 3.395 1.252a1.294 1.294 0 0 0 1.737-1.265l-.14-3.624 2.238-2.85a1.295 1.295 0 0 0-.664-2.046zm-3.353 3.847a1.3 1.3 0 0 0-.276.85l.107 2.774-2.599-.958a1.29 1.29 0 0 0-.892 0l-2.598.958.106-2.774a1.302 1.302 0 0 0-.276-.85l-1.712-2.181 2.665-.756c.294-.084.55-.27.72-.525l1.541-2.307 1.54 2.306c.17.255.427.442.722.526l2.664.756-1.712 2.181z" fill-rule="nonzero"/></g></svg>