<svg width="166" height="70" viewBox="0 0 166 70" xmlns="http://www.w3.org/2000/svg"><title>zengi logo new2</title><g fill="none" fill-rule="evenodd"><path d="M114.199 69.865H91.808c-8.122 0-14.718-6.596-14.718-14.718 0-8.121 6.596-14.718 14.718-14.718h22.39c8.123 0 14.719 6.597 14.719 14.718.045 8.122-6.552 14.718-14.718 14.718z" fill="#00C4FC"/><path d="M29.526 29.75H2.064c-.808 0-1.57-.494-1.885-1.256a2.006 2.006 0 0 1 .45-2.2L22.614 4.309H.045V.269h27.461c.808 0 1.57.494 1.885 1.257a2.006 2.006 0 0 1-.449 2.198L6.955 25.712h22.57v4.038zm40.429 0H42.494a2.01 2.01 0 0 1-2.02-2.02l-.045-12.698c0-.538.225-1.032.584-1.436a2.076 2.076 0 0 1 1.436-.583H69.91v4.038H44.468l.045 8.66H70v4.039h-.045zM40.385.269h29.526v4.038H40.385zM108.32 29.75c-.538 0-1.032-.224-1.435-.583L84.897 7.179V29.75H80.86V2.288c0-.807.494-1.57 1.256-1.884a2.006 2.006 0 0 1 2.2.449L106.3 22.84V.27h4.039v27.46c0 .808-.494 1.571-1.257 1.885a2.28 2.28 0 0 1-.762.135zm40.385 0h-25.442a2.01 2.01 0 0 1-2.02-2.02V2.289a2.01 2.01 0 0 1 2.02-2.019h27.327v4.039h-25.308v21.404h21.404l-.045-8.66h-10.68v-4.04h12.7a2.01 2.01 0 0 1 2.018 2.02l.045 12.699c0 .538-.224 1.032-.583 1.436-.359.404-.897.583-1.436.583zM161.673.269h4.038V29.75h-4.038zM29.48 57.122H2.02A2.01 2.01 0 0 1 0 55.102V42.405a2.01 2.01 0 0 1 2.02-2.02h27.46v4.04H4.039v8.66h25.443v4.038zM.045 65.827h29.436v4.038H.045zm65.782-25.442v12.698H44.423V40.385h-4.038v29.48h4.038V57.122h21.404v12.743h4.038v-29.48z" fill="#FFF"/><path d="M163.692 40.385h-27.461v29.48h4.038V57.167h23.423a2.01 2.01 0 0 0 2.02-2.02V42.45c0-1.167-.898-2.064-2.02-2.064zm-2.019 12.698H140.27v-8.66h21.404v8.66z" fill="#FFF" fill-rule="nonzero"/><circle fill="#FFF" cx="114.199" cy="55.103" r="10.635"/></g></svg>