<svg width="70" height="70" viewBox="0 0 70 70" xmlns="http://www.w3.org/2000/svg"><title>switch</title><g fill="#00C4FC" fill-rule="evenodd"><path d="M24.006 34.565a1.035 1.035 0 0 0-1.405.412l-3.277 6.002-3.987-7.304a1.036 1.036 0 0 0-1.818 0L7.467 44.76l-.003.006L5.6 48.178a1.035 1.035 0 1 0 1.817.993l1.21-2.215 1.202 1.202c.404.404 1.06.404 1.464 0l.649-.649 1.753 1.753a1.032 1.032 0 0 0 .953.279l-6.79 12.438a1.036 1.036 0 0 0 1.817.992l14.742-27.002c.275-.501.09-1.13-.412-1.404zM16.18 45.313l-1.753 1.753-1.753-1.753a1.035 1.035 0 0 0-1.464 0l-.649.649-.9-.9 4.766-8.73 3.716 6.808-1.031 1.89a1.034 1.034 0 0 0-.932.283z" fill-rule="nonzero"/><path d="M4.687 52.012a1.035 1.035 0 0 0-1.405.413l-3.155 5.78a1.035 1.035 0 1 0 1.818.992l3.155-5.78c.274-.502.09-1.13-.413-1.405z"/><path d="M69.873 52.543l-7.337-13.438a.097.097 0 0 1-.002-.004l-2.099-3.844a1.035 1.035 0 1 0-1.818.993l1.72 3.15-.9.9-.648-.648a1.036 1.036 0 0 0-1.464 0l-1.753 1.753-1.753-1.753a1.036 1.036 0 0 0-1.465 0l-.648.649-.9-.9 4.766-8.73.722 1.324a1.036 1.036 0 0 0 1.818-.992l-1.631-2.988a1.035 1.035 0 0 0-1.818 0L49.13 38.146 36.035 14.164V10.63h10.839a1.035 1.035 0 0 0 .857-1.616l-2.506-3.7 2.506-3.699A1.035 1.035 0 0 0 46.874 0H35c-.572 0-1.036.464-1.036 1.036v13.128l-9.048 16.572a1.036 1.036 0 0 0 1.818.992l2.466-4.516 1.202 1.203c.404.404 1.06.404 1.464 0l.649-.649 1.753 1.753a1.032 1.032 0 0 0 1.464 0l1.753-1.753.648.649c.405.404 1.06.404 1.465 0l1.202-1.203 19.524 35.76a1.035 1.035 0 1 0 1.817-.993L51.67 42.799c.277.01.557-.09.768-.302l.649-.648 1.753 1.753a1.032 1.032 0 0 0 1.464 0l1.753-1.753.648.648c.405.405 1.06.405 1.465 0l1.202-1.202 6.683 12.24a1.035 1.035 0 1 0 1.818-.992zM43.117 5.897l1.804 2.663h-8.886V2.071h8.886l-1.804 2.664c-.238.35-.238.81 0 1.162zm-4.251 20.321l-.649-.648a1.036 1.036 0 0 0-1.464 0L35 27.323l-1.753-1.753a1.035 1.035 0 0 0-1.464 0l-.649.648-.9-.9L35 16.588l4.766 8.73-.9.9z" fill-rule="nonzero"/><path d="M41.238 45.562h2.598a1.036 1.036 0 0 0 .797-1.697l-8.837-10.631a1.036 1.036 0 0 0-1.592 0l-8.837 10.63a1.035 1.035 0 0 0 .797 1.698h2.598l-7.177 23.095A1.036 1.036 0 0 0 22.574 70h24.852a1.035 1.035 0 0 0 .989-1.343l-7.177-23.095zM23.98 67.93l7.176-23.095a1.036 1.036 0 0 0-.988-1.343H28.37L35 35.515l6.63 7.976h-1.798a1.035 1.035 0 0 0-.989 1.343l7.177 23.095H23.98z" fill-rule="nonzero"/></g></svg>