<svg width="20" height="20" viewBox="0 0 20 20" xmlns="http://www.w3.org/2000/svg"><title>phone-call (1)</title><g fill="#00C4FC" fill-rule="evenodd"><path d="M15.826 12.19c-.442-.459-.975-.702-1.545-.702-.566 0-1.103.24-1.558.698l-1.198 1.194-.079-.041c-.037-.017-.07-.037-.107-.054a5.574 5.574 0 0 1-.393-.206c-1.206-.765-2.301-1.765-3.351-3.054-.463-.587-.785-1.083-1.025-1.583.269-.252.52-.508.765-.756l.086-.091.174-.178.174-.173c.467-.467.71-1.008.71-1.575 0-.566-.248-1.111-.71-1.574L6.64 2.967a16.852 16.852 0 0 1-.38-.388 19.03 19.03 0 0 0-.78-.773c-.439-.442-.968-.674-1.525-.674-.558 0-1.095.232-1.55.666L.988 3.228a3.228 3.228 0 0 0-.955 2.049C-.07 6.52.293 7.674.574 8.43c.682 1.834 1.695 3.529 3.199 5.334a19.66 19.66 0 0 0 6.545 5.124c.971.463 2.273 1 3.715 1.095.1.005.186.009.269.009 1.016 0 1.867-.368 2.537-1.091l.02-.02.005-.005c.004-.004.004-.008.008-.012.19-.228.409-.443.645-.666l.057-.053c.215-.207.389-.376.546-.542.446-.463.682-1.008.682-1.574 0-.57-.24-1.112-.699-1.562l-2.277-2.277zm1.24 4.29h-.07l-.03.107c-.115.124-.239.24-.363.363l-.09.091c-.265.252-.546.53-.81.84-.38.404-.815.586-1.401.586-.058 0-.12 0-.178-.004-1.194-.075-2.31-.546-3.145-.946a18.142 18.142 0 0 1-6.029-4.724c-1.392-1.677-2.326-3.231-2.942-4.896-.372-.996-.512-1.765-.45-2.496.037-.434.202-.794.512-1.1l1.405-1.404c.165-.153.33-.236.484-.236.19 0 .35.124.458.227l.017.017c.235.223.467.455.735.731.067.066.133.133.199.203.066.066.132.132.198.202L6.694 5.17c.356.356.356.633 0 .988-.041.041-.078.083-.12.12-.078.078-.153.157-.231.231l-.004.004c-.368.376-.682.69-1.03 1l-.003.005-.037.037c-.414.425-.343.851-.252 1.136l.012.037.004.013c.298.719.72 1.405 1.364 2.227l.012.016c1.157 1.422 2.368 2.525 3.71 3.377.179.111.356.202.53.289.144.07.28.14.388.206l.017.009c.004 0 .004.004.008.004.012.008.029.016.041.025.17.082.33.124.5.124.285 0 .546-.116.773-.348l1.413-1.413c.116-.116.29-.248.48-.248.198 0 .363.149.442.236l2.293 2.293c.33.327.351.612.062.942z" fill-rule="nonzero"/><path d="M10.752 5.066a5.032 5.032 0 0 1 2.74 1.422 5.059 5.059 0 0 1 1.421 2.74.763.763 0 0 0 .864.627l.016-.004a.766.766 0 0 0 .628-.884 6.582 6.582 0 0 0-1.847-3.562 6.582 6.582 0 0 0-3.562-1.847.76.76 0 0 0-.88.624.76.76 0 0 0 .62.884z"/><path d="M19.967 8.81a10.679 10.679 0 0 0-3.004-5.793A10.707 10.707 0 0 0 11.169.012a.762.762 0 1 0-.252 1.505c1.88.318 3.6 1.21 4.967 2.574a9.153 9.153 0 0 1 2.575 4.967.763.763 0 0 0 .863.628h.017a.74.74 0 0 0 .496-.306.764.764 0 0 0 .132-.57z"/></g></svg>