<svg width="54" height="70" viewBox="0 0 54 70" xmlns="http://www.w3.org/2000/svg"><title>person</title><g fill="#00C4FC"><path d="M38.25 18.065c0-6.226-5.047-11.29-11.25-11.29s-11.25 5.064-11.25 11.29c0 6.225 5.047 11.29 11.25 11.29s11.25-5.065 11.25-11.29zm-20.25 0c0-4.98 4.038-9.033 9-9.033s9 4.052 9 9.033c0 4.98-4.038 9.032-9 9.032s-9-4.052-9-9.032z"/><path d="M47.239 39.824l-9.955-1.427-5.784-.966V33.44l2.971-1.49 1.28 1.283a1.12 1.12 0 0 0 1.591 0l4.772-4.79a1.13 1.13 0 0 0 0-1.597l-1.279-1.284 1.485-2.981h1.555c.622 0 1.125-.506 1.125-1.13v-6.774c0-.623-.503-1.129-1.125-1.129H42.32l-1.485-2.981 1.28-1.284a1.13 1.13 0 0 0 0-1.597l-4.773-4.79a1.12 1.12 0 0 0-1.59 0l-1.28 1.284L31.5 2.69V1.128C31.5.506 30.997 0 30.375 0h-6.75C23.003 0 22.5.506 22.5 1.129v1.56l-2.971 1.49-1.28-1.283a1.12 1.12 0 0 0-1.591 0l-4.772 4.79a1.13 1.13 0 0 0 0 1.597l1.279 1.284-1.485 2.981h-1.555c-.622 0-1.125.506-1.125 1.13v6.774c0 .623.503 1.129 1.125 1.129h1.555l1.485 2.981-1.28 1.284a1.13 1.13 0 0 0 0 1.597l4.773 4.79a1.12 1.12 0 0 0 1.59 0l1.28-1.284 2.972 1.49v3.991l-5.785.968-9.955 1.427C2.907 40.38 0 43.742 0 47.65v21.22C0 69.495.503 70 1.125 70h51.75c.622 0 1.125-.505 1.125-1.129V47.65c0-3.908-2.907-7.271-6.761-7.826zM30.995 54.958l-.58-8.162 2.09 2.099-1.51 6.063zm-1.764 6.91L27 66.347l-2.23-4.477.887-12.475a3.333 3.333 0 0 0 2.686 0l.888 12.475zm-7.736-12.973l2.092-2.099-.58 8.162-1.512-6.063zm3.255-12.766h4.5v1.79L27 40.179l-2.25-2.258V36.13zm1.125 8.37L27 43.372l1.125 1.129v1.79c0 .624-.504 1.13-1.125 1.13a1.127 1.127 0 0 1-1.125-1.13V44.5zm7.435 2.01l-4.72-4.735 2.17-2.178 4.832.809-2.282 6.104zm-13.5-16.943a1.12 1.12 0 0 0-1.298.212l-1.058 1.062-3.181-3.195 1.056-1.06c.343-.344.428-.869.212-1.304l-2.16-4.333a1.125 1.125 0 0 0-1.006-.625H11.25v-4.517h1.125c.426 0 .816-.241 1.007-.624l2.159-4.333c.216-.435.131-.96-.212-1.303l-1.056-1.061 3.181-3.194 1.058 1.06c.344.345.867.43 1.298.213l4.318-2.166a1.13 1.13 0 0 0 .622-1.01v-1.13h4.5v1.13c0 .427.24.818.622 1.01l4.318 2.166c.432.216.955.132 1.298-.212l1.058-1.061 3.181 3.194-1.056 1.061a1.131 1.131 0 0 0-.212 1.303l2.16 4.333c.19.383.58.624 1.006.624h1.125v4.517h-1.125c-.426 0-.816.241-1.007.624L38.46 25.28c-.216.435-.131.96.212 1.303l1.056 1.061-3.181 3.194-1.058-1.06a1.127 1.127 0 0 0-1.298-.213l-4.318 2.166a1.13 1.13 0 0 0-.622 1.01v1.13h-4.5v-1.13c0-.427-.24-.818-.622-1.01l-4.318-2.165zm3.43 10.03l2.17 2.178-4.72 4.735-2.28-6.104 4.83-.809zM2.25 47.65c0-2.791 2.077-5.195 4.83-5.589l9.06-1.298 3.037 8.13 3.357 13.478.005-.001c.02.08.043.16.08.233l2.56 5.139H11.25V50.806H9v16.936H2.25V47.65zm49.5 20.092h-7.875V50.806h-2.25v16.936H28.82l2.56-5.14a1.07 1.07 0 0 0 .08-.233l.005.001 3.357-13.478 3.038-8.13 9.06 1.298c2.752.395 4.829 2.799 4.829 5.589v20.093h.001z"/></g></svg>