<svg width="70" height="70" viewBox="0 0 70 70" xmlns="http://www.w3.org/2000/svg"><title>business</title><g fill="#00C4FC" fill-rule="evenodd"><path d="M6.774 58.71H4.516v6.774h11.29v-2.258H6.774zm11.291 4.516h2.258v2.258h-2.258zm49.677-35c0 8.86-4.45 17.021-11.902 21.832l1.224 1.898c8.1-5.23 12.936-14.1 12.936-23.73h-2.258zm-16.23 24.081l.847 2.093c.798-.323 1.59-.686 2.353-1.08l-1.037-2.007a26.58 26.58 0 0 1-2.163.994zm-4.326 1.322l.467 2.21c.79-.168 1.58-.372 2.354-.608l-.66-2.16c-.71.217-1.437.404-2.161.558zM15.829 27.143c.437-10.661 7.222-19.85 17.289-23.407l-.752-2.13c-10.941 3.868-18.32 13.855-18.794 25.48l-.024 2.258 2.258.023.023-2.224zM37.444 2.617L37.072.39c-.785.132-1.576.299-2.353.499l.562 2.186a26.236 26.236 0 0 1 2.163-.458zm4.33-.359V0c-.781 0-1.573.033-2.35.096l.185 2.25a26.639 26.639 0 0 1 2.165-.088z"/><path d="M65.484 28.226c0-13.074-10.637-23.71-23.71-23.71s-23.71 10.636-23.71 23.71c0 1.915.236 3.806.686 5.645h-1.815a5.652 5.652 0 0 0-5.645 5.645v1.13H3.387A3.391 3.391 0 0 0 0 44.031v22.58A3.391 3.391 0 0 0 3.387 70h36.13a3.391 3.391 0 0 0 3.386-3.387V51.878c12.547-.595 22.58-10.96 22.58-23.652zM47.55 48.865a8.955 8.955 0 0 1-.13-1.446c0-4.98 4.051-9.032 9.032-9.032 1.283 0 2.547.286 3.716.819-2.788 4.654-7.28 8.163-12.618 9.659zm15.676-20.64c0 1.156-.118 2.281-.295 3.388H42.903a1.13 1.13 0 0 1 0-2.258h13.549a3.391 3.391 0 0 0 3.387-3.387 3.391 3.391 0 0 0-3.387-3.387h-9.033a1.13 1.13 0 0 1 0-2.258h2.258a3.391 3.391 0 0 0 3.388-3.388 3.391 3.391 0 0 0-3.388-3.387h-5.645a1.13 1.13 0 0 1 0-2.258h10.86c5.06 3.928 8.334 10.05 8.334 16.936zm-40.337-10.16h13.24a1.13 1.13 0 0 1 0 2.258h-4.516a3.391 3.391 0 0 0-3.387 3.387 3.391 3.391 0 0 0 3.387 3.387h2.258a1.13 1.13 0 0 1 0 2.258H20.365c-.02-.376-.042-.751-.042-1.13 0-3.674.931-7.134 2.566-10.16zm-2.297 13.548h13.279a3.391 3.391 0 0 0 3.387-3.387 3.391 3.391 0 0 0-3.387-3.387h-2.258a1.13 1.13 0 0 1 0-2.258h4.516a3.391 3.391 0 0 0 3.387-3.387 3.391 3.391 0 0 0-3.387-3.388H24.316c3.893-5.456 10.26-9.032 17.458-9.032 3.422 0 6.65.827 9.522 2.258h-7.264a3.391 3.391 0 0 0-3.387 3.387 3.391 3.391 0 0 0 3.387 3.387h5.645a1.13 1.13 0 0 1 0 2.259H47.42a3.391 3.391 0 0 0-3.387 3.387 3.391 3.391 0 0 0 3.387 3.387h9.033a1.13 1.13 0 0 1 0 2.258h-13.55a3.391 3.391 0 0 0-3.387 3.387 3.391 3.391 0 0 0 3.387 3.387h19.544a21.162 21.162 0 0 1-1.223 3.345 11.216 11.216 0 0 0-4.772-1.087c-6.226 0-11.29 5.065-11.29 11.29 0 .644.076 1.29.19 1.936a21.57 21.57 0 0 1-2.449.266v-5.589a3.391 3.391 0 0 0-3.387-3.387h-7.903v-1.129a5.652 5.652 0 0 0-5.645-5.645h-4.879a21.637 21.637 0 0 1-.497-2.258zm-7.044 7.903a3.391 3.391 0 0 1 3.387-3.387h9.033a3.391 3.391 0 0 1 3.387 3.387v1.13H13.548v-1.13zm-11.29 4.516a1.13 1.13 0 0 1 1.13-1.129h36.128a1.13 1.13 0 0 1 1.13 1.13v2.257A5.652 5.652 0 0 1 35 51.935h-7.903a2.26 2.26 0 0 0-2.258-2.258h-6.774a2.26 2.26 0 0 0-2.259 2.258H7.903a5.652 5.652 0 0 1-5.645-5.645v-2.258zm22.582 12.42h-6.775v-4.517h6.774v4.517zm14.676 11.29H3.387a1.13 1.13 0 0 1-1.129-1.13V51.81a7.873 7.873 0 0 0 5.645 2.384h7.903v2.258a2.26 2.26 0 0 0 2.259 2.258h6.774a2.26 2.26 0 0 0 2.258-2.258v-2.258H35c2.21 0 4.209-.915 5.645-2.384v14.803a1.13 1.13 0 0 1-1.129 1.129z" fill-rule="nonzero"/></g></svg>