<svg width="20" height="18" viewBox="0 0 20 18" xmlns="http://www.w3.org/2000/svg"><title>Path</title><path d="M9.055.407a.738.738 0 0 1 1.32 0l2.37 4.756a.737.737 0 0 0 .555.4l5.298.762c.278.04.508.233.595.497a.725.725 0 0 1-.187.748l-3.833 3.702a.726.726 0 0 0-.213.646l.905 5.229a.728.728 0 0 1-.293.714.745.745 0 0 1-.776.056l-4.74-2.47a.742.742 0 0 0-.685 0l-4.739 2.47a.744.744 0 0 1-.776-.056.727.727 0 0 1-.293-.714l.905-5.229a.725.725 0 0 0-.212-.646L.422 7.57a.725.725 0 0 1-.186-.748.735.735 0 0 1 .595-.497l5.299-.763a.736.736 0 0 0 .554-.399L9.054.407z" fill="#cecece" fill-rule="evenodd"/></svg>