<svg width="70" height="70" viewBox="0 0 70 70" xmlns="http://www.w3.org/2000/svg"><title>multimedia</title><g fill="#00C4FC" fill-rule="evenodd"><path d="M66.5 14H53.667V1.167C53.667.522 53.144 0 52.5 0h-35c-.644 0-1.167.522-1.167 1.167V14H3.5A3.51 3.51 0 0 0 0 17.5v37.333a3.51 3.51 0 0 0 3.5 3.5h23.123L25.842 63H24.5a1.183 1.183 0 0 0-.933.467l-3.5 4.666A1.167 1.167 0 0 0 21 70h28a1.167 1.167 0 0 0 .933-1.867l-3.5-4.666A1.183 1.183 0 0 0 45.5 63h-1.342l-.781-4.667H66.5a3.51 3.51 0 0 0 3.5-3.5V17.5a3.51 3.51 0 0 0-3.5-3.5zM18.667 2.333h32.666v23.334H18.667V2.333zm26.25 63l1.75 2.334H23.333l1.75-2.334h19.834zM28.21 63l.782-4.667h12.016L41.79 63H28.21zm39.457-8.167c0 .645-.523 1.167-1.167 1.167h-63a1.167 1.167 0 0 1-1.167-1.167v-3.5h65.334v3.5zm0-5.833H2.333V17.5c0-.644.523-1.167 1.167-1.167h12.833v10.5c0 .645.523 1.167 1.167 1.167h35c.644 0 1.167-.522 1.167-1.167v-10.5H66.5c.644 0 1.167.523 1.167 1.167V49z" fill-rule="nonzero"/><path d="M64.167 30.333h-14c-.645 0-1.167.523-1.167 1.167v1.167h-9.333V31.5c0-.644-.523-1.167-1.167-1.167h-7c-.644 0-1.167.523-1.167 1.167v1.167H21V31.5c0-.644-.522-1.167-1.167-1.167h-14c-.644 0-1.166.523-1.166 1.167v4.667c0 .644.522 1.166 1.166 1.166h14c.645 0 1.167-.522 1.167-1.166V35h9.333v1.167c0 .644.523 1.166 1.167 1.166h2.333v2.334H31.5c-.644 0-1.167.522-1.167 1.166V45.5c0 .644.523 1.167 1.167 1.167h7c.644 0 1.167-.523 1.167-1.167v-4.667c0-.644-.523-1.166-1.167-1.166h-2.333v-2.334H38.5c.644 0 1.167-.522 1.167-1.166V35H49v1.167c0 .644.522 1.166 1.167 1.166h14c.644 0 1.166-.522 1.166-1.166V31.5c0-.644-.522-1.167-1.166-1.167zM18.667 35H7v-2.333h11.667V35zm18.666 7v2.333h-4.666V42h4.666zm0-7h-4.666v-2.333h4.666V35zM63 35H51.333v-2.333H63V35z" fill-rule="nonzero"/><path d="M28.342 6.175l-7 7a1.167 1.167 0 0 0 0 1.65l7 7 1.65-1.65L23.816 14l6.175-6.175-1.65-1.65zm13.316 0l-1.65 1.65L46.184 14l-6.175 6.175 1.65 1.65 7-7a1.167 1.167 0 0 0 0-1.65l-7-7zM30.39 24.13l7.007-21 2.212.738-7.007 20.999z"/></g></svg>