<?xml version="1.0" encoding="UTF-8"?>
<svg width="338px" height="951px" viewBox="0 0 338 951" version="1.1" xmlns="http://www.w3.org/2000/svg" xmlns:xlink="http://www.w3.org/1999/xlink">
    <!-- Generator: Sketch 50.2 (55047) - http://www.bohemiancoding.com/sketch -->
    <title>Shape</title>
    <desc>Created with Sketch.</desc>
    <defs></defs>
    <g id="Page-1" stroke="none" stroke-width="1" fill="none" fill-rule="evenodd" opacity="0.0492745536">
        <g id="chastniki_se" transform="translate(-1582.000000, -153.000000)" fill="#FDEC06" fill-rule="nonzero">
            <path d="M2441.88701,984.497175 C2344.71186,1080.54237 2224.93785,1128 2084.82486,1128 C1943.58192,1128 1824.93785,1080.54237 1727.76271,984.497175 C1630.58757,888.451977 1582,769.80791 1582,627.435028 C1582,483.932203 1630.58757,365.288136 1728.89266,270.372881 C1826.0678,175.457627 1945.84181,128 2085.9548,128 C2226.0678,128 2344.71186,175.457627 2443.01695,270.372881 C2540.19209,365.288136 2589.9096,485.062147 2589.9096,627.435028 C2587.64972,769.80791 2539.06215,888.451977 2441.88701,984.497175 Z M2362.79096,344.949153 C2285.9548,268.112994 2193.29944,228.564972 2084.82486,228.564972 C1975.22034,228.564972 1882.56497,266.983051 1806.85876,344.949153 C1730.0226,421.785311 1692.73446,516.700565 1692.73446,627.435028 C1692.73446,738.169492 1731.15254,833.084746 1806.85876,909.920904 C1883.69492,986.757062 1976.35028,1026.30508 2084.82486,1026.30508 C2194.42938,1026.30508 2287.08475,987.887006 2362.79096,909.920904 C2439.62712,833.084746 2476.91525,738.169492 2476.91525,627.435028 C2476.91525,516.700565 2438.49718,421.785311 2362.79096,344.949153 Z" id="Shape"></path>
        </g>
    </g>
</svg>