<?xml version="1.0" encoding="UTF-8"?>
<svg width="332px" height="255px" viewBox="0 0 332 255" version="1.1" xmlns="http://www.w3.org/2000/svg" xmlns:xlink="http://www.w3.org/1999/xlink">
    <!-- Generator: Sketch 50.2 (55047) - http://www.bohemiancoding.com/sketch -->
    <title>partners</title>
    <desc>Created with Sketch.</desc>
    <defs></defs>
    <g id="Page-1" stroke="none" stroke-width="1" fill="none" fill-rule="evenodd">
        <g id="Glavnaya" transform="translate(-796.000000, -357.000000)" fill-rule="nonzero">
            <g id="partners" transform="translate(796.000000, 357.000000)">
                <path d="M39.9622642,140.849057 L0.301886792,101.188679 L98.490566,3 L138.150943,42.6603774 L39.9622642,140.849057 Z M10.9811321,101.188679 L39.9622642,130.169811 L127.509434,42.6226415 L98.5283019,13.6415094 L10.9811321,101.188679 Z" id="Shape" fill="#FFFFFF"></path>
                <rect id="Rectangle-path" fill="#FFFFFF" transform="translate(147.169670, 67.717179) rotate(-45.000000) translate(-147.169670, -67.717179) " x="143.396121" y="42.0004447" width="7.54709743" height="51.433469"></rect>
                <rect id="Rectangle-path" fill="#FFFFFF" transform="translate(67.436119, 151.970142) rotate(-45.000000) translate(-67.436119, -151.970142) " x="63.6625702" y="123.045891" width="7.54709743" height="57.8485018"></rect>
                <path d="M87.5849057,192.132075 C80.8301887,185.377358 80.8301887,174.358491 87.5849057,167.566038 L103.09434,152.056604 C109.849057,145.301887 120.867925,145.301887 127.660377,152.056604 C134.415094,158.811321 134.415094,169.830189 127.660377,176.622642 L112.150943,192.132075 C105.358491,198.924528 94.3396226,198.924528 87.5849057,192.132075 Z M122.301887,157.415094 C118.490566,153.603774 112.264151,153.603774 108.415094,157.415094 L92.9056604,172.924528 C89.0943396,176.735849 89.0943396,182.962264 92.9056604,186.811321 C96.7169811,190.622642 102.943396,190.622642 106.792453,186.811321 L122.301887,171.301887 C126.113208,167.490566 126.113208,161.264151 122.301887,157.415094 Z" id="Shape" fill="#FFFFFF"></path>
                <path d="M106.792453,211.377358 C100.037736,204.622642 100.037736,193.603774 106.792453,186.811321 L122.301887,171.301887 C129.056604,164.54717 140.075472,164.54717 146.867925,171.301887 C153.622642,178.056604 153.622642,189.075472 146.867925,195.867925 L131.358491,211.377358 C124.566038,218.132075 113.584906,218.132075 106.792453,211.377358 Z M141.509434,176.660377 C137.698113,172.849057 131.471698,172.849057 127.622642,176.660377 L112.113208,192.169811 C108.301887,195.981132 108.301887,202.207547 112.113208,206.056604 C115.924528,209.867925 122.150943,209.867925 126,206.056604 L141.509434,190.54717 C145.320755,186.698113 145.320755,180.471698 141.509434,176.660377 Z" id="Shape" fill="#FFFFFF"></path>
                <path d="M126.037736,230.584906 C119.283019,223.830189 119.283019,212.811321 126.037736,206.018868 L141.54717,190.509434 C148.301887,183.754717 159.320755,183.754717 166.113208,190.509434 C172.867925,197.264151 172.867925,208.283019 166.113208,215.075472 L150.603774,230.584906 C143.811321,237.377358 132.792453,237.377358 126.037736,230.584906 Z M160.754717,195.867925 C156.943396,192.056604 150.716981,192.056604 146.867925,195.867925 L131.358491,211.377358 C127.54717,215.188679 127.54717,221.415094 131.358491,225.264151 C135.169811,229.075472 141.396226,229.075472 145.245283,225.264151 L160.754717,209.754717 C164.566038,205.943396 164.566038,199.716981 160.754717,195.867925 Z" id="Shape" fill="#FFFFFF"></path>
                <path d="M145.245283,249.830189 C138.490566,243.075472 138.490566,232.056604 145.245283,225.264151 L160.754717,209.754717 C167.509434,203 178.528302,203 185.320755,209.754717 C192.075472,216.509434 192.075472,227.528302 185.320755,234.320755 L169.811321,249.830189 C163.018868,256.584906 152,256.584906 145.245283,249.830189 Z M179.962264,215.113208 C176.150943,211.301887 169.924528,211.301887 166.075472,215.113208 L150.566038,230.622642 C146.754717,234.433962 146.754717,240.660377 150.566038,244.509434 C154.377358,248.320755 160.603774,248.320755 164.45283,244.509434 L179.962264,229 C183.773585,225.150943 183.773585,218.924528 179.962264,215.113208 Z" id="Shape" fill="#FFFFFF"></path>
                <path d="M291.849057,142.735849 L189.433962,40.3207547 L229.09434,0.660377358 L331.509434,103.075472 L291.849057,142.735849 Z M200.113208,40.3207547 L291.849057,132.056604 L320.830189,103.075472 L229.09434,11.3396226 L200.113208,40.3207547 Z" id="Shape" fill="#FFFFFF"></path>
                <rect id="Rectangle-path" fill="#FFFFFF" transform="translate(264.804843, 149.364032) rotate(-45.000000) translate(-264.804843, -149.364032) " x="239.352257" y="145.590483" width="50.9051722" height="7.54709743"></rect>
                <path d="M247.358491,162.584906 L184.037736,99.2641509 L152.528302,130.773585 C148.716981,134.584906 142.490566,134.584906 138.641509,130.773585 C134.792453,126.962264 134.830189,120.735849 138.641509,116.886792 L205.018868,50.509434 L199.698113,45.1886792 L133.320755,111.566038 C126.566038,118.320755 126.566038,129.339623 133.320755,136.132075 C140.075472,142.886792 151.09434,142.886792 157.886792,136.132075 L184.037736,109.981132 L242,167.943396 C245.811321,171.754717 245.811321,177.981132 242,181.830189 C238.188679,185.641509 231.962264,185.641509 228.113208,181.830189 L180,133.679245 L174.679245,139 L222.792453,187.113208 C229.54717,193.867925 240.566038,193.867925 247.358491,187.113208 C254.113208,180.358491 254.113208,169.339623 247.358491,162.584906 Z" id="Shape" fill="#FFFFFF"></path>
                <path d="M228.113208,181.830189 L180,133.679245 L174.679245,139 L222.792453,187.113208 C226.603774,190.924528 226.603774,197.150943 222.792453,201 C218.981132,204.811321 212.754717,204.811321 208.90566,201 L160.792453,152.886792 L155.471698,158.207547 L203.584906,206.320755 C210.339623,213.075472 221.358491,213.075472 228.150943,206.320755 C234.90566,199.603774 234.90566,188.584906 228.113208,181.830189 Z" id="Shape" fill="#FFFFFF"></path>
                <path d="M208.90566,201.037736 L160.792453,152.924528 L155.471698,158.245283 L203.584906,206.358491 C207.396226,210.169811 207.396226,216.396226 203.584906,220.245283 C199.962264,223.867925 194.188679,224.056604 190.339623,220.811321 C190.528302,223.528302 190.075472,226.320755 188.981132,228.849057 C195.471698,232.018868 203.54717,230.924528 208.90566,225.566038 C215.660377,218.811321 215.660377,207.792453 208.90566,201.037736 Z" id="Shape" fill="#FFFFFF"></path>
                <path d="M52.5941704,110.694915 C49.7017937,113.576271 46.1367713,115 41.9663677,115 C37.7623318,115 34.2309417,113.576271 31.338565,110.694915 C28.4461883,107.813559 27,104.254237 27,99.9830508 C27,95.6779661 28.4461883,92.1186441 31.3721973,89.2711864 C34.264574,86.4237288 37.8295964,85 42,85 C46.1704036,85 49.7017937,86.4237288 52.6278027,89.2711864 C55.5201794,92.1186441 57,95.7118644 57,99.9830508 C56.9327354,104.254237 55.4865471,107.813559 52.5941704,110.694915 Z M50.2399103,91.5084746 C47.9529148,89.2033898 45.1950673,88.0169492 41.9663677,88.0169492 C38.7040359,88.0169492 35.9461883,89.1694915 33.6928251,91.5084746 C31.4058296,93.8135593 30.2959641,96.6610169 30.2959641,99.9830508 C30.2959641,103.305085 31.4394619,106.152542 33.6928251,108.457627 C35.9798206,110.762712 38.7376682,111.949153 41.9663677,111.949153 C45.2286996,111.949153 47.9865471,110.79661 50.2399103,108.457627 C52.5269058,106.152542 53.6367713,103.305085 53.6367713,99.9830508 C53.6367713,96.6610169 52.4932735,93.8135593 50.2399103,91.5084746 Z" id="Shape" stroke="#FDEC06" fill="#FBEA04"></path>
                <path d="M299.59417,110.694915 C296.701794,113.576271 293.136771,115 288.966368,115 C284.762332,115 281.230942,113.576271 278.338565,110.694915 C275.446188,107.813559 274,104.254237 274,99.9830508 C274,95.6779661 275.446188,92.1186441 278.372197,89.2711864 C281.264574,86.4237288 284.829596,85 289,85 C293.170404,85 296.701794,86.4237288 299.627803,89.2711864 C302.520179,92.1186441 304,95.7118644 304,99.9830508 C303.932735,104.254237 302.486547,107.813559 299.59417,110.694915 Z M297.23991,91.5084746 C294.952915,89.2033898 292.195067,88.0169492 288.966368,88.0169492 C285.704036,88.0169492 282.946188,89.1694915 280.692825,91.5084746 C278.40583,93.8135593 277.295964,96.6610169 277.295964,99.9830508 C277.295964,103.305085 278.439462,106.152542 280.692825,108.457627 C282.979821,110.762712 285.737668,111.949153 288.966368,111.949153 C292.2287,111.949153 294.986547,110.79661 297.23991,108.457627 C299.526906,106.152542 300.636771,103.305085 300.636771,99.9830508 C300.636771,96.6610169 299.493274,93.8135593 297.23991,91.5084746 Z" id="Shape" stroke="#FDEC06" fill="#FBEA04"></path>
            </g>
        </g>
    </g>
</svg>