<?xml version="1.0" encoding="UTF-8"?>
<svg width="380px" height="250px" viewBox="0 0 380 250" version="1.1" xmlns="http://www.w3.org/2000/svg" xmlns:xlink="http://www.w3.org/1999/xlink">
    <!-- Generator: Sketch 50.2 (55047) - http://www.bohemiancoding.com/sketch -->
    <title>Group 4</title>
    <desc>Created with Sketch.</desc>
    <defs></defs>
    <g id="Page-1" stroke="none" stroke-width="1" fill="none" fill-rule="evenodd">
        <g id="Glavnaya" transform="translate(-161.000000, -333.000000)" fill-rule="nonzero">
            <g id="Group-4" transform="translate(161.000000, 333.000000)">
                <path d="M367.79096,68.519774 C360.016949,76.2033898 350.435028,80 339.225989,80 C327.926554,80 318.435028,76.2033898 310.661017,68.519774 C302.887006,60.8361582 299,51.3446328 299,39.9548023 C299,28.4745763 302.887006,18.9830508 310.751412,11.3898305 C318.525424,3.79661017 328.107345,0 339.316384,0 C350.525424,0 360.016949,3.79661017 367.881356,11.3898305 C375.655367,18.9830508 379.632768,28.5649718 379.632768,39.9548023 C379.451977,51.3446328 375.564972,60.8361582 367.79096,68.519774 Z M361.463277,17.3559322 C355.316384,11.2090395 347.903955,8.04519774 339.225989,8.04519774 C330.457627,8.04519774 323.045198,11.1186441 316.988701,17.3559322 C310.841808,23.5028249 307.858757,31.0960452 307.858757,39.9548023 C307.858757,48.8135593 310.932203,56.4067797 316.988701,62.5536723 C323.135593,68.700565 330.548023,71.8644068 339.225989,71.8644068 C347.99435,71.8644068 355.40678,68.7909605 361.463277,62.5536723 C367.610169,56.4067797 370.59322,48.8135593 370.59322,39.9548023 C370.59322,31.0960452 367.519774,23.5028249 361.463277,17.3559322 Z" id="Shape" fill="#FCEB06"></path>
                <g id="home_icon" transform="translate(0.000000, 40.000000)" fill="#FFFFFF">
                    <path d="M267.481212,209.37697 L52.5963636,209.37697 L52.5963636,100.848485 L267.481212,100.848485 L267.481212,209.37697 Z M60.3539394,201.619394 L259.723636,201.619394 L259.723636,108.606061 L60.3539394,108.606061 L60.3539394,201.619394 Z" id="Shape"></path>
                    <path d="M294.94303,108.606061 L25.2121212,108.606061 L64,8.02909091 C65.7842424,3.37454545 70.3612121,0.232727273 75.3260606,0.232727273 L248.164848,0.232727273 C253.323636,0.232727273 257.900606,3.49090909 259.607273,8.33939394 L294.94303,108.606061 Z M36.5381818,100.848485 L284.004848,100.848485 L252.353939,10.9381818 C251.733333,9.19272727 250.065455,7.99030303 248.203636,7.99030303 L75.3260606,7.99030303 C73.5418182,7.99030303 71.8739394,9.11515152 71.2145455,10.7830303 L36.5381818,100.848485 Z" id="Shape"></path>
                    <path d="M274.113939,108.606061 L46.3515152,108.606061 L79.1660606,23.4666667 C80.7563636,19.3163636 84.8290909,16.5624242 89.2509091,16.5624242 L234.084848,16.5624242 C238.661818,16.5624242 242.773333,19.4715152 244.286061,23.7769697 L274.113939,108.606061 Z M57.6387879,100.848485 L263.175758,100.848485 L236.955152,26.3757576 C236.528485,25.1733333 235.364848,24.32 234.084848,24.32 L89.2509091,24.32 C88.009697,24.32 86.8460606,25.0957576 86.4193939,26.2593939 L57.6387879,100.848485 Z" id="Shape"></path>
                    <rect id="Rectangle-path" x="73.7745455" y="45.4593939" width="175.941818" height="7.75757576"></rect>
                    <rect id="Rectangle-path" x="62.1381818" y="71.4860606" width="196.150303" height="7.75757576"></rect>
                    <path d="M186.957576,209.37697 L133.430303,209.37697 L133.430303,125.168485 L186.957576,125.168485 L186.957576,209.37697 Z M141.187879,201.619394 L179.2,201.619394 L179.2,132.926061 L141.187879,132.926061 L141.187879,201.619394 Z" id="Shape"></path>
                    <path d="M249.832727,168.727273 L196.305455,168.727273 L196.305455,125.168485 L249.832727,125.168485 L249.832727,168.727273 Z M204.06303,160.969697 L242.075152,160.969697 L242.075152,132.926061 L204.06303,132.926061 L204.06303,160.969697 Z" id="Shape"></path>
                    <path d="M123.694545,168.727273 L70.1672727,168.727273 L70.1672727,125.168485 L123.694545,125.168485 L123.694545,168.727273 Z M77.9248485,160.969697 L115.93697,160.969697 L115.93697,132.926061 L77.9248485,132.926061 L77.9248485,160.969697 Z" id="Shape"></path>
                    <rect id="Rectangle-path" transform="translate(127.713981, 62.569854) rotate(-86.837159) translate(-127.713981, -62.569854) " x="85.511786" y="58.690976" width="84.404389" height="7.75775634"></rect>
                    <rect id="Rectangle-path" transform="translate(191.769721, 62.567288) rotate(-3.160922) translate(-191.769721, -62.567288) " x="187.89085" y="20.3651714" width="7.75774199" height="84.4042328"></rect>
                    <rect id="Rectangle-path" x="0.232727273" y="201.619394" width="319.612121" height="7.75757576"></rect>
                </g>
            </g>
        </g>
    </g>
</svg>