<?xml version="1.0" encoding="UTF-8"?>
<svg width="56px" height="78px" viewBox="0 0 56 78" version="1.1" xmlns="http://www.w3.org/2000/svg" xmlns:xlink="http://www.w3.org/1999/xlink">
    <!-- Generator: Sketch 50.2 (55047) - http://www.bohemiancoding.com/sketch -->
    <title>location-pin (4)</title>
    <desc>Created with Sketch.</desc>
    <defs></defs>
    <g id="Page-1" stroke="none" stroke-width="1" fill="none" fill-rule="evenodd">
        <g id="Contacts_se_new" transform="translate(-1375.000000, -380.000000)" fill-rule="nonzero">
            <g id="location-pin-(4)" transform="translate(1375.000000, 380.000000)">
                <path d="M28,0 C12.7,0 0.1,12.4 0.1,27.7 C0.1,33.8 3.3,42.1 10.4,54.8 C15,63.1 19.7,70 19.9,70.3 L23.2,75.2 C24.3,76.8 26.1,77.8 28,77.8 C29.9,77.8 31.7,76.8 32.8,75.2 L36.1,70.3 C36.3,70 40.9,63.1 45.6,54.8 C52.7,42.1 55.9,33.7 55.9,27.7 C55.9,12.4 43.4,0 28,0 Z" id="Shape" fill="#FDEC06"></path>
                <g id="Page-1" transform="translate(4.000000, 4.000000)" fill="#0C0B06">
                    <g id="Contacts_se_new">
                        <g id="location-pin-_x28_4_x29_">
                            <path d="M24,0 C10.9,0 0.1,10.6 0.1,23.7 C0.1,29 3.3,37 10,48.9 C14.6,57 19.1,63.9 19.3,64.2 L22.6,69.1 C22.9,69.6 23.5,69.9 24.1,69.9 C24.7,69.9 25.3,69.6 25.6,69.1 L28.9,64.2 C29.1,63.9 33.6,57.1 38.2,48.9 C44.8,37 47.9,29 47.9,23.7 C47.9,10.6 37.2,0 24,0 Z M35,47.2 C30.5,55.3 26,62 25.8,62.3 L24,64.9 L22.2,62.2 C22,61.9 17.5,55.2 13,47.1 C6.9,36.1 3.7,28.2 3.7,23.7 C3.7,12.6 12.8,3.6 24,3.6 C35.2,3.6 44.3,12.7 44.3,23.8 C44.4,28.2 41.2,36.1 35,47.2 Z" id="Shape"></path>
                            <path d="M24,10.4 C16.7,10.4 10.7,16.3 10.7,23.6 C10.7,30.9 16.7,36.7 24,36.7 C31.3,36.7 37.3,30.8 37.3,23.5 C37.3,16.2 31.3,10.4 24,10.4 Z M24,33.2 C18.7,33.2 14.3,28.9 14.3,23.6 C14.3,18.3 18.7,14 24,14 C29.3,14 33.7,18.3 33.7,23.6 C33.7,28.9 29.4,33.2 24,33.2 Z" id="Shape_1_"></path>
                        </g>
                    </g>
                </g>
            </g>
        </g>
    </g>
</svg>