<?xml version="1.0" encoding="UTF-8"?>
<svg width="263px" height="64px" viewBox="0 0 263 64" version="1.1" xmlns="http://www.w3.org/2000/svg" xmlns:xlink="http://www.w3.org/1999/xlink">
    <!-- Generator: Sketch 50.2 (55047) - http://www.bohemiancoding.com/sketch -->
    <title>Group 4</title>
    <desc>Created with Sketch.</desc>
    <defs></defs>
    <g id="Page-1" stroke="none" stroke-width="1" fill="none" fill-rule="evenodd">
        <g id="Glavnaya_hover" transform="translate(-39.000000, -25.000000)">
            <g id="Group-4" transform="translate(39.000000, 25.000000)">
                <path d="M55.0714286,54.2142857 C48.9285714,60.2857143 41.3571429,63.2857143 32.5,63.2857143 C23.5714286,63.2857143 16.0714286,60.2857143 9.92857143,54.2142857 C3.78571429,48.1428571 0.714285714,40.6428571 0.714285714,31.6428571 C0.714285714,22.5714286 3.78571429,15.0714286 10,9.07142857 C16.1428571,3.07142857 23.7142857,0.0714285714 32.5714286,0.0714285714 C41.4285714,0.0714285714 48.9285714,3.07142857 55.1428571,9.07142857 C61.2857143,15.0714286 64.4285714,22.6428571 64.4285714,31.6428571 C64.2857143,40.6428571 61.2142857,48.1428571 55.0714286,54.2142857 Z M50.0714286,13.7857143 C45.2142857,8.92857143 39.3571429,6.42857143 32.5,6.42857143 C25.5714286,6.42857143 19.7142857,8.85714286 14.9285714,13.7857143 C10.0714286,18.6428571 7.71428571,24.6428571 7.71428571,31.6428571 C7.71428571,38.6428571 10.1428571,44.6428571 14.9285714,49.5 C19.7857143,54.3571429 25.6428571,56.8571429 32.5,56.8571429 C39.4285714,56.8571429 45.2857143,54.4285714 50.0714286,49.5 C54.9285714,44.6428571 57.2857143,38.6428571 57.2857143,31.6428571 C57.2857143,24.6428571 54.8571429,18.6428571 50.0714286,13.7857143 Z" id="Shape" fill="#FCEB06" fill-rule="nonzero"></path>
                <path d="M77.6,39.2 C76.2933268,39.2 75.3333364,38.8933364 74.72,38.28 C74.1066636,37.6666636 73.8,36.7066732 73.8,35.4 L73.8,29 C73.8,27.599993 74.1166635,26.5833365 74.75,25.95 C75.3833365,25.3166635 76.399993,25 77.8,25 L85,25 L85,27.8 L78.6,27.8 C77.799996,27.8 77.4,28.199996 77.4,29 L77.4,35.4 C77.4,35.7066682 77.4899991,35.9499991 77.67,36.13 C77.8500009,36.3100009 78.0933318,36.4 78.4,36.4 C78.6533346,36.4 78.946665,36.3966667 79.28,36.39 C79.613335,36.3833333 79.9599982,36.3733334 80.32,36.36 C80.6800018,36.3466666 81.0433315,36.3333334 81.41,36.32 C81.7766685,36.3066666 82.1333316,36.2866668 82.48,36.26 C83.2933374,36.2066664 84.133329,36.1533336 85,36.1 L85,38.8 C84.1066622,38.8800004 83.2200044,38.9466664 82.34,39 C81.5799962,39.0533336 80.7766709,39.0999998 79.93,39.14 C79.0833291,39.1800002 78.3066702,39.2 77.6,39.2 Z M85,25 L89,25 L92.6,32.1 L95.6,25 L99.6,25 L94.5,36 C94.2733322,36.5066692 94.0233347,36.9566647 93.75,37.35 C93.4766653,37.7433353 93.1666684,38.0766653 92.82,38.35 C92.4733316,38.6233347 92.0766689,38.8333326 91.63,38.98 C91.1833311,39.1266674 90.6733362,39.2 90.1,39.2 C89.8199986,39.2 89.5500013,39.1900001 89.29,39.17 C89.0299987,39.1499999 88.7933344,39.1266668 88.58,39.1 C88.3399988,39.0733332 88.1133344,39.0400002 87.9,39 L87.9,36.3 L89.7,36.3 C89.900001,36.3 90.066666,36.2566671 90.2,36.17 C90.333334,36.0833329 90.433333,35.973334 90.5,35.84 C90.566667,35.706666 90.6,35.5633341 90.6,35.41 C90.6,35.2566659 90.566667,35.1200006 90.5,35 L85,25 Z M103.6,30.8 C103.6,31.1066682 103.689999,31.3499991 103.87,31.53 C104.050001,31.7100009 104.293332,31.8 104.6,31.8 C105.000002,31.8 105.426664,31.7900001 105.88,31.77 C106.333336,31.7499999 106.753331,31.7266668 107.14,31.7 C107.593336,31.6733332 108.046664,31.6400002 108.5,31.6 L108.5,25 L112.1,25 L112.1,39 L108.5,39 L108.5,34.4 C108.019998,34.4400002 107.513336,34.4733332 106.98,34.5 C106.526664,34.5266668 106.023336,34.5499999 105.47,34.57 C104.916664,34.5900001 104.360003,34.6 103.8,34.6 C102.493327,34.6 101.533336,34.2933364 100.92,33.68 C100.306664,33.0666636 100,32.1066732 100,30.8 L100,25 L103.6,25 L103.6,30.8 Z M117,39 L113.1,39 L118.4,25 L122.4,25 L127.7,39 L123.8,39 L122.9,36.5 L117.9,36.5 L117,39 Z M118.8,33.9 L122,33.9 L120.4,29.2 L118.8,33.9 Z M132.1,39.2 C130.793327,39.2 129.833336,38.8933364 129.22,38.28 C128.606664,37.6666636 128.3,36.7066732 128.3,35.4 L128.3,29 C128.3,27.599993 128.616664,26.5833365 129.25,25.95 C129.883337,25.3166635 130.899993,25 132.3,25 L139.5,25 L139.5,27.8 L133.1,27.8 C132.299996,27.8 131.9,28.199996 131.9,29 L131.9,35.4 C131.9,35.7066682 131.989999,35.9499991 132.17,36.13 C132.350001,36.3100009 132.593332,36.4 132.9,36.4 C133.153335,36.4 133.446665,36.3966667 133.78,36.39 C134.113335,36.3833333 134.459998,36.3733334 134.82,36.36 C135.180002,36.3466666 135.543332,36.3333334 135.91,36.32 C136.276669,36.3066666 136.633332,36.2866668 136.98,36.26 C137.793337,36.2066664 138.633329,36.1533336 139.5,36.1 L139.5,38.8 C138.606662,38.8800004 137.720004,38.9466664 136.84,39 C136.079996,39.0533336 135.276671,39.0999998 134.43,39.14 C133.583329,39.1800002 132.80667,39.2 132.1,39.2 Z M153.3,39 L149.7,39 L149.7,33.3 L144.7,33.3 L144.7,39 L141.1,39 L141.1,25 L144.7,25 L144.7,30.5 L149.7,30.5 L149.7,25 L153.3,25 L153.3,39 Z M158.2,39 L154.3,39 L159.6,25 L163.6,25 L168.9,39 L165,39 L164.1,36.5 L159.1,36.5 L158.2,39 Z M160,33.9 L163.2,33.9 L161.6,29.2 L160,33.9 Z M187,39 L175.9,39 L175.9,25 L187,25 L187,27.8 L179.5,27.8 L179.5,30.5 L185.4,30.5 L185.4,33.3 L179.5,33.3 L179.5,36.2 L187,36.2 L187,39 Z M200.8,39 L197.2,39 L197.2,33.3 L192.2,33.3 L192.2,39 L188.6,39 L188.6,25 L192.2,25 L192.2,30.5 L197.2,30.5 L197.2,25 L200.8,25 L200.8,39 Z M214.3,39 L203.2,39 L203.2,25 L214.3,25 L214.3,27.8 L206.8,27.8 L206.8,30.5 L212.7,30.5 L212.7,33.3 L206.8,33.3 L206.8,36.2 L214.3,36.2 L214.3,39 Z M215.9,25 L224.3,25 C225.700007,25 226.716663,25.3166635 227.35,25.95 C227.983336,26.5833365 228.3,27.599993 228.3,29 L228.3,31 C228.3,32.400007 227.983336,33.4166635 227.35,34.05 C226.716663,34.6833365 225.700007,35 224.3,35 L219.5,35 L219.5,39 L215.9,39 L215.9,25 Z M224.7,29 C224.7,28.199996 224.300004,27.8 223.5,27.8 L219.5,27.8 L219.5,32.2 L223.5,32.2 C224.300004,32.2 224.7,31.800004 224.7,31 L224.7,29 Z M233.7,39 L230.1,39 L230.1,25 L241,25 L241,27.8 L233.7,27.8 L233.7,39 Z M249,39 L241.8,39 L241.8,36.2 L243.6,36.2 L243.6,27.8 L241.8,27.8 L241.8,25 L249,25 L249,27.8 L247.2,27.8 L247.2,36.2 L249,36.2 L249,39 Z M262.8,39 L259.2,39 L259.2,34.4 L256.5,34.4 L254,39 L250.2,39 L252.8,34.2 C251.946662,33.999999 251.333335,33.5933364 250.96,32.98 C250.586665,32.3666636 250.4,31.5066722 250.4,30.4 L250.4,29 C250.4,27.599993 250.716663,26.5833365 251.35,25.95 C251.983336,25.3166635 252.999993,25 254.4,25 L262.8,25 L262.8,39 Z M254,30.4 C254,31.200004 254.399996,31.6 255.2,31.6 L259.2,31.6 L259.2,27.8 L255.2,27.8 C254.399996,27.8 254,28.199996 254,29 L254,30.4 Z" id="сучасна-енергiя" fill="#FFFFFF"></path>
            </g>
        </g>
    </g>
</svg>