<?xml version="1.0" encoding="UTF-8"?>
<svg width="203px" height="217px" viewBox="0 0 203 217" version="1.1" xmlns="http://www.w3.org/2000/svg" xmlns:xlink="http://www.w3.org/1999/xlink">
    <!-- Generator: Sketch 50.2 (55047) - http://www.bohemiancoding.com/sketch -->
    <title>Group 5</title>
    <desc>Created with Sketch.</desc>
    <defs></defs>
    <g id="Page-1" stroke="none" stroke-width="1" fill="none" fill-rule="evenodd">
        <g id="Glavnaya" transform="translate(-1500.000000, -360.000000)" fill-rule="nonzero">
            <g id="Group-5" transform="translate(1500.000000, 360.000000)">
                <g id="investors_icon" fill="#FFFFFF">
                    <path d="M80.5801012,104.249578 C51.8279933,104.249578 28.455312,80.8768971 28.455312,52.1247892 C28.455312,23.3726813 51.8279933,0 80.5801012,0 C109.332209,0 132.70489,23.3726813 132.70489,52.1247892 C132.70489,80.8768971 109.332209,104.249578 80.5801012,104.249578 Z M80.5801012,7.41989882 C55.9460371,7.41989882 35.8752108,27.4907251 35.8752108,52.1247892 C35.8752108,76.7588533 55.9460371,96.8296796 80.5801012,96.8296796 C105.214165,96.8296796 125.284992,76.7959528 125.284992,52.1247892 C125.284992,27.4536256 105.251265,7.41989882 80.5801012,7.41989882 Z" id="Shape"></path>
                    <path d="M92.6745363,141.052277 L69.5244519,141.052277 L60.6205734,111.48398 L98.2765599,111.48398 L92.6745363,141.052277 Z M75.0522766,133.632378 L86.5531197,133.632378 L89.3355818,118.903879 L70.6003373,118.903879 L75.0522766,133.632378 Z" id="Shape"></path>
                    <path d="M80.2091062,206.347386 L59.3962901,184.013491 L69.2647555,133.632378 L92.7487352,133.632378 L100.984823,184.05059 L80.2091062,206.347386 Z M67.4097808,181.713322 L80.2091062,195.477234 L93.0826307,181.676223 L86.4418212,141.052277 L75.3490725,141.052277 L67.4097808,181.713322 Z" id="Shape"></path>
                    <path d="M125.989882,209.055649 L7.49409781,209.055649 L7.49409781,159.379427 C7.49409781,137.082631 25.6357504,118.903879 47.9696459,118.903879 L112.485666,118.903879 C119.794266,118.903879 126.694772,120.870152 132.630691,124.283305 C134.893761,122.688027 137.231029,121.241147 139.716695,120.016863 C132,114.637437 122.613828,111.521079 112.485666,111.521079 L47.9696459,111.521079 C21.5548061,111.521079 0.0741989882,133.001686 0.0741989882,159.416526 L0.0741989882,216.512648 L135.487352,216.512648 C132.074199,214.360877 128.883642,211.875211 125.989882,209.055649 Z" id="Shape"></path>
                    <path d="M159.615514,189.890388 C153.568297,189.370995 149.116358,187.070826 146,183.88027 L150.451939,177.647555 C152.60371,179.910624 155.682968,181.913997 159.615514,182.618887 L159.615514,173.492411 C153.679595,172.008432 147.224283,169.819562 147.224283,161.954469 C147.224283,156.129848 151.824621,151.158516 159.615514,150.379427 L159.615514,145 L165.106239,145 L165.106239,150.490725 C169.780776,151.010118 173.713322,152.790894 176.79258,155.610455 L172.229342,161.620573 C170.151771,159.728499 167.666105,158.504216 165.06914,157.873524 L165.06914,166.035413 C171.005059,167.519393 177.645868,169.856661 177.645868,177.684654 C177.645868,184.065767 173.490725,189 165.06914,189.853288 L165.06914,195.084317 L159.578415,195.084317 L159.578415,189.890388 L159.615514,189.890388 Z M159.615514,164.588533 L159.615514,157.539629 C157.01855,157.873524 155.571669,159.320405 155.571669,161.286678 C155.571669,162.956155 157.204047,163.883642 159.615514,164.588533 Z M165.106239,174.902192 L165.106239,182.618887 C167.925801,182.025295 169.372681,180.355818 169.372681,178.575042 C169.372681,176.682968 167.591906,175.718381 165.106239,174.902192 Z" id="Shape"></path>
                </g>
                <path d="M190.79096,198.519774 C183.016949,206.20339 173.435028,210 162.225989,210 C150.926554,210 141.435028,206.20339 133.661017,198.519774 C125.887006,190.836158 122,181.344633 122,169.954802 C122,158.474576 125.887006,148.983051 133.751412,141.389831 C141.525424,133.79661 151.107345,130 162.316384,130 C173.525424,130 183.016949,133.79661 190.881356,141.389831 C198.655367,148.983051 202.632768,158.564972 202.632768,169.954802 C202.451977,181.344633 198.564972,190.836158 190.79096,198.519774 Z M184.463277,147.355932 C178.316384,141.20904 170.903955,138.045198 162.225989,138.045198 C153.457627,138.045198 146.045198,141.118644 139.988701,147.355932 C133.841808,153.502825 130.858757,161.096045 130.858757,169.954802 C130.858757,178.813559 133.932203,186.40678 139.988701,192.553672 C146.135593,198.700565 153.548023,201.864407 162.225989,201.864407 C170.99435,201.864407 178.40678,198.79096 184.463277,192.553672 C190.610169,186.40678 193.59322,178.813559 193.59322,169.954802 C193.59322,161.096045 190.519774,153.502825 184.463277,147.355932 Z" id="Shape" fill="#FCEB06"></path>
            </g>
        </g>
    </g>
</svg>