<?xml version="1.0" encoding="UTF-8"?>
<svg width="204px" height="216px" viewBox="0 0 204 216" version="1.1" xmlns="http://www.w3.org/2000/svg" xmlns:xlink="http://www.w3.org/1999/xlink">
    <!-- Generator: Sketch 50.2 (55047) - http://www.bohemiancoding.com/sketch -->
    <title>Group 11</title>
    <desc>Created with Sketch.</desc>
    <defs></defs>
    <g id="Page-1" stroke="none" stroke-width="1" fill="none" fill-rule="evenodd">
        <g id="chastniki_se" transform="translate(-1659.000000, -2799.000000)">
            <g id="Group-11" transform="translate(1659.000000, 2799.000000)">
                <path d="M128.9,15.3 C128.8,16.7 128.6,18 128.3,19.3 C169.6,30.8 200,68.7 200,113.7 C200,167.8 156.1,211.7 102,211.7 C47.9,211.7 4,167.8 4,113.7 C4,68.3 34.8,30.2 76.6,19 C76.3,17.7 76.1,16.4 76,15 C32.3,26.5 0,66.3 0,113.7 C0,170 45.7,215.7 102,215.7 C158.3,215.7 204,170 204,113.7 C204,66.7 172.2,27.1 128.9,15.3 Z" id="Shape" fill="#FFFFFF" fill-rule="nonzero"></path>
                <g id="euro-symbol" transform="translate(58.000000, 74.000000)" fill-rule="nonzero">
                    <path d="M47.38118,79.9215734 C24.8244478,79.9215734 6.47346445,61.9946747 6.47346445,39.9589713 C6.47334342,17.9253253 24.8242057,0 47.38118,0 C56.8145234,0 66.029531,3.21791225 73.326233,9.06009077 C74.2052648,9.76363086 74.3471104,11.0461725 73.6433283,11.9249622 C72.9405144,12.8030257 71.6565204,12.9457186 70.7784569,12.2421785 C64.2016339,6.97633888 55.8916793,4.07649017 47.38118,4.07649017 C27.0729198,4.07649017 10.5498336,20.1739183 10.5498336,39.9596974 C10.5498336,59.7478971 27.0727988,75.8461725 47.38118,75.8461725 C55.9000303,75.8461725 64.2091377,72.9454766 70.7776097,67.6783056 C71.6556732,66.9729501 72.9386989,67.1147958 73.6424811,67.9934644 C74.3468684,68.871649 74.2058699,70.1541906 73.3272012,70.8584569 C66.0384871,76.7029349 56.8234796,79.9215734 47.38118,79.9215734 Z" id="Shape" fill="#FFFFFF"></path>
                    <path d="M50.4824206,46.1996974 L2.05942511,46.1996974 C0.933494705,46.1996974 0.021301059,45.2876248 0.021301059,44.1615734 C0.021301059,43.035643 0.933615734,42.1232073 2.05942511,42.1232073 L50.4822995,42.1232073 C51.608351,42.1232073 52.5205446,43.035643 52.5205446,44.1615734 C52.5205446,45.2875038 51.6075038,46.1996974 50.4824206,46.1996974 Z M56.1777912,36.3300454 L2.05942511,36.3300454 C0.933494705,36.3300454 0.021301059,35.4177307 0.021301059,34.2919213 C0.021301059,33.166112 0.933615734,32.2537973 2.05942511,32.2537973 L56.1777912,32.2537973 C57.3037216,32.2537973 58.2160363,33.166112 58.2160363,34.2919213 C58.2160363,35.4168835 57.3037216,36.3300454 56.1777912,36.3300454 Z" id="Shape" fill="#FDEC06"></path>
                </g>
                <path d="M99.08,10.52 C99.7760035,10.3759993 100.483996,10.2560005 101.204,10.16 C101.828003,10.0639995 102.493996,9.98000036 103.202,9.908 C103.910004,9.83599964 104.575997,9.8 105.2,9.8 L107.72,9.8 C109.352008,9.8 110.659995,10.2919951 111.644,11.276 C112.628005,12.2600049 113.12,13.5679918 113.12,15.2 L113.12,19.88 C113.12,22.0640109 112.568006,23.6899947 111.464,24.758 C110.359994,25.8260053 108.632012,26.36 106.28,26.36 L99.44,26.36 C97.0879882,26.36 95.3600055,25.8260053 94.256,24.758 C93.1519945,23.6899947 92.6,22.0640109 92.6,19.88 L92.6,7.28 C92.6,4.92798824 93.1519945,3.20000552 94.256,2.096 C95.3600055,0.99199448 97.0879882,0.44 99.44,0.44 C100.616006,0.44 101.893993,0.47599964 103.274,0.548 C104.654007,0.62000036 105.943994,0.70399952 107.144,0.8 C108.536007,0.89600048 109.927993,1.01599928 111.32,1.16 L111.32,6.02 C109.999993,5.94799964 108.692006,5.86400048 107.396,5.768 C106.843997,5.74399988 106.274003,5.71400018 105.686,5.678 C105.097997,5.64199982 104.516003,5.60600018 103.94,5.57 C103.363997,5.53399982 102.818003,5.51000006 102.302,5.498 C101.785997,5.48599994 101.312002,5.48 100.88,5.48 C100.327997,5.48 99.8900016,5.64199838 99.566,5.966 C99.2419984,6.29000162 99.08,6.72799724 99.08,7.28 L99.08,10.52 Z M103.4,14.84 C102.895997,14.84 102.386003,14.8579998 101.87,14.894 C101.353997,14.9300002 100.892002,14.9719998 100.484,15.02 C100.003998,15.0920004 99.5360023,15.1519998 99.08,15.2 L99.08,19.16 C99.08,20.6000072 99.7999928,21.32 101.24,21.32 L104.48,21.32 C105.920007,21.32 106.64,20.6000072 106.64,19.16 L106.64,16.1 C106.64,15.7399982 106.520001,15.4400012 106.28,15.2 C106.039999,14.9599988 105.740002,14.84 105.38,14.84 L103.4,14.84 Z" id="6" fill="#FDEC06"></path>
            </g>
        </g>
    </g>
</svg>