<?xml version="1.0" encoding="UTF-8"?>
<svg width="204px" height="216px" viewBox="0 0 204 216" version="1.1" xmlns="http://www.w3.org/2000/svg" xmlns:xlink="http://www.w3.org/1999/xlink">
    <!-- Generator: Sketch 50.2 (55047) - http://www.bohemiancoding.com/sketch -->
    <title>Group 9</title>
    <desc>Created with Sketch.</desc>
    <defs></defs>
    <g id="Page-1" stroke="none" stroke-width="1" fill="none" fill-rule="evenodd">
        <g id="chastniki_se" transform="translate(-1019.000000, -2799.000000)">
            <g id="Group-9" transform="translate(1019.000000, 2799.000000)">
                <path d="M128.9,15.3 C128.8,16.7 128.6,18 128.3,19.3 C169.6,30.8 200,68.7 200,113.7 C200,167.8 156.1,211.7 102,211.7 C47.9,211.7 4,167.8 4,113.7 C4,68.3 34.8,30.2 76.6,19 C76.3,17.7 76.1,16.4 76,15 C32.3,26.5 0,66.3 0,113.7 C0,170 45.7,215.7 102,215.7 C158.3,215.7 204,170 204,113.7 C204,66.7 172.2,27.1 128.9,15.3 Z" id="Shape" fill="#FFFFFF" fill-rule="nonzero"></path>
                <g id="two-big-gears" transform="translate(53.000000, 74.000000)" fill-rule="nonzero">
                    <path d="M42.9350336,33.7371812 L47.7508725,39.9114094 C47.3844295,40.6719463 47.0595973,41.4566443 46.7795973,42.258255 L39.0080537,43.2190604 C38.2679195,43.310604 37.7119463,43.9393289 37.7119463,44.6851007 L37.7119463,54.6716779 C37.7119463,55.4171812 38.2679195,56.0461745 39.0080537,56.1377181 L46.7798658,57.0977181 C47.0595973,57.8987919 47.384698,58.682953 47.7511409,59.4432215 L42.935302,65.6177181 C42.4767785,66.2056376 42.5280537,67.0434899 43.055302,67.5704698 L50.1167785,74.6343624 C50.6442953,75.1618792 51.4821477,75.2131544 52.0703356,74.7543624 L58.2442953,69.9371812 C59.0034899,70.3030872 59.7879195,70.627651 60.5900671,70.9079195 L61.5500671,78.6805369 C61.6413423,79.4209396 62.270604,79.9766443 63.0161074,79.9766443 L73.0034899,79.9766443 C73.7489933,79.9766443 74.378255,79.4209396 74.4695302,78.6805369 L75.4295302,70.9079195 C76.2311409,70.6279195 77.0155705,70.3033557 77.7758389,69.9369128 L83.9519463,74.7543624 C84.5395973,75.2131544 85.3777181,75.1618792 85.9049664,74.634094 L92.9651007,67.5707383 C93.4926174,67.0432215 93.5438926,66.205906 93.0851007,65.6179866 L88.2695302,59.4442953 C88.6365101,58.6840268 88.9616107,57.8995973 89.2416107,57.0979866 L97.0131544,56.1379866 C97.753557,56.046443 98.3092617,55.4174497 98.3092617,54.6719463 L98.3092617,44.6853691 C98.3092617,43.9395973 97.753557,43.3108725 97.0131544,43.2193289 L89.24,42.2585235 C88.9594631,41.4561074 88.6348993,40.6714094 88.2689933,39.9116779 L93.0848322,33.7374497 C93.5436242,33.1492617 93.492349,32.3111409 92.9648322,31.7841611 L85.9030872,24.7248322 C85.3761074,24.1975839 84.538255,24.1463087 83.950604,24.6045638 L77.7761074,29.4187919 C77.0163758,29.0526174 76.2319463,28.7277852 75.4297987,28.4475168 L74.4697987,20.677047 C74.3779866,19.9369128 73.7492617,19.3809396 73.0037584,19.3809396 L63.0163758,19.3809396 C62.2708725,19.3809396 61.6416107,19.9369128 61.5503356,20.6773154 L60.5903356,28.4477852 C59.7881879,28.7280537 59.0037584,29.0526174 58.2445638,29.4187919 L52.0700671,24.6032215 C51.4824161,24.1444295 50.6445638,24.1959732 50.117047,24.7232215 L43.0558389,31.7838926 C42.5280537,32.3111409 42.4765101,33.1489933 42.9350336,33.7371812 Z M51.2824161,27.7358389 L57.1683221,32.326443 C57.6297987,32.6867114 58.2609396,32.7401342 58.7763758,32.4628188 C59.9084564,31.8536913 61.117047,31.3532886 62.3685906,30.975302 C62.9280537,30.8061745 63.3355705,30.3226846 63.4072483,29.7422819 L64.3221477,22.335302 L71.6974497,22.335302 L72.6128859,29.7422819 C72.6842953,30.322953 73.0920805,30.806443 73.6515436,30.975302 C74.9014765,31.3527517 76.1095302,31.8531544 77.2437584,32.4628188 C77.7591946,32.7401342 78.3900671,32.6867114 78.8518121,32.3267114 L84.7374497,27.7374497 L89.9524832,32.9497987 L85.3613423,38.8348993 C85.0016107,39.2966443 84.947651,39.9269799 85.2249664,40.4426846 C85.8338255,41.5761074 86.3344966,42.7852349 86.7124832,44.0367785 C86.8818792,44.5962416 87.3653691,45.0037584 87.9457718,45.0754362 L95.3551678,45.9911409 L95.3551678,53.3656376 L87.9473826,54.2805369 C87.3669799,54.3524832 86.8834899,54.7597315 86.714094,55.32 C86.3377181,56.5683221 85.8362416,57.7763758 85.2255034,58.9103356 C84.947651,59.4263087 85.0010738,60.0574497 85.3613423,60.5194631 L89.9530201,66.4053691 L84.7390604,71.621745 L78.8518121,67.0297987 C78.3903356,66.6695302 77.7597315,66.6161074 77.2437584,66.8934228 C76.1095302,67.5030872 74.9009396,68.0034899 73.6520805,68.3804027 C73.0920805,68.5492617 72.6842953,69.0330201 72.6128859,69.6136913 L71.6974497,77.0225503 L64.3221477,77.0225503 L63.4072483,69.6136913 C63.335302,69.0332886 62.9280537,68.5495302 62.3680537,68.3804027 C61.117047,68.0026846 59.9084564,67.5022819 58.7763758,66.8934228 C58.2604027,66.6161074 57.6297987,66.6695302 57.1677852,67.0297987 L51.2826846,71.621745 L46.0679195,66.4053691 L50.6587919,60.5194631 C51.0185235,60.0579866 51.0719463,59.4273826 50.7951678,58.9116779 C50.184698,57.7761074 49.6840268,56.5675168 49.3073826,55.3197315 C49.138255,54.7597315 48.6547651,54.3522148 48.0743624,54.2805369 L40.6665772,53.3656376 L40.6665772,45.9908725 L48.0746309,45.0754362 C48.6550336,45.0034899 49.1385235,44.5962416 49.307651,44.0362416 C49.6848322,42.7871141 50.1852349,41.578255 50.7954362,40.4426846 C51.0722148,39.9269799 51.0187919,39.2963758 50.6590604,38.8348993 L46.0684564,32.9497987 L51.2824161,27.7358389 Z" id="Shape" fill="#FFFFFF"></path>
                    <path d="M68.0099329,61.661745 C74.6169128,61.661745 79.9919463,56.2867114 79.9919463,49.6797315 C79.9919463,43.0719463 74.6169128,37.6958389 68.0099329,37.6958389 C61.402953,37.6958389 56.0279195,43.0716779 56.0279195,49.6797315 C56.0279195,56.2867114 61.4026846,61.661745 68.0099329,61.661745 Z M68.0099329,40.6507383 C72.9873826,40.6507383 77.0373154,44.7012081 77.0373154,49.68 C77.0373154,54.6577181 72.9873826,58.7073826 68.0099329,58.7073826 C63.0319463,58.7073826 58.9825503,54.6577181 58.9825503,49.68 C58.9822819,44.7012081 63.0319463,40.6507383 68.0099329,40.6507383 Z" id="Shape" fill="#FDEC06"></path>
                    <path d="M3.99624161,11.4418792 L7.46791946,15.8931544 C7.25986577,16.3401342 7.07033557,16.7983893 6.89986577,17.2663087 L1.29583893,17.9597315 C0.555704698,18.0515436 0,18.6802685 0,19.4257718 L0,26.9151678 C0,27.6609396 0.555973154,28.2899329 1.29637584,28.3812081 L6.89959732,29.0732886 C7.06979866,29.5404027 7.25959732,29.9989262 7.46791946,30.446443 L3.99624161,34.8971812 C3.53771812,35.4851007 3.58899329,36.3226846 4.11624161,36.8499329 L9.41154362,42.147651 C9.93879195,42.6751678 10.7763758,42.7267114 11.3648322,42.2681879 L15.8171812,38.7962416 C16.2636242,39.0037584 16.7218792,39.1932886 17.1895302,39.3632215 L17.882953,44.9669799 C17.9744966,45.7071141 18.6032215,46.2628188 19.3489933,46.2628188 L26.8375839,46.2628188 C27.5833557,46.2628188 28.212349,45.7071141 28.3036242,44.9669799 L28.9967785,39.3634899 C29.4641611,39.1938255 29.922953,39.0040268 30.3707383,38.7959732 L34.8214765,42.2679195 C35.409396,42.7267114 36.2477852,42.6751678 36.7747651,42.147651 L42.0700671,36.8499329 C42.597047,36.3224161 42.6485906,35.4851007 42.1900671,34.8971812 L38.7189262,30.4469799 C38.9283221,29.9975839 39.1183893,29.5387919 39.2883221,29.0730201 L44.8904698,28.3812081 C45.630604,28.2899329 46.1865772,27.6609396 46.1865772,26.9151678 L46.1865772,19.4257718 C46.1865772,18.6802685 45.6308725,18.0515436 44.8907383,17.9597315 L39.2867114,17.2663087 C39.1162416,16.7983893 38.9267114,16.3398658 38.7186577,15.8931544 L42.1900671,11.4416107 C42.6488591,10.8536913 42.597047,10.0158389 42.0697987,9.48885906 L36.7744966,4.19302013 C36.2469799,3.66550336 35.409396,3.61422819 34.8212081,4.07275168 L30.3707383,7.54442953 C29.9216107,7.33530201 29.4625503,7.1452349 28.9965101,6.97557047 L28.3033557,1.37395973 C28.2118121,0.633825503 27.5830872,0.0781208054 26.8373154,0.0781208054 L19.3492617,0.0781208054 C18.6034899,0.0781208054 17.9747651,0.633557047 17.8832215,1.37395973 L17.1897987,6.97583893 C16.7232215,7.14577181 16.2649664,7.33557047 15.8171812,7.54416107 L11.3648322,4.07248322 C10.7769128,3.61422819 9.9390604,3.66577181 9.41208054,4.19302013 L4.11651007,9.48885906 C3.58926174,10.0158389 3.53771812,10.8534228 3.99624161,11.4418792 Z M10.5779866,7.20563758 L14.7366443,10.4477852 C15.1986577,10.8083221 15.8303356,10.8614765 16.3460403,10.5830872 C17.1726174,10.1377181 18.0544966,9.77234899 18.9677852,9.49718121 C19.5280537,9.32832215 19.9358389,8.84483221 20.0077852,8.26389262 L20.655302,3.03248322 L25.532349,3.03248322 L26.1798658,8.26389262 C26.2518121,8.84510067 26.6601342,9.32885906 27.2206711,9.49744966 C28.1296644,9.77073826 29.0126174,10.1363758 29.8451007,10.5838926 C30.3608054,10.8612081 30.9916779,10.8080537 31.4534228,10.4477852 L35.6096644,7.20590604 L39.058255,10.6544966 L35.8161074,14.8118121 C35.4558389,15.2738255 35.4026846,15.9049664 35.6802685,16.4206711 C36.1232215,17.2432215 36.4891275,18.126443 36.7675168,19.045906 C36.9369128,19.6053691 37.4201342,20.012349 38,20.0840268 L43.2327517,20.7315436 L43.2327517,25.6091275 L38.0016107,26.2550336 C37.4206711,26.3269799 36.9366443,26.7347651 36.7680537,27.295302 C36.4944966,28.2034899 36.1285906,29.086443 35.6802685,29.92 C35.402953,30.4357047 35.4561074,31.0665772 35.8163758,31.5283221 L39.0585235,35.6845638 L35.6096644,39.1350336 L31.4536913,35.8931544 C30.9916779,35.5328859 30.3608054,35.4794631 29.8451007,35.757047 C29.0190604,36.2013423 28.1361074,36.566443 27.2209396,36.8416107 C26.6601342,37.0102013 26.2520805,37.4939597 26.1801342,38.0748993 L25.5326174,43.3087248 L20.6550336,43.3087248 L20.0075168,38.0748993 C19.9355705,37.4944966 19.5277852,37.0107383 18.9675168,36.8418792 C18.0480537,36.5648322 17.165906,36.2 16.3460403,35.7578523 C15.8300671,35.4794631 15.1983893,35.532349 14.7361074,35.8928859 L10.5777181,39.135302 L7.1285906,35.6845638 L10.3707383,31.5283221 C10.7310067,31.0665772 10.7844295,30.4357047 10.5068456,29.92 C10.0622819,29.0934228 9.69637584,28.2099329 9.41959732,27.2936913 C9.2504698,26.7339597 8.76697987,26.326443 8.18657718,26.2550336 L2.95409396,25.6091275 L2.95409396,20.7315436 L8.18684564,20.0840268 C8.76671141,20.0120805 9.24993289,19.6053691 9.41932886,19.0461745 C9.69798658,18.126443 10.0636242,17.242953 10.5065772,16.4206711 C10.7844295,15.9049664 10.7312752,15.2738255 10.3710067,14.8118121 L7.12912752,10.6542282 L10.5779866,7.20563758 Z" id="Shape" fill="#FDEC06"></path>
                    <path d="M23.0936913,32.5272483 C28.2531544,32.5272483 32.4504698,28.3299329 32.4504698,23.1710067 C32.4504698,18.0118121 28.2531544,13.8150336 23.0936913,13.8150336 C17.9350336,13.8150336 13.7379866,18.0120805 13.7379866,23.1710067 C13.738255,28.3299329 17.935302,32.5272483 23.0936913,32.5272483 Z M23.0936913,16.7696644 C26.6238926,16.7696644 29.4958389,19.6413423 29.4958389,23.1712752 C29.4958389,26.7012081 26.6238926,29.5728859 23.0936913,29.5728859 C19.5642953,29.5728859 16.6926174,26.7012081 16.6926174,23.1712752 C16.6928859,19.6413423 19.5642953,16.7696644 23.0936913,16.7696644 Z" id="Shape" fill="#FFFFFF"></path>
                </g>
                <polygon id="4" fill="#FDEC06" points="104.84 20.96 91.52 20.96 91.52 15.92 100.16 0.8 107.36 0.8 98.72 15.92 104.84 15.92 104.84 10.52 111.32 10.52 111.32 15.92 113.84 15.92 113.84 20.96 111.32 20.96 111.32 26 104.84 26"></polygon>
            </g>
        </g>
    </g>
</svg>