<?xml version="1.0" encoding="UTF-8"?>
<svg width="204px" height="216px" viewBox="0 0 204 216" version="1.1" xmlns="http://www.w3.org/2000/svg" xmlns:xlink="http://www.w3.org/1999/xlink">
    <!-- Generator: Sketch 50.2 (55047) - http://www.bohemiancoding.com/sketch -->
    <title>Group 10</title>
    <desc>Created with Sketch.</desc>
    <defs></defs>
    <g id="Page-1" stroke="none" stroke-width="1" fill="none" fill-rule="evenodd">
        <g id="chastniki_se" transform="translate(-1339.000000, -2799.000000)">
            <g id="Group-10" transform="translate(1339.000000, 2799.000000)">
                <path d="M128.9,15.3 C128.8,16.7 128.6,18 128.3,19.3 C169.6,30.8 200,68.7 200,113.7 C200,167.8 156.1,211.7 102,211.7 C47.9,211.7 4,167.8 4,113.7 C4,68.3 34.8,30.2 76.6,19 C76.3,17.7 76.1,16.4 76,15 C32.3,26.5 0,66.3 0,113.7 C0,170 45.7,215.7 102,215.7 C158.3,215.7 204,170 204,113.7 C204,66.7 172.2,27.1 128.9,15.3 Z" id="Shape" fill="#FFFFFF" fill-rule="nonzero"></path>
                <g id="leaves" transform="translate(57.000000, 78.000000)" fill-rule="nonzero">
                    <path d="M63.412737,49.3145357 C58.0845892,48.8672825 53.45649,49.5867769 50.0340301,51.3952358 C47.4088478,52.795333 45.5809431,54.7982499 44.7642197,57.1706368 C38.8915897,55.7705396 35.3913466,53.9426349 33.7384541,52.892562 C39.3777346,49.3339815 45.4837141,45.114244 51.3368984,40.3694701 L53.9426349,38.1915411 C57.6178901,35.0802139 61.137579,31.754983 64.3461351,28.2352941 C64.9878464,27.5352455 64.9100632,26.4268352 64.1516772,25.8240156 C63.4710744,25.2795333 62.459893,25.3962081 61.8570734,26.0379193 C58.6874088,29.4992708 55.2066116,32.7661643 51.5702479,35.8580457 L49.0228488,37.9776373 C40.1361206,45.1336898 30.6854643,51.0841031 23.2377248,55.3232863 C22.3626641,55.828877 21.4876033,56.3150219 20.6514341,56.781721 C21.8181818,54.2926592 23.1210501,50.6951872 24.1322314,45.7948469 C30.1798736,45.5614973 36.3441906,39.7083131 37.160914,26.6212931 C37.9387457,14.2926592 27.3213418,3.88915897 26.8740885,3.44190569 C26.2907146,2.87797764 25.3767623,2.81964025 24.735051,3.30578512 C24.2294604,3.67525523 12.4064171,12.698104 11.6480311,25.026738 C10.8896451,37.1414682 15.4205153,43.6752552 20.8264463,45.3670394 C20.2625182,48.0116675 19.6402528,50.1701507 19.0374332,51.8813807 C17.24842,56.9956247 15.4205153,59.1929995 15.3816237,59.2513369 C15.3816237,59.2513369 15.3816237,59.2513369 15.3816237,59.2513369 C15.0121536,59.6791444 14.5649003,60.0291687 14.0787555,60.281964 C6.47544968,64.1905688 1.28342246,66.3684978 1.20563928,66.3879436 C0.369470102,66.7379679 -0.0388915897,67.7102577 0.311132718,68.5464268 C0.583373845,69.1881381 1.18619349,69.5576082 1.84735051,69.5576082 C2.06125425,69.5576082 2.275158,69.5187166 2.48906174,69.4214876 C2.58629071,69.382596 12.4064171,65.2795333 24.83228,58.201264 C26.6796305,57.1511911 28.62421,56.0038892 30.6660185,54.7593583 C31.8327662,55.6733106 35.9163831,58.4735051 44.2391833,60.4180846 C44.3947496,65.9212445 49.6256684,71.5799708 61.4292659,72.5911522 C61.9737482,72.6300438 62.4987846,72.6494895 63.0238211,72.6494895 C73.5245503,72.6494895 82.2946038,64.0933398 82.6835197,63.7044239 C83.2668935,63.1404959 83.3446767,62.2265435 82.8585318,61.5653865 C82.5473991,61.1570248 74.594069,50.2479339 63.412737,49.3145357 Z M17.1317453,38.0943121 C15.3621779,34.9440933 14.6037919,30.5104521 14.9343704,25.2600875 C15.4788527,16.5678172 22.7321342,9.41176471 25.5712202,6.92270297 C28.0797278,9.74234322 34.3996111,17.7540107 33.8551288,26.446281 C33.5245503,31.6966456 32.2216821,35.9941663 30.0826446,38.9110355 C28.5658726,40.9528439 26.7574137,42.1584832 24.7544968,42.4501702 C25.4739912,37.9387457 25.9017987,32.5328148 25.8240156,26.0768109 C25.8045698,25.1628585 25.0656296,24.4239183 24.1516772,24.4433641 C23.2377248,24.4628099 22.4987846,25.2017501 22.5182304,26.1157025 C22.5960136,32.513369 22.1293145,37.8026252 21.4487117,42.1001458 C19.7374818,41.4584346 18.2596014,40.097229 17.1317453,38.0943121 Z M61.7209528,69.3437044 C57.0150705,68.9547885 53.1842489,67.6908119 50.6368498,65.7073408 C48.9256198,64.3850267 47.9144385,62.8293632 47.6421974,61.1570248 C51.6674769,61.8765192 56.4705882,62.3626641 62.2070977,62.4210015 C62.2070977,62.4210015 62.2265435,62.4210015 62.2265435,62.4210015 C63.1404959,62.4210015 63.8794361,61.701507 63.8794361,60.7875547 C63.8794361,59.8736023 63.1599417,59.1346621 62.2459893,59.1152163 C56.6261546,59.0568789 51.939718,58.5707341 48.0700049,57.8706855 C48.6922703,56.4511424 49.8979096,55.2455032 51.6285853,54.3315508 C54.4871172,52.8147788 58.4735051,52.231405 63.1599417,52.6203209 C70.8215848,53.2620321 77.0247934,59.7374818 79.2805056,62.4210015 C76.5775401,64.6572679 69.382596,69.9854157 61.7209528,69.3437044 Z" id="Shape" fill="#FFFFFF"></path>
                    <path d="M89.2367526,0.58341743 C88.8867282,0.233362082 88.4200292,0.0583344086 87.9338843,0.0972294472 C87.0977151,0.155572005 67.4574623,1.80861115 56.4316966,12.777012 C51.1229947,18.0667373 47.9338843,23.1425398 46.9615946,27.868287 C46.1837628,31.6994483 46.7087992,35.3166869 49.003403,38.0004446 C49.5478853,38.6227652 50.6951872,39.8285114 51.3174526,40.3924894 C53.3981526,42.2400038 56.0622265,43.0373521 58.9013126,43.0373521 C59.8152649,43.0373521 60.7681089,42.9401145 61.7598444,42.7456393 C66.5240642,41.8121583 71.6383082,38.6811077 76.9470102,33.3913825 C87.9727759,22.4229816 89.6451142,2.72264455 89.7228974,1.88640122 C89.761789,1.40021324 89.5867769,0.933472777 89.2367526,0.58341743 Z M74.6135148,31.0576802 C69.8492951,35.8028749 65.1823043,38.7200028 61.137579,39.4979035 C58.3762761,40.0424341 55.8483228,39.7507213 53.9426349,38.2143673 C53.3009237,37.6892843 52.1147302,36.5224331 51.5702479,35.9001125 C49.9173554,33.9748081 49.6451142,31.3688405 50.2090423,28.5295027 C51.0257657,24.5038662 54.0009723,19.8753566 58.765192,15.1301619 C66.9713175,6.98165128 80.9722897,4.35623617 86.164317,3.63667796 C85.4642684,8.84861313 82.8196403,22.8897221 74.6135148,31.0576802 Z" id="Shape" fill="#FDEC06"></path>
                </g>
                <path d="M99.98,5.84 L99.98,10.52 L105.74,10.52 C108.092012,10.52 109.819994,11.0539947 110.924,12.122 C112.028006,13.1900053 112.58,14.8159891 112.58,17 L112.58,19.52 C112.58,21.8720118 112.028006,23.5999945 110.924,24.704 C109.819994,25.8080055 108.092012,26.36 105.74,26.36 C104.299993,26.36 102.794008,26.3240004 101.222,26.252 C99.6499921,26.1799996 98.2160065,26.0960005 96.92,26 C95.3839923,25.9039995 93.8840073,25.7840007 92.42,25.64 L92.42,20.78 L96.668,21.068 C97.8920061,21.1400004 99.1819932,21.1999998 100.538,21.248 C101.894007,21.2960002 103.147994,21.32 104.3,21.32 C104.852003,21.32 105.289998,21.1580016 105.614,20.834 C105.938002,20.5099984 106.1,20.0720028 106.1,19.52 L106.1,17.72 C106.1,16.2799928 105.380007,15.56 103.94,15.56 L93.5,15.56 L93.5,0.8 L110.78,0.8 L110.78,5.84 L99.98,5.84 Z" id="5" fill="#FDEC06"></path>
            </g>
        </g>
    </g>
</svg>