<?xml version="1.0" encoding="UTF-8"?>
<svg width="204px" height="215px" viewBox="0 0 204 215" version="1.1" xmlns="http://www.w3.org/2000/svg" xmlns:xlink="http://www.w3.org/1999/xlink">
    <!-- Generator: Sketch 50.2 (55047) - http://www.bohemiancoding.com/sketch -->
    <title>Group 8</title>
    <desc>Created with Sketch.</desc>
    <defs></defs>
    <g id="Page-1" stroke="none" stroke-width="1" fill="none" fill-rule="evenodd">
        <g id="chastniki_se" transform="translate(-698.000000, -2799.000000)">
            <g id="Group-8" transform="translate(698.000000, 2799.000000)">
                <path d="M128.9,14.3 C128.8,15.7 128.6,17 128.3,18.3 C169.6,29.8 200,67.7 200,112.7 C200,166.8 156.1,210.7 102,210.7 C47.9,210.7 4,166.8 4,112.7 C4,67.3 34.8,29.2 76.6,18 C76.3,16.7 76.1,15.4 76,14 C32.3,25.5 0,65.3 0,112.7 C0,169 45.7,214.7 102,214.7 C158.3,214.7 204,169 204,112.7 C204,65.7 172.2,26.1 128.9,14.3 Z" id="Shape" fill="#FFFFFF" fill-rule="nonzero"></path>
                <g id="ruler-and-pencil-cross" transform="translate(62.000000, 74.000000)" fill-rule="nonzero">
                    <path d="M54.7010309,39.5463918 L79.8969072,14.3505155 L65.5257732,0 L40.3505155,25.1752577 L15.2783505,0.103092784 L0.927835052,14.4742268 L26,39.5463918 L0,65.5257732 L14.3505155,79.8762887 L40.3505155,53.8762887 L55.1752577,68.7010309 L76.4948454,74.3298969 L69.4639175,54.3092784 L54.7010309,39.5463918 Z M6.37113402,14.4742268 L15.2783505,5.56701031 L22.8453608,13.1340206 L13.9381443,22.0412371 L6.37113402,14.4742268 Z M16.6597938,24.7628866 L25.5670103,15.8556701 L37.628866,27.9175258 L28.7216495,36.8247423 L16.6597938,24.7628866 Z M14.3505155,74.4329897 L5.44329897,65.5257732 L65.5257732,5.46391753 L74.4329897,14.3505155 L14.3505155,74.4329897 Z M43.0721649,51.1752577 L51.9793814,42.2680412 L65.257732,55.5463918 L56.3505155,64.4536082 L43.0721649,51.1752577 Z M60.2061856,66.0618557 L67.0927835,59.1752577 L70.4536082,68.7628866 L60.2061856,66.0618557 Z" id="Shape" fill="#FFFFFF"></path>
                    <path d="M18.4948454,55.4226804 L15.7525773,58.1443299 L19.4226804,61.814433 C20.185567,62.5773196 21.4020619,62.5773196 22.1443299,61.814433 C22.8865979,61.0515464 22.9072165,59.8350515 22.1443299,59.0927835 L18.4948454,55.4226804 Z" id="Shape" fill="#FDEC06"></path>
                    <path d="M61.4226804,23.0721649 C62.185567,22.3092784 62.185567,21.0927835 61.4226804,20.3505155 L57.4845361,16.4329897 L54.7628866,19.1546392 L58.6804124,23.0721649 C59.4639175,23.814433 60.6804124,23.814433 61.4226804,23.0721649 Z" id="Shape" fill="#FDEC06"></path>
                    <path d="M51.7113402,32.2474227 C52.4742268,31.5051546 52.4742268,30.2680412 51.7113402,29.5257732 L48.0412371,25.8556701 L45.3195876,28.5773196 L48.9896907,32.2474227 C49.7525773,32.9896907 50.9690722,32.9896907 51.7113402,32.2474227 Z" id="Shape" fill="#FDEC06"></path>
                    <path d="M37.7731959,36.1443299 L35.0515464,38.8659794 L38.7216495,42.5360825 C39.4845361,43.2989691 40.7010309,43.2989691 41.443299,42.5360825 C42.2061856,41.7731959 42.2061856,40.556701 41.443299,39.814433 L37.7731959,36.1443299 Z" id="Shape" fill="#FDEC06"></path>
                    <path d="M28.2061856,45.7113402 L25.4845361,48.4329897 L29.1546392,52.1030928 C29.9175258,52.8659794 31.1340206,52.8659794 31.8762887,52.1030928 C32.6391753,51.3402062 32.6391753,50.1237113 31.8762887,49.3814433 L28.2061856,45.7113402 Z" id="Shape" fill="#FDEC06"></path>
                </g>
                <path d="M112.4,19.52 C112.4,21.8720118 111.848006,23.5999945 110.744,24.704 C109.639994,25.8080055 107.912012,26.36 105.56,26.36 C104.119993,26.36 102.614008,26.3240004 101.042,26.252 C99.4699921,26.1799996 98.0360065,26.0960005 96.74,26 C95.2039923,25.9039995 93.7040073,25.7840007 92.24,25.64 L92.24,20.78 L96.488,21.068 C97.7120061,21.1400004 99.0019932,21.1999998 100.358,21.248 C101.714007,21.2960002 102.967994,21.32 104.12,21.32 C104.672003,21.32 105.109998,21.1580016 105.434,20.834 C105.758002,20.5099984 105.92,20.0720028 105.92,19.52 L105.92,18.08 C105.92,16.6399928 105.200007,15.92 103.76,15.92 L96.2,15.92 L96.2,10.88 L103.04,10.88 C104.480007,10.88 105.2,10.1600072 105.2,8.72 L105.2,8 C105.2,6.5599928 104.480007,5.84 103.04,5.84 L92.6,5.84 L92.6,0.8 L104.84,0.8 C107.192012,0.8 108.919994,1.33399466 110.024,2.402 C111.128006,3.47000534 111.68,5.09598908 111.68,7.28 C111.68,8.7200072 111.350003,9.8899955 110.69,10.79 C110.029997,11.6900045 109.160005,12.3199982 108.08,12.68 C108.608003,12.8240007 109.135997,13.0519984 109.664,13.364 C110.192003,13.6760016 110.653998,14.0959974 111.05,14.624 C111.446002,15.1520026 111.769999,15.7939962 112.022,16.55 C112.274001,17.3060038 112.4,18.1759951 112.4,19.16 L112.4,19.52 Z" id="3" fill="#FDEC06"></path>
            </g>
        </g>
    </g>
</svg>