<?xml version="1.0" encoding="UTF-8"?>
<svg width="204px" height="216px" viewBox="0 0 204 216" version="1.1" xmlns="http://www.w3.org/2000/svg" xmlns:xlink="http://www.w3.org/1999/xlink">
    <!-- Generator: Sketch 50.2 (55047) - http://www.bohemiancoding.com/sketch -->
    <title>Group 6</title>
    <desc>Created with Sketch.</desc>
    <defs></defs>
    <g id="Page-1" stroke="none" stroke-width="1" fill="none" fill-rule="evenodd">
        <g id="chastniki_se" transform="translate(-379.000000, -2799.000000)">
            <g id="Group-6" transform="translate(379.000000, 2799.000000)">
                <path d="M128.9,15.3 C128.8,16.7 128.6,18 128.3,19.3 C169.6,30.8 200,68.7 200,113.7 C200,167.8 156.1,211.7 102,211.7 C47.9,211.7 4,167.8 4,113.7 C4,68.3 34.8,30.2 76.6,19 C76.3,17.7 76.1,16.4 76,15 C32.3,26.5 0,66.3 0,113.7 C0,170 45.7,215.7 102,215.7 C158.3,215.7 204,170 204,113.7 C204,66.7 172.2,27.1 128.9,15.3 Z" id="Shape" fill="#FFFFFF" fill-rule="nonzero"></path>
                <g id="agreement-(1)" transform="translate(70.000000, 74.000000)" fill-rule="nonzero">
                    <path d="M89.7021277,10.3404255 L82.8510638,3.4893617 C82.1702128,2.80851064 81.106383,2.80851064 80.4255319,3.4893617 L63.6170213,20.2978723 L63.6170213,1.74468085 C63.6170213,0.808510638 62.8510638,0.0425531915 61.9148936,0.0425531915 L1.70212766,0.0425531915 C0.765957447,0.0425531915 0,0.808510638 0,1.74468085 L0,78.1702128 C0,79.106383 0.765957447,79.8723404 1.70212766,79.8723404 L61.9148936,79.8723404 C62.8510638,79.8723404 63.6170213,79.106383 63.6170213,78.1702128 L63.6170213,38.7659574 L89.7021277,12.7659574 C90.3404255,12.0851064 90.3404255,11.0212766 89.7021277,10.3404255 Z M60.212766,76.5106383 L3.40425532,76.5106383 L3.40425532,3.44680851 L60.212766,3.44680851 L60.212766,23.6595745 L42.7234043,41.1489362 C42.5106383,41.3617021 42.3404255,41.6595745 42.2553191,41.9574468 L40,51.106383 C39.8723404,51.7021277 40.0425532,52.2978723 40.4680851,52.7234043 C40.8085106,53.0638298 41.2340426,53.2340426 41.6595745,53.2340426 C41.6595745,53.2340426 41.6595745,53.2340426 41.6595745,53.2340426 C41.787234,53.2340426 41.9148936,53.2340426 42.0851064,53.1914894 L51.2340426,50.9361702 C51.5319149,50.8510638 51.8297872,50.7234043 52.0425532,50.4680851 L60.2553191,42.2553191 L60.2553191,76.5106383 L60.212766,76.5106383 Z M49.9148936,47.7021277 L44,49.1914894 L45.4893617,43.2765957 L63.1489362,25.6170213 C63.1914894,25.5744681 63.1914894,25.5744681 63.2340426,25.5319149 L81.6595745,7.10638298 L86.1276596,11.5744681 L49.9148936,47.7021277 Z" id="Shape" fill="#FFFFFF"></path>
                    <path d="M51.106383,70.7234043 L10.6808511,70.7234043 C9.74468085,70.7234043 8.9787234,69.9574468 8.9787234,69.0212766 C8.9787234,68.0851064 9.74468085,67.3191489 10.6808511,67.3191489 L51.106383,67.3191489 C52.0425532,67.3191489 52.8085106,68.0851064 52.8085106,69.0212766 C52.8085106,69.9574468 52.0425532,70.7234043 51.106383,70.7234043 Z" id="Shape" fill="#FDEC06"></path>
                    <path d="M51.106383,61.0212766 L10.6808511,61.0212766 C9.74468085,61.0212766 8.9787234,60.2553191 8.9787234,59.3191489 C8.9787234,58.3829787 9.74468085,57.6170213 10.6808511,57.6170213 L51.106383,57.6170213 C52.0425532,57.6170213 52.8085106,58.3829787 52.8085106,59.3191489 C52.8085106,60.2553191 52.0425532,61.0212766 51.106383,61.0212766 Z" id="Shape" fill="#FDEC06"></path>
                    <path d="M35.7021277,41.7021277 L10.6808511,41.7021277 C9.74468085,41.7021277 8.9787234,40.9361702 8.9787234,40 C8.9787234,39.0638298 9.74468085,38.2978723 10.6808511,38.2978723 L35.7021277,38.2978723 C36.6382979,38.2978723 37.4042553,39.0638298 37.4042553,40 C37.4042553,40.9361702 36.6382979,41.7021277 35.7021277,41.7021277 Z" id="Shape" fill="#FDEC06"></path>
                    <path d="M44.5106383,32.0425532 L10.6808511,32.0425532 C9.74468085,32.0425532 8.9787234,31.2765957 8.9787234,30.3404255 C8.9787234,29.4042553 9.74468085,28.6382979 10.6808511,28.6382979 L44.4680851,28.6382979 C45.4042553,28.6382979 46.1702128,29.4042553 46.1702128,30.3404255 C46.1702128,31.2765957 45.4468085,32.0425532 44.5106383,32.0425532 Z" id="Shape" fill="#FDEC06"></path>
                    <path d="M51.106383,12.6808511 L10.6808511,12.6808511 C9.74468085,12.6808511 8.9787234,11.9148936 8.9787234,10.9787234 C8.9787234,10.0425532 9.74468085,9.27659574 10.6808511,9.27659574 L51.106383,9.27659574 C52.0425532,9.27659574 52.8085106,10.0425532 52.8085106,10.9787234 C52.8085106,11.9148936 52.0425532,12.6808511 51.106383,12.6808511 Z" id="Shape" fill="#FDEC06"></path>
                </g>
                <path d="M112.04,8.72 C112.04,9.48800384 111.932001,10.1839969 111.716,10.808 C111.499999,11.4320031 111.200002,12.0079974 110.816,12.536 C110.431998,13.0640026 109.976003,13.5559977 109.448,14.012 C108.919997,14.4680023 108.344003,14.9239977 107.72,15.38 L99.98,20.96 L112.04,20.96 L112.04,26 L92.6,26 L92.6,19.16 L105.56,9.8 L105.56,8 C105.56,6.5599928 104.840007,5.84 103.4,5.84 L93.32,5.84 L93.32,0.8 L104.84,0.8 C107.360013,0.8 109.189994,1.3699943 110.33,2.51 C111.470006,3.6500057 112.04,5.4799874 112.04,8 L112.04,8.72 Z" id="2" fill="#FDEC06"></path>
            </g>
        </g>
    </g>
</svg>