<?xml version="1.0" encoding="UTF-8"?>
<svg width="204px" height="216px" viewBox="0 0 204 216" version="1.1" xmlns="http://www.w3.org/2000/svg" xmlns:xlink="http://www.w3.org/1999/xlink">
    <!-- Generator: Sketch 50.2 (55047) - http://www.bohemiancoding.com/sketch -->
    <title>Group 7</title>
    <desc>Created with Sketch.</desc>
    <defs></defs>
    <g id="Page-1" stroke="none" stroke-width="1" fill="none" fill-rule="evenodd">
        <g id="chastniki_se" transform="translate(-56.000000, -2799.000000)">
            <g id="Group-7" transform="translate(56.000000, 2799.000000)">
                <path d="M128.9,15.3 C128.8,16.7 128.6,18 128.3,19.3 C169.6,30.8 200,68.7 200,113.7 C200,167.8 156.1,211.7 102,211.7 C47.9,211.7 4,167.8 4,113.7 C4,68.3 34.8,30.2 76.6,19 C76.3,17.7 76.1,16.4 76,15 C32.3,26.5 0,66.3 0,113.7 C0,170 45.7,215.7 102,215.7 C158.3,215.7 204,170 204,113.7 C204,66.7 172.2,27.1 128.9,15.3 Z" id="Shape" fill="#FFFFFF" fill-rule="nonzero"></path>
                <g id="phone-call-(1)" transform="translate(62.000000, 74.000000)" fill-rule="nonzero">
                    <path d="M63.1993249,49.5368776 C61.5621941,47.8322363 59.5875105,46.9208439 57.4946835,46.9208439 C55.4187342,46.9208439 53.427173,47.8153586 51.7225316,49.52 L46.3891983,54.8364557 C45.9503797,54.6001688 45.5115612,54.3807595 45.0896203,54.1613502 C44.4820253,53.8575527 43.9081857,53.5706329 43.4187342,53.2668354 C38.4229536,50.0938397 33.8828692,45.9588186 29.5284388,40.6086076 C27.4187342,37.9419409 26.0010127,35.6972152 24.9714768,33.4187342 C26.355443,32.1529114 27.6381435,30.8364557 28.8870886,29.5706329 C29.3596624,29.0980591 29.8322363,28.6086076 30.3048101,28.1360338 C33.8491139,24.59173 33.8491139,20.0010127 30.3048101,16.4567089 L25.6972152,11.8491139 C25.1740084,11.3259072 24.6339241,10.7858228 24.1275949,10.2457384 C23.1149367,9.19932489 22.0516456,8.11915612 20.9545992,7.10649789 C19.3174684,5.48624473 17.3596624,4.62548523 15.3005907,4.62548523 C13.241519,4.62548523 11.2499578,5.48624473 9.56219409,7.10649789 C9.54531646,7.12337553 9.54531646,7.12337553 9.52843882,7.14025316 L3.79004219,12.9292827 C1.62970464,15.0896203 0.397637131,17.7225316 0.127594937,20.777384 C-0.277468354,25.705654 1.17400844,30.2963713 2.28793249,33.3005907 C5.0221097,40.6761181 9.10649789,47.5115612 15.1993249,54.8364557 C22.59173,63.6634599 31.4862447,70.6339241 41.6465823,75.5453165 C45.5284388,77.3849789 50.7098734,79.5621941 56.498903,79.9335021 C56.8533333,79.9503797 57.2246414,79.9672574 57.5621941,79.9672574 C61.4609283,79.9672574 64.7351899,78.5664135 67.3005907,75.7816034 C67.3174684,75.7478481 67.3512236,75.7309705 67.3681013,75.6972152 C68.2457384,74.6339241 69.2583966,73.6718987 70.3216878,72.6423629 C71.0474262,71.9503797 71.7900422,71.2246414 72.5157806,70.4651477 C74.1866667,68.7267511 75.0643038,66.7014346 75.0643038,64.6254852 C75.0643038,62.5326582 74.169789,60.5242194 72.4651477,58.8364557 L63.1993249,49.5368776 Z M69.241519,67.3090295 C69.2246414,67.3090295 69.2246414,67.3259072 69.241519,67.3090295 C68.5832911,68.0178903 67.9081857,68.6592405 67.1824473,69.3681013 C66.0854008,70.4145148 64.9714768,71.5115612 63.9250633,72.7436287 C62.2204219,74.5664135 60.2119831,75.427173 57.5790717,75.427173 C57.3259072,75.427173 57.055865,75.427173 56.8027004,75.4102954 C51.7900422,75.0896203 47.1318143,73.1318143 43.6381435,71.4609283 C34.0854008,66.8364557 25.6972152,60.2710549 18.7267511,51.9503797 C12.9714768,45.0136709 9.12337553,38.6001688 6.57485232,31.7140928 C5.00523207,27.5115612 4.43139241,24.2372996 4.68455696,21.148692 C4.85333333,19.1740084 5.612827,17.5368776 7.01367089,16.1360338 L12.7689451,10.3807595 C13.5959494,9.60438819 14.4735865,9.18244726 15.334346,9.18244726 C16.3976371,9.18244726 17.2583966,9.82379747 17.798481,10.3638819 C17.8153586,10.3807595 17.8322363,10.3976371 17.8491139,10.4145148 C18.8786498,11.3765401 19.8575527,12.3723207 20.8870886,13.4356118 C21.4102954,13.9756962 21.9503797,14.5157806 22.4904641,15.0727426 L27.0980591,19.6803376 C28.8870886,21.4693671 28.8870886,23.1233755 27.0980591,24.9124051 C26.6086076,25.4018565 26.1360338,25.891308 25.6465823,26.3638819 C24.2288608,27.8153586 22.8786498,29.1655696 21.4102954,30.4820253 C21.3765401,30.5157806 21.3427848,30.5326582 21.3259072,30.5664135 C19.8744304,32.0178903 20.1444726,33.4356118 20.44827,34.3976371 C20.4651477,34.44827 20.4820253,34.498903 20.498903,34.5495359 C21.6972152,37.4524895 23.3849789,40.1866667 25.9503797,43.4440506 L25.9672574,43.4609283 C30.6254852,49.1993249 35.5368776,53.6718987 40.9545992,57.0980591 C41.6465823,57.5368776 42.355443,57.891308 43.0305485,58.2288608 C43.6381435,58.5326582 44.2119831,58.8195781 44.7014346,59.1233755 C44.7689451,59.1571308 44.8364557,59.2077637 44.9039662,59.241519 C45.4778059,59.5284388 46.0178903,59.6634599 46.5748523,59.6634599 C47.9756962,59.6634599 48.8533333,58.7858228 49.1402532,58.498903 L54.9124051,52.7267511 C55.4862447,52.1529114 56.3976371,51.4609283 57.4609283,51.4609283 C58.5073418,51.4609283 59.3681013,52.1191561 59.891308,52.6929958 C59.9081857,52.7098734 59.9081857,52.7098734 59.9250633,52.7267511 L69.2246414,62.0263291 C70.963038,63.7478481 70.963038,65.52 69.241519,67.3090295 Z" id="Shape" fill="#FFFFFF"></path>
                    <path d="M43.2162025,19.0221097 C47.6381435,19.7647257 51.6550211,21.8575527 54.8617722,25.0643038 C58.0685232,28.2710549 60.1444726,32.2879325 60.9039662,36.7098734 C61.0896203,37.8237975 62.0516456,38.6001688 63.148692,38.6001688 C63.2837131,38.6001688 63.4018565,38.5832911 63.5368776,38.5664135 C64.7858228,38.3638819 65.612827,37.1824473 65.4102954,35.9335021 C64.498903,30.5832911 61.9672574,25.705654 58.1022785,21.8406751 C54.2372996,17.9756962 49.3596624,15.4440506 44.0094515,14.5326582 C42.7605063,14.3301266 41.5959494,15.1571308 41.3765401,16.3891983 C41.1571308,17.6212658 41.9672574,18.8195781 43.2162025,19.0221097 Z" id="Shape" fill="#FDEC06"></path>
                    <path d="M79.8744304,35.2752743 C78.3723207,26.4651477 74.2204219,18.44827 67.8406751,12.0685232 C61.4609283,5.68877637 53.4440506,1.53687764 44.6339241,0.0347679325 C43.4018565,-0.18464135 42.2372996,0.659240506 42.0178903,1.89130802 C41.8153586,3.14025316 42.6423629,4.30481013 43.891308,4.52421941 C51.7562869,5.85755274 58.9292827,9.58751055 64.6339241,15.2752743 C70.3385654,20.9799156 74.0516456,28.1529114 75.3849789,36.0178903 C75.5706329,37.1318143 76.5326582,37.9081857 77.6297046,37.9081857 C77.7647257,37.9081857 77.8828692,37.891308 78.0178903,37.8744304 C79.2499578,37.6887764 80.0938397,36.5073418 79.8744304,35.2752743 Z" id="Shape" fill="#FDEC06"></path>
                </g>
                <polygon id="1" fill="#FDEC06" points="101.15 26 101.15 6.38 97.01 7.82 95.21 3.68 101.87 0.8 107.63 0.8 107.63 26"></polygon>
            </g>
        </g>
    </g>
</svg>