<?xml version="1.0" encoding="UTF-8"?>
<svg width="201px" height="54px" viewBox="0 0 201 54" version="1.1" xmlns="http://www.w3.org/2000/svg" xmlns:xlink="http://www.w3.org/1999/xlink">
    <!-- Generator: Sketch 52.6 (67491) - http://www.bohemiancoding.com/sketch -->
    <title>лого Капитал 2021</title>
    <desc>Created with Sketch.</desc>
    <g id="New_landing" stroke="none" stroke-width="1" fill="none" fill-rule="evenodd">
        <g id="kapital_Landing2" transform="translate(-1024.000000, -2242.000000)" fill="#FFFFFF">
            <g id="лого-Капитал-2021" transform="translate(1024.000000, 2242.000000)">
                <path d="M78.4,26.3 L71.7,26.3 C71.4,25.4 71.1,24.6 70.8,23.7 C70.5,22.8 70.2,22.1 69.9,21.3 C69.7,20.8 69.4,20.3 69.2,19.9 C69,19.5 68.7,19.2 68.3,18.9 C68,18.7 67.6,18.4 67.2,18.3 C66.8,18.2 66.2,18.1 65.6,18.1 L65.6,23.6 C65.6,23.9 65.7,24.1 65.8,24.3 C65.9,24.5 66.1,24.7 66.4,24.8 C66.6,24.9 66.8,24.9 67.2,25 C67.6,25.1 67.9,25.1 68.1,25.1 L68.1,26.1 L58.6,26.1 L58.6,25.1 C58.8,25.1 59.1,25.1 59.5,25 C59.9,25 60.2,24.9 60.4,24.8 C60.7,24.7 60.9,24.5 61,24.3 C61.1,24.1 61.2,23.8 61.2,23.5 L61.2,11 C61.2,10.7 61.2,10.5 61.1,10.3 C61,10.1 60.8,9.9 60.5,9.8 C60.3,9.7 59.9,9.6 59.5,9.5 C59.1,9.4 58.8,9.4 58.6,9.4 L58.6,8.4 L68.1,8.4 L68.1,9.4 C67.9,9.4 67.5,9.5 67.2,9.5 C66.8,9.6 66.6,9.6 66.4,9.7 C66.1,9.8 65.9,10 65.8,10.2 C65.7,10.4 65.7,10.7 65.7,10.9 L65.7,16.8 L66.5,16.8 C66.8,16.8 67.2,16.8 67.5,16.7 C67.9,16.6 68.2,16.4 68.5,16.1 C69.1,15.5 69.5,14.9 69.8,14.3 C70.1,13.7 70.4,13.1 70.5,12.4 C70.7,11.7 71,11.1 71.2,10.6 C71.4,10.1 71.8,9.6 72.4,9 C72.7,8.7 73,8.5 73.5,8.3 C73.9,8.1 74.4,8.1 74.9,8.1 C75.7,8.1 76.4,8.3 76.9,8.7 C77.4,9.1 77.6,9.7 77.6,10.3 C77.6,11 77.4,11.6 77,12 C76.6,12.4 76.1,12.6 75.5,12.6 C75.1,12.6 74.7,12.5 74.3,12.2 C73.9,12 73.5,11.5 72.9,10.9 C72.7,11.1 72.4,11.5 72.3,12.1 C72.1,12.6 71.9,13.1 71.8,13.5 C71.5,14.3 71.2,14.9 70.9,15.4 C70.6,15.8 70.3,16.2 69.8,16.5 L69.8,16.7 C71,17 71.9,17.5 72.7,18.2 C73.4,18.9 74.1,19.8 74.6,20.8 C74.8,21.2 75,21.7 75.2,22.2 C75.4,22.7 75.6,23.1 75.8,23.4 C76,23.9 76.3,24.3 76.5,24.5 C76.7,24.7 76.9,24.8 77.1,24.8 C77.3,24.8 77.5,24.9 77.8,24.9 C78.1,24.9 78.3,25 78.5,25 L78.4,26.3 Z M98.1,26.3 L98.1,25.3 C97.9,25.3 97.6,25.2 97.3,25.2 C97,25.1 96.7,25 96.5,24.9 C96.2,24.7 96,24.5 95.8,24.3 C95.6,24.1 95.5,23.9 95.4,23.6 C94.8,22.1 94,20.2 93,17.9 C92,15.6 90.8,12.4 89.2,8.4 L86.8,8.4 C85.6,11.2 84.6,13.8 83.6,16.1 C82.6,18.5 81.7,20.8 80.7,23.1 C80.6,23.5 80.3,23.8 80.1,24.1 C79.9,24.4 79.6,24.6 79.2,24.8 C79,24.9 78.7,25 78.4,25.1 C78,25.2 77.8,25.2 77.5,25.2 L77.5,26.2 L84.7,26.2 L84.7,25.2 C83.8,25.1 83.1,25 82.7,24.8 C82.3,24.6 82.1,24.4 82.1,24.1 C82.1,24 82.1,23.9 82.1,23.7 C82.1,23.5 82.2,23.2 82.4,22.7 C82.5,22.3 82.7,22 82.8,21.5 C83,21 83.1,20.6 83.3,20.3 L89.4,20.3 L90.9,24 C91,24.1 91,24.2 91,24.3 C91,24.4 91,24.4 91,24.5 C91,24.7 90.7,24.9 90.1,25 C89.5,25.1 89,25.2 88.5,25.2 L88.5,26.2 L98.1,26.2 L98.1,26.3 Z M88.9,19.2 L83.8,19.2 L86.3,12.7 L88.9,19.2 Z M119.5,26.3 L110,26.3 L110,25.3 C110.2,25.3 110.5,25.3 110.9,25.2 C111.3,25.1 111.5,25.1 111.7,25.1 C112,25 112.2,24.8 112.3,24.6 C112.4,24.4 112.5,24.1 112.5,23.8 L112.5,10 L105.3,10 L105.3,23.7 C105.3,24 105.4,24.2 105.5,24.4 C105.6,24.6 105.8,24.8 106.1,24.9 C106.2,25 106.5,25 106.9,25.1 C107.3,25.2 107.5,25.2 107.8,25.2 L107.8,26.2 L98.3,26.2 L98.3,25.2 C98.5,25.2 98.8,25.2 99.2,25.1 C99.6,25.1 99.9,25 100.1,24.9 C100.4,24.8 100.6,24.6 100.7,24.4 C100.8,24.2 100.9,23.9 100.9,23.6 L100.9,11.1 C100.9,10.8 100.9,10.6 100.8,10.4 C100.7,10.2 100.5,10 100.2,9.9 C100,9.8 99.6,9.7 99.2,9.6 C98.8,9.5 98.5,9.5 98.3,9.5 L98.3,8.5 L119.5,8.5 L119.5,9.5 C119.3,9.5 118.9,9.5 118.6,9.6 C118.3,9.7 118,9.7 117.7,9.8 C117.4,9.9 117.2,10.1 117.1,10.3 C117,10.5 116.9,10.8 116.9,11 L116.9,23.5 C116.9,23.8 117,24 117.1,24.2 C117.2,24.4 117.4,24.6 117.7,24.7 C117.9,24.8 118.2,24.8 118.6,24.9 C119,25 119.3,25 119.5,25 L119.5,26.3 Z M130.8,26.3 L121.1,26.3 L121.1,25.3 C121.3,25.3 121.6,25.3 122.1,25.2 C122.5,25.2 122.8,25.1 123,25.1 C123.3,25 123.5,24.8 123.6,24.6 C123.7,24.4 123.8,24.1 123.8,23.8 L123.8,11.3 C123.8,11 123.7,10.8 123.6,10.6 C123.5,10.4 123.3,10.2 123,10.1 C122.8,10 122.5,9.9 122.1,9.9 C121.7,9.8 121.4,9.8 121.1,9.7 L121.1,8.7 L130.8,8.7 L130.8,9.7 C130.6,9.7 130.2,9.8 129.9,9.8 C129.5,9.8 129.2,9.9 129,10 C128.7,10.1 128.5,10.3 128.4,10.5 C128.3,10.7 128.2,11 128.2,11.3 L128.2,23.8 C128.2,24.1 128.3,24.3 128.4,24.5 C128.5,24.7 128.7,24.9 129,25 C129.2,25.1 129.5,25.1 129.9,25.2 C130.3,25.3 130.6,25.3 130.9,25.3 L130.9,26.3 L130.8,26.3 Z M148.8,13.7 L147.8,13.7 C147.6,13 147.1,12.2 146.6,11.3 C146,10.4 145.5,10 145,9.9 C144.8,9.9 144.4,9.8 144,9.8 C143.6,9.8 143.3,9.8 143,9.8 L142.4,9.8 L142.4,23.6 C142.4,23.9 142.5,24.2 142.6,24.4 C142.7,24.6 142.9,24.8 143.2,24.9 C143.4,25 143.7,25 144.1,25.1 C144.5,25.2 144.8,25.2 145.1,25.3 L145.1,26.3 L135.3,26.3 L135.3,25.3 C135.5,25.3 135.9,25.2 136.3,25.2 C136.7,25.2 137,25.1 137.2,25 C137.5,24.9 137.7,24.7 137.8,24.5 C137.9,24.3 138,24 138,23.7 L138,9.8 L137.4,9.8 C137.1,9.8 136.8,9.8 136.4,9.8 C136,9.8 135.7,9.8 135.4,9.9 C134.9,10 134.4,10.4 133.8,11.3 C133.2,12.2 132.8,12.9 132.6,13.7 L131.6,13.7 L131.6,8.7 L148.6,8.7 L148.6,13.7 L148.8,13.7 Z M169,26.3 L169,25.3 C168.8,25.3 168.5,25.2 168.2,25.2 C167.9,25.1 167.6,25 167.4,24.9 C167.1,24.7 166.9,24.5 166.7,24.3 C166.5,24.1 166.4,23.9 166.3,23.6 C165.7,22.1 164.9,20.2 163.9,17.9 C162.9,15.6 161.7,12.4 160.1,8.4 L157.6,8.4 C156.4,11.2 155.4,13.8 154.4,16.1 C153.4,18.5 152.5,20.8 151.5,23.1 C151.4,23.5 151.1,23.8 150.9,24.1 C150.7,24.4 150.4,24.6 150,24.8 C149.8,24.9 149.5,25 149.2,25.1 C148.8,25.2 148.6,25.2 148.3,25.2 L148.3,26.2 L155.5,26.2 L155.5,25.2 C154.6,25.1 153.9,25 153.5,24.8 C153.1,24.6 152.9,24.4 152.9,24.1 C152.9,24 152.9,23.9 152.9,23.7 C152.9,23.5 153,23.2 153.2,22.7 C153.3,22.3 153.5,22 153.6,21.5 C153.8,21 153.9,20.6 154.1,20.3 L160.2,20.3 L161.7,24 C161.8,24.1 161.8,24.2 161.8,24.3 C161.8,24.4 161.8,24.4 161.8,24.5 C161.8,24.7 161.5,24.9 160.9,25 C160.3,25.1 159.8,25.2 159.3,25.2 L159.3,26.2 L168.9,26.2 L168.9,26.3 L169,26.3 Z M159.8,19.2 L154.7,19.2 L157.2,12.7 L159.8,19.2 Z M174.8,10.1 C174.6,10 174.2,9.9 173.8,9.8 C173.4,9.7 173.1,9.7 172.9,9.7 L172.9,8.7 L188.7,8.7 L188.7,9.7 C188.5,9.7 188.1,9.7 187.8,9.8 C187.5,9.9 187.2,9.9 186.9,10 C186.6,10.1 186.4,10.3 186.3,10.5 C186.2,10.7 186.1,11 186.1,11.2 L186.1,23.7 C186.1,24 186.2,24.2 186.3,24.4 C186.4,24.6 186.6,24.8 186.9,24.9 C187.1,25 187.4,25 187.8,25.1 C188.2,25.2 188.5,25.2 188.7,25.2 L188.7,26.2 L179.1,26.2 L179.1,25.2 C179.3,25.2 179.6,25.2 180,25.1 C180.4,25.1 180.7,25 180.9,25 C181.2,24.9 181.4,24.7 181.5,24.5 C181.6,24.3 181.7,24 181.7,23.7 L181.7,9.7 L177.5,9.7 C177.4,12.7 177.1,15.2 176.6,17.4 C176.1,19.5 175.5,21.3 174.9,22.6 C174.2,24 173.4,25 172.6,25.6 C171.8,26.2 171.1,26.5 170.4,26.5 C169.8,26.5 169.4,26.4 169,26.3 C168.6,26.2 168.4,25.9 168.2,25.7 C168,25.5 167.9,25.2 167.8,24.9 C167.7,24.6 167.7,24.3 167.7,24.1 C167.7,23.3 167.9,22.7 168.4,22.3 C168.9,21.9 169.4,21.7 170.1,21.7 C170.6,21.7 171,21.8 171.4,22.1 C171.8,22.4 172.3,22.8 172.6,23.2 C172.9,22.7 173.2,22.1 173.6,21.2 C174,20.4 174.3,19.5 174.6,18.6 C174.9,17.5 175.2,16.5 175.3,15.4 C175.5,14.4 175.6,13.2 175.6,11.9 C175.6,11.4 175.6,10.9 175.5,10.5 C175.4,10.5 175.2,10.2 174.8,10.1 Z" id="Shape" fill-rule="nonzero"></path>
                <path d="M45.2,45.4 C44.7,46.1 44.1,46.7 43.5,47.3 L200.5,47.3 L200.5,45.4 L45.2,45.4 Z" id="Path"></path>
                <path d="M27,0.8 C12.4,0.8 0.5,12.7 0.5,27.3 C0.5,41.9 12.4,53.8 27,53.8 C41.6,53.8 53.5,41.9 53.5,27.3 C53.5,12.7 41.6,0.8 27,0.8 Z M27,52.4 C13.2,52.4 2,41.2 2,27.4 C2,13.6 13.2,2.4 27,2.4 C40.8,2.4 52,13.6 52,27.4 C52,41.2 40.8,52.4 27,52.4 Z" id="Shape" fill-rule="nonzero"></path>
                <circle id="Oval" cx="48.1" cy="27.3" r="1"></circle>
                <circle id="Oval" cx="5.8" cy="27.3" r="1"></circle>
                <path d="M38.7,37.9 L30.5,37.9 C30.1,36.9 29.8,35.8 29.4,34.8 C29,33.8 28.7,32.8 28.3,31.9 C28,31.3 27.7,30.7 27.5,30.3 C27.2,29.8 26.9,29.4 26.5,29.1 C26.1,28.8 25.6,28.5 25.1,28.4 C24.6,28.3 23.9,28.2 23.2,28.2 L23.2,34.8 C23.2,35.1 23.3,35.4 23.4,35.7 C23.5,36 23.8,36.2 24.1,36.3 C24.3,36.4 24.6,36.5 25.1,36.5 C25.6,36.6 26,36.6 26.2,36.7 L26.2,37.9 L14.7,37.9 L14.7,36.7 C14.9,36.7 15.3,36.7 15.8,36.6 C16.3,36.5 16.7,36.5 16.9,36.4 C17.3,36.3 17.5,36.1 17.6,35.8 C17.7,35.6 17.8,35.2 17.8,34.9 L17.8,19.8 C17.8,19.4 17.7,19.2 17.6,18.9 C17.5,18.7 17.2,18.4 16.8,18.3 C16.5,18.2 16.1,18.1 15.7,17.9 C15.2,17.8 14.9,17.7 14.7,17.7 L14.7,16.5 L26.3,16.5 L26.3,17.7 C26,17.7 25.6,17.8 25.2,17.8 C24.8,17.9 24.5,17.9 24.2,18 C23.8,18.1 23.6,18.4 23.4,18.6 C23.3,18.9 23.2,19.2 23.2,19.5 L23.2,26.6 L24.2,26.6 C24.6,26.6 25,26.5 25.4,26.4 C25.8,26.3 26.2,26 26.6,25.7 C27.3,25 27.8,24.3 28.2,23.5 C28.6,22.8 28.9,22 29.1,21.3 C29.4,20.4 29.7,19.7 29.9,19.2 C30.1,18.6 30.6,18 31.3,17.3 C31.7,16.9 32.1,16.7 32.6,16.5 C33.1,16.3 33.7,16.2 34.3,16.2 C35.3,16.2 36.1,16.4 36.7,16.9 C37.3,17.4 37.6,18.1 37.6,18.9 C37.6,19.8 37.4,20.4 36.9,20.9 C36.4,21.4 35.8,21.6 35,21.6 C34.5,21.6 34,21.5 33.6,21.2 C33.1,20.9 32.6,20.4 32,19.6 C31.7,19.9 31.4,20.4 31.2,21 C31,21.6 30.8,22.2 30.6,22.7 C30.2,23.7 29.8,24.4 29.5,24.9 C29.1,25.4 28.7,25.8 28.2,26.2 L28.2,26.4 C29.6,26.8 30.8,27.4 31.7,28.3 C32.6,29.2 33.4,30.2 33.9,31.4 C34.1,31.9 34.4,32.5 34.7,33.1 C34.9,33.7 35.2,34.2 35.4,34.6 C35.7,35.2 36,35.7 36.3,35.9 C36.6,36.1 36.8,36.2 37,36.3 C37.2,36.3 37.5,36.4 37.9,36.4 C38.3,36.4 38.5,36.5 38.7,36.5 L38.7,37.9 Z" id="Path"></path>
                <path d="M7.3,23.3 C7.3,23.2 7.2,23.1 7.2,23.1 C7.1,23 7,23 6.9,23 C6.8,23 6.7,23 6.6,23 C6.5,23 6.5,23.1 6.4,23.1 C6.4,23.2 6.3,23.2 6.2,23.3 C6.2,23.4 6.1,23.5 6.1,23.5 C6.1,23.4 6.1,23.3 6.1,23.3 C6.1,23.2 6.1,23.2 6,23.1 C6,23 5.9,23 5.9,22.9 C5.8,22.9 5.8,22.8 5.7,22.8 C5.5,22.8 5.4,22.8 5.3,22.9 C5.2,23 5.1,23.3 5.1,23.6 L4.9,24.9 L5,24.9 C5,24.9 5,24.8 5,24.8 C5,24.8 5,24.7 5.1,24.7 C5.1,24.7 5.1,24.6 5.2,24.6 C5.2,24.6 5.3,24.6 5.3,24.6 L7,24.9 C7,24.9 7.1,24.9 7.1,24.9 C7.1,24.9 7.1,25 7.1,25 C7.1,25 7.1,25 7.1,25.1 C7.1,25.2 7.1,25.2 7.1,25.2 L7.2,25.2 L7.4,24 C7.4,23.8 7.4,23.7 7.4,23.5 C7.4,23.6 7.4,23.4 7.3,23.3 Z M6,24.2 L5.1,24.1 C5.1,24.1 5.1,24 5.1,24 C5.1,24 5.1,24 5.1,23.9 C5.1,23.8 5.2,23.7 5.3,23.6 C5.4,23.5 5.5,23.5 5.6,23.5 C5.7,23.5 5.8,23.6 5.9,23.7 C6,23.9 6.1,24 6,24.2 Z M7.2,24.1 C7.2,24.2 7.2,24.2 7.1,24.3 C7.1,24.3 7,24.4 7,24.4 L6.1,24.3 C6.1,24.3 6.1,24.3 6.1,24.2 C6.1,24.1 6.1,24.2 6.1,24.1 C6.1,23.9 6.2,23.8 6.3,23.7 C6.4,23.6 6.5,23.6 6.7,23.6 C6.9,23.6 7,23.7 7.1,23.7 C7.2,23.9 7.2,24 7.2,24.1 Z" id="Shape" fill-rule="nonzero"></path>
                <path d="M7.9,21.7 L8.3,20.5 L8.2,20.5 C8.2,20.5 8.2,20.6 8.2,20.6 C8.2,20.6 8.2,20.7 8.1,20.7 C8.1,20.7 8,20.8 8,20.8 C8,20.8 7.9,20.8 7.9,20.8 C7.7,20.8 7.4,20.9 7,20.9 C6.6,20.9 6.2,21 5.6,21 L5.5,21.3 C5.8,21.5 6.1,21.8 6.4,22 C6.7,22.2 6.9,22.4 7.2,22.6 C7.2,22.6 7.3,22.7 7.3,22.7 C7.3,22.7 7.3,22.8 7.4,22.8 C7.4,22.8 7.4,22.9 7.4,22.9 C7.4,22.9 7.4,23 7.4,23 L7.5,23 L7.8,22 L7.7,22 C7.7,22.1 7.6,22.2 7.6,22.2 C7.6,22.2 7.5,22.3 7.5,22.3 C7.5,22.3 7.5,22.3 7.4,22.3 C7.4,22.3 7.3,22.3 7.3,22.2 C7.3,22.2 7.2,22.1 7.2,22.1 C7.1,22.1 7.1,22 7.1,22 L7.3,21.2 L7.8,21.1 C7.8,21.1 7.8,21.1 7.8,21.1 C7.8,21.1 7.8,21.2 7.8,21.2 C7.8,21.2 7.8,21.3 7.8,21.4 L7.9,21.7 Z M6.8,22.1 L6,21.5 L7,21.4 L6.8,22.1 Z" id="Shape" fill-rule="nonzero"></path>
                <path d="M10.1,16.7 L8.1,20.5 L8,20.4 C8,20.4 8,20.3 8,20.3 C8,20.3 8,20.2 8,20.2 C8,20.2 8,20.1 8,20.1 C8,20.1 8,20.1 7.9,20 L6.4,19.2 C6.4,19.2 6.3,19.2 6.3,19.2 C6.3,19.2 6.2,19.2 6.2,19.2 C6.2,19.2 6.1,19.3 6.1,19.3 C6.1,19.3 6,19.4 6,19.4 L5.9,19.3 L6.5,18.2 L6.6,18.3 C6.6,18.3 6.6,18.4 6.6,18.4 C6.6,18.4 6.6,18.5 6.6,18.5 C6.6,18.5 6.6,18.6 6.6,18.6 C6.6,18.6 6.6,18.6 6.7,18.7 L8.2,19.5 C8.2,19.5 8.3,19.5 8.3,19.5 C8.3,19.5 8.4,19.5 8.4,19.4 C8.4,19.4 8.4,19.3 8.5,19.3 C8.5,19.3 8.5,19.2 8.6,19.2 C8.6,19.2 8.6,19.1 8.7,19.1 C8.7,19.1 8.7,19 8.8,19 C8.8,19 8.8,18.9 8.8,18.9 C8.8,18.9 8.8,18.8 8.7,18.8 L7.2,18 C7.2,18 7.1,18 7.1,18 C7.1,18 7,18 7,18 C7,18 7,18 6.9,18.1 C6.9,18.1 6.9,18.2 6.8,18.2 L6.7,18.1 L7.3,17 L7.4,17.1 C7.4,17.1 7.4,17.2 7.4,17.2 C7.4,17.2 7.4,17.3 7.4,17.3 C7.4,17.3 7.4,17.4 7.4,17.4 C7.4,17.4 7.4,17.4 7.5,17.5 L9,18.3 C9,18.3 9.1,18.3 9.1,18.3 C9.1,18.3 9.2,18.3 9.2,18.2 C9.2,18.2 9.2,18.1 9.3,18.1 C9.3,18.1 9.3,18 9.4,18 C9.4,18 9.4,17.9 9.5,17.9 C9.5,17.9 9.5,17.8 9.6,17.8 C9.6,17.8 9.6,17.7 9.6,17.7 C9.6,17.7 9.6,17.6 9.5,17.6 L8,16.8 C8,16.8 7.9,16.8 7.9,16.8 C7.9,16.8 7.8,16.8 7.8,16.8 C7.8,16.8 7.8,16.8 7.7,16.9 C7.6,17 7.7,17 7.6,17 L7.5,16.9 L8.1,15.8 L8.2,15.9 C8.2,15.9 8.2,16 8.2,16 C8.2,16 8.2,16.1 8.2,16.1 C8.2,16.1 8.2,16.2 8.2,16.2 C8.2,16.2 8.2,16.2 8.3,16.3 L9.8,17.1 C9.8,17.1 9.9,17.1 9.9,17.1 C9.9,17.1 10,17.1 10,17.1 C10,17.1 10,17.1 10.1,17 C10.1,16.7 10.1,16.7 10.1,16.7 Z" id="Path"></path>
                <path d="M11.6,14.4 C11.6,14.5 11.6,14.5 11.6,14.4 C11.5,14.5 11.5,14.5 11.4,14.5 C11.4,14.5 11.3,14.5 11.3,14.5 C11.3,14.5 11.2,14.5 11.2,14.5 C11,14.5 10.7,14.4 10.4,14.3 C10.1,14.2 9.6,14.1 9,14 L8.8,14.3 C9,14.7 9.2,15 9.4,15.3 C9.6,15.6 9.8,15.9 10,16.2 C10,16.2 10.1,16.3 10.1,16.3 C10.1,16.3 10.1,16.4 10.1,16.4 C10.1,16.4 10.1,16.5 10.1,16.5 C10.1,16.5 10.1,16.6 10,16.6 L10.1,16.7 L10.7,15.9 L10.6,15.8 C10.5,15.9 10.5,16 10.4,16 C10.4,16 10.3,16 10.3,16 C10.3,16 10.3,15.9 10.2,15.9 C10.2,15.9 10.1,15.8 10.1,15.8 C10.1,15.7 10,15.7 10,15.7 L10.5,15 L11,15.1 C11,15.1 11,15.1 11,15.1 C11,15.1 11,15.2 11,15.2 C11,15.3 10.9,15.3 10.9,15.4 L11,15.5 L11.8,14.5 L11.6,14.4 Z M9.8,15.6 L9.3,14.8 L10.2,15 L9.8,15.6 Z" id="Shape" fill-rule="nonzero"></path>
                <path d="M13.9,12.3 C13.9,12.3 13.8,12.4 13.8,12.4 C13.7,12.4 13.7,12.5 13.7,12.5 C13.7,12.5 13.6,12.5 13.6,12.5 C13.6,12.5 13.6,12.5 13.5,12.4 C13.6,12.3 13.7,12.2 13.8,12 C13.9,11.9 13.9,11.8 13.9,11.6 C13.9,11.5 13.9,11.4 13.8,11.2 C13.8,11.1 13.7,11 13.6,10.8 C13.5,10.7 13.5,10.7 13.4,10.6 C13.3,10.6 13.2,10.6 13.1,10.6 C13,10.6 12.9,10.6 12.7,10.7 C12.6,10.8 12.4,10.9 12.3,11 C12.3,11 12.2,10.9 12.2,10.9 C12.2,10.9 12.2,10.8 12.2,10.8 C12.2,10.8 12.2,10.7 12.3,10.7 C12.3,10.7 12.3,10.7 12.4,10.6 L12.3,10.5 L11.4,11.4 L11.5,11.5 C11.5,11.5 11.6,11.5 11.6,11.4 C11.6,11.4 11.7,11.3 11.7,11.3 C11.7,11.3 11.8,11.3 11.8,11.3 C11.8,11.3 11.9,11.3 11.9,11.4 C11.7,11.5 11.6,11.7 11.5,11.8 C11.4,11.9 11.4,12.1 11.4,12.2 C11.4,12.3 11.4,12.4 11.4,12.6 C11.4,12.7 11.5,12.8 11.6,12.9 C11.7,13 11.8,13.1 11.9,13.1 C12,13.1 12.1,13.1 12.3,13.1 C12.4,13.1 12.5,13 12.7,13 C12.8,12.9 12.9,12.8 13.1,12.7 C13.1,12.7 13.1,12.8 13.1,12.8 C13.1,12.8 13.1,12.9 13.1,12.9 C13.1,12.9 13.1,13 13,13 C13,13.1 13,13.1 12.9,13.1 L13,13.2 L13.9,12.3 Z M12.7,12.8 C12.6,12.8 12.5,12.8 12.4,12.8 C12.3,12.8 12.2,12.7 12.2,12.7 C12.2,12.6 12.1,12.6 12.1,12.6 C12.1,12.5 12,12.5 12,12.4 C11.9,12.3 11.9,12.3 11.9,12.2 C11.9,12.1 11.9,12.1 11.9,12 C11.9,11.9 11.9,11.9 12,11.8 L13,12.8 C12.8,12.7 12.7,12.8 12.7,12.8 Z M12.3,11.2 C12.4,11.1 12.5,11.1 12.5,11.1 C12.6,11.1 12.6,11.1 12.7,11.1 C12.8,11.1 12.8,11.2 12.9,11.2 C13,11.3 13,11.3 13.1,11.3 C13.1,11.3 13.2,11.4 13.2,11.4 C13.3,11.4 13.3,11.5 13.3,11.6 C13.3,11.7 13.3,11.8 13.3,11.9 C13.3,12 13.2,12.1 13.2,12.1 L12.3,11.2 Z" id="Shape" fill-rule="nonzero"></path>
                <path d="M15.7,11 L15.6,10.9 C15.6,10.9 15.5,10.9 15.5,11 C15.5,11 15.4,11 15.4,11 C15.4,11 15.3,11 15.3,11 C15.3,11 15.2,11 15.2,10.9 L14.2,9.5 C14.2,9.5 14.2,9.4 14.2,9.4 C14.2,9.4 14.2,9.3 14.2,9.3 C14.2,9.3 14.2,9.2 14.3,9.2 C14.3,9.2 14.4,9.1 14.4,9.1 L14.3,9 L13.2,9.8 L13.3,9.9 C13.3,9.9 13.4,9.9 13.4,9.8 C13.4,9.8 13.5,9.8 13.5,9.8 C13.5,9.8 13.6,9.8 13.6,9.8 C13.6,9.8 13.7,9.8 13.7,9.9 L14.7,11.3 C14.7,11.3 14.7,11.4 14.7,11.4 C14.7,11.4 14.7,11.5 14.7,11.5 C14.7,11.5 14.7,11.5 14.6,11.6 C14.6,11.6 14.5,11.7 14.5,11.7 L14.6,11.8 L15.7,11 Z" id="Path"></path>
                <path d="M18.3,9.5 L17.2,10.1 L17,10 C17,10 17.1,10 17.1,9.9 C17.1,9.9 17.2,9.8 17.2,9.8 C17.2,9.8 17.2,9.7 17.2,9.7 C17.2,9.7 17.2,9.6 17.2,9.6 L16.8,8.9 L15.9,9.4 L16.3,10.1 C16.3,10.1 16.3,10.2 16.4,10.2 C16.4,10.2 16.5,10.2 16.5,10.2 C16.5,10.2 16.6,10.2 16.6,10.2 C16.6,10.2 16.7,10.2 16.7,10.2 L16.8,10.3 L15.7,10.9 L15.6,10.8 C15.6,10.8 15.7,10.8 15.7,10.7 C15.7,10.7 15.8,10.6 15.8,10.6 C15.8,10.6 15.8,10.5 15.8,10.5 C15.8,10.5 15.8,10.4 15.8,10.4 L14.9,8.9 C14.9,8.9 14.9,8.8 14.8,8.8 C14.7,8.8 14.7,8.8 14.7,8.8 C14.7,8.8 14.6,8.8 14.6,8.8 C14.6,8.8 14.5,8.8 14.5,8.8 L14.4,8.7 L15.5,8.1 L15.6,8.2 C15.6,8.2 15.5,8.2 15.5,8.3 C15.5,8.3 15.4,8.4 15.4,8.4 C15.4,8.4 15.4,8.5 15.4,8.5 C15.4,8.5 15.4,8.6 15.4,8.6 L15.8,9.2 L16.7,8.7 L16.3,8.1 C16.3,8.1 16.3,8 16.2,8 C16.1,8 16.1,8 16.1,8 C16.1,8 16,8 16,8 C16,8 15.9,8 15.9,8 L15.8,7.9 L16.9,7.3 L17,7.4 C17,7.4 16.9,7.4 16.9,7.5 C16.9,7.5 16.8,7.6 16.8,7.6 C16.8,7.6 16.8,7.7 16.8,7.7 C16.8,7.7 16.8,7.8 16.8,7.8 L17.7,9.3 C17.7,9.3 17.7,9.4 17.8,9.4 C17.8,9.4 17.9,9.4 17.9,9.4 C17.9,9.4 18,9.4 18,9.4 C18.1,9.4 18.2,9.4 18.3,9.5 Z" id="Path"></path>
                <path d="M20.7,8.3 C20.7,8.3 20.6,8.3 20.6,8.3 C20.6,8.3 20.5,8.3 20.5,8.3 C20.5,8.3 20.4,8.3 20.4,8.3 C20.4,8.3 20.3,8.3 20.3,8.2 C20.2,8 19.9,7.8 19.7,7.6 C19.5,7.4 19.1,7 18.7,6.6 L18.4,6.7 C18.4,7.1 18.4,7.5 18.4,7.8 C18.4,8.2 18.4,8.5 18.4,8.8 C18.4,8.9 18.4,8.9 18.4,9 C18.4,9 18.4,9.1 18.3,9.1 C18.3,9.1 18.3,9.1 18.2,9.2 C18.2,9.2 18.1,9.2 18.1,9.3 L18.1,9.4 L19,9 L19,8.9 C18.9,8.9 18.8,8.9 18.7,8.9 C18.6,8.9 18.6,8.9 18.6,8.8 C18.6,8.8 18.6,8.8 18.6,8.7 C18.6,8.6 18.6,8.6 18.6,8.6 C18.6,8.6 18.6,8.5 18.6,8.4 C18.6,8.3 18.6,8.3 18.6,8.2 L19.4,7.9 L19.8,8.3 C19.8,8.3 19.8,8.4 19.7,8.4 C19.6,8.4 19.6,8.5 19.5,8.5 L19.5,8.6 L20.7,8.1 L20.7,8.3 Z M18.6,8.2 L18.6,7.2 L19.2,7.9 L18.6,8.2 Z" id="Shape" fill-rule="nonzero"></path>
                <path d="M23.5,7.8 L22.2,8.1 L22.2,8 C22.2,8 22.3,8 22.3,8 C22.3,8 22.4,8 22.4,8 C22.4,8 22.5,7.9 22.5,7.9 C22.5,7.9 22.5,7.8 22.5,7.8 L22.3,7 L21.3,7.2 L21.5,8 C21.5,8 21.5,8.1 21.5,8.1 C21.5,8.1 21.6,8.1 21.6,8.1 C21.6,8.1 21.7,8.1 21.7,8.1 C21.8,8.1 21.8,8.1 21.8,8.1 L21.8,8.2 L20.5,8.5 L20.5,8.4 C20.5,8.4 20.6,8.4 20.6,8.4 C20.6,8.4 20.7,8.4 20.7,8.4 C20.7,8.4 20.8,8.4 20.8,8.3 C20.8,8.3 20.8,8.2 20.8,8.2 L20.4,6.5 C20.4,6.5 20.4,6.4 20.4,6.4 C20.4,6.4 20.3,6.4 20.3,6.4 C20.3,6.4 20.2,6.4 20.2,6.4 C20.1,6.4 20.1,6.4 20.1,6.4 L20.1,6.3 L21.4,6 L21.4,6.1 C21.4,6.1 21.3,6.1 21.3,6.1 C21.3,6.1 21.2,6.1 21.2,6.1 C21.2,6.1 21.1,6.2 21.1,6.2 C21.1,6.2 21.1,6.3 21.1,6.3 L21.3,7 L22.3,6.8 L22.2,6.1 C22.2,6.1 22.2,6 22.2,6 C22.2,6 22.1,6 22.1,6 C22.1,6 22,6 22,6 C22,6 21.9,6 21.9,6 L21.9,5.9 L23.2,5.6 L23.2,5.7 C23.2,5.7 23.1,5.7 23.1,5.7 C23.1,5.7 23,5.7 23,5.8 C23,5.8 22.9,5.9 22.9,5.9 C22.9,5.9 22.9,6 22.9,6 L23.3,7.7 C23.3,7.7 23.3,7.8 23.3,7.8 C23.3,7.8 23.4,7.8 23.4,7.8 C23.4,7.8 23.5,7.8 23.5,7.8 C23.5,7.8 23.6,7.8 23.6,7.8 L23.5,7.8 Z" id="Path"></path>
                <path d="M24.9,7.7 C25,7.7 25.2,7.7 25.3,7.6 C25.4,7.6 25.5,7.5 25.6,7.4 C25.7,7.3 25.7,7.3 25.8,7.2 C25.8,7.1 25.9,7 25.9,6.9 L25.8,6.8 C25.7,7 25.6,7.1 25.5,7.2 C25.4,7.3 25.3,7.4 25.1,7.4 C25,7.4 24.9,7.4 24.8,7.4 C24.7,7.4 24.6,7.3 24.6,7.3 C24.5,7.2 24.5,7.1 24.4,7 C24.3,6.9 24.3,6.7 24.3,6.5 C24.3,6.2 24.3,5.9 24.4,5.7 C24.5,5.5 24.6,5.4 24.9,5.3 C25.1,5.3 25.2,5.3 25.4,5.4 C25.5,5.5 25.6,5.7 25.8,5.9 L25.9,5.9 L25.8,5 L25.7,5 L25.6,5.1 C25.5,5.1 25.4,5 25.3,5 C25.2,5 25.1,5 24.9,5 C24.7,5 24.5,5.1 24.4,5.1 C24.3,5.2 24.1,5.3 24,5.4 C23.9,5.5 23.8,5.7 23.8,5.9 C23.8,6.1 23.7,6.3 23.8,6.4 C23.9,6.5 23.9,6.8 24,6.9 C24.1,7 24.2,7.2 24.3,7.3 C24.4,7.4 24.6,7.4 24.7,7.5 C24.5,7.7 24.7,7.7 24.9,7.7 Z" id="Path"></path>
                <path d="M28.5,5.7 C28.4,5.6 28.3,5.4 28.2,5.3 C28.1,5.2 28,5.1 27.8,5.1 C27.7,5 27.5,5 27.3,5 C27.1,5 27,5 26.8,5.1 C26.6,5.2 26.5,5.2 26.4,5.3 C26.3,5.4 26.2,5.5 26.1,5.7 C26,5.8 26,6 26,6.2 C26,6.4 26,6.6 26.1,6.7 C26.2,6.8 26.3,7 26.4,7.1 C26.5,7.2 26.6,7.3 26.8,7.3 C26.9,7.4 27.1,7.4 27.3,7.4 C27.5,7.4 27.7,7.4 27.9,7.3 C28.1,7.2 28.2,7.1 28.3,7 C28.4,6.9 28.5,6.8 28.5,6.6 C28.5,6.4 28.6,6.3 28.6,6.1 C28.6,6.1 28.6,5.9 28.5,5.7 Z M27.9,6.7 C27.9,6.8 27.9,6.9 27.8,7.1 C27.7,7.2 27.7,7.2 27.6,7.3 C27.5,7.3 27.4,7.4 27.3,7.4 C27.2,7.4 27.1,7.4 27,7.3 C26.9,7.2 26.9,7.2 26.8,7.1 C26.8,7 26.7,6.9 26.7,6.7 C26.7,6.6 26.7,6.4 26.7,6.3 C26.7,5.9 26.8,5.7 26.9,5.5 C27,5.3 27.1,5.2 27.4,5.2 C27.5,5.2 27.6,5.2 27.7,5.3 C27.8,5.4 27.8,5.4 27.9,5.5 C28,5.6 28,5.7 28,5.9 C28,6 28,6.2 28,6.3 C27.9,6.5 27.9,6.6 27.9,6.7 Z" id="Shape" fill-rule="nonzero"></path>
                <path d="M30.7,6.4 C30.8,6.4 30.8,6.4 30.9,6.3 C31,6.3 31,6.2 31.1,6.2 C31.1,6.1 31.2,6.1 31.2,6 C31.2,5.8 31.2,5.7 31,5.6 C30.9,5.5 30.6,5.4 30.3,5.4 L29,5.2 L29,5.3 C29,5.3 29.1,5.3 29.1,5.3 C29.1,5.3 29.2,5.3 29.2,5.3 C29.2,5.3 29.3,5.3 29.3,5.4 C29.3,5.4 29.3,5.5 29.3,5.5 L29.1,7.2 C29.1,7.2 29.1,7.3 29.1,7.3 C29.1,7.3 29,7.4 29,7.4 C29,7.4 29,7.4 28.9,7.4 C28.8,7.4 28.8,7.4 28.8,7.4 L28.8,7.5 L30,7.6 C30.2,7.6 30.3,7.6 30.5,7.6 C30.7,7.6 30.7,7.6 30.9,7.5 C31,7.5 31.1,7.4 31.1,7.3 C31.1,7.2 31.2,7.1 31.2,7 C31.2,6.9 31.2,6.8 31.2,6.7 C31.2,6.6 31.1,6.6 31.1,6.5 C31,6.4 31,6.4 30.9,6.4 C30.8,6.3 30.7,6.3 30.7,6.3 C30.5,6.5 30.6,6.5 30.7,6.4 Z M30.4,7.1 C30.4,7.2 30.3,7.4 30.2,7.5 C30.1,7.6 30,7.6 29.8,7.6 C29.7,7.6 29.7,7.6 29.6,7.5 C29.6,7.5 29.5,7.4 29.5,7.4 L29.6,6.5 C29.6,6.5 29.6,6.5 29.7,6.5 C29.7,6.5 29.7,6.5 29.8,6.5 C30,6.5 30.2,6.6 30.2,6.7 C30.4,6.8 30.5,6.9 30.4,7.1 Z M30.3,6.3 C30.2,6.4 30.1,6.4 29.9,6.4 L29.8,6.4 L29.9,5.5 C29.9,5.5 30,5.5 30,5.5 C30,5.5 30,5.5 30.1,5.5 C30.2,5.5 30.3,5.6 30.4,5.6 C30.5,5.7 30.5,5.8 30.5,5.9 C30.4,6.1 30.4,6.2 30.3,6.3 Z" id="Shape" fill-rule="nonzero"></path>
                <path d="M33.6,8.4 C33.6,8.4 33.5,8.4 33.5,8.3 C33.5,8.3 33.4,8.2 33.4,8.2 C33.4,8.2 33.4,8.1 33.4,8.1 C33.4,7.9 33.3,7.6 33.3,7.2 C33.3,6.8 33.2,6.4 33.2,5.8 L32.9,5.7 C32.7,6 32.4,6.3 32.2,6.6 C32,6.9 31.8,7.1 31.6,7.4 C31.6,7.4 31.5,7.5 31.5,7.5 C31.5,7.5 31.4,7.5 31.4,7.6 C31.4,7.6 31.3,7.6 31.3,7.6 C31.3,7.6 31.2,7.6 31.2,7.6 L31.2,7.7 L32.2,8 L32.2,7.9 C32.1,7.9 32,7.8 32,7.8 C32,7.8 31.9,7.7 31.9,7.7 C31.9,7.7 31.9,7.7 31.9,7.6 C31.9,7.6 31.9,7.5 32,7.5 C32,7.5 32.1,7.4 32.1,7.4 C32.1,7.3 32.2,7.3 32.2,7.3 L33,7.5 L33.1,8 C33.1,8 33.1,8 33.1,8 C33.1,8 33,8 33,8 C32.9,8 32.9,8 32.8,8 L32.8,8.1 L34,8.5 L34,8.4 C33.6,8.5 33.6,8.4 33.6,8.4 Z M32,7.1 L32.6,6.4 L32.7,7.3 L32,7.1 Z" id="Shape" fill-rule="nonzero"></path>
                <path d="M36,6.9 L35.9,7 C35.9,7 36,7 36,7.1 C36.1,7.1 36.1,7.2 36.1,7.2 C36.1,7.2 36.1,7.3 36.1,7.3 C36.1,7.3 36.1,7.4 36.1,7.4 C36,7.6 35.8,7.9 35.5,8.1 C35.2,8.4 35,8.6 34.7,8.7 L34.5,8.6 L34.1,9.3 L34.2,9.4 C34.3,9.3 34.4,9.2 34.6,9.2 C34.7,9.1 34.9,9.1 35,9.1 C35.1,9.1 35.1,9.1 35.1,9.1 C35.1,9.1 35.2,9.1 35.2,9.2 L36.1,9.6 C36.1,9.6 36.2,9.6 36.2,9.7 C36.2,9.7 36.3,9.7 36.3,9.8 C36.4,9.9 36.4,10 36.4,10.1 C36.4,10.2 36.4,10.4 36.4,10.5 L36.5,10.6 L36.9,9.9 L36.8,9.8 C36.7,9.8 36.7,9.7 36.7,9.7 C36.7,9.7 36.7,9.6 36.7,9.6 L37.5,8.1 C37.5,8.1 37.5,8.1 37.6,8 C37.6,8 37.7,8 37.7,8 C37.7,8 37.8,8 37.8,8 C37.8,8 37.9,8 37.9,8 L38,7.9 L36,6.9 Z M36.1,9.3 C36.1,9.4 36.1,9.4 36.1,9.3 C36,9.4 36,9.4 35.9,9.4 L34.9,8.9 C35.2,8.8 35.5,8.5 35.7,8.2 C35.9,7.9 36.2,7.6 36.3,7.3 L36.9,7.6 L36.1,9.3 Z" id="Shape" fill-rule="nonzero"></path>
                <path d="M39.9,9.5 C39.9,9.4 39.8,9.2 39.7,9.1 C39.6,9 39.5,8.9 39.3,8.7 C39.2,8.6 39,8.5 38.8,8.5 C38.6,8.5 38.5,8.5 38.3,8.5 C38.1,8.5 38,8.6 37.8,8.7 C37.7,8.8 37.5,8.9 37.4,9.1 C37.3,9.2 37.2,9.4 37.2,9.6 C37.2,9.8 37.2,9.9 37.2,10.1 C37.2,10.2 37.3,10.4 37.4,10.5 C37.5,10.6 37.6,10.7 37.8,10.9 C38,11 38.2,11.1 38.3,11.1 C38.5,11.1 38.6,11.1 38.8,11.1 C38.9,11.1 39.1,11 39.2,10.9 C39.3,10.8 39.4,10.7 39.6,10.5 C39.7,10.3 39.8,10.2 39.8,10 C40,9.8 40,9.7 39.9,9.5 Z M39.4,9.8 C39.4,9.9 39.3,10 39.2,10.2 C39.1,10.3 39,10.4 38.9,10.6 C38.8,10.7 38.7,10.8 38.6,10.8 C38.5,10.9 38.4,10.9 38.3,10.9 C38.2,10.9 38.1,10.9 38,10.8 C37.9,10.8 37.8,10.7 37.8,10.6 C37.8,10.5 37.8,10.4 37.8,10.3 C37.8,10.2 37.9,10.1 37.9,9.9 C38,9.8 38,9.7 38.1,9.5 C38.3,9.2 38.5,9 38.7,8.9 C38.9,8.8 39.1,8.8 39.3,8.9 C39.4,9 39.5,9 39.5,9.1 C39.5,9.2 39.5,9.3 39.5,9.4 C39.5,9.5 39.4,9.7 39.4,9.8 Z" id="Shape" fill-rule="nonzero"></path>
                <path d="M41.4,13.5 L40.4,12.6 L40.5,12.5 C40.5,12.5 40.6,12.5 40.6,12.6 C40.6,12.6 40.7,12.6 40.7,12.7 C40.7,12.7 40.8,12.7 40.8,12.7 C40.8,12.7 40.9,12.7 40.9,12.6 L42.1,11.2 L41.4,10.6 L40.2,12 C40.2,12 40.2,12.1 40.2,12.1 C40.2,12.1 40.2,12.2 40.2,12.2 C40.2,12.2 40.2,12.2 40.3,12.3 C40.3,12.3 40.4,12.4 40.4,12.4 L40.3,12.5 L39.3,11.6 L39.4,11.5 C39.4,11.5 39.5,11.5 39.5,11.6 C39.5,11.6 39.6,11.6 39.6,11.7 C39.6,11.7 39.7,11.7 39.7,11.7 C39.7,11.7 39.8,11.7 39.8,11.6 L40.9,10.3 C40.9,10.3 40.9,10.2 40.9,10.2 C40.9,10.2 40.9,10.1 40.9,10.1 C40.9,10.1 40.9,10 40.8,10 C40.8,10 40.7,9.9 40.7,9.9 L40.8,9.8 L43,11.7 L42.9,11.8 C42.9,11.8 42.8,11.8 42.8,11.7 C42.8,11.7 42.7,11.7 42.7,11.6 C42.7,11.6 42.6,11.6 42.6,11.6 C42.6,11.6 42.5,11.6 42.5,11.7 L41.4,13 C41.4,13 41.4,13.1 41.4,13.1 C41.4,13.1 41.4,13.2 41.4,13.2 C41.4,13.2 41.4,13.3 41.5,13.3 C41.4,13.4 41.4,13.4 41.4,13.5 Z" id="Path"></path>
                <path d="M44.5,13.9 C44.5,14.1 44.5,14.2 44.4,14.4 C44.3,14.5 44.2,14.7 44.1,14.8 C44,14.9 43.8,15 43.7,15 C43.6,15.1 43.4,15.1 43.2,15.1 C43,15.1 42.9,15 42.7,15 C42.6,14.9 42.4,14.8 42.3,14.6 C42.2,14.5 42.1,14.3 42.1,14.2 C42,14.1 42,13.9 42,13.7 C42,13.6 42,13.4 42.1,13.2 C42.2,13.1 42.3,12.9 42.4,12.8 C42.5,12.7 42.7,12.6 42.9,12.5 C43.1,12.4 43.2,12.4 43.4,12.4 C43.6,12.4 43.7,12.5 43.9,12.5 C44,12.6 44.2,12.7 44.3,12.8 C44.4,12.9 44.5,13.1 44.5,13.2 C44.4,13.6 44.5,13.8 44.5,13.9 Z M42.9,14.7 C43,14.7 43.1,14.6 43.3,14.6 C43.4,14.5 43.5,14.5 43.7,14.4 C43.8,14.3 43.9,14.2 44,14.1 C44.1,14 44.1,13.9 44.2,13.8 C44.2,13.7 44.3,13.6 44.3,13.5 C44.3,13.4 44.3,13.3 44.2,13.2 C44.1,13.1 43.9,13 43.7,13 C43.5,13 43.2,13.2 43,13.4 C42.9,13.5 42.8,13.6 42.7,13.7 C42.6,13.8 42.6,13.9 42.5,14 C42.5,14.1 42.4,14.2 42.5,14.3 C42.5,14.4 42.5,14.5 42.6,14.6 C42.7,14.7 42.7,14.7 42.8,14.8 C42.6,14.8 42.7,14.8 42.9,14.7 Z M44.8,18.6 L44.9,18.5 C44.9,18.5 44.9,18.4 44.9,18.4 C44.9,18.4 44.9,18.3 44.9,18.3 C44.9,18.3 44.9,18.2 44.9,18.2 C44.9,18.2 44.9,18.2 45,18.1 L46.5,17.2 C46.5,17.2 46.6,17.2 46.6,17.2 C46.6,17.2 46.7,17.2 46.7,17.2 C46.7,17.2 46.8,17.3 46.8,17.3 C46.8,17.3 46.8,17.4 46.9,17.4 L47,17.3 L46.5,16.4 C46.5,16.4 46.4,16.4 46.4,16.4 C46.3,16.4 46.3,16.4 46.2,16.4 L44.8,16.6 L45.9,15.3 L45.3,14.3 L45.2,14.4 C45.2,14.4 45.2,14.5 45.3,14.5 C45.3,14.5 45.3,14.6 45.3,14.6 C45.3,14.6 45.3,14.7 45.2,14.7 C45.2,14.7 45.1,14.8 45.1,14.8 L44.1,15.4 C44,15.5 43.9,15.5 43.8,15.5 C43.7,15.5 43.7,15.5 43.6,15.5 C43.6,15.5 43.5,15.4 43.5,15.4 C43.5,15.4 43.4,15.3 43.4,15.3 L43.3,15.4 L43.8,16.3 L43.9,16.2 C43.9,16.2 43.9,16.1 43.9,16.1 C43.9,16 43.9,16 43.9,15.9 C43.9,15.9 43.9,15.8 44,15.8 C44.1,15.8 44.1,15.7 44.2,15.6 L45.5,14.9 L44.4,16.3 C44.4,16.4 44.3,16.4 44.2,16.5 C44.1,16.6 44.1,16.6 44.1,16.7 L44.2,16.9 L46.4,16.5 L44.8,17.4 C44.8,17.4 44.7,17.4 44.7,17.4 C44.7,17.4 44.6,17.4 44.6,17.4 C44.6,17.4 44.6,17.4 44.5,17.3 C44.5,17.3 44.4,17.2 44.4,17.2 L44.3,17.3 L44.8,18.6 Z M47.7,19.9 C47.6,20 47.6,20.2 47.5,20.3 C47.4,20.4 47.2,20.5 47,20.6 C46.8,20.7 46.7,20.7 46.5,20.7 C46.3,20.7 46.2,20.7 46,20.6 C45.9,20.5 45.7,20.5 45.6,20.3 C45.5,20.2 45.4,20 45.3,19.8 C45.2,19.6 45.2,19.5 45.2,19.3 C45.2,19.1 45.2,19 45.3,18.8 C45.4,18.7 45.4,18.5 45.5,18.4 C45.6,18.3 45.7,18.2 45.9,18.1 C46.1,18 46.3,18 46.4,18 C46.6,18 46.7,18 46.9,18.1 C47,18.2 47.2,18.3 47.3,18.4 C47.4,18.5 47.5,18.7 47.6,18.8 C47.7,19 47.7,19.1 47.7,19.3 C47.8,19.6 47.8,19.8 47.7,19.9 Z M45.9,20.2 C46,20.2 46.1,20.2 46.3,20.2 C46.4,20.2 46.6,20.1 46.7,20.1 C46.8,20.1 46.9,20 47.1,19.9 C47.2,19.8 47.3,19.8 47.4,19.7 C47.5,19.6 47.5,19.5 47.6,19.4 C47.6,19.3 47.6,19.2 47.6,19.1 C47.5,18.9 47.4,18.8 47.2,18.8 C47,18.8 46.7,18.8 46.4,18.9 C46.3,19 46.1,19 46,19.1 C45.9,19.2 45.8,19.2 45.7,19.3 C45.6,19.4 45.6,19.5 45.6,19.6 C45.6,19.7 45.6,19.8 45.6,19.9 C45.6,20 45.7,20.1 45.8,20.1 C45.7,20.1 45.8,20.2 45.9,20.2 Z M48.1,22.8 L48.8,22.6 L48.2,20.5 L48.1,20.5 C48.1,20.5 48.1,20.6 48.1,20.6 C48.1,20.7 48.1,20.7 48.1,20.7 C48.1,20.7 48.1,20.8 48.1,20.8 C48.1,20.8 48,20.8 48,20.8 L46.4,21.3 C46.4,21.3 46.3,21.3 46.3,21.3 C46.3,21.3 46.2,21.3 46.2,21.2 C46.2,21.2 46.2,21.2 46.1,21.1 C46.1,21.1 46.1,21 46.1,21 L46,21 L46.4,22.3 L46.5,22.3 C46.5,22.2 46.5,22.2 46.5,22.2 C46.5,22.2 46.5,22.1 46.5,22.1 C46.5,22.1 46.5,22 46.5,22 C46.5,22 46.6,22 46.6,21.9 L48.5,21.4 L48.6,21.7 C48.6,21.8 48.6,21.8 48.6,21.8 C48.6,21.8 48.6,21.9 48.6,21.9 C48.6,21.9 48.6,22 48.6,22 C48.6,22 48.5,22.1 48.5,22.2 C48.5,22.2 48.4,22.3 48.4,22.3 C48.4,22.3 48.3,22.4 48.3,22.4 L48.1,22.8 Z M46.8,25.9 L46.6,24.6 L46.7,24.6 C46.7,24.7 46.7,24.7 46.8,24.8 C46.8,24.9 46.9,24.9 46.9,24.9 C46.9,24.9 46.9,24.9 46.9,24.9 L47.4,24.6 L47.3,23.8 C47.3,23.8 47.2,23.8 47.1,23.8 C47,23.8 47,23.8 46.9,23.8 C46.8,23.8 46.8,23.8 46.8,23.8 C46.8,23.8 46.8,23.8 46.7,23.8 C46.7,23.8 46.6,23.8 46.6,23.9 C46.6,24 46.6,24 46.6,24.2 L46.5,24.2 L46.4,23.2 L46.5,23.2 C46.5,23.2 46.5,23.3 46.5,23.3 C46.5,23.3 46.5,23.4 46.6,23.4 C46.6,23.4 46.7,23.5 46.7,23.5 C46.7,23.5 46.8,23.5 46.8,23.6 C47.1,23.7 47.5,23.8 47.8,23.9 C48.1,24 48.5,24.1 48.9,24.2 L48.9,24.5 C48.4,24.8 48,25 47.7,25.2 C47.4,25.4 47.2,25.5 47,25.6 C47,25.6 46.9,25.6 46.9,25.7 C46.9,25.7 46.9,25.8 46.8,25.8 C46.8,25.8 46.8,25.9 46.8,25.9 C46.8,25.9 46.9,25.8 46.8,25.9 Z M47.6,24.5 L48.4,24 L47.5,23.8 L47.6,24.5 Z" id="Shape" fill-rule="nonzero"></path>
                <path d="M8.6,32.5 C8.6,32.5 8.6,32.4 8.6,32.3 C8.6,32.2 8.6,32.2 8.6,32.1 L8.8,32 L9.8,34.7 L9.6,34.8 C9.6,34.8 9.6,34.7 9.5,34.7 C9.5,34.6 9.4,34.6 9.4,34.6 C9.4,34.6 9.3,34.5 9.3,34.5 C9.3,34.5 9.2,34.5 9.2,34.5 L7,35.2 C7,35.2 6.9,35.2 6.9,35.3 C6.9,35.3 6.9,35.4 6.9,35.4 C6.9,35.4 6.9,35.5 6.9,35.6 C6.9,35.7 6.9,35.7 6.9,35.8 L6.7,35.9 L6.1,34.2 L6.3,34.1 C6.3,34.1 6.3,34.2 6.4,34.2 C6.4,34.3 6.5,34.3 6.5,34.3 C6.5,34.3 6.6,34.4 6.6,34.4 C6.6,34.4 6.7,34.4 6.7,34.4 L9.1,33.5 L8.9,32.8 C8.4,33 7.9,33 7.5,33.1 C7.1,33.1 6.8,33.1 6.5,33.1 C6.2,33.1 6,33 5.8,32.9 C5.7,32.8 5.6,32.7 5.5,32.6 C5.5,32.5 5.5,32.4 5.5,32.4 C5.5,32.3 5.5,32.3 5.5,32.2 C5.5,32.2 5.6,32.1 5.6,32.1 C5.6,32.1 5.7,32.1 5.7,32 C5.8,32 5.9,32 6.1,32 C6.2,32.1 6.3,32.1 6.3,32.2 C6.3,32.3 6.3,32.4 6.3,32.4 C6.3,32.5 6.2,32.6 6.2,32.7 C6.3,32.7 6.4,32.7 6.6,32.8 C6.8,32.8 6.9,32.8 7.1,32.8 C7.3,32.8 7.5,32.8 7.7,32.7 C7.9,32.7 8.1,32.6 8.3,32.5 C8.4,32.5 8.5,32.4 8.5,32.4 C8.5,32.6 8.6,32.5 8.6,32.5 Z" id="Path"></path>
                <path d="M10.9,37.2 C10.9,37 10.8,36.8 10.7,36.6 C10.6,36.4 10.4,36.2 10.2,36.1 C10,36 9.8,35.9 9.6,35.8 C9.4,35.7 9.2,35.7 8.9,35.8 C8.7,35.8 8.4,35.9 8.2,36 C8,36.1 7.8,36.3 7.7,36.5 C7.6,36.7 7.5,36.9 7.4,37.1 C7.4,37.3 7.4,37.5 7.4,37.7 C7.4,37.9 7.5,38.1 7.6,38.3 C7.7,38.5 7.9,38.8 8.1,38.9 C8.3,39 8.5,39.1 8.7,39.2 C8.9,39.2 9.1,39.3 9.3,39.2 C9.5,39.2 9.7,39.1 9.9,39 C10.1,38.9 10.3,38.7 10.4,38.5 C10.5,38.3 10.6,38.1 10.7,37.9 C10.9,37.6 10.9,37.4 10.9,37.2 Z M10.4,37.5 C10.3,37.6 10.2,37.7 10,37.9 C9.9,38 9.7,38.1 9.5,38.2 C9.3,38.3 9.1,38.4 9,38.4 C8.9,38.4 8.7,38.4 8.5,38.5 C8.4,38.5 8.2,38.5 8.1,38.4 C8,38.3 7.9,38.3 7.8,38.1 C7.7,38 7.7,37.9 7.7,37.7 C7.7,37.5 7.8,37.5 7.8,37.3 C7.8,37.1 8,37.1 8.1,36.9 C8.2,36.8 8.4,36.7 8.6,36.6 C9,36.4 9.4,36.2 9.7,36.2 C10,36.2 10.2,36.3 10.3,36.6 C10.4,36.7 10.4,36.9 10.4,37 C10.5,37.2 10.4,37.4 10.4,37.5 Z" id="Shape" fill-rule="nonzero"></path>
                <path d="M12,43.8 L10.9,42.4 L11,42.3 C11,42.3 11.1,42.4 11.1,42.4 C11.2,42.4 11.2,42.5 11.2,42.5 C11.3,42.5 11.3,42.5 11.3,42.5 C11.3,42.5 11.4,42.5 11.4,42.4 L13.3,40.8 L10.4,41.8 L10.2,41.6 C10.2,41.6 10.3,41.5 10.4,41.3 C10.5,41.2 10.5,41.1 10.6,41 L11.8,38.9 L10.3,40.2 C10.2,40.3 10.1,40.4 10,40.5 C9.9,40.6 9.9,40.7 9.9,40.7 C9.9,40.7 9.9,40.8 10,40.9 C10,41 10.1,41 10.1,41.1 L10,41.2 L9.1,40.1 L9.2,40 C9.2,40 9.3,40.1 9.3,40.1 C9.4,40.2 9.4,40.2 9.5,40.2 C9.6,40.2 9.6,40.2 9.7,40.2 C9.8,40.2 9.9,40.1 10.1,40 L11.3,38.9 C11.4,38.8 11.4,38.8 11.5,38.7 C11.5,38.6 11.5,38.6 11.5,38.5 C11.5,38.4 11.5,38.4 11.5,38.3 C11.5,38.2 11.4,38.2 11.4,38.1 L11.5,38 L12.5,39.1 L11.4,41.1 L13.1,40.5 C13.2,40.5 13.2,40.4 13.3,40.4 C13.4,40.4 13.4,40.3 13.4,40.3 L14.3,41.4 L14.2,41.5 C14.2,41.5 14.1,41.4 14.1,41.4 C14.1,41.4 14,41.3 14,41.3 C13.9,41.3 13.9,41.3 13.9,41.3 C13.9,41.3 13.8,41.3 13.8,41.4 L12.1,42.9 C12.1,42.9 12,43 12,43 C12,43 12,43.1 12,43.1 C12,43.1 12,43.2 12.1,43.2 C12.1,43.3 12.2,43.3 12.2,43.3 L12,43.8 Z" id="Path"></path>
                <path d="M14.5,41.6 L14.4,41.7 C14.4,41.7 14.5,41.8 14.5,41.8 C14.5,41.9 14.6,41.9 14.6,41.9 C14.6,42 14.6,42 14.6,42 C14.6,42 14.6,42.1 14.5,42.1 L13.2,44 C13.2,44 13.1,44.1 13.1,44.1 C13.1,44.1 13,44.1 13,44.1 C13,44.1 12.9,44.1 12.9,44 C12.8,44 12.8,43.9 12.8,43.9 L12.7,44 L14.4,45.1 C14.5,45.2 14.6,45.3 14.8,45.3 C14.9,45.3 15.1,45.4 15.2,45.4 C15.3,45.4 15.5,45.4 15.6,45.3 C15.7,45.2 15.8,45.2 15.9,45 C16,44.9 16,44.7 16,44.6 C16,44.5 16,44.3 15.9,44.2 C15.8,44.1 15.8,43.9 15.6,43.8 C15.5,43.7 15.4,43.6 15.2,43.4 C15.1,43.4 15.1,43.3 15,43.3 C14.9,43.3 14.9,43.2 14.8,43.2 L15.5,42.2 L15.9,42.5 C16,42.5 16,42.6 16,42.6 C16,42.6 16.1,42.7 16.1,42.7 C16.2,42.8 16.2,42.9 16.2,43.1 C16.2,43.3 16.2,43.5 16.1,43.6 L16.2,43.7 L16.7,43 L14.5,41.6 Z M14.9,43.8 C15.1,43.9 15.2,44.1 15.3,44.3 C15.3,44.5 15.3,44.7 15.2,44.9 C15.1,45.1 14.9,45.2 14.7,45.2 C14.6,45.2 14.4,45.2 14.2,45.1 C14.1,45 14.1,45 14,44.9 C14,44.8 13.9,44.8 14,44.7 L14.7,43.7 C14.7,43.7 14.8,43.7 14.8,43.8 C14.8,43.7 14.8,43.8 14.9,43.8 Z" id="Shape" fill-rule="nonzero"></path>
                <path d="M19.1,47.7 C19.1,47.7 19,47.6 19,47.6 C19,47.6 18.9,47.5 18.9,47.5 C18.9,47.5 18.9,47.4 18.9,47.4 C18.9,47.1 18.9,46.7 18.9,46.3 C18.9,45.8 18.9,45.2 19,44.4 L18.6,44.2 C18.2,44.6 17.8,44.9 17.5,45.3 C17.2,45.6 16.8,45.9 16.5,46.3 C16.4,46.4 16.4,46.4 16.3,46.4 C16.2,46.4 16.2,46.5 16.1,46.5 C16.1,46.5 16,46.5 16,46.5 C15.9,46.5 15.9,46.5 15.8,46.5 L15.7,46.7 L16.9,47.2 L17,47 C16.8,46.9 16.8,46.9 16.7,46.8 C16.7,46.8 16.6,46.7 16.7,46.7 C16.7,46.7 16.7,46.7 16.7,46.6 C16.7,46.6 16.7,46.5 16.8,46.5 C16.9,46.4 16.9,46.4 17,46.3 C17.1,46.2 17.1,46.2 17.2,46.1 L18.2,46.6 L18.2,47.3 C18.2,47.3 18.2,47.4 18.2,47.4 C18.2,47.4 18.1,47.4 18,47.4 C17.9,47.4 17.8,47.4 17.7,47.3 L17.6,47.5 L19.2,48.2 L19.3,47.9 C19.2,47.8 19.2,47.7 19.1,47.7 Z M18.2,46.1 L17.3,45.7 L18.2,44.8 L18.2,46.1 Z" id="Shape" fill-rule="nonzero"></path>
                <path d="M23.1,46 C22.9,45.8 22.6,45.6 22.2,45.5 L20.5,45 L20.5,45.2 C20.5,45.2 20.6,45.2 20.6,45.3 C20.7,45.3 20.7,45.4 20.7,45.4 C20.8,45.5 20.8,45.5 20.8,45.5 C20.8,45.5 20.8,45.6 20.8,45.6 L20.2,47.8 C20.2,47.9 20.2,47.9 20.1,47.9 C20.1,47.9 20,48 20,48 C20,48 19.9,48 19.9,48 C19.8,48 19.8,48 19.7,48 L19.7,48.2 L21.4,48.7 L21.4,48.5 C21.3,48.5 21.3,48.5 21.2,48.4 C21.1,48.4 21.1,48.4 21.1,48.3 C21.1,48.2 21,48.2 21,48.2 C21,48.2 21,48.1 21,48.1 L21.2,47.2 L21.4,47.3 C21.6,47.4 21.8,47.4 22,47.4 C22.2,47.4 22.4,47.4 22.5,47.4 C22.6,47.4 22.8,47.3 22.9,47.2 C23,47.1 23.1,47 23.1,46.8 C23.3,46.4 23.3,46.2 23.1,46 Z M22.4,46.6 C22.3,46.8 22.2,47 22.1,47.1 C21.9,47.2 21.7,47.2 21.5,47.1 L21.4,47.1 L21.8,45.7 L22,45.7 C22.2,45.8 22.4,45.9 22.5,46 C22.6,46.1 22.4,46.3 22.4,46.6 Z" id="Shape" fill-rule="nonzero"></path>
                <path d="M24,46.1 L24,46.3 C24,46.3 24.1,46.3 24.2,46.3 C24.3,46.3 24.3,46.3 24.4,46.4 C24.5,46.4 24.5,46.5 24.5,46.5 C24.5,46.5 24.5,46.6 24.5,46.7 C24.5,47.1 24.4,47.4 24.1,47.9 C23.9,48.4 23.7,48.8 23.5,49 L23.2,49 L23.1,50 L23.3,50 C23.4,49.8 23.5,49.7 23.6,49.5 C23.7,49.4 23.9,49.3 24,49.3 C24.1,49.3 24.1,49.3 24.2,49.3 C24.3,49.2 24.3,49.2 24.4,49.3 L25.6,49.4 C25.7,49.4 25.7,49.4 25.8,49.4 C25.9,49.4 25.9,49.4 26,49.4 C26.1,49.4 26.2,49.5 26.4,49.7 C26.5,49.9 26.6,50.1 26.6,50.2 L26.8,50.2 L26.9,49.2 L26.7,49.2 C26.6,49.2 26.5,49.2 26.5,49.1 C26.5,49.1 26.4,49 26.4,48.9 L26.6,46.6 C26.6,46.6 26.6,46.5 26.6,46.5 C26.6,46.5 26.7,46.4 26.7,46.4 C26.7,46.4 26.8,46.4 26.9,46.4 C27,46.4 27,46.4 27.1,46.4 L27.1,46.2 L24,46.1 Z M25.5,48.9 C25.5,49 25.5,49 25.4,49 C25.4,49 25.3,49 25.3,49 L23.8,48.9 C24.1,48.5 24.3,48.1 24.5,47.6 C24.7,47.1 24.8,46.6 24.9,46.2 L25.8,46.3 L25.5,48.9 Z" id="Shape" fill-rule="nonzero"></path>
                <path d="M34.3,48.3 L33.1,48.6 C33,48.5 32.9,48.3 32.9,48.2 C32.8,48.1 32.7,47.9 32.7,47.8 C32.6,47.7 32.6,47.7 32.5,47.6 C32.4,47.5 32.4,47.5 32.3,47.5 C32.2,47.5 32.2,47.5 32.1,47.4 C32,47.4 31.9,47.4 31.8,47.4 L32,48.4 C32,48.4 32,48.5 32.1,48.5 C32.1,48.5 32.2,48.6 32.2,48.6 C32.2,48.6 32.3,48.6 32.3,48.6 C32.3,48.6 32.4,48.6 32.5,48.6 L32.5,48.8 L30.8,49.2 L30.8,49 C30.8,49 30.9,49 31,49 C31.1,49 31.1,49 31.1,48.9 C31.1,48.8 31.2,48.8 31.2,48.8 C31.2,48.8 31.2,48.7 31.2,48.7 L30.7,46.5 C30.7,46.5 30.7,46.4 30.6,46.4 C30.6,46.4 30.5,46.3 30.5,46.3 C30.5,46.3 30.4,46.3 30.3,46.3 C30.2,46.3 30.2,46.3 30.2,46.3 L30.2,46.1 L31.9,45.7 L31.9,45.9 C31.9,45.9 31.8,45.9 31.7,46 C31.6,46 31.6,46 31.6,46.1 C31.6,46.1 31.5,46.2 31.5,46.2 C31.5,46.2 31.5,46.3 31.5,46.3 L31.7,47.4 L31.8,47.4 C31.9,47.4 31.9,47.4 32,47.3 C32.1,47.3 32.1,47.2 32.1,47.2 C32.2,47.1 32.2,47 32.3,46.8 C32.3,46.7 32.3,46.6 32.4,46.4 C32.4,46.3 32.4,46.2 32.4,46 C32.4,45.9 32.5,45.8 32.5,45.7 C32.5,45.6 32.6,45.6 32.7,45.5 C32.8,45.5 32.8,45.4 32.9,45.4 C33,45.4 33.2,45.4 33.3,45.4 C33.4,45.5 33.5,45.5 33.5,45.6 C33.5,45.7 33.5,45.8 33.5,45.9 C33.4,46 33.4,46 33.3,46.1 C33.2,46.1 33.2,46.1 33.1,46.1 C33,46.1 32.9,46 32.8,45.9 C32.8,46 32.7,46 32.7,46.1 C32.7,46.2 32.7,46.3 32.7,46.4 C32.7,46.6 32.6,46.7 32.6,46.8 C32.6,46.9 32.5,47 32.5,47 C32.7,47 32.9,47.1 33.1,47.1 C33.3,47.2 33.4,47.3 33.5,47.5 C33.6,47.6 33.6,47.6 33.7,47.7 C33.8,47.8 33.8,47.8 33.8,47.9 C33.9,48 33.9,48 34,48.1 C34,48.1 34.1,48.1 34.1,48.1 C34.1,48.1 34.2,48.1 34.2,48.1 C34.2,48.3 34.3,48.3 34.3,48.3 Z" id="Path"></path>
                <path d="M37.9,46.4 C37.9,46.4 37.8,46.4 37.8,46.4 C37.8,46.4 37.7,46.4 37.7,46.4 C37.6,46.4 37.6,46.4 37.5,46.4 C37.5,46.4 37.4,46.4 37.4,46.3 C37.2,46.1 36.9,45.8 36.6,45.5 C36.3,45.2 35.8,44.7 35.2,44.2 L34.8,44.4 C34.8,44.9 34.8,45.5 34.8,45.9 C34.8,46.3 34.8,46.8 34.8,47.3 C34.8,47.4 34.8,47.4 34.8,47.5 C34.8,47.6 34.8,47.6 34.7,47.7 C34.7,47.7 34.6,47.8 34.6,47.8 C34.6,47.8 34.5,47.9 34.5,47.9 L34.6,48.1 L35.8,47.6 L35.7,47.4 C35.6,47.4 35.4,47.5 35.3,47.5 C35.2,47.5 35.2,47.5 35.2,47.4 C35.2,47.4 35.2,47.4 35.2,47.3 C35.2,47.2 35.2,47.2 35.2,47.1 C35.2,47 35.2,47 35.2,46.9 C35.2,46.8 35.2,46.7 35.2,46.7 L36.2,46.2 L36.7,46.7 C36.7,46.7 36.7,46.7 36.7,46.7 C36.7,46.7 36.7,46.8 36.6,46.8 C36.5,46.9 36.4,46.9 36.4,47 L36.5,47.2 L38.1,46.5 L37.9,46.4 Z M35,46.5 L34.9,45.2 L35.8,46.1 L35,46.5 Z" id="Shape" fill-rule="nonzero"></path>
                <path d="M41.6,44 L41.5,43.9 C41.5,43.9 41.4,43.9 41.4,44 C41.3,44 41.3,44 41.3,44.1 C41.2,44.1 41.2,44.1 41.2,44.1 C41.2,44.1 41.1,44.1 41.1,44 L39.8,42.1 C39.8,42.1 39.8,42 39.7,42 C39.7,42 39.7,41.9 39.7,41.9 C39.7,41.9 39.8,41.8 39.8,41.8 C39.8,41.8 39.9,41.7 39.9,41.7 L39.8,41.6 L36.6,43.8 L36.7,43.9 C36.7,43.9 36.8,43.9 36.8,43.8 C36.9,43.8 36.9,43.8 37,43.7 C37.1,43.7 37.1,43.7 37.1,43.7 C37.1,43.7 37.2,43.7 37.2,43.8 L38.5,45.7 C38.5,45.7 38.5,45.8 38.6,45.8 C38.6,45.8 38.6,45.9 38.6,45.9 C38.6,45.9 38.5,46 38.5,46 C38.4,46 38.4,46.1 38.4,46.1 L38.5,46.2 L39.9,45.2 L39.8,45.1 C39.8,45.1 39.7,45.1 39.7,45.2 C39.6,45.2 39.6,45.2 39.6,45.2 C39.5,45.2 39.5,45.2 39.5,45.2 C39.5,45.2 39.4,45.2 39.4,45.1 L37.9,43 L39,42.3 L40.5,44.4 C40.5,44.4 40.5,44.5 40.6,44.5 C40.6,44.5 40.6,44.6 40.6,44.6 C40.6,44.6 40.6,44.7 40.5,44.7 C40.5,44.7 40.4,44.8 40.4,44.8 L40.5,44.9 L41.6,44 Z" id="Path"></path>
                <path d="M43.4,42.1 L42.2,43.4 L42.1,43.3 C42.1,43.3 42.2,43.2 42.2,43.2 C42.2,43.2 42.3,43.1 42.3,43.1 C42.3,43 42.3,43 42.3,43 C42.3,43 42.3,42.9 42.2,42.9 L40.5,41.3 C40.5,41.3 40.4,41.2 40.4,41.2 C40.4,41.2 40.3,41.2 40.3,41.2 C40.3,41.2 40.2,41.2 40.2,41.3 C40.1,41.3 40.1,41.4 40.1,41.4 L40,41.3 L41.2,40 L41.3,40.1 C41.3,40.1 41.2,40.2 41.2,40.2 C41.2,40.3 41.1,40.3 41.1,40.3 C41.1,40.4 41.1,40.4 41.1,40.4 C41.1,40.4 41.1,40.5 41.2,40.5 L42.9,42.1 C42.9,42.1 43,42.2 43,42.2 C43,42.2 43.1,42.2 43.1,42.2 C43.1,42.2 43.2,42.2 43.2,42.1 C43.3,42.1 43.3,42 43.3,42 L43.4,42.1 Z" id="Path"></path>
                <path d="M43.8,37.8 L43.1,37.3 L41.3,39.9 L42,40.4 L42.1,40.3 C42,40.2 41.9,40.1 41.9,39.9 C41.8,39.7 41.8,39.6 41.9,39.5 C41.9,39.5 42,39.4 42,39.4 C42,39.3 42.1,39.3 42.1,39.3 L42.2,39.2 L44.3,40.7 C44.3,40.7 44.4,40.8 44.4,40.8 C44.4,40.8 44.4,40.9 44.4,40.9 C44.4,40.9 44.4,41 44.3,41 C44.3,41.1 44.2,41.1 44.2,41.2 L44.3,41.3 L45.3,39.8 L45.2,39.7 C45.2,39.7 45.1,39.8 45.1,39.8 C45,39.8 45,39.9 45,39.9 C45,39.9 44.9,39.9 44.9,39.9 C44.9,39.9 44.8,39.9 44.8,39.8 L42.7,38.3 L42.8,38.2 C42.8,38.2 42.9,38.1 42.9,38.1 C42.9,38 43,38 43,38 C43.1,37.9 43.2,37.9 43.4,37.9 C43.6,37.9 43.8,37.9 43.9,38 L43.8,37.8 Z" id="Path"></path>
                <path d="M47.6,35.4 C47.6,35.5 47.5,35.5 47.5,35.5 C47.5,35.5 47.4,35.6 47.4,35.6 C47.4,35.6 47.3,35.7 47.3,35.7 C47.3,35.7 47.2,35.7 47.2,35.7 C46.9,35.7 46.5,35.6 46.1,35.6 C45.6,35.5 45,35.5 44.2,35.4 L44,35.8 C44.4,36.2 44.7,36.6 45,37 C45.3,37.4 45.6,37.7 45.9,38.1 C45.9,38.2 46,38.2 46,38.3 C46,38.4 46,38.4 46,38.5 C46,38.5 46,38.6 46,38.6 C46,38.7 46,38.7 45.9,38.8 L46,38.9 L46.6,37.7 L46.5,37.6 C46.4,37.7 46.3,37.8 46.3,37.9 C46.2,37.9 46.2,38 46.1,37.9 C46.1,37.9 46.1,37.9 46,37.9 C46,37.9 45.9,37.8 45.9,37.8 C45.8,37.7 45.8,37.7 45.7,37.6 C45.7,37.5 45.6,37.5 45.6,37.4 L46.1,36.4 L46.8,36.5 C46.8,36.5 46.9,36.5 46.9,36.5 C46.9,36.5 46.9,36.6 46.9,36.7 C46.9,36.8 46.8,36.9 46.8,37 L46.9,37.1 L47.6,35.4 Z M45.2,37.2 L44.3,36.2 L45.6,36.3 L45.2,37.2 Z" id="Shape" fill-rule="nonzero"></path>
                <path d="M45.2,33.1 C45.2,33.1 45.1,33.2 45.1,33.3 C45.1,33.4 45,33.4 45,33.4 L44.8,33.4 L45.6,30.6 L45.8,30.6 C45.8,30.6 45.8,30.7 45.8,30.8 C45.8,30.9 45.8,30.9 45.8,31 C45.8,31.1 45.8,31.1 45.9,31.1 C45.9,31.1 46,31.1 46,31.2 L48.2,31.8 C48.2,31.8 48.3,31.8 48.3,31.8 C48.3,31.8 48.4,31.8 48.4,31.7 C48.4,31.6 48.4,31.6 48.5,31.6 C48.5,31.5 48.5,31.5 48.6,31.5 L48.8,31.5 L48.3,33.2 L48.1,33.2 C48.1,33.2 48.1,33.1 48.1,33 C48.1,32.9 48.1,32.9 48.1,32.9 C48.1,32.8 48.1,32.8 48,32.8 C48,32.8 47.9,32.7 47.9,32.7 L45.4,32 L45.2,32.7 C45.7,32.9 46.2,33.1 46.5,33.2 C46.9,33.4 47.1,33.6 47.3,33.8 C47.5,34 47.7,34.2 47.7,34.4 C47.7,34.6 47.8,34.7 47.7,34.8 C47.7,34.9 47.6,35 47.6,35 C47.6,35.1 47.5,35.1 47.5,35.1 C47.5,35.1 47.4,35.1 47.4,35.1 C47.3,35.1 47.3,35.1 47.3,35.1 C47.2,35.1 47.1,35 47,34.9 C47,34.8 46.9,34.7 47,34.6 C47,34.5 47.1,34.5 47.1,34.4 C47.2,34.3 47.3,34.3 47.4,34.2 C47.3,34.1 47.2,34 47.1,33.9 C47,33.8 46.8,33.7 46.7,33.6 C46.5,33.5 46.3,33.4 46.2,33.3 C46,33.2 45.8,33.2 45.6,33.1 C45.5,33.1 45.4,33.1 45.4,33.1 C45.3,33 45.2,33 45.2,33.1 Z" id="Path"></path>
                <path d="M100.2,31.3 C100.1,31.2 99.8,31.2 99.5,31.1 C99.2,31.1 99,31 98.9,31 L98.9,30.4 L109.1,30.4 L109.1,31 C108.9,31 108.7,31 108.5,31.1 C108.3,31.2 108.1,31.2 107.9,31.2 C107.7,31.3 107.6,31.4 107.5,31.5 C107.4,31.6 107.4,31.8 107.4,32 L107.4,40 C107.4,40.2 107.4,40.4 107.5,40.5 C107.6,40.6 107.7,40.7 107.9,40.8 C108,40.8 108.2,40.9 108.5,40.9 C108.7,40.9 108.9,41 109.1,41 L109.1,41.6 L103,41.6 L103,41 C103.1,41 103.4,41 103.6,41 C103.8,41 104,41 104.1,40.9 C104.3,40.8 104.4,40.7 104.5,40.6 C104.6,40.5 104.6,40.3 104.6,40.1 L104.6,31.1 L101.9,31.1 C101.8,33 101.7,34.7 101.3,36 C101,37.4 100.6,38.5 100.2,39.4 C99.7,40.3 99.2,41 98.7,41.4 C98.2,41.8 97.7,42 97.2,42 C96.8,42 96.6,42 96.3,41.9 C96,41.8 95.9,41.7 95.8,41.5 C95.7,41.4 95.6,41.2 95.6,41 C95.6,40.8 95.5,40.6 95.5,40.5 C95.5,40 95.6,39.6 96,39.3 C96.3,39 96.7,38.9 97.1,38.9 C97.4,38.9 97.7,39 98,39.2 C98.3,39.4 98.5,39.6 98.8,39.9 C99,39.6 99.2,39.2 99.4,38.7 C99.6,38.2 99.8,37.6 100,37 C100.2,36.3 100.4,35.6 100.5,35 C100.6,34.3 100.7,33.6 100.7,32.8 C100.7,32.4 100.7,32.2 100.6,31.9 C100.5,31.5 100.4,31.4 100.2,31.3 Z M120.7,31.6 C121.3,32.1 121.7,32.7 122,33.5 C122.3,34.2 122.5,35 122.5,36 C122.5,36.8 122.4,37.6 122.1,38.4 C121.8,39.2 121.4,39.8 120.9,40.3 C120.4,40.9 119.7,41.3 119,41.6 C118.3,41.9 117.4,42.1 116.4,42.1 C115.6,42.1 114.8,42 114,41.7 C113.3,41.4 112.6,41 112.1,40.5 C111.5,40 111.1,39.4 110.8,38.6 C110.5,37.9 110.3,37.1 110.3,36.2 C110.3,35.3 110.4,34.4 110.8,33.7 C111.2,33 111.5,32.3 112.1,31.8 C112.6,31.3 113.3,30.9 114.1,30.6 C114.8,30.3 115.7,30.2 116.5,30.2 C117.3,30.2 118.1,30.3 118.9,30.6 C119.5,30.7 120.1,31.1 120.7,31.6 Z M118.6,39.8 C118.8,39.3 119,38.8 119.1,38.2 C119.2,37.6 119.3,36.9 119.3,36.1 C119.3,35.5 119.3,34.8 119.2,34.2 C119.1,33.6 119,33 118.7,32.5 C118.5,32 118.2,31.6 117.8,31.3 C117.4,31 116.9,30.9 116.4,30.9 C115.4,30.9 114.7,31.4 114.2,32.3 C113.7,33.2 113.5,34.5 113.5,36.2 C113.5,36.9 113.6,37.6 113.7,38.2 C113.8,38.8 114,39.4 114.2,39.8 C114.4,40.3 114.7,40.7 115.1,40.9 C115.5,41.1 115.9,41.3 116.5,41.3 C117.1,41.3 117.5,41.2 117.9,40.9 C118.1,40.6 118.4,40.2 118.6,39.8 Z M139.3,41.7 L133.2,41.7 L133.2,41.1 C133.4,41.1 133.6,41.1 133.9,41 C134.1,41 134.3,40.9 134.4,40.9 C134.6,40.8 134.7,40.7 134.8,40.6 C134.9,40.5 134.9,40.3 134.9,40.1 L134.9,31.6 L131,41.6 L130,41.6 C130,41.4 129.8,41.1 129.6,40.6 C129.4,40.1 129.2,39.7 129.1,39.4 L126.2,31.6 L126.2,38.5 C126.2,39.2 126.2,39.7 126.3,40 C126.4,40.4 126.5,40.6 126.7,40.7 C126.8,40.8 127.1,40.9 127.4,41 C127.8,41.1 128,41.2 128.1,41.2 L128.1,41.8 L123.2,41.8 L123.2,41.2 C123.3,41.2 123.6,41.2 123.8,41.1 C124.1,41 124.3,41 124.5,40.8 C124.7,40.7 124.9,40.4 124.9,40.1 C125,39.7 125,39.2 125,38.6 L125,33 C125,32.6 125,32.4 124.9,32.1 C124.8,31.9 124.7,31.7 124.5,31.6 C124.3,31.4 124.1,31.3 123.9,31.3 C123.7,31.3 123.4,31.2 123.2,31.2 L123.2,30.6 L128.4,30.6 L131.2,38.1 L133.6,32 C133.7,31.8 133.7,31.5 133.8,31.2 C133.9,30.9 133.9,30.7 133.9,30.6 L138.9,30.6 L138.9,31.2 C138.7,31.2 138.5,31.2 138.4,31.3 C138.2,31.3 138,31.4 137.9,31.4 C137.7,31.5 137.5,31.6 137.5,31.7 C137.5,31.8 137.4,32 137.4,32.2 L137.4,40.2 C137.4,40.4 137.4,40.6 137.5,40.7 C137.6,40.8 137.7,40.9 137.9,41.1 C138,41.1 138.2,41.2 138.4,41.2 C138.6,41.2 138.8,41.3 139,41.3 L139.3,41.7 Z M148.4,38.4 C148.4,37.6 148.2,36.9 147.7,36.5 C147.2,36.1 146.6,35.9 145.7,35.9 C145.6,35.9 145.5,35.9 145.3,35.9 C145.1,35.9 145,35.9 144.9,35.9 L144.9,40.3 C144.9,40.5 145.1,40.7 145.3,40.8 C145.5,40.9 145.8,41 146.2,41 C146.8,41 147.3,40.8 147.7,40.3 C148.2,39.9 148.4,39.2 148.4,38.4 Z M151.6,38.3 C151.6,38.9 151.5,39.4 151.2,39.8 C151,40.2 150.6,40.6 150.2,40.9 C149.8,41.2 149.3,41.4 148.8,41.5 C148.3,41.6 147.8,41.7 147.2,41.7 L140.3,41.7 L140.3,41.1 C140.4,41.1 140.7,41.1 140.9,41 C141.1,41 141.3,40.9 141.4,40.9 C141.6,40.8 141.7,40.7 141.8,40.6 C141.9,40.5 141.9,40.3 141.9,40.1 L141.9,32.1 C141.9,31.9 141.9,31.7 141.8,31.6 C141.7,31.5 141.6,31.4 141.4,31.3 C141.3,31.2 141,31.2 140.8,31.1 C140.6,31.1 140.4,31 140.2,31 L140.2,30.4 L150.4,30.4 L150.4,33.6 L149.8,33.6 C149.6,33 149.3,32.4 148.9,32 C148.5,31.5 148.2,31.3 147.9,31.2 C147.7,31.2 147.5,31.1 147.3,31.1 C147.1,31.1 146.8,31.1 146.6,31.1 L144.7,31.1 L144.7,35.1 C144.9,35.1 145.2,35.1 145.5,35.1 C145.8,35.1 146.1,35.1 146.4,35.1 C147.1,35.1 147.8,35.2 148.3,35.3 C148.8,35.4 149.4,35.6 149.9,35.9 C150.4,36.1 150.7,36.5 151,36.9 C151.4,37.2 151.6,37.7 151.6,38.3 Z M165,41.7 L158.8,41.7 L158.8,41.1 C159.1,41.1 159.4,41 159.8,41 C160.2,40.9 160.4,40.8 160.4,40.7 C160.4,40.7 160.4,40.6 160.4,40.6 C160.4,40.5 160.4,40.5 160.3,40.4 L159.3,38 L155.4,38 C155.3,38.2 155.2,38.5 155.1,38.8 C155,39.1 154.9,39.4 154.8,39.6 C154.7,39.9 154.6,40.1 154.6,40.2 C154.6,40.3 154.6,40.4 154.6,40.5 C154.6,40.7 154.7,40.8 155,40.9 C155.3,41 155.7,41.1 156.3,41.1 L156.3,41.7 L151.7,41.7 L151.7,41.1 C151.9,41.1 152.1,41.1 152.3,41 C152.5,41 152.7,40.9 152.8,40.8 C153,40.7 153.2,40.5 153.4,40.3 C153.5,40.1 153.7,39.9 153.8,39.6 C154.4,38.1 155,36.6 155.7,35.1 C156.3,33.6 157,31.9 157.8,30.1 L159.4,30.1 C160.4,32.7 161.3,34.7 161.9,36.2 C162.5,37.7 163,38.9 163.4,39.9 C163.5,40.1 163.5,40.2 163.6,40.3 C163.7,40.4 163.8,40.5 164.1,40.7 C164.2,40.8 164.4,40.8 164.6,40.9 C164.8,40.9 165,41 165.1,41 L165.1,41.6 L165,41.6 L165,41.7 Z M159,37.1 L157.4,33 L155.8,37.1 L159,37.1 Z M175.7,33.2 C175.7,33.8 175.6,34.4 175.3,34.8 C175.1,35.3 174.7,35.6 174.2,35.9 C173.7,36.2 173.2,36.4 172.6,36.5 C172,36.6 171.3,36.7 170.5,36.7 L169.6,36.7 L169.6,39.9 C169.6,40.1 169.6,40.3 169.7,40.4 C169.8,40.5 169.9,40.6 170.1,40.7 C170.2,40.7 170.4,40.8 170.6,40.8 C170.8,40.8 171.1,40.9 171.2,40.9 L171.2,41.5 L165,41.5 L165,40.9 C165.1,40.9 165.4,40.9 165.6,40.8 C165.8,40.8 166,40.7 166.1,40.7 C166.3,40.6 166.5,40.5 166.5,40.4 C166.6,40.3 166.6,40.1 166.6,39.9 L166.6,31.9 C166.6,31.7 166.6,31.5 166.5,31.4 C166.4,31.3 166.3,31.2 166.1,31.1 C166,31 165.7,31 165.5,30.9 C165.3,30.9 165.1,30.8 164.9,30.8 L164.9,30.2 L171.2,30.2 C172.7,30.2 173.8,30.4 174.5,30.9 C175.4,31.5 175.7,32.2 175.7,33.2 Z M172.6,33.6 C172.6,32.7 172.4,32.1 172.1,31.7 C171.7,31.3 171.1,31.1 170.2,31.1 L169.5,31.1 L169.5,36.1 L169.8,36.1 C170.7,36.1 171.3,35.9 171.8,35.5 C172.4,35.1 172.6,34.4 172.6,33.6 Z M184.1,40.2 L184.1,31.1 L181.1,31.1 C181,32.7 180.8,34.4 180.3,36.2 C179.8,38 179.2,39.5 178.3,40.9 L183.4,40.9 C183.6,40.9 183.8,40.8 183.9,40.7 C184.1,40.6 184.1,40.4 184.1,40.2 Z M180.2,41.7 C180,41.7 179.7,41.7 179.5,41.7 C179.3,41.7 179,41.7 178.8,41.8 C178.4,41.9 177.9,42.2 177.5,42.8 C177,43.4 176.7,44 176.5,44.6 L176,44.6 L176,41 L177.1,41 C177.8,39.9 178.5,38.5 179.1,36.8 C179.7,35.1 180,33.7 180,32.4 C180,32.1 180,31.8 179.9,31.7 C179.8,31.5 179.7,31.4 179.5,31.3 C179.4,31.2 179.1,31.2 178.9,31.1 C178.6,31.1 178.4,31 178.2,31 L178.2,30.4 L188.6,30.4 L188.6,31 C188.4,31 188.2,31 188,31.1 C187.8,31.1 187.6,31.2 187.4,31.2 C187.2,31.3 187.1,31.4 187,31.5 C186.9,31.6 186.9,31.8 186.9,32 L186.9,40.1 C186.9,40.4 187,40.6 187.2,40.7 C187.4,40.8 187.6,40.9 188,40.9 L188.7,40.9 L188.7,44.5 L188.1,44.5 C187.9,43.9 187.6,43.3 187.1,42.7 C186.6,42.1 186.2,41.8 185.8,41.7 C185.6,41.7 185.4,41.6 185.1,41.6 C184.8,41.6 184.6,41.6 184.4,41.6 L180.2,41.7 Z" id="Shape" fill-rule="nonzero"></path>
            </g>
        </g>
    </g>
</svg>