<?xml version="1.0" encoding="utf-8"?>
<!-- Generator: Adobe Illustrator 21.0.0, SVG Export Plug-In . SVG Version: 6.00 Build 0)  -->
<svg version="1.1" id="Layer_1" xmlns="http://www.w3.org/2000/svg" xmlns:xlink="http://www.w3.org/1999/xlink" x="0px" y="0px"
	 viewBox="0 0 25 25" style="enable-background:new 0 0 25 25;" xml:space="preserve">
<style type="text/css">
	.st0{fill:#1938A5;}
</style>
<g>
	<path class="st0" d="M14,15.5c0-0.7,0.4-1.4,1.1-1.7c2.8-1.3,4.8-4.5,4.8-6.7c0-4-3.3-7.3-7.3-7.3c-4,0-7.3,3.3-7.3,7.3
		c0,0.8,0.7,1.5,1.5,1.5c0.8,0,1.5-0.7,1.5-1.5c0-2.4,2-4.4,4.4-4.4s4.4,2,4.4,4.4c0,1.1-1.2,3.2-3,4.1c-1.7,0.8-2.8,2.5-2.8,4.4
		v0.7c0,0.8,0.7,1.5,1.5,1.5s1.5-0.7,1.5-1.5V15.5z"/>
	<circle class="st0" cx="12.5" cy="22.9" r="1.8"/>
</g>
</svg>
