<?xml version="1.0" encoding="UTF-8"?>
<svg width="131px" height="25px" viewBox="0 0 131 25" version="1.1" xmlns="http://www.w3.org/2000/svg" xmlns:xlink="http://www.w3.org/1999/xlink">
    <!-- Generator: Sketch 52.6 (67491) - http://www.bohemiancoding.com/sketch -->
    <title>Group</title>
    <desc>Created with Sketch.</desc>
    <g id="mobile" stroke="none" stroke-width="1" fill="none" fill-rule="evenodd">
        <g id="Mobile_glavnaya" transform="translate(-48.000000, -7.000000)">
            <g id="Group" transform="translate(48.000000, 7.000000)">
                <path d="M13.9635603,10.8770021 L13.9635603,6.21150865 C13.9635603,5.71902282 14.3809721,5.29858277 14.8759441,5.29858277 L15.9012375,5.29858277 C16.4025308,5.29858277 16.8155759,5.71075935 16.8155759,6.21150865 L16.8155759,10.8770021 L13.9635603,10.8770021 Z M12.4013749,19.7815694 C8.53437968,19.7815694 5.34018381,16.6456057 5.34018381,12.7741522 L5.34043333,12.301017 L5.34409302,12.0828865 L19.4588232,12.0828865 L19.4626492,12.3220702 L19.4626492,12.7741522 C19.4626492,16.6439447 16.2673305,19.7815694 12.4013749,19.7815694 Z M13.5269768,22.7143101 C18.7773737,22.1500276 22.7859321,17.7070248 22.7859321,12.4063243 C22.7859321,6.67961933 18.1367213,2.03737982 12.4013749,2.03737982 C6.66607016,2.03737982 2.01690095,6.67961933 2.01690095,12.4063243 C2.01690095,16.9876052 5.03210508,21.0290203 9.4179019,22.3401704 L9.57634952,22.3873012 L9.57634952,24.4592713 L9.29879587,24.3880145 C8.58628063,24.2045573 7.89127365,23.9567364 7.22292413,23.6494103 C2.83263587,21.6292633 0.010064127,17.247842 0.010064127,12.4063243 C0.010064127,5.57293807 5.55776857,0.0335936791 12.4013749,0.0335936791 C19.245106,0.0335936791 24.7927689,5.57293807 24.7927689,12.4063243 C24.7927689,19.239752 19.245106,24.7790964 12.4013749,24.7790964 C12.094419,24.7790964 11.7877543,24.7677185 11.4816302,24.7452535 L11.2759394,24.7300139 L11.2759394,20.9220105 L11.5179359,20.9438941 C11.8115838,20.9705116 12.1063962,20.9846301 12.4013749,20.9846301 C12.6964784,20.9846301 12.9912492,20.9705116 13.2848971,20.9438941 L13.5269768,20.9220105 L13.5269768,22.7143101 Z M10.7541019,10.8770021 L7.90154571,10.8770021 L7.90154571,6.21150865 C7.90154571,5.71902282 8.31983079,5.29858277 8.81442857,5.29858277 L9.83922286,5.29858277 C10.3408073,5.29858277 10.7541019,5.71042715 10.7541019,6.21150865 L10.7541019,10.8770021 Z" id="Fill-3" fill="#FFED00"></path>
                <path d="M114.287311,2.50187783 C111.043502,2.50187783 108.413937,5.12737543 108.413937,8.36640405 C108.413937,11.6054327 111.043502,14.2308887 114.287311,14.2308887 C117.531121,14.2308887 120.160686,11.6054327 120.160686,8.36640405 C120.160686,5.12737543 117.531121,2.50187783 114.287311,2.50187783 Z M94.5221143,11.0717956 L94.5025683,11.082343 C94.0729714,11.3141352 93.5947175,11.4334364 93.1068984,11.4334364 C91.4205333,11.4334364 90.1047111,10.0305992 90.1047111,8.36640405 C90.1047111,6.70241652 91.4205333,5.29941327 93.1068984,5.29941327 C93.6284032,5.29941327 94.1295302,5.4356566 94.5811683,5.6955197 L94.5849111,5.69763747 L94.588654,5.70008744 C94.6206762,5.72159736 94.653946,5.74144629 94.6880476,5.76021556 L94.6942857,5.76386976 C94.8909937,5.86930159 95.1072476,5.92461281 95.3305714,5.92461281 C96.0945302,5.92461281 96.6908921,5.28953033 96.6908921,4.53514668 C96.6908921,4.1006712 96.4929365,3.68969884 96.147346,3.42431293 L96.0749841,3.36896018 C95.1787778,2.81414541 94.1619683,2.52085473 93.1068984,2.52085473 C89.8926159,2.52085473 87.383654,5.19377381 87.383654,8.36640405 C87.383654,11.5391589 89.8926159,14.2119118 93.1068984,14.2119118 C94.0426127,14.2119118 94.9579492,13.9807425 95.7792984,13.5363425 L95.8304508,13.507981 L95.8408476,13.5108047 C96.3598571,13.2974495 96.6908921,12.7824987 96.6908921,12.2226179 C96.6908921,11.4684419 96.0945302,10.8331518 95.3305714,10.8331518 C95.1001778,10.8331518 94.8747746,10.8917435 94.6743238,11.0052727 L94.5312635,11.0861217 L94.5221143,11.0717956 Z M71.0781048,2.6708013 C70.3428413,2.6708013 69.7402413,3.27291298 69.7402413,4.0069494 L69.7402413,7.12896074 L69.4166921,7.12896074 C68.070927,7.12896074 66.724746,7.12896074 65.3785651,7.12896074 L65.1207238,7.12896074 L65.1207238,4.0069494 C65.1207238,3.27295451 64.5181238,2.6708013 63.7828603,2.6708013 C63.0475968,2.6708013 62.4449968,3.27249773 62.4449968,4.0069494 L62.4449968,12.7261494 C62.4449968,13.4605595 63.0475968,14.0620483 63.7828603,14.0620483 C64.5181238,14.0620483 65.1207238,13.4602273 65.1207238,12.7261494 L65.1207238,9.28817474 L65.3785651,9.28817474 C66.724746,9.28817474 68.0705111,9.29041709 69.4166921,9.28817474 L69.7402413,9.2875934 L69.7402413,12.7261494 C69.7402413,13.4602273 70.3428413,14.0620483 71.0781048,14.0620483 C71.8133683,14.0620483 72.4159683,13.4602273 72.4159683,12.7261494 L72.4159683,4.0069494 C72.4159683,3.27266383 71.8133683,2.6708013 71.0781048,2.6708013 Z M32.2347333,5.34272378 L34.7244403,5.34272378 C35.4594543,5.34272378 36.062387,4.74090278 36.062387,4.0069494 C36.062387,3.27345281 35.4591216,2.6708013 34.7244403,2.6708013 L27.0692162,2.6708013 C26.3347429,2.6708013 25.7313111,3.27357738 25.7313111,4.0069494 C25.7313111,4.74065363 26.3345765,5.34272378 27.0692162,5.34272378 L29.5590063,5.34272378 L29.5590063,12.7261494 C29.5590063,13.4601443 30.1620222,14.0620483 30.8970778,14.0620483 C31.6326324,14.0620483 32.2347333,13.4603519 32.2347333,12.7261494 L32.2347333,5.34272378 Z M79.9678063,2.50187783 C76.7239968,2.50187783 74.0944317,5.1273339 74.0944317,8.36640405 C74.0944317,11.6054327 76.7239968,14.2308887 79.9678063,14.2308887 C83.2116159,14.2308887 85.841181,11.6054327 85.841181,8.36640405 C85.841181,5.12737543 83.2116159,2.50187783 79.9678063,2.50187783 Z M79.9678063,5.19834155 C81.7198794,5.19834155 83.1400857,6.61704124 83.1400857,8.36640405 C83.1400857,10.115933 81.7198794,11.5345081 79.9678063,11.5345081 C78.2153175,11.5345081 76.7951111,10.116016 76.7951111,8.36640405 C76.7951111,6.61695819 78.2157333,5.19834155 79.9678063,5.19834155 Z M48.0645238,7.03528047 C47.9501587,6.31802012 47.6586317,5.66234127 47.2431746,5.06824391 C46.747454,4.3595377 46.082473,3.7933451 45.3176825,3.3909684 C43.0490952,2.1973339 39.8913714,2.45499617 38.1230794,4.41725737 C37.0584444,5.59860048 36.5697937,6.99774192 36.5697937,8.57921939 C36.5697937,10.1679222 37.0771587,11.5560595 38.1912825,12.7030615 C39.3029111,13.8476966 40.8923778,14.3696236 42.466873,14.3696236 C43.3260667,14.3696236 44.1727841,14.2312625 44.9883111,13.9602292 C45.761419,13.7032728 46.5262095,13.2927157 47.025673,12.6316801 C47.9418413,11.418695 46.4850381,10.2101531 45.2424095,10.9931059 C44.8964032,11.2110703 44.5865778,11.4088536 44.2014794,11.5597552 C43.6404667,11.7792976 43.0466,11.8587348 42.4464952,11.8634687 C41.6476032,11.8697805 40.8794857,11.6196342 40.298927,11.0587153 C39.8618444,10.636282 39.5466127,10.0355407 39.5320571,9.42055626 L39.5287302,9.28900524 L46.0625111,9.28900524 C47.5950032,9.30519997 48.3098889,8.57099745 48.0645238,7.03528047 Z M39.621054,6.96294402 C40.1862254,4.4875591 44.7629079,4.43718934 45.214546,6.97801757 L45.2415778,7.12896074 L39.5615841,7.12896074 L39.621054,6.96294402 Z M104.332143,5.34272378 L106.82239,5.34272378 C107.557238,5.34272378 108.160254,4.7407782 108.160254,4.0069494 C108.160254,3.27312061 107.557238,2.6708013 106.82239,2.6708013 L99.1665841,2.6708013 C98.4317365,2.6708013 97.8287206,3.27312061 97.8287206,4.0069494 C97.8287206,4.74065363 98.4321524,5.34272378 99.1665841,5.34272378 L101.656416,5.34272378 L101.656416,12.7261494 C101.656416,13.4604765 102.259432,14.0620483 102.994695,14.0620483 C103.729959,14.0620483 104.332143,13.4603519 104.332143,12.7261494 L104.332143,5.34272378 Z M54.8474127,6.37100595 L51.6426952,3.0974701 C51.1074667,2.55075269 50.2303905,2.55066964 49.6951619,3.0974701 C49.161181,3.64306633 49.161181,4.53871783 49.6951619,5.08439711 L52.9081968,8.36640405 L49.6951619,11.6484525 C49.1607651,12.194381 49.1607651,13.0897833 49.6951619,13.6357117 C50.2303905,14.1823461 51.1074667,14.1823876 51.6426952,13.6357117 L54.8474127,10.3621344 L58.0517143,13.6357117 C58.5869429,14.1823876 59.464019,14.1823461 59.9992476,13.6357117 C60.5336444,13.0897833 60.5336444,12.194381 59.9992476,11.6484525 L56.7862127,8.36640405 L59.9992476,5.08439711 C60.5336444,4.53875935 60.5332286,3.64306633 59.9992476,3.0974701 C59.464019,2.55066964 58.5869429,2.55066964 58.0517143,3.0974701 L54.8474127,6.37100595 Z M122.924578,2.68770196 C122.171016,2.68770196 121.576317,3.32058362 121.576317,4.06475213 L121.576317,12.6684712 C121.576317,13.4124736 122.171016,14.0454799 122.924578,14.0454799 C123.67814,14.0454799 124.27367,13.4124736 124.27367,12.6684712 L124.27367,9.19200298 L128.623702,13.6357117 C129.15893,14.1823461 130.036006,14.1823461 130.571235,13.6357117 C131.106048,13.0897833 131.105632,12.1945055 130.571235,11.6484525 L127.358616,8.36640405 L130.571235,5.08439711 C131.105216,4.53871783 131.105216,3.64306633 130.571235,3.0974701 C130.036006,2.55066964 129.15893,2.55075269 128.623702,3.0974701 L124.27367,7.54113733 L124.27367,4.06475213 C124.27367,3.32054209 123.678556,2.68770196 122.924578,2.68770196 Z M114.287311,5.19834155 C116.039384,5.19834155 117.460006,6.61695819 117.460006,8.36640405 C117.460006,10.116016 116.0398,11.5345081 114.287311,11.5345081 C112.535238,11.5345081 111.114616,10.116016 111.114616,8.36640405 C111.114616,6.61695819 112.535238,5.19834155 114.287311,5.19834155 Z" id="Fill-4" fill="#FFFFFE"></path>
                <path d="M89.7620317,18.006129 C89.7620317,18.2054902 89.7295937,18.3945118 89.6659651,18.571325 C89.6027524,18.7481797 89.5000317,18.9024449 89.3578032,19.0376916 C89.2155746,19.1711528 89.0271841,19.2770414 88.7942952,19.3550252 C88.5614063,19.4330091 88.2773651,19.472873 87.9380127,19.472873 C87.6090571,19.472873 87.3300063,19.4365387 87.098781,19.3653649 C86.8675556,19.2943158 86.679581,19.1954864 86.5336095,19.0671743 C86.388054,18.9405648 86.2820063,18.7863411 86.2150508,18.6042958 C86.1485111,18.4222089 86.1144095,18.2228476 86.1144095,18.006129 C86.1144095,17.9541397 86.122727,17.9125317 86.1414413,17.881305 C86.1605714,17.8483342 86.191346,17.8223811 86.234181,17.801494 C86.2786794,17.7824756 86.3369016,17.7669038 86.4121746,17.7582251 C86.4874476,17.7495463 86.5835143,17.7460582 86.6966317,17.7460582 C86.8043429,17.7460582 86.8916762,17.7512904 86.9636222,17.7616716 C87.0339048,17.7720944 87.0867206,17.7877078 87.1229016,17.8101728 C87.1603302,17.8309768 87.1861143,17.8587985 87.2019175,17.8916862 C87.2173048,17.9229545 87.2239587,17.9610329 87.2239587,18.006129 C87.2239587,18.0961966 87.239346,18.1812812 87.2717841,18.259265 C87.3046381,18.3373319 87.3508,18.4048515 87.4123492,18.4603288 C87.4755619,18.5158476 87.5529143,18.5609022 87.6435746,18.5921705 C87.7342349,18.6250998 87.8352921,18.6407547 87.9450825,18.6407547 C88.0527937,18.6407547 88.1505238,18.6250998 88.2378571,18.5955755 C88.3251905,18.5643903 88.4004635,18.5210798 88.4636762,18.4620313 C88.5256413,18.4048515 88.5718032,18.3373319 88.6042413,18.257521 C88.6366794,18.1777516 88.6520667,18.089345 88.6520667,17.9957062 C88.6520667,17.9541397 88.6591365,17.9194664 88.6728603,17.8881981 C88.6845048,17.8570129 88.7123683,17.8309768 88.7497968,17.8101728 C88.7876413,17.7877078 88.8387937,17.7720944 88.9040857,17.7616716 C88.9689619,17.7512904 89.0529683,17.7460582 89.1523619,17.7460582 C89.2721333,17.7460582 89.371527,17.7495463 89.4505429,17.7582251 C89.5274794,17.7669038 89.5906921,17.7824756 89.636854,17.801494 C89.6830159,17.8223811 89.7158698,17.8483342 89.7345841,17.881305 C89.7532984,17.9125317 89.7620317,17.9541397 89.7620317,18.006129 Z M90.1317429,24.7262351 C90.1317429,24.7591644 90.1234254,24.7885641 90.1042952,24.8111121 C90.085581,24.8354457 90.0531429,24.8545472 90.006981,24.8700775 C89.9587397,24.8856079 89.895527,24.8961137 89.816927,24.9030483 C89.7379111,24.909983 89.6385175,24.9134296 89.5170825,24.9134296 C89.3973111,24.9134296 89.2945905,24.909983 89.2122476,24.9030483 C89.1299048,24.8961137 89.0633651,24.8856079 89.0117968,24.8700775 C88.958981,24.8545472 88.9228,24.8354457 88.9007587,24.8111121 C88.8783016,24.7885641 88.8679048,24.7591644 88.8679048,24.7262351 L88.8679048,22.7028492 C88.8679048,22.5589653 88.8716476,22.4116348 88.8799651,22.2589891 C88.8886984,22.1081705 88.9024222,21.9573934 88.9178095,21.8117654 C88.8371302,21.9556494 88.7514603,22.0944257 88.657473,22.231292 C88.5630698,22.3699853 88.4690825,22.505232 88.3713524,22.6404787 L86.8609016,24.7210445 C86.830127,24.7573788 86.8026794,24.7885641 86.7752317,24.8146832 C86.7494476,24.8406779 86.715346,24.8596963 86.6725111,24.8752681 C86.6313397,24.890923 86.5785238,24.9012628 86.5148952,24.9064949 C86.4516825,24.9117686 86.3693397,24.9134296 86.2682825,24.9134296 C86.1485111,24.9134296 86.050781,24.909983 85.9755079,24.9030483 C85.9002349,24.8961137 85.8403492,24.8856079 85.7958508,24.8700775 C85.749273,24.8545472 85.7184984,24.8354457 85.6997841,24.8094096 C85.6810698,24.783415 85.6723365,24.7539323 85.6723365,24.7210445 L85.6723365,20.1698277 C85.6723365,20.1403865 85.6810698,20.1126478 85.6997841,20.0866117 C85.7184984,20.0606171 85.7509365,20.0398131 85.8008413,20.0224972 C85.8486667,20.0068838 85.9122952,19.9930145 85.9908952,19.9844188 C86.0694952,19.975657 86.1688889,19.9721689 86.2890762,19.9721689 C86.5269556,19.9721689 86.6928889,19.9895264 86.790619,20.0224972 C86.8883492,20.0571705 86.9361746,20.1057547 86.9361746,20.1698277 L86.9361746,22.1827493 C86.9361746,22.3231866 86.9311841,22.4671121 86.9207873,22.6162282 C86.9103905,22.7653442 86.898746,22.9092282 86.8812794,23.0479215 C86.9619587,22.9127163 87.0422222,22.7774695 87.1262286,22.6439253 C87.2102349,22.5103811 87.2992317,22.3804495 87.3936349,22.2555425 L88.9178095,20.1698277 C88.9448413,20.1334103 88.9743683,20.1022251 89.0034794,20.0761889 C89.034254,20.0519384 89.0716825,20.0311759 89.116181,20.0155625 C89.1623429,19.9999491 89.2172381,19.9895264 89.2825302,19.9826332 C89.3494857,19.975657 89.4330762,19.9721689 89.5374603,19.9721689 C89.6559841,19.9721689 89.7516349,19.975657 89.8306508,19.9826332 C89.9075873,19.9895264 89.967473,20.0016932 90.0136349,20.0190091 C90.0581333,20.0345809 90.0889079,20.0571705 90.1063746,20.0848676 C90.1234254,20.1109038 90.1317429,20.1421305 90.1317429,20.1768454 L90.1317429,24.7262351 Z M84.1760254,24.7262351 C84.1760254,24.7591644 84.1672921,24.7885641 84.1485778,24.8111121 C84.1298635,24.8354457 84.0974254,24.8545472 84.0508476,24.8700775 C84.0030222,24.8856079 83.9398095,24.8961137 83.8607937,24.9030483 C83.7821937,24.909983 83.6828,24.9134296 83.5613651,24.9134296 C83.4411778,24.9134296 83.3384571,24.909983 83.2565302,24.9030483 C83.1741873,24.8961137 83.1072317,24.8856079 83.0560794,24.8700775 C83.0028476,24.8545472 82.9670825,24.8354457 82.9446254,24.8111121 C82.9225841,24.7885641 82.9121873,24.7591644 82.9121873,24.7262351 L82.9121873,22.7028492 C82.9121873,22.5589653 82.9155143,22.4116348 82.9242476,22.2589891 C82.9325651,22.1081705 82.9462889,21.9573934 82.9616762,21.8117654 C82.8814127,21.9556494 82.7957429,22.0944257 82.7017556,22.231292 C82.6073524,22.3699853 82.5129492,22.505232 82.4156349,22.6404787 L80.9051841,24.7210445 C80.8739937,24.7573788 80.8469619,24.7885641 80.8195143,24.8146832 C80.7937302,24.8406779 80.7596286,24.8596963 80.7167937,24.8752681 C80.6756222,24.890923 80.6223905,24.9012628 80.5591778,24.9064949 C80.4959651,24.9117686 80.4136222,24.9134296 80.3125651,24.9134296 C80.1927937,24.9134296 80.0950635,24.909983 80.0197905,24.9030483 C79.9441016,24.8961137 79.8842159,24.8856079 79.8397175,24.8700775 C79.7935556,24.8545472 79.762781,24.8354457 79.7440667,24.8094096 C79.7249365,24.783415 79.716619,24.7539323 79.716619,24.7210445 L79.716619,20.1698277 C79.716619,20.1403865 79.7249365,20.1126478 79.7440667,20.0866117 C79.762781,20.0606171 79.795219,20.0398131 79.8451238,20.0224972 C79.8929492,20.0068838 79.9561619,19.9930145 80.0351778,19.9844188 C80.1137778,19.975657 80.2131714,19.9721689 80.3329429,19.9721689 C80.5712381,19.9721689 80.7371714,19.9895264 80.8349016,20.0224972 C80.9326317,20.0571705 80.9804571,20.1057547 80.9804571,20.1698277 L80.9804571,22.1827493 C80.9804571,22.3231866 80.9750508,22.4671121 80.9650698,22.6162282 C80.954673,22.7653442 80.9426127,22.9092282 80.9255619,23.0479215 C81.0062413,22.9127163 81.0865048,22.7774695 81.1705111,22.6439253 C81.2545175,22.5103811 81.3435143,22.3804495 81.4375016,22.2555425 L82.9616762,20.1698277 C82.9891238,20.1334103 83.0182349,20.1022251 83.047346,20.0761889 C83.0785365,20.0519384 83.1159651,20.0311759 83.1604635,20.0155625 C83.2066254,19.9999491 83.2615206,19.9895264 83.3263968,19.9826332 C83.3933524,19.975657 83.4773587,19.9721689 83.5817429,19.9721689 C83.6998508,19.9721689 83.7959175,19.975657 83.8745175,19.9826332 C83.9518698,19.9895264 84.0117556,20.0016932 84.0579175,20.0190091 C84.1024159,20.0345809 84.1331905,20.0571705 84.1502413,20.0848676 C84.1672921,20.1109038 84.1760254,20.1421305 84.1760254,20.1768454 L84.1760254,24.7262351 Z M78.2132381,24.7105802 C78.2132381,24.743551 78.2032571,24.7729507 78.1824635,24.7990283 C78.1637492,24.825023 78.1296476,24.8457854 78.0830698,24.8631844 C78.0352444,24.8787562 77.9703683,24.8926256 77.8880254,24.9012628 C77.8056825,24.909983 77.7046254,24.9134296 77.584854,24.9134296 C77.4596762,24.9134296 77.3569556,24.909983 77.2750286,24.9012628 C77.1926857,24.8926256 77.1273937,24.8787562 77.0795683,24.8631844 C77.0334063,24.8457854 76.9993048,24.825023 76.9801746,24.7990283 C76.9597968,24.7729507 76.9494,24.743551 76.9494,24.7105802 L76.9494,22.9265441 L75.1411841,22.9265441 L75.1411841,24.7105802 C75.1411841,24.743551 75.1307873,24.7729507 75.1104095,24.7990283 C75.0912794,24.825023 75.0571778,24.8457854 75.007273,24.8631844 C74.9594476,24.8787562 74.8945714,24.8926256 74.8155556,24.9012628 C74.7352921,24.909983 74.6325714,24.9134296 74.5090571,24.9134296 C74.3859587,24.9134296 74.2832381,24.909983 74.2025587,24.9012628 C74.1235429,24.8926256 74.0586667,24.8787562 74.0108413,24.8631844 C73.9609365,24.8457854 73.9268349,24.825023 73.9081206,24.7990283 C73.887327,24.7729507 73.8769302,24.743551 73.8769302,24.7105802 L73.8769302,20.1751013 C73.8769302,20.1421305 73.887327,20.1126478 73.9081206,20.0866117 C73.9268349,20.0606171 73.9609365,20.0398131 74.0108413,20.0224972 C74.0586667,20.0068838 74.1235429,19.9930145 74.2025587,19.9844188 C74.2832381,19.975657 74.3859587,19.9721689 74.5090571,19.9721689 C74.6325714,19.9721689 74.7352921,19.975657 74.8155556,19.9844188 C74.8945714,19.9930145 74.9594476,20.0068838 75.007273,20.0224972 C75.0571778,20.0398131 75.0912794,20.0606171 75.1104095,20.0866117 C75.1307873,20.1126478 75.1411841,20.1421305 75.1411841,20.1751013 L75.1411841,21.8758384 L76.9494,21.8758384 L76.9494,20.1751013 C76.9494,20.1421305 76.9597968,20.1126478 76.9801746,20.0866117 C76.9993048,20.0606171 77.0334063,20.0398131 77.0795683,20.0224972 C77.1273937,20.0068838 77.1926857,19.9930145 77.2750286,19.9844188 C77.3569556,19.975657 77.4596762,19.9721689 77.584854,19.9721689 C77.7046254,19.9721689 77.8056825,19.975657 77.8880254,19.9844188 C77.9703683,19.9930145 78.0352444,20.0068838 78.0830698,20.0224972 C78.1296476,20.0398131 78.1637492,20.0606171 78.1824635,20.0866117 C78.2032571,20.1126478 78.2132381,20.1421305 78.2132381,20.1751013 L78.2132381,24.7105802 Z M72.0109079,18.006129 C72.0109079,18.2054902 71.9784698,18.3945118 71.9148413,18.571325 C71.8516286,18.7481797 71.7489079,18.9024449 71.6066794,19.0376916 C71.4644508,19.1711528 71.2760603,19.2770414 71.0431714,19.3550252 C70.8102825,19.4330091 70.5262413,19.472873 70.1868889,19.472873 C69.8583492,19.472873 69.5788825,19.4365387 69.3476571,19.3653649 C69.1168476,19.2943158 68.9284571,19.1954864 68.7829016,19.0671743 C68.6369302,18.9405648 68.5308825,18.7863411 68.4643429,18.6042958 C68.3973873,18.4222089 68.3632857,18.2228476 68.3632857,18.006129 C68.3632857,17.9541397 68.3716032,17.9125317 68.3907333,17.881305 C68.4094476,17.8483342 68.4402222,17.8223811 68.4830571,17.801494 C68.5275556,17.7824756 68.5857778,17.7669038 68.6610508,17.7582251 C68.7363238,17.7495463 68.8323905,17.7460582 68.9455079,17.7460582 C69.053219,17.7460582 69.1405524,17.7512904 69.2124984,17.7616716 C69.282781,17.7720944 69.3360127,17.7877078 69.3717778,17.8101728 C69.4096222,17.8309768 69.4354063,17.8587985 69.4507937,17.8916862 C69.466181,17.9229545 69.4728349,17.9610329 69.4728349,18.006129 C69.4728349,18.0961966 69.4882222,18.1812812 69.5206603,18.259265 C69.5535143,18.3373319 69.5996762,18.4048515 69.6612254,18.4603288 C69.724854,18.5158476 69.8017905,18.5609022 69.8924508,18.5921705 C69.9831111,18.6250998 70.0841683,18.6407547 70.1939587,18.6407547 C70.3016698,18.6407547 70.3994,18.6250998 70.4867333,18.5955755 C70.5740667,18.5643903 70.6493397,18.5210798 70.7129683,18.4620313 C70.7745175,18.4048515 70.8206794,18.3373319 70.8531175,18.257521 C70.8855556,18.1777516 70.9009429,18.089345 70.9009429,17.9957062 C70.9009429,17.9541397 70.9080127,17.9194664 70.9217365,17.8881981 C70.9337968,17.8570129 70.9612444,17.8309768 70.998673,17.8101728 C71.0365175,17.7877078 71.0876698,17.7720944 71.1529619,17.7616716 C71.2178381,17.7512904 71.3018444,17.7460582 71.4012381,17.7460582 C71.5210095,17.7460582 71.6204032,17.7495463 71.699419,17.7582251 C71.7763556,17.7669038 71.8395683,17.7824756 71.8857302,17.801494 C71.9318921,17.8223811 71.964746,17.8483342 71.9834603,17.881305 C72.0021746,17.9125317 72.0109079,17.9541397 72.0109079,18.006129 Z M72.380619,24.7262351 C72.380619,24.7591644 72.3723016,24.7885641 72.3535873,24.8111121 C72.3344571,24.8354457 72.302019,24.8545472 72.2558571,24.8700775 C72.2076159,24.8856079 72.1444032,24.8961137 72.0658032,24.9030483 C71.9867873,24.909983 71.8878095,24.9134296 71.7659587,24.9134296 C71.6461873,24.9134296 71.5434667,24.909983 71.4611238,24.9030483 C71.378781,24.8961137 71.3122413,24.8856079 71.260673,24.8700775 C71.2078571,24.8545472 71.1716762,24.8354457 71.1496349,24.8111121 C71.1271778,24.7885641 71.1171968,24.7591644 71.1171968,24.7262351 L71.1171968,22.7028492 C71.1171968,22.5589653 71.1205238,22.4116348 71.1288413,22.2589891 C71.1375746,22.1081705 71.1512984,21.9573934 71.1666857,21.8117654 C71.0860063,21.9556494 71.0003365,22.0944257 70.9063492,22.231292 C70.811946,22.3699853 70.7179587,22.505232 70.6202286,22.6404787 L69.1097778,24.7210445 C69.0790032,24.7573788 69.0515556,24.7885641 69.0241079,24.8146832 C68.9983238,24.8406779 68.9642222,24.8596963 68.9213873,24.8752681 C68.8802159,24.890923 68.8274,24.9012628 68.7637714,24.9064949 C68.7005587,24.9117686 68.6182159,24.9134296 68.5171587,24.9134296 C68.3973873,24.9134296 68.2996571,24.909983 68.2243841,24.9030483 C68.1491111,24.8961137 68.0892254,24.8856079 68.044727,24.8700775 C67.9985651,24.8545472 67.9673746,24.8354457 67.9486603,24.8094096 C67.929946,24.783415 67.9212127,24.7539323 67.9212127,24.7210445 L67.9212127,20.1698277 C67.9212127,20.1403865 67.929946,20.1126478 67.9486603,20.0866117 C67.9673746,20.0606171 68.0002286,20.0398131 68.0497175,20.0224972 C68.0975429,20.0068838 68.1611714,19.9930145 68.2397714,19.9844188 C68.3187873,19.975657 68.4177651,19.9721689 68.5379524,19.9721689 C68.7758317,19.9721689 68.942181,19.9895264 69.0394952,20.0224972 C69.1372254,20.0571705 69.1850508,20.1057547 69.1850508,20.1698277 L69.1850508,22.1827493 C69.1850508,22.3231866 69.1800603,22.4671121 69.1696635,22.6162282 C69.1596825,22.7653442 69.1476222,22.9092282 69.1305714,23.0479215 C69.2108349,22.9127163 69.2915143,22.7774695 69.3751048,22.6439253 C69.4591111,22.5103811 69.5481079,22.3804495 69.6425111,22.2555425 L71.1666857,20.1698277 C71.1941333,20.1334103 71.2232444,20.1022251 71.2523556,20.0761889 C71.2831302,20.0519384 71.3205587,20.0311759 71.365473,20.0155625 C71.4116349,19.9999491 71.4665302,19.9895264 71.5314063,19.9826332 C71.5983619,19.975657 71.6819524,19.9721689 71.7867524,19.9721689 C71.9048603,19.9721689 72.0005111,19.975657 72.079527,19.9826332 C72.1564635,19.9895264 72.2163492,20.0016932 72.2625111,20.0190091 C72.3070095,20.0345809 72.3382,20.0571705 72.3552508,20.0848676 C72.3723016,20.1109038 72.380619,20.1421305 72.380619,20.1768454 L72.380619,24.7262351 Z M66.5280381,18.6354395 C66.5280381,18.8938077 66.4764698,19.0706624 66.3720857,19.1694503 C66.2677016,19.2682796 66.0755683,19.3168638 65.7931905,19.3168638 C65.5087333,19.3168638 65.3153524,19.2700237 65.2176222,19.1746824 C65.1182286,19.0792996 65.0687397,18.907677 65.0687397,18.6614756 C65.0687397,18.403149 65.1198921,18.2245917 65.2226127,18.1240183 C65.3236698,18.0251889 65.5174667,17.9749022 65.8031714,17.9749022 C66.0843016,17.9749022 66.276019,18.0234033 66.3770762,18.1204887 C66.4781333,18.2158299 66.5280381,18.387494 66.5280381,18.6354395 Z M66.4249016,24.7105802 C66.4249016,24.743551 66.4149206,24.7729507 66.394127,24.7990283 C66.3754127,24.825023 66.3413111,24.8457854 66.2914063,24.8631844 C66.243581,24.8787562 66.1782889,24.8926256 66.0996889,24.9012628 C66.0190095,24.909983 65.9162889,24.9134296 65.7931905,24.9134296 C65.6696762,24.9134296 65.5669556,24.909983 65.4866921,24.9012628 C65.4076762,24.8926256 65.3428,24.8787562 65.2949746,24.8631844 C65.2450698,24.8457854 65.2105524,24.825023 65.1918381,24.7990283 C65.1714603,24.7729507 65.1610635,24.743551 65.1610635,24.7105802 L65.1610635,20.1854826 C65.1610635,20.1525118 65.1714603,20.1230291 65.1918381,20.0969929 C65.2105524,20.0710813 65.2450698,20.0484918 65.2949746,20.0311759 C65.3428,20.0120744 65.4076762,19.9981635 65.4866921,19.9878238 C65.5669556,19.9774011 65.6696762,19.9721689 65.7931905,19.9721689 C65.9162889,19.9721689 66.0190095,19.9774011 66.0996889,19.9878238 C66.1782889,19.9981635 66.243581,20.0120744 66.2914063,20.0311759 C66.3413111,20.0484918 66.3754127,20.0710813 66.394127,20.0969929 C66.4149206,20.1230291 66.4249016,20.1525118 66.4249016,20.1854826 L66.4249016,24.7105802 Z M64.0057683,23.9875894 C64.0057683,24.0760376 64.0041048,24.1488723 63.9986984,24.2094987 C63.9937079,24.2684641 63.9866381,24.3187509 63.9783206,24.3603588 C63.9695873,24.4002228 63.9591905,24.4332351 63.947546,24.4592297 C63.9354857,24.4851828 63.9097016,24.5164096 63.8701937,24.5563151 C63.8294381,24.5944765 63.760819,24.6430607 63.6647524,24.6984965 C63.5674381,24.7539323 63.4576476,24.8041774 63.3324698,24.8492735 C63.2093714,24.8926256 63.0758762,24.9290845 62.9299048,24.9550376 C62.7847651,24.9828177 62.6338032,24.9966455 62.4799302,24.9966455 C62.1355873,24.9966455 61.8307524,24.9429123 61.5654254,24.8337017 C61.298019,24.7262351 61.075527,24.5649938 60.8937905,24.3534242 C60.7141333,24.1418546 60.5768952,23.8818669 60.4862349,23.5767001 C60.3939111,23.2715748 60.3477492,22.923139 60.3477492,22.5294826 C60.3477492,22.0752827 60.4043079,21.6816678 60.515346,21.3522504 C60.6284635,21.0211721 60.7844159,20.7471905 60.9848667,20.5304718 C61.1849016,20.3137946 61.4231968,20.1525118 61.6972571,20.0467062 C61.9709016,19.9409422 62.2724095,19.889036 62.6013651,19.889036 C62.7348603,19.889036 62.8650286,19.9010782 62.9951968,19.9254118 C63.1237016,19.9479599 63.243473,19.9808476 63.3565905,20.0207946 C63.4680444,20.0623611 63.5691016,20.1074572 63.6564349,20.1577024 C63.7454317,20.2097331 63.8086444,20.2531267 63.8448254,20.2912051 C63.882254,20.3277055 63.9080381,20.3588492 63.9234254,20.3848853 C63.9371492,20.41088 63.9492095,20.4438092 63.957527,20.4837147 C63.9662603,20.5253227 63.9729143,20.5755264 63.9783206,20.6344918 C63.9833111,20.6952428 63.9849746,20.766292 63.9849746,20.8512935 C63.9849746,21.0488277 63.9695873,21.187604 63.9354857,21.267415 C63.9009683,21.3471429 63.8581333,21.3869653 63.8053175,21.3869653 C63.7487587,21.3869653 63.6872095,21.3627147 63.623581,21.3158746 C63.5603683,21.269076 63.4850952,21.2153427 63.3977619,21.1581213 C63.3120921,21.1008999 63.2077079,21.0471251 63.0875206,21.0003265 C62.9677492,20.9534864 62.8238571,20.9292358 62.6562603,20.9292358 C62.3273048,20.9292358 62.0773651,21.0575894 61.9026984,21.312428 C61.7296952,21.5690106 61.6423619,21.9435241 61.6423619,22.4376709 C61.6423619,22.6803012 61.6644032,22.8953588 61.7072381,23.0825948 C61.7517365,23.2680867 61.8153651,23.424179 61.9010349,23.5489615 C61.9867048,23.6737854 62.0927524,23.7691682 62.2212571,23.8315802 C62.3514254,23.8939922 62.5003079,23.925219 62.6716476,23.925219 C62.8446508,23.925219 62.9951968,23.8991828 63.1199587,23.8454911 C63.2451365,23.7934188 63.354927,23.7344949 63.4489143,23.6703389 C63.541654,23.6062659 63.620254,23.5472174 63.685546,23.4952697 C63.7487587,23.4414949 63.8019905,23.4155003 63.8448254,23.4155003 C63.8756,23.4155003 63.8993048,23.424179 63.9200984,23.4414949 C63.9404762,23.4588523 63.9558635,23.4900376 63.9679238,23.5350921 C63.9799841,23.5819323 63.9883016,23.6408562 63.9953714,23.7119469 C64.0024413,23.7830791 64.0057683,23.8749323 64.0057683,23.9875894 Z M59.231546,18.6354395 C59.231546,18.8938077 59.1799778,19.0706624 59.0755937,19.1694503 C58.9712095,19.2682796 58.7794921,19.3168638 58.4966984,19.3168638 C58.2126571,19.3168638 58.0188603,19.2700237 57.921546,19.1746824 C57.8221524,19.0792996 57.7722476,18.907677 57.7722476,18.6614756 C57.7722476,18.403149 57.8238159,18.2245917 57.9265365,18.1240183 C58.0275937,18.0251889 58.2209746,17.9749022 58.5070952,17.9749022 C58.7878095,17.9749022 58.9799429,18.0234033 59.081,18.1204887 C59.1816413,18.2158299 59.231546,18.387494 59.231546,18.6354395 Z M59.1288254,24.7105802 C59.1288254,24.743551 59.1184286,24.7729507 59.0980508,24.7990283 C59.0789206,24.825023 59.044819,24.8457854 58.9953302,24.8631844 C58.9470889,24.8787562 58.8822127,24.8926256 58.8031968,24.9012628 C58.7229333,24.909983 58.6202127,24.9134296 58.4966984,24.9134296 C58.3736,24.9134296 58.2708794,24.909983 58.1902,24.9012628 C58.1116,24.8926256 58.0463079,24.8787562 57.9984825,24.8631844 C57.9489937,24.8457854 57.9144762,24.825023 57.8957619,24.7990283 C57.8749683,24.7729507 57.8649873,24.743551 57.8649873,24.7105802 L57.8649873,20.1854826 C57.8649873,20.1525118 57.8749683,20.1230291 57.8957619,20.0969929 C57.9144762,20.0710813 57.9489937,20.0484918 57.9984825,20.0311759 C58.0463079,20.0120744 58.1116,19.9981635 58.1902,19.9878238 C58.2708794,19.9774011 58.3736,19.9721689 58.4966984,19.9721689 C58.6202127,19.9721689 58.7229333,19.9774011 58.8031968,19.9878238 C58.8822127,19.9981635 58.9470889,20.0120744 58.9953302,20.0311759 C59.044819,20.0484918 59.0789206,20.0710813 59.0980508,20.0969929 C59.1184286,20.1230291 59.1288254,20.1525118 59.1288254,20.1854826 L59.1288254,24.7105802 Z M56.6032286,24.6846271 C56.6102984,24.7695041 56.5707905,24.828428 56.4884476,24.8631844 C56.4044413,24.8961137 56.2538952,24.9134296 56.0397206,24.9134296 C55.9095524,24.9134296 55.8051683,24.9117686 55.7261524,24.9082805 C55.6475524,24.9047509 55.5876667,24.8961137 55.5448317,24.8822443 C55.5036603,24.8700775 55.4745492,24.8492735 55.4591619,24.825023 C55.4437746,24.7990283 55.4350413,24.766016 55.4317143,24.7262351 L55.1663873,22.2902158 C55.157654,22.2018092 55.147673,22.1047654 55.1389397,21.9955548 C55.1322857,21.8880052 55.1235524,21.7770921 55.114819,21.6660959 C55.1065016,21.5533973 55.0994317,21.4424426 55.0927778,21.333232 C55.0857079,21.2222358 55.0773905,21.123448 55.0669937,21.0349999 L55.0719841,20.9084734 C55.0482794,21.0003265 55.0224952,21.0991974 54.9950476,21.208408 C54.9659365,21.3158746 54.9351619,21.4268292 54.9027238,21.5378254 C54.8682063,21.6505241 54.8374317,21.7614372 54.8066571,21.8707309 C54.777546,21.9816855 54.7484349,22.0805149 54.7209873,22.168963 L53.9366508,24.6794365 C53.922927,24.7210445 53.9025492,24.7556763 53.8767651,24.7868615 C53.8493175,24.8163442 53.8118889,24.8406779 53.7636476,24.8596963 C53.7141587,24.8787562 53.6526095,24.8926256 53.5769206,24.9012628 C53.5033111,24.909983 53.4076603,24.9134296 53.2945429,24.9134296 C53.1918222,24.9134296 53.1028254,24.909983 53.0308794,24.9012628 C52.9589333,24.8926256 52.8990476,24.8787562 52.8508063,24.8596963 C52.802981,24.8406779 52.7655524,24.8163442 52.7381048,24.7868615 C52.7123206,24.7556763 52.6936063,24.7193005 52.6832095,24.6742044 L51.9142603,22.168963 C51.8884762,22.0805149 51.8593651,21.9816855 51.826927,21.8741359 C51.7944889,21.7649668 51.7637143,21.6557562 51.7308603,21.542933 C51.7000857,21.4320614 51.6693111,21.3211067 51.6418635,21.2101521 C51.6127524,21.1008999 51.5886317,21.0003265 51.568254,20.9084734 L51.5736603,21.0349999 C51.5665905,21.123448 51.5595206,21.2222358 51.5528667,21.333232 C51.5462127,21.4424426 51.5391429,21.5533973 51.528746,21.6660959 C51.5187651,21.7770921 51.5083683,21.8880052 51.4979714,21.9955548 C51.4879905,22.1047654 51.4809206,22.2018092 51.4742667,22.2902158 L51.2189206,24.6949668 C51.2118508,24.7383604 51.2002063,24.7747363 51.1831556,24.8041774 C51.1673524,24.8337017 51.1349143,24.8562497 51.0887524,24.8736071 C51.040927,24.8891375 50.9772984,24.9012628 50.8970349,24.9064949 C50.8163556,24.9117686 50.7103079,24.9134296 50.5801397,24.9134296 C50.4636952,24.9134296 50.3692921,24.909983 50.2994254,24.9030483 C50.2291429,24.8961137 50.1742476,24.8839469 50.1347397,24.8648869 C50.0973111,24.8457854 50.071527,24.8233204 50.0594667,24.7937547 C50.0490698,24.7643135 50.0440794,24.7279792 50.0474063,24.6846271 L50.4894794,20.4403211 C50.5065302,20.2947347 50.5526921,20.1854826 50.6296286,20.1126478 C50.706981,20.0398131 50.8234254,20.0034372 50.9810413,20.0034372 L51.6181587,20.0034372 C51.7533175,20.0034372 51.8664349,20.0137769 51.9604222,20.0345809 C52.0548254,20.0536824 52.1350889,20.0900998 52.2053714,20.1403865 C52.2773175,20.1906732 52.3355397,20.2600198 52.3817016,20.348468 C52.4278635,20.436833 52.4706984,20.5477877 52.5068794,20.6795879 L53.0100857,22.2347385 C53.0396127,22.337056 53.0703873,22.4428615 53.0990825,22.5520721 C53.130273,22.6629853 53.1610476,22.7722374 53.1901587,22.8832336 C53.2209333,22.9924442 53.248381,23.0999107 53.2720857,23.2021451 C53.2978698,23.3062482 53.320327,23.4033335 53.3407048,23.4952697 L53.3461111,23.4952697 C53.3664889,23.4033335 53.388946,23.3045041 53.4159778,23.195252 C53.4434254,23.0859999 53.470873,22.9768723 53.4983206,22.8641321 C53.5274317,22.753219 53.5565429,22.6422228 53.588981,22.5347562 C53.6197556,22.4254626 53.6505302,22.3249722 53.6817206,22.229631 L54.1816,20.6795879 C54.2140381,20.558252 54.2518825,20.4524464 54.2913905,20.3675279 C54.3325619,20.2808238 54.3837143,20.2115187 54.446927,20.1577024 C54.5105556,20.1057547 54.5891556,20.0675933 54.6835587,20.0415986 C54.7758825,20.0155625 54.892327,20.0034372 55.0291492,20.0034372 L55.6596127,20.0034372 C55.8205556,20.0034372 55.940327,20.0398131 56.0193429,20.1126478 C56.0962794,20.1854826 56.1424413,20.2947347 56.1561651,20.4403211 L56.6032286,24.6846271 Z M47.7650952,22.4479691 C47.7650952,22.2243573 47.7480444,22.0181029 47.7122794,21.8308254 C47.6760984,21.6418454 47.6178762,21.47886 47.5322063,21.3401251 C47.4482,21.2015149 47.3371619,21.0922212 47.1982603,21.0141959 C47.0576952,20.936129 46.8830286,20.8979675 46.6709333,20.8979675 C46.4825429,20.8979675 46.3178571,20.9327239 46.1760444,21.0020706 C46.0354794,21.0713757 45.9190349,21.1737347 45.8283746,21.3072374 C45.7372984,21.4407401 45.6690952,21.6019399 45.6245968,21.7891759 C45.578019,21.9781974 45.5559778,22.1914695 45.5559778,22.4323973 C45.5559778,22.6560506 45.5746921,22.8624296 45.610873,23.0496655 C45.6483016,23.238604 45.7081873,23.4015894 45.7905302,23.5402827 C45.872873,23.6790176 45.9839111,23.7865257 46.1261397,23.8628485 C46.2667048,23.9390052 46.4413714,23.9771667 46.6501397,23.9771667 C46.842273,23.9771667 47.0082063,23.9425349 47.1504349,23.8732297 C47.291,23.8038831 47.4074444,23.7033512 47.4981048,23.5715095 C47.5887651,23.4380899 47.6553048,23.2785095 47.700219,23.0912735 C47.743054,22.9022935 47.7650952,22.6890214 47.7650952,22.4479691 Z M49.0597079,22.3977239 C49.0597079,22.7826601 49.010219,23.1345425 48.9091619,23.4536617 C48.8081048,23.7708707 48.6575587,24.0447693 48.4517016,24.2754403 C48.2479238,24.5060283 47.9929937,24.6828831 47.6848317,24.8094096 C47.376254,24.9342751 47.0169397,24.9966455 46.6056413,24.9966455 C46.206819,24.9966455 45.8608127,24.9411267 45.5663746,24.828428 C45.2715206,24.7175564 45.0265714,24.554571 44.8331905,24.3412989 C44.6398095,24.1280683 44.4959175,23.8662535 44.4015143,23.5541936 C44.307527,23.2438362 44.2613651,22.8883827 44.2613651,22.4878746 C44.2613651,22.1030214 44.3125175,21.7493119 44.4135746,21.4302758 C44.5162952,21.1095371 44.6689206,20.8356386 44.8743619,20.6067946 C45.0781397,20.3796117 45.3334857,20.20284 45.6399841,20.0761889 C45.944819,19.9513649 46.3045492,19.889036 46.7154317,19.889036 C47.1179968,19.889036 47.4652508,19.9444718 47.7601048,20.0536824 C48.0545429,20.164637 48.2978286,20.3259199 48.489546,20.5391505 C48.682927,20.7524226 48.8251556,21.0141959 48.9195587,21.3263389 C49.013546,21.6366132 49.0597079,21.9937693 49.0597079,22.3977239 Z M43.5988794,24.7608669 C43.5988794,24.7885641 43.5905619,24.8111121 43.5714317,24.8301721 C43.5527175,24.847571 43.5202794,24.8631844 43.4741175,24.8752681 C43.4275397,24.8873934 43.3626635,24.8961137 43.2803206,24.9030483 C43.2000571,24.909983 43.0969206,24.9134296 42.9738222,24.9134296 C42.8332571,24.9134296 42.7184762,24.909983 42.6278159,24.9030483 C42.5371556,24.8961137 42.466873,24.8873934 42.4119778,24.8752681 C42.3591619,24.8631844 42.3213175,24.8457854 42.2971968,24.8215349 C42.2751556,24.7990283 42.2564413,24.7695041 42.2427175,24.7348308 L41.8264286,23.6530645 C41.7748603,23.5073535 41.720381,23.3842735 41.6621587,23.2871882 C41.6039365,23.1883588 41.5386444,23.110292 41.4683619,23.0496655 C41.3984952,22.9907416 41.3178159,22.9490506 41.2271556,22.923139 C41.1381587,22.8971444 41.0333587,22.8849776 40.9169143,22.8849776 L40.6603206,22.8849776 L40.6603206,24.7348308 C40.6603206,24.7591644 40.6482603,24.7816294 40.6258032,24.8041774 C40.6020984,24.8267255 40.564254,24.8457854 40.5143492,24.8631844 C40.4648603,24.8787562 40.3999841,24.8926256 40.3193048,24.9012628 C40.2390413,24.909983 40.1413111,24.9134296 40.0281937,24.9134296 C39.9117492,24.9134296 39.8123556,24.909983 39.7320921,24.9012628 C39.6514127,24.8926256 39.5865365,24.8787562 39.5366317,24.8631844 C39.4871429,24.8457854 39.4509619,24.8267255 39.4289206,24.8041774 C39.4064635,24.7816294 39.3964825,24.7591644 39.3964825,24.7348308 L39.3964825,20.1455771 C39.3964825,20.1213265 39.4064635,20.0987785 39.4289206,20.0761889 C39.4509619,20.0536824 39.4871429,20.036325 39.5366317,20.0207946 C39.5865365,20.0051397 39.6514127,19.9930145 39.7320921,19.9844188 C39.8123556,19.975657 39.9117492,19.9721689 40.0281937,19.9721689 C40.1413111,19.9721689 40.2390413,19.975657 40.3193048,19.9844188 C40.3999841,19.9930145 40.4648603,20.0051397 40.5143492,20.0207946 C40.564254,20.036325 40.6020984,20.0536824 40.6258032,20.0761889 C40.6482603,20.0987785 40.6603206,20.1213265 40.6603206,20.1455771 L40.6603206,21.9071067 L40.9152508,21.9071067 C41.0196349,21.9071067 41.1140381,21.8949814 41.1980444,21.8689453 C41.2799714,21.8429507 41.3573238,21.8013012 41.425527,21.7423773 C41.494146,21.6834118 41.5573587,21.603684 41.615581,21.5065986 C41.6738032,21.4077277 41.7303619,21.2864334 41.7835937,21.1407639 L42.1603746,20.164637 C42.1707714,20.1316662 42.1878222,20.1022251 42.2098635,20.0761889 C42.2339841,20.0502358 42.2701651,20.0311759 42.3179905,20.0155625 C42.3674794,19.9999491 42.4344349,19.9895264 42.5201048,19.9826332 C42.6036952,19.975657 42.7168127,19.9721689 42.8573778,19.9721689 C42.9825556,19.9721689 43.0836127,19.975657 43.1622127,19.9826332 C43.2408127,19.9895264 43.3027778,19.9999491 43.3472762,20.0120744 C43.3917746,20.0259853 43.4242127,20.0433427 43.4396,20.0606171 C43.4566508,20.0797601 43.4653841,20.1022251 43.4653841,20.1300052 C43.4653841,20.1629345 43.4583143,20.204501 43.4445905,20.2513827 C43.4308667,20.2998838 43.4088254,20.3639983 43.3747238,20.4455948 L43.0183206,21.3089814 C42.9480381,21.480604 42.8744286,21.6279345 42.7958286,21.7476094 C42.7168127,21.8689453 42.6365492,21.9677747 42.5542063,22.0458 C42.4722794,22.1237839 42.3899365,22.1862789 42.3059302,22.2329945 C42.2219238,22.2815787 42.1433238,22.3179545 42.0659714,22.3457347 L42.0659714,22.3561159 C42.1691079,22.3995095 42.2664222,22.4463081 42.355419,22.4982558 C42.4464952,22.5485425 42.5321651,22.6144841 42.6140921,22.6959145 C42.6964349,22.7774695 42.7750349,22.8780014 42.8507238,22.9993373 C42.9243333,23.1189291 42.9996063,23.2646817 43.0732159,23.4328162 L43.508219,24.4505925 C43.5285968,24.4939031 43.5439841,24.5320645 43.5560444,24.5649938 C43.5681048,24.5978815 43.5768381,24.6257032 43.5834921,24.6516148 C43.5905619,24.6776509 43.5955524,24.6984965 43.5972159,24.7157708 C43.5988794,24.7313842 43.5988794,24.7469976 43.5988794,24.7608669 Z" id="Fill-5" fill="#FFED00"></path>
                <path d="M130.880644,24.7105802 C130.880644,24.743551 130.870248,24.7729507 130.84987,24.7990283 C130.831156,24.825023 130.796638,24.8457854 130.750476,24.8631844 C130.702651,24.8787562 130.637359,24.8926256 130.555432,24.9012628 C130.473089,24.909983 130.372032,24.9134296 130.25226,24.9134296 C130.127083,24.9134296 130.024362,24.909983 129.942019,24.9012628 C129.860092,24.8926256 129.7948,24.8787562 129.746975,24.8631844 C129.700813,24.8457854 129.666295,24.825023 129.647581,24.7990283 C129.627203,24.7729507 129.616806,24.743551 129.616806,24.7105802 L129.616806,22.9265441 L127.808175,22.9265441 L127.808175,24.7105802 C127.808175,24.743551 127.797778,24.7729507 127.7774,24.7990283 C127.758686,24.825023 127.724168,24.8457854 127.674679,24.8631844 C127.626854,24.8787562 127.561562,24.8926256 127.482962,24.9012628 C127.402283,24.909983 127.299562,24.9134296 127.176463,24.9134296 C127.052949,24.9134296 126.950229,24.909983 126.869965,24.9012628 C126.790949,24.8926256 126.726073,24.8787562 126.677832,24.8631844 C126.628343,24.8457854 126.594241,24.825023 126.575527,24.7990283 C126.554733,24.7729507 126.544337,24.743551 126.544337,24.7105802 L126.544337,20.1751013 C126.544337,20.1421305 126.554733,20.1126478 126.575527,20.0866117 C126.594241,20.0606171 126.628343,20.0398131 126.677832,20.0224972 C126.726073,20.0068838 126.790949,19.9930145 126.869965,19.9844188 C126.950229,19.975657 127.052949,19.9721689 127.176463,19.9721689 C127.299562,19.9721689 127.402283,19.975657 127.482962,19.9844188 C127.561562,19.9930145 127.626854,20.0068838 127.674679,20.0224972 C127.724168,20.0398131 127.758686,20.0606171 127.7774,20.0866117 C127.797778,20.1126478 127.808175,20.1421305 127.808175,20.1751013 L127.808175,21.8758384 L129.616806,21.8758384 L129.616806,20.1751013 C129.616806,20.1421305 129.627203,20.1126478 129.647581,20.0866117 C129.666295,20.0606171 129.700813,20.0398131 129.746975,20.0224972 C129.7948,20.0068838 129.860092,19.9930145 129.942019,19.9844188 C130.024362,19.975657 130.127083,19.9721689 130.25226,19.9721689 C130.372032,19.9721689 130.473089,19.975657 130.555432,19.9844188 C130.637359,19.9930145 130.702651,20.0068838 130.750476,20.0224972 C130.796638,20.0398131 130.831156,20.0606171 130.84987,20.0866117 C130.870248,20.1126478 130.880644,20.1421305 130.880644,20.1751013 L130.880644,24.7105802 Z M125.048025,24.7262351 C125.048025,24.7591644 125.039708,24.7885641 125.020578,24.8111121 C125.001863,24.8354457 124.969425,24.8545472 124.922848,24.8700775 C124.875022,24.8856079 124.81181,24.8961137 124.732794,24.9030483 C124.654194,24.909983 124.5548,24.9134296 124.433365,24.9134296 C124.313178,24.9134296 124.210873,24.909983 124.12853,24.9030483 C124.046187,24.8961137 123.979648,24.8856079 123.928079,24.8700775 C123.874848,24.8545472 123.839083,24.8354457 123.816625,24.8111121 C123.794584,24.7885641 123.784187,24.7591644 123.784187,24.7262351 L123.784187,22.7028492 C123.784187,22.5589653 123.787514,22.4116348 123.796248,22.2589891 C123.804981,22.1081705 123.818705,21.9573934 123.834092,21.8117654 C123.753413,21.9556494 123.667743,22.0944257 123.573756,22.231292 C123.479352,22.3699853 123.385365,22.505232 123.287635,22.6404787 L121.777184,24.7210445 C121.74641,24.7573788 121.718962,24.7885641 121.691514,24.8146832 C121.66573,24.8406779 121.631629,24.8596963 121.588794,24.8752681 C121.547622,24.890923 121.49439,24.9012628 121.431178,24.9064949 C121.367965,24.9117686 121.285622,24.9134296 121.184565,24.9134296 C121.064794,24.9134296 120.967063,24.909983 120.89179,24.9030483 C120.816102,24.8961137 120.756632,24.8856079 120.711717,24.8700775 C120.665556,24.8545472 120.634781,24.8354457 120.616067,24.8094096 C120.597352,24.783415 120.588619,24.7539323 120.588619,24.7210445 L120.588619,20.1698277 C120.588619,20.1403865 120.597352,20.1126478 120.616067,20.0866117 C120.634781,20.0606171 120.667219,20.0398131 120.717124,20.0224972 C120.764949,20.0068838 120.828162,19.9930145 120.907178,19.9844188 C120.985778,19.975657 121.085171,19.9721689 121.204943,19.9721689 C121.443238,19.9721689 121.609171,19.9895264 121.706902,20.0224972 C121.804632,20.0571705 121.852457,20.1057547 121.852457,20.1698277 L121.852457,22.1827493 C121.852457,22.3231866 121.847467,22.4671121 121.83707,22.6162282 C121.826673,22.7653442 121.814613,22.9092282 121.797562,23.0479215 C121.878241,22.9127163 121.958505,22.7774695 122.042511,22.6439253 C122.126517,22.5103811 122.215514,22.3804495 122.309917,22.2555425 L123.834092,20.1698277 C123.861124,20.1334103 123.890235,20.1022251 123.919346,20.0761889 C123.950537,20.0519384 123.987965,20.0311759 124.032463,20.0155625 C124.078625,19.9999491 124.133521,19.9895264 124.198813,19.9826332 C124.265352,19.975657 124.349359,19.9721689 124.453743,19.9721689 C124.571851,19.9721689 124.667917,19.975657 124.746517,19.9826332 C124.82387,19.9895264 124.883756,20.0016932 124.929917,20.0190091 C124.974416,20.0345809 125.00519,20.0571705 125.022241,20.0848676 C125.039708,20.1109038 125.048025,20.1421305 125.048025,20.1768454 L125.048025,24.7262351 Z M119.378429,23.4536617 C119.378429,23.7033512 119.32686,23.925219 119.222476,24.115943 C119.119756,24.3066256 118.9742,24.4678669 118.787473,24.6013696 C118.599083,24.7331283 118.372848,24.8319161 118.107521,24.8978577 C117.842194,24.9636747 117.542349,24.9966455 117.21173,24.9966455 C117.04247,24.9966455 116.877784,24.9844787 116.720168,24.9585672 C116.562968,24.932531 116.419076,24.9012628 116.287244,24.8613573 C116.154997,24.8233204 116.045622,24.783415 115.958289,24.7400629 C115.870956,24.6984965 115.809406,24.660335 115.769898,24.6291498 C115.732054,24.5961375 115.702943,24.5649938 115.685892,24.5320645 C115.667178,24.5007962 115.653454,24.4644204 115.643057,24.4244734 C115.633076,24.3829069 115.626006,24.3344058 115.622679,24.2754403 C115.619352,24.2163919 115.617689,24.1436817 115.617689,24.0604242 C115.617689,23.9823988 115.621016,23.9199868 115.62767,23.8732297 C115.63474,23.8263481 115.643057,23.7865257 115.655117,23.7570429 C115.667178,23.7258577 115.680902,23.7050122 115.697952,23.6929284 C115.715003,23.6807201 115.734133,23.6755295 115.757838,23.6755295 C115.800673,23.6755295 115.857232,23.6963335 115.925851,23.739727 C115.994054,23.7813766 116.081803,23.8263481 116.187851,23.8766763 C116.292235,23.925219 116.42074,23.9720591 116.572949,24.0153281 C116.725575,24.0586801 116.908559,24.0812282 117.122733,24.0812282 C117.269952,24.0812282 117.400121,24.0656148 117.511575,24.0361321 C117.624692,24.0049469 117.718679,23.9615533 117.793952,23.9061175 C117.869641,23.8505986 117.9262,23.7813766 117.963629,23.6998216 C118.003137,23.6200106 118.021851,23.5281575 118.021851,23.42584 C118.021851,23.3322012 118.003137,23.2473243 117.966956,23.1727039 C117.929527,23.0981667 117.869641,23.0340937 117.783971,22.9820629 C117.698302,22.9300322 117.585184,22.8901267 117.446283,22.8624296 C117.307797,22.8363934 117.138121,22.8225656 116.938086,22.8225656 L116.454841,22.8225656 C116.412006,22.8225656 116.376241,22.8155479 116.350457,22.8000176 C116.32301,22.7844042 116.300968,22.7600706 116.283502,22.7254803 C116.268114,22.690807 116.25647,22.6456278 116.251063,22.5867039 C116.246073,22.5294826 116.24441,22.460219 116.24441,22.378664 C116.24441,22.2988946 116.247737,22.2347385 116.25439,22.1810883 C116.26146,22.1290575 116.271857,22.087408 116.287244,22.0562643 C116.302632,22.024996 116.321346,22.004192 116.34713,21.9903227 C116.370835,21.9764534 116.402025,21.9694772 116.439454,21.9694772 L116.903568,21.9694772 C117.085305,21.9694772 117.239178,21.9556494 117.369346,21.9296132 C117.499514,21.9019576 117.605562,21.8620937 117.689568,21.8100214 C117.773575,21.7562466 117.83346,21.6921321 117.871305,21.6158508 C117.910813,21.5395279 117.929527,21.4510798 117.929527,21.3488454 C117.929527,21.2603973 117.910813,21.1823719 117.874632,21.1130252 C117.837203,21.041976 117.785635,20.9847547 117.718679,20.9396171 C117.651724,20.89286 117.57146,20.8599307 117.47581,20.8373827 C117.381406,20.8148346 117.277022,20.8044118 117.162241,20.8044118 C116.972187,20.8044118 116.802511,20.8252574 116.653629,20.8686094 C116.504746,20.9119199 116.376241,20.958677 116.264787,21.0090052 C116.154997,21.061036 116.064337,21.1078761 115.99239,21.1476986 C115.920444,21.1893065 115.865965,21.2101521 115.829784,21.2101521 C115.809406,21.2101521 115.790692,21.2066224 115.775305,21.1979853 C115.757838,21.1893065 115.742451,21.1702466 115.727063,21.1407639 C115.711676,21.1130252 115.699616,21.0731198 115.691298,21.0211721 C115.682565,20.9708853 115.679238,20.9032412 115.679238,20.8182397 C115.679238,20.6865225 115.687556,20.5790145 115.706686,20.4992866 C115.7254,20.4195171 115.754511,20.3588492 115.797346,20.3171997 C115.838517,20.2739307 115.912127,20.227049 116.018175,20.1751013 C116.122559,20.1230291 116.247737,20.0744864 116.389965,20.0329199 C116.532194,19.9912704 116.68773,19.9565971 116.855743,19.9288999 C117.025003,19.9027808 117.198006,19.889036 117.376416,19.889036 C117.650476,19.889036 117.902079,19.9166916 118.129978,19.9704664 C118.35746,20.0242412 118.549594,20.1057547 118.708873,20.2167093 C118.867737,20.3259199 118.989587,20.4629107 119.075257,20.6258131 C119.160927,20.7888815 119.203762,20.9760344 119.203762,21.1893065 C119.203762,21.3176186 119.182968,21.4407401 119.143876,21.5603319 C119.102705,21.6782212 119.046146,21.7857708 118.972537,21.8828562 C118.898927,21.9781974 118.80993,22.06486 118.70513,22.1394388 C118.599083,22.213976 118.477232,22.2711974 118.34041,22.3110198 L118.335419,22.3214841 C118.479311,22.3388 118.61447,22.378664 118.739648,22.4428615 C118.86441,22.5087201 118.975863,22.588448 119.070267,22.6873189 C119.165917,22.7861482 119.24119,22.8988885 119.296086,23.0306056 C119.350981,23.1605787 119.378429,23.3010575 119.378429,23.4536617 Z M113.227251,22.7809991 L112.746086,22.7809991 C112.542308,22.7809991 112.369305,22.7965295 112.225413,22.8260537 C112.081521,22.8571974 111.965076,22.9022935 111.874416,22.9647055 C111.78334,23.0253734 111.718463,23.0981667 111.677292,23.1849123 C111.634457,23.2715748 111.614079,23.3703627 111.614079,23.4813173 C111.614079,23.6720829 111.673965,23.8212405 111.792073,23.928624 C111.910181,24.0378761 112.074867,24.0916509 112.285298,24.0916509 C112.461629,24.0916509 112.624651,24.0465548 112.773533,23.9546601 C112.922416,23.8628485 113.072962,23.7292628 113.227251,23.5524495 L113.227251,22.7809991 Z M114.470711,24.7262351 C114.470711,24.7729507 114.453244,24.8094096 114.420806,24.8371482 C114.386705,24.8648869 114.333473,24.8839469 114.261527,24.8961137 C114.189581,24.9082805 114.083533,24.9134296 113.941305,24.9134296 C113.790759,24.9134296 113.680968,24.9082805 113.612765,24.8961137 C113.544146,24.8839469 113.494657,24.8648869 113.466794,24.8371482 C113.438098,24.8094096 113.424375,24.7729507 113.424375,24.7262351 L113.424375,24.3655495 C113.239311,24.5649938 113.030543,24.7193005 112.793911,24.8301721 C112.559359,24.9411267 112.297359,24.9966455 112.009575,24.9966455 C111.773359,24.9966455 111.554194,24.9654603 111.355406,24.9030483 C111.156619,24.8406779 110.985695,24.7469976 110.84014,24.6239592 C110.694584,24.4990522 110.581467,24.346531 110.500787,24.1644857 C110.420524,23.9806963 110.381016,23.7674242 110.381016,23.5246694 C110.381016,23.259408 110.432584,23.0306056 110.533225,22.8363934 C110.635946,22.6404787 110.788571,22.4809814 110.990686,22.3526278 C111.1928,22.2261013 111.44274,22.1325872 111.744248,22.0718777 C112.043676,22.0110852 112.39301,21.9799415 112.790584,21.9799415 L113.227251,21.9799415 L113.227251,21.7059184 C113.227251,21.5637785 113.213527,21.4389545 113.184416,21.331488 C113.156968,21.2257239 113.109143,21.1355733 113.043851,21.0644826 C112.978975,20.9933919 112.893305,20.9414026 112.783514,20.9067708 C112.675803,20.873717 112.540644,20.8564011 112.381365,20.8564011 C112.170517,20.8564011 111.982127,20.8806516 111.817857,20.9274918 C111.651508,20.9742904 111.506368,21.0281067 111.379527,21.0852866 C111.252686,21.1425079 111.146638,21.1962827 111.060968,21.2430398 C110.975298,21.289963 110.906679,21.3142136 110.853448,21.3142136 C110.816019,21.3142136 110.783581,21.3019637 110.756133,21.2794572 C110.727022,21.2552066 110.702902,21.2205333 110.685851,21.1771813 C110.666721,21.1338292 110.653413,21.0783934 110.643016,21.0141959 C110.632619,20.9500398 110.627629,20.8789491 110.627629,20.8026263 C110.627629,20.6969038 110.635946,20.6136878 110.653413,20.5529783 C110.6688,20.4923519 110.701238,20.4386186 110.7474,20.3882904 C110.795225,20.3397477 110.875905,20.286056 110.994013,20.227049 C111.110457,20.1681667 111.247279,20.1126478 111.404895,20.0623611 C111.562511,20.0103719 111.733851,19.9687639 111.918914,19.9375787 C112.105641,19.9045663 112.297359,19.889036 112.494483,19.889036 C112.845479,19.889036 113.144908,19.9236678 113.395263,19.9930145 C113.64354,20.0623611 113.848981,20.1698277 114.00826,20.3137946 C114.169203,20.4576786 114.287311,20.643129 114.360921,20.8703119 C114.43453,21.0957509 114.470711,21.3661613 114.470711,21.6765187 L114.470711,24.7262351 Z M109.742651,20.5651866 C109.742651,20.6691651 109.73766,20.7576132 109.727263,20.830448 C109.716867,20.9032412 109.704806,20.9621651 109.687756,21.0055587 C109.670705,21.0488277 109.650327,21.0800544 109.62787,21.0991974 C109.604165,21.1182574 109.575054,21.1268946 109.5422,21.1268946 L108.088308,21.1268946 L108.088308,24.7105802 C108.088308,24.743551 108.077911,24.7729507 108.057533,24.7990283 C108.038819,24.825023 108.004302,24.8457854 107.954813,24.8631844 C107.906571,24.8787562 107.841695,24.8926256 107.763095,24.9012628 C107.682416,24.909983 107.579695,24.9134296 107.456181,24.9134296 C107.333083,24.9134296 107.230362,24.909983 107.149683,24.9012628 C107.071083,24.8926256 107.006206,24.8787562 106.957965,24.8631844 C106.908476,24.8457854 106.873959,24.825023 106.855244,24.7990283 C106.834867,24.7729507 106.82447,24.743551 106.82447,24.7105802 L106.82447,20.4143265 C106.82447,20.2791628 106.853581,20.1768454 106.91014,20.1074572 C106.966698,20.0380275 107.055695,20.0034372 107.175467,20.0034372 L109.5422,20.0034372 C109.575054,20.0034372 109.604165,20.0120744 109.62787,20.0311759 C109.650327,20.0502358 109.670705,20.0815041 109.687756,20.1247731 C109.704806,20.1681667 109.716867,20.227049 109.727263,20.2998838 C109.73766,20.372677 109.742651,20.4611251 109.742651,20.5651866 Z M104.085114,22.7809991 L103.603533,22.7809991 C103.399756,22.7809991 103.226752,22.7965295 103.08286,22.8260537 C102.938968,22.8571974 102.82294,22.9022935 102.731863,22.9647055 C102.641203,23.0253734 102.576327,23.0981667 102.535156,23.1849123 C102.492321,23.2715748 102.471527,23.3703627 102.471527,23.4813173 C102.471527,23.6720829 102.531413,23.8212405 102.649937,23.928624 C102.768044,24.0378761 102.932314,24.0916509 103.143162,24.0916509 C103.319492,24.0916509 103.482098,24.0465548 103.630981,23.9546601 C103.780279,23.8628485 103.930825,23.7292628 104.085114,23.5524495 L104.085114,22.7809991 Z M105.328159,24.7262351 C105.328159,24.7729507 105.311108,24.8094096 105.27867,24.8371482 C105.244152,24.8648869 105.191337,24.8839469 105.11939,24.8961137 C105.047444,24.9082805 104.941397,24.9134296 104.799168,24.9134296 C104.648206,24.9134296 104.538832,24.9082805 104.470213,24.8961137 C104.401594,24.8839469 104.352105,24.8648869 104.324657,24.8371482 C104.295546,24.8094096 104.281822,24.7729507 104.281822,24.7262351 L104.281822,24.3655495 C104.096759,24.5649938 103.88799,24.7193005 103.651775,24.8301721 C103.416806,24.9411267 103.154806,24.9966455 102.867438,24.9966455 C102.630806,24.9966455 102.411641,24.9654603 102.212854,24.9030483 C102.014483,24.8406779 101.843143,24.7469976 101.697587,24.6239592 C101.552032,24.4990522 101.438914,24.346531 101.358651,24.1644857 C101.277971,23.9806963 101.238463,23.7674242 101.238463,23.5246694 C101.238463,23.259408 101.290032,23.0306056 101.391089,22.8363934 C101.49381,22.6404787 101.646019,22.4809814 101.848133,22.3526278 C102.050248,22.2261013 102.300603,22.1325872 102.601695,22.0718777 C102.90154,22.0110852 103.250873,21.9799415 103.648032,21.9799415 L104.085114,21.9799415 L104.085114,21.7059184 C104.085114,21.5637785 104.070975,21.4389545 104.042279,21.331488 C104.014832,21.2257239 103.96659,21.1355733 103.901714,21.0644826 C103.836422,20.9933919 103.750752,20.9414026 103.641378,20.9067708 C103.533251,20.873717 103.398092,20.8564011 103.238813,20.8564011 C103.028381,20.8564011 102.839575,20.8806516 102.675305,20.9274918 C102.509371,20.9742904 102.363816,21.0281067 102.236975,21.0852866 C102.110133,21.1425079 102.004086,21.1962827 101.918416,21.2430398 C101.832746,21.289963 101.764543,21.3142136 101.711311,21.3142136 C101.673467,21.3142136 101.641029,21.3019637 101.613581,21.2794572 C101.58447,21.2552066 101.560765,21.2205333 101.543298,21.1771813 C101.524584,21.1338292 101.51086,21.0783934 101.500463,21.0141959 C101.490483,20.9500398 101.485076,20.8789491 101.485076,20.8026263 C101.485076,20.6969038 101.49381,20.6136878 101.51086,20.5529783 C101.526248,20.4923519 101.558686,20.4386186 101.604848,20.3882904 C101.653089,20.3397477 101.733352,20.286056 101.851876,20.227049 C101.968321,20.1681667 102.105143,20.1126478 102.262759,20.0623611 C102.420375,20.0103719 102.591298,19.9687639 102.776362,19.9375787 C102.963089,19.9045663 103.154806,19.889036 103.35193,19.889036 C103.702927,19.889036 104.002771,19.9236678 104.252711,19.9930145 C104.500987,20.0623611 104.706429,20.1698277 104.865708,20.3137946 C105.026651,20.4576786 105.145175,20.643129 105.218784,20.8703119 C105.292394,21.0957509 105.328159,21.3661613 105.328159,21.6765187 L105.328159,24.7262351 Z M100.254508,24.6846271 C100.261162,24.7695041 100.221654,24.828428 100.139727,24.8631844 C100.055721,24.8961137 99.9047587,24.9134296 99.691,24.9134296 C99.5608317,24.9134296 99.4564476,24.9117686 99.3774317,24.9082805 C99.2988317,24.9047509 99.238946,24.8961137 99.1961111,24.8822443 C99.1549397,24.8700775 99.1258286,24.8492735 99.1104413,24.825023 C99.095054,24.7990283 99.0863206,24.766016 99.0829937,24.7262351 L98.8176667,22.2902158 C98.8089333,22.2018092 98.7985365,22.1047654 98.790219,21.9955548 C98.7831492,21.8880052 98.7748317,21.7770921 98.7660984,21.6660959 C98.7573651,21.5533973 98.7507111,21.4424426 98.7440571,21.333232 C98.7369873,21.2222358 98.7286698,21.123448 98.718273,21.0349999 L98.7232635,20.9084734 C98.6995587,21.0003265 98.6737746,21.0991974 98.646327,21.208408 C98.6172159,21.3158746 98.5864413,21.4268292 98.5540032,21.5378254 C98.5194857,21.6505241 98.4887111,21.7614372 98.4579365,21.8707309 C98.4288254,21.9816855 98.3997143,22.0805149 98.3722667,22.168963 L97.5879302,24.6794365 C97.5742063,24.7210445 97.5538286,24.7556763 97.5280444,24.7868615 C97.5005968,24.8163442 97.4627524,24.8406779 97.414927,24.8596963 C97.3654381,24.8787562 97.303473,24.8926256 97.2282,24.9012628 C97.1545905,24.909983 97.0585238,24.9134296 96.9458222,24.9134296 C96.8431016,24.9134296 96.7541048,24.909983 96.6817429,24.9012628 C96.6102127,24.8926256 96.5499111,24.8787562 96.5020857,24.8596963 C96.4542603,24.8406779 96.4164159,24.8163442 96.3889683,24.7868615 C96.3636,24.7556763 96.3444698,24.7193005 96.3344889,24.6742044 L95.5655397,22.168963 C95.5397556,22.0805149 95.5106444,21.9816855 95.4782063,21.8741359 C95.4453524,21.7649668 95.4145778,21.6557562 95.3821397,21.542933 C95.3513651,21.4320614 95.3205905,21.3211067 95.2931429,21.2101521 C95.2640317,21.1008999 95.2399111,21.0003265 95.2195333,20.9084734 L95.2245238,21.0349999 C95.2178698,21.123448 95.2108,21.2222358 95.204146,21.333232 C95.1970762,21.4424426 95.1904222,21.5533973 95.1800254,21.6660959 C95.1696286,21.7770921 95.1596476,21.8880052 95.1492508,21.9955548 C95.138854,22.1047654 95.1322,22.2018092 95.1251302,22.2902158 L94.8702,24.6949668 C94.8631302,24.7383604 94.8514857,24.7747363 94.834019,24.8041774 C94.8186317,24.8337017 94.7861937,24.8562497 94.7400317,24.8736071 C94.6917905,24.8891375 94.6285778,24.9012628 94.5478984,24.9064949 C94.4676349,24.9117686 94.3615873,24.9134296 94.231419,24.9134296 C94.1149746,24.9134296 94.0205714,24.909983 93.9502889,24.9030483 C93.8800063,24.8961137 93.825527,24.8839469 93.786019,24.8648869 C93.7481746,24.8457854 93.7228063,24.8233204 93.710746,24.7937547 C93.7003492,24.7643135 93.6953587,24.7279792 93.6986857,24.6846271 L94.1403429,20.4403211 C94.1578095,20.2947347 94.2039714,20.1854826 94.2809079,20.1126478 C94.3578444,20.0398131 94.4742889,20.0034372 94.6319048,20.0034372 L95.2690222,20.0034372 C95.4045968,20.0034372 95.5172984,20.0137769 95.6117016,20.0345809 C95.7056889,20.0536824 95.7863683,20.0900998 95.8566508,20.1403865 C95.9285968,20.1906732 95.9864032,20.2600198 96.032981,20.348468 C96.0791429,20.436833 96.1219778,20.5477877 96.1581587,20.6795879 L96.6613651,22.2347385 C96.6904762,22.337056 96.7212508,22.4428615 96.7503619,22.5520721 C96.7811365,22.6629853 96.8119111,22.7722374 96.8410222,22.8832336 C96.8722127,22.9924442 96.8996603,23.0999107 96.9233651,23.2021451 C96.9491492,23.3062482 96.9711905,23.4033335 96.9919841,23.4952697 L96.9969746,23.4952697 C97.0177683,23.4033335 97.0398095,23.3045041 97.0672571,23.195252 C97.0947048,23.0859999 97.1221524,22.9768723 97.1496,22.8641321 C97.1787111,22.753219 97.2078222,22.6422228 97.2402603,22.5347562 C97.2710349,22.4254626 97.3018095,22.3249722 97.3325841,22.229631 L97.8328794,20.6795879 C97.8653175,20.558252 97.9031619,20.4524464 97.942254,20.3675279 C97.9834254,20.2808238 98.0349937,20.2115187 98.0982063,20.1577024 C98.1618349,20.1057547 98.2404349,20.0675933 98.3344222,20.0415986 C98.4271619,20.0155625 98.5436063,20.0034372 98.6804286,20.0034372 L99.3108921,20.0034372 C99.4718349,20.0034372 99.5916063,20.0398131 99.6706222,20.1126478 C99.7475587,20.1854826 99.7937206,20.2947347 99.8074444,20.4403211 L100.254508,24.6846271 Z" id="Fill-6" fill="#FFED00"></path>
            </g>
        </g>
    </g>
</svg>