<svg width="119" height="25" viewBox="0 0 119 25" xmlns="http://www.w3.org/2000/svg"><title>FB</title><path d="M55.875 1.313c1.688-.25 3.313-.563 5-.813v7.75c.688-.125 1.313-.313 2-.438 1.625-.187 3.25-.187 4.813.313 1.5.5 2.312 1.563 2.562 3.063.125.812.188 1.687.188 2.562 0 1.688 0 3.375-.063 5s-.563 3.063-1.875 4.125c-.875.688-1.938 1.063-3.063 1.188-2.187.375-4.374.312-6.562 0-.875-.125-1.813-.25-2.688-.375-.25 0-.312-.125-.312-.375V1.75c-.063-.063 0-.25 0-.438zm5 18.812c1 .125 1.938.188 2.875 0 1-.188 1.5-.75 1.563-1.75.062-1.563.062-3.125.062-4.688 0-1.062-.5-1.5-1.563-1.687-1-.188-1.874.125-2.75.563-.062.062-.187.25-.187.312v7.25zm57.688 4H113.5c-.313 0-.438-.125-.625-.375-1.375-2.25-2.688-4.563-4.063-6.813-.062-.062-.062-.125-.187-.25v7.375h-4.688c-.312 0-.437-.062-.437-.437V1.75c0-.5 0-.5.5-.563 1.375-.25 2.75-.437 4.125-.687.125 0 .25 0 .375-.063v14.376h.063l.374-.563c1.25-2 2.563-4 3.813-6.063.188-.25.313-.374.625-.374h5c-.063.187-.125.25-.188.375-1.5 2.374-3 4.75-4.562 7.187-.188.25-.188.438 0 .75 1.563 2.563 3.063 5.125 4.625 7.688.188.125.25.187.313.312zm-64.75-4.437v3.75c0 .25-.063.312-.313.375-2.25.5-4.563.625-6.875.562-1.063-.063-2.125-.25-3.125-.75-1.813-.875-2.875-2.313-3.188-4.25-.124-.688-.124-1.438-.124-2.125 0-1.25-.063-2.5 0-3.75.062-1.375.437-2.688 1.374-3.75.813-.938 1.876-1.438 3.063-1.688 2-.437 4.063-.437 6 .25 2.063.688 3.25 2.126 3.5 4.25.188 1.626.188 3.313.25 5.063h-8.75c-.313 0-.438.125-.375.375 0 .25 0 .5.063.75.187.875.624 1.313 1.5 1.375 1.062.063 2.062.125 3.124.063 1.25-.063 2.5-.313 3.75-.438-.062-.125.063-.063.126-.063zm-6.626-5.563h1c1.063 0 1.063 0 1-1.063-.062-.75-.5-1.25-1.187-1.374-.5-.063-1-.063-1.5 0-.625.062-1.063.5-1.188 1.124-.062.376-.062.75-.124 1.126 0 .25.062.312.312.312.563-.125 1.125-.125 1.688-.125zM102.313 16c-.063 1.125-.063 2.25-.188 3.313-.375 2.562-1.875 4.125-4.313 4.687-2.062.5-4.124.5-6.124-.188-2.188-.687-3.438-2.25-3.813-4.437-.125-.813-.125-1.688-.125-2.5 0-1.25-.063-2.438.063-3.688.25-2.874 1.874-4.687 4.687-5.25 2-.437 3.938-.375 5.875.25 2.125.688 3.375 2.188 3.75 4.376.125 1.187.063 2.312.188 3.437zm-5.126.063v-2.375c0-.75-.5-1.376-1.25-1.626-.624-.187-1.187-.187-1.812-.062-.813.188-1.375.813-1.375 1.563v4.874c0 .75.5 1.375 1.25 1.563.438.125.938.125 1.375.125 1.125-.063 1.75-.813 1.813-1.938v-2.125zm-10.812.125c-.063 1.062-.063 2.25-.313 3.437-.437 2.438-2 3.875-4.374 4.438-1.938.437-3.876.437-5.813-.125-2.25-.625-3.625-2.125-4.063-4.438-.124-.563-.124-1.125-.124-1.688 0-1.312-.063-2.687 0-4 .062-1.687.562-3.25 1.937-4.437.938-.813 2-1.188 3.188-1.375 1.937-.313 3.874-.313 5.75.375 2.062.75 3.25 2.25 3.562 4.438.188 1 .188 2.124.25 3.374zM76.812 16v2.5c.063.75.438 1.313 1.188 1.5.5.125 1 .188 1.5.125 1.063-.063 1.75-.813 1.75-1.813v-4.625c0-.812-.5-1.437-1.25-1.687a3.195 3.195 0 0 0-1.875 0c-.75.188-1.25.75-1.25 1.563-.063.874-.063 1.687-.063 2.437zM20.25 23.313c-.938.312-1.875.625-2.813.875-1.125.25-2.25.312-3.375 0-1.75-.5-2.75-1.688-3.062-3.438a6.195 6.195 0 0 1 0-2.625c.313-1.625 1.375-2.563 2.938-2.875.75-.125 1.5-.188 2.25-.25 1-.063 2 0 3 0 .312 0 .375-.125.375-.375v-.75c0-1.313-.625-1.563-1.625-1.625-1.625-.063-3.25-.063-4.875-.063h-.5c0-.374.062-.75.062-1.124.063-.938.188-1.876.313-2.876 0-.062.187-.25.25-.25 2.124 0 4.187 0 6.312.063.688 0 1.375.188 2 .375 1.813.5 2.688 1.813 2.938 3.563.125.75.125 1.5.125 2.25v9.5c0 .312-.063.437-.438.437H20.75c-.313 0-.438-.125-.5-.438.063-.062.063-.25 0-.375zm-2.125-4.938H17c-.75 0-1.063.375-1 1.063 0 .812.375 1.187 1.25 1.25.813.062 1.563-.188 2.25-.563.125-.063.188-.25.188-.313v-1.125c0-.25-.125-.312-.313-.312h-1.25zM11.438.063V4c0 .25-.063.313-.313.313h-2c-.25 0-.438.062-.688.062-.437.125-.687.375-.687.813v2.687h3.688c-.063.688-.126 1.313-.188 1.938l-.188 1.874c0 .313-.124.438-.437.438H7.687v12h-5c0-.188-.062-.313-.062-.5V12.562c0-.312-.063-.437-.438-.437-.687.063-1.312 0-2.062 0V8.437c0-.624-.063-.562.5-.562H2.25c.25 0 .313-.063.313-.313 0-1 0-2 .062-3C2.688 3.313 3.063 2.188 4 1.25A3.85 3.85 0 0 1 6.5.125C8.125.062 9.75.062 11.438.062zM38.75 12.438a181.01 181.01 0 0 1-2.313-.376c-1.25-.187-2.562-.312-3.812-.062-.813.188-1.25.688-1.313 1.5-.062 1.688 0 3.313 0 5 0 .75.438 1.313 1.188 1.438.938.125 1.875.187 2.75.125 1.063-.063 2.063-.313 3.125-.438h.25c0 .063.063.188.063.25v3.5c0 .25-.063.313-.313.375-1.875.438-3.75.688-5.688.563-1.687-.125-3.312-.5-4.624-1.688-1.125-1-1.75-2.25-1.813-3.688-.125-1.75-.188-3.562-.063-5.312.125-2 .938-3.75 2.75-4.813 1-.624 2.125-.874 3.25-1 2.063-.25 4.126.063 6.126.5.124 0 .312.188.312.25.125 1.25.125 2.563.125 3.876z" fill="#FFF" fill-rule="evenodd"/></svg>