<svg width="134" height="50" viewBox="0 0 134 50" xmlns="http://www.w3.org/2000/svg"><title>Glory story</title><path d="M26.016 1.56c1.968.624 3.888 1.968 3.888 4.56 0 .96-.48 3.36-1.968 3.36-.336 0-.864-.288-.864-.72 0-.48.48-1.296.48-2.112 0-2.256-1.824-3.168-4.32-3.168-9.264 0-19.536 13.536-19.536 23.808 0 3.216 2.208 4.464 4.656 4.464 4.608 0 12-5.52 14.496-9.504-2.688.672-5.616 1.248-8.352 1.248-.816 0-1.92-.288-1.92-1.2 0-.624.72-1.056 1.344-1.104 4.176-.288 8.4-.96 12.192-2.544.336-.144.72-.288 1.152-.288.768 0 1.44.576 1.44 1.296 0 .768-.768 1.152-1.44 1.296-1.968 1.824-4.512 9.408-4.512 12.816 0 .144.048.288.048.432 0 1.296-.864 2.4-1.92 2.4-.768 0-1.536-.528-1.536-1.248 0-2.064.816-4.464 1.392-6.624-3.312 2.544-8.112 5.616-12.576 5.616-4.32 0-7.44-2.928-7.44-7.056 0-7.92 8.88-26.112 22.416-26.112.96 0 1.92.096 2.88.384zM39.408.696c.48 0 1.056.912.816 1.488-2.016 5.328-8.688 24.576-11.184 37.968-.192.96-.192 2.256-1.536 2.256-.672 0-1.44-.336-1.44-1.104 0-.912.336-1.968.528-2.976 2.016-9.504 5.472-20.496 10.608-34.032.48-1.248 1.056-3.6 2.208-3.6zm11.04 23.856c.384-.24.624.72.336 1.008-.816.816-4.272 2.832-7.2 2.832A4.412 4.412 0 0 1 42 28.104c-.624 2.016-2.4 5.328-4.752 5.328-1.584 0-2.784-.96-2.64-2.688.24-2.64 3.024-7.008 6.096-7.008 3.12 0 .576 2.88 2.784 2.88 2.688 0 6.096-1.536 6.96-2.064zM39.36 29.064c.288-.624 1.68-3.408.864-3.744-1.488-.624-4.608 6.288-3.024 6.288 1.056 0 1.776-1.728 2.16-2.544zm12.624-8.208c-.384.816-.48 1.008-.528 1.872 0 .528.048 1.584.768 1.584.912 0 1.728-.96 2.544-.96.816 0 1.152.432 1.056.96-.048.144-2.688 6.528-.192 6.528 1.536 0 4.752-1.68 6-3.12.192-.192 1.056.24.528 1.104-1.296 2.16-4.416 3.744-6.624 3.744-4.032 0-3.12-4.224-2.16-6.672a9.321 9.321 0 0 1-1.152.096c-1.728 0-2.832-1.344-2.832-2.976 0-.528.288-2.832 1.68-2.832.48 0 .912.24.912.672zm19.248 14.4c.768.624.048 2.352-.768 1.872a9.633 9.633 0 0 0-2.448-1.008c-.384 1.44-1.584 4.8-2.448 6.912-.912 2.208-3.12 6.24-6.048 6.24-2.16 0-3.36-1.296-3.36-3.456 0-4.848 4.8-11.232 9.888-11.76l.912-3.264c-1.008 1.248-2.208 2.448-3.936 2.448-1.488 0-2.688-.672-2.448-2.88.144-1.392 2.256-7.92 4.176-7.92 1.104 0 .72.72.384 1.296-.432.864-3.408 7.68-2.016 7.68 2.736 0 5.424-9.408 7.008-9.408.528 0 1.104.336 1.104.912-.048.912-.432 1.968-2.736 11.184 1.008.144 1.968.48 2.736 1.152zM59.424 47.112c2.496 0 5.664-9.696 6.192-10.992-5.472.96-8.976 10.992-6.192 10.992zm31.344-20.928c.432 0 1.632 1.008 1.152 1.2-1.344.48-2.928 1.104-4.128 1.968.288.72.48 1.536.48 2.256 0 1.968-2.16 6.24-5.232 6.48-1.68 0-2.4-1.2-2.4-2.736.048-2.736 3.024-5.616 4.32-6.672-.528-.624-1.68-2.544-1.68-4.128 0-1.536 1.296-3.744 3.216-3.744.624 0 1.824.432 1.824 1.344 0 .624-.144 2.352-1.056 2.352-.336 0-.912-.288-.912-.576 0-.24.48-1.392.144-1.392-.48 0-1.104 1.296-1.104 1.776 0 1.104.768 2.352 1.44 3.312 1.008-.72 2.592-1.44 3.936-1.44zm-7.68 9.792c1.344 0 3.312-3.36 2.688-5.52-1.392.912-4.272 5.52-2.688 5.52zm23.76-21.024c1.92 0 2.688 1.824 0 1.824-.672 0-6.672.096-8.64.048-1.104 4.224-2.592 8.64-3.792 12.864l-2.256 8.064c-.144.336 0 .24.192.48a.695.695 0 0 1 .048.528c-.336.816-.816 1.392-1.68 1.536-.48.048-.96-.048-1.248-.384-.336-.384-.192-.864-.096-1.296.24-.96.528-1.92.816-2.88l1.872-6.336a969.047 969.047 0 0 1 3.84-12.624c-1.968 0-4.032-.096-6.048-.096-.48 0-.96.048-1.344-.288a.84.84 0 0 1 0-1.2c.384-.288.864-.288 1.344-.288 6.24 0 6.624.048 6.624.048l1.584-4.608c.288-.816.72-2.112 1.92-1.44.48.288.48.672.336 1.152l-1.488 4.896c2.544.048 6.912 0 8.016 0zm6.048 9.6c.384-.24.624.72.336 1.008-.816.816-4.272 2.832-7.2 2.832a4.412 4.412 0 0 1-1.584-.288c-.624 2.016-2.4 5.328-4.752 5.328-1.584 0-2.784-.96-2.64-2.688.24-2.64 3.024-7.008 6.096-7.008 3.12 0 .576 2.88 2.784 2.88 2.688 0 6.096-1.536 6.96-2.064zm-11.088 4.512c.288-.624 1.68-3.408.864-3.744-1.488-.624-4.608 6.288-3.024 6.288 1.056 0 1.776-1.728 2.16-2.544zm12.624-8.208c-.384.816-.48 1.008-.528 1.872 0 .528.048 1.584.768 1.584.912 0 1.728-.96 2.544-.96.816 0 1.152.432 1.056.96-.048.144-2.688 6.528-.192 6.528 1.536 0 4.752-1.68 6-3.12.192-.192 1.056.24.528 1.104-1.296 2.16-4.416 3.744-6.624 3.744-4.032 0-3.12-4.224-2.16-6.672a9.321 9.321 0 0 1-1.152.096c-1.728 0-2.832-1.344-2.832-2.976 0-.528.288-2.832 1.68-2.832.48 0 .912.24.912.672zm19.248 14.4c.768.624.048 2.352-.768 1.872a9.633 9.633 0 0 0-2.448-1.008c-.384 1.44-1.584 4.8-2.448 6.912-.912 2.208-3.12 6.24-6.048 6.24-2.16 0-3.36-1.296-3.36-3.456 0-4.848 4.8-11.232 9.888-11.76l.912-3.264c-1.008 1.248-2.208 2.448-3.936 2.448-1.488 0-2.688-.672-2.448-2.88.144-1.392 2.256-7.92 4.176-7.92 1.104 0 .72.72.384 1.296-.432.864-3.408 7.68-2.016 7.68 2.736 0 5.424-9.408 7.008-9.408.528 0 1.104.336 1.104.912-.048.912-.432 1.968-2.736 11.184 1.008.144 1.968.48 2.736 1.152zm-11.808 11.856c2.496 0 5.664-9.696 6.192-10.992-5.472.96-8.976 10.992-6.192 10.992z" fill="#FFF" fill-rule="evenodd"/></svg>