<?xml version="1.0" encoding="UTF-8"?>
<svg width="200px" height="37px" viewBox="0 0 200 37" version="1.1" xmlns="http://www.w3.org/2000/svg" xmlns:xlink="http://www.w3.org/1999/xlink">
    <!-- Generator: Sketch 52.6 (67491) - http://www.bohemiancoding.com/sketch -->
    <title>все всем лого</title>
    <desc>Created with Sketch.</desc>
    <g id="Руслан" stroke="none" stroke-width="1" fill="none" fill-rule="evenodd">
        <g id="Glavnaya_shop_new" transform="translate(-191.000000, -16.000000)">
            <g id="все-всем-лого" transform="translate(191.000000, 16.000000)">
                <path d="M22.0909091,12.1818182 L22.0909091,10.1818182 L20.0909091,10.1818182 L20.0909091,8.18181818 L0.0909090909,8.18181818 L0.0909090909,36.1363636 L20.0909091,36.1363636 L20.0909091,34.1363636 L22.0909091,34.1363636 L22.0909091,32.1363636 L24.0909091,32.1363636 L24.0909091,24.1363636 L22.0909091,24.1363636 L22.0909091,20.1363636 L24.0909091,20.1363636 L24.0909091,12.1363636 L22.0909091,12.1363636 L22.0909091,12.1818182 Z M20.0909091,30.1818182 L18.0909091,30.1818182 L18.0909091,32.1818182 L4.09090909,32.1818182 L4.09090909,24.1818182 L18.0909091,24.1818182 L18.0909091,26.1818182 L20.0909091,26.1818182 L20.0909091,30.1818182 Z M20.0909091,18.1818182 L18.0909091,18.1818182 L18.0909091,20.1818182 L4.09090909,20.1818182 L4.09090909,12.1818182 L18.0909091,12.1818182 L18.0909091,14.1818182 L20.0909091,14.1818182 L20.0909091,18.1818182 Z" id="Shape" fill="#020000" fill-rule="nonzero"></path>
                <polygon id="Path" fill="#020000" points="52.0454545 16.1818182 52.0454545 12.1818182 50.0454545 12.1818182 50.0454545 10.1818182 48.0454545 10.1818182 48.0454545 8.18181818 32.0909091 8.18181818 32.0909091 10.1818182 30.0909091 10.1818182 30.0909091 12.1818182 28.0909091 12.1818182 28.0909091 32.1818182 30.0909091 32.1818182 30.0909091 34.1818182 32.0909091 34.1818182 32.0909091 36.1818182 48.0454545 36.1818182 48.0454545 34.1818182 50.0454545 34.1818182 50.0454545 32.1818182 52.0454545 32.1818182 52.0454545 28.1818182 48.0454545 28.1818182 48.0454545 30.1818182 46.0454545 30.1818182 46.0454545 32.1818182 34.0909091 32.1818182 34.0909091 30.1818182 32.0909091 30.1818182 32.0909091 14.1818182 34.0909091 14.1818182 34.0909091 12.1818182 46.0454545 12.1818182 46.0454545 14.1818182 48.0454545 14.1818182 48.0454545 16.1818182"></polygon>
                <polygon id="Path" fill="#020000" points="195.863636 8.18181818 195.863636 12.1818182 193.863636 12.1818182 193.863636 14.1818182 191.863636 14.1818182 191.863636 16.1818182 189.863636 16.1818182 189.863636 18.1818182 187.909091 18.1818182 187.909091 20.1818182 185.909091 20.1818182 185.909091 20.1818182 183.909091 20.1818182 183.909091 18.1818182 181.909091 18.1818182 181.909091 16.1818182 179.909091 16.1818182 179.909091 14.1818182 177.909091 14.1818182 177.909091 12.1818182 175.909091 12.1818182 175.909091 8.22727273 171.909091 8.22727273 171.909091 36.1818182 175.909091 36.1818182 175.909091 18.1818182 177.909091 18.1818182 177.909091 20.1818182 179.909091 20.1818182 179.909091 22.1818182 181.909091 22.1818182 181.909091 24.1818182 183.909091 24.1818182 183.909091 28.1818182 187.909091 28.1818182 187.909091 24.1818182 189.863636 24.1818182 189.863636 22.1818182 191.863636 22.1818182 191.863636 20.1818182 193.863636 20.1818182 193.863636 18.1818182 195.863636 18.1818182 195.863636 36.1818182 199.863636 36.1818182 199.863636 8.18181818"></polygon>
                <g id="Group" transform="translate(55.909091, 0.000000)" fill="#020000">
                    <polygon id="Path" points="4.13636364 8.18181818 4.13636364 10.1818182 2.13636364 10.1818182 2.13636364 12.1818182 0.136363636 12.1818182 0.136363636 32.1818182 2.13636364 32.1818182 2.13636364 34.1818182 4.13636364 34.1818182 4.13636364 36.1818182 20.1363636 36.1818182 20.1363636 32.1818182 6.13636364 32.1818182 6.13636364 30.1818182 4.13636364 30.1818182 4.13636364 24.1818182 20.1363636 24.1818182 20.1363636 20.1818182 4.13636364 20.1818182 4.13636364 14.1818182 6.13636364 14.1818182 6.13636364 12.1818182 20.1363636 12.1818182 20.1363636 8.18181818"></polygon>
                    <rect id="Rectangle" x="16.1363636" y="0.181818182" width="4" height="4"></rect>
                    <rect id="Rectangle" x="4.13636364" y="0.181818182" width="4" height="4"></rect>
                </g>
                <path d="M113.954545,12.1818182 L113.954545,10.1818182 L111.954545,10.1818182 L111.954545,8.18181818 L91.9545455,8.18181818 L91.9545455,36.1363636 L111.954545,36.1363636 L111.954545,34.1363636 L113.954545,34.1363636 L113.954545,32.1363636 L115.954545,32.1363636 L115.954545,24.1363636 L113.954545,24.1363636 L113.954545,20.1363636 L115.954545,20.1363636 L115.954545,12.1363636 L113.954545,12.1363636 L113.954545,12.1818182 Z M111.954545,30.1818182 L109.954545,30.1818182 L109.954545,32.1818182 L107.954545,32.1818182 L103.954545,32.1818182 L99.9545455,32.1818182 L95.9545455,32.1818182 L95.9545455,28.1818182 L95.9545455,24.1818182 L99.9545455,24.1818182 L103.954545,24.1818182 L107.954545,24.1818182 L109.954545,24.1818182 L109.954545,26.1818182 L111.954545,26.1818182 L111.954545,28.1818182 L111.954545,30.1818182 Z M111.954545,18.1818182 L109.954545,18.1818182 L109.954545,20.1818182 L107.954545,20.1818182 L103.954545,20.1818182 L99.9545455,20.1818182 L95.9545455,20.1818182 L95.9545455,16.1818182 L95.9545455,12.1818182 L99.9545455,12.1818182 L103.954545,12.1818182 L107.954545,12.1818182 L109.954545,12.1818182 L109.954545,14.1818182 L111.954545,14.1818182 L111.954545,16.1818182 L111.954545,18.1818182 Z" id="Shape" fill="#020000" fill-rule="nonzero"></path>
                <polygon id="Path" fill="#020000" points="143.909091 16.1818182 143.909091 12.1818182 141.909091 12.1818182 141.909091 10.1818182 139.954545 10.1818182 139.954545 8.18181818 123.954545 8.18181818 123.954545 10.1818182 121.954545 10.1818182 121.954545 12.1818182 119.954545 12.1818182 119.954545 32.1818182 121.954545 32.1818182 121.954545 34.1818182 123.954545 34.1818182 123.954545 36.1818182 139.954545 36.1818182 139.954545 34.1818182 141.909091 34.1818182 141.909091 32.1818182 143.909091 32.1818182 143.909091 28.1818182 139.954545 28.1818182 139.954545 30.1818182 137.954545 30.1818182 137.954545 32.1818182 125.954545 32.1818182 125.954545 30.1818182 123.954545 30.1818182 123.954545 14.1818182 125.954545 14.1818182 125.954545 12.1818182 137.954545 12.1818182 137.954545 14.1818182 139.954545 14.1818182 139.954545 16.1818182"></polygon>
                <polygon id="Path" fill="#020000" points="151.909091 14.1818182 153.909091 14.1818182 153.909091 12.1818182 167.909091 12.1818182 167.909091 8.18181818 151.909091 8.18181818 151.909091 10.1818182 149.909091 10.1818182 149.909091 12.1818182 147.909091 12.1818182 147.909091 32.1818182 149.909091 32.1818182 149.909091 34.1818182 151.909091 34.1818182 151.909091 36.1818182 167.909091 36.1818182 167.909091 32.1818182 153.909091 32.1818182 153.909091 30.1818182 151.909091 30.1818182 151.909091 24.1818182 167.909091 24.1818182 167.909091 20.1818182 151.909091 20.1818182"></polygon>
                <rect id="Rectangle" fill="#42B02B" x="5.86363636" y="25.5" width="2.54545455" height="5.40909091"></rect>
                <rect id="Rectangle" fill="#42B02B" x="14.1363636" y="25.5" width="2.54545455" height="5.40909091"></rect>
                <rect id="Rectangle" fill="#42B02B" x="10.0454545" y="25.5" width="2.54545455" height="5.40909091"></rect>
                <rect id="Rectangle" fill="#42B02B" x="5.81818182" y="13.5" width="2.54545455" height="5.40909091"></rect>
                <rect id="Rectangle" fill="#42B02B" x="14.0909091" y="13.5" width="2.54545455" height="5.40909091"></rect>
                <rect id="Rectangle" fill="#42B02B" x="10" y="13.5" width="2.54545455" height="5.40909091"></rect>
            </g>
        </g>
    </g>
</svg>