<svg width="25" height="25" viewBox="0 0 25 25" xmlns="http://www.w3.org/2000/svg"><title>Shape</title><path d="M23.232 17.971c-.738-.737-1.972-1.381-3.919-2.355-.981-.49-2.614-1.307-3.01-1.68 1.658-2.039 2.62-4.34 2.62-6.355 0-1.367 0-3.069-.765-4.586C17.468 1.628 15.927 0 12.5 0 9.073 0 7.532 1.628 6.843 2.995c-.766 1.517-.766 3.218-.766 4.586 0 2.015.961 4.316 2.62 6.354-.397.375-2.03 1.191-3.011 1.68-1.946.974-3.18 1.618-3.92 2.356C.133 19.607.01 22.351 0 22.885A2.084 2.084 0 0 0 2.083 25h20.833A2.085 2.085 0 0 0 25 22.884c-.009-.533-.133-3.277-1.768-4.913zm.056 5.311a.52.52 0 0 1-.372.156H2.083a.52.52 0 0 1-.52-.529c.004-.262.076-2.599 1.309-3.832.569-.57 1.76-1.187 3.513-2.063 1.87-.935 2.907-1.492 3.385-1.944l1.055-.997-.916-1.124c-1.442-1.772-2.27-3.729-2.27-5.368 0-1.265 0-2.697.598-3.882.717-1.418 2.15-2.136 4.263-2.136 2.112 0 3.547.718 4.263 2.135.598 1.186.598 2.618.598 3.883 0 1.639-.827 3.595-2.271 5.368l-.916 1.125 1.055.997c.478.45 1.514 1.007 3.385 1.943 1.752.876 2.944 1.493 3.513 2.063 1.004 1.003 1.296 2.88 1.31 3.832a.52.52 0 0 1-.149.373z" fill="#FFF" fill-rule="nonzero"/></svg>