<svg width="220" height="40" viewBox="0 0 220 40" xmlns="http://www.w3.org/2000/svg"><title>A7C6499E-852E-4ADA-83A1-5D67D0EBBFAB</title><g fill="none" fill-rule="evenodd"><path d="M24.3 13.4v-2.2h-2.2V9H.1v30.75h22v-2.2h2.2v-2.2h2.2v-8.8h-2.2v-4.4h2.2v-8.8h-2.2v.05zm-2.2 19.8h-2.2v2.2H4.5v-8.8h15.4v2.2h2.2v4.4zm0-13.2h-2.2v2.2H4.5v-8.8h15.4v2.2h2.2V20z" fill="#FFF" fill-rule="nonzero"/><path fill="#FFF" d="M57.25 17.8v-4.4h-2.2v-2.2h-2.2V9H35.3v2.2h-2.2v2.2h-2.2v22h2.2v2.2h2.2v2.2h17.55v-2.2h2.2v-2.2h2.2V31h-4.4v2.2h-2.2v2.2H37.5v-2.2h-2.2V15.6h2.2v-2.2h13.15v2.2h2.2v2.2zM215.45 9v4.4h-2.2v2.2h-2.2v2.2h-2.2V20h-2.15v2.2h-4.4V20h-2.2v-2.2h-2.2v-2.2h-2.2v-2.2h-2.2V9.05h-4.4V39.8h4.4V20h2.2v2.2h2.2v2.2h2.2v2.2h2.2V31h4.4v-4.4h2.15v-2.2h2.2v-2.2h2.2V20h2.2v19.8h4.4V9z"/><g fill="#FFF"><path d="M66.05 9v2.2h-2.2v2.2h-2.2v22h2.2v2.2h2.2v2.2h17.6v-4.4h-15.4v-2.2h-2.2v-6.6h17.6v-4.4h-17.6v-6.6h2.2v-2.2h15.4V9zM79.25.2h4.4v4.4h-4.4zM66.05.2h4.4v4.4h-4.4z"/></g><path d="M125.35 13.4v-2.2h-2.2V9h-22v30.75h22v-2.2h2.2v-2.2h2.2v-8.8h-2.2v-4.4h2.2v-8.8h-2.2v.05zm-2.2 19.8h-2.2v2.2h-15.4v-8.8H120.95v2.2h2.2v4.4zm0-13.2h-2.2v2.2h-15.4v-8.8H120.95v2.2h2.2V20z" fill="#FFF" fill-rule="nonzero"/><path fill="#FFF" d="M158.3 17.8v-4.4h-2.2v-2.2h-2.15V9h-17.6v2.2h-2.2v2.2h-2.2v22h2.2v2.2h2.2v2.2h17.6v-2.2h2.15v-2.2h2.2V31h-4.35v2.2h-2.2v2.2h-13.2v-2.2h-2.2V15.6h2.2v-2.2h13.2v2.2h2.2v2.2zM167.1 15.6h2.2v-2.2h15.4V9h-17.6v2.2h-2.2v2.2h-2.2v22h2.2v2.2h2.2v2.2h17.6v-4.4h-15.4v-2.2h-2.2v-6.6h17.6v-4.4h-17.6z"/><path fill="#42B02B" d="M6.45 28.05h2.8V34h-2.8zM15.55 28.05h2.8V34h-2.8zM11.05 28.05h2.8V34h-2.8zM6.4 14.85h2.8v5.95H6.4zM15.5 14.85h2.8v5.95h-2.8zM11 14.85h2.8v5.95H11z"/></g></svg>