<?xml version="1.0" encoding="utf-8"?>
<!-- Generator: Adobe Illustrator 21.0.0, SVG Export Plug-In . SVG Version: 6.00 Build 0)  -->
<svg version="1.1" id="Layer_1" xmlns="http://www.w3.org/2000/svg" xmlns:xlink="http://www.w3.org/1999/xlink" x="0px" y="0px"
	 viewBox="0 0 18 9.7" style="enable-background:new 0 0 18 9.7;" xml:space="preserve">
<style type="text/css">
	.st0{fill:#242E39;}
</style>
<title>Arrow-left - simple-line-icons Copy</title>
<desc>Created with Sketch.</desc>
<g id="Symbols">
	<g id="footer" transform="translate(-1600.000000, -107.000000)">
		<g id="reviews">
			<g transform="translate(312.000000, 107.000000)">
				<g id="slider_review" transform="translate(1268.000000, 0.000000)">
					<path id="Arrow-left---simple-line-icons-Copy" class="st0" d="M38,0.6c0-0.1,0-0.2,0-0.2s-0.1-0.1-0.1-0.2
						C37.7,0.1,37.5,0,37.4,0s-0.3,0.1-0.4,0.2l-8,8L21,0.3c-0.1-0.1-0.3-0.2-0.4-0.2s-0.3,0.1-0.4,0.2S20,0.5,20,0.7
						s0.1,0.3,0.2,0.4l8.3,8.3c0.1,0.1,0.3,0.2,0.4,0.2s0.3-0.1,0.4-0.2L37.8,1c0.1-0.1,0.1-0.1,0.1-0.2S38,0.7,38,0.6z"/>
				</g>
			</g>
		</g>
	</g>
</g>
</svg>
