<?xml version="1.0" encoding="UTF-8"?>
<svg width="18px" height="20px" viewBox="0 0 18 20" version="1.1" xmlns="http://www.w3.org/2000/svg" xmlns:xlink="http://www.w3.org/1999/xlink">
    <!-- Generator: Sketch 50.2 (55047) - http://www.bohemiancoding.com/sketch -->
    <title>Shape</title>
    <desc>Created with Sketch.</desc>
    <defs></defs>
    <g id="Desktop-wireframes" stroke="none" stroke-width="1" fill="none" fill-rule="evenodd">
        <g id="kapital_kabinet_active_credit2" transform="translate(-1347.000000, -449.000000)" fill="#E60000">
            <path d="M1361,458 L1351,458 L1351,460 L1361,460 L1361,458 L1361,458 Z M1363,451 L1362,451 L1362,449 L1360,449 L1360,451 L1352,451 L1352,449 L1350,449 L1350,451 L1349,451 C1347.89,451 1347.01,451.9 1347.01,453 L1347,467 C1347,468.1 1347.89,469 1349,469 L1363,469 C1364.1,469 1365,468.1 1365,467 L1365,453 C1365,451.9 1364.1,451 1363,451 L1363,451 Z M1363,467 L1349,467 L1349,456 L1363,456 L1363,467 L1363,467 Z M1358,462 L1351,462 L1351,464 L1358,464 L1358,462 L1358,462 Z" id="Shape"></path>
        </g>
    </g>
</svg>