<svg id="Layer_1" data-name="Layer 1" xmlns="http://www.w3.org/2000/svg" viewBox="0 0 1294.3 1297.4"><defs><style>.cls-1{fill:#f8f8f8;}</style></defs><title>Group_doc</title><path class="cls-1" d="M1280.1,326h-.1l-149.3-23.6-4.2,23.9,28.4-161.1a19.7,19.7,0,0,0-15.9-22.9h-.2L333.3.3a19.7,19.7,0,0,0-22.9,15.9h0l-24.9,141H19.8A19.8,19.8,0,0,0,0,177.1v758a12.1,12.1,0,0,0,.2,1.2,19.6,19.6,0,0,0,1,5.1,13.4,13.4,0,0,0,.7,1.8A19.7,19.7,0,0,0,5.8,949l342.9,342.5a19.3,19.3,0,0,0,5.8,3.9l1.9.7a19.5,19.5,0,0,0,5,1l1.3.3H837.9a19.8,19.8,0,0,0,19.8-19.8v-28.3l269.3,42.6a16.9,16.9,0,0,0,19.4-14h0l147.7-932.4A16.9,16.9,0,0,0,1280.1,326ZM342.9,1229.8,67.5,954.8H308.1l34.8,49.6Zm475.2,28H382.5V935.1a19.8,19.8,0,0,0-19.8-19.8H39.6V196.9H818.1ZM837.9,157.3H325.8L346,42.6l766.5,135.2L928.7,1220.2l-71-12.5V177.1A19.8,19.8,0,0,0,837.9,157.3ZM1115.5,1256l-148.8-23.6L1124.8,336l133.1,21.1Z" transform="translate(0 0)"/></svg>