<?xml version="1.0" encoding="UTF-8"?>
<svg width="17px" height="17px" viewBox="0 0 17 17" version="1.1" xmlns="http://www.w3.org/2000/svg" xmlns:xlink="http://www.w3.org/1999/xlink">
    <!-- Generator: Sketch 50.2 (55047) - http://www.bohemiancoding.com/sketch -->
    <title></title>
    <desc>Created with Sketch.</desc>
    <defs></defs>
    <g id="Desktop-wireframes" stroke="none" stroke-width="1" fill="none" fill-rule="evenodd">
        <g id="kapital_kabinet_active_credit2" transform="translate(-330.000000, -543.000000)" fill="#E60000">
            <path d="M338.848633,553.973633 L340.791016,552.03125 L330.53125,552.03125 C330.387369,552.03125 330.262859,551.978679 330.157715,551.873535 C330.052571,551.768391 330,551.643881 330,551.5 C330,551.345051 330.052571,551.217774 330.157715,551.118164 C330.262859,551.018554 330.387369,550.96875 330.53125,550.96875 L340.757812,550.96875 L338.848633,549.042969 C338.737955,548.943359 338.682617,548.818848 338.682617,548.669434 C338.682617,548.520019 338.737955,548.395508 338.848633,548.295898 C338.948243,548.185221 339.069986,548.129883 339.213867,548.129883 C339.357748,548.129883 339.485025,548.185221 339.595703,548.295898 L342.733398,551.516602 L339.595703,554.737305 C339.540364,554.781576 339.479493,554.817545 339.413086,554.845215 C339.346679,554.872884 339.280274,554.886719 339.213867,554.886719 C339.147461,554.886719 339.081055,554.872884 339.014648,554.845215 C338.948242,554.817545 338.892904,554.781576 338.848633,554.737305 C338.737955,554.626627 338.682617,554.49935 338.682617,554.355469 C338.682617,554.211588 338.737955,554.08431 338.848633,553.973633 Z M345.9375,543 C346.23633,543 346.488117,543.102375 346.692871,543.307129 C346.897625,543.511883 347,543.76367 347,544.0625 L347,558.9375 C347,559.23633 346.897625,559.488117 346.692871,559.692871 C346.488117,559.897625 346.23633,560 345.9375,560 L336.375,560 C336.087238,560 335.838217,559.897625 335.62793,559.692871 C335.417642,559.488117 335.3125,559.23633 335.3125,558.9375 L335.3125,554.139648 L336.391602,554.139648 L336.391602,558.290039 C336.391602,558.467123 336.452473,558.619303 336.574219,558.746582 C336.695964,558.873861 336.845377,558.9375 337.022461,558.9375 L345.290039,558.9375 C345.467123,558.9375 345.619303,558.873861 345.746582,558.746582 C345.873861,558.619303 345.9375,558.467123 345.9375,558.290039 L345.920898,544.709961 C345.920898,544.532877 345.85726,544.380697 345.72998,544.253418 C345.602701,544.126139 345.450522,544.0625 345.273438,544.0625 L337.022461,544.0625 C336.845377,544.0625 336.695964,544.126139 336.574219,544.253418 C336.452473,544.380697 336.391602,544.532877 336.391602,544.709961 L336.391602,548.84375 L335.3125,548.84375 L335.3125,544.0625 C335.3125,543.76367 335.417642,543.511883 335.62793,543.307129 C335.838217,543.102375 336.087238,543 336.375,543 L345.9375,543 Z" id=""></path>
        </g>
    </g>
</svg>