<?xml version="1.0" encoding="utf-8"?>
<!-- Generator: Adobe Illustrator 21.0.0, SVG Export Plug-In . SVG Version: 6.00 Build 0)  -->
<svg version="1.1" id="Layer_1" xmlns="http://www.w3.org/2000/svg" xmlns:xlink="http://www.w3.org/1999/xlink" x="0px" y="0px"
	 viewBox="0 0 22 13" style="enable-background:new 0 0 22 13;" xml:space="preserve">
<style type="text/css">
	.st0{fill:#fff;}
</style>
<title>Group</title>
<desc>Created with Sketch.</desc>
<g>
	<path class="st0" d="M18.5,0h-15C1.6,0,0,1.6,0,3.5v6C0,11.4,1.6,13,3.5,13h15c1.9,0,3.5-1.6,3.5-3.5v-6C22,1.6,20.4,0,18.5,0z
		 M21,9.5c0,1.4-1.1,2.5-2.5,2.5h-15C2.1,12,1,10.9,1,9.5v-6C1,2.1,2.1,1,3.5,1h15C19.9,1,21,2.1,21,3.5V9.5z"/>
	<path class="st0" d="M10,2C9.8,2,9.5,2.2,9.5,2.5S9.8,3,10,3H20c0.3,0,0.5-0.2,0.5-0.5S20.2,2,20,2H10z"/>
	<path class="st0" d="M14,6H20c0.3,0,0.5-0.2,0.5-0.5S20.2,5,20,5H14c-0.3,0-0.5,0.2-0.5,0.5S13.8,6,14,6z"/>
	<path class="st0" d="M14,9H20c0.3,0,0.5-0.2,0.5-0.5S20.2,8,20,8H14c-0.3,0-0.5,0.2-0.5,0.5S13.8,9,14,9z"/>
	<path class="st0" d="M20,10H12c-0.3,0-0.5,0.2-0.5,0.5S11.8,11,12,11H20c0.3,0,0.5-0.2,0.5-0.5S20.2,10,20,10z"/>
	<path class="st0" d="M5.5,6.5c1.1,0,2-0.9,2-2s-0.9-2-2-2s-2,0.9-2,2S4.4,6.5,5.5,6.5z M5.5,3.5c0.6,0,1,0.4,1,1s-0.4,1-1,1
		s-1-0.4-1-1S4.9,3.5,5.5,3.5z"/>
	<path class="st0" d="M5.5,7C3.6,7,2,8.6,2,10.5V11h7v-0.5C9,8.6,7.4,7,5.5,7z M3.1,10c0.2-1.1,1.2-2,2.4-2s2.2,0.9,2.4,2H3.1z"/>
</g>
</svg>
