<?xml version="1.0" encoding="utf-8"?>
<!-- Generator: Adobe Illustrator 21.0.0, SVG Export Plug-In . SVG Version: 6.00 Build 0)  -->
<svg version="1.1" id="Layer_1" xmlns="http://www.w3.org/2000/svg" xmlns:xlink="http://www.w3.org/1999/xlink" x="0px" y="0px"
	 viewBox="0 0 12 16" style="enable-background:new 0 0 12 16;" xml:space="preserve">
<style type="text/css">
	.st0{fill:#E82121;}
</style>
<title>Group</title>
<desc>Created with Sketch.</desc>
<g>
	<path class="st0" d="M6,7.5c1.9,0,3.5-1.6,3.5-3.5S7.9,0.5,6,0.5S2.5,2.1,2.5,4S4.1,7.5,6,7.5z M6,1.5c1.4,0,2.5,1.1,2.5,2.5
		S7.4,6.5,6,6.5C4.6,6.5,3.5,5.4,3.5,4S4.6,1.5,6,1.5z"/>
	<path class="st0" d="M6,9c-3.3,0-6,2.7-6,6v1h12v-1C12,11.7,9.3,9,6,9z M1,15c0-2.8,2.2-5,5-5s5,2.2,5,5H1z"/>
</g>
</svg>
