<?xml version="1.0" encoding="utf-8"?>
<!-- Generator: Adobe Illustrator 21.0.0, SVG Export Plug-In . SVG Version: 6.00 Build 0)  -->
<svg version="1.1" id="Layer_1" xmlns="http://www.w3.org/2000/svg" xmlns:xlink="http://www.w3.org/1999/xlink" x="0px" y="0px"
	 viewBox="0 0 15 21" style="enable-background:new 0 0 15 21;" xml:space="preserve">
<style type="text/css">
	.st0{fill:#E82121;}
</style>
<title>agreement</title>
<desc>Created with Sketch.</desc>
<g>
	<path class="st0" d="M13.9,0h-10c0,0,0,0,0,0c0,0,0,0,0,0c0,0,0,0,0,0c0,0,0,0,0,0c0,0,0,0,0,0c0,0,0,0,0,0c0,0,0,0,0,0
		c0,0,0,0,0,0c0,0,0,0,0,0c0,0,0,0,0,0c0,0,0,0,0,0c0,0,0,0,0,0L0.1,3.7c0,0,0,0,0,0c0,0,0,0,0,0c0,0,0,0,0,0c0,0,0,0,0,0
		c0,0,0,0,0,0c0,0,0,0,0,0c0,0,0,0,0,0c0,0,0,0,0,0c0,0,0,0,0,0c0,0,0,0,0,0c0,0,0,0,0,0c0,0,0,0,0,0v16C0,20.5,0.5,21,1.1,21h12.9
		c0.6,0,1.1-0.5,1.1-1.1V1.1C15,0.5,14.5,0,13.9,0z M3.6,1.2v2.1c0,0.2-0.2,0.4-0.4,0.4H1.1L3.6,1.2z M14.3,19.9
		c0,0.2-0.2,0.4-0.4,0.4H1.1c-0.2,0-0.4-0.2-0.4-0.4V4.3h2.5c0.6,0,1.1-0.5,1.1-1.1V0.7h9.7c0.2,0,0.4,0.2,0.4,0.4V19.9z"/>
	<path class="st0" d="M3.3,6h8.3C11.9,6,12,5.8,12,5.5S11.9,5,11.7,5H3.3C3.1,5,3,5.2,3,5.5S3.1,6,3.3,6z"/>
	<path class="st0" d="M3.3,8h8.3C11.9,8,12,7.8,12,7.5S11.9,7,11.7,7H3.3C3.1,7,3,7.2,3,7.5S3.1,8,3.3,8z"/>
	<path class="st0" d="M3.3,10h8.3c0.2,0,0.3-0.2,0.3-0.5C12,9.2,11.9,9,11.7,9H3.3C3.1,9,3,9.2,3,9.5C3,9.8,3.1,10,3.3,10z"/>
	<path class="st0" d="M3.3,12h8.3c0.2,0,0.3-0.2,0.3-0.5c0-0.3-0.1-0.5-0.3-0.5H3.3C3.1,11,3,11.2,3,11.5C3,11.8,3.1,12,3.3,12z"/>
	<path class="st0" d="M3.3,14h8.3c0.2,0,0.3-0.2,0.3-0.5c0-0.3-0.1-0.5-0.3-0.5H3.3C3.1,13,3,13.2,3,13.5C3,13.8,3.1,14,3.3,14z"/>
	<path class="st0" d="M7.7,15H3.3C3.2,15,3,15.2,3,15.5C3,15.8,3.2,16,3.3,16h4.3C7.8,16,8,15.8,8,15.5C8,15.2,7.8,15,7.7,15z"/>
	<path class="st0" d="M7.7,17H3.3C3.2,17,3,17.2,3,17.5S3.2,18,3.3,18h4.3C7.8,18,8,17.8,8,17.5S7.8,17,7.7,17z"/>
	<path class="st0" d="M11,15c-1.1,0-2,0.9-2,2c0,1.1,0.9,2,2,2s2-0.9,2-2C13,15.9,12.1,15,11,15z M11,18.3c-0.7,0-1.3-0.6-1.3-1.3
		s0.6-1.3,1.3-1.3s1.3,0.6,1.3,1.3S11.7,18.3,11,18.3z"/>
</g>
</svg>
