<?xml version="1.0" encoding="UTF-8"?>
<svg width="6px" height="13px" viewBox="0 0 6 13" version="1.1" xmlns="http://www.w3.org/2000/svg" xmlns:xlink="http://www.w3.org/1999/xlink">
    <!-- Generator: Sketch 50.2 (55047) - http://www.bohemiancoding.com/sketch -->
    <title>info-sign</title>
    <desc>Created with Sketch.</desc>
    <defs></defs>
    <g id="Desktop-wireframes" stroke="none" stroke-width="1" fill="none" fill-rule="evenodd">
        <g id="kapital_kabinet_active_credit" transform="translate(-1594.000000, -519.000000)" fill="#030104" fill-rule="nonzero">
            <g id="info-sign" transform="translate(1594.000000, 519.000000)">
                <path d="M4.58634783,0 C5.45973913,0 5.89630435,0.59371 5.89630435,1.27257 C5.89630435,2.12043 5.13795652,2.90472 4.14965217,2.90472 C3.32217391,2.90472 2.83943478,2.41696 2.8623913,1.61161 C2.8623913,0.93288 3.43695652,0 4.58634783,0 Z M1.89691304,13 C1.20730435,13 0.701608696,12.57594 1.18434783,10.71005 L1.97608696,7.40064 C2.11395652,6.87063 2.13652174,6.65873 1.97608696,6.65873 C1.76895652,6.65873 0.873782609,7.02481 0.344347826,7.38543 L0,6.81278 C1.67778261,5.3924 3.60808696,4.55936 4.43530435,4.55936 C5.12465217,4.55936 5.23982609,5.38629 4.89508696,6.6586 L3.98869565,10.1374 C3.82773913,10.75217 3.897,10.96407 4.05743478,10.96407 C4.26430435,10.96407 4.94269565,10.70888 5.60908696,10.17874 L6,10.70901 C4.368,12.363 2.58652174,13 1.89691304,13 Z" id="Shape"></path>
            </g>
        </g>
    </g>
</svg>