<?xml version="1.0" encoding="UTF-8"?>
<svg width="74px" height="60px" viewBox="0 0 74 60" version="1.1" xmlns="http://www.w3.org/2000/svg" xmlns:xlink="http://www.w3.org/1999/xlink">
    <!-- Generator: Sketch 52.6 (67491) - http://www.bohemiancoding.com/sketch -->
    <title>like_icon</title>
    <desc>Created with Sketch.</desc>
    <g id="Mobile-wireframes" stroke="none" stroke-width="1" fill="none" fill-rule="evenodd">
        <g id="mobile_kapital_otziv5" transform="translate(-53.000000, -275.000000)" fill="#FFFFFF">
            <g id="like_icon" transform="translate(53.000000, 275.000000)">
                <path d="M33.221843,58.4232082 L63.1194539,58.4027304 C69.1194539,58.4027304 69.1808874,50.8668942 65.2286689,50.2116041 L66.3139932,50.2525597 C70.1023891,49.8430034 71.6996587,43.105802 66.8464164,41.8771331 L67.7474403,41.8566553 C71.3720137,41.4675768 73.0307167,35.0170648 67.9931741,33.5836177 L69.2013652,33.4607509 C74.5870307,33.3788396 74.9351536,25.4539249 69.8566553,25.4334471 L49.1535836,25.4334471 C49.9522184,22.2593857 51.4266212,16.1365188 51.4266212,12.1638225 C51.4266212,8.19112628 50.7098976,2.90784983 48.7030717,1.02389078 C46.6962457,-0.860068259 42.7440273,0.389078498 42.2730375,1.57679181 C41.8020478,2.76450512 42.559727,8.92832765 42.3549488,11.3037543 C41.9044369,16.7098976 33.4266212,27.5221843 31.2559727,29.3856655 C30.109215,30.3686007 28.0204778,31.7201365 26.3412969,32.7645051 L26.3412969,56.0273038 L27.6928328,56.0273038 C29.1877133,56.0068259 31.112628,58.4232082 33.221843,58.4232082 Z" id="Path"></path>
                <rect id="Rectangle" x="0.122866894" y="31.6587031" width="19.0238908" height="28.3412969"></rect>
            </g>
        </g>
    </g>
</svg>