<?xml version="1.0" encoding="UTF-8"?>
<svg width="18px" height="25px" viewBox="0 0 18 25" version="1.1" xmlns="http://www.w3.org/2000/svg" xmlns:xlink="http://www.w3.org/1999/xlink">
    <!-- Generator: Sketch 50.2 (55047) - http://www.bohemiancoding.com/sketch -->
    <title>location-pin - simple-line-icons copy</title>
    <desc>Created with Sketch.</desc>
    <defs></defs>
    <g id="Desktop-wireframes" stroke="none" stroke-width="1" fill="none" fill-rule="evenodd">
        <g id="kapital_offices_wireframe_2" transform="translate(-1280.000000, -568.000000)" fill="#E60000">
            <path d="M1289.09375,568.5 C1290.50001,568.5 1291.75781,568.742185 1292.86719,569.226562 C1293.97657,569.71094 1294.91015,570.37109 1295.66797,571.207031 C1296.42579,572.042973 1297.0039,573.015619 1297.40234,574.125 C1297.80078,575.234381 1298,576.406244 1298,577.640625 C1298,578.890631 1297.75391,580.167962 1297.26172,581.472656 C1296.76953,582.77735 1296.14844,584.058587 1295.39844,585.316406 C1294.64843,586.574225 1293.83594,587.765619 1292.96094,588.890625 C1292.08593,590.015631 1291.26563,591.015621 1290.5,591.890625 C1290.5,591.90625 1290.38281,592.011718 1290.14844,592.207031 C1289.91406,592.402345 1289.64063,592.5 1289.32812,592.5 L1289.25781,592.5 C1288.92969,592.5 1288.65234,592.402345 1288.42578,592.207031 C1288.19922,592.011718 1288.08594,591.90625 1288.08594,591.890625 C1287.27343,590.95312 1286.39454,589.929693 1285.44922,588.820312 C1284.5039,587.710932 1283.62891,586.542975 1282.82422,585.316406 C1282.01953,584.089838 1281.34766,582.828131 1280.80859,581.53125 C1280.26953,580.234369 1280,578.937506 1280,577.640625 C1280,576.406244 1280.24219,575.234381 1280.72656,574.125 C1281.21094,573.015619 1281.86718,572.042973 1282.69531,571.207031 C1283.52344,570.37109 1284.48828,569.71094 1285.58984,569.226562 C1286.69141,568.742185 1287.85937,568.5 1289.09375,568.5 Z M1289.375,590.882812 C1290.56251,589.523431 1291.60156,588.226569 1292.49219,586.992188 C1293.38282,585.757806 1294.125,584.589849 1294.71875,583.488281 C1295.3125,582.386713 1295.75781,581.347661 1296.05469,580.371094 C1296.35156,579.394526 1296.5,578.484379 1296.5,577.640625 C1296.5,576.687495 1296.35547,575.753911 1296.06641,574.839844 C1295.77734,573.925777 1295.32813,573.109379 1294.71875,572.390625 C1294.10937,571.671871 1293.33985,571.093752 1292.41016,570.65625 C1291.48046,570.218748 1290.37501,570 1289.09375,570 C1288.06249,570 1287.08594,570.203123 1286.16406,570.609375 C1285.24218,571.015627 1284.4375,571.566403 1283.75,572.261719 C1283.0625,572.957035 1282.51563,573.769527 1282.10938,574.699219 C1281.70312,575.628911 1281.5,576.60937 1281.5,577.640625 C1281.5,578.750006 1281.73437,579.874994 1282.20312,581.015625 C1282.67188,582.156256 1283.26562,583.277338 1283.98438,584.378906 C1284.70313,585.480474 1285.49218,586.542964 1286.35156,587.566406 C1287.21094,588.589849 1288.02343,589.546871 1288.78906,590.4375 L1289.1875,590.882812 L1289.28125,590.976562 C1289.29688,590.960937 1289.31641,590.945313 1289.33984,590.929688 C1289.36328,590.914062 1289.375,590.898438 1289.375,590.882812 Z M1289.02344,573.023438 C1290.27344,573.023438 1291.33593,573.464839 1292.21094,574.347656 C1293.08594,575.230473 1293.52344,576.289056 1293.52344,577.523438 C1293.52344,578.773444 1293.08594,579.835933 1292.21094,580.710938 C1291.33593,581.585942 1290.27344,582.023438 1289.02344,582.023438 C1287.78906,582.023438 1286.73047,581.585942 1285.84766,580.710938 C1284.96484,579.835933 1284.52344,578.773444 1284.52344,577.523438 C1284.52344,576.289056 1284.96484,575.230473 1285.84766,574.347656 C1286.73047,573.464839 1287.78906,573.023438 1289.02344,573.023438 Z M1289.02344,580.523438 C1289.85157,580.523438 1290.55468,580.226565 1291.13281,579.632812 C1291.71094,579.03906 1292,578.328129 1292,577.5 C1292,576.671871 1291.70703,575.964847 1291.12109,575.378906 C1290.53515,574.792966 1289.82813,574.5 1289,574.5 C1288.17187,574.5 1287.46485,574.792966 1286.87891,575.378906 C1286.29297,575.964847 1286,576.671871 1286,577.5 C1286,578.328129 1286.29687,579.03906 1286.89062,579.632812 C1287.48438,580.226565 1288.19531,580.523438 1289.02344,580.523438 Z" id="location-pin---simple-line-icons-copy"></path>
        </g>
    </g>
</svg>