<?xml version="1.0" encoding="UTF-8"?>
<svg width="12px" height="15px" viewBox="0 0 12 15" version="1.1" xmlns="http://www.w3.org/2000/svg" xmlns:xlink="http://www.w3.org/1999/xlink">
    <!-- Generator: Sketch 50.2 (55047) - http://www.bohemiancoding.com/sketch -->
    <title>Shape</title>
    <desc>Created with Sketch.</desc>
    <defs></defs>
    <g id="Mobile-wireframes" stroke="none" stroke-width="1" fill="none" fill-rule="evenodd">
        <g id="kabinet3" transform="translate(-257.000000, -1761.000000)" fill="#FFFFFF" fill-rule="nonzero">
            <path d="M268.708084,1768.11649 C268.513583,1767.91761 268.277562,1767.81824 267.999656,1767.81824 L267.666512,1767.81824 L267.666512,1765.77267 C267.666512,1764.46588 267.208298,1763.34382 266.291578,1762.40631 C265.374931,1761.46877 264.277903,1761 262.999945,1761 C261.722024,1761 260.624777,1761.46877 259.708203,1762.40628 C258.791483,1763.34382 258.333268,1764.46584 258.333268,1765.77267 L258.333268,1767.81824 L257.999979,1767.81824 C257.722292,1767.81824 257.486125,1767.91761 257.29166,1768.11649 C257.097196,1768.31522 257,1768.55675 257,1768.84101 L257,1774.97731 C257,1775.2613 257.097232,1775.50291 257.29166,1775.70183 C257.486125,1775.90052 257.722292,1776 257.999979,1776 L267.999912,1776 C268.277817,1776 268.513802,1775.90063 268.708339,1775.70183 C268.902622,1775.50291 269,1775.2613 269,1774.97731 L269,1768.8409 C269.000146,1768.55687 268.902622,1768.31537 268.708084,1768.11649 Z M265.666592,1767.81824 L260.333299,1767.81824 L260.333299,1765.77267 C260.333299,1765.01987 260.593765,1764.37707 261.114587,1763.84449 C261.635482,1763.31184 262.263898,1763.04557 263.000055,1763.04557 C263.736284,1763.04557 264.364554,1763.3118 264.885486,1763.84449 C265.406162,1764.37703 265.666592,1765.01987 265.666592,1765.77267 L265.666592,1767.81824 Z" id="Shape"></path>
        </g>
    </g>
</svg>