<?xml version="1.0" encoding="UTF-8"?>
<svg width="43px" height="50px" viewBox="0 0 43 50" version="1.1" xmlns="http://www.w3.org/2000/svg" xmlns:xlink="http://www.w3.org/1999/xlink">
    <!-- Generator: Sketch 50.2 (55047) - http://www.bohemiancoding.com/sketch -->
    <title>message-on-phone</title>
    <desc>Created with Sketch.</desc>
    <defs></defs>
    <g id="Desktop-wireframes" stroke="none" stroke-width="1" fill="none" fill-rule="evenodd">
        <g id="kapital_credits_wireframe_equipment_7" transform="translate(-1043.000000, -866.000000)" fill="#E60000" fill-rule="nonzero">
            <g id="message-on-phone" transform="translate(1043.000000, 866.000000)">
                <path d="M28.90625,27.344043 C28.4748047,27.344043 28.125,27.6938477 28.125,28.125293 L28.125,42.1875 L1.5625,42.1875 L1.5625,7.8125 L10.15625,7.8125 C10.5876953,7.8125 10.9375,7.46269531 10.9375,7.03125 C10.9375,6.59980469 10.5876953,6.25 10.15625,6.25 L1.5625,6.25 L1.5625,5.46875 C1.5625,3.31484375 3.31484375,1.5625 5.46875,1.5625 L24.21875,1.5625 C24.6501953,1.5625 25,1.21269531 25,0.78125 C25,0.349804688 24.6501953,0 24.21875,0 L5.46875,0 C2.45332031,0 0,2.45332031 0,5.46875 L0,44.53125 C0,47.5466797 2.45332031,50 5.46875,50 L24.21875,50 C27.2341797,50 29.6875,47.5466797 29.6875,44.53125 L29.6875,28.125293 C29.6875,27.6938477 29.3376953,27.344043 28.90625,27.344043 Z M24.21875,48.4375 L5.46875,48.4375 C3.31484375,48.4375 1.5625,46.6851562 1.5625,44.53125 L1.5625,43.75 L28.125,43.75 L28.125,44.53125 C28.125,46.6851562 26.3726562,48.4375 24.21875,48.4375 Z" id="Shape"></path>
                <path d="M16.40625,45.3125 L13.28125,45.3125 C12.8498047,45.3125 12.5,45.6623047 12.5,46.09375 C12.5,46.5251953 12.8498047,46.875 13.28125,46.875 L16.40625,46.875 C16.8376953,46.875 17.1875,46.5251953 17.1875,46.09375 C17.1875,45.6623047 16.8376953,45.3125 16.40625,45.3125 Z" id="Shape"></path>
                <path d="M9.60351562,3.35351563 C9.45800781,3.49902344 9.375,3.70117188 9.375,3.90625 C9.375,4.11132812 9.45800781,4.31347656 9.60351562,4.45898438 C9.74902344,4.60449219 9.95019531,4.6875 10.15625,4.6875 C10.3623047,4.6875 10.5634766,4.60449219 10.7089844,4.45898438 C10.8544922,4.31347656 10.9375,4.11230469 10.9375,3.90625 C10.9375,3.70019531 10.8544922,3.49902344 10.7089844,3.35351563 C10.5634766,3.20800781 10.3623047,3.125 10.15625,3.125 C9.95019531,3.125 9.74902344,3.20800781 9.60351562,3.35351563 Z" id="Shape"></path>
                <path d="M17.1875,13.28125 L21.875,13.28125 C22.3064453,13.28125 22.65625,12.9314453 22.65625,12.5 C22.65625,12.0685547 22.3064453,11.71875 21.875,11.71875 L17.1875,11.71875 C16.7560547,11.71875 16.40625,12.0685547 16.40625,12.5 C16.40625,12.9314453 16.7560547,13.28125 17.1875,13.28125 Z" id="Shape"></path>
                <path d="M37.5,11.71875 L25,11.71875 C24.5685547,11.71875 24.21875,12.0685547 24.21875,12.5 C24.21875,12.9314453 24.5685547,13.28125 25,13.28125 L37.5,13.28125 C37.9314453,13.28125 38.28125,12.9314453 38.28125,12.5 C38.28125,12.0685547 37.9314453,11.71875 37.5,11.71875 Z" id="Shape"></path>
                <path d="M37.5,15.625 L32.8125,15.625 C32.3810547,15.625 32.03125,15.9748047 32.03125,16.40625 C32.03125,16.8376953 32.3810547,17.1875 32.8125,17.1875 L37.5,17.1875 C37.9314453,17.1875 38.28125,16.8376953 38.28125,16.40625 C38.28125,15.9748047 37.9314453,15.625 37.5,15.625 Z" id="Shape"></path>
                <path d="M17.1875,17.1875 L29.6875,17.1875 C30.1189453,17.1875 30.46875,16.8376953 30.46875,16.40625 C30.46875,15.9748047 30.1189453,15.625 29.6875,15.625 L17.1875,15.625 C16.7560547,15.625 16.40625,15.9748047 16.40625,16.40625 C16.40625,16.8376953 16.7560547,17.1875 17.1875,17.1875 Z" id="Shape"></path>
                <path d="M37.5,7.8125 L17.1875,7.8125 C16.7560547,7.8125 16.40625,8.16230469 16.40625,8.59375 C16.40625,9.02519531 16.7560547,9.375 17.1875,9.375 L37.5,9.375 C37.9314453,9.375 38.28125,9.02519531 38.28125,8.59375 C38.28125,8.16230469 37.9314453,7.8125 37.5,7.8125 Z" id="Shape"></path>
                <path d="M37.5,19.53125 L17.1875,19.53125 C16.7560547,19.53125 16.40625,19.8810547 16.40625,20.3125 C16.40625,20.7439453 16.7560547,21.09375 17.1875,21.09375 L37.5,21.09375 C37.9314453,21.09375 38.28125,20.7439453 38.28125,20.3125 C38.28125,19.8810547 37.9314453,19.53125 37.5,19.53125 Z" id="Shape"></path>
                <path d="M37.5,3.125 L17.1875,3.125 C14.1720703,3.125 11.71875,5.57832031 11.71875,8.59375 L11.71875,20.3125 C11.71875,23.062793 13.7594727,25.3454102 16.40625,25.7255859 L16.40625,28.5826172 C16.40625,29.2168945 16.7848633,29.7834961 17.3708008,30.0261719 C17.565332,30.1067383 17.76875,30.1458984 17.9704102,30.1458984 C18.3761719,30.1458984 18.7740234,29.9871094 19.0736328,29.6875 L22.9798828,25.78125 L37.5,25.78125 C40.5154297,25.78125 42.96875,23.3279297 42.96875,20.3125 L42.96875,8.59375 C42.96875,5.57832031 40.5154297,3.125 37.5,3.125 Z M41.40625,20.3125 C41.40625,22.4664062 39.6539062,24.21875 37.5,24.21875 L22.65625,24.21875 C22.4490234,24.21875 22.250293,24.3010742 22.1038086,24.4475586 L17.96875,28.5820312 L17.96875,25 C17.96875,24.5685547 17.6189453,24.21875 17.1875,24.21875 C15.0335937,24.21875 13.28125,22.4664062 13.28125,20.3125 L13.28125,8.59375 C13.28125,6.43984375 15.0335937,4.6875 17.1875,4.6875 L37.5,4.6875 C39.6539062,4.6875 41.40625,6.43984375 41.40625,8.59375 L41.40625,20.3125 Z" id="Shape"></path>
            </g>
        </g>
    </g>
</svg>