<?xml version="1.0" encoding="UTF-8"?>
<svg width="43px" height="34px" viewBox="0 0 43 34" version="1.1" xmlns="http://www.w3.org/2000/svg" xmlns:xlink="http://www.w3.org/1999/xlink">
    <!-- Generator: Sketch 50.2 (55047) - http://www.bohemiancoding.com/sketch -->
    <title>pic</title>
    <desc>Created with Sketch.</desc>
    <defs></defs>
    <g id="Desktop-wireframes" stroke="none" stroke-width="1" fill="none" fill-rule="evenodd">
        <g id="kapital_credits_wireframe_equipment_2" transform="translate(-568.000000, -776.000000)" fill="#0D0D0F">
            <g id="block_2" transform="translate(310.000000, 176.000000)">
                <g id="1" transform="translate(0.000000, 187.000000)">
                    <g id="form_5" transform="translate(0.000000, 370.000000)">
                        <g id="add" transform="translate(258.000000, 43.000000)">
                            <g id="pic">
                                <path d="M40.0347222,0 C40.6672968,0 41.2147088,0.231129537 41.6769748,0.693395544 C42.1392408,1.15566155 42.3703704,1.70307361 42.3703704,2.33564815 L42.3703704,29.1956019 C42.3703704,29.8281764 42.1392408,30.3755884 41.6769748,30.8378545 C41.2147088,31.3001205 40.6672968,31.53125 40.0347222,31.53125 L7.33564815,31.53125 C6.70307361,31.53125 6.15566155,31.3001205 5.69339554,30.8378545 C5.23112954,30.3755884 5,29.8281764 5,29.1956019 L5,2.33564815 C5,1.70307361 5.23112954,1.15566155 5.69339554,0.693395544 C6.15566155,0.231129537 6.70307361,0 7.33564815,0 L40.0347222,0 Z M40.0347222,29.1956019 L40.0347222,27.0424262 L39.9799805,26.9876845 C39.9678156,26.9755196 39.9495685,26.9694372 39.9252387,26.9694372 L32.2613932,19.0501302 L27.9915365,22.9185475 C27.7239088,23.1131858 27.438038,23.2165858 27.1339157,23.2287507 C26.8297933,23.2409156 26.5804167,23.1253508 26.3857784,22.882053 L16.7147352,13.2475043 L7.33564815,22.3346354 L7.33564815,29.1956019 L40.0347222,29.1956019 Z M40.0347222,23.7214265 L40.0347222,2.33564815 L7.33564815,2.33564815 L7.33564815,19.0501302 L15.8753617,10.7658782 C15.9970106,10.6442292 16.1308225,10.5590762 16.2768012,10.5104167 C16.42278,10.4617571 16.5809212,10.4374277 16.7512297,10.4374277 C16.8972085,10.4374277 17.043185,10.4739218 17.1891638,10.5469112 C17.3351425,10.6199005 17.4689543,10.729383 17.5906033,10.8753617 L27.2251519,20.4369213 L31.6409867,16.6049986 C31.8842846,16.4103602 32.1458259,16.3252072 32.4256185,16.349537 C32.7054111,16.3738668 32.9547877,16.4833492 33.1737558,16.6779876 L40.0347222,23.7214265 Z M31.8599537,11.6782407 C31.2273792,11.6782407 30.6799671,11.4531936 30.2177011,11.0030924 C29.7554351,10.5529913 29.5243056,9.99949692 29.5243056,9.34259259 C29.5243056,8.71001806 29.7554351,8.162606 30.2177011,7.70033999 C30.6799671,7.23807398 31.2273792,7.00694444 31.8599537,7.00694444 C32.4925282,7.00694444 33.0399403,7.23807398 33.5022063,7.70033999 C33.9644723,8.162606 34.1956019,8.71001806 34.1956019,9.34259259 C34.1956019,9.99949692 33.9644723,10.5529913 33.5022063,11.0030924 C33.0399403,11.4531936 32.4925282,11.6782407 31.8599537,11.6782407 Z" id="picture---simple-line-icons-copy" opacity="0.100000001"></path>
                                <path d="M35.0347222,2 C35.6672968,2 36.2147088,2.23112954 36.6769748,2.69339554 C37.1392408,3.15566155 37.3703704,3.70307361 37.3703704,4.33564815 L37.3703704,31.1956019 C37.3703704,31.8281764 37.1392408,32.3755884 36.6769748,32.8378545 C36.2147088,33.3001205 35.6672968,33.53125 35.0347222,33.53125 L2.33564815,33.53125 C1.70307361,33.53125 1.15566155,33.3001205 0.693395544,32.8378545 C0.231129537,32.3755884 0,31.8281764 0,31.1956019 L0,4.33564815 C0,3.70307361 0.231129537,3.15566155 0.693395544,2.69339554 C1.15566155,2.23112954 1.70307361,2 2.33564815,2 L35.0347222,2 Z M35.0347222,31.1956019 L35.0347222,29.0424262 L34.9799805,28.9876845 C34.9678156,28.9755196 34.9495685,28.9694372 34.9252387,28.9694372 L27.2613932,21.0501302 L22.9915365,24.9185475 C22.7239088,25.1131858 22.438038,25.2165858 22.1339157,25.2287507 C21.8297933,25.2409156 21.5804167,25.1253508 21.3857784,24.882053 L11.7147352,15.2475043 L2.33564815,24.3346354 L2.33564815,31.1956019 L35.0347222,31.1956019 Z M35.0347222,25.7214265 L35.0347222,4.33564815 L2.33564815,4.33564815 L2.33564815,21.0501302 L10.8753617,12.7658782 C10.9970106,12.6442292 11.1308225,12.5590762 11.2768012,12.5104167 C11.42278,12.4617571 11.5809212,12.4374277 11.7512297,12.4374277 C11.8972085,12.4374277 12.043185,12.4739218 12.1891638,12.5469112 C12.3351425,12.6199005 12.4689543,12.729383 12.5906033,12.8753617 L22.2251519,22.4369213 L26.6409867,18.6049986 C26.8842846,18.4103602 27.1458259,18.3252072 27.4256185,18.349537 C27.7054111,18.3738668 27.9547877,18.4833492 28.1737558,18.6779876 L35.0347222,25.7214265 Z M26.8599537,13.6782407 C26.2273792,13.6782407 25.6799671,13.4531936 25.2177011,13.0030924 C24.7554351,12.5529913 24.5243056,11.9994969 24.5243056,11.3425926 C24.5243056,10.7100181 24.7554351,10.162606 25.2177011,9.70033999 C25.6799671,9.23807398 26.2273792,9.00694444 26.8599537,9.00694444 C27.4925282,9.00694444 28.0399403,9.23807398 28.5022063,9.70033999 C28.9644723,10.162606 29.1956019,10.7100181 29.1956019,11.3425926 C29.1956019,11.9994969 28.9644723,12.5529913 28.5022063,13.0030924 C28.0399403,13.4531936 27.4925282,13.6782407 26.8599537,13.6782407 Z" id="picture---simple-line-icons" opacity="0.699999988"></path>
                            </g>
                        </g>
                    </g>
                </g>
            </g>
        </g>
    </g>
</svg>