<?xml version="1.0" encoding="UTF-8"?>
<svg width="110px" height="69px" viewBox="0 0 110 69" version="1.1" xmlns="http://www.w3.org/2000/svg" xmlns:xlink="http://www.w3.org/1999/xlink">
    <!-- Generator: Sketch 50.2 (55047) - http://www.bohemiancoding.com/sketch -->
    <title>retro</title>
    <desc>Created with Sketch.</desc>
    <defs></defs>
    <g id="UI-Design" stroke="none" stroke-width="1" fill="none" fill-rule="evenodd">
        <g id="kapital_main" transform="translate(-819.000000, -2385.000000)" stroke="#E60000">
            <g id="Спец-возможности" transform="translate(310.000000, 2374.000000)">
                <g id="retro" transform="translate(510.000000, 12.000000)">
                    <path d="M54.0440252,59.8297009 C61.8058349,53.6954869 66.7893082,44.1815556 66.7893082,33.5 C66.7893082,22.8184444 61.8058349,13.3045131 54.0440252,7.17029914 C59.7264582,2.67943148 66.8980038,0 74.6933962,0 C93.1367544,0 108.08805,14.9984609 108.08805,33.5 C108.08805,52.0015391 93.1367544,67 74.6933962,67 C66.8980038,67 59.7264582,64.3205685 54.0440252,59.8297009 Z" id="Combined-Shape"></path>
                    <path d="M57.9088849,56.2489689 C63.4206601,50.2748426 66.7893082,42.2820572 66.7893082,33.5 C66.7893082,24.4307886 63.1967636,16.2033079 57.3613847,10.171526 C62.2733206,6.30535233 68.4641969,4 75.1918239,4 C91.1577161,4 104.100629,16.9837423 104.100629,33 C104.100629,49.0162577 91.1577161,62 75.1918239,62 C68.7118021,62 62.7297486,59.8612184 57.9088849,56.2489689 Z" id="Combined-Shape"></path>
                    <ellipse id="Oval-4" cx="33.822327" cy="33.5" rx="33.3946541" ry="33.5"></ellipse>
                    <ellipse id="Oval-4" cx="33.3238994" cy="33" rx="28.908805" ry="29"></ellipse>
                </g>
            </g>
        </g>
    </g>
</svg>