<?xml version="1.0" encoding="UTF-8"?>
<svg width="174px" height="129px" viewBox="0 0 174 129" version="1.1" xmlns="http://www.w3.org/2000/svg" xmlns:xlink="http://www.w3.org/1999/xlink">
    <!-- Generator: Sketch 50.2 (55047) - http://www.bohemiancoding.com/sketch -->
    <title>ring</title>
    <desc>Created with Sketch.</desc>
    <defs></defs>
    <g id="UI-Design" stroke="none" stroke-width="1" fill="none" fill-rule="evenodd">
        <g id="kapital_main" transform="translate(-528.000000, -1952.000000)" stroke="#E60000">
            <g id="block_3" transform="translate(0.000000, 1634.000000)">
                <g id="spec_1" transform="translate(310.000000, 288.000000)">
                    <g id="ring" transform="translate(218.000000, 31.000000)">
                        <path d="M108.426973,117.214084 C72.7511274,130.908758 34.6642681,131.836064 16.0169861,114.515879 C11.4874133,110.308669 9.91688647,100.563352 7.71208332,94.8196437 C5.34888205,88.6632939 -0.211154001,75.4990723 0.578931304,68.8851717 C3.56057379,43.9254779 32.5197626,24.2416031 67.5730269,10.7859157 C96.4503071,-0.299033616 127.174565,-3.9588658 147.142291,5.77635837 C157.835512,10.9898164 164.353412,22.9306218 168.287917,33.1803563 C171.966334,42.7629623 175.003626,53.7961831 171.296796,64.1299548 C163.634981,85.4892942 138.310798,105.742759 108.426973,117.214084 Z M94.5714692,78.95505 C107.565507,73.9671061 121.437241,65.9603751 131.215974,58.5703584 C135.906262,55.0257975 141.281082,49.6931847 147.340433,42.57252 C124.478239,38.4688503 101.875761,40.7053071 79.5329972,49.2818904 C57.1902338,57.8584737 38.554799,70.1232465 23.6266928,86.0762088 C32.0928054,87.8567259 38.7859242,88.7732071 43.7060492,88.8256524 C59.4005833,88.9929458 79.3747847,84.7885106 94.5714692,78.95505 Z" id="Combined-Shape"></path>
                        <circle id="Oval-9" cx="101.5" cy="100.5" r="8.5"></circle>
                        <ellipse id="Oval-9-Copy" transform="translate(161.237142, 55.673751) rotate(-15.000000) translate(-161.237142, -55.673751) " cx="161.237142" cy="55.6737509" rx="4.36440391" ry="7.81028919"></ellipse>
                        <ellipse id="Oval-9-Copy-2" transform="translate(27.237142, 107.673751) rotate(-19.000000) translate(-27.237142, -107.673751) " cx="27.237142" cy="107.673751" rx="4.36440391" ry="7.81028919"></ellipse>
                    </g>
                </g>
            </g>
        </g>
    </g>
</svg>