<?xml version="1.0" encoding="UTF-8"?>
<svg width="94px" height="161px" viewBox="0 0 94 161" version="1.1" xmlns="http://www.w3.org/2000/svg" xmlns:xlink="http://www.w3.org/1999/xlink">
    <!-- Generator: Sketch 50.2 (55047) - http://www.bohemiancoding.com/sketch -->
    <title>silver</title>
    <desc>Created with Sketch.</desc>
    <defs></defs>
    <g id="UI-Design" stroke="none" stroke-width="1" fill="none" fill-rule="evenodd">
        <g id="kapital_main" transform="translate(-1448.000000, -1923.000000)" stroke="#E60000">
            <g id="block_3" transform="translate(0.000000, 1634.000000)">
                <g id="spec_2" transform="translate(1188.000000, 288.000000)">
                    <g id="silver" transform="translate(261.000000, 1.000000)">
                        <path d="M32.3825766,21.7938453 L33.508044,26.362564 C23.1067506,22.8587102 14.5912579,14.3222329 7.96156438,0.753130509 L12.4013498,0.753130509 C18.9652226,11.9134689 24.7623042,18.7144315 32.3825766,21.7938453 Z M56.0252252,20.0838189 C62.3200197,16.3805028 68.9281122,9.86823906 75.8495027,0.547027691 L80.3950924,0.753130509 C72.131306,14.1714158 63.4002409,21.9920666 54.9788143,25.6439293 L55.9910338,20.3774947 C56.0096681,20.2805428 56.0210909,20.1823821 56.0252252,20.0838189 Z" id="Combined-Shape"></path>
                        <path d="M48.7403134,53.1220774 L55.0520278,20.283121 C55.0699616,20.1898142 55.0789893,20.0950146 55.0789893,20 C55.0789893,19.1715729 54.4074164,18.5 53.5789893,18.5 L33.5524747,18.5 C33.4315613,18.5 33.3110913,18.5146199 33.1936877,18.5435413 C32.3893078,18.7416939 31.8978634,19.5544071 32.096016,20.358787 L40.2643576,53.5173268 C41.737682,52.8506394 43.3440667,52.5 45,52.5 C46.2884595,52.5 47.5480552,52.7121742 48.7403135,53.1220774 Z" id="Combined-Shape"></path>
                        <path d="M36.4916882,70.9725009 C34.9345735,69.0746369 34,66.6464591 34,64 C34,57.9248678 38.9248678,53 45,53 C51.0751322,53 56,57.9248678 56,64 C56,66.4971832 55.167884,68.8000152 53.7658051,70.6463429 C51.221151,69.5856904 48.4289731,69 45.5,69 C42.2833558,69 39.2316975,69.7063881 36.4916882,70.9725009 Z" id="Combined-Shape"></path>
                        <path d="M5.99470228,106.983105 C5.34850911,104.937352 5,102.759375 5,100.5 C5,88.6258779 14.6258779,79 26.5,79 C26.774932,79 27.0486587,79.0051605 27.3210885,79.0153898 C31.1316469,72.9963087 37.8491295,69 45.5,69 C53.1395626,69 59.8484943,72.9845044 63.6619966,78.9887146 C63.7147276,79.0139235 63.7673963,79.0392417 63.8200024,79.0646689 C64.374374,79.0218218 64.9346386,79 65.5,79 C77.3741221,79 87,88.6258779 87,100.5 C87,102.759375 86.6514909,104.937352 86.0052977,106.983105 C86.0651975,107.250014 86.1224944,107.517907 86.1771606,107.786755 C89.7881852,111.632838 92,116.80812 92,122.5 C92,131.898207 85.9698613,139.887999 77.5676161,142.811345 C75.5711722,152.619325 66.8975106,160 56.5,160 C52.4946778,160 48.7451643,158.904753 45.534615,156.997413 C44.9204942,156.990583 44.3096148,156.970251 43.70226,156.9367 C40.9126034,158.259793 37.792744,159 34.5,159 C24.3457169,159 15.8355746,151.960597 13.5833899,142.495606 C5.62690172,139.342846 0,131.57854 0,122.5 C0,116.80812 2.21181479,111.632838 5.82283897,107.786757 C5.87750557,107.517907 5.93480254,107.250014 5.99470228,106.983105 Z" id="Combined-Shape"></path>
                        <circle id="Oval-8" cx="46" cy="117" r="24"></circle>
                    </g>
                </g>
            </g>
        </g>
    </g>
</svg>