<?xml version="1.0" encoding="UTF-8"?>
<svg width="71px" height="71px" viewBox="0 0 71 71" version="1.1" xmlns="http://www.w3.org/2000/svg" xmlns:xlink="http://www.w3.org/1999/xlink">
    <!-- Generator: Sketch 50.2 (55047) - http://www.bohemiancoding.com/sketch -->
    <title>watch</title>
    <desc>Created with Sketch.</desc>
    <defs></defs>
    <g id="UI-Design" stroke="none" stroke-width="1" fill="none" fill-rule="evenodd">
        <g id="kapital_main" transform="translate(-1194.000000, -2384.000000)" stroke="#E60000">
            <g id="Спец-возможности" transform="translate(310.000000, 2374.000000)">
                <g id="watch" transform="translate(884.000000, 10.000000)">
                    <path d="M68.1938644,12.3324287 L58.6675713,2.80613555 C59.4899859,2.76057751 60.3275799,3.0519306 60.9558441,3.68019485 L67.3198052,10.0441559 C67.9480694,10.6724201 68.2394225,11.5100141 68.1938644,12.3324287 Z M12.3324287,68.1938644 C11.5100141,68.2394225 10.6724201,67.9480694 10.0441559,67.3198052 L3.68019485,60.9558441 C3.0519306,60.3275799 2.76057751,59.4899859 2.80613555,58.6675713 L12.3324287,68.1938644 Z" id="Combined-Shape" fill="#FFFFFF"></path>
                    <path d="M61.6022907,24.2469517 L46.7695526,9.41421356 C46.7640438,9.40870471 46.7585108,9.40323472 46.752954,9.39780358 L54.5918831,1.5588745 C55.3729317,0.77782592 56.6392616,0.77782592 57.4203102,1.5588745 L69.4411255,13.5796898 C70.2221741,14.3607384 70.2221741,15.6270683 69.4411255,16.4081169 L61.6022907,24.2469517 Z M26.2469517,59.6022907 L16.4081169,69.4411255 C15.6270683,70.2221741 14.3607384,70.2221741 13.5796898,69.4411255 L1.5588745,57.4203102 C0.77782592,56.6392616 0.77782592,55.3729317 1.5588745,54.5918831 L11.3977969,44.7529607 C11.4032347,44.7585108 11.4087047,44.7640438 11.4142136,44.7695526 L26.2469517,59.6022907 Z" id="Combined-Shape"></path>
                    <path d="M53.6772055,49.3487784 L53.8890873,49.5606602 C54.6701359,50.3417088 54.6701359,51.6080387 53.8890873,52.3890873 C53.1080387,53.1701359 51.8417088,53.1701359 51.0606602,52.3890873 L50.8033999,52.131827 C51.8435068,51.2927369 52.8056348,50.3608613 53.6772055,49.3487784 Z" id="Combined-Shape" stroke-width="2" fill="#FFFFFF"></path>
                    <path d="M58.5629109,30.6147587 C56.760207,21.7025218 49.5706945,14.743733 40.5391558,13.2831747 L43.9246212,9.89770927 C44.7056698,9.11666068 45.9719997,9.11666068 46.7530483,9.89770927 L61.6022907,24.7469517 C62.3833393,25.5280003 62.3833393,26.7943302 61.6022907,27.5753788 L58.5629109,30.6147587 Z M32.6147587,56.5629109 L29.0753788,60.1022907 C28.2943302,60.8833393 27.0280003,60.8833393 26.2469517,60.1022907 L11.3977093,45.2530483 C10.6166607,44.4719997 10.6166607,43.2056698 11.3977093,42.4246212 L15.2831747,38.5391558 C16.743733,47.5706945 23.7025218,54.760207 32.6147587,56.5629109 Z" id="Combined-Shape"></path>
                    <circle id="Oval-3" cx="37" cy="35" r="22"></circle>
                </g>
            </g>
        </g>
    </g>
</svg>