<?xml version="1.0" encoding="UTF-8"?>
<svg width="150px" height="150px" viewBox="0 0 150 150" version="1.1" xmlns="http://www.w3.org/2000/svg" xmlns:xlink="http://www.w3.org/1999/xlink">
    <!-- Generator: Sketch 50.2 (55047) - http://www.bohemiancoding.com/sketch -->
    <title>wink</title>
    <desc>Created with Sketch.</desc>
    <defs></defs>
    <g id="Mobile-wireframes" stroke="none" stroke-width="1" fill="none" fill-rule="evenodd">
        <g id="kapital_menu_smile" transform="translate(-85.000000, -120.000000)" fill="#01B025" fill-rule="nonzero">
            <g id="wink" transform="translate(85.000000, 120.000000)">
                <path d="M75,150 C116.421387,150 150,116.421387 150,75 C150,33.5786133 116.421387,0 75,0 C33.5786133,0 0,33.5786133 0,75 C0,116.421387 33.5786133,150 75,150 Z M75,14.0625 C108.654785,14.0625 135.9375,41.3452148 135.9375,75 C135.9375,108.654785 108.654785,135.9375 75,135.9375 C41.3452148,135.9375 14.0625,108.654785 14.0625,75 C14.0625,41.3452148 41.3452148,14.0625 75,14.0625 Z M79.5029297,104.154492 C100.04707,100.095996 115.993945,90.7450195 121.757227,78.2862305 C118.584961,102.88916 98.0970703,121.875 73.2925781,121.875 C55.8254883,121.875 40.5008789,112.458691 31.8533203,98.2983398 C42.1672852,106.36377 60.3495117,107.938477 79.5029297,104.154492 Z M93.75,51.5625 C93.75,59.3291016 97.9470703,65.625 103.125,65.625 C108.30293,65.625 112.5,59.3291016 112.5,51.5625 C112.5,43.7958984 108.30293,37.5 103.125,37.5 C97.9470703,37.5 93.75,43.7958984 93.75,51.5625 Z M51.5625,54.4189453 C45.4400391,54.4189453 40.2342773,56.7123047 38.3033203,59.9121094 C37.7847656,59.052832 37.5,55.1991211 37.5,54.2358398 C37.5,49.6851563 43.7958984,45.9960938 51.5625,45.9960938 C59.3291016,45.9960938 65.625,49.6851563 65.625,54.2358398 C65.625,55.1991211 65.3402344,59.052832 64.8216797,59.9121094 C62.8907227,56.7123047 57.6849609,54.4189453 51.5625,54.4189453 Z" id="Shape"></path>
            </g>
        </g>
    </g>
</svg>