<svg width="33" height="20" viewBox="0 0 33 20" xmlns="http://www.w3.org/2000/svg"><title>Shape</title><path d="M32.267 5.767h-1.72V.744A.739.739 0 0 0 29.815 0H3.186a.739.739 0 0 0-.734.744v5.023H.733A.739.739 0 0 0 0 6.51v10.765a.74.74 0 0 0 .733.745h1.72v1.235c0 .41.328.744.733.744a.739.739 0 0 0 .733-.744V18.02H29.08v1.235c0 .41.328.744.733.744a.739.739 0 0 0 .734-.744V18.02h1.719a.739.739 0 0 0 .733-.745V6.511a.739.739 0 0 0-.733-.744zM3.919 1.488H29.08v4.279h-1.719a.739.739 0 0 0-.733.744v5.084H6.371V6.51a.739.739 0 0 0-.733-.744h-1.72V1.488zm27.614 15.044H1.467V7.255h3.437v5.084c0 .41.329.744.734.744h21.724a.739.739 0 0 0 .734-.744V7.255h3.437v9.277z" fill="#FFF"/></svg>