<svg width="25" height="25" viewBox="0 0 25 25" xmlns="http://www.w3.org/2000/svg"><title>sticker</title><g fill="#FFF" fill-rule="evenodd"><path d="M24.992 11.073a1.435 1.435 0 0 0-.553-.986l-1.423-1.108.535-1.765a1.435 1.435 0 0 0-.13-1.129 1.435 1.435 0 0 0-.913-.677l-1.79-.418-.228-1.823a1.433 1.433 0 0 0-1.688-1.226l-1.805.346-.95-1.573a1.444 1.444 0 0 0-1.849-.55.85.85 0 0 0-.133.076l-1.567 1.09L10.99.28A1.435 1.435 0 0 0 9.876.055a1.434 1.434 0 0 0-.926.66L8 2.286 6.194 1.94a1.434 1.434 0 0 0-1.108.247 1.43 1.43 0 0 0-.578.979L4.279 4.99l-1.893.442-.089.029-.033.014a1.43 1.43 0 0 0-.817 1.738L1.98 8.98.497 10.133l-.086.075-.024.027a1.446 1.446 0 0 0-.046 1.917l1.161 1.389-.941 1.709-.038.085-.01.032a1.446 1.446 0 0 0 .743 1.773l1.664.781-.156 1.832c-.033.392.099.785.362 1.077.263.292.64.465 1.034.473l1.837.036.603 1.736a1.433 1.433 0 0 0 1.905.849l1.694-.714 1.33 1.419.07.062.026.02c.263.194.57.289.874.289a1.42 1.42 0 0 0 1.042-.449l1.257-1.341 1.694.714c.363.153.777.148 1.136-.011.36-.16.64-.466.769-.837L19 21.339l1.944-.038.092-.01.033-.007a1.447 1.447 0 0 0 1.164-1.531l-.156-1.832 1.664-.78c.356-.168.63-.478.752-.853a1.434 1.434 0 0 0-.107-1.13l-.891-1.617 1.162-1.39c.254-.296.376-.689.335-1.078zm-2.883 1.84a.867.867 0 0 0-.097.974l1.07 1.943-2.008.943a.867.867 0 0 0-.493.855l.188 2.21-2.218.044a.867.867 0 0 0-.799.58l-.727 2.096-2.044-.862a.867.867 0 0 0-.966.206l-1.517 1.618-1.516-1.619a.866.866 0 0 0-.966-.205l-2.044.862-.727-2.095a.867.867 0 0 0-.799-.581l-2.218-.044.188-2.21a.867.867 0 0 0-.494-.855l-2.008-.943 1.071-1.942a.867.867 0 0 0-.097-.976l-1.41-1.685 1.727-1.343a.866.866 0 0 0 .299-.934l-.643-2.123 2.16-.505a.867.867 0 0 0 .66-.733l.276-2.201 2.18.418a.867.867 0 0 0 .9-.402l1.148-1.898 1.82 1.267a.867.867 0 0 0 .987 0l1.82-1.267 1.148 1.898c.185.308.548.47.901.402l2.179-.418.276 2.2c.044.358.31.652.66.734l2.16.505-.643 2.123a.867.867 0 0 0 .3.934l1.725 1.344-1.409 1.685z" fill-rule="nonzero"/><path d="M12.576 6.288a6.232 6.232 0 0 0-6.225 6.226 6.232 6.232 0 0 0 6.225 6.225 6.233 6.233 0 0 0 6.226-6.225 6.233 6.233 0 0 0-6.226-6.226zm0 10.985a4.765 4.765 0 0 1-4.76-4.76 4.765 4.765 0 0 1 4.76-4.76 4.765 4.765 0 0 1 4.76 4.76 4.765 4.765 0 0 1-4.76 4.76z" fill-rule="nonzero"/><path d="M14.366 10.58l-2.892 2.892-.785-.785a.733.733 0 0 0-1.036 1.037l1.303 1.303a.73.73 0 0 0 1.036 0l3.41-3.41a.733.733 0 0 0-1.036-1.036z"/></g></svg>