<svg width="25" height="25" viewBox="0 0 25 25" xmlns="http://www.w3.org/2000/svg"><title>cashier</title><path d="M11.276 1.68h10.148c1.21 0 2.196.984 2.196 2.193v14.67h.634c.404 0 .732.328.732.732v4.975a.731.731 0 0 1-.732.731H.738a.732.732 0 0 1-.732-.731v-4.975c0-.404.328-.731.732-.731h.634V3.874c0-1.21.986-2.194 2.196-2.194h.878l.002-.926c0-.496.5-.859.979-.686l1.092.397L7.613.068a.726.726 0 0 1 .497 0l1.093.397 1.039-.377a.73.73 0 0 1 1.034.666v.926zM4.348 11.72a.732.732 0 1 1 0-1.462h.098V3.142h-.878a.734.734 0 0 0-.732.731v14.67h19.32V3.874a.734.734 0 0 0-.732-.731H11.276v7.116h.098a.731.731 0 1 1 0 1.462H4.348zm15.418 4.387a.731.731 0 1 0-.001 1.463.731.731 0 0 0 0-1.463zm-2.928 0a.731.731 0 1 0 0 1.462.731.731 0 0 0 0-1.462zm-2.927 0a.732.732 0 1 0 0 1.463.732.732 0 0 0 0-1.463zm5.855-2.925a.731.731 0 1 0-.001 1.463.731.731 0 0 0 0-1.463zm-2.928 0a.731.731 0 1 0 0 1.463.731.731 0 0 0 0-1.463zm-2.927 0a.731.731 0 1 0 0 1.463.731.731 0 0 0 0-1.463zm5.855-2.924a.731.731 0 1 0-.001 1.463.731.731 0 0 0 0-1.463zm-2.928 0a.731.731 0 1 0 0 1.463.731.731 0 0 0 0-1.463zm-2.927 0a.732.732 0 1 0 0 1.463.732.732 0 0 0 0-1.463zm-.293-5.654a.731.731 0 0 0-.732.731v2.73c0 .404.328.73.732.73h6.635a.732.732 0 0 0 .732-.73v-2.73a.731.731 0 0 0-.732-.73h-6.635zm5.903 1.462H14.35v1.268h5.171V6.066zM5.91 10.258h3.903V1.795l-.361.132a.728.728 0 0 1-.498 0L7.861 1.53l-1.093.397a.728.728 0 0 1-.497 0l-.361-.132v8.463zm5.75 12.235h1.672a.732.732 0 1 0 0-1.462H11.66a.731.731 0 1 0 0 1.462zM1.47 20.006v3.513h22.052v-3.513H1.47z" fill="#FFF"/></svg>