<svg width="33" height="25" viewBox="0 0 33 25" xmlns="http://www.w3.org/2000/svg"><title>truck-facing-right</title><g fill="#FFF"><path d="M32.19 11.195l-2.441-5.238a.73.73 0 0 0-.662-.422h-6.764a.73.73 0 0 0 0 1.46h6.3l2.175 4.67v7.266h-.784a4.86 4.86 0 0 0-4.799-4.123 4.86 4.86 0 0 0-4.798 4.123H11.84a4.813 4.813 0 0 0-.469-1.46h8.762a.73.73 0 0 0 .73-.73V.738a.73.73 0 0 0-.73-.73H.73a.73.73 0 0 0-.73.73v16.005c0 .403.327.73.73.73h1.984c-.23.45-.391.941-.47 1.46H.73a.73.73 0 0 0 0 1.459h1.514a4.86 4.86 0 0 0 4.799 4.124 4.86 4.86 0 0 0 4.798-4.124h8.576a4.86 4.86 0 0 0 4.798 4.124 4.86 4.86 0 0 0 4.799-4.124h1.514a.73.73 0 0 0 .73-.73v-8.157a.73.73 0 0 0-.068-.309zM1.46 1.467h17.944v14.545h-9.167a4.832 4.832 0 0 0-3.194-1.204c-1.223 0-2.34.455-3.195 1.204H1.46V1.467zm5.583 21.588a3.397 3.397 0 0 1-3.394-3.394 3.397 3.397 0 0 1 3.394-3.394 3.397 3.397 0 0 1 3.393 3.394 3.397 3.397 0 0 1-3.393 3.394zm18.172 0a3.397 3.397 0 0 1-3.393-3.394 3.397 3.397 0 0 1 3.393-3.394 3.398 3.398 0 0 1 3.394 3.393v.002a3.397 3.397 0 0 1-3.394 3.393z"/><path d="M28.646 12.233h.001a.73.73 0 0 0 .641-1.08l-1.254-2.69a.73.73 0 0 0-.661-.421H22.64a.73.73 0 0 0-.73.73v2.732c0 .403.327.73.73.73h6.006zM23.37 9.501h3.538l.593 1.273H23.37V9.5z"/></g></svg>