<svg width="30" height="30" viewBox="0 0 30 30" xmlns="http://www.w3.org/2000/svg"><title>gvozd</title><path d="M29.785 10.193c-.378-1.512-1.419-2.675-2.855-3.207a5.74 5.74 0 0 0-.814-3.295 6.275 6.275 0 0 0-2.476-2.362 6.058 6.058 0 0 0-3.233-.697 5.823 5.823 0 0 0-3.058 1.104A5.02 5.02 0 0 0 13.198.024c-1.465.106-2.75.856-3.524 2.06-1.709-.525-3.564-.165-5.098.987C2.97 4.276 2.017 6.14 2.012 8.055A5.19 5.19 0 0 0 .07 11.64c-.117 1.293.273 2.521 1.099 3.472-.762 1.016-1.047 2.315-.791 3.662.314 1.641 1.384 3.183 2.808 4.027a5.14 5.14 0 0 0 1.855 3.1c.988.774 2.192 1.11 3.4.934.32.939.943 1.73 1.815 2.291.814.531 1.825.833 2.843.862h.145c2.064 0 3.983-1.098 4.936-2.84 1.617 1.027 3.715.91 5.372-.307 1.628-1.2 2.35-3.095 1.89-4.95 2.372-1.133 2.994-4.039 2.372-6.23 1.68-1.133 2.494-3.372 1.97-5.468zM24.669 21.13a.495.495 0 0 0-.285.26.49.49 0 0 0-.018.384 3.667 3.667 0 0 1-.197 2.917 4.012 4.012 0 0 1-2.216 1.925c-1.011.366-2.034.301-2.953-.189-.849-.449-1.558-1.24-2.006-2.232.116-.148.221-.307.32-.467.983.372 2.04.372 3.064-.006 1.07-.395 2.035-1.175 2.727-2.202.75-1.116 1.098-2.433.994-3.709-.11-1.37-.75-2.652-1.837-3.72.14-.485.162-1.004.07-1.518 1.889.018 4.08 1.016 4.627 3.773.483 2.44-.785 4.252-2.29 4.784zM2.203 15.437a.513.513 0 0 0-.023-.715 3.663 3.663 0 0 1-1.14-2.598 4.11 4.11 0 0 1 1.105-2.835c.303 1.447 1.122 2.782 2.436 3.975a4.627 4.627 0 0 0-.343 1.17c-.197 1.21.024 2.58.617 3.755.761 1.518 2.064 2.61 3.581 3 .006.195.017.39.047.579-1.68.998-4.28 1.328-6.134-1.016-1.547-1.943-1.244-4.146-.146-5.315zm10.652 3.372a.461.461 0 0 0 .302-.23.504.504 0 0 0 .058-.378.491.491 0 0 0-.599-.366c-1.075.271-2.552.017-3.174-1.577-.53-1.358.035-2.427.773-2.847a.499.499 0 0 0 .233-.3.52.52 0 0 0-.047-.385 2.022 2.022 0 0 1-.157-1.63 2.254 2.254 0 0 1 1.227-1.352c1.267-.567 2.413.278 2.988 1.37.128.242.43.337.669.207a.51.51 0 0 0 .203-.68 4.592 4.592 0 0 0-.912-1.222c.662-.643 1.773-.862 2.738-.525.796.277 1.302.886 1.39 1.665a.51.51 0 0 0 .186.337.51.51 0 0 0 .366.106c1.128-.136 1.849.65 2.122 1.37.296.785.21 1.848-.64 2.492a4.494 4.494 0 0 0-.68-.785.49.49 0 0 0-.698.041.518.518 0 0 0-.127.36c.005.136.064.26.162.349.826.75 1.454 2.132.506 3.555-.808 1.205-1.994 1.34-2.756.95a.469.469 0 0 0-.378-.023.505.505 0 0 0-.284.254c-.396.815-1.256 1.24-2.204 1.08-.942-.159-1.634-.832-1.773-1.724.168-.035.337-.07.506-.112zm.279 6.112a4.033 4.033 0 0 1-2.547-1.116 3.717 3.717 0 0 1-1.163-2.462c.919.059 1.896-.107 2.907-.497.692.62 1.652.928 2.576.81a2.89 2.89 0 0 0 2.07-1.258c1.093.348 2.209.035 3.081-.863.989-1.021 1.378-2.533.971-3.773a3.07 3.07 0 0 0 .756-.72c.68.755 1.134 1.665 1.285 2.58.186 1.146-.076 2.262-.79 3.33-1.379 2.062-3.542 2.41-4.966 1.684a.469.469 0 0 0-.378-.024.505.505 0 0 0-.285.254c-.663 1.364-2.006 2.15-3.517 2.055zm7.849-17.12c.017.13.081.254.186.337a.51.51 0 0 0 .366.106c1.116-.136 2.174.236 2.982 1.051a4.169 4.169 0 0 1 1.157 3.284c-.936-.662-2.087-1.004-3.348-1.004-.11 0-.227 0-.343.006-.518-.969-1.483-1.577-2.53-1.6-.215-.774-.744-1.424-1.5-1.82a3.807 3.807 0 0 0-2.994-.218c-.447-.803-.982-1.465-1.593-1.967 1.146-1.275 3.25-1.783 5.035-1.216 1.477.466 2.419 1.577 2.582 3.041zm-5.407-4.199c-1.204.254-2.285.892-3.047 1.802-1.395-.756-3.081-.72-4.517.094a.483.483 0 0 0-.233.301.493.493 0 0 0 .047.384.494.494 0 0 0 .674.189 3.617 3.617 0 0 1 2.942-.307c1.122.354 2.087 1.199 2.651 2.32-.18.13-.349.284-.5.45-1.116-.532-2.46-.284-3.424.632-.948.903-1.262 2.173-.814 3.324-.965.774-1.326 2.008-.971 3.307.407 1.483 1.622 2.628 2.97 2.811.041.39.158.762.338 1.105-1.244.42-2.436.437-3.448.059-1.058-.396-1.953-1.229-2.506-2.345-.936-1.872-.82-4.423 1-5.456a.499.499 0 0 0 .233-.302.52.52 0 0 0-.047-.383c-.767-1.365-.64-2.918.343-4.158a.511.511 0 0 0-.075-.709.485.485 0 0 0-.692.077c-1.145 1.447-1.378 3.213-.645 4.855a3.934 3.934 0 0 0-.739.726C3.03 10.423 2.453 7.772 3.64 5.61a5.38 5.38 0 0 1 2.616-2.368c1.14-.484 2.372-.514 3.465-.083a.497.497 0 0 0 .616-.23 3.58 3.58 0 0 1 2.814-1.901 3.974 3.974 0 0 1 3.442 1.352 8.09 8.09 0 0 0-1.017 1.222zM8.72 22.778c.529 1.423 1.767 2.527 3.326 2.958 1.505.42 3.07.124 4.203-.785.314.614.698 1.14 1.134 1.57-.698 1.377-2.064 2.292-3.675 2.44-2.442.23-4.081-1.24-4.442-2.817a.505.505 0 0 0-.482-.39c-.04 0-.076.006-.116.012-1.843.443-3.646-.585-4.332-2.451 1.407.437 2.954.248 4.384-.537zm16.948-13.69c-.913-1.257-2.25-1.925-3.785-1.883C21.645 6.1 21 5.155 20.012 4.47a5.72 5.72 0 0 0-3.093-.992 5.487 5.487 0 0 1 2.552-1.653 4.794 4.794 0 0 1 3.122.124c2.221.856 3.61 3.094 3.302 5.32a.506.506 0 0 0 .36.556c1.262.348 2.216 1.358 2.553 2.693.355 1.423-.046 2.917-1.058 3.897-.099.095-.21.19-.32.278a5.592 5.592 0 0 0-.9-1.347c.348-1.446.022-3.04-.861-4.257z" fill="#0AB1B0"/></svg>