<svg width="26" height="30" viewBox="0 0 26 30" xmlns="http://www.w3.org/2000/svg"><title>hris</title><g fill="#0AB1B0"><path d="M5.805 23.112l.457-.118.065.465.017.117c.17 1.018.546 1.589.564 1.612l.129.194.235.018h.1c.217 0 .804-.03 1.572-.318.036-.011.077-.03.112-.04l.434-.177.13.453c.962 3.44 3.104 4.517 3.192 4.564l.211.1.212-.1c.088-.047 2.23-1.123 3.193-4.564l.129-.453.434.176c.035.018.076.03.111.041.763.289 1.356.318 1.573.318h.106l.235-.018.129-.194c.018-.023.393-.594.563-1.612l.018-.117.065-.465.451.118c.787.2 1.556.306 2.295.306 2.049 0 3.193-.765 3.24-.794l.194-.13.017-.235c.006-.1.147-2.5-2.341-5.053l-.33-.335.37-.295.094-.076c.793-.653 1.098-1.27 1.11-1.294l.1-.212-.1-.212c-.012-.023-.317-.64-1.11-1.294l-.093-.076-.37-.288.329-.336c2.488-2.553 2.353-4.953 2.341-5.053l-.017-.235-.194-.13c-.082-.058-2.09-1.376-5.54-.494l-.452.118-.07-.465-.018-.117c-.17-1.018-.552-1.588-.564-1.612l-.129-.194-.235-.018c-.029 0-.71-.047-1.672.318-.036.012-.077.03-.112.041l-.434.177-.13-.453C15.46 1.229 13.318.153 13.23.106l-.211-.1-.212.1c-.088.047-2.23 1.123-3.192 4.565l-.13.453-.434-.177c-.035-.018-.076-.03-.111-.041-.963-.359-1.644-.318-1.673-.318l-.235.018-.129.194c-.018.024-.393.594-.563 1.612l-.018.117-.065.465-.451-.118c-3.452-.882-5.459.436-5.54.495L.07 7.5l-.017.235c-.006.1-.147 2.5 2.342 5.053l.328.336-.37.294c-.029.023-.064.047-.093.076-.793.653-1.098 1.27-1.11 1.294l-.1.212.1.212c.012.023.317.64 1.11 1.294l.093.076.37.294-.328.336C-.094 19.765.04 22.165.053 22.265l.017.235.194.13c.047.035 1.197.794 3.24.794a9.608 9.608 0 0 0 2.3-.312zm2.142 1.264l-.364.071-.118-.353c-.21-.63-.47-1.959.182-3.823l.088-.26.276-.023c.67-.053 1.362-.24 2.066-.553l.528-.235.065.576a6.42 6.42 0 0 0 .558 2.071l.117.247-.176.206c-1.297 1.506-2.577 1.947-3.222 2.076zm7.682.224c-.545 2.382-1.696 3.588-2.33 4.094l-.264.212-.264-.212c-.64-.512-1.79-1.73-2.33-4.094l-.059-.265.218-.164a8.27 8.27 0 0 0 1.02-.924l.288-.306.306.288c.34.324.61.453.61.453l.211.1.212-.1s.27-.135.61-.453l.305-.288.288.306c.322.341.669.653 1.02.924l.218.164-.059.265zm2.97-.5l-.117.353-.364-.07c-.646-.13-1.925-.571-3.216-2.077l-.176-.206.117-.247c.287-.606.475-1.3.557-2.07l.065-.577.528.235c.705.312 1.397.5 2.066.553l.276.024.088.258c.651 1.871.387 3.2.176 3.824zm6.41-2.482l.046.33-.311.123c-.44.176-1.174.382-2.172.382-.716 0-1.56-.106-2.535-.406l-.258-.082-.035-.27a7.941 7.941 0 0 0-.288-1.342l-.117-.4.399-.124c.434-.135.675-.288.698-.305l.194-.13.017-.235s.018-.3-.088-.759l-.094-.412.411-.094a8.31 8.31 0 0 0 1.31-.423l.251-.106.2.188c1.784 1.653 2.248 3.259 2.371 4.065zm-1.321-6.906l.246.282-.246.277c-.44.5-1.462 1.388-3.399 1.753l-.27.052-.158-.223c-.382-.553-.886-1.059-1.508-1.518l-.47-.34.47-.342c.622-.453 1.132-.965 1.508-1.518l.158-.223.27.053c1.943.359 2.964 1.247 3.399 1.747zm-4.232-5.083a8.89 8.89 0 0 0 .288-1.34l.035-.271.258-.083c2.33-.717 3.95-.323 4.701-.023l.311.123-.053.336c-.123.811-.598 2.417-2.37 4.07l-.2.188-.253-.105a8.31 8.31 0 0 0-1.308-.424l-.411-.094.094-.412c.105-.459.088-.753.088-.759l-.018-.235-.194-.13c-.023-.017-.264-.176-.698-.305l-.4-.124.13-.412zM18.118 5.6l.364-.07.117.352c.211.63.47 1.96-.182 3.824l-.088.259-.276.023c-.669.053-1.361.241-2.066.553l-.528.235-.064-.576a6.433 6.433 0 0 0-.558-2.07l-.117-.248.176-.206c1.297-1.505 2.576-1.947 3.222-2.076zm-7.683-.218c.546-2.388 1.696-3.594 2.33-4.1l.264-.206.264.206c.64.506 1.785 1.712 2.33 4.1l.06.265-.218.165a8.26 8.26 0 0 0-1.021.923l-.288.306-.305-.288c-.34-.324-.61-.453-.61-.453l-.212-.1-.21.1s-.27.135-.611.453l-.306.288-.287-.306a8.784 8.784 0 0 0-1.021-.923l-.217-.165.058-.265zm-2.97.5l.118-.353.364.077c.651.13 1.93.576 3.216 2.076l.176.206-.117.247a6.392 6.392 0 0 0-.558 2.07l-.064.577-.529-.235c-.704-.312-1.397-.5-2.066-.553l-.275-.023-.088-.26c-.652-1.876-.394-3.205-.177-3.829zm.13 5.06c.886 0 1.837.293 2.84.87.141.082.282.17.423.259l.804.535-.059-.965a6.949 6.949 0 0 1-.017-.494c0-1.93.622-3 1.144-3.553l.305-.33.305.33c.517.553 1.139 1.618 1.139 3.553 0 .165-.006.33-.018.494l-.058.965.804-.535c.135-.089.281-.177.422-.26.998-.576 1.955-.87 2.841-.87.276 0 .546.03.798.088l.44.1-.129.43c-.217.73-.827 1.8-2.494 2.759-.141.082-.288.158-.434.235l-.863.435.863.436c.146.07.293.152.434.235 1.667.965 2.277 2.035 2.494 2.759l.13.43-.44.1a3.495 3.495 0 0 1-.799.087c-.886 0-1.843-.294-2.84-.87-.142-.083-.282-.17-.423-.26l-.804-.534.058.964c.012.165.018.33.018.494 0 1.93-.622 3-1.139 3.553l-.305.33-.305-.33c-.516-.553-1.139-1.617-1.139-3.553 0-.164.006-.329.018-.494l.059-.964-.804.535a7.344 7.344 0 0 1-.423.259c-.998.576-1.954.87-2.84.87a3.59 3.59 0 0 1-.799-.088l-.44-.1.13-.43c.216-.729.827-1.8 2.494-2.758.14-.083.287-.159.434-.235l.863-.436-.863-.435a6.192 6.192 0 0 1-.434-.235c-1.667-.965-2.278-2.036-2.495-2.76l-.129-.429.44-.1c.247-.058.51-.088.793-.088zM1.056 8.364l-.047-.33.312-.123c.757-.3 2.37-.694 4.707.023l.258.083.035.27c.053.441.153.894.288 1.341l.117.4-.4.124c-.433.135-.674.288-.698.306l-.193.13-.018.235s-.017.3.088.758l.094.412-.41.094a8.31 8.31 0 0 0-1.31.424l-.252.106-.2-.189C1.643 10.77 1.18 9.17 1.057 8.364zm1.321 6.906l-.247-.283.247-.276c.44-.5 1.461-1.388 3.398-1.753l.27-.053.159.223c.381.553.886 1.06 1.508 1.518l.47.341-.47.341a6.366 6.366 0 0 0-1.508 1.518l-.159.224-.27-.053c-1.942-.36-2.964-1.253-3.398-1.747zm-1.05 6.8l-.312-.124.053-.335c.123-.812.599-2.418 2.371-4.07l.2-.19.252.107c.411.17.851.317 1.309.423l.41.094-.093.412c-.106.46-.088.753-.088.76l.018.234.193.13c.024.017.264.176.699.306l.399.123-.118.4a8.856 8.856 0 0 0-.287 1.341l-.035.27-.259.083c-.974.3-1.825.406-2.535.406-1.01.012-1.737-.194-2.178-.37z"/><path d="M10.582 14.988l.076.418c.1.559.393 1.065.828 1.43l.328.276.4.147a2.408 2.408 0 0 0 1.649 0l.399-.147.329-.277a2.44 2.44 0 0 0 .827-1.43l.076-.417-.076-.417a2.424 2.424 0 0 0-.827-1.43l-.33-.276-.398-.147a2.408 2.408 0 0 0-1.65 0l-.399.147-.328.276a2.441 2.441 0 0 0-.828 1.43l-.076.417zm2.447-1.447a1.454 1.454 0 0 1 0 2.906c-.798 0-1.45-.653-1.45-1.453s.658-1.453 1.45-1.453z"/></g></svg>