<svg width="30" height="28" viewBox="0 0 30 28" xmlns="http://www.w3.org/2000/svg"><title>lili</title><path d="M4.562 25.858c2.795 1.067 6.506 1.654 10.443 1.654 3.938 0 7.649-.587 10.444-1.654C28.384 24.738 30 23.192 30 21.506c0-1.454-1.25-2.844-3.517-3.91l-.452-.21.258-.425c2.5-4.17 1.815-9.47 1.783-9.69l-.054-.41-.415.017c-.048 0-1.19.048-2.747.393l-.457.102-.087-.457c-.344-1.896-.888-3.21-.915-3.27l-.162-.382-.393.124c-.065.021-1.578.495-3.382 1.573l-.394.231-.215-.398C17.3 2.1 15.393.35 15.312.28L15.005 0l-.307.28c-.08.075-1.992 1.82-3.538 4.514l-.226.398-.394-.231C8.73 3.883 7.223 3.409 7.158 3.393l-.393-.124-.162.383c-.021.054-.57 1.368-.915 3.269l-.087.458-.457-.103c-1.557-.344-2.699-.393-2.747-.393l-.415-.016-.054.41c-.032.22-.716 5.52 1.788 9.689l.259.425-.453.21C1.255 18.668.005 20.057.005 21.511c0 1.686 1.622 3.227 4.557 4.347zm22.18-17.984l.484-.059.022.485c.086 1.793.016 6.29-2.575 9.371-1.104 1.315-2.65 2.365-4.605 3.119-1.589.614-3.107.9-4.099 1.034l-.511.07v-3.34c.2-1.852.792-4.486 2.494-6.516 2.585-3.076 7.007-3.937 8.79-4.164zm-6.91-2.073a17.975 17.975 0 0 1 2.44-1.228l.452-.183.15.463c.167.528.41 1.373.582 2.375l.065.382-.372.119A16.41 16.41 0 0 0 21 8.596l-.485.237-.145-.522a14.713 14.713 0 0 0-.711-1.95L19.497 6l.334-.2zm-5.155-4.207l.328-.35.329.35c1.25 1.33 3.463 4.072 4.276 7.444l.076.301-.259.173a10.599 10.599 0 0 0-2.165 1.939c-.754.9-1.368 1.982-1.831 3.215l-.42 1.126-.42-1.126c-.464-1.233-1.078-2.316-1.837-3.215a10.759 10.759 0 0 0-2.165-1.94l-.259-.177.076-.302c.802-3.36 3.021-6.102 4.27-7.438zM6.555 7.228a17.35 17.35 0 0 1 .581-2.375l.151-.463.453.183c.576.237 1.47.64 2.44 1.228l.339.204-.162.361c-.29.652-.528 1.309-.71 1.95l-.146.522-.485-.237a16.41 16.41 0 0 0-2.149-.867l-.371-.118.059-.388zM2.763 8.3l.022-.485.484.06c1.783.226 6.205 1.087 8.785 4.163 1.702 2.03 2.294 4.659 2.494 6.506v3.345l-.507-.065c-1.76-.232-6.14-1.093-8.709-4.153-2.574-3.075-2.655-7.578-2.569-9.371zm1.47 9.975l.302-.135.215.248c2.866 3.29 7.514 4.147 9.388 4.362l.867.07.851-.075c1.88-.22 6.534-1.088 9.388-4.363l.216-.247.301.134c2.138.937 3.318 2.085 3.318 3.237 0 1.26-1.443 2.537-3.964 3.501-2.682 1.034-6.28 1.6-10.11 1.6-3.83 0-7.427-.566-10.12-1.594-2.52-.965-3.964-2.236-3.964-3.501-.005-1.153 1.174-2.3 3.312-3.237z" fill="#0AB1B0"/></svg>