<svg width="30" height="30" viewBox="0 0 30 30" xmlns="http://www.w3.org/2000/svg"><title>orchid</title><path d="M19.06 25.336l.416.322a4.853 4.853 0 0 0 3.834.944l5.66-1.014-1.333-5.508a4.684 4.684 0 0 0-1.149-2.115l-.333-.358.399-.28a5.034 5.034 0 0 0 2-2.93l1.422-5.89-6.047-1.083a5.143 5.143 0 0 0-2.53.176l-.464.152-.096-.469a5.262 5.262 0 0 0-1.369-2.59L15.006.053l-4.464 4.64a5.215 5.215 0 0 0-1.37 2.59l-.095.469-.464-.152a5.284 5.284 0 0 0-2.53-.176L.036 8.508l1.422 5.888a5.007 5.007 0 0 0 2 2.93l.4.281-.334.358a4.741 4.741 0 0 0-1.149 2.115l-1.333 5.508 5.66 1.014a4.84 4.84 0 0 0 3.833-.943l.411-.323.244.463c.167.322.381.615.637.879l3.185 3.304 3.184-3.304c.256-.264.47-.563.637-.88l.227-.462zm2.07-16.559a4.184 4.184 0 0 1 2.625-.38l5.018.902-1.185 4.88a4.054 4.054 0 0 1-2.226 2.72c-.446.21-.928.34-1.428.38L18 17.783l-.006-.457a2.904 2.904 0 0 0-.905-2.068l-.238-.229 2.548-4.588a3.55 3.55 0 0 1 .351-.527 4.226 4.226 0 0 1 1.381-1.137zm-4.125 8.59c0 1.09-.899 1.975-2.006 1.975-1.107 0-2.006-.885-2.006-1.975s.899-1.974 2.006-1.974c1.107 0 2.006.884 2.006 1.974zm-6.952-9.246a4.309 4.309 0 0 1 1.202-2.754l3.75-3.89 3.75 3.89a4.296 4.296 0 0 1 1.202 2.754l.012.217-.172.135c-.518.41-.94.914-1.262 1.494l-2.548 4.594-.321-.07a3.112 3.112 0 0 0-1.316 0l-.321.07-2.548-4.594a5.044 5.044 0 0 0-1.262-1.494l-.172-.135.006-.217zM2.417 14.18L1.232 9.293l5.018-.902a4.225 4.225 0 0 1 2.625.38 4.085 4.085 0 0 1 1.732 1.665l2.548 4.587-.238.229a2.915 2.915 0 0 0-.905 2.068l-.006.457-5.935-.504c-.5-.04-.976-.17-1.428-.38a4.044 4.044 0 0 1-2.226-2.713zm8.35 9.68l-.005.117-.066.1A3.815 3.815 0 0 1 7.56 25.71a3.79 3.79 0 0 1-.679-.059L2.25 24.82l1.09-4.506a3.737 3.737 0 0 1 1.428-2.132l.167-.123.202.052c.28.07.565.123.857.147l6.393.545.113.176c.042.064.09.128.131.181l.173.217-1.578 2.894a3.633 3.633 0 0 0-.458 1.588zm7.471.503a2.792 2.792 0 0 1-.774 1.647L15 28.564l-2.464-2.554a2.808 2.808 0 0 1-.774-1.647c-.06-.568.053-1.13.327-1.634l1.494-2.743.357.135a3.078 3.078 0 0 0 2.12 0l.357-.135 1.494 2.743c.274.503.387 1.072.327 1.634zm-1.03-4.992l.173-.217c.042-.058.09-.117.13-.181l.114-.176 6.393-.545c.292-.023.577-.076.857-.147l.202-.052.167.123a3.737 3.737 0 0 1 1.429 2.133l1.089 4.505-4.631.832a3.792 3.792 0 0 1-.679.06 3.815 3.815 0 0 1-3.137-1.636l-.065-.1-.006-.116a3.754 3.754 0 0 0-.452-1.588l-1.584-2.895z" fill="#0AB1B0"/></svg>