<svg width="30" height="30" viewBox="0 0 30 30" xmlns="http://www.w3.org/2000/svg"><title>rose</title><path d="M27.23 14.947c.18-.41.363-.817.528-1.189.948-2.123.943-2.142.889-2.364-.73-3-3.819-4.407-4.598-4.718-.41-.967-1.178-2.06-2.61-2.886C19.075 2.426 18.161.387 18.153.368a.485.485 0 0 0-.365-.286 8.739 8.739 0 0 0-2.764.058c-1.277.237-2.324.763-3.1 1.547-.833-.672-1.965-.92-2.77-1.007-.8-.088-1.585-.05-1.774.014a.497.497 0 0 0-.322.35c-.116.493-.478 1.046-.828 1.582-.554.846-1.125 1.72-1 2.655C3.264 6.318 1.18 8.277.868 8.575a.484.484 0 0 0-.124.193 15.128 15.128 0 0 0-.599 2.692c-.269 2.065-.06 3.765.62 5.053.02.039.042.075.063.113-.622 1.138-.382 2.176-.17 3.092.166.713.31 1.33.076 1.948a.49.49 0 0 0 .043.43c.174.278 2.437 1.895 4.819 2.142.04.161.09.324.158.488.542 1.32 1.856 2.374 3.905 3.13 1.049.387 1.79.754 2.444 1.078.809.401 1.508.748 2.425.927.255.05.516.074.78.074 1.243 0 2.56-.549 3.782-1.592.245-.208.595-.413.966-.63 1.274-.743 3.01-1.759 2.912-4.353a8.19 8.19 0 0 0 .655-.4c.03.031.067.06.108.083.193.11.386.16.578.16.856 0 1.693-.988 2.507-1.949.61-.72 1.302-1.536 1.865-1.761.145-.058.394-.22.44-.663.094-.904-.724-2.958-1.89-3.883zm.446-3.437c-.104.285-.473 1.114-.804 1.853a99.162 99.162 0 0 0-1.224 2.82 69.677 69.677 0 0 0-.163-.5c-.27-.82-.55-1.669-.658-2.51-.102-.792-.319-1.475-.646-2.044.361-.946.448-2.111.242-3.207 1.05.553 2.74 1.708 3.253 3.588zm-6.298 11.557c-.983.462-2.097.985-3.229 1.98-1.46 1.28-3.308.841-4.512-.145.325-.236.631-.522.913-.855 1.137-.143 2.303-.55 3.401-1.21 1.998-1.197 3.521-3.084 4.18-5.176.85-2.698-.056-5.654-1.486-7.538.509.012 1.264.125 1.915.605.715.526 1.154 1.39 1.305 2.57.12.932.414 1.825.699 2.688.44 1.338.857 2.603.448 3.634-.846 2.136-2.076 2.714-3.634 3.447zM5.944 20.302c-.413-.897-.927-1.488-1.38-2.01-.625-.718-1.118-1.285-1.278-2.473-.372-2.75 1.358-5.405 3.174-6.507.5-.303.972-.464 1.36-.478-1.056 1.179-2.23 3.126-2.192 5.037.023 1.152.483 2.1 1.366 2.82.233.19.474.357.721.501-.276.856-.149 2.12.352 3.277.422.976 1.48 2.714 3.83 3.395.392.114.8.186 1.22.22-.694.522-1.485.742-2.33.639-1.835-.223-3.69-1.917-4.843-4.421zm2.555-15.54c.78-.59 2.395-1.403 4.432-.204 1.475.867 2.905 1.197 4.054 1.462 1.582.364 2.423.599 2.746 1.563.216.643-.208 1.065-.406 1.221-1-.723-2.072-.938-3.021-.593a5.362 5.362 0 0 0-1.733-1.063c-1.98-.756-4.253-.41-5.89.87-.603-.256-1.361-.195-2.174.174.038-1.186.98-2.664 1.992-3.43zm3.668 18.17c-1.968-.57-2.856-2.029-3.21-2.848-.422-.975-.491-1.913-.352-2.48.215.074.432.134.652.177.51 1.266 1.819 2.285 3.333 2.57.296.056.59.084.883.084 1.541 0 3.023-.76 4.166-2.162 1.322-1.624 2.546-3.855.337-6.757a5.639 5.639 0 0 0-.955-2.486c.89-.108 1.708.492 2.153.901 1.666 1.536 2.882 4.739 2.032 7.44-.589 1.868-1.957 3.557-3.754 4.635-1.757 1.053-3.683 1.391-5.285.927zM9.058 8.965c1.362-1.204 3.439-1.57 5.168-.91.691.264 1.756.862 2.37 2.152a5.537 5.537 0 0 0-2.593-.923c-1.224-.108-2.376.232-3.16.933-1.426 1.272-1.949 2.836-1.434 4.29.364 1.03 1.226 1.853 2.172 2.135-.978.354-2.467.525-3.974-.702-.653-.532-.992-1.234-1.01-2.087-.026-1.292.828-3.445 2.461-4.888zm3.44 6.92a1.384 1.384 0 0 1-.507-.94c-.038-.37.071-.733.306-1.021a1.385 1.385 0 0 1 1.083-.514 1.396 1.396 0 0 1 .14 2.78c-.37.038-.734-.07-1.022-.305zm.876 1.283a2.348 2.348 0 0 0 1.837-.871 2.367 2.367 0 0 0-.34-3.326 2.348 2.348 0 0 0-1.734-.519 2.348 2.348 0 0 0-1.592.86 2.348 2.348 0 0 0-.486 1.948 2.61 2.61 0 0 1-.736-1.077c-.382-1.08.032-2.231 1.165-3.243.586-.523 1.472-.774 2.43-.69a4.63 4.63 0 0 1 3.214 1.76c1.776 2.26 1.186 3.894-.245 5.651-1.545 1.897-3.242 1.903-4.117 1.739-1.01-.19-1.897-.777-2.384-1.536a5.02 5.02 0 0 0 .456-.043 5.56 5.56 0 0 0 2.015-.71c.168.037.341.057.517.057zm1.8-16.068a8.031 8.031 0 0 1 2.214-.09c.342.648 1.404 2.373 3.567 3.62 1.6.923 2.215 2.231 2.45 3.167.223.889.185 1.742.04 2.406a3.818 3.818 0 0 0-.31-.255c-1.014-.747-2.187-.817-2.808-.79.342-.444.588-1.094.324-1.883-.512-1.523-1.873-1.837-3.448-2.2-1.14-.262-2.433-.56-3.78-1.352a5.687 5.687 0 0 0-1.394-.598c.637-1.07 1.692-1.75 3.145-2.025zM7.042 3.156c.328-.501.665-1.017.86-1.553.677-.03 2.405.026 3.412.837a5.27 5.27 0 0 0-.302.523c-1.379-.058-2.46.544-3.098 1.026-.258.195-.5.415-.725.651a3.439 3.439 0 0 0-.992.21c.073-.512.45-1.09.845-1.694zM1.626 9.194a29.007 29.007 0 0 1 2.172-1.822c1.108-.834 1.912-1.284 2.485-1.52-.562.966-.841 2.021-.71 2.885-1.973 1.401-3.654 4.212-3.249 7.212.074.547.212.996.389 1.382a3.623 3.623 0 0 1-1.09-1.268c-1.282-2.427-.211-6.18.003-6.87zm-.022 10.305c-.161-.696-.305-1.315-.113-1.96.597.64 1.372 1.096 2.314 1.36l.026.03c.431.495.877 1.007 1.232 1.779.217.47.459.918.722 1.339a3.113 3.113 0 0 0-.29 1.202c-1.65-.232-3.18-1.176-3.748-1.584.182-.762.017-1.474-.143-2.166zm17.963 7.377c-.409.239-.796.465-1.106.73-1.252 1.068-2.583 1.53-3.747 1.303-.789-.154-1.403-.458-2.18-.844a23.93 23.93 0 0 0-2.539-1.119c-1.76-.649-2.915-1.544-3.344-2.588a2.462 2.462 0 0 1-.165-1.315c.329.412.68.785 1.048 1.112.981.871 2.065 1.4 3.135 1.53a4.042 4.042 0 0 0 2.074-.28l.019.02c.76.71 1.757 1.199 2.736 1.34.207.03.412.045.615.045.983 0 1.898-.352 2.676-1.035 1.029-.903 2.032-1.375 3.002-1.83l.203-.096c-.117 1.679-1.29 2.363-2.427 3.027zm6.51-6.248c-.436.514-1.033 1.218-1.465 1.487.493-.529.934-1.21 1.302-2.138.276-.699.286-1.415.163-2.152a.482.482 0 0 0 .074-.169c.07-.314.342-.997.674-1.777.816.796 1.34 2.305 1.337 2.785-.728.361-1.417 1.175-2.086 1.964z" fill="#0AB1B0"/></svg>