<svg width="30" height="30" viewBox="0 0 30 30" xmlns="http://www.w3.org/2000/svg"><title>Shape</title><path d="M29.614 15.7l-1.394-.703 1.394-.703a.669.669 0 0 0 .374-.626.662.662 0 0 0-.41-.598c-.942-.404-2.376-.808-4.331-.82 1.692-.989 2.728-2.055 3.342-2.875 0 0 0-.005.006-.005a.67.67 0 0 0 .053-.72.672.672 0 0 0-.638-.358l-1.557.088.854-1.306a.667.667 0 0 0 .006-.726.67.67 0 0 0-.644-.316h-.006c-1.018.123-2.458.492-4.161 1.458.971-1.698 1.334-3.145 1.457-4.164V3.32a.664.664 0 0 0-.316-.65.677.677 0 0 0-.726.006l-1.305.855.088-1.557a.678.678 0 0 0-.358-.639.658.658 0 0 0-.72.059 9.363 9.363 0 0 0-1.34 1.235.442.442 0 0 0 .03.621.442.442 0 0 0 .62-.03c.28-.31.568-.59.866-.842l-.111 1.973a.438.438 0 0 0 .679.392l1.65-1.083c-.234 1.306-.895 3.192-2.645 5.388l-2.822 3.214a3.763 3.763 0 0 0-1.475-.855l1.376-4.046a14.99 14.99 0 0 1 1.276-2.547.436.436 0 1 0-.738-.469c-.082.13-.164.27-.245.404-.012-1.961-.416-3.396-.82-4.339V.404A.674.674 0 0 0 15.7.374l-.703 1.395-.702-1.394a.674.674 0 0 0-1.224.03V.41c-.404.943-.807 2.378-.82 4.333-.988-1.692-2.054-2.728-2.88-3.35a.669.669 0 0 0-.72-.052.673.673 0 0 0-.356.638l.088 1.558-1.306-.855a.674.674 0 1 0-1.042.638v.006c.123 1.02.486 2.46 1.458 4.164-1.704-.972-3.144-1.335-4.168-1.458a.663.663 0 0 0-.65.316.678.678 0 0 0 .006.726l.855 1.306-1.557-.088a.678.678 0 0 0-.58 1.083c.615.82 1.65 1.886 3.343 2.876-1.961.011-3.39.415-4.332.82 0 0-.006 0-.006.005a.666.666 0 0 0-.404.598.667.667 0 0 0 .375.626l1.393.703-1.393.703a.669.669 0 0 0-.375.626.662.662 0 0 0 .41.598c.942.404 2.377.808 4.337.82-1.691.989-2.727 2.055-3.342 2.875 0 0 0 .005-.006.005a.67.67 0 0 0-.052.72.672.672 0 0 0 .638.358l1.557-.088-.855 1.306a.667.667 0 0 0-.006.726c.123.2.34.316.568.316.023 0 .053 0 .082-.006h.006c1.018-.123 2.458-.486 4.162-1.458-.966 1.699-1.335 3.145-1.458 4.164v.006a.68.68 0 0 0 1.042.644l1.305-.855-.087 1.558a.678.678 0 0 0 1.077.585c.82-.615 1.89-1.651 2.88-3.35 0 .229.006.451.017.674.012.24.223.427.463.416a.443.443 0 0 0 .415-.463c-.047-.849-.006-1.75.111-2.682.03-.064 1.119-3.262 1.528-4.456.07.006.346.006.416 0 .45 1.317 1.498 4.392 1.528 4.456.333 2.594-.024 4.445-.451 5.634l-.89-1.769a.445.445 0 0 0-.392-.24.445.445 0 0 0-.392.24l-.89 1.763a8.43 8.43 0 0 1-.293-1.008.442.442 0 0 0-.526-.327.442.442 0 0 0-.328.527 9.3 9.3 0 0 0 .503 1.569v.006a.674.674 0 0 0 1.223.03l.703-1.395.702 1.394a.677.677 0 0 0 .603.375h.024a.666.666 0 0 0 .597-.404v-.006c.404-.943.808-2.378.82-4.333.989 1.692 2.054 2.728 2.88 3.35a.666.666 0 0 0 .72.052.673.673 0 0 0 .356-.638l-.087-1.558 1.305.855a.666.666 0 0 0 .726.006.674.674 0 0 0 .316-.65v-.006c-.123-1.02-.486-2.46-1.458-4.164 1.704.972 3.144 1.335 4.168 1.458a.667.667 0 0 0 .65-.31.678.678 0 0 0-.006-.726l-.855-1.306 1.557.088a.678.678 0 0 0 .586-1.078s0-.005-.006-.005c-.615-.82-1.65-1.886-3.342-2.876 1.96-.011 3.389-.415 4.331-.82 0 0 .006 0 .006-.005a.666.666 0 0 0 .404-.598.713.713 0 0 0-.386-.626zM21.22 9.405c2.072-1.587 3.857-2.202 5.104-2.425L25.24 8.632a.44.44 0 0 0-.012.462c.082.147.24.229.404.217l1.973-.111c-.82.972-2.242 2.207-4.654 3.209-.076.011-3.664.714-4.624.902a4.328 4.328 0 0 0-.205-.358c.948-1.083 3.056-3.496 3.097-3.548zm-7.5-8.228l.89 1.769c.076.146.228.24.392.24a.445.445 0 0 0 .392-.24l.89-1.769c.433 1.195.79 3.045.45 5.64-.029.064-1.106 3.232-1.527 4.456a4.918 4.918 0 0 0-.416 0c-.421-1.23-1.498-4.392-1.528-4.457-.333-2.594.024-4.444.457-5.639zM6.984 3.672l1.65 1.083c.14.094.316.094.463.012a.427.427 0 0 0 .216-.404l-.11-1.974c1.012.855 2.317 2.372 3.341 4.984l1.376 4.046c-.556.17-1.06.463-1.475.855L9.624 9.06c-1.745-2.196-2.406-4.081-2.64-5.387zM2.4 9.2l1.973.111a.437.437 0 0 0 .392-.68l-1.083-1.65c1.253.222 3.032.843 5.104 2.424.047.058 2.248 2.582 3.097 3.554a3.118 3.118 0 0 0-.205.357c-1.03-.205-4.548-.896-4.624-.907-2.412-1.002-3.834-2.237-4.654-3.21zm-1.212 7.08l1.762-.89a.445.445 0 0 0 .24-.393.445.445 0 0 0-.24-.392l-1.767-.89c1.246-.451 3.213-.82 5.988-.404l4.191.831a3.704 3.704 0 0 0 0 1.698l-4.191.832c-2.769.427-4.73.058-5.983-.392zm2.494 6.74l1.083-1.652a.44.44 0 0 0-.369-.679h-.023L2.4 20.8c.82-.972 2.242-2.207 4.654-3.209.07-.011 3.178-.62 4.624-.907.065.123.129.24.205.357-.86.99-3.05 3.496-3.097 3.554-2.078 1.587-3.857 2.202-5.104 2.425zm8.868-.399c-1.024 2.612-2.324 4.129-3.342 4.984l.111-1.974a.438.438 0 0 0-.673-.392l-1.65 1.083c.233-1.306.895-3.191 2.645-5.387l2.822-3.215c.415.387.913.685 1.475.855l-1.388 4.046zm-.404-7.624a2.861 2.861 0 0 1 2.857-2.858 2.861 2.861 0 0 1 2.857 2.858 2.861 2.861 0 0 1-2.857 2.858 2.861 2.861 0 0 1-2.857-2.858zm10.876 11.331l-1.65-1.083a.439.439 0 0 0-.463-.012.427.427 0 0 0-.216.404l.111 1.974c-1.013-.855-2.318-2.372-3.342-4.984l-1.376-4.046a3.734 3.734 0 0 0 1.475-.855l2.821 3.215c1.745 2.196 2.406 4.081 2.64 5.387zm4.584-5.528l-1.973-.111a.437.437 0 0 0-.392.68l1.083 1.65c-1.253-.222-3.032-.843-5.104-2.424-.047-.058-2.389-2.74-3.097-3.554a3.19 3.19 0 0 0 .205-.357c1.27.251 4.554.896 4.624.907 2.412 1.002 3.834 2.231 4.654 3.21zm-4.777-4.116l-4.19-.832a3.704 3.704 0 0 0 0-1.698l4.19-.832c2.775-.415 4.736-.047 5.989.404l-1.762.89a.445.445 0 0 0-.24.393c0 .164.093.316.24.392l1.767.89c-1.252.44-3.22.808-5.994.393z" fill="#0AB1B0"/></svg>