<svg width="27" height="30" viewBox="0 0 27 30" xmlns="http://www.w3.org/2000/svg"><title>tul</title><path d="M23.594 2.812l-.388-.647a.471.471 0 0 0-.494-.224.483.483 0 0 0-.388.377l-.418 2.058-.565-.723a8.592 8.592 0 0 0-2.017-1.87l-1.1-.736a.481.481 0 0 0-.606.059l-1.83 1.83L13.482.17a.472.472 0 0 0-.37-.171.5.5 0 0 0-.37.17l-2.307 2.765-1.83-1.83A.48.48 0 0 0 8 1.048l-1.106.735a8.566 8.566 0 0 0-2.012 1.87l-.564.724L3.9 2.318a.483.483 0 0 0-.388-.377c-.03-.006-.053-.006-.083-.006a.476.476 0 0 0-.411.236l-.389.64a18.121 18.121 0 0 0-2.588 9.336v4.788a12.98 12.98 0 0 0 3.824 9.236 12.98 12.98 0 0 0 9.235 3.823 12.98 12.98 0 0 0 9.235-3.823 12.98 12.98 0 0 0 3.824-9.236v-4.788a17.876 17.876 0 0 0-2.565-9.335zM9.582 3.976A14.208 14.208 0 0 0 7.135 8.23l-.24.665-.471-.53a9.06 9.06 0 0 1-1.589-2.482L4.76 5.7l.088-.176a7.628 7.628 0 0 1 2.6-2.936l.777-.517 1.611 1.611-.253.294zm3.06 17.618v7.441l-.46-.035a12.081 12.081 0 0 1-7.923-3.83 12.035 12.035 0 0 1-3.241-8.235v-4.788c0-2.53.57-5.076 1.658-7.365l.495-1.047.3 1.118A10.149 10.149 0 0 0 6.44 9.735l1.63 1.489a14.084 14.084 0 0 1 4.57 10.37zM7.687 9.582l.218-.647a13.36 13.36 0 0 1 2.43-4.359l2.788-3.347 2.788 3.347a13.47 13.47 0 0 1 2.43 4.36l.217.652-1.024.936a15.07 15.07 0 0 0-4.006 6.029l-.4 1.118-.4-1.118a15.07 15.07 0 0 0-4.005-6.03l-1.036-.94zm13.718-3.706a9.06 9.06 0 0 1-1.588 2.483l-.47.53-.242-.665a14.539 14.539 0 0 0-2.447-4.253l-.247-.3 1.612-1.612.776.517a7.72 7.72 0 0 1 2.6 2.936l.088.176-.082.188zM13.6 21.594c0-3.935 1.665-7.718 4.57-10.37l1.63-1.489a10.152 10.152 0 0 0 2.97-4.882l.3-1.118.495 1.047a17.34 17.34 0 0 1 1.659 7.365v4.788a12.06 12.06 0 0 1-3.242 8.236A12.081 12.081 0 0 1 14.06 29l-.459.035v-7.44z" fill="#0AB1B0"/></svg>