<?xml version="1.0" encoding="utf-8"?>
<!-- Generator: Adobe Illustrator 21.1.0, SVG Export Plug-In . SVG Version: 6.00 Build 0)  -->
<svg version="1.1" id="Ebene_1" xmlns="http://www.w3.org/2000/svg" xmlns:xlink="http://www.w3.org/1999/xlink" x="0px" y="0px"
	 viewBox="0 0 400.6 160.3" style="enable-background:new 0 0 400.6 160.3;" xml:space="preserve">
<style type="text/css">
	.Gr√_x00BC_n_x0020_bogenf√_x00B6_rmig{fill:url(#SVGID_1_);stroke:#FFFFFF;stroke-width:0.25;stroke-miterlimit:1;}
	.st0{fill:#0B489D;}
	.st1{fill:#333333;}
</style>
<linearGradient id="SVGID_1_" gradientUnits="userSpaceOnUse" x1="-220.7925" y1="374.6523" x2="-220.0854" y2="373.9452">
	<stop  offset="0" style="stop-color:#339A2A"/>
	<stop  offset="0.9831" style="stop-color:#121E0D"/>
</linearGradient>
<path class="st0" d="M55.4,81.8c-6,3.3-12.8,5-21.6,5c-20.8,0-32.8-12-32.8-32.6c0-18.2,9.6-33.2,29.2-33.2C53.4,21.1,60,37,60,59
	H16.6c0.7,10.1,7.8,15.9,17.9,15.9c7.9,0,14.8-2.9,20.9-6.3V81.8z M44.4,47.8C43.9,39.9,40.2,33,31.1,33c-9.2,0-13.8,6.3-14.5,14.8
	H44.4z"/>
<path class="st0" d="M71.9,22.5h15.3v8.8h0.2c5.1-7.7,12.6-10.3,18.7-10.3c8.8,0,15,3.3,18.6,11.1c3.8-7.6,12-11.1,19.7-11.1
	c15.5,0,19.9,10.6,19.9,24.7v39.7h-16.4V47.9c0-5.9,0-14.2-9.4-14.2c-10.9,0-12.2,12.9-12.2,21.1v30.5h-16.4V47.9
	c0-5.9,0-14.2-9.4-14.2c-10.9,0-12.2,12.9-12.2,21.1v30.5H71.9V22.5z"/>
<path class="st0" d="M302.2,81.8c-6,3.3-12.8,5-21.6,5c-20.8,0-32.8-12-32.8-32.6c0-18.2,9.6-33.2,29.2-33.2c23.3,0,29.9,16,29.9,38
	h-43.5c0.7,10.1,7.8,15.9,17.9,15.9c7.9,0,14.8-2.9,20.9-6.3V81.8z M291.2,47.8C290.7,39.9,287,33,277.9,33
	c-9.2,0-13.8,6.3-14.5,14.8H291.2z"/>
<g>
	<path class="st1" d="M7.7,145.6L0,132.8h5l5,8.9l5.1-8.9h4.5L12,145.6v8.4H7.7V145.6z"/>
	<path class="st1" d="M29.4,137.9c4.6,0,8.2,3.1,8.2,8.3c0,4.5-3,8.1-8.2,8.1c-5.2,0-8.2-3.6-8.2-8.1
		C21.3,141.1,24.8,137.9,29.4,137.9z M29.4,151.1c3.1,0,3.9-2.8,3.9-5.4c0-2.4-1.3-4.6-3.9-4.6c-2.6,0-3.9,2.3-3.9,4.6
		C25.5,148.3,26.3,151.1,29.4,151.1z"/>
	<path class="st1" d="M58.2,153.9h-3.9v-2.1h-0.1c-1.2,1.5-3,2.5-5.1,2.5c-3.7,0-5.3-2.6-5.3-6.1v-9.9h4.1v8.3c0,1.9,0,4.5,2.6,4.5
		c2.9,0,3.6-3.2,3.6-5.2v-7.6h4.1V153.9z"/>
	<path class="st1" d="M65.5,138.3h3.6v3.6h0.1c0.2-1.5,1.9-3.9,4.3-3.9c0.4,0,0.8,0,1.2,0.1v4.1c-0.4-0.2-1.1-0.3-1.8-0.3
		c-3.3,0-3.3,4.1-3.3,6.4v5.7h-4.1V138.3z"/>
	<path class="st1" d="M104.3,153.1c-1.5,0.8-3.2,1.2-5.4,1.2c-5.2,0-8.2-3-8.2-8.1c0-4.5,2.4-8.3,7.3-8.3c5.8,0,7.4,4,7.4,9.4H94.6
		c0.2,2.5,1.9,3.9,4.5,3.9c2,0,3.7-0.7,5.2-1.6V153.1z M101.5,144.6c-0.1-2-1-3.7-3.3-3.7c-2.3,0-3.4,1.6-3.6,3.7H101.5z"/>
	<path class="st1" d="M111.6,138.3h3.8v2.2h0.1c1.3-1.9,3.1-2.5,4.6-2.5c2.2,0,3.7,0.8,4.6,2.8c0.9-1.9,3-2.8,4.9-2.8
		c3.9,0,4.9,2.6,4.9,6.1v9.9h-4.1v-9.3c0-1.5,0-3.5-2.3-3.5c-2.7,0-3,3.2-3,5.3v7.6H121v-9.3c0-1.5,0-3.5-2.3-3.5
		c-2.7,0-3,3.2-3,5.3v7.6h-4.1V138.3z"/>
	<path class="st1" d="M141.6,131.2h4.1v9.1h0.1c1.1-1.5,2.6-2.4,4.7-2.4c4.8,0,6.6,3.8,6.6,8.1c0,4.3-1.8,8.2-6.6,8.2
		c-1.7,0-3.6-0.6-4.8-2.3h-0.1v1.9h-3.9V131.2z M149.3,151.1c2.7,0,3.4-2.9,3.4-5.1c0-2.1-0.7-5-3.4-5c-2.6,0-3.6,2.8-3.6,5
		C145.7,148.3,146.6,151.1,149.3,151.1z"/>
	<path class="st1" d="M175.8,153.1c-1.5,0.8-3.2,1.2-5.4,1.2c-5.2,0-8.2-3-8.2-8.1c0-4.5,2.4-8.3,7.3-8.3c5.8,0,7.4,4,7.4,9.4h-10.8
		c0.2,2.5,1.9,3.9,4.5,3.9c2,0,3.7-0.7,5.2-1.6V153.1z M173,144.6c-0.1-2-1-3.7-3.3-3.7s-3.4,1.6-3.6,3.7H173z"/>
	<path class="st1" d="M193.5,152.2L193.5,152.2c-1.3,1.5-2.9,2.1-4.9,2.1c-4.8,0-6.6-3.9-6.6-8.2c0-4.3,1.8-8.1,6.6-8.1
		c2,0,3.5,0.7,4.7,2.2h0.1v-9h4.1v22.8h-3.9V152.2z M189.8,151.1c2.7,0,3.6-2.9,3.6-5.1c0-2.2-1-5-3.6-5c-2.6,0-3.4,2.9-3.4,5
		C186.4,148.2,187.1,151.1,189.8,151.1z"/>
	<path class="st1" d="M215.1,152.2L215.1,152.2c-1.3,1.5-2.9,2.1-4.9,2.1c-4.8,0-6.6-3.9-6.6-8.2c0-4.3,1.8-8.1,6.6-8.1
		c2,0,3.5,0.7,4.7,2.2h0.1v-9h4.1v22.8h-3.9V152.2z M211.4,151.1c2.7,0,3.6-2.9,3.6-5.1c0-2.2-1-5-3.6-5c-2.6,0-3.4,2.9-3.4,5
		C208,148.2,208.7,151.1,211.4,151.1z"/>
	<path class="st1" d="M238.8,153.1c-1.5,0.8-3.2,1.2-5.4,1.2c-5.2,0-8.2-3-8.2-8.1c0-4.5,2.4-8.3,7.3-8.3c5.8,0,7.4,4,7.4,9.4h-10.8
		c0.2,2.5,1.9,3.9,4.5,3.9c2,0,3.7-0.7,5.2-1.6V153.1z M236.1,144.6c-0.1-2-1-3.7-3.3-3.7c-2.3,0-3.4,1.6-3.6,3.7H236.1z"/>
	<path class="st1" d="M256.6,152.2L256.6,152.2c-1.3,1.5-2.9,2.1-4.9,2.1c-4.8,0-6.6-3.9-6.6-8.2c0-4.3,1.8-8.1,6.6-8.1
		c2,0,3.5,0.7,4.7,2.2h0.1v-9h4.1v22.8h-3.9V152.2z M252.9,151.1c2.7,0,3.6-2.9,3.6-5.1c0-2.2-1-5-3.6-5c-2.6,0-3.4,2.9-3.4,5
		C249.5,148.2,250.2,151.1,252.9,151.1z"/>
	<path class="st1" d="M291.8,153.1c-1.5,0.8-3.2,1.2-5.4,1.2c-5.2,0-8.2-3-8.2-8.1c0-4.5,2.4-8.3,7.3-8.3c5.8,0,7.4,4,7.4,9.4h-10.8
		c0.2,2.5,1.9,3.9,4.5,3.9c2,0,3.7-0.7,5.2-1.6V153.1z M289.1,144.6c-0.1-2-1-3.7-3.3-3.7c-2.3,0-3.4,1.6-3.6,3.7H289.1z"/>
	<path class="st1" d="M297.9,138.3h4.8l3.1,5.1l3-5.1h4.3l-4.7,7.4l5.3,8.2h-4.9l-3.5-5.8l-3.5,5.8h-4.5l5.4-8.2L297.9,138.3z"/>
	<path class="st1" d="M319.1,138.3h3.9v2.2h0.1c0.9-1.5,2.5-2.6,4.9-2.6c4.8,0,6.6,3.8,6.6,8.1c0,4.3-1.8,8.2-6.6,8.2
		c-1.7,0-3.2-0.4-4.6-2.2h-0.1v8.2h-4.1V138.3z M323.2,146.1c0,2.2,0.9,5.1,3.6,5.1c2.7,0,3.4-2.9,3.4-5.1c0-2.1-0.7-5-3.4-5
		C324.2,141.1,323.2,143.9,323.2,146.1z"/>
	<path class="st1" d="M353.2,153.1c-1.5,0.8-3.2,1.2-5.4,1.2c-5.2,0-8.2-3-8.2-8.1c0-4.5,2.4-8.3,7.3-8.3c5.8,0,7.4,4,7.4,9.4h-10.8
		c0.2,2.5,1.9,3.9,4.5,3.9c2,0,3.7-0.7,5.2-1.6V153.1z M350.5,144.6c-0.1-2-1-3.7-3.3-3.7c-2.3,0-3.4,1.6-3.6,3.7H350.5z"/>
	<path class="st1" d="M360.7,138.3h3.6v3.6h0.1c0.2-1.5,1.8-3.9,4.3-3.9c0.4,0,0.8,0,1.2,0.1v4.1c-0.4-0.2-1.1-0.3-1.8-0.3
		c-3.3,0-3.3,4.1-3.3,6.4v5.7h-4.1V138.3z"/>
	<path class="st1" d="M376.7,141.3h-3v-3h3v-3.1l4.1-1.3v4.4h3.6v3h-3.6v7.3c0,1.3,0.4,2.6,1.9,2.6c0.7,0,1.4-0.2,1.9-0.4l0.1,3.2
		c-0.8,0.2-1.8,0.4-3,0.4c-3.2,0-4.9-2-4.9-5.1V141.3z"/>
	<path class="st1" d="M399.5,141.6c-1.2-0.4-2.2-0.7-3.6-0.7c-1.1,0-2.4,0.4-2.4,1.7c0,2.5,7.1,0.9,7.1,6.6c0,3.6-3.2,5.1-6.6,5.1
		c-1.5,0-3.1-0.3-4.6-0.7l0.2-3.3c1.3,0.6,2.6,1,4,1c1,0,2.7-0.4,2.7-1.9c0-3.1-7.1-1-7.1-6.6c0-3.4,2.9-4.9,6.1-4.9
		c1.9,0,3.2,0.3,4.4,0.6L399.5,141.6z"/>
</g>
<polygon class="st0" points="395,0 370.6,0 348.6,34.5 327.1,0 302.8,0 337.5,55.6 308.8,100.8 1.8,100.8 1.8,117.9 322.3,117.9 
	348.5,76.8 374.1,117.9 398.4,117.9 359.6,55.7 "/>
<path class="st0" d="M213.1,21.1c-8.5,0-14.3,3.5-18.8,9.5h-0.2V0h-16.4v85.4h15.9v-7.7h0.2c4.8,6.7,12.3,9.2,19.3,9.2
	c19.3,0,26.4-15.9,26.4-33.1C239.5,36.4,232.4,21.1,213.1,21.1z M208.6,74.2c-10.9,0-14.4-11.5-14.4-20.4c0-8.8,4.2-20,14.6-20
	c10.6,0,13.6,11.6,13.6,20C222.4,62.4,219.3,74.2,208.6,74.2z"/>
</svg>
